<svg xmlns="http://www.w3.org/2000/svg" xmlns:xlink="http://www.w3.org/1999/xlink" width="84.504" height="84.502" viewBox="0 0 84.504 84.502"><defs><linearGradient id="a" x1="0.5" x2="0.5" y2="1" gradientUnits="objectBoundingBox"><stop offset="0" stop-color="#ff4b70"/><stop offset="1" stop-color="#7c4dff"/></linearGradient></defs><g transform="translate(0 -0.001)"><rect width="3" height="2" transform="translate(16.229 69)" fill="url(#a)"/><rect width="2" height="2" transform="translate(11.229 69)" fill="url(#a)"/><rect width="3" height="2" transform="translate(5.229 69)" fill="url(#a)"/><path d="M78.689,20.081H65.06V10.54a4.094,4.094,0,0,0-4.089-4.089H49.858A6.753,6.753,0,0,0,38.649,2.79,6.816,6.816,0,0,0,36.58,6.451H25.533a4.094,4.094,0,0,0-4.089,4.089v6.815h2.726V10.54a1.363,1.363,0,0,1,1.363-1.363h10.9V10.54a6.822,6.822,0,0,0,2.726,5.423v.364l-4.62,1.319a6.814,6.814,0,0,0-4.92,6.523v4.089H56.882V24.17a6.814,6.814,0,0,0-4.92-6.523l-4.62-1.319v-.364a6.822,6.822,0,0,0,2.726-5.423V9.177h10.9a1.363,1.363,0,0,1,1.363,1.363V29.622a1.363,1.363,0,0,1-1.363,1.363H44.615v4.61L35.4,30.985H25.533a1.363,1.363,0,0,1-1.363-1.363V20.081H7.815A6.823,6.823,0,0,0,1,26.9V70.511a6.823,6.823,0,0,0,6.815,6.815H25.533v5.452H20.082V85.5H66.423V82.778H60.971V77.326H78.689A6.823,6.823,0,0,0,85.5,70.511V26.9A6.823,6.823,0,0,0,78.689,20.081ZM47.341,10.54a4.045,4.045,0,0,1-2.049,3.518l-.677.394v3.931l6.6,1.886a4.074,4.074,0,0,1,2.943,3.9v1.363H32.348V24.17a4.074,4.074,0,0,1,2.943-3.9l6.6-1.886V14.452l-.677-.394a4.045,4.045,0,0,1-2.049-3.518V7.814a4.091,4.091,0,0,1,4.46-4.073A4.27,4.27,0,0,1,47.341,8.1Zm13.63,23.17H77.326v2.726H55.519l0-2.726h5.455ZM77.326,55.518v2.726H55.519l0-2.726h21.81ZM58.245,52.792V50.066H74.6v2.726Zm-2.726-5.452,0-2.726h21.81v2.726Zm2.726-5.452V39.163H74.6v2.726ZM7.815,22.807h13.63v6.815a4.094,4.094,0,0,0,4.089,4.089h9.219l12.588,6.294V33.711h5.452v2.726a2.729,2.729,0,0,0,2.726,2.726v2.726a2.729,2.729,0,0,0-2.726,2.726v2.726a2.729,2.729,0,0,0,2.726,2.726v2.726a2.729,2.729,0,0,0-2.726,2.726v2.726a2.729,2.729,0,0,0,2.726,2.726H77.326a2.729,2.729,0,0,0,2.726-2.726V55.518a2.729,2.729,0,0,0-2.726-2.726V50.066a2.729,2.729,0,0,0,2.726-2.726V44.615a2.729,2.729,0,0,0-2.726-2.726V39.163a2.729,2.729,0,0,0,2.726-2.726V33.711a2.729,2.729,0,0,0-2.726-2.726H64.809a4.043,4.043,0,0,0,.251-1.363V22.807h13.63A4.094,4.094,0,0,1,82.778,26.9V66.422H24.583L20.495,63.7H3.726V26.9A4.094,4.094,0,0,1,7.815,22.807ZM78.689,74.6h-47.7v2.726H58.245v5.452H28.259V74.6H7.815a4.094,4.094,0,0,1-4.089-4.089V66.422H19.669l4.089,2.726H82.778v1.363A4.094,4.094,0,0,1,78.689,74.6Z" transform="translate(-1 -1.001)" fill="url(#a)"/><rect width="3" height="2" transform="translate(5.229 57)" fill="url(#a)"/><rect width="21" height="2" transform="translate(11.229 57)" fill="url(#a)"/><rect width="3" height="4" transform="translate(5.229 51)" fill="url(#a)"/><rect width="21" height="4" transform="translate(11.229 51)" fill="url(#a)"/><rect width="3" height="2" transform="translate(5.229 47)" fill="url(#a)"/><rect width="21" height="2" transform="translate(11.229 47)" fill="url(#a)"/><rect width="3" height="2" transform="translate(5.229 41)" fill="url(#a)"/><rect width="21" height="2" transform="translate(11.229 41)" fill="url(#a)"/><rect width="3" height="3" transform="translate(5.229 35)" fill="url(#a)"/><rect width="21" height="3" transform="translate(11.229 35)" fill="url(#a)"/></g></svg>