<svg id="Construction" xmlns="http://www.w3.org/2000/svg" xmlns:xlink="http://www.w3.org/1999/xlink" width="496" height="496" viewBox="0 0 496 496">
  <defs>
    <linearGradient id="linear-gradient" x1="0.5" x2="0.5" y2="1" gradientUnits="objectBoundingBox">
      <stop offset="0" stop-color="#ff4b70"/>
      <stop offset="1" stop-color="#7c4dff"/>
    </linearGradient>
  </defs>
  <g id="Group_297" data-name="Group 297">
    <g id="Group_296" data-name="Group 296">
      <path id="Path_5210" data-name="Path 5210" d="M480,400.888V328a23.967,23.967,0,0,0-16-22.528V296a24.029,24.029,0,0,0-24-24H350.528A23.967,23.967,0,0,0,328,256V155.9a56.093,56.093,0,0,0-28.28-48.656L146.368,19.872A39.859,39.859,0,0,0,72.024,39.736H72L64.232,272.784a39.844,39.844,0,0,0-24.808,62.272L16.664,361.6a69.211,69.211,0,0,0,3.608,93.984L44.28,479.592A55.643,55.643,0,0,0,83.88,496H168V480H152V436.16l-27.48-21.984a39.732,39.732,0,0,1-14.768-26.816l-5.736-51.624a39.377,39.377,0,0,0-6.7-54.44L134.512,73.024a41.353,41.353,0,0,0,3.944-3.256l82.08,82.08A31.577,31.577,0,0,0,216,168a31.973,31.973,0,0,0,24,30.864V256h-2.88a24.063,24.063,0,0,0-23.536,19.288L192.16,382.432l-.112,18.408A55.943,55.943,0,0,0,232,496H440a55.943,55.943,0,0,0,40-95.112ZM72,288a24,24,0,1,1-24,24A24.029,24.029,0,0,1,72,288Zm42.528,138.672L136,443.84V448H120v16h16v16H83.88a39.752,39.752,0,0,1-28.288-11.72L31.584,444.272a53.215,53.215,0,0,1-2.768-72.264l22.328-26.04a38.844,38.844,0,0,0,38.136,1.944l4.576,41.208A55.621,55.621,0,0,0,114.528,426.672ZM82.456,273.56c-.752-.208-1.448-.528-2.208-.688L86.976,70.944A39.563,39.563,0,0,0,112,80a38.556,38.556,0,0,0,5.112-.52ZM112,64a24,24,0,1,1,24-24A24.029,24.029,0,0,1,112,64ZM352,320h16V304H352V288h88a8.008,8.008,0,0,1,8,8v8H384v16h72a8.008,8.008,0,0,1,8,8v61.48A55.617,55.617,0,0,0,440,384H352ZM148.152,56.84a39.7,39.7,0,0,0,3.7-15.424L291.8,121.144A40.067,40.067,0,0,1,312,155.9V256H256V198.864A31.933,31.933,0,0,0,248,136a31.577,31.577,0,0,0-16.152,4.536ZM232,168a16,16,0,1,1,16,16A16.016,16.016,0,0,1,232,168ZM208,384.792l21.272-106.36A8.024,8.024,0,0,1,237.12,272H328a8.008,8.008,0,0,1,8,8V384H232a55.616,55.616,0,0,0-24,5.48ZM440,480H232a40,40,0,0,1,0-80H440a40,40,0,0,1,0,80Z" fill="url(#linear-gradient)"/>
      <path id="Path_5211" data-name="Path 5211" d="M432,408a31.8,31.8,0,0,0-24,11.056,31.577,31.577,0,0,0-48,0,31.577,31.577,0,0,0-48,0,31.577,31.577,0,0,0-48,0,32,32,0,1,0,0,41.888,31.577,31.577,0,0,0,48,0,31.577,31.577,0,0,0,48,0,31.577,31.577,0,0,0,48,0A31.939,31.939,0,1,0,432,408ZM240,456a16,16,0,1,1,16-16A16.016,16.016,0,0,1,240,456Zm48,0a16,16,0,1,1,16-16A16.016,16.016,0,0,1,288,456Zm48,0a16,16,0,1,1,16-16A16.016,16.016,0,0,1,336,456Zm48,0a16,16,0,1,1,16-16A16.016,16.016,0,0,1,384,456Zm48,0a16,16,0,1,1,16-16A16.016,16.016,0,0,1,432,456Z" fill="url(#linear-gradient)"/>
      <path id="Path_5212" data-name="Path 5212" d="M328,288H241.44l-9.288,46.432L232,352h96Zm-16,48H248.16l6.4-32H312Z" fill="url(#linear-gradient)"/>
      <rect id="Rectangle_412" data-name="Rectangle 412" width="32" height="16" transform="translate(416 336)" fill="url(#linear-gradient)"/>
      <rect id="Rectangle_413" data-name="Rectangle 413" width="32" height="16" transform="translate(368 336)" fill="url(#linear-gradient)"/>
    </g>
  </g>
</svg>
