<svg xmlns="http://www.w3.org/2000/svg" xmlns:xlink="http://www.w3.org/1999/xlink" width="84.503" height="84.503" viewBox="0 0 84.503 84.503"><defs><linearGradient id="a" x1="0.5" x2="0.5" y2="1" gradientUnits="objectBoundingBox"><stop offset="0" stop-color="#ff4b70"/><stop offset="1" stop-color="#7c4dff"/></linearGradient></defs><g transform="translate(0)"><g transform="translate(53.475 9.566)"><path d="M325.651,57.959a1.653,1.653,0,1,0,1.65,1.656V59.6A1.646,1.646,0,0,0,325.651,57.959Z" transform="translate(-324 -57.959)" fill="url(#a)"/></g><g transform="translate(31.854 5.777)"><path d="M209.924,36.085A96.163,96.163,0,0,0,194.65,35a1.65,1.65,0,0,0,0,3.3,92.854,92.854,0,0,1,14.723,1.038,1.65,1.65,0,1,0,.551-3.255Z" transform="translate(-193 -35)" fill="url(#a)"/></g><g transform="translate(54.795 54.794)"><path d="M350.815,340.581a1.651,1.651,0,0,0-1.65,1.65,6.932,6.932,0,1,1-6.479-6.917,1.65,1.65,0,0,0,.214-3.294,10.233,10.233,0,1,0,9.566,10.211A1.65,1.65,0,0,0,350.815,340.581Z" transform="translate(-332 -331.999)" fill="url(#a)"/></g><g transform="translate(69.417 57.279)"><path d="M423.446,347.571l-.026-.026-1.175,1.159,1.167-1.167a1.651,1.651,0,1,0-2.334,2.334l.024.024a1.651,1.651,0,0,0,2.344-2.324Z" transform="translate(-420.594 -347.053)" fill="url(#a)"/></g><g transform="translate(0)"><path d="M83.251,60.706l-2.4-.6-1.159-2.8L80.968,55.2a1.65,1.65,0,0,0-.247-2.017l-3.847-3.847a1.65,1.65,0,0,0-2.018-.247l-2.115,1.271-2.8-1.159-.6-2.4a1.65,1.65,0,0,0-1.6-1.252h-.739V11.221c0-3.4-3.633-6.283-10.505-8.348A83.322,83.322,0,0,0,33.5,0a83.322,83.322,0,0,0-23,2.873C3.633,4.938,0,7.825,0,11.221v62.06c0,3.4,3.633,6.283,10.505,8.348a83.323,83.323,0,0,0,23,2.873,102.784,102.784,0,0,0,10.682-.542,1.65,1.65,0,0,0-.345-3.283A99.494,99.494,0,0,1,33.5,81.2a80,80,0,0,1-22.049-2.733C5.437,76.66,3.3,74.544,3.3,73.281V57.732a25.617,25.617,0,0,0,7.2,3.211,83.324,83.324,0,0,0,23,2.873c2.53,0,5.05-.088,7.49-.262a1.65,1.65,0,1,0-.234-3.292c-2.363.168-4.8.254-7.256.254a80,80,0,0,1-22.049-2.733C5.437,55.973,3.3,53.857,3.3,52.595V37.045a25.62,25.62,0,0,0,7.2,3.211,83.32,83.32,0,0,0,23,2.873,83.321,83.321,0,0,0,23-2.873,25.625,25.625,0,0,0,7.2-3.211v8.507h-1.4a1.65,1.65,0,0,0-1.6,1.252l-.6,2.4-2.8,1.159L55.2,49.087a1.65,1.65,0,0,0-2.018.247l-3.847,3.847a1.65,1.65,0,0,0-.247,2.017l1.271,2.115-1.159,2.8-2.4.6a1.651,1.651,0,0,0-1.252,1.6v5.439a1.65,1.65,0,0,0,1.251,1.6l2.4.6,1.159,2.8-1.271,2.115a1.651,1.651,0,0,0,.248,2.017l3.847,3.847a1.651,1.651,0,0,0,2.018.248L57.314,79.7l2.8,1.159.6,2.4a1.65,1.65,0,0,0,1.6,1.252h5.439a1.65,1.65,0,0,0,1.6-1.252l.6-2.4,2.8-1.159,2.115,1.271a1.651,1.651,0,0,0,2.018-.248l3.847-3.847a1.651,1.651,0,0,0,.248-2.017L79.7,72.741l1.159-2.8,2.4-.6a1.65,1.65,0,0,0,1.251-1.6V62.308A1.65,1.65,0,0,0,83.251,60.706ZM11.455,6.034A80,80,0,0,1,33.5,3.3,80,80,0,0,1,55.553,6.034c6.019,1.808,8.154,3.924,8.154,5.187s-2.136,3.379-8.154,5.187A79.994,79.994,0,0,1,33.5,19.142a79.994,79.994,0,0,1-22.049-2.733C5.437,14.6,3.3,12.484,3.3,11.221S5.437,7.843,11.455,6.034Zm44.1,31.061A79.994,79.994,0,0,1,33.5,39.828a79.994,79.994,0,0,1-22.049-2.733C5.437,35.287,3.3,33.171,3.3,31.908V16.358a25.62,25.62,0,0,0,7.2,3.211,83.32,83.32,0,0,0,23,2.873,83.321,83.321,0,0,0,23-2.873,25.625,25.625,0,0,0,7.2-3.211v15.55C63.707,33.171,61.572,35.287,55.553,37.095ZM81.2,66.457l-1.952.486a1.65,1.65,0,0,0-1.126.97l-1.8,4.333a1.65,1.65,0,0,0,.11,1.482l1.035,1.723-2.023,2.023-1.723-1.036a1.651,1.651,0,0,0-1.482-.11l-4.333,1.8a1.65,1.65,0,0,0-.97,1.126L66.457,81.2H63.6l-.486-1.952a1.65,1.65,0,0,0-.97-1.126l-4.333-1.8a1.65,1.65,0,0,0-1.482.11L54.6,77.474l-2.023-2.023,1.035-1.723a1.65,1.65,0,0,0,.11-1.482l-1.8-4.333a1.651,1.651,0,0,0-1.126-.97l-1.952-.486V63.6l1.952-.486a1.651,1.651,0,0,0,1.126-.97l1.8-4.333a1.65,1.65,0,0,0-.11-1.482L52.581,54.6,54.6,52.581l1.723,1.036a1.649,1.649,0,0,0,1.482.11l4.333-1.8a1.65,1.65,0,0,0,.97-1.126l.486-1.952h2.86l.486,1.952a1.65,1.65,0,0,0,.97,1.126l4.333,1.8a1.651,1.651,0,0,0,1.482-.11l1.723-1.036L77.474,54.6l-1.035,1.723a1.65,1.65,0,0,0-.11,1.482l1.8,4.333a1.651,1.651,0,0,0,1.126.97L81.2,63.6Z" fill="url(#a)"/></g></g></svg>