<svg xmlns="http://www.w3.org/2000/svg" xmlns:xlink="http://www.w3.org/1999/xlink" width="84.503" height="84.503" viewBox="0 0 84.503 84.503"><defs><linearGradient id="a" x1="0.5" x2="0.5" y2="1" gradientUnits="objectBoundingBox"><stop offset="0" stop-color="#ff4b70"/><stop offset="1" stop-color="#7c4dff"/></linearGradient></defs><g transform="translate(0)"><path d="M190.186,174.5a1.238,1.238,0,0,0,1.238-1.238v-8.939a1.238,1.238,0,0,0-.8-1.159l-14.672-5.5a1.238,1.238,0,0,0-.869,0l-14.672,5.5a1.238,1.238,0,0,0-.8,1.159V168.3a1.238,1.238,0,1,0,2.476,0v-2.188l12.2,4.573v16.362l-12.2-4.573v-8.384a1.238,1.238,0,1,0-2.476,0v9.242a1.238,1.238,0,0,0,.8,1.159l14.672,5.5v0a1.212,1.212,0,0,0,.869,0l14.672-5.5a1.238,1.238,0,0,0,.8-1.159v-4.3a1.238,1.238,0,1,0-2.476,0v3.44l-12.2,4.574V170.684l12.2-4.573v7.153A1.238,1.238,0,0,0,190.186,174.5Zm-14.672-6-11.146-4.18,11.146-4.18,11.146,4.18Z" transform="translate(-133.263 -131.577)" fill="url(#a)"/><path d="M223.2,12.355v8.889a1.238,1.238,0,0,0,2.476,0V12.355a6.24,6.24,0,1,0-2.476,0Zm1.238-9.88a3.764,3.764,0,1,1-3.764,3.764A3.768,3.768,0,0,1,224.435,2.476Z" transform="translate(-182.183)" fill="url(#a)"/><path d="M348.7,340.125a8.528,8.528,0,0,0-5.121,1.7l-2.963-2.963a1.238,1.238,0,1,0-1.751,1.75l2.963,2.963a8.571,8.571,0,1,0,6.872-3.452Zm0,14.671a6.1,6.1,0,1,1,6.1-6.1A6.1,6.1,0,0,1,348.7,354.8Z" transform="translate(-282.634 -282.634)" fill="url(#a)"/><path d="M68.34,76.914a8.528,8.528,0,0,0,5.121-1.7l2.963,2.963a1.238,1.238,0,1,0,1.751-1.75l-2.963-2.963a8.571,8.571,0,1,0-6.872,3.452Zm0-14.671a6.1,6.1,0,1,1-6.1,6.1A6.1,6.1,0,0,1,68.34,62.242Z" transform="translate(-49.903 -49.903)" fill="url(#a)"/><path d="M225.672,385.907v-8.889a1.238,1.238,0,0,0-2.476,0v8.889a6.24,6.24,0,1,0,2.476,0Zm-1.238,9.88a3.764,3.764,0,1,1,3.764-3.764A3.768,3.768,0,0,1,224.435,395.787Z" transform="translate(-182.183 -313.76)" fill="url(#a)"/><path d="M392.023,218.195a6.25,6.25,0,0,0-6.116,5h-8.889a1.238,1.238,0,0,0,0,2.476h8.889a6.24,6.24,0,1,0,6.116-7.477Zm0,10a3.764,3.764,0,1,1,3.764-3.764A3.768,3.768,0,0,1,392.023,228.2Z" transform="translate(-313.76 -182.183)" fill="url(#a)"/><path d="M12.355,225.672h8.889a1.238,1.238,0,1,0,0-2.476H12.355a6.24,6.24,0,1,0,0,2.476ZM6.24,228.2A3.764,3.764,0,1,1,10,224.435,3.768,3.768,0,0,1,6.24,228.2Z" transform="translate(0 -182.183)" fill="url(#a)"/><path d="M339.738,78.537a1.234,1.234,0,0,0,.875-.363l2.963-2.963a8.582,8.582,0,1,0-1.751-1.751l-2.963,2.963a1.238,1.238,0,0,0,.875,2.113Zm8.96-16.3a6.1,6.1,0,1,1-6.1,6.1A6.1,6.1,0,0,1,348.7,62.242Z" transform="translate(-282.633 -49.902)" fill="url(#a)"/><path d="M76.424,338.864l-2.963,2.963a8.582,8.582,0,1,0,1.751,1.751l2.963-2.963a1.238,1.238,0,0,0-1.751-1.751ZM68.34,354.8a6.1,6.1,0,1,1,6.1-6.1A6.1,6.1,0,0,1,68.34,354.8Z" transform="translate(-49.902 -282.634)" fill="url(#a)"/></g></svg>