<svg xmlns="http://www.w3.org/2000/svg" xmlns:xlink="http://www.w3.org/1999/xlink" width="60.422" height="60.421" viewBox="0 0 60.422 60.421"><defs><linearGradient id="a" x1="0.5" x2="0.5" y2="1" gradientUnits="objectBoundingBox"><stop offset="0" stop-color="#ff4b70"/><stop offset="1" stop-color="#7c4dff"/></linearGradient></defs><g transform="translate(0 34.239)"><path d="M15.749,285.988a5.3,5.3,0,0,0-2.291-.848,6.99,6.99,0,0,0,2.655-5.084c0-6.659-3.834-8.056-7.049-8.056s-7.049,1.4-7.049,8.056A6.99,6.99,0,0,0,4.67,285.14,5.32,5.32,0,0,0,0,290.429v6.747a1.007,1.007,0,0,0,1.007,1.007H17.119a1.007,1.007,0,0,0,1.007-1.007v-6.747A5.328,5.328,0,0,0,15.749,285.988Zm-11.669-7c.273-3.376,1.861-4.976,4.983-4.976,2.857,0,4.431,1.351,4.881,4.171l-3.355-2.014a1.007,1.007,0,0,0-1.473.545c-.51,1.528-3.261,2.107-5.036,2.275Zm.088,2.02c1.725-.142,4.834-.664,6.284-2.573l3.6,2.16c-.4,2.466-3.442,4.494-4.988,4.494a6.344,6.344,0,0,1-4.9-4.081ZM9.9,290.89l-.832.834-.832-.833.832-2.082Zm6.217,5.279H2.014v-5.74a3.323,3.323,0,0,1,3.323-3.323H7.573L6.114,290.76a1.007,1.007,0,0,0,.224,1.086l2.014,2.014a1.007,1.007,0,0,0,1.424,0l2.014-2.014a1.007,1.007,0,0,0,.224-1.086l-1.462-3.654h2.239a3.323,3.323,0,0,1,3.323,3.323Z" transform="translate(0 -272)" fill="url(#a)"/></g><g transform="translate(21.148 34.239)"><path d="M183.749,285.988a5.3,5.3,0,0,0-2.291-.848,6.99,6.99,0,0,0,2.655-5.084c0-6.659-3.834-8.056-7.049-8.056s-7.049,1.4-7.049,8.056a6.99,6.99,0,0,0,2.656,5.084,5.32,5.32,0,0,0-4.67,5.288v6.747a1.007,1.007,0,0,0,1.007,1.007h16.112a1.007,1.007,0,0,0,1.007-1.007v-6.747A5.328,5.328,0,0,0,183.749,285.988Zm-11.669-7c.273-3.376,1.861-4.976,4.983-4.976,2.857,0,4.431,1.351,4.881,4.171l-3.355-2.014a1.007,1.007,0,0,0-1.473.545c-.51,1.528-3.261,2.107-5.036,2.275Zm.088,2.02c1.725-.142,4.834-.664,6.284-2.573l3.6,2.16c-.4,2.466-3.442,4.494-4.988,4.494a6.344,6.344,0,0,1-4.9-4.081Zm5.727,9.879-.832.834-.832-.833.832-2.082Zm6.217,5.279h-14.1v-5.74a3.323,3.323,0,0,1,3.323-3.323h2.236l-1.462,3.654a1.007,1.007,0,0,0,.224,1.086l2.014,2.014a1.007,1.007,0,0,0,1.424,0l2.014-2.014a1.007,1.007,0,0,0,.224-1.086l-1.459-3.654h2.239a3.323,3.323,0,0,1,3.323,3.323Z" transform="translate(-168 -272)" fill="url(#a)"/></g><g transform="translate(42.295 34.239)"><path d="M351.749,285.988a5.3,5.3,0,0,0-2.291-.848,6.99,6.99,0,0,0,2.655-5.084c0-6.659-3.834-8.056-7.049-8.056s-7.049,1.4-7.049,8.056a6.99,6.99,0,0,0,2.656,5.084,5.32,5.32,0,0,0-4.67,5.288v6.747a1.007,1.007,0,0,0,1.007,1.007h16.112a1.007,1.007,0,0,0,1.007-1.007v-6.747A5.328,5.328,0,0,0,351.749,285.988Zm-11.669-7c.273-3.376,1.861-4.976,4.983-4.976,2.857,0,4.431,1.351,4.881,4.171l-3.355-2.014a1.007,1.007,0,0,0-1.473.545c-.51,1.528-3.261,2.107-5.036,2.275Zm.088,2.02c1.725-.142,4.834-.664,6.284-2.573l3.6,2.16c-.4,2.466-3.442,4.494-4.988,4.494a6.344,6.344,0,0,1-4.9-4.081Zm5.727,9.879-.832.834-.832-.833.832-2.082Zm6.217,5.279h-14.1v-5.74a3.323,3.323,0,0,1,3.323-3.323h2.236l-1.462,3.654a1.007,1.007,0,0,0,.224,1.086l2.014,2.014a1.007,1.007,0,0,0,1.424,0l2.014-2.014a1.007,1.007,0,0,0,.224-1.086l-1.459-3.654h2.239a3.323,3.323,0,0,1,3.323,3.323Z" transform="translate(-336 -272)" fill="url(#a)"/></g><g transform="translate(14.098 8.052)"><path d="M144.221,86.127V73.036a1.007,1.007,0,0,0-1.007-1.007h-9.063V69.008A1.007,1.007,0,0,0,133.144,68h-6.118a8.038,8.038,0,0,0-7.22-4.028A8.273,8.273,0,0,0,112,72.325a13.8,13.8,0,0,0,2.161,7.422l4.06,6.381h-1.186v2.014h28.2V86.127Zm-21.148,0h-1.186l1.186-1.864Zm-3.021-.869-4.2-6.594a11.781,11.781,0,0,1-1.847-6.34,6.244,6.244,0,0,1,5.856-6.338h.186a6.042,6.042,0,0,1,6.042,6.042v.3a11.782,11.782,0,0,1-1.847,6.344Zm12.084.869h-7.049V81.1l.86-1.35a13.8,13.8,0,0,0,2.161-7.422v-.3a8.1,8.1,0,0,0-.262-2.014h4.29Zm7.049,0h-2.014V83.106h2.014Zm3.021-11.077h-2.014v2.014h2.014v1.007h-2.014v2.014h2.014v6.042H141.2V82.1a1.007,1.007,0,0,0-1.007-1.007h-4.028a1.007,1.007,0,0,0-1.007,1.007v4.028h-1.007V80.085h2.014V78.071h-2.014V77.064h2.014V75.05h-2.014V74.043h8.056Z" transform="translate(-111.996 -63.969)" fill="url(#a)"/></g><g transform="translate(31.218 15.105)"><rect width="2.014" height="2.014" fill="url(#a)"/></g><g transform="translate(39.274 19.133)"><rect width="2.014" height="2.014" fill="url(#a)"/></g><g transform="translate(39.274 22.154)"><rect width="2.014" height="2.014" fill="url(#a)"/></g><g transform="translate(31.218 18.126)"><rect width="2.014" height="2.014" fill="url(#a)"/></g><g transform="translate(31.218 21.147)"><rect width="2.014" height="2.014" fill="url(#a)"/></g><g transform="translate(28.197 24.168)"><rect width="2.014" height="2.014" fill="url(#a)"/></g><g transform="translate(31.218 24.168)"><rect width="2.014" height="2.014" fill="url(#a)"/></g><g transform="translate(28.197 27.189)"><rect width="2.014" height="2.014" fill="url(#a)"/></g><g transform="translate(31.218 27.189)"><rect width="2.014" height="2.014" fill="url(#a)"/></g><g transform="translate(53.908 21.011)"><path d="M430.231,166.918l-1.975.4c.124.615.225,1.245.3,1.87l2-.238C430.473,168.269,430.365,167.587,430.231,166.918Z" transform="translate(-428.256 -166.918)" fill="url(#a)"/></g><g transform="translate(4.209 21.059)"><path d="M33.762,167.3c-.136.673-.243,1.354-.322,2.027l2,.236c.073-.62.173-1.251.3-1.873Z" transform="translate(-33.44 -167.3)" fill="url(#a)"/></g><g transform="translate(51.28 13.342)"><path d="M409.13,105.99l-1.754.989c.309.547.6,1.114.866,1.687l1.825-.85C409.78,107.2,409.464,106.582,409.13,105.99Z" transform="translate(-407.376 -105.99)" fill="url(#a)"/></g><g transform="translate(49.165 9.936)"><path d="M392.157,78.934l-1.581,1.251c.39.491.766,1.007,1.12,1.532l1.669-1.125C392.983,80.024,392.576,79.466,392.157,78.934Z" transform="translate(-390.576 -78.934)" fill="url(#a)"/></g><g transform="translate(8.444 9.969)"><path d="M68.294,79.2c-.424.534-.831,1.093-1.21,1.659l1.674,1.12c.349-.523.725-1.038,1.116-1.533Z" transform="translate(-67.084 -79.2)" fill="url(#a)"/></g><g transform="translate(46.589 6.929)"><path d="M371.478,55.046l-1.366,1.48c.466.431.919.881,1.342,1.338l1.477-1.369C372.472,56,371.983,55.512,371.478,55.046Z" transform="translate(-370.112 -55.046)" fill="url(#a)"/></g><g transform="translate(6.433 13.375)"><path d="M52.04,106.254c-.332.592-.648,1.207-.936,1.831l1.827.846c.267-.576.558-1.145.863-1.688Z" transform="translate(-51.104 -106.254)" fill="url(#a)"/></g><g transform="translate(5.01 17.106)"><path d="M40.435,135.894c-.239.645-.452,1.3-.635,1.955l1.938.547c.17-.6.368-1.208.588-1.8Z" transform="translate(-39.8 -135.894)" fill="url(#a)"/></g><g transform="translate(10.988 6.953)"><path d="M88.74,55.238c-.5.462-.989.951-1.452,1.452l1.479,1.367c.423-.461.878-.91,1.339-1.339Z" transform="translate(-87.288 -55.238)" fill="url(#a)"/></g><g transform="translate(52.875 17.065)"><path d="M421.936,135.566l-1.888.7c.221.593.419,1.2.59,1.8l1.938-.551C422.389,136.864,422.173,136.208,421.936,135.566Z" transform="translate(-420.048 -135.566)" fill="url(#a)"/></g><g transform="translate(21.137 0.982)"><path d="M169.867,7.8c-.661.187-1.318.4-1.951.635l.7,1.888c.585-.216,1.192-.413,1.8-.586Z" transform="translate(-167.916 -7.8)" fill="url(#a)"/></g><g transform="translate(25.088 0.182)"><path d="M201.332,1.446c-.673.08-1.355.187-2.028.319l.39,1.976c.622-.123,1.253-.224,1.874-.3Z" transform="translate(-199.304 -1.446)" fill="url(#a)"/></g><g transform="translate(29.164 0)"><path d="M231.68.022l.077,2.014c.628-.022,1.269-.024,1.9,0l.081-2.014C233.053-.006,232.362,0,231.68.022Z" transform="translate(-231.68 -0.002)" fill="url(#a)"/></g><g transform="translate(17.41 2.402)"><path d="M140.141,19.086c-.617.285-1.234.6-1.829.935l.987,1.756c.55-.309,1.117-.6,1.688-.863Z" transform="translate(-138.312 -19.086)" fill="url(#a)"/></g><g transform="translate(33.03 0.176)"><path d="M262.631,1.4l-.231,2c.619.071,1.25.17,1.874.292l.386-1.976C263.984,1.583,263.306,1.477,262.631,1.4Z" transform="translate(-262.4 -1.4)" fill="url(#a)"/></g><g transform="translate(43.61 4.388)"><path d="M347.565,34.862l-1.117,1.676c.52.346,1.035.721,1.535,1.114l1.245-1.583C348.687,35.643,348.128,35.237,347.565,34.862Z" transform="translate(-346.448 -34.862)" fill="url(#a)"/></g><g transform="translate(36.747 0.968)"><path d="M292.465,7.694l-.541,1.94c.6.169,1.208.365,1.8.582l.694-1.89C293.78,8.089,293.123,7.877,292.465,7.694Z" transform="translate(-291.924 -7.694)" fill="url(#a)"/></g><g transform="translate(14.002 4.412)"><path d="M112.891,35.054c-.57.384-1.129.79-1.659,1.208l1.246,1.581c.489-.387,1.007-.762,1.535-1.118Z" transform="translate(-111.232 -35.054)" fill="url(#a)"/></g><g transform="translate(40.301 2.384)"><path d="M321,18.942l-.842,1.829c.569.263,1.139.553,1.692.86l.982-1.758C322.235,19.54,321.62,19.226,321,18.942Z" transform="translate(-320.16 -18.942)" fill="url(#a)"/></g><g transform="translate(18.126 12.084)"><path d="M148.028,96a4.028,4.028,0,1,0,4.028,4.028A4.028,4.028,0,0,0,148.028,96Zm0,6.042a2.014,2.014,0,1,1,2.014-2.014A2.014,2.014,0,0,1,148.028,102.042Z" transform="translate(-144 -96)" fill="url(#a)"/></g></svg>