<svg xmlns="http://www.w3.org/2000/svg" xmlns:xlink="http://www.w3.org/1999/xlink" width="80.718" height="58.508" viewBox="0 0 80.718 58.508"><defs><linearGradient id="a" x1="0.5" x2="0.5" y2="1" gradientUnits="objectBoundingBox"><stop offset="0" stop-color="#ff4b70"/><stop offset="1" stop-color="#7c4dff"/></linearGradient></defs><g transform="translate(0 0)"><path d="M65.474,191.98l-6.481,6.481c-.085-.1-.174-.2-.27-.3l-8.37-8.37a1.185,1.185,0,0,0-1.676,1.675l8.37,8.37a1.845,1.845,0,1,1-2.61,2.61L49.788,197.8a1.185,1.185,0,0,0-1.676,1.675l4.651,4.651h0a1.845,1.845,0,0,1-2.61,2.609L45.5,202.082a1.185,1.185,0,0,0-1.676,1.675l4.651,4.651a1.845,1.845,0,0,1-2.61,2.61l-4.651-4.651a1.185,1.185,0,0,0-1.676,1.675l4.651,4.651a1.845,1.845,0,1,1-2.609,2.61L38.57,212.29a4.171,4.171,0,0,0-.626-5.088l-.071-.071a4.158,4.158,0,0,0-3.362-1.2,4.159,4.159,0,0,0-3.155-3.757,4.167,4.167,0,0,0-5.687-5.255,4.162,4.162,0,0,0-6.95-1.81l-.489.489-.356-.356a3.013,3.013,0,0,1-.888-2.145v-3.09a1.185,1.185,0,0,0-.347-.838l-5.058-5.058L13,182.692a1.185,1.185,0,0,0-1.676-1.675l-1.905,1.905a.923.923,0,0,1-1.3,0l-6.1-6.1A1.185,1.185,0,1,0,.347,178.5l6.1,6.1a3.271,3.271,0,0,0,3.129.86l5.044,5.043v2.6a5.368,5.368,0,0,0,1.582,3.82l.356.356-.4.4A4.162,4.162,0,0,0,19.1,204.78h.051c0,.018,0,.035,0,.053A4.164,4.164,0,0,0,23.318,209h.053a4.156,4.156,0,0,0,4.161,4.213h.052a4.151,4.151,0,0,0,1.217,3l.071.071a4.164,4.164,0,0,0,5.889,0l2.222-2.222,2.925,2.925a4.212,4.212,0,0,0,7.191-3.052l.074,0a4.21,4.21,0,0,0,4.211-4.289l.074,0a4.211,4.211,0,0,0,4.215-4.213c0-.025,0-.049,0-.074l.072,0a4.207,4.207,0,0,0,4.2-4.5l7.2-7.2a1.185,1.185,0,0,0-1.676-1.676Zm-47.64,9.907a1.795,1.795,0,0,1,0-2.538l2.561-2.561a1.795,1.795,0,1,1,2.538,2.538l-2.561,2.561A1.8,1.8,0,0,1,17.834,201.887Zm5.483,4.74a1.795,1.795,0,0,1-1.269-3.064L24.609,201,26.2,199.41a1.795,1.795,0,0,1,2.538,2.538L24.586,206.1a1.783,1.783,0,0,1-1.269.526Zm2.945,3.688a1.8,1.8,0,0,1,0-2.538l2.826-2.826a1.795,1.795,0,0,1,2.539,2.538L28.8,210.314a1.8,1.8,0,0,1-2.538,0Zm6.823,4.285a1.794,1.794,0,0,1-2.538,0l-.071-.071a1.8,1.8,0,0,1,0-2.538l2.826-2.826,0,0,.355-.355a1.8,1.8,0,0,1,2.538,0l.071.071a1.8,1.8,0,0,1,0,2.538Z" transform="translate(0 -159.705)" fill="url(#a)"/><path d="M157.934,92.41a1.185,1.185,0,0,0-1.676,0l-4.44,4.44a.161.161,0,0,1-.224,0L135.9,81.859a.16.16,0,0,1,0-.23l9.31-9.31a1.185,1.185,0,0,0-1.676-1.675l-9.31,9.31A2.525,2.525,0,0,0,134,83.277l-4.26,4.178-4.014-2.239a3.538,3.538,0,0,0-1.72-.447H112.6l-.868-.868a7.987,7.987,0,0,0-2.822-1.828l-3.157-1.2-1.459-1.459A3.294,3.294,0,0,0,103.8,75.4l-4.754-4.754a1.185,1.185,0,0,0-1.676,1.675l4.754,4.754a.923.923,0,0,1,0,1.3l-9.662,9.662a1.185,1.185,0,0,0,1.676,1.675l8.554-8.554,1.565,1.565a1.187,1.187,0,0,0,.416.269l3.394,1.293a5.631,5.631,0,0,1,1.945,1.247c-.072.06-.142.123-.21.19L105.3,90.231a4.734,4.734,0,0,0,6.354,7l3.41-2.8h3.552l4.059,4.059a1.185,1.185,0,1,0,1.676-1.675l-2.932-2.932a1.183,1.183,0,0,0-1-1.821h-5.78a1.184,1.184,0,0,0-.752.27l-3.738,3.073a2.365,2.365,0,0,1-3.174-3.5l4.506-4.506a.887.887,0,0,1,.631-.262h11.9a1.163,1.163,0,0,1,.566.147l4.44,2.476a1.728,1.728,0,0,0,2.039-.273l4.641-4.551,12.777,12.2L146.607,99a1.185,1.185,0,0,0,1.676,1.675l1.913-1.914a2.543,2.543,0,0,0,3.3-.239l4.44-4.44A1.185,1.185,0,0,0,157.934,92.41Z" transform="translate(-77.563 -70.297)" fill="url(#a)"/></g></svg>