<svg xmlns="http://www.w3.org/2000/svg" xmlns:xlink="http://www.w3.org/1999/xlink" width="86.749" height="86.749" viewBox="0 0 86.749 86.749"><defs><linearGradient id="a" x1="0.5" x2="0.5" y2="1" gradientUnits="objectBoundingBox"><stop offset="0" stop-color="#ff4b70"/><stop offset="1" stop-color="#7c4dff"/></linearGradient></defs><path d="M85.478,68.167A1.271,1.271,0,0,0,86.749,66.9V11.8a2.165,2.165,0,0,0-2.162-2.164H77.115V2.164A2.165,2.165,0,0,0,74.953,0H27.536a1.274,1.274,0,0,0-.9.372L15.313,11.7a1.287,1.287,0,0,0-.372.9V25.137a1.271,1.271,0,1,0,2.541,0V13.866h9.161A2.166,2.166,0,0,0,28.806,11.7V2.541H74.574V74.574H17.482v-5.6H35.757c2.639,0,10.438-2.664,16.516-4.9a2.552,2.552,0,0,0,0-4.791c-6.078-2.235-13.878-4.9-16.516-4.9H17.482V31.067a1.271,1.271,0,0,0-2.541,0V54.388H13.672a2.2,2.2,0,0,0-2.167-1.867H8.169a2.2,2.2,0,0,0-2.194,2.194v1.155H3.652A3.656,3.656,0,0,0,0,59.52v4.325A3.656,3.656,0,0,0,3.652,67.5H5.976v1.155A2.2,2.2,0,0,0,8.17,70.845h3.336a2.2,2.2,0,0,0,2.167-1.867H14.94v5.975A2.164,2.164,0,0,0,17.1,77.115h7.472v7.472a2.164,2.164,0,0,0,2.162,2.162H84.587a2.164,2.164,0,0,0,2.162-2.162V72.827a1.271,1.271,0,0,0-2.541,0V84.208H27.116V77.115H74.953a2.164,2.164,0,0,0,2.162-2.162V12.175h7.092V66.9a1.271,1.271,0,0,0,1.271,1.271Zm-66.2-56.843,6.986-6.985v6.985Zm12.913,45.6a8.531,8.531,0,0,0-1.349,3.483H13.7V56.929Zm10.377,1.687v6.133c-5.94,1.887-6.847,1.669-6.948,1.687a6.005,6.005,0,0,1,0-9.507c.142.024.894-.237,6.948,1.687ZM13.7,62.953H30.843a8.533,8.533,0,0,0,1.349,3.483H13.7Zm37.7-1.278c0,.007,0,.014.007.011l-.015.007c-2.288.841-4.4,1.587-6.284,2.223V59.449C47,60.086,51.4,61.675,51.4,61.675ZM3.652,64.955a1.111,1.111,0,0,1-1.11-1.11V59.52a1.111,1.111,0,0,1,1.11-1.11H5.976v6.545ZM11.158,68.3H8.517V55.062h2.641V68.3Z" transform="translate(0 0)" fill="url(#a)"/><path d="M195.449,131.457H177.825a2.281,2.281,0,0,0-2.278,2.278v17.624a2.281,2.281,0,0,0,2.278,2.278h7.042a11.659,11.659,0,1,0,12.86-12.86v-7.042A2.281,2.281,0,0,0,195.449,131.457ZM178.088,134h17.1v6.779A11.68,11.68,0,0,0,184.867,151.1h-6.779Zm17.1,9.34V151.1h-7.757A9.135,9.135,0,0,1,195.186,143.339Zm10.389,9.027a9.117,9.117,0,0,1-18.146,1.271h8.021a2.28,2.28,0,0,0,2.278-2.278v-8.02A9.13,9.13,0,0,1,205.574,152.366Z" transform="translate(-145.804 -109.184)" fill="url(#a)"/></svg>