<svg xmlns="http://www.w3.org/2000/svg" xmlns:xlink="http://www.w3.org/1999/xlink" width="60.422" height="60.422" viewBox="0 0 60.422 60.422"><defs><linearGradient id="a" x1="0.5" x2="0.5" y2="1" gradientUnits="objectBoundingBox"><stop offset="0" stop-color="#ff4b70"/><stop offset="1" stop-color="#7c4dff"/></linearGradient></defs><g transform="translate(24.169)"><path d="M198.042,0a6.042,6.042,0,1,0,6.042,6.042A6.042,6.042,0,0,0,198.042,0Zm0,10.07a4.028,4.028,0,1,1,4.028-4.028A4.028,4.028,0,0,1,198.042,10.07Z" transform="translate(-192)" fill="url(#a)"/></g><g transform="translate(21.148 13.091)"><path d="M181.091,104h-.238l-.212.106a8.028,8.028,0,0,1-7.156,0l-.212-.106h-.238A5.041,5.041,0,0,0,168,109.035v6.042a3.021,3.021,0,0,0,3.021,3.021h12.084a3.021,3.021,0,0,0,3.021-3.021v-6.042A5.041,5.041,0,0,0,181.091,104Zm3.021,11.077a1.007,1.007,0,0,1-1.007,1.007H171.021a1.007,1.007,0,0,1-1.007-1.007v-6.042a3.021,3.021,0,0,1,2.807-3.013,10.078,10.078,0,0,0,8.486,0,3.021,3.021,0,0,1,2.806,3.013Z" transform="translate(-168 -104)" fill="url(#a)"/></g><g transform="translate(45.316 33.232)"><path d="M366.042,264a6.042,6.042,0,1,0,6.042,6.042A6.042,6.042,0,0,0,366.042,264Zm0,10.07a4.028,4.028,0,1,1,4.028-4.028A4.028,4.028,0,0,1,366.042,274.07Z" transform="translate(-360 -264)" fill="url(#a)"/></g><g transform="translate(42.295 46.323)"><path d="M349.091,368h-.238l-.212.1a8.028,8.028,0,0,1-7.156,0l-.212-.1h-.238A5.041,5.041,0,0,0,336,373.035v6.042a3.021,3.021,0,0,0,3.021,3.021h12.084a3.021,3.021,0,0,0,3.021-3.021v-6.042A5.041,5.041,0,0,0,349.091,368Zm3.021,11.077a1.007,1.007,0,0,1-1.007,1.007H339.021a1.007,1.007,0,0,1-1.007-1.007v-6.042a3.021,3.021,0,0,1,2.807-3.013,10.078,10.078,0,0,0,8.486,0,3.021,3.021,0,0,1,2.806,3.013Z" transform="translate(-336 -368)" fill="url(#a)"/></g><g transform="translate(3.021 33.232)"><path d="M30.042,264a6.042,6.042,0,1,0,6.042,6.042A6.042,6.042,0,0,0,30.042,264Zm0,10.07a4.028,4.028,0,1,1,4.028-4.028A4.028,4.028,0,0,1,30.042,274.07Z" transform="translate(-24 -264)" fill="url(#a)"/></g><g transform="translate(0 46.323)"><path d="M13.091,368h-.238l-.212.1a8.028,8.028,0,0,1-7.156,0l-.212-.1H5.035A5.041,5.041,0,0,0,0,373.035v6.042A3.021,3.021,0,0,0,3.021,382.1H15.105a3.021,3.021,0,0,0,3.021-3.021v-6.042A5.041,5.041,0,0,0,13.091,368Zm3.021,11.077a1.007,1.007,0,0,1-1.007,1.007H3.021a1.007,1.007,0,0,1-1.007-1.007v-6.042a3.021,3.021,0,0,1,2.807-3.013,10.078,10.078,0,0,0,8.486,0,3.021,3.021,0,0,1,2.806,3.013Z" transform="translate(0 -368)" fill="url(#a)"/></g><g transform="translate(20.14 49.344)"><path d="M180.059,393.793l0,0a1.007,1.007,0,0,0-1.321-.532h0a22.338,22.338,0,0,1-14.363.989l.943-.277a1.007,1.007,0,1,0-.566-1.933l-4.028,1.181c-.015,0-.026.017-.04.022a1,1,0,0,0-.26.144.868.868,0,0,0-.1.063.976.976,0,0,0-.247.342,1.008,1.008,0,0,0-.077.415,3.106,3.106,0,0,0,.1.4c.006.014,0,.03.011.044l2.014,3.854a1.008,1.008,0,1,0,1.786-.932l-.82-1.567a24.24,24.24,0,0,0,16.434-.894A1.007,1.007,0,0,0,180.059,393.793Z" transform="translate(-159.998 -391.995)" fill="url(#a)"/></g><g transform="translate(38.267 7.883)"><path d="M322.836,81.217a1.007,1.007,0,0,0-1.424,0l-1.425,1.425A24.132,24.132,0,0,0,305.4,62.7a1.007,1.007,0,0,0-.79,1.853,22.121,22.121,0,0,1,13.32,17.8l-1.136-1.136a1.007,1.007,0,1,0-1.424,1.424l3.021,3.021a1.007,1.007,0,0,0,1.424,0l0,0,3.021-3.021A1.007,1.007,0,0,0,322.836,81.217Z" transform="translate(-303.998 -62.622)" fill="url(#a)"/></g><g transform="translate(6.042 6.059)"><path d="M64.083,50.8a.937.937,0,0,0-.026-.174c0-.009-.011-.015-.015-.025s0-.017,0-.025a.966.966,0,0,0-.095-.138,1.016,1.016,0,0,0-.115-.166.945.945,0,0,0-.2-.134.886.886,0,0,0-.113-.082l-4.028-1.84a1.007,1.007,0,0,0-.836,1.831l2.086.954A24.132,24.132,0,0,0,48,72.286a1.007,1.007,0,0,0,2.014,0,22.12,22.12,0,0,1,10.9-19.077l-.728,1.522a1.007,1.007,0,0,0,.47,1.342.991.991,0,0,0,.436.1A1.007,1.007,0,0,0,62,55.6l2.014-4.2a.046.046,0,0,1,.008-.031.968.968,0,0,0,.054-.214,1.042,1.042,0,0,0,.038-.166A1,1,0,0,0,64.083,50.8Z" transform="translate(-48 -48.135)" fill="url(#a)"/></g></svg>