<svg xmlns="http://www.w3.org/2000/svg" xmlns:xlink="http://www.w3.org/1999/xlink" width="46.085" height="84.038" viewBox="0 0 46.085 84.038"><defs><linearGradient id="a" x1="-0.448" y1="1.02" x2="1.427" y2="-0.008" gradientUnits="objectBoundingBox"><stop offset="0" stop-color="#ff4b70"/><stop offset="1" stop-color="#7c4dff"/></linearGradient><linearGradient id="b" x1="-1.34" y1="7.86" x2="6.626" y2="-24.005" xlink:href="#a"/><linearGradient id="c" x1="-5.49" y1="9.485" x2="15.754" y2="-22.38" xlink:href="#a"/></defs><g transform="translate(0 0)"><path d="M159.308,8H126.777A6.785,6.785,0,0,0,120,14.777V85.261a6.785,6.785,0,0,0,6.777,6.777h32.531a6.785,6.785,0,0,0,6.777-6.777V14.777A6.785,6.785,0,0,0,159.308,8Zm-7.075,2.711-.813,4.066H134.666l-.813-4.066Zm11.141,74.55a4.071,4.071,0,0,1-4.066,4.066H126.777a4.071,4.071,0,0,1-4.066-4.066V14.777a4.071,4.071,0,0,1,4.066-4.066h4.311l1.138,5.688a1.355,1.355,0,0,0,1.329,1.09h18.976a1.355,1.355,0,0,0,1.329-1.09L155,10.711h4.311a4.071,4.071,0,0,1,4.066,4.066Z" transform="translate(-120 -8)" fill="url(#a)"/><path d="M161.488,456h-8.133a1.355,1.355,0,1,0,0,2.711h8.133a1.355,1.355,0,1,0,0-2.711Z" transform="translate(-146.578 -380.095)" fill="url(#b)"/><path d="M226.711,456h-1.355a1.355,1.355,0,1,0,0,2.711h1.355a1.355,1.355,0,1,0,0-2.711Z" transform="translate(-206.379 -380.095)" fill="url(#c)"/></g></svg>