<svg xmlns="http://www.w3.org/2000/svg" xmlns:xlink="http://www.w3.org/1999/xlink" width="81.406" height="86.737" viewBox="0 0 81.406 86.737"><defs><linearGradient id="a" x1="0.5" x2="0.5" y2="1" gradientUnits="objectBoundingBox"><stop offset="0" stop-color="#ff4b70"/><stop offset="1" stop-color="#7c4dff"/></linearGradient></defs><path d="M87.611,0H83.882a1.271,1.271,0,0,0,0,2.541h3.729A6.98,6.98,0,0,1,94.6,9.5V38.909a6.98,6.98,0,0,1-6.984,6.959h-4.23a1.271,1.271,0,0,0-.772.261l-7.761,5.937V47.139a1.271,1.271,0,0,0-1.271-1.271H58.112a6.95,6.95,0,0,1-3.557-.97V30.634A7.754,7.754,0,0,0,51.127,24.2V9.5a6.98,6.98,0,0,1,6.985-6.959H75.919a1.271,1.271,0,0,0,0-2.541H58.112a9.524,9.524,0,0,0-9.526,9.5V23.088a7.791,7.791,0,0,0-1.812-.215H23.512a7.78,7.78,0,0,0-7.781,7.761v2.744a1.271,1.271,0,0,0,2.541,0V30.634a5.235,5.235,0,0,1,5.239-5.219H46.774a5.235,5.235,0,0,1,5.239,5.219V45.4a1.271,1.271,0,0,0,0,.336v8.084c0,.16-.01.319-.024.477H49.369a5.9,5.9,0,0,0-5.794,4.823,1.274,1.274,0,0,0-.329.184L37.562,63.7V60.315a1.271,1.271,0,0,0-1.271-1.271H23.512a5.235,5.235,0,0,1-5.239-5.219V41a1.271,1.271,0,0,0-2.541,0V53.825a7.78,7.78,0,0,0,7.781,7.761H35.02v4.7a1.29,1.29,0,0,0,2.047,1.006l6.41-4.95v14.3a5.89,5.89,0,0,0,5.891,5.876h7.8v2.965a1.29,1.29,0,0,0,2.047,1.006l5.143-3.971h1.519a5.89,5.89,0,0,0,5.891-5.876V74.381a1.271,1.271,0,0,0-2.541,0v2.256a3.346,3.346,0,0,1-3.349,3.335H63.924a1.271,1.271,0,0,0-.777.265l-3.439,2.655V81.242a1.271,1.271,0,0,0-1.271-1.271H49.369a3.346,3.346,0,0,1-3.349-3.335V60.179a3.346,3.346,0,0,1,3.349-3.335H65.877a3.346,3.346,0,0,1,3.349,3.335v6.238a1.271,1.271,0,0,0,2.541,0V60.179A5.89,5.89,0,0,0,65.877,54.3H54.54c.01-.159.015-6.577.015-6.577a9.511,9.511,0,0,0,3.557.685H72.307v6.228a1.29,1.29,0,0,0,2.043,1.009l9.462-7.238h3.8a9.524,9.524,0,0,0,9.526-9.5V9.5A9.524,9.524,0,0,0,87.611,0Z" transform="translate(-15.731)" fill="url(#a)"/><path d="M284.416,54.679a2.648,2.648,0,0,0-3.258,2.53,7.466,7.466,0,0,1-1.868,4.942l-3.5,3.962a1.269,1.269,0,0,0-1.065-.578H267.89a1.271,1.271,0,0,0-1.271,1.271V82.184a1.271,1.271,0,0,0,1.271,1.271h6.835a1.27,1.27,0,0,0,1.155-.743,8.879,8.879,0,0,0,4.619,1.3h12.079a3.326,3.326,0,0,0,3.282-3.443c-.038-.815,0-11.763,0-12.006a3.289,3.289,0,0,0-3.282-3.286l-6.281-.019.26-.616a9.922,9.922,0,0,0-.523-8.731,2.589,2.589,0,0,0-1.621-1.235h0ZM273.454,80.913h-4.293V68.076h4.293Zm19.124-13.092a.745.745,0,0,1,.744.744c0,.242,0,.9-.006,1.788-.019,4.912-.031,9.564,0,10.338a.744.744,0,0,1-.743.782H280.5a6.327,6.327,0,0,1-3.968-1.4L276,79.634V69.717l5.2-5.884a10.006,10.006,0,0,0,2.5-6.624.071.071,0,0,1,.131-.035,7.366,7.366,0,0,1,.388,6.482l-1,2.375a1.271,1.271,0,0,0,1.167,1.765Z" transform="translate(-224.111 -45.29)" fill="url(#a)"/><path d="M73.722,204.851a1.271,1.271,0,0,0,0,2.541h3.746l-.7,4.232a1.271,1.271,0,1,0,2.507.415l.768-4.647h3.066l-.7,4.232a1.271,1.271,0,1,0,2.507.415l.768-4.647h5.1a1.271,1.271,0,1,0,0-2.541H86.1l.513-3.1h4.166a1.271,1.271,0,1,0,0-2.541H87.038l.7-4.232a1.271,1.271,0,0,0-2.507-.415l-.768,4.647H81.4l.7-4.232a1.271,1.271,0,1,0-2.507-.415l-.768,4.647h-5.1a1.271,1.271,0,0,0,0,2.541H78.4l-.513,3.1Zm7.255-3.1h3.066l-.513,3.1H80.464Z" transform="translate(-62.841 -160.714)" fill="url(#a)"/><path d="M227.173,369.429a4.273,4.273,0,0,0-3.761-.845,4.727,4.727,0,0,0-3.526,4.771,6.239,6.239,0,0,0,1.878,4.466,18.641,18.641,0,0,0,4.829,3.331,1.27,1.27,0,0,0,1.19,0c4.025-2.134,6.706-4.276,6.706-7.8a4.7,4.7,0,0,0-3.651-4.745,4.261,4.261,0,0,0-3.666.82Zm4.775,3.925c0,1.9-1.259,3.3-4.76,5.23-3.5-1.927-4.76-3.331-4.76-5.23a2.174,2.174,0,0,1,1.584-2.3,1.906,1.906,0,0,1,.448-.054,1.754,1.754,0,0,1,1.6,1.023,1.271,1.271,0,0,0,2.281-.045,1.651,1.651,0,0,1,1.948-.887A2.149,2.149,0,0,1,231.948,373.354Z" transform="translate(-185.297 -306.028)" fill="url(#a)"/></svg>