<svg xmlns="http://www.w3.org/2000/svg" xmlns:xlink="http://www.w3.org/1999/xlink" width="420" height="512" viewBox="0 0 420 512">
  <defs>
    <linearGradient id="linear-gradient" x1="0.5" x2="0.5" y2="1" gradientUnits="objectBoundingBox">
      <stop offset="0" stop-color="#ff4b70"/>
      <stop offset="1" stop-color="#7c4dff"/>
    </linearGradient>
  </defs>
  <g id="Sports" transform="translate(-46)">
    <g id="Group_403" data-name="Group 403">
      <g id="Group_402" data-name="Group 402">
        <path id="Path_5262" data-name="Path 5262" d="M296,452a10,10,0,1,0,10,10A10,10,0,0,0,296,452Z" fill="url(#linear-gradient)"/>
      </g>
    </g>
    <g id="Group_405" data-name="Group 405">
      <g id="Group_404" data-name="Group 404">
        <path id="Path_5263" data-name="Path 5263" d="M436,46H406V30A30.034,30.034,0,0,0,376,0H136a30.034,30.034,0,0,0-30,30V46H76A30.034,30.034,0,0,0,46,76c0,65.057,30.442,112.867,79.828,126.178A220.452,220.452,0,0,0,203.5,294.013,28.915,28.915,0,0,1,216,318.16v55.1A40.049,40.049,0,0,0,186,412H176a30.034,30.034,0,0,0-30,30v60a10,10,0,0,0,10,10H356a10,10,0,0,0,10-10V442a30.034,30.034,0,0,0-30-30H326a40.071,40.071,0,0,0-30-38.734V318.21a28.952,28.952,0,0,1,12.508-24.2,220.445,220.445,0,0,0,77.676-91.839C435.563,188.859,466,141.052,466,76A30.034,30.034,0,0,0,436,46ZM66,76A10.011,10.011,0,0,1,76,66h30v44.7a219.649,219.649,0,0,0,10.27,66.614C84.447,161.551,66,125.146,66,76ZM336,432a10.011,10.011,0,0,1,10,10v50H166V442a10.011,10.011,0,0,1,10-10Zm50-321.3a201.073,201.073,0,0,1-88.664,166.725A48.915,48.915,0,0,0,276,318.21V382a10,10,0,0,0,10,10,20.023,20.023,0,0,1,20,20H206a20.012,20.012,0,0,1,19.216-19.985q.389.03.783.03A10.039,10.039,0,0,0,236,382V318.16a48.882,48.882,0,0,0-21.322-40.733A201.116,201.116,0,0,1,126,110.7V30a10.011,10.011,0,0,1,10-10H376a10.011,10.011,0,0,1,10,10Zm9.734,66.612A219.778,219.778,0,0,0,406,110.7V66h30a10.011,10.011,0,0,1,10,10C446,125.143,427.555,161.547,395.734,177.312Z" fill="url(#linear-gradient)"/>
      </g>
    </g>
    <g id="Group_407" data-name="Group 407">
      <g id="Group_406" data-name="Group 406">
        <path id="Path_5264" data-name="Path 5264" d="M335.139,118.16a9.994,9.994,0,0,0-8.073-6.806L283.91,105.09l-19.3-39.115a10,10,0,0,0-17.936,0l-19.3,39.115-43.155,6.264a10,10,0,0,0-5.543,17.058l31.234,30.44-7.372,42.987a10,10,0,0,0,14.51,10.542l38.6-20.293,38.607,20.293a10,10,0,0,0,14.508-10.544l-7.38-42.986,31.233-30.439A10,10,0,0,0,335.139,118.16ZM283.65,148.2a10,10,0,0,0-2.876,8.854l4.841,28.2-25.323-13.311a10,10,0,0,0-9.306,0l-25.315,13.31,4.836-28.2a10,10,0,0,0-2.877-8.852l-20.484-19.964,28.3-4.108a10,10,0,0,0,7.531-5.471L255.64,93,268.3,118.655a10,10,0,0,0,7.531,5.471l28.3,4.108Z" fill="url(#linear-gradient)"/>
      </g>
    </g>
    <g id="Group_409" data-name="Group 409">
      <g id="Group_408" data-name="Group 408">
        <path id="Path_5265" data-name="Path 5265" d="M256,452H216a10,10,0,0,0,0,20h40a10,10,0,0,0,0-20Z" fill="url(#linear-gradient)"/>
      </g>
    </g>
    <g id="Group_411" data-name="Group 411">
      <g id="Group_410" data-name="Group 410">
        <path id="Path_5266" data-name="Path 5266" d="M410.01,482h5.575C412.745,481.437,410.835,481.381,410.01,482Z" fill="url(#linear-gradient)"/>
      </g>
    </g>
  </g>
</svg>
