<svg xmlns="http://www.w3.org/2000/svg" xmlns:xlink="http://www.w3.org/1999/xlink" width="80.881" height="80.879" viewBox="0 0 80.881 80.879"><defs><linearGradient id="a" x1="0.5" x2="0.5" y2="1" gradientUnits="objectBoundingBox"><stop offset="0" stop-color="#ff4b70"/><stop offset="1" stop-color="#7c4dff"/></linearGradient></defs><g transform="translate(0)"><path d="M79.7,78.514H63L45.511,42.559a7.151,7.151,0,0,0,2.02-9.519l1.243-.716a2.938,2.938,0,0,0,3.824.808l14.233-8.191a2.938,2.938,0,0,0,3.824.808l4.678-2.692a2.949,2.949,0,0,0,1.224-3.688,10.713,10.713,0,0,0,2.9-13.8A10.625,10.625,0,0,0,66.028,1.184a2.935,2.935,0,0,0-3.811-.79L57.539,3.086a2.931,2.931,0,0,0-1.216,3.708l-4.084,2.35A1.185,1.185,0,0,0,53.421,11.2l4.073-2.344L65.629,22.9,51.417,31.078a.56.56,0,0,1-.764-.2l-7.58-13.087a.517.517,0,0,1,.2-.752l5.294-3.047a1.185,1.185,0,1,0-1.182-2.054l-5.294,3.047A2.927,2.927,0,0,0,40.982,18.9L26.768,27.078A2.942,2.942,0,0,0,25.8,31.25L11.405,39.532a2.936,2.936,0,0,0-3.825-.807l-1.509.869A2.919,2.919,0,0,0,5,43.588l4.209,7.267a2.933,2.933,0,0,0,4,1.069l1.509-.869a2.917,2.917,0,0,0,1.216-3.708l14.393-8.284a3.091,3.091,0,0,0,2.761,1.843,3.653,3.653,0,0,0,1.987-.695,7.242,7.242,0,0,0,2.116,2.345L30.832,55.624a1.185,1.185,0,0,0,2.131,1.036l6.357-13.068a7.179,7.179,0,0,0,4.06,0L60.366,78.514H22.332l8.21-16.878A1.185,1.185,0,0,0,28.411,60.6L19.7,78.514H1.185a1.185,1.185,0,0,0,0,2.37H79.7a1.184,1.184,0,1,0,0-2.369ZM77.409,6.76a8.266,8.266,0,0,1-2.028,10.531L67.244,3.241A8.252,8.252,0,0,1,77.409,6.76ZM58.517,5.892a.517.517,0,0,1,.2-.752L63.4,2.448a.561.561,0,0,1,.764.2l10.194,17.6a.51.51,0,0,1-.2.752l-4.678,2.692a.561.561,0,0,1-.764-.2ZM13.532,49l-1.509.869a.56.56,0,0,1-.764-.2L7.05,42.4a.517.517,0,0,1,.2-.752l1.509-.869a.562.562,0,0,1,.764.2l4.209,7.267A.51.51,0,0,1,13.532,49Zm1.226-3.714-2.151-3.714L26.985,33.3l2.151,3.713Zm19.395-8.579a7.169,7.169,0,0,0,.109,1.235l-.9.519a.56.56,0,0,1-.764-.2l-4.852-8.375a.516.516,0,0,1,.2-.751L42.166,20.95l5.406,9.333-1.606.925a7.2,7.2,0,0,0-11.812,5.5Zm7.2,4.808a4.808,4.808,0,1,1,4.827-4.808A4.823,4.823,0,0,1,41.349,41.517Z" transform="translate(0 -0.004)" fill="url(#a)"/></g></svg>