<svg xmlns="http://www.w3.org/2000/svg" xmlns:xlink="http://www.w3.org/1999/xlink" width="81.778" height="82.46" viewBox="0 0 81.778 82.46"><defs><linearGradient id="a" x1="0.5" x2="0.5" y2="1" gradientUnits="objectBoundingBox"><stop offset="0" stop-color="#ff4b70"/><stop offset="1" stop-color="#7c4dff"/></linearGradient></defs><path d="M17,18H30.63v2.726H17Z" transform="translate(3.445 3.808)" fill="url(#a)"/><path d="M17,14H30.63v2.726H17Z" transform="translate(3.445 2.356)" fill="url(#a)"/><path d="M17,10h2.726v2.726H17Z" transform="translate(3.445 0.904)" fill="url(#a)"/><path d="M21,10h8.178v2.726H21Z" transform="translate(4.896 0.904)" fill="url(#a)"/><path d="M38.541,25.082A9.541,9.541,0,1,0,29,15.541a9.541,9.541,0,0,0,9.541,9.541Zm0-2.726a6.772,6.772,0,0,1-3.751-1.135L39.105,16.9h6.114A6.827,6.827,0,0,1,38.541,22.356Zm6.679-8.178H39.9V8.862A6.837,6.837,0,0,1,45.219,14.178ZM37.178,8.862v6.113l-4.317,4.317A6.8,6.8,0,0,1,37.178,8.862Z" transform="translate(7.8 -0.548)" fill="url(#a)"/><path d="M17,34H30.63v2.726H17Z" transform="translate(3.445 9.615)" fill="url(#a)"/><path d="M17,30H30.63v2.726H17Z" transform="translate(3.445 8.163)" fill="url(#a)"/><path d="M17,26h2.726v2.726H17Z" transform="translate(3.445 6.711)" fill="url(#a)"/><path d="M21,26h8.178v2.726H21Z" transform="translate(4.896 6.711)" fill="url(#a)"/><path d="M79.689,67.423a4,4,0,0,0-2,.532,4.089,4.089,0,0,0-3.448-1.895,4.171,4.171,0,0,0-1.363.259V64.7H75.6a2.734,2.734,0,0,0,2.726-2.726V10.178A2.734,2.734,0,0,0,75.6,7.452H63.334V4.726A2.734,2.734,0,0,0,60.608,2H19.719a2.734,2.734,0,0,0-2.726,2.726V7.452H4.726A2.734,2.734,0,0,0,2,10.178V61.971A2.734,2.734,0,0,0,4.726,64.7H29.082L28.06,72.874H22.445A2.734,2.734,0,0,0,19.719,75.6v5.452a2.734,2.734,0,0,0,2.726,2.726H57.459l.4.681L60.213,83.1,54.338,72.929a1.377,1.377,0,0,1,.5-1.867,1.349,1.349,0,0,1,1.854.5l2.726,4.716a1.393,1.393,0,0,0,1.54.641A1.363,1.363,0,0,0,61.971,75.6V61.971a1.363,1.363,0,0,1,2.726,0v10.9a1.363,1.363,0,0,0,2.726,0V68.786a1.363,1.363,0,1,1,2.726,0v4.089a1.363,1.363,0,0,0,2.726,0V70.149a1.363,1.363,0,0,1,2.726,0v2.726a1.363,1.363,0,0,0,2.726,0V71.511a1.363,1.363,0,0,1,2.726,0V83.778h2.726V71.511A4.1,4.1,0,0,0,79.689,67.423ZM66.06,34.711A4.1,4.1,0,0,1,69.9,37.437H43.134a4.1,4.1,0,0,1,3.844-2.726ZM4.726,61.971V10.178H16.993V12.9H10.178A2.734,2.734,0,0,0,7.452,15.63V51.067a2.734,2.734,0,0,0,2.726,2.726H40.163v8.178ZM16.993,15.63V51.067H10.178V15.63ZM40.163,64.7v8.178H30.8L31.822,64.7ZM22.445,81.052V75.6H40.163v1.363a6.711,6.711,0,0,0,1.4,4.089ZM40.163,38.8V51.067H19.719V4.726H60.608V31.985H46.978A6.815,6.815,0,0,0,40.163,38.8ZM55.892,81.052H46.978a4.1,4.1,0,0,1-4.089-4.089V72.874h8.6a4.182,4.182,0,0,0,.491,1.417Zm-.736-21.808a6.786,6.786,0,0,1-3.748-1.131l4.307-4.321h6.12a6.838,6.838,0,0,1-6.679,5.452Zm-5.684-3.067a6.805,6.805,0,0,1,4.321-10.427v6.12Zm7.047-5.111V45.751a6.829,6.829,0,0,1,5.316,5.316Zm13.63,13.889a4.171,4.171,0,0,0-1.363-.259,4.089,4.089,0,0,0-1.363.232V61.971a4.1,4.1,0,0,0-4.089-4.089,3.885,3.885,0,0,0-.4.041A9.454,9.454,0,0,0,64.7,52.43a9.563,9.563,0,1,0-5.316,8.546,3.984,3.984,0,0,0-.136.995v8.178h-.218A4.089,4.089,0,0,0,53.479,68.7a3.968,3.968,0,0,0-1.445,1.445H42.889V40.163H70.149Zm0-31.566a6.711,6.711,0,0,0-4.089-1.4H63.334V15.63h6.815Zm0-20.485H63.334V10.178H75.6V61.971H72.875V15.63A2.734,2.734,0,0,0,70.149,12.9Z" transform="translate(-2 -2)" fill="url(#a)"/></svg>