<svg xmlns="http://www.w3.org/2000/svg" xmlns:xlink="http://www.w3.org/1999/xlink" width="84.123" height="78.515" viewBox="0 0 84.123 78.515"><defs><linearGradient id="a" x1="0.5" x2="0.5" y2="1" gradientUnits="objectBoundingBox"><stop offset="0" stop-color="#ff4b70"/><stop offset="1" stop-color="#7c4dff"/></linearGradient></defs><g transform="translate(0)"><path d="M5.608,67.549h2.8v-2.8h-2.8a2.8,2.8,0,0,1-2.8-2.8V5.858a2.8,2.8,0,0,1,2.8-2.8H67.3a2.8,2.8,0,0,1,2.8,2.8v2.8h2.8v-2.8A5.608,5.608,0,0,0,67.3.25H5.608A5.608,5.608,0,0,0,0,5.858V61.94A5.608,5.608,0,0,0,5.608,67.549Zm0,0" transform="translate(0 -0.25)" fill="url(#a)"/><path d="M62.5,62.75h2.8v2.8H62.5Zm0,0" transform="translate(-56.892 -57.142)" fill="url(#a)"/><path d="M125,62.75h2.8v2.8H125Zm0,0" transform="translate(-113.784 -57.142)" fill="url(#a)"/><path d="M187.5,62.75h2.8v2.8h-2.8Zm0,0" transform="translate(-170.676 -57.142)" fill="url(#a)"/><path d="M125,186.94a5.608,5.608,0,0,0,5.608,5.608H192.3a5.608,5.608,0,0,0,5.608-5.608V130.858a5.608,5.608,0,0,0-5.608-5.608h-61.69A5.608,5.608,0,0,0,125,130.858Zm2.8-56.082a2.8,2.8,0,0,1,2.8-2.8H192.3a2.8,2.8,0,0,1,2.8,2.8V186.94a2.8,2.8,0,0,1-2.8,2.8h-61.69a2.8,2.8,0,0,1-2.8-2.8Zm0,0" transform="translate(-113.784 -114.034)" fill="url(#a)"/><path d="M187.5,187.75h2.8v2.8h-2.8Zm0,0" transform="translate(-170.676 -170.925)" fill="url(#a)"/><path d="M250,187.75h2.8v2.8H250Zm0,0" transform="translate(-227.567 -170.925)" fill="url(#a)"/><path d="M312.5,187.75h2.8v2.8h-2.8Zm0,0" transform="translate(-284.459 -170.925)" fill="url(#a)"/><path d="M187.5,250.25h61.69v2.8H187.5Zm0,0" transform="translate(-170.676 -227.817)" fill="url(#a)"/><path d="M187.5,328.375h11.216v2.8H187.5Zm0,0" transform="translate(-170.676 -298.932)" fill="url(#a)"/><path d="M187.5,390.875h8.412v2.8H187.5Zm0,0" transform="translate(-170.676 -355.824)" fill="url(#a)"/><path d="M431.689,453.375a9.814,9.814,0,1,0,9.814,9.814A9.814,9.814,0,0,0,431.689,453.375Zm0,16.825a7.01,7.01,0,1,1,7.01-7.01A7.011,7.011,0,0,1,431.689,470.2Zm0,0" transform="translate(-384.02 -412.715)" fill="url(#a)"/><path d="M326.116,330.977a1.4,1.4,0,0,0-1.4-1.4h-3.706A17.827,17.827,0,0,0,319.9,326.9l2.62-2.619a1.4,1.4,0,0,0,0-1.983l-5.949-5.949a1.4,1.4,0,0,0-1.983,0l-2.619,2.619a18.141,18.141,0,0,0-2.678-1.108v-3.706a1.4,1.4,0,0,0-1.4-1.4h-8.412a1.4,1.4,0,0,0-1.4,1.4v3.706a18.14,18.14,0,0,0-2.678,1.108l-2.619-2.619a1.4,1.4,0,0,0-1.983,0l-5.949,5.949a1.4,1.4,0,0,0,0,1.983l2.619,2.619c-.117.23-.23.46-.336.693a18.144,18.144,0,0,0-.771,1.985h-3.706a1.4,1.4,0,0,0-1.4,1.4v8.412a1.4,1.4,0,0,0,1.4,1.4h3.706a17.829,17.829,0,0,0,1.109,2.678l-2.62,2.619a1.4,1.4,0,0,0,0,1.983l5.949,5.949a1.4,1.4,0,0,0,1.983,0L295.4,351.4a18.127,18.127,0,0,0,2.678,1.108v3.706a1.4,1.4,0,0,0,1.4,1.4h8.412a1.4,1.4,0,0,0,1.4-1.4v-3.706a18.128,18.128,0,0,0,2.678-1.108l2.619,2.619a1.4,1.4,0,0,0,1.983,0l5.949-5.949a1.4,1.4,0,0,0,0-1.983l-2.62-2.619a17.825,17.825,0,0,0,1.109-2.678h3.706a1.4,1.4,0,0,0,1.4-1.4Zm-2.8,7.01h-3.356a1.4,1.4,0,0,0-1.357,1.052,15.331,15.331,0,0,1-1.64,3.965,1.4,1.4,0,0,0,.216,1.7l2.371,2.372-3.965,3.967-2.372-2.372a1.4,1.4,0,0,0-1.7-.216,15.316,15.316,0,0,1-3.964,1.64,1.4,1.4,0,0,0-1.052,1.357v3.357h-5.608v-3.357a1.4,1.4,0,0,0-1.052-1.357,15.315,15.315,0,0,1-3.964-1.64,1.4,1.4,0,0,0-1.7.216l-2.372,2.372-3.965-3.967,2.37-2.372a1.4,1.4,0,0,0,.216-1.7,15.327,15.327,0,0,1-1.64-3.965,1.4,1.4,0,0,0-1.357-1.052h-3.356v-5.608h3.356a1.4,1.4,0,0,0,1.357-1.052,15.231,15.231,0,0,1,.912-2.57,15.482,15.482,0,0,1,.729-1.4,1.4,1.4,0,0,0-.216-1.7l-2.37-2.372,3.965-3.967,2.372,2.373a1.4,1.4,0,0,0,1.7.215,15.33,15.33,0,0,1,3.964-1.64,1.4,1.4,0,0,0,1.052-1.357v-3.351h5.608v3.356a1.4,1.4,0,0,0,1.052,1.357,15.312,15.312,0,0,1,3.964,1.64,1.4,1.4,0,0,0,1.7-.216l2.372-2.372,3.965,3.967-2.371,2.372a1.4,1.4,0,0,0-.216,1.7,15.33,15.33,0,0,1,1.64,3.965,1.4,1.4,0,0,0,1.357,1.052h3.356Zm0,0" transform="translate(-256.013 -284.709)" fill="url(#a)"/><path d="M781.25,781.5h8.412v2.8H781.25Zm0,0" transform="translate(-711.148 -711.397)" fill="url(#a)"/></g></svg>