<svg xmlns="http://www.w3.org/2000/svg" xmlns:xlink="http://www.w3.org/1999/xlink" width="86.703" height="83.907" viewBox="0 0 86.703 83.907"><defs><linearGradient id="a" x1="0.5" x2="0.5" y2="1" gradientUnits="objectBoundingBox"><stop offset="0" stop-color="#ff4b70"/><stop offset="1" stop-color="#7c4dff"/></linearGradient></defs><path d="M6.992,75.641H43.351v-2.8H6.992a4.2,4.2,0,0,1-4.2-4.2V7.117a4.2,4.2,0,0,1,4.2-4.2H68.523a4.194,4.194,0,0,1,4.2,4.2V39.281h2.8V7.117A7,7,0,0,0,68.523.125H6.992A7,7,0,0,0,0,7.117V68.648A7,7,0,0,0,6.992,75.641Zm0,0" transform="translate(0 -0.125)" fill="url(#a)"/><path d="M62.344,62.469h2.8v2.8h-2.8Zm0,0" transform="translate(-56.75 -56.875)" fill="url(#a)"/><path d="M124.676,62.469h2.8v2.8h-2.8Zm0,0" transform="translate(-113.489 -56.875)" fill="url(#a)"/><path d="M187.016,62.469h2.8v2.8h-2.8Zm0,0" transform="translate(-170.235 -56.875)" fill="url(#a)"/><path d="M62.344,124.8h64.327v2.8H62.344Zm0,0" transform="translate(-56.75 -113.614)" fill="url(#a)"/><path d="M76.31,191.707l-3.552,3.552a7.014,7.014,0,1,0,1.977,1.978l3.552-3.552Zm-7.4,13.574a4.195,4.195,0,1,1,0-8.39,4.122,4.122,0,0,1,1.8.419L67.919,200.1l1.977,1.978,2.788-2.784a4.118,4.118,0,0,1,.419,1.8A4.2,4.2,0,0,1,68.907,205.281Zm0,0" transform="translate(-56.322 -174.516)" fill="url(#a)"/><path d="M264.941,249.484h23.773v2.8H264.941Zm0,0" transform="translate(-241.168 -227.109)" fill="url(#a)"/><path d="M264.941,311.82h9.789v2.8h-9.789Zm0,0" transform="translate(-241.168 -283.851)" fill="url(#a)"/><path d="M405.2,311.82h19.578v2.8H405.2Zm0,0" transform="translate(-368.844 -283.851)" fill="url(#a)"/><path d="M561.047,249.484h13.984v2.8H561.047Zm0,0" transform="translate(-510.704 -227.109)" fill="url(#a)"/><path d="M76.31,378.723l-3.552,3.552a7.014,7.014,0,1,0,1.977,1.978l3.552-3.552Zm-7.4,13.575a4.2,4.2,0,0,1,0-8.391,4.126,4.126,0,0,1,1.8.42l-2.786,2.787L69.9,389.09l2.788-2.784a4.12,4.12,0,0,1,.419,1.8A4.2,4.2,0,0,1,68.907,392.3Zm0,0" transform="translate(-56.322 -344.751)" fill="url(#a)"/><path d="M264.941,436.492h23.773v2.8H264.941Zm0,0" transform="translate(-241.168 -397.336)" fill="url(#a)"/><path d="M264.941,498.836h9.789v2.8h-9.789Zm0,0" transform="translate(-241.168 -454.086)" fill="url(#a)"/><path d="M405.2,498.836H416.39v2.8H405.2Zm0,0" transform="translate(-368.844 -454.086)" fill="url(#a)"/><path d="M561.047,436.492h5.593v2.8h-5.593Zm0,0" transform="translate(-510.704 -397.336)" fill="url(#a)"/><path d="M76.31,565.738l-3.552,3.552a7.013,7.013,0,1,0,1.977,1.977l3.552-3.552Zm-7.4,13.575a4.2,4.2,0,0,1,0-8.391,4.114,4.114,0,0,1,1.8.419l-2.786,2.786L69.9,576.1l2.788-2.785a4.122,4.122,0,0,1,.419,1.8A4.2,4.2,0,0,1,68.907,579.313Zm0,0" transform="translate(-56.322 -514.985)" fill="url(#a)"/><path d="M264.941,623.512H283.12v2.8H264.941Zm0,0" transform="translate(-241.168 -567.575)" fill="url(#a)"/><path d="M264.941,685.852h9.789v2.8h-9.789Zm0,0" transform="translate(-241.168 -624.321)" fill="url(#a)"/><path d="M405.2,685.852H410.8v2.8H405.2Zm0,0" transform="translate(-368.844 -624.321)" fill="url(#a)"/><path d="M519.688,509.618a20.977,20.977,0,1,0-20.977-20.977A20.976,20.976,0,0,0,519.688,509.618Zm0-39.157a18.18,18.18,0,1,1-18.18,18.18A18.18,18.18,0,0,1,519.688,470.461Zm0,0" transform="translate(-453.961 -425.711)" fill="url(#a)"/><path d="M612.023,592.875l-2.5,1.25,2.8,5.594a1.4,1.4,0,0,0,1.027.756,1.552,1.552,0,0,0,.217.018,1.4,1.4,0,0,0,.989-.41l16.78-16.781-1.977-1.978-15.41,15.409Zm0,0" transform="translate(-554.827 -529.172)" fill="url(#a)"/></svg>