<svg xmlns="http://www.w3.org/2000/svg" xmlns:xlink="http://www.w3.org/1999/xlink" width="80.881" height="80.881" viewBox="0 0 80.881 80.881"><defs><linearGradient id="a" x1="0.5" x2="0.5" y2="1" gradientUnits="objectBoundingBox"><stop offset="0" stop-color="#ff4b70"/><stop offset="1" stop-color="#7c4dff"/></linearGradient></defs><g transform="translate(0)"><path d="M70.4,19.561a2.867,2.867,0,0,0,2.027-.84l7.941-7.941A1.747,1.747,0,0,0,79.244,7.8L75.018,7.54l2.757-2.757A1.185,1.185,0,0,0,76.1,3.107L73.343,5.864l-.265-4.226A1.747,1.747,0,0,0,70.1.514L62.161,8.454a2.867,2.867,0,0,0-.834,2.206l.273,4.349A37.388,37.388,0,0,0,9.724,68.649a1.185,1.185,0,0,0,1.753-1.595A35.031,35.031,0,0,1,61.311,17.9L55.9,23.3A27.415,27.415,0,0,0,12.988,56.04h0a27.432,27.432,0,0,0,51.257-6.963,1.185,1.185,0,1,0-2.32-.481,25.062,25.062,0,0,1-46.831,6.357h0A24.736,24.736,0,0,1,12.32,43.5,25.037,25.037,0,0,1,54.23,24.977l-5.358,5.358a17.5,17.5,0,1,0,1.676,1.676l5.358-5.358a24.955,24.955,0,0,1,6.539,16.7,1.185,1.185,0,0,0,1.185,1.178h.007a1.185,1.185,0,0,0,1.178-1.192,27.318,27.318,0,0,0-7.233-18.364l5.406-5.406A35.031,35.031,0,0,1,15.362,70.723a1.185,1.185,0,1,0-1.492,1.841A37.384,37.384,0,0,0,74.765,43.5a37.08,37.08,0,0,0-7.352-22.266q-.747-1.006-1.553-1.952c4.645.292,4.394.28,4.541.28ZM52.5,43.5a15.131,15.131,0,1,1-5.3-11.486L41.8,37.406a7.543,7.543,0,1,0,1.676,1.676l5.392-5.392A15.047,15.047,0,0,1,52.5,43.5Zm-15.951.838a1.185,1.185,0,0,0,1.676,0l3.552-3.552A5.168,5.168,0,1,1,40.1,39.111l-3.552,3.552a1.185,1.185,0,0,0,0,1.675ZM63.692,10.512a.5.5,0,0,1,.145-.382L70.8,3.167,71.109,8.1,63.987,15.22ZM65.663,16.9l7.122-7.122,4.931.309-6.963,6.963a.5.5,0,0,1-.382.145Z" transform="translate(0 -0.002)" fill="url(#a)"/></g></svg>