<svg xmlns="http://www.w3.org/2000/svg" xmlns:xlink="http://www.w3.org/1999/xlink" width="84.503" height="84.502" viewBox="0 0 84.503 84.502"><defs><linearGradient id="a" x1="0.5" x2="0.5" y2="1" gradientUnits="objectBoundingBox"><stop offset="0" stop-color="#ff4b70"/><stop offset="1" stop-color="#7c4dff"/></linearGradient></defs><g transform="translate(0 0)"><path d="M83.265,66.218A1.238,1.238,0,0,0,84.5,64.98v-1.9a7.9,7.9,0,0,0-5.434-7.512l-7.737-2.546V50.347a9.244,9.244,0,0,0,4.5-7.929V37.083a9.236,9.236,0,0,0-16.6-5.578,7.863,7.863,0,0,0-4.506-3.775L46.99,25.183V22.5a9.244,9.244,0,0,0,4.5-7.929V9.24a9.24,9.24,0,1,0-18.481,0v5.335a9.244,9.244,0,0,0,4.5,7.929v2.679L29.777,27.73a7.864,7.864,0,0,0-4.506,3.775,9.236,9.236,0,0,0-16.6,5.578v5.335a9.244,9.244,0,0,0,4.5,7.929v2.679L5.434,55.572A7.894,7.894,0,0,0,0,63.083v1.9a1.238,1.238,0,0,0,2.476,0v-1.9a5.423,5.423,0,0,1,3.732-5.16l7.247-2.385a4.739,4.739,0,0,0,8.91,0l7.246,2.384A5.416,5.416,0,0,1,33,61.18l-3.223,1.061a7.892,7.892,0,0,0-5.435,7.51V71.19H9.478v-3.1a1.238,1.238,0,0,0-2.476,0v3.1H2.476v-.427a1.238,1.238,0,0,0-2.476,0v1.665a1.238,1.238,0,0,0,1.238,1.238h23.1v9.6A1.238,1.238,0,0,0,25.579,84.5H58.923a1.238,1.238,0,0,0,1.238-1.238V81.611a1.238,1.238,0,1,0-2.476,0v.416H53.159V74.762a1.238,1.238,0,0,0-2.476,0v7.265H33.819V74.762a1.238,1.238,0,0,0-2.476,0v7.265H26.817V69.752a5.421,5.421,0,0,1,3.733-5.159L37.8,62.208a4.739,4.739,0,0,0,8.909,0l7.246,2.385a5.421,5.421,0,0,1,3.733,5.159v6.081a1.238,1.238,0,0,0,2.476,0V73.666h23.1A1.238,1.238,0,0,0,84.5,72.428V70.763a1.238,1.238,0,1,0-2.476,0v.427H77.5v-3.1a1.238,1.238,0,0,0-2.476,0v3.1H60.161V69.752a7.892,7.892,0,0,0-5.435-7.51L51.5,61.18a5.416,5.416,0,0,1,3.388-3.257l7.247-2.385a4.739,4.739,0,0,0,8.91,0l7.247,2.385a5.423,5.423,0,0,1,3.733,5.16v1.9a1.238,1.238,0,0,0,1.238,1.238Zm-16.672-35.9a6.772,6.772,0,0,1,6.765,6.765v5.335a6.765,6.765,0,1,1-13.53,0V37.083a6.772,6.772,0,0,1,6.765-6.765ZM35.486,14.576V9.24a6.765,6.765,0,0,1,13.53,0v5.335a6.765,6.765,0,0,1-13.53,0Zm6.765,9.24a9.224,9.224,0,0,0,2.263-.281v2.511c0,.012,0,.023,0,.035a2.263,2.263,0,0,1-4.527,0c0-.012,0-.023,0-.035V23.535a9.227,9.227,0,0,0,2.263.281Zm-11.7,6.266L37.8,27.7a4.739,4.739,0,0,0,8.909,0l7.247,2.386a5.391,5.391,0,0,1,3.7,4.646,9.218,9.218,0,0,0-.305,2.355v5.335a9.3,9.3,0,0,0,.047.929H51.481a9.239,9.239,0,0,0-18.461,0H27.1a9.3,9.3,0,0,0,.047-.929V37.083a9.219,9.219,0,0,0-.305-2.355,5.392,5.392,0,0,1,3.706-4.646Zm11.7,25.77a6.772,6.772,0,0,1-6.765-6.765V43.752a6.765,6.765,0,0,1,13.53,0v5.335A6.772,6.772,0,0,1,42.251,55.852ZM11.145,42.418V37.083a6.765,6.765,0,1,1,13.53,0v5.335a6.765,6.765,0,1,1-13.53,0Zm9.028,11.5a2.263,2.263,0,0,1-4.527,0V51.377a9.243,9.243,0,0,0,4.527,0Zm10.212,1.65-7.736-2.546V50.347A9.294,9.294,0,0,0,26.5,45.823h6.513v3.264a9.244,9.244,0,0,0,4.5,7.929v2.679l-2.162.712a7.883,7.883,0,0,0-4.965-4.835Zm11.866,7.283a2.266,2.266,0,0,1-2.263-2.263V58.046a9.244,9.244,0,0,0,4.527,0v2.545a2.266,2.266,0,0,1-2.263,2.263Zm11.866-7.283a7.882,7.882,0,0,0-4.964,4.835L46.99,59.7V57.016a9.244,9.244,0,0,0,4.5-7.929V45.823H58a9.292,9.292,0,0,0,3.849,4.524v2.679Zm12.476.614a2.266,2.266,0,0,1-2.263-2.263V51.377a9.243,9.243,0,0,0,4.527,0v2.545A2.266,2.266,0,0,1,66.593,56.185Z" transform="translate(0 0)" fill="url(#a)"/></g></svg>