<svg xmlns="http://www.w3.org/2000/svg" xmlns:xlink="http://www.w3.org/1999/xlink" width="512" height="511.996" viewBox="0 0 512 511.996">
  <defs>
    <linearGradient id="linear-gradient" x1="0.5" x2="0.5" y2="1" gradientUnits="objectBoundingBox">
      <stop offset="0" stop-color="#ff4b70"/>
      <stop offset="1" stop-color="#7c4dff"/>
    </linearGradient>
  </defs>
  <g id="tickets" transform="translate(-0.001)">
    <path id="Path_5303" data-name="Path 5303" d="M131.219,216.836a10,10,0,1,0-7.07-2.93A10.073,10.073,0,0,0,131.219,216.836Zm0,0" fill="url(#linear-gradient)"/>
    <path id="Path_5304" data-name="Path 5304" d="M274.469,203.594a10.015,10.015,0,1,0,2.922,7.07A10.091,10.091,0,0,0,274.469,203.594Zm0,0" fill="url(#linear-gradient)"/>
    <path id="Path_5305" data-name="Path 5305" d="M302.4,185.664a10,10,0,1,0-7.078-2.93A10.073,10.073,0,0,0,302.4,185.664Zm0,0" fill="url(#linear-gradient)"/>
    <path id="Path_5306" data-name="Path 5306" d="M482,246H454.1l49.117-49.117a30,30,0,0,0,0-42.426L458.664,109.9a10,10,0,0,0-14.141,0A30,30,0,0,1,402.1,67.477a10,10,0,0,0,0-14.141L357.551,8.789a29.994,29.994,0,0,0-42.426,0L149.961,173.949a10,10,0,0,0,14.145,14.141L329.266,22.93a10,10,0,0,1,14.141,0l38.184,38.18a50.022,50.022,0,0,0,69.3,69.3l38.18,38.18a10.01,10.01,0,0,1,0,14.141L425.813,246h-43.84l32.855-32.855a10,10,0,0,0,0-14.141L313,97.176a10,10,0,0,0-14.145,0L150.04,246H30A30.033,30.033,0,0,0,0,276v63a10,10,0,0,0,10,10,30,30,0,0,1,0,60A10,10,0,0,0,0,419v63a30.035,30.035,0,0,0,30,30H482a30.035,30.035,0,0,0,30-30V419a10,10,0,0,0-10-10,30,30,0,0,1,0-60,10,10,0,0,0,10-10V276a30.033,30.033,0,0,0-30-30ZM305.93,118.387l87.684,87.684L353.688,246h-39.6l29.316-29.32a10,10,0,0,0-14.141-14.141L285.8,245.993H178.325ZM492,330a50.008,50.008,0,0,0,0,97.992v54a10.012,10.012,0,0,1-10,10H30a10.012,10.012,0,0,1-10-10v-54A50.008,50.008,0,0,0,20,330V276a10.009,10.009,0,0,1,10-10H482a10.009,10.009,0,0,1,10,10Zm0,0" fill="url(#linear-gradient)"/>
    <path id="Path_5307" data-name="Path 5307" d="M213.57,362.066A10,10,0,1,0,206.5,365,10.087,10.087,0,0,0,213.57,362.066Zm0,0" fill="url(#linear-gradient)"/>
    <path id="Path_5308" data-name="Path 5308" d="M312.57,362.066A10,10,0,1,0,305.5,365,10.087,10.087,0,0,0,312.57,362.066Zm0,0" fill="url(#linear-gradient)"/>
    <path id="Path_5309" data-name="Path 5309" d="M263.07,362.066A10,10,0,1,0,256,365,10.087,10.087,0,0,0,263.07,362.066Zm0,0" fill="url(#linear-gradient)"/>
    <path id="Path_5310" data-name="Path 5310" d="M157,365a10,10,0,1,0-7.07-2.93A10.08,10.08,0,0,0,157,365Zm0,0" fill="url(#linear-gradient)"/>
    <path id="Path_5311" data-name="Path 5311" d="M362.07,362.066A10,10,0,1,0,355,365,10.087,10.087,0,0,0,362.07,362.066Zm0,0" fill="url(#linear-gradient)"/>
    <path id="Path_5312" data-name="Path 5312" d="M157,413H355a10,10,0,0,0,0-20H157a10,10,0,0,0,0,20Zm0,0" fill="url(#linear-gradient)"/>
    <path id="Path_5313" data-name="Path 5313" d="M193.32,441a10,10,0,1,0,7.07,2.93A10.08,10.08,0,0,0,193.32,441Zm0,0" fill="url(#linear-gradient)"/>
    <path id="Path_5314" data-name="Path 5314" d="M408,297H104a10,10,0,0,0-10,10V451a10,10,0,0,0,10,10h41.656a10,10,0,0,0,0-20H114V317H398V441H235.656a10,10,0,0,0,0,20H408a10,10,0,0,0,10-10V307A10,10,0,0,0,408,297Zm0,0" fill="url(#linear-gradient)"/>
  </g>
</svg>
