<svg xmlns="http://www.w3.org/2000/svg" xmlns:xlink="http://www.w3.org/1999/xlink" width="86.749" height="86.749" viewBox="0 0 86.749 86.749"><defs><linearGradient id="a" x1="0.5" x2="0.5" y2="1" gradientUnits="objectBoundingBox"><stop offset="0" stop-color="#ff4b70"/><stop offset="1" stop-color="#7c4dff"/></linearGradient></defs><g transform="translate(46.085 17.621)"><path d="M286.91,104H273.355A1.356,1.356,0,0,0,272,105.355V118.91a1.356,1.356,0,0,0,1.355,1.355H286.91a1.356,1.356,0,0,0,1.355-1.355V105.355A1.356,1.356,0,0,0,286.91,104Zm-12.2,13.555v-8.928l8.928,8.928Zm10.844-1.918-8.926-8.926h8.926Z" transform="translate(-272 -104)" fill="url(#a)"/></g><g transform="translate(46.085 36.597)"><path d="M286.91,216H273.355A1.356,1.356,0,0,0,272,217.355V230.91a1.356,1.356,0,0,0,1.355,1.355H286.91a1.356,1.356,0,0,0,1.355-1.355V217.355A1.356,1.356,0,0,0,286.91,216Zm-12.2,13.555v-8.927l8.926,8.927Zm10.844-1.917-8.927-8.927h8.927Z" transform="translate(-272 -216)" fill="url(#a)"/></g><g transform="translate(45.984 55.684)"><g transform="translate(0 0)"><rect width="10" height="2" transform="translate(0.399 0.316)" fill="url(#a)"/></g></g><g transform="translate(59.8 55.684)"><g transform="translate(0 0)"><rect width="3" height="2" transform="translate(-0.418 0.316)" fill="url(#a)"/></g></g><g transform="translate(45.984 61.127)"><g transform="translate(0 0)"><rect width="16" height="3" transform="translate(0.399 -0.127)" fill="url(#a)"/></g></g><g transform="translate(45.984 66.569)"><g transform="translate(0 0)"><rect width="16" height="2" transform="translate(0.399 0.431)" fill="url(#a)"/></g></g><g transform="translate(22.957 30.982)"><g transform="translate(0 0)"><rect width="13" height="3" transform="translate(0.426 0.018)" fill="url(#a)"/></g></g><g transform="translate(22.957 41.867)"><g transform="translate(0 0)"><rect width="13" height="3" transform="translate(0.426 0.133)" fill="url(#a)"/></g></g><g transform="translate(22.957 52.753)"><g transform="translate(0 0)"><rect width="13" height="3" transform="translate(0.426 0.247)" fill="url(#a)"/></g></g><path d="M78.616,9.488a1.356,1.356,0,0,0-1.355,1.355v5.422H69.128V2.711A2.711,2.711,0,0,0,66.417,0H20.332a2.711,2.711,0,0,0-2.711,2.711V16.265H9.488V10.844A1.356,1.356,0,0,0,8.133,9.488C8.051,9.488,0,9.612,0,20.332V73.194c0,5.168,5.151,7.562,7.862,8.106a1.256,1.256,0,0,0,.271.027h9.488v2.711a2.711,2.711,0,0,0,2.711,2.711H66.417a2.711,2.711,0,0,0,2.711-2.711V81.327h9.488a1.256,1.256,0,0,0,.271-.027c2.711-.544,7.862-2.937,7.862-8.106V20.332C86.749,9.612,78.7,9.488,78.616,9.488ZM2.711,20.332c0-5.53,2.44-7.3,4.066-7.862v52.9a11.9,11.9,0,0,0-4.066,2.2Zm14.91,58.284H8.282c-.809-.194-5.571-1.5-5.571-5.422,0-4.229,5.464-5.4,5.693-5.449a1.355,1.355,0,0,0,1.084-1.328V18.976h8.133ZM20.332,14.91H35.94L20.332,24.66ZM39.308,16v9.751H23.7ZM20.332,28.465H39.308V36.6H20.332Zm0,10.844H39.308v8.133H20.332Zm0,10.844H39.308v8.133H20.332Zm0,10.844H36.29L20.332,71.962Zm18.976,1.215V73.194H23.324ZM66.417,84.038H20.332V75.905H66.417Zm0-10.844h-24.4V14.91h24.4Zm0-61H20.332V2.711H66.417ZM78.47,78.616H69.128V18.976h8.133V66.417a1.355,1.355,0,0,0,1.084,1.328c.062.012,5.693,1.187,5.693,5.449C84.038,77.135,79.306,78.42,78.47,78.616Zm5.568-11.042a11.9,11.9,0,0,0-4.066-2.2V12.47c1.609.563,4.066,2.334,4.066,7.862Z" fill="url(#a)"/><g transform="translate(33.843 6.699)"><g transform="translate(0 0)"><rect width="11" height="3" transform="translate(-0.46 0.301)" fill="url(#a)"/></g></g><g transform="translate(47.24 6.699)"><g transform="translate(0 0)"><rect width="3" height="3" transform="translate(0.142 0.301)" fill="url(#a)"/></g></g><g transform="translate(52.683 6.699)"><g transform="translate(0 0)"><rect width="3" height="3" transform="translate(-0.3 0.301)" fill="url(#a)"/></g></g></svg>