<svg xmlns="http://www.w3.org/2000/svg" xmlns:xlink="http://www.w3.org/1999/xlink" width="86.375" height="76.208" viewBox="0 0 86.375 76.208"><defs><linearGradient id="a" x1="0.5" y1="2.838" x2="0.5" y2="-2.665" gradientUnits="objectBoundingBox"><stop offset="0" stop-color="#ff4b70"/><stop offset="1" stop-color="#7c4dff"/></linearGradient><linearGradient id="c" x1="0.5" y1="1.936" x2="0.5" y2="-1.452" xlink:href="#a"/><linearGradient id="d" x1="0.5" y1="1.175" x2="0.5" y2="-0.165" xlink:href="#a"/><linearGradient id="e" x1="0.496" y1="9.15" x2="0.496" y2="-2.17" xlink:href="#a"/><linearGradient id="f" x1="0.501" y1="9.185" x2="0.501" y2="-2.177" xlink:href="#a"/><linearGradient id="g" x1="0.499" y1="9.145" x2="0.499" y2="-2.175" xlink:href="#a"/></defs><path d="M126.739,181.491a1.426,1.426,0,0,0-2.011-.162l-9.227,7.857a1.427,1.427,0,0,0,0,2.172l9.227,7.857a1.426,1.426,0,0,0,1.849-2.171l-7.951-6.772,7.952-6.772A1.427,1.427,0,0,0,126.739,181.491Zm0,0" transform="translate(-91.573 -144.119)" fill="url(#a)"/><path d="M261.284,189.186l-9.227-7.857a1.426,1.426,0,0,0-1.849,2.172l7.951,6.772-7.951,6.772a1.426,1.426,0,1,0,1.849,2.171l9.227-7.857a1.427,1.427,0,0,0,0-2.172Zm0,0" transform="translate(-198.837 -144.118)" fill="url(#a)"/><path d="M196.425,153.055a1.426,1.426,0,0,0-1.689,1.1l-5.751,27.3a1.426,1.426,0,1,0,2.791.588l5.751-27.305a1.426,1.426,0,0,0-1.1-1.689Zm0,0" transform="translate(-150.461 -121.851)" fill="url(#c)"/><path d="M76.8,0H9.575A9.585,9.585,0,0,0,0,9.575V66.633a9.585,9.585,0,0,0,9.575,9.575H76.8a9.585,9.585,0,0,0,9.575-9.575V9.575A9.585,9.585,0,0,0,76.8,0ZM9.575,2.852H76.8a6.73,6.73,0,0,1,6.723,6.723V19.983H2.852V9.575A6.73,6.73,0,0,1,9.575,2.852ZM76.8,73.356H9.575a6.731,6.731,0,0,1-6.723-6.723v-43.8H83.523v43.8A6.731,6.731,0,0,1,76.8,73.356Zm0,0" fill="url(#d)"/><path d="M102.21,43.315h.014a4.513,4.513,0,0,0,.014-9.026h-.014a4.513,4.513,0,0,0-.014,9.025Zm-1.157-5.691a1.652,1.652,0,0,1,1.171-.483h.006a1.661,1.661,0,0,1-.006,3.321h0a1.661,1.661,0,0,1-1.166-2.839Zm0,0" transform="translate(-77.858 -27.304)" fill="url(#e)"/><path d="M33.923,43.234h.014a4.5,4.5,0,1,0-.014,0Zm.014-6.173h.006a1.661,1.661,0,0,1-.006,3.321h0a1.661,1.661,0,0,1,0-3.321Zm0,0" transform="translate(-23.438 -27.267)" fill="url(#f)"/><path d="M170.1,43.529h.014a4.513,4.513,0,0,0,.014-9.026h-.014a4.513,4.513,0,0,0-.014,9.026Zm.014-6.174h0a1.661,1.661,0,0,1,0,3.322h-.006a1.661,1.661,0,0,1,.006-3.322Zm0,0" transform="translate(-131.885 -27.475)" fill="url(#g)"/></svg>