<svg id="adobe-xd" xmlns="http://www.w3.org/2000/svg" width="71.63" height="69.807" viewBox="0 0 71.63 69.807">
  <path id="Path_5200" data-name="Path 5200" d="M10,10H75.661V73.841H10Z" transform="translate(-7.015 -7.017)" fill="#2e001e"/>
  <path id="Path_5201" data-name="Path 5201" d="M0,0V69.807H71.63V0ZM2.985,2.983H68.646V66.824H2.985Z" fill="#ff2bc2"/>
  <path id="Path_5202" data-name="Path 5202" d="M83.736,68.268A4.1,4.1,0,0,0,82,67.97c-3.761,0-6.268,2.894-6.268,7.7,0,5.489,2.567,7.7,5.91,7.7a5.633,5.633,0,0,0,2.059-.328V68.268ZM70.365,75.905c0-6.951,4.477-12.38,11.819-12.38a13.242,13.242,0,0,1,1.552.06V55.828a.3.3,0,0,1,.3-.3h4.805c.239,0,.3.089.3.239V83.035a21.242,21.242,0,0,0,.149,2.924c0,.209,0,.239-.179.328a17.785,17.785,0,0,1-7.641,1.73C74.991,88.017,70.365,84.02,70.365,75.905ZM60.187,71.072l8.357,16.2c.149.239.06.477-.179.477H63.172a.586.586,0,0,1-.627-.388Q59.68,81.454,56.7,75.1h-.06c-1.791,4-3.761,8.353-5.671,12.291a.573.573,0,0,1-.537.328H45.473c-.3,0-.328-.239-.179-.418L53.472,71.58,45.563,55.947a.264.264,0,0,1,.209-.447h5.134c.3,0,.448.06.537.328,1.88,3.968,3.79,7.876,5.581,11.873h.06c1.731-3.938,3.641-7.906,5.462-11.814.149-.239.239-.388.537-.388h4.805c.239,0,.328.179.179.447Z" transform="translate(-31.714 -38.943)" fill="#ff2bc2"/>
</svg>
