<svg xmlns="http://www.w3.org/2000/svg" xmlns:xlink="http://www.w3.org/1999/xlink" width="71.34" height="69.56" viewBox="0 0 71.34 69.56">
  <defs>
    <radialGradient id="radial-gradient" cx="0.329" cy="0.224" r="0.781" gradientTransform="translate(-0.01 0.01) scale(0.973 0.968)" gradientUnits="objectBoundingBox">
      <stop offset="0" stop-color="#423325" stop-opacity="0.98"/>
      <stop offset="1" stop-color="#1c0a00"/>
    </radialGradient>
  </defs>
  <g id="adobe-illustrator-cc" transform="translate(0 -130.746)">
    <path id="Path_5198" data-name="Path 5198" d="M24.8,155.549H90.222v63.6H24.8Z" transform="translate(-21.843 -21.825)" fill="url(#radial-gradient)"/>
    <path id="Path_5199" data-name="Path 5199" d="M2.972,133.719h65.4v63.615H2.972ZM0,200.306H71.34v-69.56H0Zm46.728-44.768c0-.238.089-.357.357-.357h4.667c.238,0,.357.089.357.357v23.454c0,.238-.059.357-.357.357H47.144c-.3,0-.386-.149-.386-.386V155.538ZM46.4,148.79a3.032,3.032,0,1,1,6.064,0,2.841,2.841,0,0,1-3.091,3.032A2.794,2.794,0,0,1,46.4,148.79ZM33.024,165.318c-.832-3.3-2.794-10.493-3.537-13.971h-.059c-.624,3.478-2.2,9.364-3.448,13.971Zm-8.264,4.816-2.348,8.918c-.059.238-.149.3-.446.3H17.6c-.3,0-.357-.089-.3-.446l8.442-29.548a9.63,9.63,0,0,0,.3-2.467c0-.208.089-.3.238-.3h6.242c.208,0,.3.059.357.3l9.452,32.075c.059.238,0,.386-.238.386H37.156c-.238,0-.386-.059-.446-.267l-2.437-8.948H24.761Z" transform="translate(0 0)" fill="#ff7f18"/>
  </g>
</svg>
