<svg id="android" xmlns="http://www.w3.org/2000/svg" width="64.94" height="77.947" viewBox="0 0 64.94 77.947">
  <g id="Group_146" data-name="Group 146" transform="translate(0 0)">
    <path id="Path_2732" data-name="Path 2732" d="M47.6,170.787a4.871,4.871,0,0,0-4.871,4.871v22.729a4.871,4.871,0,0,0,9.741,0V175.658A4.871,4.871,0,0,0,47.6,170.787Z" transform="translate(-42.727 -144.793)" fill="#4caf50"/>
    <path id="Path_2733" data-name="Path 2733" d="M410.264,170.787a4.871,4.871,0,0,0-4.871,4.871v22.729a4.871,4.871,0,0,0,9.741,0V175.658A4.87,4.87,0,0,0,410.264,170.787Z" transform="translate(-350.194 -144.793)" fill="#4caf50"/>
    <path id="Path_2734" data-name="Path 2734" d="M165.4,170.787H129.684a1.624,1.624,0,0,0-1.624,1.624v25.976a8.118,8.118,0,0,0,6.494,7.955v11.527a4.871,4.871,0,0,0,9.741,0V206.5h6.494v11.365a4.871,4.871,0,1,0,9.741,0V206.342a8.118,8.118,0,0,0,6.494-7.955V172.411A1.624,1.624,0,0,0,165.4,170.787Z" transform="translate(-115.072 -144.793)" fill="#4caf50"/>
    <path id="Path_2735" data-name="Path 2735" d="M159.344,6.746,163.3,2.791A1.624,1.624,0,0,0,161.046.456l-.04.04L156.4,5.106a22.22,22.22,0,0,0-17.706,0L134.079.492a1.623,1.623,0,0,0-2.3,2.3l3.955,3.958a17.134,17.134,0,0,0-7.679,14.378,1.624,1.624,0,0,0,1.624,1.624H165.4a1.624,1.624,0,0,0,1.624-1.624A17.135,17.135,0,0,0,159.344,6.746Z" transform="translate(-115.071 0)" fill="#4caf50"/>
  </g>
  <g id="Group_147" data-name="Group 147" transform="translate(22.729 13.006)">
    <circle id="Ellipse_161" data-name="Ellipse 161" cx="1.624" cy="1.624" r="1.624" transform="translate(0)" fill="#fafafa"/>
    <circle id="Ellipse_162" data-name="Ellipse 162" cx="1.624" cy="1.624" r="1.624" transform="translate(16.235)" fill="#fafafa"/>
  </g>
</svg>
