<svg xmlns="http://www.w3.org/2000/svg" width="76.016" height="80.526" viewBox="0 0 76.016 80.526">
  <g id="angular" transform="translate(-0.849 -0.341)">
    <path id="Path_5196" data-name="Path 5196" d="M38.736.341.849,13.674,6.836,63.312l31.94,17.555,32.1-17.792,5.985-49.636Z" transform="translate(0 0)" fill="#b3b3b3"/>
    <path id="Path_5197" data-name="Path 5197" d="M161.749,26.21,127.31,14.466v72.11L156.171,70.6l5.577-44.392Z" transform="translate(-88.663 -9.903)" fill="#a6120d"/>
    <path id="Path_5198" data-name="Path 5198" d="M15.073,26.419,20.2,70.812,48.619,86.573V14.462L15.073,26.419Z" transform="translate(-9.973 -9.9)" fill="#dd1b16"/>
    <path id="Path_5199" data-name="Path 5199" d="M81.844,59l-9.48,4.433H62.372l-4.7,11.748-8.736.161L72.364,23.227,81.844,59Zm-.916-2.232-8.5-16.829L65.454,56.474h6.91l8.564.29Z" transform="translate(-33.716 -16.046)" fill="#f2f2f2"/>
    <path id="Path_5200" data-name="Path 5200" d="M127.309,23.226l.063,16.709,7.912,16.552h-7.957l-.018,6.931,11,.01,5.142,11.911,8.359.155Z" transform="translate(-88.662 -16.045)" fill="#b3b3b3"/>
  </g>
</svg>
