<svg xmlns="http://www.w3.org/2000/svg" width="56.748" height="69.61" viewBox="0 0 56.748 69.61">
  <path id="apple" d="M31.311,6.058A14.9,14.9,0,0,1,42.243,0a14.864,14.864,0,0,1-3.6,11.127C33.794,16.957,28.279,16,28.279,16S27.244,11.418,31.311,6.058Zm-2.45,13.916c2.353,0,6.72-3.234,12.4-3.234C51.049,16.739,54.9,23.7,54.9,23.7A15.116,15.116,0,0,0,47.37,36.89c0,10.536,9.378,14.167,9.378,14.167s-6.556,18.452-15.41,18.452c-4.067,0-7.229-2.741-11.514-2.741-4.367,0-8.7,2.843-11.523,2.843C10.215,69.61,0,52.107,0,38.037c0-13.843,8.646-21.1,16.757-21.1,5.272,0,9.364,3.04,12.1,3.04Z" transform="translate(0 0)" fill="#999"/>
</svg>
