<svg xmlns="http://www.w3.org/2000/svg" xmlns:xlink="http://www.w3.org/1999/xlink" width="429.691" height="487.718" viewBox="0 0 429.691 487.718">
  <defs>
    <linearGradient id="linear-gradient" x1="0.5" x2="0.5" y2="1" gradientUnits="objectBoundingBox">
      <stop offset="0" stop-color="#ff4b70"/>
      <stop offset="1" stop-color="#7c4dff"/>
    </linearGradient>
  </defs>
  <g id="Banking" transform="translate(-0.359)">
    <path id="Path_5204" data-name="Path 5204" d="M220.867,266.176a7.616,7.616,0,0,0-2.742-.094,18.188,18.188,0,0,1-16.086-18.035,8,8,0,0,0-16,0A34.224,34.224,0,0,0,211.2,281v8a8,8,0,0,0,16,0v-7.516a34.162,34.162,0,0,0-7-67.6,18.164,18.164,0,1,1,18.164-18.164,8,8,0,0,0,16,0A34.225,34.225,0,0,0,227.2,162.281V155a8,8,0,0,0-16,0v7.77a34.16,34.16,0,0,0,9,67.113,18.153,18.153,0,0,1,.664,36.293Zm0,0" fill="url(#linear-gradient)"/>
    <path id="Path_5205" data-name="Path 5205" d="M104.195,222.5A116.008,116.008,0,1,0,220.2,106.492,116.007,116.007,0,0,0,104.195,222.5ZM220.2,122.492A100.008,100.008,0,1,1,120.195,222.5,100.006,100.006,0,0,1,220.2,122.492Zm0,0" fill="url(#linear-gradient)"/>
    <path id="Path_5206" data-name="Path 5206" d="M375.648,358.23,312.98,387.839a51.043,51.043,0,0,0-43.516-26.852l-57.852-1.59a61.1,61.1,0,0,1-26.293-6.789l-5.887-3.051a103.833,103.833,0,0,0-96.176.1l.367-13.336a8,8,0,0,0-7.777-8.219L12.41,326.359a8,8,0,0,0-8.215,7.777L.363,473.347a8,8,0,0,0,7.777,8.219l63.437,1.746H71.8a8,8,0,0,0,8-7.781l.184-6.66,16.48-8.824a28.269,28.269,0,0,1,21.1-2.309l98.414,27.621c.172.051.344.09.52.129a105.349,105.349,0,0,0,21.629,2.23,106.739,106.739,0,0,0,44.59-9.73,7.429,7.429,0,0,0,.992-.547l142.691-92.3a8,8,0,0,0,2.621-10.656,40.412,40.412,0,0,0-53.367-16.258ZM16.578,465.793l3.391-123.219,47.441,1.3L64.019,467.1ZM275.5,463.7a90.7,90.7,0,0,1-55.469,6.191L121.887,442.34a44.236,44.236,0,0,0-32.977,3.605l-8.422,4.512,2.254-81.926a87.938,87.938,0,0,1,89.336-4.766l5.887,3.051a77.267,77.267,0,0,0,33.211,8.578l57.855,1.59a35.089,35.089,0,0,1,33.348,27.961L216.2,402.566a8,8,0,0,0-.441,16l95.1,2.617h.223a8,8,0,0,0,7.992-7.781,50.772,50.772,0,0,0-.773-10.379l64.277-30.371c.063-.027.125-.059.188-.09a24.443,24.443,0,0,1,27.641,3.871Zm0,0" fill="url(#linear-gradient)"/>
    <path id="Path_5207" data-name="Path 5207" d="M228.2,84V8a8,8,0,0,0-16,0V84a8,8,0,0,0,16,0Zm0,0" fill="url(#linear-gradient)"/>
    <path id="Path_5208" data-name="Path 5208" d="M288.2,84V48a8,8,0,0,0-16,0V84a8,8,0,0,0,16,0Zm0,0" fill="url(#linear-gradient)"/>
    <path id="Path_5209" data-name="Path 5209" d="M168.2,84V48a8,8,0,0,0-16,0V84a8,8,0,0,0,16,0Zm0,0" fill="url(#linear-gradient)"/>
  </g>
</svg>
