<svg xmlns="http://www.w3.org/2000/svg" width="69" height="68.955" viewBox="0 0 69 68.955">
  <g id="bigcommerce-1" transform="translate(0.005 -0.03)">
    <path id="Path_5242" data-name="Path 5242" d="M1292.735,1167.3h8.7c2.475,0,4.042-1.361,4.042-3.548,0-2.062-1.566-3.548-4.042-3.548h-8.7a.539.539,0,0,0-.535.5v6.1A.535.535,0,0,0,1292.735,1167.3Zm0,14.065h8.992c2.764,0,4.413-1.4,4.413-3.878,0-2.145-1.566-3.878-4.413-3.878h-8.992a.539.539,0,0,0-.535.5v6.725A.54.54,0,0,0,1292.735,1181.361Z" transform="translate(-1256.385 -1128.011)" fill="#34313f"/>
    <path id="Path_5243" data-name="Path 5243" d="M68.194.181,42.454,25.839h4.208c6.558,0,10.436,4.125,10.436,8.621a8.132,8.132,0,0,1-4.951,7.3.479.479,0,0,0,.042.906,8.342,8.342,0,0,1,5.073,7.878c0,5.114-3.423,9.2-10.065,9.2H28.965a.539.539,0,0,1-.535-.5V39.818L.173,67.953a.6.6,0,0,0,.413,1.031H68.524a.458.458,0,0,0,.455-.455V.553A.447.447,0,0,0,68.194.181Z" transform="translate(0 0)" fill="#34313f"/>
  </g>
</svg>
