<svg xmlns="http://www.w3.org/2000/svg" width="896" height="529.113" viewBox="0 0 896 529.113">
  <g id="blog_cs" transform="translate(0 0)">
    <path id="Path_21" data-name="Path 21" d="M832.067,623.228s-26.378,9.894-38.806,32.943-6.2,50.524-6.2,50.524,26.378-9.894,38.806-32.943S832.067,623.228,832.067,623.228Z" transform="translate(-158 -185.887)" fill="#3f3d56"/>
    <path id="Path_22" data-name="Path 22" d="M867.5,657.6s-8.642,26.814-31.08,40.314-50.177,8.573-50.177,8.573,8.642-26.814,31.08-40.314S867.5,657.6,867.5,657.6Z" transform="translate(-158 -185.887)" fill="#6c63ff"/>
    <rect id="Rectangle_8" data-name="Rectangle 8" width="896" height="2" transform="translate(0 527.113)" fill="#2f2e41"/>
    <g id="board">
      <path id="Path_23" data-name="Path 23" d="M519.872,620.975a95.444,95.444,0,0,1-35.748-14.446l1.182-1.614a93.363,93.363,0,0,0,35,14.106c18.932,3.4,47.261,1.731,74.707-25.527,53.414-53.048,104.393-58.391,104.9-58.438l.187,1.992c-.5.047-50.768,5.317-103.678,57.866-21.613,21.464-43.792,27.4-61.718,27.4A83.5,83.5,0,0,1,519.872,620.975Z" transform="translate(-158 -185.887)" fill="#2f2e41"/>
      <circle id="Ellipse_1" data-name="Ellipse 1" cx="12" cy="12" r="12" transform="translate(503.153 369.113)" fill="#2f2e41"/>
      <circle id="Ellipse_2" data-name="Ellipse 2" cx="12" cy="12" r="12" transform="translate(418.153 425.113)" fill="#2f2e41"/>
    </g>
    <path id="Path_24" data-name="Path 24" d="M841.5,714s-17.462-5.413-52.261-10.842L790,692.5c6-60-34-150-34-150a401.561,401.561,0,0,1,21.469,139.025C772.132,672.212,761.821,662.166,742,656c0,0,25.778,22.106,33.159,45.1a997.79,997.79,0,0,0-102.023-8.216L682,672.5l-17,17s-7-51-22-53l11,50s-13-10-16-9l7.4,14.795c-49.819-.517-109.085,1.736-177.766,8.952L476,682l-17,17s-7-51-22-53l11,50s-13-10-16-9l8.643,17.286q-33.667,4-70.143,9.714Z" transform="translate(-158 -185.887)" fill="#3f3d56"/>
    <g id="man">
      <path id="Path_25" data-name="Path 25" d="M565.648,230.378c-10.9,11.748,17.6,40.26,17.6,40.26s-57.707,9.73-53.128,9.141,2.206-49.132,2.206-49.132S576.548,218.63,565.648,230.378Z" transform="translate(-158 -185.887)" fill="#a0616a"/>
      <path id="Path_26" data-name="Path 26" d="M605.812,356.109l-50.139,25.614-27.23,15.606s-32.1,40.431-38.087,64.392,25.93,68.247,29.544,72.823a54.354,54.354,0,0,1,4.989,7.424c1.247,1.856,12.029-.541,23.8-3.066s-1.562-19.963-1.562-19.963-15.027-38.4-16.147-39.259c-1.046-.807-4.6-7.446-2.043-10.352a25.95,25.95,0,0,0,5.445-8.9,30.091,30.091,0,0,1,4.187-7.941s45.361-36.836,59.528-49.378,51.829-4.658,51.829-4.658-17.782,68.2-22.23,72.806-4.929,8.7-2.915,16.508,28.282.391,28.282.391l9.7-26.456s15.749-34.293,24.3-69.674c4.275-17.691-3.888-28.235-13.121-34.355a41.391,41.391,0,0,0-30.03-5.978l-46.349,8.131,32.147-13.849Z" transform="translate(-158 -185.887)" fill="#2f2e41"/>
      <path id="Path_27" data-name="Path 27" d="M420.878,290.191l-59.854-18.506s-24.179-31.167-12.788-36.667,25.652,26.944,25.652,26.944l41.686,2.7Z" transform="translate(-158 -185.887)" fill="#a0616a"/>
      <path id="Path_28" data-name="Path 28" d="M672.494,257.787l53.212-33.068s15.493-36.276,3.081-38.711S710.8,218.573,710.8,218.573l-39.642,13.171Z" transform="translate(-158 -185.887)" fill="#a0616a"/>
      <path id="Path_29" data-name="Path 29" d="M682.453,220.4l1.014,39.191-89.688,16.025c13.192,28.224,9.841,60.347,43.047,74.426L524.9,404.787c4.987-43.038-15.818-75.456-35.263-115.759-23.685-8.586-51.2-2.291-80.336,10.346l-5.237-40.664,123.878-8.9,20.349,7.779,21.818-9.177C602.179,238.89,648.221,220.776,682.453,220.4Z" transform="translate(-158 -185.887)" fill="#6c63ff"/>
      <path id="Path_30" data-name="Path 30" d="M626.64,486.517c-2.72,2.367-5.252,21.85-5.35,28.92s9.212,8.9,14.3,9.249,4.478,3.456,7.837,6.049,14.4,2.179,28.89-2.712-9.753-20.926-11.864-21.662-11-22.782-11-22.782S629.36,484.15,626.64,486.517Z" transform="translate(-158 -185.887)" fill="#2f2e41"/>
      <path id="Path_31" data-name="Path 31" d="M547.368,531.007c3.231,1.6,10.617,19.806,12.5,26.621s-6.657,10.94-11.489,12.57-3.456,4.478-6.049,7.837-13.374,5.755-28.635,4.7,4.133-22.714,5.988-23.961,4.869-24.825,4.869-24.825S544.137,529.407,547.368,531.007Z" transform="translate(-158 -185.887)" fill="#2f2e41"/>
      <circle id="Ellipse_3" data-name="Ellipse 3" cx="23.996" cy="23.996" r="23.996" transform="translate(365.475 11.433)" fill="#a0616a"/>
      <path id="Path_32" data-name="Path 32" d="M519.734,218.909a22.826,22.826,0,0,1-.834-18.593c2.359-5.815,7.592-11.656,18.873-13.4,24.614-3.806,37.713,13.435,37.024,19.074s-3.993,19.271-3.993,19.271,1.476-12.906-4.859-13.362-30.9-2.378-37.122,4.145a14.233,14.233,0,0,0-3.711,13.83Z" transform="translate(-158 -185.887)" fill="#2f2e41"/>
    </g>
  </g>
</svg>
