<svg id="bootstrap" xmlns="http://www.w3.org/2000/svg" width="64.137" height="64.137" viewBox="0 0 64.137 64.137">
  <path id="Path_5199" data-name="Path 5199" d="M0,55.867a8.27,8.27,0,0,0,8.27,8.27h47.6a8.27,8.27,0,0,0,8.27-8.27V8.27A8.27,8.27,0,0,0,55.867,0H8.27A8.27,8.27,0,0,0,0,8.27v47.6Z" fill="#563d7c"/>
  <path id="Path_5200" data-name="Path 5200" d="M80.614,66.218V57.135h7.995a12.436,12.436,0,0,1,2.2.19,5.5,5.5,0,0,1,1.877.68,3.625,3.625,0,0,1,1.305,1.36,4.515,4.515,0,0,1,.49,2.23,4.108,4.108,0,0,1-1.469,3.535,6.138,6.138,0,0,1-3.753,1.088ZM72.075,50.5V89.333H90.893a19.854,19.854,0,0,0,5.085-.653,13.6,13.6,0,0,0,4.405-2.012,9.912,9.912,0,0,0,3.073-3.508,11.87,11.87,0,0,0-.625-11.313,9.334,9.334,0,0,0-5.357-3.617,9.679,9.679,0,0,0,3.943-3.209,8.507,8.507,0,0,0,1.332-4.895,10.416,10.416,0,0,0-.9-4.568,7.463,7.463,0,0,0-2.529-2.964,10.915,10.915,0,0,0-3.916-1.6,24.175,24.175,0,0,0-5.058-.49Zm8.539,32.2V72.037h9.3a7.2,7.2,0,0,1,4.46,1.278q1.686,1.278,1.686,4.269a5.337,5.337,0,0,1-.517,2.5,4.1,4.1,0,0,1-1.387,1.55,5.873,5.873,0,0,1-2.012.816,11.417,11.417,0,0,1-2.393.245Z" transform="translate(-54.018 -37.848)" fill="#fff"/>
</svg>
