<svg xmlns="http://www.w3.org/2000/svg" width="546.557" height="365.149" viewBox="0 0 546.557 365.149">
  <g id="brand" transform="translate(10 -793)">
    <g id="brand-2" data-name="brand" transform="translate(-0.138)">
      <path id="Path_3768" data-name="Path 3768" d="M6.608,0H539.949a6.812,6.812,0,0,1,6.608,7V336a6.812,6.812,0,0,1-6.608,7H6.608A6.812,6.812,0,0,1,0,336V7A6.812,6.812,0,0,1,6.608,0Z" transform="translate(-9.862 793)" fill="#dedede"/>
    </g>
    <g id="undraw_innovative_b409" transform="translate(72.922 832)">
      <g id="Rectangle_314" data-name="Rectangle 314" transform="translate(1.078)" fill="#fff" stroke="#707070" stroke-width="1">
        <rect width="378" height="206" stroke="none"/>
        <rect x="0.5" y="0.5" width="377" height="205" fill="none"/>
      </g>
      <circle id="Ellipse_217" data-name="Ellipse 217" cx="60.737" cy="60.737" r="60.737" transform="translate(124.744 66.878)" fill="#7c4dff"/>
      <path id="Path_3913" data-name="Path 3913" d="M472.165,342.512a61.2,61.2,0,1,1,61.2-61.2A61.273,61.273,0,0,1,472.165,342.512Zm0-121.473a60.269,60.269,0,1,0,60.27,60.269,60.269,60.269,0,0,0-60.27-60.269Z" transform="translate(-278.742 -164.438)" fill="#3f3d56"/>
      <rect id="Rectangle_310" data-name="Rectangle 310" width="83.163" height="8.41" transform="translate(12.615 16.352)" fill="#7c4dff" opacity="0.41"/>
      <rect id="Rectangle_311" data-name="Rectangle 311" width="83.163" height="8.41" transform="translate(137.358 16.352)" fill="#7c4dff" opacity="0.41"/>
      <rect id="Rectangle_312" data-name="Rectangle 312" width="83.163" height="8.41" transform="translate(262.102 16.352)" fill="#7c4dff" opacity="0.41"/>
      <path id="Path_3915" data-name="Path 3915" d="M249.058,135.3h-84.1v-9.344h84.1Zm-83.163-.934h82.228v-7.475H165.9Z" transform="translate(-147.674 -114.277)" fill="#3f3d56"/>
      <path id="Path_3916" data-name="Path 3916" d="M516.058,135.3h-84.1v-9.344h84.1Zm-83.162-.934h82.228v-7.475H432.9Z" transform="translate(-289.931 -114.277)" fill="#3f3d56"/>
      <path id="Path_3917" data-name="Path 3917" d="M783.058,135.3h-84.1v-9.344h84.1Zm-83.163-.934h82.228v-7.475H699.9Z" transform="translate(-432.187 -114.277)" fill="#3f3d56"/>
      <rect id="Rectangle_313" data-name="Rectangle 313" width="386.661" height="1.193" transform="translate(54.417 318.979)" fill="#2f2e41"/>
      <path id="Path_3918" data-name="Path 3918" d="M393.5,418.5l29.434-57,7.943,4.672-33.639,54.663Z" transform="translate(-209.655 -192.605)" fill="#3f3d56"/>
      <path id="Path_3919" data-name="Path 3919" d="M482.83,594.4s5.425,4.263,6.041-4.858a10.461,10.461,0,0,1,3.806-7.517,8.326,8.326,0,0,1,10.243-.707,8.821,8.821,0,0,1,4.428,8.655,13.3,13.3,0,0,1-6.65,10.4c-4.218,2.5-10.875,4.388-17.868-1.766C482.83,598.6,478.625,593.93,482.83,594.4Z" transform="translate(-316.038 -356.123)" fill="#7c4dff"/>
      <circle id="Ellipse_218" data-name="Ellipse 218" cx="11.337" cy="11.337" r="11.337" transform="translate(207.5 80.597)" fill="#ffb8b8"/>
      <path id="Path_3920" data-name="Path 3920" d="M583.586,305.782s2.984,15.514,1.79,18.5,16.708-1.193,16.708-1.193-3.58-15.514-2.984-19.094S583.586,305.782,583.586,305.782Z" transform="translate(-370.716 -208.477)" fill="#ffb8b8"/>
      <path id="Path_3921" data-name="Path 3921" d="M413.479,323.215l1.193,16.111,5.923,25.3,1.834,6.92,2.984-10.741-2.984-24.465-1.013-11.014Z" transform="translate(-220.299 -172.207)" fill="#ffb8b8"/>
      <path id="Path_3922" data-name="Path 3922" d="M663.974,419.063v16.708s-1.79,21.481-5.37,26.851-4.774-21.481-4.774-21.481l2.805-19.691Z" transform="translate(-408.141 -270.442)" fill="#ffb8b8"/>
      <path id="Path_3923" data-name="Path 3923" d="M560.138,527.881s-2.984,3.58-.6,39.979-1.193,62.653,6.564,62.653c0,0-2.387,7.757,4.177,8.354s9.547,1.193,10.144-.6,1.79-10.144,0-10.144c0,0,0,2.387,1.193-7.16s1.193-54.9,4.177-60.863l9.547,22.078s0,10.144,1.79,14.917,4.774,32.222,4.774,32.222l-.6,4.177s14.321,2.387,14.918,0,.6-5.967,0-7.16-.6-1.193.6-3.58a7.225,7.225,0,0,0,.6-5.967c-.6-1.79-.6-40.576-.6-40.576s-1.193-47.139-8.354-49.526S560.138,527.881,560.138,527.881Z" transform="translate(-357.412 -327.347)" fill="#2f2e41"/>
      <path id="Path_3924" data-name="Path 3924" d="M566,757.513l-4.774,8.354s-7.459-2.685-5.967,4.177a119.237,119.237,0,0,0,21.779-.3s2.984,1.193,3.58-.6-1.492-8.055-3.282-8.055S566,757.513,566,757.513Z" transform="translate(-355.521 -450.767)" fill="#2f2e41"/>
      <path id="Path_3925" data-name="Path 3925" d="M648.693,749.873s-4.774,10.741-2.983,11.337,17.9,2.983,19.094,3.58,7.16,1.193,7.757-2.387-2.984-4.774-2.984-4.774-6.564-1.193-8.354-7.16S648.693,749.873,648.693,749.873Z" transform="translate(-403.6 -445.514)" fill="#2f2e41"/>
      <path id="Path_3926" data-name="Path 3926" d="M582.183,340.921s-16.111-2.983-19.691,0-18.5,8.951-18.5,11.934,7.757,32.222,7.757,32.222-4.177,44.156,0,45.349,11.337-2.387,19.691,1.79,32.222-3.58,32.222-3.58-8.951-38.189-6.564-45.349,4.177-31.625,4.177-31.625S591.133,340.921,582.183,340.921Z" transform="translate(-349.621 -228.102)" fill="#ff4b70"/>
      <path id="Path_3927" data-name="Path 3927" d="M541.083,364.145l-4.177,1.193s-8.95,28.045-5.37,29.238a128.02,128.02,0,0,0,14.917,3.58C547.646,398.157,541.083,364.145,541.083,364.145Z" transform="translate(-342.533 -241.182)" fill="#ff4b70"/>
      <path id="Path_3928" data-name="Path 3928" d="M646.167,357.759l9.547,3.58s12.531,23.271,9.547,26.255-16.111,5.967-16.111,5.967Z" transform="translate(-404.058 -237.78)" fill="#ff4b70"/>
      <path id="Path_3929" data-name="Path 3929" d="M580.89,267.643a6.408,6.408,0,0,0-2.836.125,7.4,7.4,0,0,0-2.016,1.322,23.589,23.589,0,0,1-3.446,2.283,8.041,8.041,0,0,0-2.681,1.88,5.7,5.7,0,0,0-.757,1.432,17.165,17.165,0,0,0-.9,9.342,4.293,4.293,0,0,0,.4,1.283c.62,1.143,1.99,1.593,3.144,2.192,2.191,1.137,3.851,3.052,5.648,4.744a11.042,11.042,0,0,0,2.232,1.72c2.563,1.4,5.7.942,8.574.447a1.545,1.545,0,0,0,1.542-1.56l2.271-10.216a16.67,16.67,0,0,0,.582-4.646,13.222,13.222,0,0,0-3.321-7.677C587.2,268.263,583.662,267.936,580.89,267.643Z" transform="translate(-362.397 -189.712)" fill="#2f2e41"/>
      <ellipse id="Ellipse_219" data-name="Ellipse 219" cx="16.352" cy="0.934" rx="16.352" ry="0.934" transform="translate(155.579 317.232)" fill="#7c4dff"/>
      <ellipse id="Ellipse_220" data-name="Ellipse 220" cx="16.352" cy="0.934" rx="16.352" ry="0.934" transform="translate(151.842 319.101)" fill="#7c4dff"/>
      <ellipse id="Ellipse_221" data-name="Ellipse 221" cx="8.877" cy="0.507" rx="8.877" ry="0.507" transform="translate(142.965 313.922)" fill="#7c4dff"/>
      <ellipse id="Ellipse_222" data-name="Ellipse 222" cx="8.877" cy="0.507" rx="8.877" ry="0.507" transform="translate(174.735 325.135)" fill="#7c4dff"/>
    </g>
  </g>
</svg>
