<svg id="coding" xmlns="http://www.w3.org/2000/svg" width="67" height="64" viewBox="0 0 67 64">
  <path id="Path_8" data-name="Path 8" d="M0,0V64H67V0ZM63.074,4.571V18.286H3.926V4.571ZM3.926,59.429V22.857H63.074V59.429Z" fill="#f65e5b"/>
  <path id="Path_9" data-name="Path 9" d="M11.367,11.367h5.684v5.684H11.367Z" transform="translate(0.585 0)" fill="#f65e5b"/>
  <path id="Path_10" data-name="Path 10" d="M22.734,11.367h5.684v5.684H22.734Z" transform="translate(-7.469 0)" fill="#f65e5b"/>
  <path id="Path_11" data-name="Path 11" d="M34.1,11.367h5.684v5.684H34.1Z" transform="translate(-11.203 0)" fill="#f65e5b"/>
  <path id="Path_12" data-name="Path 12" d="M28.012,37.185,13.946,51.252,28.012,65.318,32.031,61.3,21.984,51.252,32.031,41.2Z" transform="translate(0.911 -10.425)" fill="#f65e5b"/>
  <path id="Path_13" data-name="Path 13" d="M64.956,41.2,75,51.252,64.956,61.3l4.019,4.019L83.041,51.252,68.974,37.185Z" transform="translate(-30.912 -10.425)" fill="#f65e5b"/>
  <path id="Path_14" data-name="Path 14" d="M0,0H26.071V5.685H0Z" transform="matrix(0.514, -0.858, 0.858, 0.514, 24.366, 49.465)" fill="#f65e5b"/>
</svg>
