<svg id="idea" xmlns="http://www.w3.org/2000/svg" xmlns:xlink="http://www.w3.org/1999/xlink" width="54.685" height="54.685" viewBox="0 0 54.685 54.685">
  <defs>
    <linearGradient id="linear-gradient" x1="0.5" x2="0.5" y2="1" gradientUnits="objectBoundingBox">
      <stop offset="0" stop-color="#ff4b70"/>
      <stop offset="1" stop-color="#7c4dff"/>
    </linearGradient>
  </defs>
  <g id="Group_207" data-name="Group 207" transform="translate(11.393 11.393)">
    <path id="Path_4284" data-name="Path 4284" d="M24.368,48.292H17.532c-1.595,0-3.418-1.367-3.418-4.1V39.406a7.912,7.912,0,0,0-2.962-5.924A15.75,15.75,0,0,1,5,20.722,16.216,16.216,0,0,1,20.722,5,16.014,16.014,0,0,1,32.115,9.557,16.221,16.221,0,0,1,36.9,20.95a15.324,15.324,0,0,1-5.924,12.3,8.319,8.319,0,0,0-3.19,6.38v5.241a3.5,3.5,0,0,1-3.418,3.418ZM20.95,7.279A13.975,13.975,0,0,0,7.279,20.722a13.393,13.393,0,0,0,5.241,10.937,9.93,9.93,0,0,1,3.874,7.747v4.785c0,.456,0,1.823,1.139,1.823h6.836a1.076,1.076,0,0,0,1.139-1.139V39.634a11.073,11.073,0,0,1,4.1-8.2A13.286,13.286,0,0,0,34.621,20.95a13.62,13.62,0,0,0-4.1-9.8,13.431,13.431,0,0,0-9.57-3.874Z" transform="translate(-5 -5)" fill="url(#linear-gradient)"/>
  </g>
  <g id="Group_208" data-name="Group 208" transform="translate(20.507 45.571)">
    <path id="Path_4285" data-name="Path 4285" d="M21.532,22.279H10.139a1.139,1.139,0,0,1,0-2.279H21.532a1.139,1.139,0,1,1,0,2.279Z" transform="translate(-9 -20)" fill="url(#linear-gradient)"/>
  </g>
  <g id="Group_209" data-name="Group 209" transform="translate(26.203)">
    <path id="Path_4286" data-name="Path 4286" d="M12.639,6.836A1.076,1.076,0,0,1,11.5,5.7V1.139A1.076,1.076,0,0,1,12.639,0a1.076,1.076,0,0,1,1.139,1.139V5.7A1.076,1.076,0,0,1,12.639,6.836Z" transform="translate(-11.5)" fill="url(#linear-gradient)"/>
  </g>
  <g id="Group_210" data-name="Group 210" transform="translate(41.356 7.861)">
    <path id="Path_4287" data-name="Path 4287" d="M19.4,8.8a1.37,1.37,0,0,1-.911-.228,1.1,1.1,0,0,1,0-1.595l3.19-3.19a1.128,1.128,0,1,1,1.595,1.595l-3.19,3.19A2.3,2.3,0,0,1,19.4,8.8Z" transform="translate(-18.15 -3.45)" fill="url(#linear-gradient)"/>
  </g>
  <g id="Group_211" data-name="Group 211" transform="translate(47.849 26.203)">
    <path id="Path_4288" data-name="Path 4288" d="M26.7,13.779H22.139A1.076,1.076,0,0,1,21,12.639,1.076,1.076,0,0,1,22.139,11.5H26.7a1.076,1.076,0,0,1,1.139,1.139A1.076,1.076,0,0,1,26.7,13.779Z" transform="translate(-21 -11.5)" fill="url(#linear-gradient)"/>
  </g>
  <g id="Group_212" data-name="Group 212" transform="translate(41.356 41.583)">
    <path id="Path_4289" data-name="Path 4289" d="M22.593,23.6a1.37,1.37,0,0,1-.911-.228l-3.19-3.19a1.128,1.128,0,1,1,1.595-1.595l3.19,3.19a1.1,1.1,0,0,1,0,1.595c0,.228-.228.228-.684.228Z" transform="translate(-18.15 -18.25)" fill="url(#linear-gradient)"/>
  </g>
  <g id="Group_213" data-name="Group 213" transform="translate(7.633 41.583)">
    <path id="Path_4290" data-name="Path 4290" d="M4.6,23.6a1.37,1.37,0,0,1-.911-.228,1.1,1.1,0,0,1,0-1.595l3.19-3.19a1.128,1.128,0,1,1,1.595,1.595l-3.19,3.19A.837.837,0,0,1,4.6,23.6Z" transform="translate(-3.35 -18.25)" fill="url(#linear-gradient)"/>
  </g>
  <g id="Group_214" data-name="Group 214" transform="translate(0 26.203)">
    <path id="Path_4291" data-name="Path 4291" d="M5.7,13.779H1.139A1.076,1.076,0,0,1,0,12.639,1.076,1.076,0,0,1,1.139,11.5H5.7a1.076,1.076,0,0,1,1.139,1.139A1.076,1.076,0,0,1,5.7,13.779Z" transform="translate(0 -11.5)" fill="url(#linear-gradient)"/>
  </g>
  <g id="Group_215" data-name="Group 215" transform="translate(7.633 7.633)">
    <path id="Path_4292" data-name="Path 4292" d="M7.793,8.932A1.37,1.37,0,0,1,6.882,8.7L3.692,5.287A1.128,1.128,0,0,1,5.287,3.692l3.19,3.19a1.1,1.1,0,0,1,0,1.595c-.228.228-.456.456-.684.456Z" transform="translate(-3.35 -3.35)" fill="url(#linear-gradient)"/>
  </g>
  <g id="Group_216" data-name="Group 216" transform="translate(26.203 17.089)">
    <path id="Path_4293" data-name="Path 4293" d="M21.753,18.893a1.076,1.076,0,0,1-1.139-1.139,8.073,8.073,0,0,0-7.975-7.975A1.076,1.076,0,0,1,11.5,8.639,1.076,1.076,0,0,1,12.639,7.5,10.211,10.211,0,0,1,22.893,17.753,1.076,1.076,0,0,1,21.753,18.893Z" transform="translate(-11.5 -7.5)" fill="url(#linear-gradient)"/>
  </g>
</svg>
