<svg xmlns="http://www.w3.org/2000/svg" xmlns:xlink="http://www.w3.org/1999/xlink" viewBox="0 0 356.07 355.99"><defs><style>.cls-1{mask:url(#mask);filter:url(#luminosity-noclip-2);}.cls-2{mix-blend-mode:multiply;fill:url(#linear-gradient);}.cls-3{isolation:isolate;}.cls-4{fill:url(#linear-gradient-2);}.cls-5{fill:url(#linear-gradient-3);}.cls-6{fill:#bdd0fb;}.cls-7{fill:url(#linear-gradient-4);}.cls-8{fill:#91b3fa;}.cls-9{fill:#7d97f4;}.cls-10{fill:url(#linear-gradient-5);}.cls-11{mask:url(#mask-2);}.cls-12{opacity:0.53;fill:url(#linear-gradient-6);}.cls-13{fill:url(#linear-gradient-7);}.cls-14{fill:url(#linear-gradient-8);}.cls-15{fill:url(#linear-gradient-9);}.cls-16{fill:url(#linear-gradient-10);}.cls-17{fill:url(#linear-gradient-11);}.cls-18,.cls-22,.cls-40{fill:#fff;}.cls-18{opacity:0.78;}.cls-19{fill:url(#linear-gradient-12);}.cls-20{fill:url(#linear-gradient-13);}.cls-21{fill:url(#linear-gradient-14);}.cls-22{mix-blend-mode:soft-light;}.cls-23{fill:url(#linear-gradient-15);}.cls-24{fill:url(#linear-gradient-16);}.cls-25{fill:url(#linear-gradient-17);}.cls-26{fill:url(#linear-gradient-18);}.cls-27{fill:url(#linear-gradient-19);}.cls-28{fill:url(#linear-gradient-20);}.cls-29{fill:url(#linear-gradient-21);}.cls-30{fill:url(#linear-gradient-22);}.cls-31{fill:url(#linear-gradient-23);}.cls-32{fill:url(#linear-gradient-24);}.cls-33{fill:url(#linear-gradient-25);}.cls-34{fill:url(#linear-gradient-26);}.cls-35{fill:url(#linear-gradient-27);}.cls-36{fill:url(#linear-gradient-28);}.cls-37{fill:url(#linear-gradient-29);}.cls-38{fill:url(#linear-gradient-30);}.cls-39{fill:url(#linear-gradient-31);}.cls-41{fill:url(#linear-gradient-32);}.cls-42{fill:url(#linear-gradient-33);}.cls-43{fill:url(#linear-gradient-34);}.cls-44{fill:url(#linear-gradient-35);}.cls-45{fill:url(#linear-gradient-36);}.cls-46{fill:url(#linear-gradient-37);}.cls-47{fill:url(#linear-gradient-38);}.cls-48{fill:url(#linear-gradient-39);}.cls-49{fill:url(#linear-gradient-40);}.cls-50{fill:url(#linear-gradient-41);}.cls-51{fill:url(#linear-gradient-42);}.cls-52{fill:url(#linear-gradient-43);}.cls-53{fill:url(#linear-gradient-44);}.cls-54{fill:url(#linear-gradient-45);}.cls-55{fill:#e59545;}.cls-56{fill:url(#linear-gradient-46);}.cls-57{fill:url(#linear-gradient-47);}.cls-58{fill:url(#linear-gradient-48);}.cls-59{fill:url(#linear-gradient-49);}.cls-60{fill:url(#linear-gradient-50);}.cls-61{fill:url(#linear-gradient-51);}.cls-62{fill:url(#linear-gradient-52);}.cls-63{fill:url(#linear-gradient-53);}.cls-64{filter:url(#luminosity-noclip);}</style><filter id="luminosity-noclip" x="5.37" y="-9414.01" width="228.48" height="32766" filterUnits="userSpaceOnUse" color-interpolation-filters="sRGB"><feFlood flood-color="#fff" result="bg"/><feBlend in="SourceGraphic" in2="bg"/></filter><mask id="mask" x="5.37" y="-9414.01" width="228.48" height="32766" maskUnits="userSpaceOnUse"><g class="cls-64"/></mask><linearGradient id="linear-gradient" x1="205.51" y1="84.17" x2="-87.03" y2="458.53" gradientUnits="userSpaceOnUse"><stop offset="0" stop-color="#fff"/><stop offset="1"/></linearGradient><linearGradient id="linear-gradient-2" x1="377.26" y1="393.21" x2="137.36" y2="137.83" gradientUnits="userSpaceOnUse"><stop offset="0" stop-color="#dae3fe"/><stop offset="1" stop-color="#e9effd"/></linearGradient><linearGradient id="linear-gradient-3" x1="251.14" y1="219.02" x2="328.13" y2="219.02" gradientUnits="userSpaceOnUse"><stop offset="0" stop-color="#4f52ff"/><stop offset="1" stop-color="#4042e2"/></linearGradient><linearGradient id="linear-gradient-4" x1="258.77" y1="272.9" x2="304.15" y2="272.9" xlink:href="#linear-gradient-2"/><linearGradient id="linear-gradient-5" x1="261.77" y1="101.79" x2="152.01" y2="-126.37" gradientUnits="userSpaceOnUse"><stop offset="0" stop-color="#4042e2"/><stop offset="1" stop-color="#4f52ff"/></linearGradient><filter id="luminosity-noclip-2" x="5.37" y="25.91" width="228.48" height="308.89" filterUnits="userSpaceOnUse" color-interpolation-filters="sRGB"><feFlood flood-color="#fff" result="bg"/><feBlend in="SourceGraphic" in2="bg"/></filter><mask id="mask-2" x="5.37" y="25.91" width="228.48" height="308.89" maskUnits="userSpaceOnUse"><g class="cls-1"><path class="cls-2" d="M35,33.22l190-7.31c-7.84,58-4.53,176.14-1.54,292.56a18.27,18.27,0,0,0,10.46,16.06h0S107.14,336,52.7,332.13a27.45,27.45,0,0,1-25.19-23.32C20,258.93,2.16,130.08,5.88,61.86A30.29,30.29,0,0,1,35,33.22Z"/></g></mask><linearGradient id="linear-gradient-6" x1="205.51" y1="84.17" x2="-87.03" y2="458.53" gradientUnits="userSpaceOnUse"><stop offset="0" stop-color="#fff"/><stop offset="1" stop-color="#fff"/></linearGradient><linearGradient id="linear-gradient-7" x1="32.3" y1="132.66" x2="62.67" y2="132.66" xlink:href="#linear-gradient-2"/><linearGradient id="linear-gradient-8" x1="71.68" y1="119.46" x2="200.37" y2="119.46" xlink:href="#linear-gradient-2"/><linearGradient id="linear-gradient-9" x1="73.79" y1="140.12" x2="160.17" y2="140.12" xlink:href="#linear-gradient-2"/><linearGradient id="linear-gradient-10" x1="32.3" y1="191.72" x2="62.67" y2="191.72" xlink:href="#linear-gradient-2"/><linearGradient id="linear-gradient-11" x1="71.68" y1="178.52" x2="200.37" y2="178.52" xlink:href="#linear-gradient-2"/><linearGradient id="linear-gradient-12" x1="32.3" y1="250.78" x2="62.67" y2="250.78" xlink:href="#linear-gradient-2"/><linearGradient id="linear-gradient-13" x1="71.68" y1="237.58" x2="200.37" y2="237.58" xlink:href="#linear-gradient-2"/><linearGradient id="linear-gradient-14" x1="73.79" y1="258.24" x2="160.17" y2="258.24" xlink:href="#linear-gradient-2"/><linearGradient id="linear-gradient-15" x1="175.67" y1="238.05" x2="135.23" y2="341.57" gradientUnits="userSpaceOnUse"><stop offset="0" stop-color="#09005d"/><stop offset="1" stop-color="#1a0f91"/></linearGradient><linearGradient id="linear-gradient-16" x1="-2132.02" y1="-9709.15" x2="-2124.68" y2="-9709.15" gradientTransform="translate(-3816.03 -8907.8) rotate(168.9)" gradientUnits="userSpaceOnUse"><stop offset="0" stop-color="#febbba"/><stop offset="1" stop-color="#ff928e"/></linearGradient><linearGradient id="linear-gradient-17" x1="-1150.08" y1="201.92" x2="-1116.65" y2="201.92" gradientTransform="translate(1290.1)" xlink:href="#linear-gradient-16"/><linearGradient id="linear-gradient-18" x1="239.2" y1="89.74" x2="218.83" y2="129.88" xlink:href="#linear-gradient-15"/><linearGradient id="linear-gradient-19" x1="271.71" y1="106.22" x2="251.35" y2="146.37" xlink:href="#linear-gradient-15"/><linearGradient id="linear-gradient-20" x1="-1075.29" y1="168.49" x2="-1080.65" y2="152.41" gradientTransform="translate(1290.1)" xlink:href="#linear-gradient-16"/><linearGradient id="linear-gradient-21" x1="202.29" y1="148.76" x2="221.56" y2="157.14" gradientTransform="matrix(1, 0, 0, 1, 0, 0)" xlink:href="#linear-gradient-16"/><linearGradient id="linear-gradient-22" x1="5839.9" y1="5499.51" x2="5862.92" y2="5499.51" gradientTransform="matrix(-0.69, -0.73, -0.73, 0.69, 8223.09, 642.97)" xlink:href="#linear-gradient-15"/><linearGradient id="linear-gradient-23" x1="201.09" y1="151.52" x2="220.36" y2="159.9" gradientTransform="matrix(1, 0, 0, 1, 0, 0)" xlink:href="#linear-gradient-16"/><linearGradient id="linear-gradient-24" x1="3205.52" y1="354.83" x2="3229.46" y2="354.83" gradientTransform="matrix(-1, 0, 0, 1, 3444.39, 0)" xlink:href="#linear-gradient-5"/><linearGradient id="linear-gradient-25" x1="296.66" y1="332.54" x2="209.97" y2="357.25" xlink:href="#linear-gradient-15"/><linearGradient id="linear-gradient-26" x1="3207.73" y1="343.6" x2="3214.47" y2="343.6" gradientTransform="matrix(-1, 0, 0, 1, 3444.39, 0)" xlink:href="#linear-gradient-16"/><linearGradient id="linear-gradient-27" x1="3157.79" y1="354.31" x2="3166.96" y2="354.31" gradientTransform="matrix(-1, 0, 0, 1, 3444.39, 0)" xlink:href="#linear-gradient-5"/><linearGradient id="linear-gradient-28" x1="248.33" y1="327.46" x2="302.36" y2="362.64" xlink:href="#linear-gradient-15"/><linearGradient id="linear-gradient-29" x1="3164.86" y1="337.96" x2="3172.92" y2="337.96" gradientTransform="matrix(-1, 0, 0, 1, 3444.39, 0)" xlink:href="#linear-gradient-16"/><linearGradient id="linear-gradient-30" x1="830.72" y1="349.8" x2="953.7" y2="179.77" gradientTransform="matrix(-1, 0, 0, 1, 1111.39, 0)" xlink:href="#linear-gradient-15"/><linearGradient id="linear-gradient-31" x1="-1929.57" y1="786.85" x2="-1930.32" y2="717.79" gradientTransform="translate(2065.08 -697.87) rotate(-7.3)" gradientUnits="userSpaceOnUse"><stop offset="0" stop-color="#ff928e"/><stop offset="1" stop-color="#ff4b70"/></linearGradient><linearGradient id="linear-gradient-32" x1="-1941.72" y1="703.56" x2="-1942.05" y2="695.5" gradientTransform="translate(2065.08 -697.87) rotate(-7.3)" gradientUnits="userSpaceOnUse"><stop offset="0" stop-color="#e1473d"/><stop offset="1" stop-color="#d4145a"/></linearGradient><linearGradient id="linear-gradient-33" x1="-1942.14" y1="691.46" x2="-1940.48" y2="714.56" xlink:href="#linear-gradient-32"/><linearGradient id="linear-gradient-34" x1="-1919.27" y1="702.64" x2="-1919.6" y2="694.58" xlink:href="#linear-gradient-32"/><linearGradient id="linear-gradient-35" x1="-1919.75" y1="689.85" x2="-1918.09" y2="712.95" xlink:href="#linear-gradient-32"/><linearGradient id="linear-gradient-36" x1="-1928.97" y1="678.61" x2="-1931.21" y2="695.05" xlink:href="#linear-gradient-32"/><linearGradient id="linear-gradient-37" x1="228.35" y1="231.77" x2="220.75" y2="188.61" gradientTransform="matrix(1, 0, 0, 1, 0, 0)" xlink:href="#linear-gradient-16"/><linearGradient id="linear-gradient-38" x1="-1928.3" y1="691.42" x2="-1936.52" y2="768.19" gradientTransform="translate(2065.08 -697.87) rotate(-7.3)" gradientUnits="userSpaceOnUse"><stop offset="0" stop-color="#ff928e"/><stop offset="0.45" stop-color="#ff4b70"/></linearGradient><linearGradient id="linear-gradient-39" x1="-1927.7" y1="700.89" x2="-1930.94" y2="726.56" gradientTransform="translate(2065.08 -697.87) rotate(-7.3)" gradientUnits="userSpaceOnUse"><stop offset="0" stop-color="#e1473d"/><stop offset="1" stop-color="#e9605a"/></linearGradient><linearGradient id="linear-gradient-40" x1="-1934.64" y1="721.03" x2="-1925.22" y2="721.03" gradientTransform="translate(2065.08 -697.87) rotate(-7.3)" gradientUnits="userSpaceOnUse"><stop offset="0" stop-color="#ff928e"/><stop offset="1" stop-color="#fe7062"/></linearGradient><linearGradient id="linear-gradient-41" x1="247.85" y1="215.2" x2="229.6" y2="250.29" gradientTransform="matrix(1, 0, 0, 1, 0, 0)" xlink:href="#linear-gradient-16"/><linearGradient id="linear-gradient-42" x1="284.6" y1="112.76" x2="264.24" y2="152.91" xlink:href="#linear-gradient-15"/><linearGradient id="linear-gradient-43" x1="291.12" y1="133.26" x2="175.52" y2="264" xlink:href="#linear-gradient-5"/><linearGradient id="linear-gradient-44" x1="-1213.39" y1="348.53" x2="-1197.69" y2="348.53" gradientTransform="translate(1290.1)" xlink:href="#linear-gradient-15"/><linearGradient id="linear-gradient-45" x1="-1174.07" y1="330" x2="-1231.21" y2="374.87" gradientTransform="translate(1290.1)" xlink:href="#linear-gradient-5"/><linearGradient id="linear-gradient-46" x1="-1163.92" y1="343.08" x2="-1221.06" y2="387.94" gradientTransform="translate(1290.1)" xlink:href="#linear-gradient-5"/><linearGradient id="linear-gradient-47" x1="-1189.48" y1="348.93" x2="-1166.87" y2="348.93" gradientTransform="translate(1290.1)" xlink:href="#linear-gradient-15"/><linearGradient id="linear-gradient-48" x1="69.64" y1="288.12" x2="108.88" y2="288.12" gradientUnits="userSpaceOnUse"><stop offset="0" stop-color="#93278f"/><stop offset="0.31" stop-color="#8a288f"/><stop offset="0.82" stop-color="#702c91"/><stop offset="1" stop-color="#662d91"/></linearGradient><linearGradient id="linear-gradient-49" x1="-332.92" y1="-311.14" x2="-427.84" y2="-214.79" gradientTransform="translate(769.47 64.45) rotate(-7.69)" gradientUnits="userSpaceOnUse"><stop offset="0" stop-color="#ff4b70"/><stop offset="1" stop-color="#ff4b70"/></linearGradient><linearGradient id="linear-gradient-50" x1="86.98" y1="131.2" x2="104.21" y2="151.38" xlink:href="#linear-gradient-15"/><linearGradient id="linear-gradient-51" x1="214.71" y1="80.74" x2="119.78" y2="177.1" gradientTransform="matrix(1, 0, 0, 1, 0, 0)" xlink:href="#linear-gradient-31"/><linearGradient id="linear-gradient-52" x1="130.81" y1="114.53" x2="15.97" y2="331.32" gradientTransform="matrix(1, 0, 0, 1, 0, 0)" xlink:href="#linear-gradient-39"/><linearGradient id="linear-gradient-53" x1="131.21" y1="114.74" x2="16.37" y2="331.53" gradientTransform="matrix(1, 0, 0, 1, 0, 0)" xlink:href="#linear-gradient-39"/></defs><g class="cls-3"><g id="Layer_2" data-name="Layer 2"><g id="Illustration"><path class="cls-4" d="M305.23,290.75a130.07,130.07,0,0,1-22.84,18.55c-59.18,39.51-126.81,28.12-147.73,24.23-33.74-6.28-62.22-10.71-86.69-32.82-55.6-50.24-52.9-155-10.41-219.95,5-7.7,47.46-70.58,115.25-79.44,1.66-.22,2.89-.34,4-.46,10.48-1.11,75.46-7,128.45,37.43a157.81,157.81,0,0,1,31.11,35.29C357.74,137.5,357.87,236.5,305.23,290.75Z"/><path class="cls-5" d="M273.15,123.15l30.18-7s20.18-1.82,22.91,16.12,1.94,124.2,1.08,146.11a140.12,140.12,0,0,0,.35,19.51A20.88,20.88,0,0,1,307.32,321l-56.18,1Z"/><path class="cls-6" d="M257.09,330.81s6-84.55,48.91-136.08a1,1,0,0,1,1.83.32C312.5,208.11,338.77,292.06,257.09,330.81Z"/><path class="cls-7" d="M304.15,219.26c-.36,4.94-1.07,9.8-1.9,14.66s-1.86,9.68-3,14.46a219.74,219.74,0,0,1-8.95,28.19c-1.83,4.59-3.77,9.13-5.94,13.57-1.06,2.24-2.23,4.41-3.36,6.61s-2.36,4.34-3.66,6.44a137,137,0,0,1-17.61,23.74.53.53,0,0,1-.81-.68h0a185.62,185.62,0,0,0,16-24.42c1.2-2.12,2.28-4.3,3.42-6.45s2.18-4.35,3.17-6.57c.5-1.11,1-2.2,1.52-3.32l1.47-3.34c.48-1.12.93-2.25,1.4-3.37s.92-2.25,1.35-3.39c.91-2.26,1.75-4.54,2.6-6.82s1.63-4.6,2.38-6.91c1.57-4.61,3-9.29,4.3-14s2.54-9.42,3.63-14.18,2.11-9.54,3-14.34v0a.53.53,0,0,1,.62-.43A.52.52,0,0,1,304.15,219.26Z"/><path class="cls-8" d="M262.41,321.55s44.2-74.36,92.3-75.52a1.33,1.33,0,0,1,1.33,1.59C354,257.34,339.67,308.23,262.41,321.55Z"/><path class="cls-6" d="M344.53,257.82c-2.92,3.06-5.92,6-9,8.92-1.54,1.44-3.07,2.88-4.63,4.3s-3.11,2.83-4.69,4.22q-9.47,8.37-19.5,16.06c-3.31,2.6-6.75,5-10.14,7.54l-5.18,3.61c-.86.6-1.72,1.21-2.6,1.79L286.19,306c-7,4.7-14.3,8.92-21.65,13a.52.52,0,0,1-.72-.2.53.53,0,0,1,.19-.72h0l5.42-3.18,2.72-1.59,2.66-1.67,5.33-3.34c1.76-1.14,3.5-2.32,5.24-3.48l2.62-1.74,2.58-1.81,5.15-3.61c3.36-2.5,6.77-4.94,10.07-7.54s6.6-5.18,9.86-7.81l4.84-4,4.78-4.09c1.59-1.37,3.15-2.77,4.72-4.16s3.11-2.81,4.66-4.23c3.08-2.84,6.14-5.73,9.08-8.7h0a.53.53,0,0,1,.75,0A.53.53,0,0,1,344.53,257.82Z"/><path class="cls-9" d="M211.79,124.81s55,3,91.54-8.49c0,0-24.32-1.66-24.32,54.49,0,42.93,6.37,124.87.81,140.42s-26.35,36.46-56.14,18.49S211.79,124.81,211.79,124.81Z"/><path class="cls-10" d="M197.18,40.63s60.63,6.61,68.45-3.67c0,0-6.22-18.5-24.67-17.27S197.18,40.63,197.18,40.63Z"/><path class="cls-8" d="M.13,61.44c5.29,59.42,16.4,185.11,21.23,246.33A27.53,27.53,0,0,0,47,333.08c48.67,3.12,158.21,9.18,200.25,3.54h0a28,28,0,0,1-15.61-25.32l2.24-274.72a14.15,14.15,0,0,1,19.49-13q8.11,3.38,12.38,13.41c-4-11.57-10.21-20-24.66-17.27,0,0-141.39,1.42-210,5.67A33.2,33.2,0,0,0,.13,61.44Z"/><g class="cls-11"><path class="cls-12" d="M35,33.22l190-7.31c-7.84,58-4.53,176.14-1.54,292.56a18.27,18.27,0,0,0,10.46,16.06h0S107.14,336,52.7,332.13a27.45,27.45,0,0,1-25.19-23.32C20,258.93,2.16,130.08,5.88,61.86A30.29,30.29,0,0,1,35,33.22Z"/></g><path class="cls-13" d="M32.35,123.2l2.21,21.28a7.89,7.89,0,0,0,7.54,7.06l12.39.48a7.88,7.88,0,0,0,8.18-7.88v-23a7.88,7.88,0,0,0-8.52-7.85l-14.61,1.2A7.88,7.88,0,0,0,32.35,123.2Z"/><path class="cls-14" d="M76,116.64c20.62-.64,99.78-3.21,119.77-3.86a4.46,4.46,0,0,1,4.6,4.46h0a4.46,4.46,0,0,1-4.29,4.46L76.39,126.15a4.48,4.48,0,0,1-4.6-3.89l-.07-.58A4.46,4.46,0,0,1,76,116.64Z"/><path class="cls-15" d="M74.46,144.7h0a1.9,1.9,0,0,0,1.67.92l82.19-1.78a1.9,1.9,0,0,0,1.85-1.9v-5.42a1.89,1.89,0,0,0-2-1.9l-79.9,3A4.69,4.69,0,0,0,74.46,144.7Z"/><path class="cls-16" d="M32.35,182.26l2.21,21.28a7.89,7.89,0,0,0,7.54,7.06l12.39.48a7.88,7.88,0,0,0,8.18-7.88v-23a7.88,7.88,0,0,0-8.52-7.85l-14.61,1.2A7.87,7.87,0,0,0,32.35,182.26Z"/><path class="cls-17" d="M76,175.7c20.62-.64,99.78-3.21,119.77-3.86a4.46,4.46,0,0,1,4.6,4.46h0a4.46,4.46,0,0,1-4.29,4.46L76.39,185.2a4.46,4.46,0,0,1-4.6-3.88l-.07-.58A4.46,4.46,0,0,1,76,175.7Z"/><path class="cls-18" d="M74.46,203.76h0a1.9,1.9,0,0,0,1.67.92l82.19-1.78a1.9,1.9,0,0,0,1.85-1.9v-5.42a1.89,1.89,0,0,0-2-1.9l-79.9,3A4.69,4.69,0,0,0,74.46,203.76Z"/><path class="cls-19" d="M32.35,241.32l2.21,21.28a7.89,7.89,0,0,0,7.54,7.06l12.39.48a7.88,7.88,0,0,0,8.18-7.88v-23a7.88,7.88,0,0,0-8.52-7.85l-14.61,1.2A7.87,7.87,0,0,0,32.35,241.32Z"/><path class="cls-20" d="M76,234.76c20.62-.64,99.78-3.21,119.77-3.86a4.45,4.45,0,0,1,4.6,4.46h0a4.46,4.46,0,0,1-4.29,4.46L76.39,244.26a4.47,4.47,0,0,1-4.6-3.88l-.07-.58A4.46,4.46,0,0,1,76,234.76Z"/><path class="cls-21" d="M74.46,262.81h0a1.89,1.89,0,0,0,1.67.93L158.32,262a1.9,1.9,0,0,0,1.85-1.9v-5.42a1.89,1.89,0,0,0-2-1.9l-79.9,3A4.68,4.68,0,0,0,74.46,262.81Z"/><path class="cls-22" d="M271.87,247.5a.92.92,0,0,1-.92-.91s-.06-2.94-.34-12.93a.93.93,0,1,1,1.85,0c.28,10,.34,12.92.34,12.95a.93.93,0,0,1-.91.94Z"/><path class="cls-22" d="M271.2,223.18a.92.92,0,0,1-.92-.9c-.2-6.5-.51-13.69-.84-21.29-.44-10.28-.9-20.91-1.15-31.15-.63-27,3.82-37.4,7.68-41.34,2.09-2.15,3.84-2.21,4-2.21a.93.93,0,0,1,0,1.85c-.21,0-10.83,1.18-9.88,41.65.25,10.23.7,20.85,1.15,31.12.33,7.61.64,14.8.83,21.31a.93.93,0,0,1-.89,1Z"/><path class="cls-23" d="M137.17,322.84a4.29,4.29,0,0,1-2.87-1.35c-3.64-3.35-4.58-8.49-4.84-13.39-1.68,1.89-3.4,3.72-5.1,5.53l-.94-.88c2-2.13,4-4.29,6-6.51a144,144,0,0,1,.91-20.13,41.88,41.88,0,0,1,2.93-12.35,10,10,0,0,1,3.11-4.19,4.87,4.87,0,0,1,5.36-.31c1.66,1.12,2.1,3.23,2.3,4.72,1.12,8.76-2.3,16.79-5.36,22a74,74,0,0,1-8,10.74c.15,5,.84,10.49,4.48,13.83a3,3,0,0,0,2,1c1,0,1.85-1,2.53-2a54.86,54.86,0,0,0,7.13-14.23,14.86,14.86,0,0,1,1.27-4.41l1.21.43c-.35,1.44-.76,2.87-1.22,4.27a13.86,13.86,0,0,0,.17,4.31c.15.75.79,3.24,2.62,3.59,1.37.25,2.8-.78,4.37-3.18l6.46-9.82L161,304c-.29,1.24-.77,4.2,1,4.92,1,.4,2-.18,3.23-.86A6.23,6.23,0,0,1,169,306.9l.67.09-.12.66c-.06.38-.58,3.7,1.14,4.08.79.18,1.45-.37,2.44-1.29a6.4,6.4,0,0,1,2.66-1.73l.3,1.26a5.13,5.13,0,0,0-2.08,1.42c-1,.9-2.09,1.93-3.6,1.6-2-.43-2.44-2.65-2.23-4.8a7.18,7.18,0,0,0-2.39,1c-1.31.74-2.8,1.57-4.36.93-1.29-.53-2-1.81-2.05-3.65l-3,4.55c-1.21,1.84-3.11,4.23-5.69,3.73-1.77-.33-3.14-2.06-3.65-4.6-.07-.35-.12-.71-.17-1.07a56.12,56.12,0,0,1-6.06,11.19c-.81,1.15-1.94,2.49-3.54,2.55Zm2.25-53a4.25,4.25,0,0,0-2.33.75,8.81,8.81,0,0,0-2.67,3.66,40.41,40.41,0,0,0-2.82,12,143.25,143.25,0,0,0-.94,18.52,69.2,69.2,0,0,0,6.88-9.46c3-5,6.27-12.77,5.19-21.17-.26-2-.81-3.18-1.74-3.81A2.78,2.78,0,0,0,139.42,269.88Z"/><path class="cls-18" d="M193.79,90.05,42.45,94.54a10,10,0,0,1-10.27-9.49l-.55-11.32a10,10,0,0,1,9.7-10.47l152.1-4A10,10,0,0,1,203.68,69.4l-.2,10.85A10,10,0,0,1,193.79,90.05Z"/><path class="cls-24" d="M146.12,209.29s-5.05-3.31-5.75-2.54A15.58,15.58,0,0,0,139,209a1.85,1.85,0,0,0,.3,2.16l1.3,1.35a2.94,2.94,0,0,0,4.43-.22A5.25,5.25,0,0,0,146.12,209.29Z"/><path class="cls-25" d="M151.27,203s-1.74-4.56-3.76-4.14a14,14,0,0,0-4.24,2l-3.25,4.4s9.13,3.59,12.34,1.53a70.25,70.25,0,0,0,21.09-.32,46,46,0,0,1-3.32-10C164.17,199.82,157.75,202.34,151.27,203Z"/><path class="cls-26" d="M200.64,169.93s-13.35,16.8-30.51,26.52a46,46,0,0,0,3.32,10c8.9-1.46,19.2-4.94,27.94-12.69Z"/><path class="cls-27" d="M217.28,244.42c-2.61-12.39-5.22-19.57-14-43.07-2.75-7.39-5.24-14.87-4-22.67l1.36-8.75a65.5,65.5,0,0,1,35.8-.24s25.69,11.15,8.24,66.25C236.82,244.74,227.62,247.25,217.28,244.42Z"/><path class="cls-28" d="M203.53,158.75l4.4,10.58a2.11,2.11,0,0,0,1.6,1.27c2.53.43,8.67,1.11,12.71-1.54a1,1,0,0,0,.27-1.44l-8.13-11.68Z"/><path class="cls-29" d="M208.08,142.57c-.18.17-7.8,15.13-7.8,15.13l8.63,4.17,9.33-13.11S211.18,139.65,208.08,142.57Z"/><path class="cls-30" d="M214.32,150.34,210,157.52a1.09,1.09,0,0,1-.23.29c-.52.48-2.27,1.87-3.63,0-1.15-1.61-2.24-3.08-3.4-3.68a1.38,1.38,0,0,0-1.86.61,52.25,52.25,0,0,0-2.95,7,1.38,1.38,0,0,0,.8,1.68,38.59,38.59,0,0,0,8.27,2.42,1.39,1.39,0,0,0,1.31-.56c1.32-1.8,5-6.86,6.3-8.12s3.36-.73,4.34-.45a1.37,1.37,0,0,0,1.1-.15,3,3,0,0,0,1.14-4.61,1.39,1.39,0,0,1,.43-1.88,3,3,0,0,0,1.17-4.32,4.3,4.3,0,0,0-4.66-2.28,1.43,1.43,0,0,1-1.5-.83.89.89,0,0,0-.71-.56,1.34,1.34,0,0,1-1.08-1.57,3.54,3.54,0,0,0-2-4c-3.73-2-7,1.29-7.82,4.11s3.34,4.81,6,5.14c1.92.25,3,2.35,3.4,3.45A1.36,1.36,0,0,1,214.32,150.34Z"/><path class="cls-31" d="M212.81,159.28s1.85-4.36,4-4.18,3.79,2.29,1.17,4.66C214.68,162.72,212.81,159.28,212.81,159.28Z"/><path class="cls-32" d="M215.61,353.67c4.1.35,11.22.93,16.83,1.18,3.37.15,5.32-.18,6.43-.63,0,.12,0,.24,0,.35a1.15,1.15,0,0,1-1.1,1.1,198.16,198.16,0,0,1-22,0,.82.82,0,0,1-.67-1.24A7.57,7.57,0,0,1,215.61,353.67Z"/><path class="cls-33" d="M232.44,355c-5.61-.25-12.73-.82-16.83-1.18,4-4.95,16.83-8.28,16.83-8.28h3.62a15.16,15.16,0,0,1,2.81,8.83C237.76,354.78,235.81,355.11,232.44,355Z"/><path class="cls-34" d="M236.66,339.5l-.33,6.69a1.53,1.53,0,0,1-1.31,1.44,5.84,5.84,0,0,1-2.71-.22,1.8,1.8,0,0,1-1.22-1.39l-1.17-6.52Z"/><path class="cls-35" d="M283.62,354.8a3.26,3.26,0,0,0,2.92-2.16v0A2.31,2.31,0,0,1,285,355.3a10.07,10.07,0,0,1-4.32.67,4.24,4.24,0,0,1-3.23-1.49h0C278.77,355.13,280.65,355.21,283.62,354.8Z"/><path class="cls-36" d="M275.23,339.5h3c4.54-.09,7.39,9.48,8.33,13.19a3.24,3.24,0,0,1-2.92,2.16c-3,.42-4.85.34-6.19-.32-2.45-3.23-3.67-8-4.26-10.72A3.77,3.77,0,0,1,275.23,339.5Z"/><path class="cls-37" d="M277.83,333.23l1.65,6.58a1.78,1.78,0,0,1-.93,2,6.32,6.32,0,0,1-3.42.83,1.47,1.47,0,0,1-1.22-1l-2.43-6.92Z"/><path class="cls-38" d="M279.8,335.13C277.74,337,271,337.2,271,337.2c-24.13-57.91-34.19-73.86-34.19-73.86,3.49,21.86.75,78,.75,78-4,1.76-9.11,0-9.11,0-.32-35.78-5.36-74.24-11.86-98.84,16.31-.37,25.17-3.93,28-6.17C258.23,258.22,279.8,335.13,279.8,335.13Z"/><path class="cls-39" d="M212.52,258.65l3,18.67a6.15,6.15,0,0,0,6.83,5.11L267.26,277a4.43,4.43,0,0,0,3.91-4.31,82.54,82.54,0,0,0-2.12-21.22Z"/><path class="cls-40" d="M223.86,281.17a.15.15,0,0,1-.15-.13.15.15,0,0,1,.13-.16l1.18-.14a.14.14,0,0,1,.16.13.15.15,0,0,1-.13.16l-1.17.14Zm-2.74-.05h0a6.45,6.45,0,0,1-1.14-.41.15.15,0,0,1-.07-.2.16.16,0,0,1,.2-.07,5.16,5.16,0,0,0,1.08.39.15.15,0,0,1,0,.29Zm6.65-.42a.15.15,0,0,1,0-.3l1.18-.14a.15.15,0,0,1,0,.29l-1.17.15Zm3.91-.48a.14.14,0,0,1-.14-.13.14.14,0,0,1,.13-.16l1.17-.15a.15.15,0,0,1,.16.13.15.15,0,0,1-.13.17l-1.17.14Zm3.91-.48a.14.14,0,0,1-.14-.13.15.15,0,0,1,.13-.16l1.17-.14a.13.13,0,0,1,.16.12.14.14,0,0,1-.12.17l-1.18.14Zm3.92-.47a.15.15,0,0,1-.15-.13.16.16,0,0,1,.13-.17l1.17-.14a.15.15,0,0,1,.17.13.15.15,0,0,1-.13.16l-1.18.15ZM217.89,279a.14.14,0,0,1-.12-.06,6,6,0,0,1-.64-1,.16.16,0,0,1,.07-.2.14.14,0,0,1,.2.07,6,6,0,0,0,.6,1,.15.15,0,0,1,0,.21Zm25.53-.22a.15.15,0,0,1-.15-.13.16.16,0,0,1,.13-.17l1.17-.14a.15.15,0,0,1,.17.13.14.14,0,0,1-.13.16l-1.18.15Zm3.91-.48a.14.14,0,0,1-.15-.13.15.15,0,0,1,.13-.16l1.17-.15a.16.16,0,0,1,.17.13.16.16,0,0,1-.13.17l-1.17.14Zm3.91-.47a.15.15,0,0,1-.15-.13.15.15,0,0,1,.13-.17l1.17-.14a.15.15,0,0,1,.17.13.15.15,0,0,1-.13.16l-1.17.14Zm3.91-.48a.15.15,0,0,1-.15-.13.16.16,0,0,1,.13-.17l1.17-.14a.15.15,0,0,1,.17.13.15.15,0,0,1-.13.16l-1.17.15Zm3.91-.48a.15.15,0,0,1-.15-.13.15.15,0,0,1,.13-.16l1.18-.15a.15.15,0,0,1,.16.13.16.16,0,0,1-.13.17l-1.17.14Zm3.91-.48a.15.15,0,0,1-.15-.13.15.15,0,0,1,.13-.16l1.18-.14a.14.14,0,0,1,.16.13.15.15,0,0,1-.13.16l-1.17.14Zm3.89-.56a.16.16,0,0,1-.14-.1.15.15,0,0,1,.1-.19,4.2,4.2,0,0,0,1-.52.14.14,0,0,1,.2,0,.13.13,0,0,1,0,.2,4.5,4.5,0,0,1-1.09.56Zm-50.27-.49a.14.14,0,0,1-.15-.13l-.19-1.16a.15.15,0,0,1,.12-.17.14.14,0,0,1,.17.12l.19,1.17a.15.15,0,0,1-.12.17ZM269.52,273h0a.14.14,0,0,1-.09-.18,3.93,3.93,0,0,0,.18-1.13.15.15,0,0,1,.15-.14h0a.15.15,0,0,1,.14.15,4.37,4.37,0,0,1-.2,1.2A.15.15,0,0,1,269.52,273ZM216,271.46a.16.16,0,0,1-.15-.13l-.18-1.16a.15.15,0,1,1,.29-.05l.19,1.17a.16.16,0,0,1-.13.17ZM269.73,269a.15.15,0,0,1-.15-.15c0-.38,0-.77,0-1.18a.15.15,0,0,1,.15-.15.14.14,0,0,1,.15.15c0,.4,0,.8,0,1.18a.15.15,0,0,1-.15.15Zm-54.39-1.43a.14.14,0,0,1-.15-.13l-.19-1.16a.15.15,0,0,1,.12-.17.14.14,0,0,1,.17.12l.19,1.17a.15.15,0,0,1-.12.17Zm54.27-2.31a.15.15,0,0,1-.15-.14l-.06-1.18a.15.15,0,0,1,.13-.16c.1,0,.16.06.16.14,0,.4.05.8.07,1.18a.15.15,0,0,1-.14.16Zm-54.9-1.58a.16.16,0,0,1-.15-.13l-.18-1.16a.15.15,0,1,1,.29-.05l.19,1.17a.16.16,0,0,1-.13.17Zm54.61-2.35a.14.14,0,0,1-.14-.13c0-.39-.08-.78-.13-1.18a.15.15,0,0,1,.13-.16.16.16,0,0,1,.17.13l.12,1.18a.15.15,0,0,1-.13.16Zm-55.24-1.54a.14.14,0,0,1-.14-.13l-.21-1.31,1.08-.14a.15.15,0,0,1,0,.29l-.78.1.16,1a.15.15,0,0,1-.12.17Zm3.48-1.64a.14.14,0,0,1-.14-.13.14.14,0,0,1,.12-.16l1.18-.15a.15.15,0,0,1,0,.29l-1.17.15Zm3.91-.5a.13.13,0,0,1-.14-.13.13.13,0,0,1,.12-.16l1.18-.15a.14.14,0,0,1,.16.13.15.15,0,0,1-.13.16l-1.17.15Zm47.37-.23a.14.14,0,0,1-.14-.13c-.06-.38-.12-.77-.19-1.16a.15.15,0,0,1,.29-.05c.07.39.13.78.19,1.17a.15.15,0,0,1-.13.17Zm-43.46-.27a.15.15,0,0,1-.15-.13.15.15,0,0,1,.13-.16l1.17-.15a.15.15,0,1,1,0,.29l-1.17.15Zm3.91-.5a.14.14,0,0,1-.15-.13.15.15,0,0,1,.13-.16l1.17-.15a.15.15,0,0,1,.17.13.15.15,0,0,1-.13.16l-1.17.15Zm3.91-.5a.14.14,0,0,1-.15-.13.15.15,0,0,1,.13-.16l1.17-.15a.13.13,0,0,1,.16.13.13.13,0,0,1-.12.16l-1.18.15Zm3.9-.5a.14.14,0,0,1-.14-.13.14.14,0,0,1,.13-.16l1.17-.15a.13.13,0,0,1,.16.13.14.14,0,0,1-.12.16l-1.18.15Zm3.91-.5a.14.14,0,0,1-.14-.13.13.13,0,0,1,.12-.16l1.18-.15a.14.14,0,0,1,.16.12.15.15,0,0,1-.13.17l-1.17.15Zm3.91-.5a.15.15,0,0,1-.15-.13.15.15,0,0,1,.13-.16l1.17-.15a.14.14,0,0,1,.17.13.15.15,0,0,1-.13.16l-1.17.15Zm3.91-.5a.14.14,0,0,1-.15-.13.15.15,0,0,1,.13-.16l1.17-.15a.14.14,0,0,1,.17.13.15.15,0,0,1-.13.16l-1.17.15Zm3.91-.5a.14.14,0,0,1-.15-.13.15.15,0,0,1,.13-.16l1.17-.15a.15.15,0,0,1,.17.12.15.15,0,0,1-.13.17l-1.17.15Zm15.39-.1a.16.16,0,0,1-.15-.12c-.08-.39-.17-.77-.26-1.15a.15.15,0,1,1,.29-.07c.09.38.18.77.26,1.16a.14.14,0,0,1-.11.17Zm-11.49-.4a.14.14,0,0,1-.14-.13.14.14,0,0,1,.13-.16l1.17-.15a.13.13,0,0,1,.16.12.14.14,0,0,1-.12.17l-1.18.15Zm3.91-.5a.14.14,0,0,1-.14-.13.14.14,0,0,1,.12-.16l1.18-.15a.13.13,0,0,1,.16.12.15.15,0,0,1-.13.17l-1.17.15Zm3.91-.5a.15.15,0,0,1-.15-.13.15.15,0,0,1,.13-.16l1.17-.15a.14.14,0,0,1,.17.12.15.15,0,0,1-.13.17l-1.17.15Z"/><path class="cls-41" d="M223.93,243.36l-.05-1.46a1.14,1.14,0,0,1,.76-.76c1.37-.4,4.79-1.24,6.62-.2l.46,1.65Z"/><path class="cls-42" d="M228.12,241.41a2,2,0,0,1-1,.12.87.87,0,0,1-.77-.76l-.58-4.52,2.3-.3.58,4.52A.89.89,0,0,1,228.12,241.41Z"/><path class="cls-43" d="M246.24,240.51l-.05-1.47a1.12,1.12,0,0,1,.76-.75c1.37-.41,4.79-1.24,6.62-.21l.46,1.65Z"/><path class="cls-44" d="M250.43,238.56a2,2,0,0,1-1,.12.88.88,0,0,1-.77-.76l-.64-5,2.3-.29.64,5A.9.9,0,0,1,250.43,238.56Z"/><path class="cls-45" d="M225.71,237.39l24.66-4a1.21,1.21,0,0,0,1-1.13,10.13,10.13,0,0,0-.32-3.15,2.88,2.88,0,0,0-3.08-2.06c-4.64.48-16.4,2-22.56,5.38a2.31,2.31,0,0,0-1.17,1.75,5.59,5.59,0,0,0,.27,2.52A1.07,1.07,0,0,0,225.71,237.39Z"/><path class="cls-46" d="M225.1,236.44a.38.38,0,0,1-.38-.31,6.25,6.25,0,0,1-.1-2,2.39,2.39,0,0,1,1.39-1.83,28.08,28.08,0,0,1,6.1-2,.4.4,0,0,1,.45.33.41.41,0,0,1-.33.45,27,27,0,0,0-5.9,1.91,1.57,1.57,0,0,0-.93,1.21,5.79,5.79,0,0,0,.08,1.71.39.39,0,0,1-.29.47Z"/><path class="cls-47" d="M212.37,244.27c8-1.13,42.56-5.92,52.77-6a2.06,2.06,0,0,1,2,1.37,67.85,67.85,0,0,1,3.59,14.9,1.8,1.8,0,0,1-1.25,1.89L247,263.71l-8.16,1.05L213.8,263a1.93,1.93,0,0,1-1.77-1.58c-.55-3.09-1.74-10.36-1.5-15.17A2.14,2.14,0,0,1,212.37,244.27Z"/><path class="cls-40" d="M238.84,262.9l-1.2-.08a.14.14,0,0,1-.14-.16.15.15,0,0,1,.16-.13l1.18.08.63-.09a.15.15,0,0,1,0,.3Zm-4-.27h0l-1.17-.08a.15.15,0,0,1-.14-.16.15.15,0,0,1,.16-.14l1.17.09a.13.13,0,0,1,.14.15A.15.15,0,0,1,234.89,262.63Zm7.33-.16a.15.15,0,0,1,0-.3l1.18-.15a.14.14,0,0,1,.16.13.16.16,0,0,1-.13.17l-1.17.15ZM231,262.36h0l-1.18-.08a.15.15,0,0,1-.13-.16.15.15,0,0,1,.16-.14l1.17.08a.15.15,0,0,1,0,.3Zm-3.93-.27h0l-1.18-.08a.15.15,0,0,1-.13-.16.15.15,0,0,1,.15-.14l1.18.08a.15.15,0,0,1,0,.3Zm19.1-.12a.16.16,0,0,1-.15-.13.16.16,0,0,1,.13-.17l.47-.06.65-.21a.14.14,0,0,1,.18.1.13.13,0,0,1-.09.18l-.67.22-.5.07Zm-23-.15h0l-1.18-.08a.15.15,0,0,1-.13-.16.15.15,0,0,1,.15-.14l1.18.08a.15.15,0,0,1,.14.16A.15.15,0,0,1,223.1,261.82Zm-3.93-.27h0l-1.18-.09a.13.13,0,0,1-.13-.15.15.15,0,0,1,.15-.14l1.18.08a.15.15,0,0,1,.14.16A.15.15,0,0,1,219.17,261.55Zm-3.93-.28h0l-1.18-.08a.13.13,0,0,1-.13-.15.14.14,0,0,1,.15-.14l1.18.08a.16.16,0,0,1,.14.16A.14.14,0,0,1,215.24,261.27Zm34.66-.43a.14.14,0,0,1-.14-.11.13.13,0,0,1,.09-.18l1.12-.37a.15.15,0,0,1,.19.1.14.14,0,0,1-.09.18l-1.13.37Zm3.74-1.22a.15.15,0,0,1-.14-.1.16.16,0,0,1,.1-.19l1.12-.36a.14.14,0,0,1,.19.09.16.16,0,0,1-.1.19l-1.12.36Zm-40.1-1.08a.16.16,0,0,1-.15-.12c-.06-.38-.12-.77-.17-1.17a.14.14,0,0,1,.12-.17.15.15,0,0,1,.17.12q.09.62.18,1.17a.16.16,0,0,1-.13.17Zm43.85-.14a.15.15,0,0,1-.14-.1.15.15,0,0,1,.09-.19l1.13-.36a.14.14,0,0,1,.19.09.16.16,0,0,1-.1.19l-1.12.36Zm3.75-1.22a.15.15,0,0,1-.14-.1.14.14,0,0,1,.09-.19l1.13-.36a.15.15,0,0,1,.18.09.15.15,0,0,1-.09.19l-1.13.37Zm3.74-1.21a.15.15,0,0,1,0-.29l1.12-.37a.16.16,0,0,1,.19.1.15.15,0,0,1-.1.18l-1.12.37Zm3.75-1.22a.15.15,0,0,1-.14-.1.16.16,0,0,1,0-.16c0-.33-.08-.67-.13-1a.15.15,0,0,1,.13-.17.16.16,0,0,1,.17.13c.05.37.09.74.13,1.12l0,.12-.17.05ZM213,254.64a.16.16,0,0,1-.15-.13c0-.39-.09-.78-.13-1.18a.15.15,0,0,1,.29,0c0,.39.09.79.14,1.17a.16.16,0,0,1-.13.17Zm55.11-3.75a.14.14,0,0,1-.14-.12c-.07-.39-.15-.77-.23-1.16a.14.14,0,0,1,.11-.17.15.15,0,0,1,.18.11c.08.39.16.77.23,1.17a.15.15,0,0,1-.12.17Zm-55.49-.17a.15.15,0,0,1-.15-.14c0-.4-.05-.8-.07-1.19a.15.15,0,0,1,.14-.15c.09,0,.15.06.16.14,0,.39,0,.78.06,1.18a.13.13,0,0,1-.13.15Zm54.63-3.67a.16.16,0,0,1-.14-.12l-.3-1.14a.14.14,0,0,1,.1-.18.15.15,0,0,1,.18.11c.1.37.21.75.31,1.14a.15.15,0,0,1-.11.18ZM212.51,247h0a.14.14,0,0,1-.14-.15v-.26a.28.28,0,0,1,.24-.27l.73-.1a.14.14,0,0,1,.17.12.16.16,0,0,1-.13.17l-.72.1v.25A.15.15,0,0,1,212.51,247Zm3.6-1.09a.15.15,0,0,1-.15-.13.15.15,0,0,1,.13-.17l1.17-.16a.15.15,0,0,1,.16.13.14.14,0,0,1-.12.16l-1.17.17Zm3.9-.54a.15.15,0,0,1-.15-.13.15.15,0,0,1,.13-.16l1.17-.16a.14.14,0,0,1,.17.12.16.16,0,0,1-.13.17l-1.17.16Zm3.91-.53a.14.14,0,0,1-.15-.12.15.15,0,0,1,.13-.17l1.17-.16a.15.15,0,1,1,0,.3l-1.17.15Zm3.9-.52a.14.14,0,0,1-.14-.12.15.15,0,0,1,.12-.17l1.18-.15a.13.13,0,0,1,.16.12.15.15,0,0,1-.12.17l-1.18.15Zm3.91-.5a.15.15,0,0,1,0-.3l1.18-.15a.15.15,0,0,1,0,.29l-1.17.16Zm3.94-.5,0-.3,1.17-.14a.14.14,0,0,1,.16.12.15.15,0,0,1-.13.17Zm30.5-.07a.15.15,0,0,1-.15-.1c-.12-.4-.24-.78-.36-1.12a.16.16,0,0,1,.1-.19.14.14,0,0,1,.18.09c.12.35.24.73.37,1.13a.16.16,0,0,1-.1.19ZM235.64,243Zm3.91-.17a.15.15,0,0,1-.15-.13.15.15,0,0,1,.13-.16l1.18-.14a.14.14,0,0,1,.16.13.15.15,0,0,1-.13.16l-1.17.14Zm3.91-.47a.13.13,0,0,1-.14-.13.14.14,0,0,1,.13-.16l1.17-.14a.14.14,0,0,1,.16.13.15.15,0,0,1-.13.17l-1.17.13Zm3.92-.45a.14.14,0,0,1-.15-.13.15.15,0,0,1,.13-.16l1.18-.13a.15.15,0,0,1,0,.29l-1.18.13Zm3.91-.43a.14.14,0,0,1-.14-.13.15.15,0,0,1,.13-.16l1.17-.12a.15.15,0,0,1,.17.13.15.15,0,0,1-.14.16l-1.17.12Zm3.92-.39a.14.14,0,0,1-.14-.13.15.15,0,0,1,.13-.17l1.18-.11a.15.15,0,0,1,.16.14.15.15,0,0,1-.13.16l-1.18.11Zm3.93-.35a.15.15,0,0,1-.15-.13.15.15,0,0,1,.14-.16l1.18-.09a.15.15,0,0,1,.16.13.16.16,0,0,1-.14.16l-1.18.09Zm3.93-.4a.15.15,0,0,1-.15-.14.15.15,0,0,1,.14-.15l1.19-.05h0a.15.15,0,0,1,.15.14.15.15,0,0,1-.14.16l-1.18,0Z"/><path class="cls-48" d="M246.71,267.24l-7.15.91a1.86,1.86,0,0,1-2-1.39l-1.7-6.76a1.86,1.86,0,0,1,1.57-2.3l8.58-1.1a1.86,1.86,0,0,1,2.1,1.77l.27,6.95A1.88,1.88,0,0,1,246.71,267.24Z"/><path class="cls-49" d="M245.67,266.08l-5.44.7a1.41,1.41,0,0,1-1.55-1.06l-1.3-5.15a1.41,1.41,0,0,1,1.19-1.74l6.54-.84a1.42,1.42,0,0,1,1.59,1.35l.21,5.29A1.42,1.42,0,0,1,245.67,266.08Z"/><path class="cls-50" d="M241.42,211.3a55.82,55.82,0,0,1,1.47,16.26,1.93,1.93,0,0,1-1.78,1.73l-3.81.25a7.16,7.16,0,0,1-4.07-1.57.63.63,0,0,0-.93.8,7.78,7.78,0,0,0,2.31,2.5c.54.41,2.33,1.13,2.21,1.94a1.42,1.42,0,0,1-.36.67,8.18,8.18,0,0,1-4,2.29,1.16,1.16,0,0,0-.52.26c0,1,2.92,2,3.68,2.28a8.43,8.43,0,0,0,3.56.41,10.49,10.49,0,0,0,7.31-4.83,52.15,52.15,0,0,0,7.31-20.71C249.84,209.6,243.82,210.6,241.42,211.3Z"/><path class="cls-51" d="M253.82,214.2c3.17-24-15.31-42.43-15.31-42.43l-11,12.82c8.35,10.41,12.32,19.95,14.13,27.44C244.05,211.33,249.84,210.22,253.82,214.2Z"/><path class="cls-52" d="M241.38,211.91a.67.67,0,0,1-.66-.52c-2.24-9.23-6.95-18.37-14-27.17a.68.68,0,0,1,1.07-.85c7.18,8.95,12,18.27,14.26,27.7a.67.67,0,0,1-.5.82A.44.44,0,0,1,241.38,211.91Z"/><path class="cls-53" d="M92.42,354.12a1.45,1.45,0,0,0,0-.35c-1.77-7-10.55-11.38-10.55-11.38l-3.48.27c-2,6.18-1.74,10-1.42,11.66a.74.74,0,0,0,0,.14A83.19,83.19,0,0,0,92.42,354.12Z"/><path class="cls-54" d="M77,354.46a1.5,1.5,0,0,0,1.1,1.11c4.08.86,10.57.17,13.3-.19a1.26,1.26,0,0,0,1-1.26A83.19,83.19,0,0,1,77,354.46Z"/><path class="cls-55" d="M77,337.5l1.48,7.09a1.18,1.18,0,0,0,1,1,9.84,9.84,0,0,0,2.28,0,1.46,1.46,0,0,0,1.16-1.71l-1-6.3Z"/><path class="cls-56" d="M107.48,354.53c-3.84-.1-5.83-.56-6.85-1,0,.39,0,.78,0,1.18a.75.75,0,0,0,.72.77l21.1-.14a1,1,0,0,0,.78-1.4A157.66,157.66,0,0,1,107.48,354.53Z"/><path class="cls-57" d="M123.24,353.79a1.19,1.19,0,0,0-.09-.15c-1.86-2.61-6.61-7.79-16-10l-4.5-.14s-2,3.48-2,9.93c1,.42,3,.87,6.85,1C113.42,354.53,120.47,354,123.24,353.79Z"/><path class="cls-55" d="M101.63,336.85c.07.33,1,5.38,1.37,7.34a1,1,0,0,0,.88.83,10.42,10.42,0,0,0,3.08-.25,1.32,1.32,0,0,0,.93-1.39l-.51-8Z"/><path class="cls-58" d="M98.22,243.66s6.19,42.52,10.66,93.12a1.92,1.92,0,0,1-1.59,2,23.68,23.68,0,0,1-5,.59,1.88,1.88,0,0,1-1.78-1.56C99,328.84,88.1,281,85.25,270.42c0,0-3.27,44.76-2.22,68a1.1,1.1,0,0,1-1,1.14,18.44,18.44,0,0,1-4,0,1.46,1.46,0,0,1-1.31-1.25c-1.09-7.55-7.33-52.49-7.06-84.87,0-1.83,2.14-16.83,2.14-16.83Z"/><path class="cls-59" d="M70.86,246.11a1.78,1.78,0,0,1-1.15-1.48c-.82-8-4.8-57.48,20.35-77.84,0,0,1.44-3.78,13.3,5.5s5.51,19,2.67,32.41c-3.44,16.23-9.46,29.5-6.8,39.49a1.38,1.38,0,0,1-.84,1.66A39.36,39.36,0,0,1,70.86,246.11Z"/><path class="cls-55" d="M99.87,152c0,.71-10.05,15-10.05,15s1.8,3.56,10.41,6.44l7.43-15.28Z"/><path class="cls-55" d="M107.78,143.78s3.57,8.21,3.81,12.52,1.17,7.1-3.81,8-9.18-1.61-11.45-5.91c0,0-3.57-6.61-2.77-9.32S107.78,143.78,107.78,143.78Z"/><path class="cls-60" d="M98,155.5l.28-.13a.68.68,0,0,0,.34-.93c-.71-1.36-2.08-4.47-.31-5.2,2.28-.93,11.32-2.78,13.27-6a6,6,0,0,0-2.31-8.2.32.32,0,0,0-.42.16l-.21.39a.34.34,0,0,1-.63-.06h0a.34.34,0,0,0-.61-.09c-.6,1-2.21,2.51-6.54,3.31-6.14,1.14-10.21,3.62-10.31,7.87a.34.34,0,0,1-.52.28c-.46-.28-1.18-.41-2.15.41-1.69,1.42-1,5.1,2.7,8.13a.34.34,0,0,1,0,.54c-.67.44-1.67,1.48.92,2.86A8.69,8.69,0,0,0,97,160.05a.34.34,0,0,0,.27-.41l-.82-3.73a.33.33,0,0,1,.33-.41Z"/><path class="cls-55" d="M98.18,156.07s-1.36-5.25-3.71-3.78,1.22,5.88,3.11,6.07Z"/><path class="cls-61" d="M107.17,176.59l.7,18.6a49.56,49.56,0,0,0,5.62,1.6,56.09,56.09,0,0,1,5.58-11.28A27.56,27.56,0,0,1,107.17,176.59Z"/><path class="cls-55" d="M144.07,176.28c-10.14,10.94-18.35,11.59-25,9.23a56.09,56.09,0,0,0-5.58,11.28c27.07,6,33.44-18.92,33.44-18.92Z"/><path class="cls-55" d="M146.12,175.12a3.7,3.7,0,0,1,3.33-.86c2.16.39,4.08,1.14,5.43,0s1.82.39,1.82.39l-4,3.06Z"/><path class="cls-55" d="M143.71,177.26s.8-3.35,3.21-2.89,7.88,3.44,9.3,2.89,3.21-1.86,4.14-1.4l-1.63,2s4.19-2.42,4.91-.93l-7,3.92S146.46,179.86,143.71,177.26Z"/><path class="cls-55" d="M95.92,200.94s19.06,16,39.64,9a4.9,4.9,0,0,1,3.86.29l5.92,3.13a5.27,5.27,0,0,0,7-2,11.07,11.07,0,0,0,1.67-4.45l-11.58-4.69.85-1.42s-5.65-.48-7.13,3.57c0,0-10.76,4.48-28.92-15.49C107.22,188.91,99,195.92,95.92,200.94Z"/><path class="cls-62" d="M94.9,200.77a.33.33,0,0,1-.19-.06,36.64,36.64,0,0,1-11.83-14.25.33.33,0,0,1,.6-.26,35.86,35.86,0,0,0,11.6,14,.34.34,0,0,1,.09.46A.35.35,0,0,1,94.9,200.77Z"/><path class="cls-63" d="M106.85,188.64a.33.33,0,0,1-.28-.15s-2.47-3.85-7.14-12.21a9.42,9.42,0,0,0-5.61-4.84,11,11,0,0,0-7.47,1,.32.32,0,0,1-.32-.56,11.4,11.4,0,0,1,8-1.06,10.07,10.07,0,0,1,6,5.15c4.66,8.34,7.1,12.14,7.12,12.18a.32.32,0,0,1-.1.45A.26.26,0,0,1,106.85,188.64Z"/></g></g></g></svg>