<svg id="card3_icn" xmlns="http://www.w3.org/2000/svg" xmlns:xlink="http://www.w3.org/1999/xlink" width="239" height="158.523" viewBox="0 0 239 158.523">
  <defs>
    <linearGradient id="linear-gradient" x1="0.001" y1="0.5" x2="1" y2="0.5" gradientUnits="objectBoundingBox">
      <stop offset="0" stop-color="gray" stop-opacity="0.251"/>
      <stop offset="0.54" stop-color="gray" stop-opacity="0.122"/>
      <stop offset="1" stop-color="gray" stop-opacity="0.102"/>
    </linearGradient>
  </defs>
  <path id="Path_121" data-name="Path 121" d="M223.212,148.276c-14.715-.512-28.729-5.261-42.111-10.459s-26.644-10.956-41-13.71c-9.238-1.771-19.8-2.021-27.244,2.931-7.162,4.775-9.476,12.994-10.722,20.628-.934,5.743-1.485,11.786,1.08,17.163,1.78,3.733,4.943,6.871,7.13,10.447,7.607,12.441,2.23,27.783-6.016,39.931-3.865,5.7-8.353,11.141-11.338,17.2s-4.365,13.016-1.755,19.205c2.59,6.139,8.758,10.74,15.44,13.98,13.569,6.582,29.557,8.465,45.156,9.531,34.518,2.362,69.222,1.339,103.83.316,12.809-.38,25.676-.764,38.276-2.744,7-1.1,14.221-2.844,19.3-7.06,6.448-5.35,8.046-14.41,3.726-21.117-7.248-11.252-27.283-14.046-32.355-26.124-2.79-6.646.075-14.049,4.127-20.214,8.694-13.223,23.266-24.825,24.034-39.94.527-10.383-6.478-20.778-17.309-25.692-11.354-5.147-27.1-4.5-35.468,4.022C251.359,145.35,236.2,148.726,223.212,148.276Z" transform="translate(-86.34 -118.044)" fill="#6c63ff" opacity="0.1"/>
  <g id="flowers" transform="translate(23.701 11.749)" opacity="0.6">
    <path id="Path_122" data-name="Path 122" d="M236.623,256.235s-6.25-11.07-15.66-14.26a19.268,19.268,0,0,1-9.745-7.3,32.344,32.344,0,0,1-2.878-5.177" transform="translate(-201.589 -212.119)" fill="none" stroke="#535461" stroke-miterlimit="10" stroke-width="2"/>
    <path id="Path_123" data-name="Path 123" d="M179.467,204.707c1.071,1.041,6.066,2.117,6.066,2.117s-1.225-4.959-2.3-6a2.705,2.705,0,1,0-3.768,3.884Z" transform="translate(-178.645 -189.373)" fill="#6c63ff"/>
    <path id="Path_124" data-name="Path 124" d="M187.271,241.781c1.466.291,6.243-1.521,6.243-1.521s-3.724-3.5-5.191-3.788a2.706,2.706,0,1,0-1.053,5.309Z" transform="translate(-183.625 -217.466)" fill="#6c63ff"/>
    <path id="Path_125" data-name="Path 125" d="M227.723,284.9c1.412-.489,4.622-4.463,4.622-4.463s-4.981-1.137-6.393-.65a2.706,2.706,0,0,0,1.771,5.113Z" transform="translate(-213.79 -250.881)" fill="#6c63ff"/>
    <path id="Path_126" data-name="Path 126" d="M270.746,309.09c1.476-.243,5.311-3.62,5.311-3.62s-4.715-1.964-6.191-1.721a2.706,2.706,0,1,0,.88,5.341Z" transform="translate(-247.375 -269.471)" fill="#6c63ff"/>
    <path id="Path_127" data-name="Path 127" d="M222.071,227.053c0,1.5-2.7,5.829-2.7,5.829s-2.708-4.32-2.708-5.827a2.706,2.706,0,1,1,5.411,0Z" transform="translate(-208.017 -208.14)" fill="#6c63ff"/>
    <path id="Path_128" data-name="Path 128" d="M270.792,253.709c-.455,1.428-4.32,4.754-4.32,4.754s-1.287-4.945-.841-6.366a2.706,2.706,0,1,1,5.166,1.617Z" transform="translate(-245.782 -228.112)" fill="#6c63ff"/>
    <path id="Path_129" data-name="Path 129" d="M313.288,290.219c-.2,1.482-3.458,5.418-3.458,5.418s-2.105-4.656-1.905-6.139a2.706,2.706,0,1,1,5.363.721Z" transform="translate(-278.521 -256.664)" fill="#6c63ff"/>
    <path id="Path_130" data-name="Path 130" d="M179.467,204.707c1.071,1.041,6.066,2.117,6.066,2.117s-1.225-4.959-2.3-6a2.705,2.705,0,1,0-3.768,3.884Z" transform="translate(-178.645 -189.373)" opacity="0.25"/>
    <path id="Path_131" data-name="Path 131" d="M187.271,241.781c1.466.291,6.243-1.521,6.243-1.521s-3.724-3.5-5.191-3.788a2.706,2.706,0,1,0-1.053,5.309Z" transform="translate(-183.625 -217.466)" opacity="0.25"/>
    <path id="Path_132" data-name="Path 132" d="M227.723,284.9c1.412-.489,4.622-4.463,4.622-4.463s-4.981-1.137-6.393-.65a2.706,2.706,0,0,0,1.771,5.113Z" transform="translate(-213.79 -250.881)" opacity="0.25"/>
    <path id="Path_133" data-name="Path 133" d="M270.746,309.09c1.476-.243,5.311-3.62,5.311-3.62s-4.715-1.964-6.191-1.721a2.706,2.706,0,1,0,.88,5.341Z" transform="translate(-247.375 -269.471)" opacity="0.25"/>
    <path id="Path_134" data-name="Path 134" d="M222.071,227.053c0,1.5-2.7,5.829-2.7,5.829s-2.708-4.32-2.708-5.827a2.706,2.706,0,1,1,5.411,0Z" transform="translate(-208.017 -208.14)" opacity="0.25"/>
    <path id="Path_135" data-name="Path 135" d="M270.792,253.709c-.455,1.428-4.32,4.754-4.32,4.754s-1.287-4.945-.841-6.366a2.706,2.706,0,1,1,5.166,1.617Z" transform="translate(-245.782 -228.112)" opacity="0.25"/>
    <path id="Path_136" data-name="Path 136" d="M313.288,290.219c-.2,1.482-3.458,5.418-3.458,5.418s-2.105-4.656-1.905-6.139a2.706,2.706,0,1,1,5.363.721Z" transform="translate(-278.521 -256.664)" opacity="0.25"/>
    <path id="Path_137" data-name="Path 137" d="M280.042,224.1s-1.228-12.655-8.54-19.385a19.271,19.271,0,0,1-5.961-10.624,32.343,32.343,0,0,1-.541-5.9" transform="translate(-245.366 -180.201)" fill="none" stroke="#535461" stroke-miterlimit="10" stroke-width="2"/>
    <path id="Path_138" data-name="Path 138" d="M244.211,156.772c.559,1.387,4.688,4.395,4.688,4.395s.891-5.031.332-6.418a2.706,2.706,0,1,0-5.02,2.024Z" transform="translate(-229.152 -153.054)" fill="#6c63ff"/>
    <path id="Path_139" data-name="Path 139" d="M236.343,193.815c1.221.859,6.323,1.137,6.323,1.137s-1.987-4.706-3.21-5.566a2.706,2.706,0,1,0-3.113,4.427Z" transform="translate(-222.337 -180.745)" fill="#6c63ff"/>
    <path id="Path_140" data-name="Path 140" d="M255.876,249.57c1.489.125,6.036-2.21,6.036-2.21s-4.092-3.058-5.582-3.183a2.706,2.706,0,0,0-.455,5.393Z" transform="translate(-236.402 -223.452)" fill="#6c63ff"/>
    <path id="Path_141" data-name="Path 141" d="M284.939,288.983c1.448.375,6.323-1.157,6.323-1.157s-3.517-3.706-4.963-4.092a2.706,2.706,0,1,0-1.364,5.229Z" transform="translate(-259.103 -253.925)" fill="#6c63ff"/>
    <path id="Path_142" data-name="Path 142" d="M274.078,194.471c-.6,1.364-4.834,4.233-4.834,4.233s-.721-5.056-.116-6.423a2.706,2.706,0,1,1,4.95,2.189Z" transform="translate(-248.37 -182.117)" fill="#6c63ff"/>
    <path id="Path_143" data-name="Path 143" d="M303.88,238.533c-.987,1.121-5.88,2.592-5.88,2.592s.825-5.041,1.819-6.164a2.707,2.707,0,1,1,4.067,3.572Z" transform="translate(-270.864 -215.627)" fill="#6c63ff"/>
    <path id="Path_144" data-name="Path 144" d="M330.7,289.17c-.782,1.273-5.354,3.551-5.354,3.551s-.039-5.109.743-6.384a2.706,2.706,0,0,1,4.611,2.833Z" transform="translate(-291.994 -255.037)" fill="#6c63ff"/>
  </g>
  <path id="Path_145" data-name="Path 145" d="M207.795,267.24s33.422,1.364,37.969,0c0,0-2.5,55.93-1.592,57.749,0,0-37.06,2.046-39.788,0S207.795,267.24,207.795,267.24Z" transform="translate(-174.291 -229.53)" fill="#fff" stroke="#33313f" stroke-miterlimit="10" stroke-width="3"/>
  <path id="Path_146" data-name="Path 146" d="M243.76,313.24s15.46,24.555,20.69,26.828" transform="translate(-205.254 -265.072)" fill="#fff" stroke="#33313f" stroke-miterlimit="10" stroke-width="3"/>
  <path id="Path_147" data-name="Path 147" d="M276.812,313.24s-14.778,19.326-17.052,25.919" transform="translate(-217.617 -265.072)" fill="#fff" stroke="#33313f" stroke-miterlimit="10" stroke-width="3"/>
  <path id="Path_148" data-name="Path 148" d="M243.76,472.24" transform="translate(-205.254 -387.922)" fill="#fff" stroke="#33313f" stroke-miterlimit="10" stroke-width="3"/>
  <path id="Path_149" data-name="Path 149" d="M263.086,472.24H245.124c-1.364,0-1.364,6.366-1.364,6.366h19.326Z" transform="translate(-205.254 -387.922)" fill="#fff" stroke="#33313f" stroke-miterlimit="10" stroke-width="3"/>
  <path id="Path_150" data-name="Path 150" d="M486.086,264.836s32.058-1.592,37.969,0c0,0-2.5,55.93-1.591,57.749,0,0-40.961,3.2-39.788,0C485.177,315.765,486.086,264.836,486.086,264.836Z" transform="translate(-389.832 -227.126)" fill="#fff" stroke="#33313f" stroke-miterlimit="10" stroke-width="3"/>
  <path id="Path_151" data-name="Path 151" d="M552.71,286s7.134,11.334,9.549,12.382" transform="translate(-443.962 -244.025)" fill="#fff" stroke="#33313f" stroke-miterlimit="10" stroke-width="3"/>
  <path id="Path_152" data-name="Path 152" d="M567.961,286s-6.821,8.919-7.871,11.964" transform="translate(-449.664 -244.025)" fill="#fff" stroke="#33313f" stroke-miterlimit="10" stroke-width="3"/>
  <path id="Path_153" data-name="Path 153" d="M542.439,372.24h-24.1c-1.819,0-1.819,6.366-1.819,6.366h25.919Z" transform="translate(-416 -310.657)" fill="#fff" stroke="#33313f" stroke-miterlimit="10" stroke-width="3"/>
  <path id="Path_154" data-name="Path 154" d="M550.375,461.24H532.414c-1.364,0-1.364,6.366-1.364,6.366h19.326Z" transform="translate(-427.226 -379.423)" fill="#fff" stroke="#33313f" stroke-miterlimit="10" stroke-width="3"/>
  <path id="Path_155" data-name="Path 155" d="M542.439,412.879c1.83,0-21.968,2.046-24.1,0-1.123-1.075-1.819,6.366-1.819,6.366h25.919Z" transform="translate(-416 -341.975)" fill="#fff" stroke="#33313f" stroke-miterlimit="10" stroke-width="3"/>
  <path id="Path_156" data-name="Path 156" d="M488.87,366.406l1.364,1.364,2.5-3.41" transform="translate(-377.721 -281.519)" fill="#fff" stroke="#33313f" stroke-miterlimit="10" stroke-width="3"/>
  <path id="Path_157" data-name="Path 157" d="M754.82,269.24s31.83,3.865,37.969,0c0,0-2.5,55.93-1.591,57.749,0,0-42.243,2.367-39.788,0C757.548,321.078,754.82,269.24,754.82,269.24Z" transform="translate(-597.406 -231.075)" fill="#fff" stroke="#33313f" stroke-miterlimit="10" stroke-width="3"/>
  <path id="Path_158" data-name="Path 158" d="M786.21,312.74s4.586,7.275,6.139,7.958" transform="translate(-624.373 -264.685)" fill="#fff" stroke="#33313f" stroke-miterlimit="10" stroke-width="3"/>
  <path id="Path_159" data-name="Path 159" d="M796.05,312.74s-4.383,5.743-5.05,7.689" transform="translate(-628.074 -264.685)" fill="#fff" stroke="#33313f" stroke-miterlimit="10" stroke-width="3"/>
  <path id="Path_160" data-name="Path 160" d="M813.439,378.74h-24.1c-1.819,0-1.819,3.369-1.819,3.369h25.919Z" transform="translate(-625.386 -315.68)" fill="#fff" stroke="#33313f" stroke-miterlimit="10" stroke-width="3"/>
  <path id="Path_161" data-name="Path 161" d="M843.73,422.74h12.553c1.819,0,1.819,3.369,1.819,3.369h.054" transform="translate(-668.816 -349.676)" fill="#fff" stroke="#33313f" stroke-miterlimit="10" stroke-width="3"/>
  <path id="Path_162" data-name="Path 162" d="M813.439,400.239c1.83,0-21.968,1.082-24.1,0-1.123-.568-1.819,3.367-1.819,3.367h25.919Z" transform="translate(-625.386 -332.247)" fill="#fff" stroke="#33313f" stroke-miterlimit="10" stroke-width="3"/>
  <path id="Path_163" data-name="Path 163" d="M767.6,288s35.286,2.608,37.555.875" transform="translate(-609.995 -245.57)" fill="#fff" stroke="#33313f" stroke-miterlimit="10" stroke-width="3"/>
  <path id="Path_164" data-name="Path 164" d="M913.25,280.377a4.127,4.127,0,0,1,1.466.118,1.64,1.64,0,0,0,1.4-.275" transform="translate(-722.53 -239.559)" fill="#fff" stroke="#33313f" stroke-miterlimit="10" stroke-width="2"/>
  <path id="Path_165" data-name="Path 165" d="M912.18,284.85a13.014,13.014,0,0,0,3.088.171" transform="translate(-721.703 -243.136)" fill="#fff" stroke="#33313f" stroke-miterlimit="10" stroke-width="2"/>
  <path id="Path_166" data-name="Path 166" d="M912.16,289.436a23.433,23.433,0,0,1,2.64-.3" transform="translate(-721.688 -246.451)" fill="#fff" stroke="#33313f" stroke-miterlimit="10" stroke-width="2"/>
  <path id="Path_167" data-name="Path 167" d="M774.162,276.241a3,3,0,0,0,1.364.275,1.271,1.271,0,0,0,.85-.184,1.327,1.327,0,0,0,.323-1.066.8.8,0,0,0-.05-.343.682.682,0,0,0-.243-.255,2.734,2.734,0,0,0-2.262-.284A1,1,0,0,0,774.162,276.241Z" transform="translate(-614.571 -234.948)" fill="#fff" stroke="#33313f" stroke-miterlimit="10" stroke-width="2"/>
  <path id="Path_168" data-name="Path 168" d="M787.171,306.48a21.225,21.225,0,0,0,.541,5.02,32.8,32.8,0,0,1,.4,6.366q-5.382.327-10.777.157c.334.011.25-7.6.282-8.3.041-.9-.15-2.437.889-2.774a15.675,15.675,0,0,1,3.774-.191Q784.727,306.641,787.171,306.48Z" transform="translate(-617.52 -259.849)" fill="#fff" stroke="#33313f" stroke-miterlimit="10" stroke-width="3"/>
  <path id="Path_169" data-name="Path 169" d="M411.76,381.553s8.867-.455,10.458,0" transform="translate(-335.058 -317.697)" fill="none" stroke="#33313f" stroke-miterlimit="10" stroke-width="3"/>
  <path id="Path_170" data-name="Path 170" d="M453.9,361.24s3.865,3.865,3.865,4.775-5,4.092-5,4.092" transform="translate(-366.736 -302.158)" fill="none" stroke="#33313f" stroke-miterlimit="10" stroke-width="3"/>
  <path id="Path_171" data-name="Path 171" d="M681.76,381.553s8.867-.455,10.458,0" transform="translate(-543.671 -317.697)" fill="none" stroke="#33313f" stroke-miterlimit="10" stroke-width="3"/>
  <path id="Path_172" data-name="Path 172" d="M723.9,361.24s3.865,3.865,3.865,4.775-5,4.092-5,4.092" transform="translate(-575.349 -302.158)" fill="none" stroke="#33313f" stroke-miterlimit="10" stroke-width="3"/>
  <circle id="Ellipse_40" data-name="Ellipse 40" cx="4.918" cy="4.918" r="4.918" transform="translate(80.869 0)" fill="#6c63ff" opacity="0.1"/>
  <circle id="Ellipse_41" data-name="Ellipse 41" cx="4.918" cy="4.918" r="4.918" transform="translate(155.696 6.789)" fill="#6c63ff" opacity="0.1"/>
  <circle id="Ellipse_42" data-name="Ellipse 42" cx="4.918" cy="4.918" r="4.918" transform="translate(208.25 79.644)" fill="#6c63ff" opacity="0.1"/>
  <circle id="Ellipse_43" data-name="Ellipse 43" cx="8.242" cy="8.242" r="8.242" transform="translate(222.516 54.396)" fill="#6c63ff" opacity="0.1"/>
  <circle id="Ellipse_44" data-name="Ellipse 44" cx="8.242" cy="8.242" r="8.242" transform="translate(211.605 94.393)" fill="#6c63ff" opacity="0.1"/>
  <circle id="Ellipse_45" data-name="Ellipse 45" cx="8.242" cy="8.242" r="8.242" transform="translate(0 68.622)" fill="#6c63ff" opacity="0.1"/>
  <path id="Path_173" data-name="Path 173" d="M825.1,423.1a4.117,4.117,0,0,0-.1-.816,2.653,2.653,0,0,0-1.428-1.928,12.016,12.016,0,0,1-2.258-.955c-.139-2.437.423-4.931-.189-7.294a18.8,18.8,0,0,1-.7-2.578c-.125-1.1.177-2.274-.261-3.288a3.25,3.25,0,0,0-1.923-1.66,10.36,10.36,0,0,0-2.562-.455c-1.091-.091-4.624-.509-5.854.468h0a1.216,1.216,0,0,0-.227.227h0a.8.8,0,0,0-.075.118.07.07,0,0,1,0,.018,1.481,1.481,0,0,0-.061.148h0a.844.844,0,0,0-.036.168.4.4,0,0,0,0,.057,1.017,1.017,0,0,0,0,.12v.234c.016.2.048.409.048.612a1.329,1.329,0,0,1-.027.3,2.112,2.112,0,0,1-.377.734h0l-.041.059-.075.109-.059.093-.05.082c-.023.039-.041.077-.061.118l-.034.064a1.377,1.377,0,0,0-.068.193,1.26,1.26,0,0,0,0,.6,2.306,2.306,0,0,0,.309.718c.057.093.121.184.184.275s.1.143.159.214a4.541,4.541,0,0,0-.05.639,4.7,4.7,0,0,0,1.8,3.694,14.089,14.089,0,0,1-.029,2.885c-.023.2-.045.4-.073.6s-.05.334-.075.5a2.319,2.319,0,0,1-1-.077,4.64,4.64,0,0,0-.455-.175c-.664-.164-1.339.5-1.992.3a.383.383,0,0,1-.029.091.91.91,0,0,0-.455-.134,1.665,1.665,0,0,1-.987-.566l-.864-.816a.873.873,0,0,1-.15-.168,1.119,1.119,0,0,1-.1-.28,3.231,3.231,0,0,0-.839-1.2.569.569,0,0,0-.25-.18.307.307,0,0,0-.112,0c-.025-.032-.048-.064-.075-.093-.061-.066-.125-.13-.191-.189-.411-.382-.455-.709-.814-1.137a10.712,10.712,0,0,1-.848-1.285c-.032-.227-.073-.482-.123-.732a9.348,9.348,0,0,0-.5-1.657l.312-.341v-.339l.555-.648-.039-.034.682-.641-.682-.025-.318.441-.025-.023-.568.568-.4.045-.052.055c-.33-.491-.682-.759-1-.7-.53.109-.794,1.137-.709,2.48l-1.576,1.648-.177.186-.814,1.044.639.614.98-.909.157-.171.975-1.057a.555.555,0,0,0,.023.1,2.758,2.758,0,0,0-.05.491c0,.193.18.332.271.5a1.383,1.383,0,0,1,.227.775c0,.1-.041.189-.043.286a1.083,1.083,0,0,0,.211.589q.571.955,1.137,1.91c.077.134.159.268.227.4a.1.1,0,0,1,0,.02.966.966,0,0,0,.3.348,4.177,4.177,0,0,0,.375,1.382c.041.084.084.168.13.25a8.012,8.012,0,0,0,1.071,1.391l.543.607c.532.6,1.066,1.194,1.646,1.746a2.2,2.2,0,0,0,.739.514.825.825,0,0,0,.825-.118v.844a.6.6,0,0,1,.4.259.579.579,0,0,1-.039.491,18.542,18.542,0,0,1-1.682,3.56,7.5,7.5,0,0,1,1.41,1.073,6.236,6.236,0,0,1,.737,1c.018.166.034.334.045.5.168,2.71-.88,5.4-1.819,7.983a6.2,6.2,0,0,0-.541,2.258,4.693,4.693,0,0,0-.512.368,3.386,3.386,0,0,1,.1,1.439,2.554,2.554,0,0,1-.191.909c-.089.2-.227.391-.325.584a8.679,8.679,0,0,0-.839,3.458c-.07.718.209,1.591-.118,2.233a9.45,9.45,0,0,0-1.148,3.5,3.648,3.648,0,0,1-.1.818c-.07.227-.2.421-.261.643a2.742,2.742,0,0,0-.043.909,8.692,8.692,0,0,1-.48,3.208,4.37,4.37,0,0,0-.373,2.517,3.531,3.531,0,0,0-.962,2.11,3.336,3.336,0,0,1-.075.6,3.007,3.007,0,0,1-.271.582,5.092,5.092,0,0,0-.621,2.728,7.576,7.576,0,0,0-1.223,3.2c-.2,1.135-.293,2.289-.552,3.41a32.576,32.576,0,0,0-1.094,4.5,3.187,3.187,0,0,0-1.2,2.246,10.207,10.207,0,0,1-.523,2.562c-.187.414-.455.784-.632,1.205a5.422,5.422,0,0,0-.275,1.039,4.019,4.019,0,0,0-.068,1.705,2.565,2.565,0,0,1-.666.509c.034-.141.066-.284.089-.427-.587.534-1.648.348-2.119.987a.964.964,0,0,0,.227,1.316,1.855,1.855,0,0,0,.473.2,7.523,7.523,0,0,0,3.472.537,1.053,1.053,0,0,0,.393-.127,1.222,1.222,0,0,0,.366-.423l.525-.832a10.8,10.8,0,0,0,1.275.3q.064.543.089,1.091c.227.045.532.057.639-.152a.558.558,0,0,0,.041-.252c0-.164.02-.377.036-.6h.045a4.32,4.32,0,0,0,2.012-.409c-.246-2.012.557-3.981,1.255-5.886.734-2.005,1.364-4.049,2-6.091.455-1.435.959-2.828,1.4-4.265q.846-2.728,1.689-5.457c.248-.8.493-1.592.778-2.387a37.4,37.4,0,0,1,2.105-4.693c.227-.427.455-.853.643-1.3.227-.543.389-1.112.568-1.671a26.136,26.136,0,0,1,1.43-3.363l.041-.084c.184.753.37,1.519.491,2.274a8.579,8.579,0,0,1,.039,2.81,9.113,9.113,0,0,0-.289,1.9,11.781,11.781,0,0,0,.741,2.555,9.88,9.88,0,0,1,.257,1.955c.061,1.021.618,2.169.227,3.117-1.214,3-.625,6.4-1.321,9.549-.355,1.619-1.448,3.142-1.364,4.8q.091,1.762.309,3.515a3.276,3.276,0,0,0,.248,1.037,4.656,4.656,0,0,0,.312.507c-.1.041-.184.143-.255.359a1.364,1.364,0,0,0,.5,1.591,2.194,2.194,0,0,0,.655.227,3.563,3.563,0,0,0,.95.132,1.874,1.874,0,0,0,.3-.039,10.533,10.533,0,0,0,1.078.386,1.441,1.441,0,0,0,.027.28.334.334,0,0,0,.12.257.327.327,0,0,0,.182.034h1.235v-.309a1.007,1.007,0,0,0,.784-.257,1.158,1.158,0,0,0,.227-.471q.5-1.714,1.005-3.426a10.4,10.4,0,0,0,.352-1.476,10.078,10.078,0,0,0,.134-2.437c-.436-4.19.528-8.394.214-12.6a30.047,30.047,0,0,1,.387-7.555c.1-.564.227-1.137.273-1.7.1-1.06-.023-2.13.05-3.183.027-.368.077-.734.123-1.1a52.837,52.837,0,0,0,.532-6.857,21,21,0,0,0-.139-2.274,1.339,1.339,0,0,0,.618-.364,1.533,1.533,0,0,0,.15-.971,7.1,7.1,0,0,1,.609-2.326,28.04,28.04,0,0,0,.862-3.183,11.194,11.194,0,0,0,.382-2.671,1.862,1.862,0,0,0-.014-.275.681.681,0,0,0,.207-.227,1.274,1.274,0,0,0,.109-.421c.084-.582.166-1.162.25-1.744q.089-.625.18-1.25.361-2.519.721-5.043c.064-.439.125-.875.189-1.314l.186-1.3c.023-.155.043-.309.061-.466C825.693,425.39,825.161,424.151,825.1,423.1Zm-6.023,18.889a4.09,4.09,0,0,1-.455-1.976H818.6a1.031,1.031,0,0,0-.032-.641c-.07-.168-.191-.309-.266-.473a1.734,1.734,0,0,1-.123-.639,17.45,17.45,0,0,1,.323-4.122c.03-.161.061-.321.093-.482a1.218,1.218,0,0,0,.257-.2,1.859,1.859,0,0,0,.293-.455q.384-.773.709-1.576c.07-.175.173-.373.348-.416a9.735,9.735,0,0,1-.455,3.888,2.421,2.421,0,0,0-.227.614c-.05.336.091.682.041,1.019-.025.173-.1.337-.132.507a.5.5,0,0,0,.134.482.355.355,0,0,0,.1.052c-.014.091-.025.184-.032.273-.02.186-.027.361-.039.471a14.673,14.673,0,0,0-.064,1.671c0,.6.025,1.207.014,1.819a1.2,1.2,0,0,1-.086.516.883.883,0,0,1-.173.227C819.22,442.342,819.148,442.163,819.082,441.985Z" transform="translate(-627.736 -335.163)" fill="url(#linear-gradient)"/>
  <path id="Path_174" data-name="Path 174" d="M765.075,321.637l.764-.712-.682-.025-.357.546Z" transform="translate(-590.916 -247.94)" fill="#33313f"/>
  <path id="Path_175" data-name="Path 175" d="M741.84,328l.809-1.039.18-.186,2.478-2.594.843-.884.4-.045.568-.566.334.293-.552.646.011.339-.864.937-2.433,2.64-.157.168-.978.9Z" transform="translate(-573.176 -249.316)" fill="#65617d"/>
  <path id="Path_176" data-name="Path 176" d="M746.19,331.854l2.478-2.594.737.718-2.433,2.64Z" transform="translate(-576.537 -254.4)" fill="#33313f"/>
  <ellipse id="Ellipse_46" data-name="Ellipse 46" cx="1.282" cy="3.631" rx="1.282" ry="3.631" transform="matrix(0.98, -0.201, 0.201, 0.98, 170.677, 73.585)" fill="#fbbebe"/>
  <path id="Path_177" data-name="Path 177" d="M883.348,773.25a1.364,1.364,0,0,0,.5,1.578,2.236,2.236,0,0,0,.655.227,3.529,3.529,0,0,0,.946.132c.4-.02.773-.173,1.164-.227a.191.191,0,0,1,.134.02.2.2,0,0,1,.052.157,6,6,0,0,0,.05.671.257.257,0,0,0,.3.289h1.23a11.816,11.816,0,0,0-.357-3.215.7.7,0,0,0-.091-.227.725.725,0,0,0-.391-.227,2.209,2.209,0,0,0-.955-.166,2.773,2.773,0,0,0-1.069.523,1.616,1.616,0,0,1-1.212.291C883.9,772.964,883.557,772.618,883.348,773.25Z" transform="translate(-699.365 -619.728)" fill="#3f3d56"/>
  <path id="Path_178" data-name="Path 178" d="M798.819,770.636a3.392,3.392,0,0,1-1.241.844l-.211.1a.114.114,0,0,0-.068.057.123.123,0,0,0,.02.1,1.476,1.476,0,0,0,1.669.607.893.893,0,0,0,.368-.191,1.218,1.218,0,0,0,.282-.734,1.534,1.534,0,0,0-.034-.837C799.294,769.872,799.178,770.2,798.819,770.636Z" transform="translate(-632.938 -618.112)" fill="#fbbebe"/>
  <path id="Path_179" data-name="Path 179" d="M798.843,773.883a.527.527,0,0,1-.041.252c-.1.209-.4.2-.637.152a15.3,15.3,0,0,0-.277-2.3c-.441-.02-.762.4-1,.773l-.609.969a1.234,1.234,0,0,1-.366.421,1.058,1.058,0,0,1-.391.127,7.514,7.514,0,0,1-3.463-.537,1.886,1.886,0,0,1-.471-.2.959.959,0,0,1-.227-1.314c.468-.637,1.528-.455,2.112-.982a5.155,5.155,0,0,1-.3,1.085c.787-.118,1.312-.837,1.946-1.316a1.157,1.157,0,0,1,.555-.266,1.225,1.225,0,0,1,.455.05,5.316,5.316,0,0,1,2,.984,2.157,2.157,0,0,1,.716.746A5.634,5.634,0,0,1,798.843,773.883Z" transform="translate(-628.229 -618.558)" fill="#3f3d56"/>
  <circle id="Ellipse_47" data-name="Ellipse 47" cx="4.697" cy="4.697" r="4.697" transform="translate(181.558 70.913)" fill="#fbbebe"/>
  <path id="Path_180" data-name="Path 180" d="M917.747,550.911a11.107,11.107,0,0,1-.382,2.662,27.318,27.318,0,0,1-.857,3.183,7.01,7.01,0,0,0-.609,2.319,1.559,1.559,0,0,1-.148.969,1.442,1.442,0,0,1-.666.38.827.827,0,0,0-.557.5,3.476,3.476,0,0,1-.475-1.039q-.609-1.873-1.137-3.767a.489.489,0,0,1,.03-.455.542.542,0,0,1,.2-.111,2.048,2.048,0,0,0,.628-.407.93.93,0,0,0,.211-.268,1.205,1.205,0,0,0,.086-.516c0-.6,0-1.2-.014-1.8a15.085,15.085,0,0,1,.061-1.667c0-.111.02-.284.039-.471.034-.359.1-.771.3-.909.286-.2,1.15.066,1.48.109.564.08,1.125.171,1.685.277A4.623,4.623,0,0,1,917.747,550.911Z" transform="translate(-722.239 -447.565)" fill="#3f3d56"/>
  <path id="Path_181" data-name="Path 181" d="M833.406,441.088c-.182.364-.619.537-.955.768l-1.153.791a.778.778,0,0,1-.568.2.75.75,0,0,1-.425-.4l-.014-.02-.227-.4-1.137-1.905a1.106,1.106,0,0,1-.212-.589,2.468,2.468,0,0,1,.046-.284,1.407,1.407,0,0,0-.227-.773c-.091-.173-.275-.311-.268-.5a1.789,1.789,0,0,1,.127-.737,1.5,1.5,0,0,1,.5-.532c.107-.077.227-.15.33-.227a.659.659,0,0,1,.2-.089c.186-.039.373.116.564.123.823.55,1.137,1.591,1.785,2.344.364.425.4.753.812,1.137a2.13,2.13,0,0,1,.189.189,1.215,1.215,0,0,1,.207.3C833.047,440.67,833.5,440.9,833.406,441.088Z" transform="translate(-656.866 -360.217)" fill="#3f3d56"/>
  <path id="Path_182" data-name="Path 182" d="M879.148,442.945a4.233,4.233,0,0,1,.5,2.29,1.437,1.437,0,0,1-.2.6,1.956,1.956,0,0,1-1.614.623.953.953,0,0,0-.7.227.632.632,0,0,0,.043.778,1.7,1.7,0,0,0,.7.455,6.1,6.1,0,0,0,2.994.664c.477-.045.941-.182,1.417-.252a14.238,14.238,0,0,1,1.55-.08c.618-.023,1.235-.084,1.851-.146l1.63-.161a.359.359,0,0,0,.243-.089c.123-.141-.034-.348-.182-.455-.869-.643-1.971-1.082-2.462-2.046a11.929,11.929,0,0,1-.468-1.487,12.07,12.07,0,0,1-.539-1.435,9.443,9.443,0,0,1-.075-1.321,1.76,1.76,0,0,0-.455-1.21,1.9,1.9,0,0,0-1.237-.4,4.018,4.018,0,0,0-3.015.98c-.207.207-.382.443-.6.641s-.5.241-.362.487.416.4.566.614A5.08,5.08,0,0,1,879.148,442.945Z" transform="translate(-694.546 -362.624)" fill="#fbbebe"/>
  <path id="Path_183" data-name="Path 183" d="M871.716,463.851a26.062,26.062,0,0,1-1.382,5.122,18.909,18.909,0,0,0-.818,2.3c-.177.7-.141,1.46-.3,2.167-.2.878-.4,1.762-.562,2.649a17.351,17.351,0,0,0-.323,4.111,1.732,1.732,0,0,0,.123.637c.075.164.2.3.266.471a1.121,1.121,0,0,1-.061.909,2.66,2.66,0,0,1-.468.712c-2.121.632-4.386.423-6.593.557-2.046.125-4.092.543-6.1.193a4.807,4.807,0,0,1,.477-2.746c.941-2.576,1.987-5.259,1.819-7.958a8.2,8.2,0,0,0-.109-.937,12.491,12.491,0,0,1,.6-5.748,9.759,9.759,0,0,0,.259-3.588,6.522,6.522,0,0,1-.016-1.173,2.1,2.1,0,0,1,.427-1.1l.034-.048c.025-.039.1-.016.168,0h0a.148.148,0,0,0,.114,0,.053.053,0,0,1,.025-.016.064.064,0,0,1,.066,0c.052.034.08.141.193.161a4.534,4.534,0,0,0,.507.05,2.713,2.713,0,0,1,.6.086h.027a1.8,1.8,0,0,0,.882-.075,2.36,2.36,0,0,0,.541-.209,3.773,3.773,0,0,1,.427-.143c.209-.127.164-.714.207-.953a2.617,2.617,0,0,1,.168-.7,1.2,1.2,0,0,1,.973-.566,4.952,4.952,0,0,1,1.169.1c.846.121,1.714.1,2.549.293a1.9,1.9,0,0,0,1.26.057c.1.023.118.116.118.227a1.246,1.246,0,0,1-.064.311c-.143.628.35,1.2.8,1.66a2.623,2.623,0,0,0,.682.534c.227.1.455.148.682.262a1.205,1.205,0,0,1,.455.416,1.687,1.687,0,0,1,.259.662A3.94,3.94,0,0,1,871.716,463.851Z" transform="translate(-677.852 -376.927)" fill="#3f3d56"/>
  <path id="Path_184" data-name="Path 184" d="M878.961,471.855a26.061,26.061,0,0,1-1.382,5.122,18.927,18.927,0,0,0-.818,2.3c-.177.7-.141,1.46-.3,2.167-.2.878-.4,1.762-.562,2.649-.048.027-.1.05-.146.073a3.523,3.523,0,0,1-.891.289,5.546,5.546,0,0,1-1.667-.055l-3.251-.425a6.517,6.517,0,0,1-3.638-1.262,7.715,7.715,0,0,1-1.266-1.735,8.213,8.213,0,0,0-.109-.937,12.491,12.491,0,0,1,.6-5.748,9.755,9.755,0,0,0,.259-3.588,6.527,6.527,0,0,1-.016-1.173,2.1,2.1,0,0,1,.427-1.1,1.736,1.736,0,0,1,.2-.048h0a.957.957,0,0,1,.139-.016h.066a.991.991,0,0,1,.227.027c.152.039.293.12.443.175h.027a1.806,1.806,0,0,0,.6.086c.3,0,.609-.05.909-.068a1.674,1.674,0,0,1,1.078.191,6.241,6.241,0,0,1,.6.55,2.7,2.7,0,0,0,.759.412,8.03,8.03,0,0,0,6.05-.13,1.21,1.21,0,0,1,.607-.152,1.166,1.166,0,0,1,.439.184c.134.08.271.157.407.227a1.685,1.685,0,0,1,.259.662A3.941,3.941,0,0,1,878.961,471.855Z" transform="translate(-685.096 -384.931)" opacity="0.1"/>
  <path id="Path_185" data-name="Path 185" d="M874.293,468.815a11.946,11.946,0,0,1-2.59-1.137,1.151,1.151,0,0,0-.439-.186,1.19,1.19,0,0,0-.607.155,8.042,8.042,0,0,1-6.05.127,2.643,2.643,0,0,1-.759-.411,6.5,6.5,0,0,0-.6-.55c-.748-.484-1.783.086-2.622-.227a4.617,4.617,0,0,0-.443-.175c-.662-.164-1.335.493-1.987.3a10.782,10.782,0,0,0-.532,2.028,22.044,22.044,0,0,0-.148,2.392c-.014.477-.025.957,0,1.437a.6.6,0,0,1,.4.259.577.577,0,0,1-.039.487,18.526,18.526,0,0,1-1.678,3.551,7.466,7.466,0,0,1,1.405,1.073c.8.841,1.187,2.019,2.046,2.8a6.579,6.579,0,0,0,3.638,1.264l3.247.446a5.544,5.544,0,0,0,1.667.055,3.521,3.521,0,0,0,.891-.289,1.594,1.594,0,0,0,.5-.327,1.873,1.873,0,0,0,.293-.455c.255-.514.491-1.039.7-1.571.077-.189.191-.411.4-.425,1.2-1.087,2.342-2.2,3.545-3.288a7.852,7.852,0,0,0,1.294-1.364c.6-.884.055-2.139,0-3.206a3.927,3.927,0,0,0-.1-.814A2.67,2.67,0,0,0,874.293,468.815Z" transform="translate(-678.451 -383.397)" fill="#6c63ff"/>
  <path id="Path_186" data-name="Path 186" d="M840.335,453.853c-.182.364-.618.537-.955.768l-1.153.791a.777.777,0,0,1-.568.2.751.751,0,0,1-.425-.4v-.164a1.511,1.511,0,0,1,.073-.543,1.714,1.714,0,0,1,.509-.655,4.126,4.126,0,0,1,1.494-.909.5.5,0,0,1,.275-.027.346.346,0,0,1,.1.043,1.215,1.215,0,0,1,.207.3C839.976,453.435,840.43,453.667,840.335,453.853Z" transform="translate(-663.795 -372.982)" opacity="0.1"/>
  <path id="Path_187" data-name="Path 187" d="M844,456.73a1.647,1.647,0,0,1-.982-.566l-.864-.814a.818.818,0,0,1-.15-.168,1.2,1.2,0,0,1-.1-.277,3.26,3.26,0,0,0-.837-1.2.589.589,0,0,0-.25-.18.5.5,0,0,0-.275.03,4.125,4.125,0,0,0-1.494.909,1.68,1.68,0,0,0-.509.655,1.513,1.513,0,0,0-.073.543,4.175,4.175,0,0,0,.4,1.746c.041.084.082.168.127.25a8.166,8.166,0,0,0,1.069,1.387l.541.607c.532.593,1.064,1.189,1.644,1.739a2.16,2.16,0,0,0,.734.514.821.821,0,0,0,.846-.139,1.188,1.188,0,0,0,.241-.432,8.437,8.437,0,0,0,.7-2.833,10.132,10.132,0,0,0-.048-1.175C844.68,456.91,844.389,456.748,844,456.73Z" transform="translate(-664.745 -373.455)" fill="#6c63ff"/>
  <path id="Path_188" data-name="Path 188" d="M830.716,572.132a52.548,52.548,0,0,1-.484,6.837c-.045.364-.1.73-.121,1.1-.075,1.06.046,2.128-.052,3.183-.055.568-.171,1.137-.273,1.694a30,30,0,0,0-.384,7.535c.312,4.19-.648,8.383-.214,12.562a10.137,10.137,0,0,1-.132,2.431,10.57,10.57,0,0,1-.352,1.471q-.5,1.71-1,3.41a1.193,1.193,0,0,1-.227.471,1.071,1.071,0,0,1-.853.255,9.827,9.827,0,0,1-3.736-1.162,1.223,1.223,0,0,1-.375-.227c-.248-.257-.227-.664-.337-1a10.03,10.03,0,0,0-.575-1.007,3.4,3.4,0,0,1-.248-1.032q-.227-1.748-.309-3.506c-.084-1.651,1.005-3.169,1.364-4.775.693-3.156.107-6.539,1.319-9.535.38-.943-.173-2.089-.227-3.108a9.67,9.67,0,0,0-.255-1.951,12.135,12.135,0,0,1-.739-2.546,9.1,9.1,0,0,1,.289-1.9,8.638,8.638,0,0,0-.039-2.8c-.12-.764-.307-1.528-.491-2.274l-.041.084a25.689,25.689,0,0,0-1.425,3.354c-.18.557-.341,1.123-.568,1.667-.186.455-.414.868-.639,1.3a37.007,37.007,0,0,0-2.1,4.679c-.282.787-.528,1.592-.775,2.38q-.839,2.728-1.682,5.457c-.443,1.435-.955,2.822-1.4,4.254-.63,2.046-1.259,4.074-1.992,6.073-.7,1.9-1.5,3.865-1.253,5.873a4.318,4.318,0,0,1-2.005.407,11.773,11.773,0,0,1-3.41-.83,2.616,2.616,0,0,1-1.175-.7,2.773,2.773,0,0,1-.227-2.3,5.367,5.367,0,0,1,.275-1.037c.171-.421.443-.791.63-1.2a10.034,10.034,0,0,0,.523-2.556,3.155,3.155,0,0,1,1.191-2.239,31.981,31.981,0,0,1,1.091-4.486c.259-1.121.346-2.274.548-3.41a7.362,7.362,0,0,1,1.223-3.183,5.071,5.071,0,0,1,.616-2.728,2.925,2.925,0,0,0,.271-.58,3.3,3.3,0,0,0,.075-.6,3.533,3.533,0,0,1,.957-2.105,4.291,4.291,0,0,1,.373-2.5,8.609,8.609,0,0,0,.477-3.2,2.8,2.8,0,0,1,.046-.909c.064-.227.189-.421.259-.641a3.377,3.377,0,0,0,.1-.816,9.484,9.484,0,0,1,1.137-3.485c.325-.641.048-1.512.118-2.228a8.649,8.649,0,0,1,.834-3.449,5.909,5.909,0,0,0,.325-.584,2.483,2.483,0,0,0,.189-.909,3.339,3.339,0,0,0-.093-1.435,7.274,7.274,0,0,1,4.458-1.353,26.477,26.477,0,0,0,4.731-.264c.455-.1.909-.243,1.389-.312a8.985,8.985,0,0,1,3.269.336,4,4,0,0,0,.443,1.971A21.161,21.161,0,0,1,830.716,572.132Z" transform="translate(-637.683 -457.027)" fill="#33313f"/>
  <path id="Path_189" data-name="Path 189" d="M889.192,609.91l-2.61,5.875c-.12-.764-.307-1.528-.491-2.274l-.041.084.011-.123,1.423-3.133Z" transform="translate(-701.514 -494.291)" opacity="0.1"/>
  <path id="Path_190" data-name="Path 190" d="M922.1,550.888a1.03,1.03,0,0,1-.518.193,2.594,2.594,0,0,1-.853-.116l-2.035-.516a.859.859,0,0,1-.186-.064c.034-.359.1-.771.3-.909.286-.2,1.15.066,1.48.109.564.08,1.125.17,1.685.277A4.622,4.622,0,0,1,922.1,550.888Z" transform="translate(-726.594 -447.542)" opacity="0.1"/>
  <path id="Path_191" data-name="Path 191" d="M923.112,493.963c.045.189.107.375.141.566a4.359,4.359,0,0,1-.045,1.405l-.187,1.3-.186,1.31-.721,5.031-.18,1.246-.248,1.739a1.326,1.326,0,0,1-.109.418.878.878,0,0,1-.714.421,2.589,2.589,0,0,1-.85-.116l-2.035-.514a.643.643,0,0,1-.248-.1.5.5,0,0,1-.134-.48c.03-.173.1-.334.132-.507.05-.336-.093-.682-.041-1.016a2.369,2.369,0,0,1,.227-.614c.682-1.507.286-3.265.518-4.9a7.421,7.421,0,0,1,1.555-3.513,9.891,9.891,0,0,1,1.739-1.707,3.521,3.521,0,0,1,.98-.682C923.132,493.161,923.046,493.677,923.112,493.963Z" transform="translate(-725.875 -404.145)" fill="#6c63ff"/>
  <path id="Path_192" data-name="Path 192" d="M866.6,406.366c-.15.475.084,1-.023,1.489-.118.537-.621.909-.764,1.448-.227.821.468,1.569.975,2.251,1.887,2.531,1.639,6.036.994,9.128a46.884,46.884,0,0,1-2.148,7.276,5.587,5.587,0,0,1-1.155,2.03,5.982,5.982,0,0,1,3.206-.311c1.328.368,2.474,1.657,3.817,1.364.812-.182,1.378-.909,2.108-1.3,1.364-.734,3.006-.273,4.529-.039a1.739,1.739,0,0,0,.989-.05,1.656,1.656,0,0,0,.6-.55,5.609,5.609,0,0,0,1.166-3.024,3.865,3.865,0,0,0-1.116-2.985,6.484,6.484,0,0,1-.955-.909,2.788,2.788,0,0,1-.375-1.378c-.182-2.5.427-5.052-.2-7.471a18.4,18.4,0,0,1-.7-2.571c-.125-1.1.175-2.274-.261-3.279a3.225,3.225,0,0,0-1.917-1.653,9.6,9.6,0,0,0-2.556-.455C871.571,405.272,867.122,404.74,866.6,406.366Z" transform="translate(-684.848 -336.133)" fill="#33313f"/>
  <g id="Group_39" data-name="Group 39" transform="translate(179.632 69.711)" opacity="0.1">
    <path id="Path_193" data-name="Path 193" d="M871.737,432.171a47.049,47.049,0,0,1-2.137,7.246c.157-.311.291-.639.416-.964a46.912,46.912,0,0,0,2.149-7.275c.646-3.09.894-6.593-.994-9.128a3.534,3.534,0,0,1-1.016-1.969,2.385,2.385,0,0,0-.387.716c-.227.821.468,1.569.975,2.251C872.633,425.573,872.385,429.079,871.737,432.171Z" transform="translate(-868.436 -417.331)"/>
    <path id="Path_194" data-name="Path 194" d="M873.637,409.77a2.274,2.274,0,0,0,.4-.766,3.9,3.9,0,0,0-.027-1.014,1.1,1.1,0,0,0-.377.523A4.75,4.75,0,0,0,873.637,409.77Z" transform="translate(-871.511 -407.99)"/>
    <path id="Path_195" data-name="Path 195" d="M880.156,503.2a1.668,1.668,0,0,1-.6.552,1.731,1.731,0,0,1-.987.05c-1.523-.227-3.183-.7-4.529.039-.73.4-1.3,1.114-2.108,1.294-1.346.3-2.5-.987-3.82-1.364a5.333,5.333,0,0,0-2.881.227,3.975,3.975,0,0,1-.75,1.089,5.982,5.982,0,0,1,3.206-.312c1.328.368,2.474,1.657,3.817,1.364.809-.182,1.378-.909,2.108-1.3,1.364-.734,3.006-.273,4.529-.039a1.739,1.739,0,0,0,.989-.05,1.656,1.656,0,0,0,.6-.55,6.251,6.251,0,0,0,.941-1.8A6.67,6.67,0,0,1,880.156,503.2Z" transform="translate(-864.48 -480.935)"/>
  </g>
  <path id="Path_196" data-name="Path 196" d="M978.687,676.92s1.348,1.764-.621,4.427-3.6,4.913-2.94,6.568c0,0,2.974-4.945,5.393-5S981.35,679.894,978.687,676.92Z" transform="translate(-770.224 -546.066)" fill="#6c63ff"/>
  <path id="Path_197" data-name="Path 197" d="M978.943,676.92a2.143,2.143,0,0,1,.275.555c2.362,2.774,3.62,5.361,1.351,5.427-2.115.061-4.65,3.84-5.259,4.795.02.075.045.146.073.227,0,0,2.974-4.945,5.393-5S981.605,679.894,978.943,676.92Z" transform="translate(-770.48 -546.066)" opacity="0.1"/>
  <path id="Path_198" data-name="Path 198" d="M1001.261,685.458c0,.621-.07,1.123-.157,1.123s-.155-.5-.155-1.123.086-.33.173-.33S1001.261,684.837,1001.261,685.458Z" transform="translate(-790.29 -552.355)" fill="#ffd037"/>
  <path id="Path_199" data-name="Path 199" d="M1002.482,688.586c-.546.3-1.021.475-1.062.4s.368-.377.909-.682.332-.08.373,0S1003.028,688.288,1002.482,688.586Z" transform="translate(-790.652 -554.741)" fill="#ffd037"/>
  <path id="Path_200" data-name="Path 200" d="M949.713,676.92s-1.348,1.764.623,4.427,3.595,4.909,2.938,6.568c0,0-2.974-4.945-5.393-5S947.044,679.894,949.713,676.92Z" transform="translate(-748.364 -546.066)" fill="#6c63ff"/>
  <path id="Path_201" data-name="Path 201" d="M949.713,676.92a2.139,2.139,0,0,0-.275.555c-2.362,2.774-3.62,5.361-1.351,5.427,2.114.061,4.652,3.84,5.259,4.795-.021.075-.046.146-.073.227,0,0-2.974-4.945-5.393-5S947.044,679.894,949.713,676.92Z" transform="translate(-748.364 -546.066)" opacity="0.1"/>
  <path id="Path_202" data-name="Path 202" d="M949,685.458c0,.621.068,1.123.155,1.123s.155-.5.155-1.123-.086-.33-.173-.33S949,684.837,949,685.458Z" transform="translate(-750.152 -552.355)" fill="#ffd037"/>
  <path id="Path_203" data-name="Path 203" d="M944.036,688.586c.546.3,1.021.475,1.062.4s-.368-.377-.909-.682-.33-.08-.373,0S943.492,688.288,944.036,688.586Z" transform="translate(-746.06 -554.741)" fill="#ffd037"/>
  <path id="Path_204" data-name="Path 204" d="M958.22,712.025l-.066.55-.1.778-.039.323-.1.78-.041.323-.093.778-1.08,8.844c-.1.789-1.387,1.405-2.942,1.405h-5.607c-1.555,0-2.844-.616-2.94-1.405l-1.08-8.844-.1-.778-.039-.323-.1-.78-.039-.323-.093-.778-.068-.55c-.055-.455.643-.825,1.523-.825H956.7C957.576,711.2,958.277,711.577,958.22,712.025Z" transform="translate(-746.062 -572.552)" fill="#444053"/>
  <path id="Path_205" data-name="Path 205" d="M884,615.87l-.1.775H869.713l-.093-.775Z" transform="translate(-671.904 -475.846)" fill="#9d9cb5"/>
  <path id="Path_206" data-name="Path 206" d="M884.318,620.71l-.1.778H870.305l-.1-.778Z" transform="translate(-672.36 -479.586)" fill="#9d9cb5"/>
  <path id="Path_207" data-name="Path 207" d="M884.637,625.56l-.093.778H870.9l-.1-.778Z" transform="translate(-672.816 -483.333)" fill="#9d9cb5"/>
</svg>
