<svg xmlns="http://www.w3.org/2000/svg" width="247.601" height="151.549" viewBox="0 0 247.601 151.549">
  <g id="card6_icn" transform="translate(0 0)">
    <path id="Path_368" data-name="Path 368" d="M854.215,481.21l-2.65-2.228.249-.3.249.209a.954.954,0,0,1-.021-.421.85.85,0,0,1,.2-.381.989.989,0,0,1,.49-.327,1.013,1.013,0,0,1,.594.016,1.7,1.7,0,0,1,.585.328,1.673,1.673,0,0,1,.441.551,1.04,1.04,0,0,1,.1.61,1.028,1.028,0,0,1-.23.529.8.8,0,0,1-.313.234.868.868,0,0,1-.351.066l.933.784Zm-1.434-1.708a1.089,1.089,0,0,0,.673.31.6.6,0,0,0,.482-.214.614.614,0,0,0,.129-.525,1.135,1.135,0,0,0-.438-.631,1.105,1.105,0,0,0-.675-.31.593.593,0,0,0-.485.207.611.611,0,0,0-.115.53,1.133,1.133,0,0,0,.43.634Z" transform="translate(-659.241 -394.402)" fill="#3f3d56"/>
    <path id="Path_369" data-name="Path 369" d="M859.273,472.531l-.407-1.537-1.465-.126.341-.406.7.084q.2.025.327.047-.052-.179-.088-.324l-.181-.7.326-.388.345,1.421,1.613.14-.335.4-.926-.107-.249-.03.333,1.139Z" transform="translate(-663.488 -388.179)" fill="#3f3d56"/>
    <rect id="Rectangle_87" data-name="Rectangle 87" width="2.724" height="2.724" transform="translate(186.208 91.606) rotate(-49.946)" fill="#3f3d56"/>
    <rect id="Rectangle_88" data-name="Rectangle 88" width="2.724" height="2.724" transform="translate(189.012 88.27) rotate(-49.946)" fill="#3f3d56"/>
    <path id="Path_370" data-name="Path 370" d="M854.215,481.21l-2.65-2.228.249-.3.249.209a.954.954,0,0,1-.021-.421.85.85,0,0,1,.2-.381.989.989,0,0,1,.49-.327,1.013,1.013,0,0,1,.594.016,1.7,1.7,0,0,1,.585.328,1.673,1.673,0,0,1,.441.551,1.04,1.04,0,0,1,.1.61,1.028,1.028,0,0,1-.23.529.8.8,0,0,1-.313.234.868.868,0,0,1-.351.066l.933.784Zm-1.434-1.708a1.089,1.089,0,0,0,.673.31.6.6,0,0,0,.482-.214.614.614,0,0,0,.129-.525,1.135,1.135,0,0,0-.438-.631,1.105,1.105,0,0,0-.675-.31.593.593,0,0,0-.485.207.611.611,0,0,0-.115.53,1.133,1.133,0,0,0,.43.634Z" transform="translate(-659.241 -394.402)" fill="#3f3d56"/>
    <path id="Path_371" data-name="Path 371" d="M859.273,472.531l-.407-1.537-1.465-.126.341-.406.7.084q.2.025.327.047-.052-.179-.088-.324l-.181-.7.326-.388.345,1.421,1.613.14-.335.4-.926-.107-.249-.03.333,1.139Z" transform="translate(-663.488 -388.179)" fill="#3f3d56"/>
    <rect id="Rectangle_89" data-name="Rectangle 89" width="2.724" height="2.724" transform="translate(186.208 91.606) rotate(-49.946)" fill="#3f3d56"/>
    <rect id="Rectangle_90" data-name="Rectangle 90" width="2.724" height="2.724" transform="translate(189.012 88.27) rotate(-49.946)" fill="#3f3d56"/>
    <rect id="Rectangle_91" data-name="Rectangle 91" width="247.601" height="0.545" transform="translate(0 151.005)" fill="#3f3d56"/>
    <circle id="Ellipse_92" data-name="Ellipse 92" cx="3.108" cy="3.108" r="3.108" transform="translate(128.475 19.342)" fill="#f2f2f2"/>
    <path id="Path_372" data-name="Path 372" d="M315.333,243.01a6,6,0,0,0-3.9-5.532,5.993,5.993,0,1,0-4.341.058,5.99,5.99,0,0,0,.149,11.167,5.993,5.993,0,1,0,4.341-.058A6,6,0,0,0,315.333,243.01ZM303.744,232a5.448,5.448,0,1,1,6.747,5.213,6,6,0,0,0-2.458.033A5.453,5.453,0,0,1,303.744,232Zm11.193,22.188a5.448,5.448,0,1,1-6.747-5.213,6,6,0,0,0,2.458-.033A5.453,5.453,0,0,1,314.937,254.184Zm-4.3-5.808a6,6,0,0,0-2.458.033,5.442,5.442,0,0,1-.142-10.6,6,6,0,0,0,2.458-.033,5.442,5.442,0,0,1,.142,10.6Z" transform="translate(-260.243 -211.189)" fill="#f2f2f2"/>
    <path id="Path_373" data-name="Path 373" d="M94.165,198.825h-4.5v56.984h28.59v-4.5H94.165Z" transform="translate(-65.238 -144.667)" fill="#6c63ff"/>
    <path id="Path_374" data-name="Path 374" d="M385.6,370.64h-4.5v56.984h28.59V370.64Zm19.582,52.481H385.6V375.144h19.582Z" transform="translate(-316.925 -316.482)" fill="#6c63ff"/>
    <path id="Path_375" data-name="Path 375" d="M711.8,371H687.716v56.984h28.59V371Zm0,52.481H692.22V375.5H711.8Z" transform="translate(-540.023 -316.743)" fill="#6c63ff"/>
    <path id="Path_376" data-name="Path 376" d="M404.547,227.579h-3.721v4.5h3.721v19.582H384.965V203.689h24.086v-4.5h-28.59v56.984h28.59V232.083h3.721v-4.5h-8.225Z" transform="translate(-276.828 -144.929)" fill="#6c63ff"/>
    <rect id="Rectangle_92" data-name="Rectangle 92" width="1.448" height="0.483" transform="translate(41.098 49.089)" fill="#3f3d56"/>
    <path id="Path_377" data-name="Path 377" d="M422.265,352.515H419.3v-.483h2.965Zm-5.929,0h-2.964v-.483h2.964Zm-5.929,0h-2.965v-.483h2.964Zm-5.929,0h-2.964v-.483h2.964Zm-5.929,0h-2.965v-.483h2.964Zm-5.929,0h-2.965v-.483h2.964Zm-5.929,0h-2.964v-.483h2.964Zm-5.929,0H377.8v-.483h2.964Zm-5.929,0H371.87v-.483h2.964Zm-5.929,0h-2.964v-.483h2.964Zm-5.929,0h-2.965v-.483h2.964Zm-5.929,0h-2.965v-.483h2.964Zm-5.929,0h-2.964v-.483h2.964Zm-5.929,0h-2.965v-.483h2.965Zm-5.929,0H336.3v-.483h2.964Zm-5.929,0h-2.964v-.483h2.964Zm-5.929,0h-2.964v-.483H327.4Zm-5.929,0H318.51v-.483h2.964Zm-5.929,0h-2.965v-.483h2.964Z" transform="translate(-267.07 -302.942)" fill="#3f3d56"/>
    <rect id="Rectangle_93" data-name="Rectangle 93" width="1.448" height="0.483" transform="translate(158.16 49.089)" fill="#3f3d56"/>
    <rect id="Rectangle_94" data-name="Rectangle 94" width="0.483" height="1.448" transform="translate(180.908 61.64)" fill="#3f3d56"/>
    <path id="Path_378" data-name="Path 378" d="M810.138,447.69h-.483v-3.017h.483Zm0-6.034h-.483v-3.017h.483Zm0-6.034h-.483V432.6h.483Zm0-6.034h-.483V426.57h.483Zm0-6.034h-.483v-3.017h.483Zm0-6.034h-.483V414.5h.483Z" transform="translate(-628.747 -348.397)" fill="#3f3d56"/>
    <rect id="Rectangle_95" data-name="Rectangle 95" width="0.483" height="1.448" transform="translate(180.908 102.31)" fill="#3f3d56"/>
    <rect id="Rectangle_96" data-name="Rectangle 96" width="0.483" height="100.407" transform="translate(24.263 32.496)" fill="#f2f2f2"/>
    <rect id="Rectangle_97" data-name="Rectangle 97" width="0.483" height="100.407" transform="translate(176.081 32.435)" fill="#f2f2f2"/>
    <rect id="Rectangle_98" data-name="Rectangle 98" width="200.332" height="0.483" transform="translate(0.187 110.878)" fill="#f2f2f2"/>
    <rect id="Rectangle_99" data-name="Rectangle 99" width="200.332" height="0.483" transform="translate(0.127 53.917)" fill="#f2f2f2"/>
    <path id="Path_379" data-name="Path 379" d="M926.257,264.834a2.123,2.123,0,0,1-.187.99,2.207,2.207,0,0,1-.753.7l-2.2,1.484c-.649.438-1.382,1.213-.966,1.876a1.43,1.43,0,0,0,.628.475,16.259,16.259,0,0,0,7.325,1.248,8.836,8.836,0,0,0,4.611-1.015,12.479,12.479,0,0,1,1.9-1.24c.488-.194,1.122-.335,1.247-.845.169-.691-.74-1.074-1.4-1.348a5.328,5.328,0,0,1-2.839-3.394,13.006,13.006,0,0,1-.389-4.528.828.828,0,0,0-.14-.626.805.805,0,0,0-.517-.181,27.3,27.3,0,0,0-4.558-.077,3.185,3.185,0,0,0-1.613.42c-.924.633-.4,1.706-.3,2.6a26.925,26.925,0,0,1,.149,3.461Z" transform="translate(-710.511 -234.739)" fill="#9f616a"/>
    <path id="Path_380" data-name="Path 380" d="M960.793,171.815a5.276,5.276,0,0,1-3.272,1.714c-2.182.312-.467,3.74-.467,3.74a1.97,1.97,0,0,1,.623-2.337C958.923,173.841,960.793,173.217,960.793,171.815Z" transform="translate(-735.53 -171.815)" fill="#2f2e41"/>
    <circle id="Ellipse_93" data-name="Ellipse 93" cx="2.69" cy="2.69" r="2.69" transform="translate(218.368 3.481)" fill="#2f2e41"/>
    <path id="Path_381" data-name="Path 381" d="M948.406,194.269a19.043,19.043,0,0,0-7.552-1.878l.481-1.837a14.757,14.757,0,0,0,7.552,1.878Z" transform="translate(-724.209 -185.45)" fill="#6c63ff"/>
    <circle id="Ellipse_94" data-name="Ellipse 94" cx="9.652" cy="9.652" r="9.652" transform="translate(208.557 6.804)" fill="#2f2e41"/>
    <rect id="Rectangle_100" data-name="Rectangle 100" width="4.43" height="7.595" transform="translate(210.852 137.262)" fill="#9f616a"/>
    <rect id="Rectangle_101" data-name="Rectangle 101" width="4.43" height="7.595" transform="translate(223.668 137.262)" fill="#9f616a"/>
    <path id="Path_382" data-name="Path 382" d="M764.287,205.074l-2.145,7.159,21.766.436-1.741-7.6-5.7-3.8Z" transform="translate(-554.543 -146.451)" fill="#9f616a"/>
    <circle id="Ellipse_95" data-name="Ellipse 95" cx="6.962" cy="6.962" r="6.962" transform="translate(210.377 13.687)" fill="#9f616a"/>
    <path id="Path_383" data-name="Path 383" d="M862.351,353.1a9.862,9.862,0,0,0-.7,3.9c.062,1.546.543,3.524.243,4.865-1.161,5.189-2.883,12.9-6,17.1-.731.987-2.16,1.53-3.244,2.278a7.041,7.041,0,0,0-2.7,2.887,8.041,8.041,0,0,0-.407,3.445,2.21,2.21,0,0,0,.64,1.8.612.612,0,0,0,.374-.595c.028-.265-.025-.535.02-.808a1.652,1.652,0,0,1,.875-1.123c2.542-1.571,5.262-2.942,6.609-5.676a43.6,43.6,0,0,1,4.193-7.582,20.153,20.153,0,0,0,1.433-1.912,14.925,14.925,0,0,0,1.583-3.9,50.762,50.762,0,0,0,1.309-8.8c.116-1.493.108-3.092-1.025-4.057C864.509,354.032,863.233,354.145,862.351,353.1Z" transform="translate(-657.76 -303.718)" fill="#9f616a"/>
    <path id="Path_384" data-name="Path 384" d="M999.787,340.8a11.274,11.274,0,0,1,.361,4.047c-.153,1.647-.669,3.288-.437,4.925.9,6.336-.081,12.89.422,19.269.118,1.5.6,3.155.686,4.655a7.7,7.7,0,0,1-.852,4.359,10.532,10.532,0,0,1-2.392,2.539c-.491.417-1.138.861-1.727.6a.607.607,0,0,1,.153-.7c.176-.188.407-.319.568-.519a2.012,2.012,0,0,0,.264-1.426c-.207-2.938-.639-5.949.163-8.783a16.117,16.117,0,0,0-.506-8.731c-.218-.754-.5-1.489-.691-2.25a18.84,18.84,0,0,1-.4-4.055l-.224-8.395c-.038-1.43.049-3.117,1.241-3.907C997.518,341.695,998.918,341.8,999.787,340.8Z" transform="translate(-763.727 -294.77)" fill="#9f616a"/>
    <path id="Path_385" data-name="Path 385" d="M917.2,402.483a15.955,15.955,0,0,1-9.462,2.548,12.646,12.646,0,0,1-5.95-.842l-6.153-2.1c-4.353,10.453-6.064,22.036-3.7,33.11.86,4.032-.041,8.208-.039,12.331a40.663,40.663,0,0,0,.159,4.378c.122,1.123.337,2.233.485,3.353.9,6.819-.724,13.8.29,20.6.139.934,1.272,1.451,2.173,1.735a8.867,8.867,0,0,0,1.388.279,30.121,30.121,0,0,0,7.2.47c.586-.056,1.281-.236,1.46-.8.142-.448-.117-.983.127-1.384,1.558-2.561.4-6.071.557-9.065.424-7.92-.094-15.881.636-23.779.14-1.512-.06-2.846.077-4.358l.093-1.027.283-3.12c.169,4.348.35,8.592.519,12.941a14.7,14.7,0,0,0,.472,3.755c.2.64.48,1.253.641,1.9a10.505,10.505,0,0,1,.227,2.138l.72,19.156a15.649,15.649,0,0,1-.147,2.06,2.443,2.443,0,0,0,.532,2.2,2.033,2.033,0,0,0,1.091.355,13.136,13.136,0,0,0,3.511-.3c1.174-.209,3.615-.418,4.789-.628a1.815,1.815,0,0,0,.515-.145,1.553,1.553,0,0,0,.611-1.565,4.528,4.528,0,0,1-.031-1.77c2.378-7.338-.509-15.4.027-23.091.477-6.853.41-13.731.342-20.6-.04-4.062-.314-8.036-.23-12.1.1-4.949.472-10.132-1.625-14.616A4.626,4.626,0,0,0,917.2,402.483Z" transform="translate(-687.838 -339.365)" fill="#2f2e41"/>
    <path id="Path_386" data-name="Path 386" d="M920.014,690.529s-4.589-2.215-5.38,0-2.373,7.437-.633,8.7h0a4.033,4.033,0,0,0,3.948.455c1.124-.478,2.225-1.081,2.064-1.563C919.7,697.175,920.014,690.529,920.014,690.529Z" transform="translate(-704.099 -548.521)" fill="#2f2e41"/>
    <path id="Path_387" data-name="Path 387" d="M964.271,690.529s4.589-2.215,5.38,0,2.373,7.437.633,8.7h0a4.033,4.033,0,0,1-3.948.455c-1.124-.478-2.225-1.081-2.064-1.563C964.588,697.175,964.271,690.529,964.271,690.529Z" transform="translate(-741.236 -548.521)" fill="#2f2e41"/>
    <path id="Path_388" data-name="Path 388" d="M912.662,295.269a178.463,178.463,0,0,0-19.873.755,3.722,3.722,0,0,0-1.424.329,3.45,3.45,0,0,0-.968.876,21.136,21.136,0,0,0-4.877,12.581,2.315,2.315,0,0,0,.4,1.7c1.831,1.991,4.153,3.445,5.6,5.728a8.975,8.975,0,0,0,1.215,1.713,17.822,17.822,0,0,0-.118,4.935,7.935,7.935,0,0,1,3.9-2.574,23.653,23.653,0,0,1,4.662-.853c2.295-.263,4.751-.5,6.8.576,1.6.843,2.774,2.414,4.461,3.076a31.513,31.513,0,0,0,.394-4.275c.048-2.006,1.553-3.487,2.346-5.329a10.09,10.09,0,0,1,.785-1.567,6.785,6.785,0,0,1,3.494-2.532,20.2,20.2,0,0,1,4.3-.836,3.189,3.189,0,0,0-.011-3.166,16.6,16.6,0,0,0-1.892-2.846c-1.291-1.8-2.218-3.859-3.636-5.563A7.285,7.285,0,0,0,912.662,295.269Z" transform="translate(-683.942 -261.62)" fill="#2f2e41"/>
    <path id="Path_389" data-name="Path 389" d="M918.613,207.537a15.839,15.839,0,0,1-9.824,5.146c-6.549.936-1.4,11.227-1.4,11.227a5.915,5.915,0,0,1,1.871-7.017C913,213.618,918.613,211.747,918.613,207.537Z" transform="translate(-698.459 -197.806)" fill="#2f2e41"/>
    <path id="Path_390" data-name="Path 390" d="M953.252,207.537s1.871,6.549,4.678,7.485,1.4,10.759-3.275,11.695c0,0,3.976-5.38,1.637-9.59S952.55,209.642,953.252,207.537Z" transform="translate(-733.098 -197.806)" fill="#2f2e41"/>
    <path id="Path_391" data-name="Path 391" d="M918.613,207.537a15.839,15.839,0,0,1-9.824,5.146c-6.549.936-1.4,11.227-1.4,11.227a5.915,5.915,0,0,1,1.871-7.017C913,213.618,918.613,211.747,918.613,207.537Z" transform="translate(-698.459 -197.806)" fill="#2f2e41"/>
    <path id="Path_392" data-name="Path 392" d="M953.252,207.537s1.871,6.549,4.678,7.485,1.4,10.759-3.275,11.695c0,0,3.976-5.38,1.637-9.59S952.55,209.642,953.252,207.537Z" transform="translate(-733.098 -197.806)" fill="#2f2e41"/>
    <path id="Path_393" data-name="Path 393" d="M530.308,328.9v-3.463h.386v.325a.953.953,0,0,1,.309-.286.849.849,0,0,1,.417-.1.989.989,0,0,1,.566.165,1.013,1.013,0,0,1,.37.465,1.7,1.7,0,0,1,.125.659,1.673,1.673,0,0,1-.138.692,1.04,1.04,0,0,1-.4.471,1.028,1.028,0,0,1-.553.164.8.8,0,0,1-.381-.09.868.868,0,0,1-.277-.226V328.9Zm.384-2.2a1.09,1.09,0,0,0,.2.714.6.6,0,0,0,.474.231.614.614,0,0,0,.484-.239,1.135,1.135,0,0,0,.2-.741,1.106,1.106,0,0,0-.2-.717.592.592,0,0,0-.47-.238.611.611,0,0,0-.48.253,1.134,1.134,0,0,0-.209.737Z" transform="translate(-425.491 -283.547)" fill="#3f3d56"/>
    <path id="Path_394" data-name="Path 394" d="M539.126,328.088l.915-1.3-.846-1.2h.53l.384.587q.108.167.174.28.1-.156.191-.276l.422-.592h.507l-.865,1.179.931,1.325h-.521l-.514-.778-.137-.21-.658.988Z" transform="translate(-431.907 -283.7)" fill="#3f3d56"/>
    <rect id="Rectangle_102" data-name="Rectangle 102" width="2.724" height="2.724" transform="translate(91.144 41.726)" fill="#3f3d56"/>
    <rect id="Rectangle_103" data-name="Rectangle 103" width="2.724" height="2.724" transform="translate(95.502 41.726)" fill="#3f3d56"/>
    <rect id="Rectangle_104" data-name="Rectangle 104" width="2.724" height="2.724" transform="translate(99.861 41.726)" fill="#3f3d56"/>
  </g>
</svg>
