<svg id="card1_icn" xmlns="http://www.w3.org/2000/svg" xmlns:xlink="http://www.w3.org/1999/xlink" width="225" height="160" viewBox="0 0 225 160">
  <defs>
    <linearGradient id="linear-gradient" x1="0.5" y1="1" x2="0.5" gradientUnits="objectBoundingBox">
      <stop offset="0" stop-color="gray" stop-opacity="0.251"/>
      <stop offset="0.54" stop-color="gray" stop-opacity="0.122"/>
      <stop offset="1" stop-color="gray" stop-opacity="0.102"/>
    </linearGradient>
  </defs>
  <path id="Path_20" data-name="Path 20" d="M327.3,89.831a46.151,46.151,0,0,0-8.924-12.046l-123.8-1.033L296.505,64.624a67.035,67.035,0,0,0-20.68-3.475A64.158,64.158,0,0,0,239.646,50.4a64.91,64.91,0,0,0-33.06,8.764,66.212,66.212,0,0,0-26.5-5.41c-27.506,0-50.425,16.139-55.567,37.544Z" transform="translate(-106.661 -50.4)" fill="#6c63ff" opacity="0.1"/>
  <path id="Path_21" data-name="Path 21" d="M260,270.021a39.363,39.363,0,0,0-3.859-16.941l-214.6,19.086a41.869,41.869,0,0,0-5.028,10.755l66.455,8.391L35,297.43c2.045,24.229,26.568,43.363,56.525,43.363,15.079,0,28.78-4.85,38.933-12.756,10.185,8.056,24.011,13.005,39.259,13.005,22.613,0,42.133-10.907,51.222-26.677,18.235-4.9,32.4-17.213,37.248-32.61l-84.04-11.036H260Z" transform="translate(-35 -212.328)" fill="#6c63ff" opacity="0.1"/>
  <path id="Path_22" data-name="Path 22" d="M258.454,413.823s-9.221-13.3-7.655-25.861a24.526,24.526,0,0,0-2.953-15.23,41.24,41.24,0,0,0-4.337-6.173" transform="translate(-201.998 -303.171)" fill="rgba(0,0,0,0)" stroke="#535461" stroke-miterlimit="10" stroke-width="2"/>
  <path id="Path_23" data-name="Path 23" d="M221.26,317.381c.6,1.805-.94,8.128-.94,8.128s-5.005-4.156-5.6-5.963a3.446,3.446,0,1,1,6.544-2.165Z" transform="translate(-178.723 -262.027)" fill="#6c63ff"/>
  <path id="Path_24" data-name="Path 24" d="M264.86,350.746c-.479,1.841-5.2,6.312-5.2,6.312s-1.943-6.208-1.462-8.05a3.445,3.445,0,1,1,6.668,1.738Z" transform="translate(-213.693 -287.151)" fill="#6c63ff"/>
  <path id="Path_25" data-name="Path 25" d="M288.291,430.582c-1.345,1.349-7.681,2.821-7.681,2.821s1.458-6.34,2.793-7.687a3.446,3.446,0,1,1,4.88,4.866Z" transform="translate(-231.709 -349.753)" fill="#6c63ff"/>
  <path id="Path_26" data-name="Path 26" d="M296.534,502.2c-1.1,1.554-7.094,4.078-7.094,4.078s.365-6.5,1.462-8.05a3.446,3.446,0,1,1,5.632,3.972Z" transform="translate(-238.781 -407.388)" fill="#6c63ff"/>
  <path id="Path_27" data-name="Path 27" d="M224.606,386.786c1.712.83,8.179.136,8.179.136s-3.463-5.506-5.187-6.338a3.445,3.445,0,0,0-2.992,6.2Z" transform="translate(-185.381 -314.236)" fill="#6c63ff"/>
  <path id="Path_28" data-name="Path 28" d="M228.123,466.875c1.883.279,7.848-2.318,7.848-2.318s-4.954-4.219-6.833-4.5a3.446,3.446,0,0,0-1.013,6.817Z" transform="translate(-187.32 -378.001)" fill="#6c63ff"/>
  <path id="Path_29" data-name="Path 29" d="M248.942,545.609c1.809.6,8.128-.958,8.128-.958s-4.169-4.987-5.985-5.586a3.446,3.446,0,0,0-2.151,6.548Z" transform="translate(-204.441 -441.081)" fill="#6c63ff"/>
  <path id="Path_30" data-name="Path 30" d="M221.26,317.381c.6,1.805-.94,8.128-.94,8.128s-5.005-4.156-5.6-5.963a3.446,3.446,0,1,1,6.544-2.165Z" transform="translate(-178.723 -262.027)" opacity="0.25"/>
  <path id="Path_31" data-name="Path 31" d="M264.86,350.746c-.479,1.841-5.2,6.312-5.2,6.312s-1.943-6.208-1.462-8.05a3.445,3.445,0,1,1,6.668,1.738Z" transform="translate(-213.693 -287.151)" opacity="0.25"/>
  <path id="Path_32" data-name="Path 32" d="M288.291,430.582c-1.345,1.349-7.681,2.821-7.681,2.821s1.458-6.34,2.793-7.687a3.446,3.446,0,1,1,4.88,4.866Z" transform="translate(-231.709 -349.753)" opacity="0.25"/>
  <path id="Path_33" data-name="Path 33" d="M296.534,502.2c-1.1,1.554-7.094,4.078-7.094,4.078s.365-6.5,1.462-8.05a3.446,3.446,0,1,1,5.632,3.972Z" transform="translate(-238.781 -407.388)" opacity="0.25"/>
  <path id="Path_34" data-name="Path 34" d="M224.606,386.786c1.712.83,8.179.136,8.179.136s-3.463-5.506-5.187-6.338a3.445,3.445,0,0,0-2.992,6.2Z" transform="translate(-185.381 -314.236)" opacity="0.25"/>
  <path id="Path_35" data-name="Path 35" d="M228.123,466.875c1.883.279,7.848-2.318,7.848-2.318s-4.954-4.219-6.833-4.5a3.446,3.446,0,0,0-1.013,6.817Z" transform="translate(-187.32 -378.001)" opacity="0.25"/>
  <path id="Path_36" data-name="Path 36" d="M248.942,545.609c1.809.6,8.128-.958,8.128-.958s-4.169-4.987-5.985-5.586a3.446,3.446,0,0,0-2.151,6.548Z" transform="translate(-204.441 -441.081)" opacity="0.25"/>
  <path id="Path_37" data-name="Path 37" d="M186.485,451.689s-13.821-8.427-17.48-20.548a24.538,24.538,0,0,0-8.87-12.726,41.234,41.234,0,0,0-6.466-3.884" transform="translate(-129.996 -341.553)" fill="rgba(0,0,0,0)" stroke="#535461" stroke-miterlimit="10" stroke-width="2"/>
  <path id="Path_38" data-name="Path 38" d="M117.827,371.835c1.279,1.408,2.434,7.81,2.434,7.81s-6.258-1.772-7.537-3.18a3.445,3.445,0,0,1,5.1-4.63Z" transform="translate(-96.502 -306.566)" fill="#6c63ff"/>
  <path id="Path_39" data-name="Path 39" d="M171.067,384.715c.307,1.879-2.194,7.882-2.194,7.882s-4.3-4.89-4.606-6.769a3.446,3.446,0,0,1,6.8-1.113Z" transform="translate(-138.441 -315.457)" fill="#6c63ff"/>
  <path id="Path_40" data-name="Path 40" d="M231.65,445.209c-.684,1.778-5.879,5.692-5.879,5.692s-1.237-6.384-.555-8.163a3.446,3.446,0,0,1,6.434,2.472Z" transform="translate(-187.104 -362.404)" fill="#6c63ff"/>
  <path id="Path_41" data-name="Path 41" d="M264.715,508.894c-.373,1.867-4.834,6.6-4.834,6.6s-2.3-6.087-1.925-7.952a3.446,3.446,0,0,1,6.759,1.349Z" transform="translate(-213.532 -413.784)" fill="#6c63ff"/>
  <path id="Path_42" data-name="Path 42" d="M148.527,433.884c1.9.066,7.535-3.192,7.535-3.192s-5.4-3.631-7.3-3.7a3.445,3.445,0,0,0-.235,6.887Z" transform="translate(-123.215 -351.584)" fill="#6c63ff"/>
  <path id="Path_43" data-name="Path 43" d="M184.684,505.86c1.835-.507,6.236-5.3,6.236-5.3s-6.238-1.857-8.066-1.343a3.445,3.445,0,1,0,1.835,6.642Z" transform="translate(-151.333 -409.279)" fill="#6c63ff"/>
  <path id="Path_44" data-name="Path 44" d="M235.637,569.271c1.9-.2,7.042-4.169,7.042-4.169s-5.835-2.877-7.729-2.687a3.446,3.446,0,1,0,.686,6.857Z" transform="translate(-192.656 -459.885)" fill="#6c63ff"/>
  <ellipse id="Ellipse_15" data-name="Ellipse 15" cx="35.71" cy="2.119" rx="35.71" ry="2.119" transform="translate(76.931 144.89)" fill="#6c63ff" opacity="0.1"/>
  <ellipse id="Ellipse_16" data-name="Ellipse 16" cx="9.348" cy="1.702" rx="9.348" ry="1.702" transform="translate(139.358 154.717)" fill="#6c63ff" opacity="0.1"/>
  <path id="Path_45" data-name="Path 45" d="M531.209,674.609v1.279H493.38v-1.041a12.435,12.435,0,0,0,.856-22.966h36.724a12.443,12.443,0,0,0,.249,22.729Z" transform="translate(-402.145 -531.325)" fill="#c8cad7"/>
  <path id="Path_46" data-name="Path 46" d="M534.394,651.89a12.454,12.454,0,0,0-6.875,8.245H504.545a12.455,12.455,0,0,0-6.875-8.245Z" transform="translate(-405.58 -531.449)" opacity="0.1"/>
  <path id="Path_47" data-name="Path 47" d="M276.21,619.22V626.4c0,3.966,2.9,7.182,6.484,7.182h111.32c3.581,0,6.484-3.216,6.484-7.182V619.22Z" transform="translate(-228.295 -505.303)" fill="#c8cad7"/>
  <path id="Path_48" data-name="Path 48" d="M531.209,760.535v1.279H493.38v-1.041a12.411,12.411,0,0,0,2.917-1.552h32.6A12.469,12.469,0,0,0,531.209,760.535Z" transform="translate(-402.145 -617.251)" opacity="0.1"/>
  <rect id="Rectangle_19" data-name="Rectangle 19" width="62.842" height="3.79" rx="1.895" transform="translate(78.733 142.368)" fill="#c8cad7"/>
  <path id="Path_49" data-name="Path 49" d="M400.5,198.7a6.484,6.484,0,0,0-6.484-6.484H282.694a6.484,6.484,0,0,0-6.484,6.484v80.1H400.5Z" transform="translate(-228.295 -163.709)" fill="#474157"/>
  <rect id="Rectangle_20" data-name="Rectangle 20" width="117.504" height="75.211" rx="16" transform="translate(51.306 34.707)" fill="#ededf4"/>
  <circle id="Ellipse_17" data-name="Ellipse 17" cx="1.496" cy="1.496" r="1.496" transform="translate(108.557 29.996)" fill="#fff"/>
  <circle id="Ellipse_18" data-name="Ellipse 18" cx="3.691" cy="3.691" r="3.691" transform="translate(106.362 117.702)" fill="#fff"/>
  <path id="Path_50" data-name="Path 50" d="M410.714,226.412H293.21a3.192,3.192,0,0,1,3.192-3.192H407.522A3.192,3.192,0,0,1,410.714,226.412Z" transform="translate(-241.904 -188.619)" fill="#c8cad7"/>
  <circle id="Ellipse_19" data-name="Ellipse 19" cx="0.798" cy="0.798" r="0.798" transform="translate(53.802 35.401)" fill="#ededf4"/>
  <circle id="Ellipse_20" data-name="Ellipse 20" cx="0.798" cy="0.798" r="0.798" transform="translate(56.191 35.401)" fill="#ededf4"/>
  <circle id="Ellipse_21" data-name="Ellipse 21" cx="0.798" cy="0.798" r="0.798" transform="translate(58.581 35.401)" fill="#ededf4"/>
  <rect id="Rectangle_21" data-name="Rectangle 21" width="30.124" height="1.795" transform="translate(55.777 40.506)" fill="#6c63ff"/>
  <rect id="Rectangle_22" data-name="Rectangle 22" width="30.124" height="1.795" transform="translate(55.777 93.161)" fill="#6c63ff"/>
  <rect id="Rectangle_23" data-name="Rectangle 23" width="55.86" height="1.795" transform="translate(55.759 97.165)" fill="#6c63ff" opacity="0.2"/>
  <rect id="Rectangle_24" data-name="Rectangle 24" width="55.86" height="1.795" transform="translate(55.759 99.77)" fill="#6c63ff" opacity="0.2"/>
  <rect id="Rectangle_25" data-name="Rectangle 25" width="55.86" height="1.795" transform="translate(55.759 102.372)" fill="#6c63ff" opacity="0.2"/>
  <rect id="Rectangle_26" data-name="Rectangle 26" width="55.461" height="30.124" transform="translate(55.759 45.346)" fill="#6c63ff" opacity="0.2"/>
  <rect id="Rectangle_27" data-name="Rectangle 27" width="12.967" height="11.97" transform="translate(56.385 78.365)" fill="#6c63ff" opacity="0.2"/>
  <rect id="Rectangle_28" data-name="Rectangle 28" width="12.967" height="11.97" transform="translate(98.194 78.365)" fill="#6c63ff" opacity="0.2"/>
  <rect id="Rectangle_29" data-name="Rectangle 29" width="12.967" height="11.97" transform="translate(76.991 78.365)" fill="#6c63ff" opacity="0.2"/>
  <rect id="Rectangle_30" data-name="Rectangle 30" width="38.17" height="28.095" transform="translate(122.915 54.143)" fill="#6c63ff" opacity="0.2"/>
  <rect id="Rectangle_31" data-name="Rectangle 31" width="30.124" height="1.795" transform="translate(126.94 59.826)" fill="#ededf4"/>
  <rect id="Rectangle_32" data-name="Rectangle 32" width="30.124" height="1.795" transform="translate(126.94 63.564)" fill="#ededf4"/>
  <rect id="Rectangle_33" data-name="Rectangle 33" width="30.124" height="1.795" transform="translate(126.94 67.302)" fill="#ededf4"/>
  <rect id="Rectangle_34" data-name="Rectangle 34" width="30.124" height="1.795" transform="translate(126.94 71.038)" fill="#ededf4"/>
  <rect id="Rectangle_35" data-name="Rectangle 35" width="30.124" height="1.795" transform="translate(126.94 74.776)" fill="#ededf4"/>
  <rect id="Rectangle_36" data-name="Rectangle 36" width="28.861" height="5.053" transform="translate(127.573 85.509)" fill="#6c63ff"/>
  <rect id="Rectangle_37" data-name="Rectangle 37" width="19.353" height="3.389" transform="translate(126.047 102.404)" fill="#6c63ff"/>
  <ellipse id="Ellipse_22" data-name="Ellipse 22" cx="5.706" cy="0.579" rx="5.706" ry="0.579" transform="translate(45.758 154.667)" fill="#6c63ff" opacity="0.1"/>
  <ellipse id="Ellipse_23" data-name="Ellipse 23" cx="3.419" cy="0.347" rx="3.419" ry="0.347" transform="translate(164.604 146.626)" fill="#6c63ff" opacity="0.1"/>
  <path id="Path_51" data-name="Path 51" d="M284.574,778s-7.441,3.844-3.591,8.379a1.419,1.419,0,0,0,1.408.914s-.209-.381.6-.684a3.911,3.911,0,0,0,.8-.427,1.893,1.893,0,0,0,.72-.962h0s1.522-2.037.343-5.805c0,0,.152-1.065.018-1.237l-.914,1.219A2.52,2.52,0,0,1,285,780.945s-.974-1.546-1.185-1.37c-.042.036-.449.678-.449.678a4.172,4.172,0,0,1,1.742,2.526s-.914-1.995-1.9-2.284l-.557,1.007a4.383,4.383,0,0,1,1.971,2.7s-1.027-2.055-2.077-2.47l-.415,1.063s1.706,1.085,1.863,2.434c0,0-1.426-2.254-1.941-2.194a5.5,5.5,0,0,0-.279,1.307s1.207.8,1.229,1.6c0,0-1.113-1.406-1.285-1.313a5.9,5.9,0,0,0,.271,2.149,4.272,4.272,0,0,1-.493-2.149,2.363,2.363,0,0,0-.714,1.159s-.321-.778.736-1.492a5.448,5.448,0,0,1,.221-1.235,5.141,5.141,0,0,0-1.628,1.243s.178-1.021,1.728-1.528l.4-1.077a7.3,7.3,0,0,0-2.025,1.235s.343-1.013,2.147-1.5l.535-1a8.581,8.581,0,0,0-2.047,1,3.482,3.482,0,0,1,2.212-1.271l.435-.62s-1,.357-1.277.485-.335.064-.335.064a3.607,3.607,0,0,1,1.8-.812A8.962,8.962,0,0,0,284.574,778Z" transform="translate(-231.121 -632.284)" fill="#6c63ff"/>
  <ellipse id="Ellipse_24" data-name="Ellipse 24" cx="4.373" cy="0.443" rx="4.373" ry="0.443" transform="translate(29.402 145.989)" fill="#6c63ff" opacity="0.1"/>
  <path id="Path_52" data-name="Path 52" d="M197.549,745s-5.7,2.945-2.757,6.416a1.1,1.1,0,0,0,1.079.7s-.16-.291.453-.525a3.1,3.1,0,0,0,.614-.327,1.458,1.458,0,0,0,.553-.738h0s1.165-1.56.261-4.447c0,0,.118-.818.014-.95l-.692.952a1.937,1.937,0,0,1,.8,1.185s-.746-1.183-.908-1.049c-.032.028-.343.521-.343.521a3.2,3.2,0,0,1,1.335,1.935s-.7-1.532-1.456-1.75l-.425.77a3.363,3.363,0,0,1,1.508,2.067s-.788-1.574-1.6-1.891l-.317.814s1.309.832,1.428,1.865c0,0-1.093-1.728-1.488-1.674a4.258,4.258,0,0,0-.213,1s.926.618.942,1.225c0,0-.854-1.077-.986-1a4.524,4.524,0,0,0,.209,1.646,3.29,3.29,0,0,1-.379-1.646,1.819,1.819,0,0,0-.547.88s-.245-.6.565-1.143a4.138,4.138,0,0,1,.17-.946,3.947,3.947,0,0,0-1.247.952s.136-.782,1.323-1.171l.3-.826a5.6,5.6,0,0,0-1.554.948s.263-.778,1.646-1.149l.411-.76a6.716,6.716,0,0,0-1.57.76,2.658,2.658,0,0,1,1.7-.974l.333-.477s-.764.273-.978.373-.257.048-.257.048a2.77,2.77,0,0,1,1.373-.622A8.367,8.367,0,0,0,197.549,745Z" transform="translate(-162.237 -605.867)" fill="#6c63ff"/>
  <path id="Path_53" data-name="Path 53" d="M875.438,755.41s-4.459,2.312-2.157,5.017a.856.856,0,0,0,.844.547s-.126-.227.355-.411a2.3,2.3,0,0,0,.481-.255,1.141,1.141,0,0,0,.431-.577h0a3.966,3.966,0,0,0,.2-3.477,2.254,2.254,0,0,0,.01-.742l-.541.742a1.518,1.518,0,0,1,.624.93s-.585-.928-.71-.822c-.026.022-.269.4-.269.4a2.494,2.494,0,0,1,1.043,1.512s-.547-1.2-1.137-1.367l-.319.616a2.623,2.623,0,0,1,1.179,1.616s-.614-1.231-1.245-1.48l-.247.638s1.021.648,1.117,1.458c0,0-.856-1.353-1.163-1.309a3.265,3.265,0,0,0-.168.782s.722.483.736.958c0,0-.668-.842-.77-.786a3.527,3.527,0,0,0,.162,1.287,2.594,2.594,0,0,1-.3-1.287,1.42,1.42,0,0,0-.427.688s-.2-.467.441-.894a3.322,3.322,0,0,1,.132-.74,3.065,3.065,0,0,0-.974.744s.106-.612,1.033-.916l.235-.644a4.58,4.58,0,0,0-1.215.738s.2-.6,1.289-.9l.319-.6a5.333,5.333,0,0,0-1.227.6,2.09,2.09,0,0,1,1.327-.76l.259-.373s-.6.216-.764.291-.2.038-.2.038a2.159,2.159,0,0,1,1.073-.487A5.373,5.373,0,0,0,875.438,755.41Z" transform="translate(-705.843 -614.201)" fill="#6c63ff"/>
  <ellipse id="Ellipse_25" data-name="Ellipse 25" cx="8.329" cy="0.696" rx="8.329" ry="0.696" transform="translate(177.976 158.607)" fill="#6c63ff" opacity="0.1"/>
  <path id="Path_54" data-name="Path 54" d="M954.559,730.044a3.483,3.483,0,0,0-.455.858c-.028.074-.054.16-.082.241a.892.892,0,0,0-.16-.056,2.192,2.192,0,0,0-.71-.06c0-.094.01-.19.014-.293.028-1.051-.1-2.518-1.1-1.9-.962.6-.275,1.6.345,2.234.054.056.108.108.16.158-.565.4-.674,1.343-.768,2.322a5.425,5.425,0,0,1-1.476,2.659l-.158.17a2.019,2.019,0,0,0-1.6-.413c-.024-.086-.048-.176-.076-.269-.445-1.614-1.373-4.409-2.558-5.021.052-.062.1-.128.158-.2.5-.658,1.067-1.634.231-1.883s-.91.846-.864,1.668a1.709,1.709,0,0,0,.024.293,1.227,1.227,0,0,0-.876.427l-.128-.154c-.678-.8-1.923-2.069-2.3-1.109-.351.894.742,2.055,1.512,2.727l.05.042c-.519,2.1,1.738,3.806,2.953,4.555l.158.1a18.3,18.3,0,0,0-2.709,5.678l4.692.838s3.11-2.685,2.713-5.207h.032c3.108-.622,3.816-3.938,3.332-5.907l.054-.022a3.522,3.522,0,0,0,1.44-1.089A1.159,1.159,0,0,0,954.559,730.044Z" transform="translate(-761.585 -592.707)" fill="#6c63ff"/>
  <path id="Path_55" data-name="Path 55" d="M954.559,730.044a3.483,3.483,0,0,0-.455.858c-.028.074-.054.16-.082.241a.892.892,0,0,0-.16-.056,2.192,2.192,0,0,0-.71-.06c0-.094.01-.19.014-.293.028-1.051-.1-2.518-1.1-1.9-.962.6-.275,1.6.345,2.234.054.056.108.108.16.158-.565.4-.674,1.343-.768,2.322a5.425,5.425,0,0,1-1.476,2.659l-.158.17a2.019,2.019,0,0,0-1.6-.413c-.024-.086-.048-.176-.076-.269-.445-1.614-1.373-4.409-2.558-5.021.052-.062.1-.128.158-.2.5-.658,1.067-1.634.231-1.883s-.91.846-.864,1.668a1.709,1.709,0,0,0,.024.293,1.227,1.227,0,0,0-.876.427l-.128-.154c-.678-.8-1.923-2.069-2.3-1.109-.351.894.742,2.055,1.512,2.727l.05.042c-.519,2.1,1.738,3.806,2.953,4.555l.158.1a18.3,18.3,0,0,0-2.709,5.678l4.692.838s3.11-2.685,2.713-5.207h.032c3.108-.622,3.816-3.938,3.332-5.907l.054-.022a3.522,3.522,0,0,0,1.44-1.089A1.159,1.159,0,0,0,954.559,730.044Z" transform="translate(-761.585 -592.707)" opacity="0.1"/>
  <path id="Path_56" data-name="Path 56" d="M946.34,734.614l-.549,1.6s-.305-.215-.69-.555c-.768-.672-1.863-1.833-1.512-2.727.375-.96,1.62.307,2.3,1.109C946.159,734.367,946.34,734.614,946.34,734.614Z" transform="translate(-762.706 -595.928)" fill="#6c63ff"/>
  <path id="Path_57" data-name="Path 57" d="M960.883,730.462a8.1,8.1,0,0,1-.535.63,7.78,7.78,0,0,1-.1-.846c-.046-.822.04-1.913.864-1.668S961.389,729.8,960.883,730.462Z" transform="translate(-776.09 -592.694)" fill="#6c63ff"/>
  <path id="Path_58" data-name="Path 58" d="M992.6,731.228c-.018.529-.07.952-.07.952a6.964,6.964,0,0,1-.684-.612c-.62-.644-1.307-1.638-.345-2.234C992.506,728.711,992.63,730.177,992.6,731.228Z" transform="translate(-800.733 -593.207)" fill="#6c63ff"/>
  <path id="Path_59" data-name="Path 59" d="M1004.867,735.514a3.529,3.529,0,0,1-1.438,1.089,4.488,4.488,0,0,1-.483.176l-.646-.908a6.428,6.428,0,0,1,.265-.882,3.48,3.48,0,0,1,.455-.858A1.154,1.154,0,0,1,1004.867,735.514Z" transform="translate(-809.758 -596.8)" fill="#6c63ff"/>
  <path id="Path_60" data-name="Path 60" d="M952.226,739.92c.271.319.453.567.453.567l-.549,1.6s-.305-.215-.69-.555a3.155,3.155,0,0,1,.618-1.411Q952.137,740.015,952.226,739.92Z" transform="translate(-769.045 -601.801)" opacity="0.1"/>
  <path id="Path_61" data-name="Path 61" d="M960.922,737.3a8.108,8.108,0,0,1-.535.63,7.765,7.765,0,0,1-.1-.846A1.107,1.107,0,0,1,960.922,737.3Z" transform="translate(-776.129 -599.528)" opacity="0.1"/>
  <path id="Path_62" data-name="Path 62" d="M956.426,744.826l-1.365.6s-.3-.144-.728-.411c-1.432-.882-4.317-3.1-2.394-5.72s3.545,2.077,4.189,4.373C956.319,744.355,956.426,744.826,956.426,744.826Z" transform="translate(-768.932 -600.682)" fill="#6c63ff"/>
  <path id="Path_63" data-name="Path 63" d="M995.15,739.769a1.117,1.117,0,0,1,.754-.339c-.018.529-.07.952-.07.952A6.964,6.964,0,0,1,995.15,739.769Z" transform="translate(-804.035 -601.409)" opacity="0.1"/>
  <path id="Path_64" data-name="Path 64" d="M1003.469,741.884a4.505,4.505,0,0,1-.483.176l-.646-.908a6.435,6.435,0,0,1,.265-.882A2.394,2.394,0,0,1,1003.469,741.884Z" transform="translate(-809.79 -602.081)" opacity="0.1"/>
  <path id="Path_65" data-name="Path 65" d="M979.987,748.269c-.076.016-.154.03-.231.04-4.573.7-1.508-1.772-1.508-1.772s.2-.19.487-.5a5.372,5.372,0,0,0,1.476-2.659c.144-1.482.309-2.873,2.059-2.466S984.312,747.4,979.987,748.269Z" transform="translate(-789.699 -602.537)" fill="#6c63ff"/>
  <rect id="Rectangle_38" data-name="Rectangle 38" width="8.74" height="2.298" transform="translate(181.458 157.121)" fill="#d4dfec"/>
  <rect id="Rectangle_39" data-name="Rectangle 39" width="11.419" height="8.02" transform="translate(180.067 149.652)" fill="#d4dfec"/>
  <rect id="Rectangle_40" data-name="Rectangle 40" width="8.74" height="2.298" transform="translate(181.458 157.121)" opacity="0.1"/>
  <rect id="Rectangle_41" data-name="Rectangle 41" width="11.419" height="8.02" transform="translate(180.067 149.652)" opacity="0.1"/>
  <rect id="Rectangle_42" data-name="Rectangle 42" width="8.74" height="2.298" transform="translate(182.032 157.121)" fill="#d4dfec"/>
  <path id="Path_66" data-name="Path 66" d="M968.285,764.32c.2.686.3,1.157.3,1.157l-1.365.6s-.3-.144-.728-.411A3.511,3.511,0,0,1,968.285,764.32Z" transform="translate(-781.092 -621.333)" opacity="0.1"/>
  <path id="Path_67" data-name="Path 67" d="M979.987,769.122c-.076.016-.154.03-.231.04-4.573.7-1.508-1.772-1.508-1.772s.2-.19.487-.5A3.042,3.042,0,0,1,979.987,769.122Z" transform="translate(-789.699 -623.391)" opacity="0.1"/>
  <path id="Path_68" data-name="Path 68" d="M953.7,772.361s2.562-9.177,6.153-6.346-1.46,7.182-1.46,7.182Z" transform="translate(-770.854 -622.256)" fill="#6c63ff"/>
  <circle id="Ellipse_26" data-name="Ellipse 26" cx="0.287" cy="0.287" r="0.287" transform="translate(183.851 139.765)" opacity="0.1"/>
  <circle id="Ellipse_27" data-name="Ellipse 27" cx="0.287" cy="0.287" r="0.287" transform="translate(183.828 141.106)" opacity="0.1"/>
  <circle id="Ellipse_28" data-name="Ellipse 28" cx="0.287" cy="0.287" r="0.287" transform="translate(192.159 140.028)" opacity="0.1"/>
  <circle id="Ellipse_29" data-name="Ellipse 29" cx="0.287" cy="0.287" r="0.287" transform="translate(185.455 146.899)" opacity="0.1"/>
  <circle id="Ellipse_30" data-name="Ellipse 30" cx="0.287" cy="0.287" r="0.287" transform="translate(191.56 142.255)" opacity="0.1"/>
  <circle id="Ellipse_31" data-name="Ellipse 31" cx="0.287" cy="0.287" r="0.287" transform="translate(188.592 145.223)" opacity="0.1"/>
  <circle id="Ellipse_32" data-name="Ellipse 32" cx="0.287" cy="0.287" r="0.287" transform="translate(184.833 140.339)" opacity="0.1"/>
  <circle id="Ellipse_33" data-name="Ellipse 33" cx="0.287" cy="0.287" r="0.287" transform="translate(191.369 140.89)" opacity="0.1"/>
  <circle id="Ellipse_34" data-name="Ellipse 34" cx="0.287" cy="0.287" r="0.287" transform="translate(190.387 143.116)" opacity="0.1"/>
  <circle id="Ellipse_35" data-name="Ellipse 35" cx="0.287" cy="0.287" r="0.287" transform="translate(187.371 146.684)" opacity="0.1"/>
  <circle id="Ellipse_36" data-name="Ellipse 36" cx="0.287" cy="0.287" r="0.287" transform="translate(186.748 145.271)" opacity="0.1"/>
  <circle id="Ellipse_37" data-name="Ellipse 37" cx="0.287" cy="0.287" r="0.287" transform="translate(185.264 142.087)" opacity="0.1"/>
  <rect id="Rectangle_43" data-name="Rectangle 43" width="8.74" height="0.84" transform="translate(182.032 157.121)" opacity="0.1"/>
  <rect id="Rectangle_44" data-name="Rectangle 44" width="11.419" height="8.02" transform="translate(180.644 149.652)" fill="#d4dfec"/>
  <circle id="Ellipse_38" data-name="Ellipse 38" cx="0.287" cy="0.287" r="0.287" transform="translate(187.754 147.976)" opacity="0.1"/>
  <circle id="Ellipse_39" data-name="Ellipse 39" cx="0.287" cy="0.287" r="0.287" transform="translate(186.03 148.335)" opacity="0.1"/>
  <path id="Path_69" data-name="Path 69" d="M725.879,461.243a1.411,1.411,0,0,1-.375-1c0-.094-.014-.186-.018-.273a1,1,0,0,0,.277-.251c.473-.67-.656-3.1-.656-3.1a3.848,3.848,0,0,0,0-2.362,5.162,5.162,0,0,0-.636-1.3s-1.476-3.032-1.257-3.391a5.056,5.056,0,0,0-1.38-4.467,4.107,4.107,0,0,0-.547-2.195,18.464,18.464,0,0,1-1.311-3.631,22.215,22.215,0,0,0-1.311-3.391,3.791,3.791,0,0,0-.8-.82c.086-.4.283-.928-.283-4.056a7.2,7.2,0,0,1,.427-3.322,4.022,4.022,0,0,0-.678-3.7c-.912-.96-2.326-1.139-3.457-1.8-1-.577-1.885-1.552-3.05-1.534a3.153,3.153,0,0,0-1.642.469c-1.363.555-2.895.387-4.279.846-1.245.413-2.827,1.77-2.45,3.208a1.576,1.576,0,0,0,.459.854,1.032,1.032,0,0,0,.968.174.125.125,0,0,1-.014.07,3.688,3.688,0,0,0-.048.6,3.941,3.941,0,0,0,3.976,3.878c.012.046.022.094.034.142.03.128.058.255.086.387-.1.138-.211.275-.313.413a4,4,0,0,0-.6,1.063c-1.153.235-3.086.616-3.392,1.115-.4.67-2.039,3.99-1.857,5.5.01.084.018.2.026.319a19.116,19.116,0,0,0-1.155,2.36c-.146.565-.473,2.679-1.093,3.172s-1.893,2.081-1.712,2.394-1.712.7-1.712.7-1.273.493-1.2.882c.022.118-.068.229-.2.337a6.413,6.413,0,0,0-4.724-.072c-1.995,1.011,1.5,1.708,3.591,2.013.343.052.646.092.882.12.016.068.082.128.249.186.132.046.327.118.555.2l.084-.259c.692.245,2.582,1.009,2.582,1.009s1.64.267,2.113-.684a8.632,8.632,0,0,1,1.337-1.6l-.066.213-1.38,4.555s-2.185,3.391-2.075,4.124a6.466,6.466,0,0,1-.874,2.793c-.182.184-1.995,5.534-2.951,5.887s-2.222,1.586-1.8,1.975,2.194,1.656,2.992,1.233,2.195.353,2.195.353a5.3,5.3,0,0,1,2.773.347c.014.138.03.287.046.445a17.375,17.375,0,0,0,.567,3.332,4.061,4.061,0,0,1,.4,2.679c-.293.529.255,10.611.8,12.339a16.022,16.022,0,0,1,.912,4.95c-.06.864-.1,1.728-.1,2.594v.144c0,.048-.034.076-.05.116v.078a7.17,7.17,0,0,0-.317.92s-.94,2.362-.622,2.978a.552.552,0,0,0,.15.174,4.33,4.33,0,0,0,1.995.457l-.018.6h.537s.014-.6.05-1.345a3.671,3.671,0,0,0,.231-1.313,5.369,5.369,0,0,1,.479-2.268s.012-.062.024-.162h0a3.993,3.993,0,0,0,.034-.62,2.194,2.194,0,0,0-.2-1.055,2.375,2.375,0,0,1,.04-.644,34.331,34.331,0,0,0-.219-4.229l.618-6.8s.365-5.253.219-6.627a4.37,4.37,0,0,1,.026-1.105,35.673,35.673,0,0,0,.4-4.513c0-.142,0-.281,0-.423a9.326,9.326,0,0,0,3.571.082s.523-.012,1.217,0c.018.144.038.285.058.423a7.907,7.907,0,0,0,.361,1.678,4.073,4.073,0,0,1,.4,2.679c-.293.529.253,10.611.8,12.339a15.956,15.956,0,0,1,.914,4.95c-.06.862-.1,1.726-.1,2.593v.16c-.018.038-.036.076-.052.116s0,.054,0,.078a7.269,7.269,0,0,0-.3.924s-.942,2.364-.622,2.981a.525.525,0,0,0,.15.172,4.305,4.305,0,0,0,1.995.457l-.018.6h.537s.014-.6.05-1.345a3.669,3.669,0,0,0,.231-1.313,5.387,5.387,0,0,1,.471-2.268,4.143,4.143,0,0,0,.058-.778,2.184,2.184,0,0,0-.209-1.061,2.449,2.449,0,0,1,.04-.642,34.412,34.412,0,0,0-.218-4.231l.618-6.8s.365-5.253.217-6.627a4.454,4.454,0,0,1,.028-1.105,35.567,35.567,0,0,0,.4-4.287c0-.144,0-.285,0-.429.132-.162.4-.289,1.137-.537,1.275-.423,3.824-2.54,4.844-2.679s1.929-.812,1.638-1.341-1.893-.882-1.748-1.692-.984-1.3-1.492-2.643-2.733-2.394-2.769-3.391-2.1-4.046-2.1-4.046a25.489,25.489,0,0,1-2.532-5.554.741.741,0,0,0-.026-.136h.026a3.81,3.81,0,0,1-.076-.479.745.745,0,0,1,.018-.136h-.028v-.09a.32.32,0,0,1,.044-.028l.12-.07-.04.016a3.952,3.952,0,0,0,.66-.539,2.933,2.933,0,0,0,.76-1.061,5.39,5.39,0,0,0,.3-1.4l.259-.4c.251,1.051.618,2.56.734,2.9a29.382,29.382,0,0,1,1.313,4.381,14.88,14.88,0,0,0,1.6,4.126s1.857,2.432,3.278,2.538.62.493.838.565l.062.014.022.285.062.828s1.456,5.923,3.1,5.077S726.421,461.63,725.879,461.243Z" transform="translate(-559.144 -346.224)" fill="url(#linear-gradient)"/>
  <path id="Path_70" data-name="Path 70" d="M860.6,620.681c-1.576.842-2.976-5.039-2.976-5.039l-.06-.824-.114-1.558,1.925.245a5.88,5.88,0,0,0,0,1.011,1.425,1.425,0,0,0,.361.984C860.249,615.887,862.174,619.841,860.6,620.681Z" transform="translate(-693.693 -500.556)" fill="#a1616a"/>
  <path id="Path_71" data-name="Path 71" d="M754.21,822.192l.134-.1A.72.72,0,0,1,754.21,822.192Z" transform="translate(-611.005 -667.578)" fill="#a1616a"/>
  <path id="Path_72" data-name="Path 72" d="M750.637,660.64v4.539a36.688,36.688,0,0,1-.4,4.483,4.48,4.48,0,0,0-.026,1.1c.14,1.367-.2,6.583-.2,6.583l-.6,6.757a33.462,33.462,0,0,1,.2,4.189,2.539,2.539,0,0,0-.038.64c.02.6.124,1.367.158,1.6v.07l-.022.016-2.927,2.232a3.421,3.421,0,0,0,.585-2.332v-.3q0-1.287.1-2.573a16.378,16.378,0,0,0-.878-4.916c-.525-1.714-1.051-11.727-.77-12.251a4.17,4.17,0,0,0-.385-2.661,18.34,18.34,0,0,1-.525-3.306c-.076-.726-.122-1.277-.122-1.277Z" transform="translate(-603.467 -538.337)" fill="#a1616a"/>
  <path id="Path_73" data-name="Path 73" d="M805.26,817.668l.144-.108A.841.841,0,0,1,805.26,817.668Z" transform="translate(-651.89 -663.952)" fill="#a1616a"/>
  <path id="Path_74" data-name="Path 74" d="M801.663,656.14V660.9a36.74,36.74,0,0,1-.385,4.259,4.475,4.475,0,0,0-.026,1.1c.14,1.367-.2,6.583-.2,6.583l-.6,6.757a35.2,35.2,0,0,1,.211,4.189,2.439,2.439,0,0,0-.038.638c.02.6.126,1.379.158,1.6a.173.173,0,0,0,.01.066l-.022.016h0l-2.931,2.232a3.494,3.494,0,0,0,.568-2.318v-.3c0-.858.04-1.716.1-2.573a16.429,16.429,0,0,0-.878-4.914c-.527-1.714-1.051-11.726-.77-12.251a4.171,4.171,0,0,0-.385-2.661,7.991,7.991,0,0,1-.349-1.666c-.186-1.333-.317-2.919-.317-2.919Z" transform="translate(-644.329 -534.735)" fill="#a1616a"/>
  <path id="Path_75" data-name="Path 75" d="M783.029,452.725l-.03.046a3.842,3.842,0,0,1-2.663,1.6,3.3,3.3,0,0,1-.469.032c-.012-.048-.022-.1-.034-.142-.229-1-.473-1.8-.473-1.8s.261-.377.642-.858c1.035-1.309,2.943-3.378,2.793-.612a4.741,4.741,0,0,0,.2,1.658A.228.228,0,0,1,783.029,452.725Z" transform="translate(-631.151 -369.69)" opacity="0.1"/>
  <path id="Path_76" data-name="Path 76" d="M770.281,438.051a3.848,3.848,0,0,1-3.378,3.82,3.731,3.731,0,0,1-.475.03H766.4a3.85,3.85,0,1,1,3.88-3.85Z" transform="translate(-617.718 -357.35)" fill="#a1616a"/>
  <path id="Path_77" data-name="Path 77" d="M787.416,461.609l-3.735,3.192s-4.072-5.809-3.591-7a4.006,4.006,0,0,0,.038-1.774c-.054-.4-.132-.84-.219-1.255-.026-.13-.054-.257-.082-.383-.012-.048-.022-.1-.034-.142-.229-1-.473-1.8-.473-1.8s.261-.377.642-.858c1.035-1.309,2.943-3.378,2.793-.612a4.741,4.741,0,0,0,.2,1.658.271.271,0,0,0,.03.094,8.585,8.585,0,0,0,2.817,3.743,11.148,11.148,0,0,0,1.287.914Z" transform="translate(-631.125 -369.661)" fill="#a1616a"/>
  <path id="Path_78" data-name="Path 78" d="M744.79,663.223l5.847-2.593v4.539a2.012,2.012,0,0,1-.379-.178,3.536,3.536,0,0,0-2.7-.16,3.065,3.065,0,0,1-2.486-.245c-.054-.032-.108-.062-.16-.088C744.832,663.774,744.79,663.223,744.79,663.223Z" transform="translate(-603.467 -538.449)" opacity="0.1"/>
  <path id="Path_79" data-name="Path 79" d="M801.719,656.14V660.9a2.136,2.136,0,0,0-.2.441c-.211.491-1.646.666-2.907.459a18,18,0,0,0-2.416-.152c-.186-1.333-.317-2.919-.317-2.919Z" transform="translate(-644.385 -534.855)" opacity="0.1"/>
  <path id="Path_80" data-name="Path 80" d="M735.882,517.668c-.982.14-3.431,2.24-4.656,2.661s-1.085.489-1.295.979-1.646.664-2.907.457a26.078,26.078,0,0,0-3.641-.142s-2.651.459-3.814-.261a3.5,3.5,0,0,0-2.7-.16,3.065,3.065,0,0,1-2.486-.245,4.772,4.772,0,0,0-2.871-.455s-1.331-.77-2.1-.349-2.45-.84-2.871-1.225.8-1.61,1.716-1.961,2.661-5.672,2.835-5.845a6.462,6.462,0,0,0,.84-2.765c-.106-.734,1.995-4.1,1.995-4.1l1.329-4.521.4-1.4.016-.832c0-.375.018-.856.028-1.4.036-2.234.074-5.548,0-7.046-.012-.231-.024-.419-.04-.555-.176-1.5,1.4-4.788,1.786-5.46.287-.5,2.147-.874,3.254-1.107a7.134,7.134,0,0,0,.782-.187.913.913,0,0,1,.307-.024c1.045.042,4.128.688,4.128.688-.279,8.437.281,6.966.281,6.966.91-.7.349-6.9.349-6.9.455.209.92-.317.92-.317l1.776.736a17.557,17.557,0,0,1,1.566,1.059,4.72,4.72,0,0,1,1.1,1.077,22.4,22.4,0,0,1,1.261,3.362l-.63,1c-.551.884-1.4,2.242-2.264,3.619l-1.54,2.452c-.688,1.093-1.249,1.981-1.482,2.342a.871.871,0,0,0-.11.281,1.484,1.484,0,0,0-.026.2,3.14,3.14,0,0,0,.082.83,25.731,25.731,0,0,0,2.434,5.516s1.995,3.044,2.031,4.024,2.171,2.031,2.661,3.362,1.574,1.819,1.434,2.625,1.4,1.155,1.68,1.68S736.862,517.529,735.882,517.668Z" transform="translate(-572.804 -395.276)" fill="#fa595f"/>
  <path id="Path_81" data-name="Path 81" d="M859.371,614.517a3.036,3.036,0,0,1-1.807.3l-.114-1.558,1.925.245A5.868,5.868,0,0,0,859.371,614.517Z" transform="translate(-693.69 -500.571)" opacity="0.1"/>
  <path id="Path_82" data-name="Path 82" d="M821.879,510.09l1.436,1.015a18.639,18.639,0,0,0,1.259,3.6,4.168,4.168,0,0,1,.525,2.171,7.565,7.565,0,0,1,.561.7,8.467,8.467,0,0,1,.77,3.735c-.209.363,1.209,3.372,1.209,3.372a4.546,4.546,0,0,1,.613,1.295,4,4,0,0,1,0,2.346s1.085,2.416.63,3.08-1.927.6-2.137.525.561-.455-.8-.561-3.152-2.52-3.152-2.52a15.048,15.048,0,0,1-1.54-4.1A30.146,30.146,0,0,0,820,520.416c-.176-.525-.946-3.92-.946-3.92Z" transform="translate(-662.948 -418.009)" fill="#fa595f"/>
  <path id="Path_83" data-name="Path 83" d="M775.005,510.09s-.106,8.122-1.085,9.732Z" transform="translate(-626.791 -418.039)" opacity="0.1"/>
  <path id="Path_84" data-name="Path 84" d="M800.709,524.48s-.91,8.122-1.628,8.541S800.709,524.48,800.709,524.48Z" transform="translate(-646.834 -429.55)" opacity="0.1"/>
  <path id="Path_85" data-name="Path 85" d="M794.445,518.69s-.221,7.659-1.377,8.415S794.445,518.69,794.445,518.69Z" transform="translate(-641.886 -424.92)" opacity="0.1"/>
  <path id="Path_86" data-name="Path 86" d="M745.553,591.33s-1.448,4.235-1.285,5.985S745.553,591.33,745.553,591.33Z" transform="translate(-603.034 -483.02)" opacity="0.1"/>
  <path id="Path_87" data-name="Path 87" d="M764.231,558.254c-1.9.425-7.022,1.187-11.531-1.618,0-.375.018-.856.028-1.4,1.712.942,6.52,3.391,8.967,2.705,1.221-.349,1.995-.571,2.48-.714a2.637,2.637,0,0,0,.056,1.023Z" transform="translate(-609.81 -454.163)" opacity="0.1"/>
  <path id="Path_88" data-name="Path 88" d="M764.231,556.154c-1.9.423-7.022,1.185-11.531-1.618,0-.375.018-.858.028-1.4,1.712.942,6.52,3.391,8.967,2.705,1.221-.347,1.995-.571,2.48-.712A2.64,2.64,0,0,0,764.231,556.154Z" transform="translate(-609.81 -452.484)" opacity="0.1"/>
  <path id="Path_89" data-name="Path 89" d="M764.231,556.9c-1.9.423-7.022,1.185-11.531-1.618,0-.375.018-.856.028-1.4,1.712.942,6.52,3.391,8.967,2.705,1.221-.347,1.995-.571,2.48-.712A2.64,2.64,0,0,0,764.231,556.9Z" transform="translate(-609.81 -453.083)" fill="#605d82"/>
  <path id="Path_90" data-name="Path 90" d="M764.231,556.9c-1.9.423-7.022,1.185-11.531-1.618,0-.375.018-.856.028-1.4,1.712.942,6.52,3.391,8.967,2.705,1.221-.347,1.995-.571,2.48-.712A2.64,2.64,0,0,0,764.231,556.9Z" transform="translate(-609.81 -453.083)" opacity="0.1"/>
  <path id="Path_91" data-name="Path 91" d="M757.819,802.074a.331.331,0,0,1-.012.086l-2.927,2.232a3.421,3.421,0,0,0,.585-2.332v-.3a5.907,5.907,0,0,1,1.081-1.728.9.9,0,0,1,1,.225v.064a.916.916,0,0,1,.1.156A2.839,2.839,0,0,1,757.819,802.074Z" transform="translate(-611.545 -649.88)" opacity="0.1"/>
  <path id="Path_92" data-name="Path 92" d="M759.608,801.5l-2.208,1.516s.014-.178.034-.439a6.043,6.043,0,0,1,1.131-1.845.9.9,0,0,1,1,.225C759.581,801.289,759.608,801.5,759.608,801.5Z" transform="translate(-613.562 -650.444)" opacity="0.1"/>
  <path id="Path_93" data-name="Path 93" d="M756.045,803.11a5.5,5.5,0,0,0-.459,2.254,3.479,3.479,0,0,1-.469,1.817,1.557,1.557,0,0,1-.154.221,4.542,4.542,0,0,1-2.071-.457.526.526,0,0,1-.148-.17c-.307-.612.6-2.959.6-2.959a6.5,6.5,0,0,1,1.44-2.775C756.505,800.592,756.045,803.11,756.045,803.11Z" transform="translate(-609.784 -650.687)" fill="#5a5773"/>
  <path id="Path_94" data-name="Path 94" d="M755.964,818.539a1.562,1.562,0,0,1-.154.221,4.541,4.541,0,0,1-2.071-.457c.263-.874,1.107-3.517,1.5-3.068S755.871,817.7,755.964,818.539Z" transform="translate(-610.631 -662.051)" opacity="0.1"/>
  <path id="Path_95" data-name="Path 95" d="M763.406,815.422l-.106,3.962h.515a27.161,27.161,0,0,1,.313-3.962C764.359,814.935,763.406,815.422,763.406,815.422Z" transform="translate(-618.286 -662.067)" fill="#5a5773"/>
  <path id="Path_96" data-name="Path 96" d="M808.925,797.58l-.012.082h0L806,799.878a3.494,3.494,0,0,0,.569-2.318v-.3a5.9,5.9,0,0,1,1.079-1.726.922.922,0,0,1,1.007.224v.066a.821.821,0,0,1,.1.154A2.9,2.9,0,0,1,808.925,797.58Z" transform="translate(-652.486 -646.278)" opacity="0.1"/>
  <path id="Path_97" data-name="Path 97" d="M810.659,797l-2.208,1.518s.014-.178.036-.439a5.987,5.987,0,0,1,1.129-1.845.907.907,0,0,1,1.008.225C810.631,796.783,810.659,797,810.659,797Z" transform="translate(-654.448 -646.835)" opacity="0.1"/>
  <path id="Path_98" data-name="Path 98" d="M807.115,798.607a5.475,5.475,0,0,0-.461,2.254,3.479,3.479,0,0,1-.469,1.818,1.738,1.738,0,0,1-.154.221,4.542,4.542,0,0,1-2.071-.457.552.552,0,0,1-.144-.172c-.305-.612.6-2.958.6-2.958a6.5,6.5,0,0,1,1.44-2.775C807.574,796.093,807.115,798.607,807.115,798.607Z" transform="translate(-650.688 -647.082)" fill="#5a5773"/>
  <path id="Path_99" data-name="Path 99" d="M807.014,814.062a1.733,1.733,0,0,1-.154.221,4.541,4.541,0,0,1-2.071-.457c.263-.874,1.107-3.519,1.5-3.07S806.921,813.212,807.014,814.062Z" transform="translate(-651.516 -658.464)" opacity="0.1"/>
  <path id="Path_100" data-name="Path 100" d="M814.458,810.922l-.108,3.96h.515a27.135,27.135,0,0,1,.313-3.96C815.409,810.435,814.458,810.922,814.458,810.922Z" transform="translate(-659.171 -658.465)" fill="#5a5773"/>
  <path id="Path_101" data-name="Path 101" d="M777.818,452.432a2.477,2.477,0,0,1-1.524,2.358c-.279.086-.577.106-.862.164a1.845,1.845,0,0,0-.4.122,2.157,2.157,0,0,0-1.041,1.642c-.044.227-.072.457-.1.688a4.949,4.949,0,0,1-.273,1.291,3.268,3.268,0,0,1-1.345,1.532,8.66,8.66,0,0,1-2.232.934,5.017,5.017,0,0,0,.6-4.17c-.128-.409-.4-.866-.832-.854-.337.01-.578.309-.83.537-1.237,1.113-3.172.616-4.738.056a10.075,10.075,0,0,0,1.885-11.05,3.652,3.652,0,0,1-.343-.892,1.859,1.859,0,0,1,.086-.922,4.083,4.083,0,0,1,.567-1.055c.1-.138.2-.273.3-.411.134-.182.267-.365.387-.555a3.052,3.052,0,0,0,.4-.864,1.469,1.469,0,0,0-.728-1.768l-.036-.014a2.332,2.332,0,0,1-1.446-.878c-.331-.387-.519-1-1.085-1.111a3.262,3.262,0,0,0-1.378.221,3.852,3.852,0,1,1,6.943,2.827,8.489,8.489,0,0,0,2.847,3.836l1.776.736a17.561,17.561,0,0,1,1.566,1.059,22.923,22.923,0,0,0,1.129,3.649,12.837,12.837,0,0,1,.6,1.8A4.424,4.424,0,0,1,777.818,452.432Z" transform="translate(-617.944 -357.285)" opacity="0.1"/>
  <path id="Path_102" data-name="Path 102" d="M761.163,429.767a1.458,1.458,0,0,1,.764,1.781,5.955,5.955,0,0,1-1.083,1.829,2.732,2.732,0,0,0-.654,1.977,3.646,3.646,0,0,0,.343.892,10.094,10.094,0,0,1-1.885,11.05c1.566.561,3.5,1.057,4.738-.056.251-.227.493-.527.83-.537.429-.014.706.445.832.854a5.013,5.013,0,0,1-.6,4.168c1.442-.419,3.026-1.067,3.579-2.464a10.554,10.554,0,0,0,.371-1.981,2.154,2.154,0,0,1,1.041-1.64,10.386,10.386,0,0,1,1.261-.285A2.476,2.476,0,0,0,772.225,443a7.692,7.692,0,0,0-.718-2.891c-1.995-5.187-.12-1.031-1.213-7.274a7.362,7.362,0,0,1,.411-3.3,4.1,4.1,0,0,0-.652-3.675c-.876-.954-2.236-1.131-3.324-1.778-.964-.575-1.811-1.542-2.933-1.524a2.943,2.943,0,0,0-1.578.465c-1.311.551-2.781.385-4.114.84-1.2.411-2.717,1.756-2.354,3.192.489,1.933,1.829.511,2.875.728.567.12.754.722,1.085,1.111A2.4,2.4,0,0,0,761.163,429.767Z" transform="translate(-612.216 -347.994)" fill="#4a4347"/>
  <path id="Path_103" data-name="Path 103" d="M698.538,566.477s-.567-.06-1.329-.178c-1.995-.3-5.369-1-3.449-1.995,1.762-.922,4.189-.14,5.61.487a12.426,12.426,0,0,1,1.181.6Z" transform="translate(-562.143 -461.076)" fill="#a1616a"/>
  <path id="Path_104" data-name="Path 104" d="M755.065,496.291a53.643,53.643,0,0,1-1.365,5.6c-.455,1.011-1.2,3.677-1.2,3.677s-1.075.974-1.963,1.919l.4-1.4.016-.832c0-.375.018-.856.028-1.4.036-2.234.074-5.548,0-7.046.078-.146.128-.235.128-.235l.708-1.123a25.731,25.731,0,0,1,1.819-3.956C754.3,490.625,755.065,496.291,755.065,496.291Z" transform="translate(-608.071 -403.084)" opacity="0.1"/>
  <path id="Path_105" data-name="Path 105" d="M716.282,567.868s-.1.4-.273.938c-.217-.088-.4-.158-.533-.2-.6-.2.106-.455-.07-.98-.15-.451-.427-.309-.746-.435a8.719,8.719,0,0,1,.676-.812Z" transform="translate(-579.331 -463.075)" opacity="0.1"/>
  <path id="Path_106" data-name="Path 106" d="M724.161,495.453l-.708,1.123a21.191,21.191,0,0,0-1.111,2.334c-.15.553-.449,2.667-1.047,3.158s-1.821,2.065-1.646,2.38-1.646.7-1.646.7-1.225.491-1.155.876-1.016.7-.63.979.736,0,.912.525-.527.772.07.982,2.556,1.029,2.556,1.029,1.574.265,2.029-.68a21.152,21.152,0,0,1,3.046-3.29,37.834,37.834,0,0,1,1.2-3.677,51.97,51.97,0,0,0,1.367-5.6s-.736-5.672-1.4-4.788A27.011,27.011,0,0,0,724.161,495.453Z" transform="translate(-580.524 -403.081)" fill="#fa595f"/>
  <path id="Path_107" data-name="Path 107" d="M737.718,556.94s-3.465.455-1.61,1.225,2.486,0,2.486,0Z" transform="translate(-596.073 -455.527)" opacity="0.1"/>
  <path id="Path_108" data-name="Path 108" d="M724.79,566.543s2.031-.419,2.556,0S724.79,566.543,724.79,566.543Z" transform="translate(-587.445 -463.061)" opacity="0.1"/>
  <path id="Path_109" data-name="Path 109" d="M723.74,571.934s.14-.351.84,0S723.74,571.934,723.74,571.934Z" transform="translate(-586.603 -467.397)" opacity="0.1"/>
  <path id="Path_110" data-name="Path 110" d="M838.58,589.32s.212,3.192,1.071,3.3S838.58,589.32,838.58,589.32Z" transform="translate(-678.577 -481.42)" opacity="0.1"/>
  <path id="Path_111" data-name="Path 111" d="M843.627,553.1a1,1,0,0,1-.768,1.151C841.945,554.427,843.627,553.1,843.627,553.1Z" transform="translate(-681.786 -452.457)" opacity="0.1"/>
  <path id="Path_112" data-name="Path 112" d="M795.85,600.69s-.046,9.849,1.961,11.062Z" transform="translate(-644.356 -490.493)" opacity="0.1"/>
  <path id="Path_113" data-name="Path 113" d="M809.18,602.8s-.036,9.847,1.959,11.062Z" transform="translate(-655.031 -492.181)" opacity="0.1"/>
  <path id="Path_114" data-name="Path 114" d="M755.72,709.563a7.385,7.385,0,0,1,1.367,0C757.847,709.625,755.72,709.563,755.72,709.563Z" transform="translate(-612.216 -577.475)" opacity="0.1"/>
  <path id="Path_115" data-name="Path 115" d="M755.72,713.013a7.385,7.385,0,0,1,1.367,0C757.847,713.083,755.72,713.013,755.72,713.013Z" transform="translate(-612.216 -580.236)" opacity="0.1"/>
  <path id="Path_116" data-name="Path 116" d="M807.77,705.513a7.385,7.385,0,0,1,1.367,0C809.9,705.585,807.77,705.513,807.77,705.513Z" transform="translate(-653.902 -574.233)" opacity="0.1"/>
  <path id="Path_117" data-name="Path 117" d="M808.94,708.273a7.385,7.385,0,0,1,1.367,0C811.065,708.343,808.94,708.273,808.94,708.273Z" transform="translate(-654.839 -576.442)" opacity="0.1"/>
  <g id="Group_37" data-name="Group 37" transform="translate(143.523 75.982)" opacity="0.1">
    <path id="Path_118" data-name="Path 118" d="M759.552,452.628a10.075,10.075,0,0,0,1.885-11.05,3.648,3.648,0,0,1-.343-.892,2.724,2.724,0,0,1,.654-1.977,5.877,5.877,0,0,0,1.083-1.829,1.457,1.457,0,0,0-.764-1.779,2.335,2.335,0,0,1-1.446-.88c-.331-.387-.519-1-1.085-1.109-1.045-.217-2.394,1.2-2.875-.73a2.732,2.732,0,0,1,1.456-2.731c-1.159.481-2.5,1.758-2.156,3.108.489,1.933,1.829.513,2.875.73.567.118.754.722,1.085,1.109a2.34,2.34,0,0,0,1.446.88,1.455,1.455,0,0,1,.764,1.78,5.955,5.955,0,0,1-1.083,1.829,2.734,2.734,0,0,0-.654,1.979,3.664,3.664,0,0,0,.343.89,10.093,10.093,0,0,1-1.885,11.05c1.508.541,3.358,1.019,4.588.062A6.215,6.215,0,0,1,759.552,452.628Z" transform="translate(-755.906 -429.65)"/>
    <path id="Path_119" data-name="Path 119" d="M826.709,535.443a1.376,1.376,0,0,0-.4.275c.315-.078.648-.088.958-.186a1.8,1.8,0,0,0,.65-.363A7.934,7.934,0,0,0,826.709,535.443Z" transform="translate(-812.265 -514.119)"/>
    <path id="Path_120" data-name="Path 120" d="M801.212,546.334a11.039,11.039,0,0,1-1.516.549,5.013,5.013,0,0,0,.6-4.167c-.126-.4-.4-.868-.832-.856a1.064,1.064,0,0,0-.662.379c.4.014.672.457.8.854a5.013,5.013,0,0,1-.6,4.168A8.762,8.762,0,0,0,801.212,546.334Z" transform="translate(-790.243 -519.473)"/>
  </g>
</svg>
