<svg id="card7_icn" xmlns="http://www.w3.org/2000/svg" width="257.017" height="150.42" viewBox="0 0 257.017 150.42">
  <path id="Path_395" data-name="Path 395" d="M201.131,659.375a1.454,1.454,0,0,0-.857.3c-.731-1.931-1.862-3.171-3.132-3.171s-2.4,1.241-3.132,3.171a1.453,1.453,0,0,0-.857-.3c-1.443,0-2.614,2.441-2.614,5.453h13.206C203.744,661.816,202.574,659.375,201.131,659.375Z" transform="translate(-186.647 -518.447)" fill="#6c63ff"/>
  <rect id="Rectangle_105" data-name="Rectangle 105" width="66.955" height="0.609" transform="translate(0 146.076)" fill="#3f3d56"/>
  <path id="Path_396" data-name="Path 396" d="M983.129,617.349a1.453,1.453,0,0,0-.857.3c-.731-1.931-1.862-3.171-3.132-3.171s-2.4,1.241-3.132,3.171a1.453,1.453,0,0,0-.857-.3c-1.443,0-2.614,2.441-2.614,5.453h13.206C985.743,619.79,984.574,617.349,983.129,617.349Z" transform="translate(-730.65 -489.212)" fill="#6c63ff"/>
  <path id="Path_397" data-name="Path 397" d="M545.973,291.726H482.216v-1.314h-28.91v1.314H389.287a4.313,4.313,0,0,0-4.313,4.313v87.3a4.313,4.313,0,0,0,4.313,4.313H545.973a4.313,4.313,0,0,0,4.313-4.313v-87.3a4.313,4.313,0,0,0-4.313-4.313Z" transform="translate(-321.907 -263.772)" fill="#3f3d56"/>
  <rect id="Rectangle_106" data-name="Rectangle 106" width="153.744" height="86.731" transform="translate(68.85 35.575)" opacity="0.2"/>
  <circle id="Ellipse_96" data-name="Ellipse 96" cx="1.577" cy="1.577" r="1.577" transform="translate(144.014 30.057)" fill="#6c63ff"/>
  <rect id="Rectangle_107" data-name="Rectangle 107" width="223.083" height="0.609" transform="translate(33.934 132.982)" fill="#3f3d56"/>
  <path id="Path_398" data-name="Path 398" d="M622.568,352.115V345.7a7.873,7.873,0,0,0-7.873-7.873h-6.417c0-.866-2.784-1.576-6.32-1.643v-7.738a4.4,4.4,0,1,0-1.1,0v7.738c-3.537.067-6.32.777-6.32,1.643h-7.516a7.873,7.873,0,0,0-7.873,7.873v6.417c-.911,0-1.649,3.076-1.649,6.87s.738,6.87,1.649,6.87v7.516a7.873,7.873,0,0,0,7.873,7.873H614.7a7.873,7.873,0,0,0,7.873-7.873v-7.516c.911,0,1.649-3.076,1.649-6.87S623.479,352.115,622.568,352.115Z" transform="translate(-455.84 -284.135)" fill="#6c63ff"/>
  <path id="Path_399" data-name="Path 399" d="M420.27,184.539h24.52a6.976,6.976,0,0,1,6.976,6.976v24.52a6.976,6.976,0,0,1-6.976,6.976H420.27a6.976,6.976,0,0,1-6.976-6.976v-24.52A6.976,6.976,0,0,1,420.27,184.539Z" transform="translate(-287.511 -128.376)" fill="#3f3d56"/>
  <path id="Path_400" data-name="Path 400" d="M614.05,435.527a4.952,4.952,0,0,1-4.946-4.946.275.275,0,0,1,.55,0,4.4,4.4,0,1,0,8.794,0,.275.275,0,1,1,.549,0A4.952,4.952,0,0,1,614.05,435.527Z" transform="translate(-477.824 -361.09)" fill="#6c63ff"/>
  <path id="Path_401" data-name="Path 401" d="M645.456,468.74a3.852,3.852,0,0,1-3.847-3.847.275.275,0,1,1,.55,0,3.3,3.3,0,0,0,6.6,0,.275.275,0,1,1,.55,0A3.852,3.852,0,0,1,645.456,468.74Z" transform="translate(-500.437 -384.959)" fill="#6c63ff"/>
  <path id="Path_402" data-name="Path 402" d="M671.838,435.527a4.952,4.952,0,0,1-4.946-4.946.275.275,0,1,1,.55,0,4.4,4.4,0,0,0,8.794,0,.275.275,0,1,1,.55,0A4.952,4.952,0,0,1,671.838,435.527Z" transform="translate(-518.025 -361.09)" fill="#6c63ff"/>
  <circle id="Ellipse_97" data-name="Ellipse 97" cx="2.473" cy="2.473" r="2.473" transform="translate(133.752 67.293)" fill="#6c63ff"/>
  <circle id="Ellipse_98" data-name="Ellipse 98" cx="2.473" cy="2.473" r="2.473" transform="translate(151.339 67.293)" fill="#6c63ff"/>
  <ellipse id="Ellipse_99" data-name="Ellipse 99" cx="2.198" cy="1.099" rx="2.198" ry="1.099" transform="translate(142.821 80.208)" fill="#6c63ff"/>
  <path id="Path_403" data-name="Path 403" d="M539.584,596.6H524.579v-1.081a.214.214,0,0,0-.214-.214h-5.144a.214.214,0,0,0-.214.214V596.6h-3.216v-1.081a.214.214,0,0,0-.214-.214h-5.144a.214.214,0,0,0-.214.214V596.6H507v-1.081a.214.214,0,0,0-.214-.214h-5.145a.214.214,0,0,0-.214.214V596.6h-3.215v-1.081a.214.214,0,0,0-.214-.214h-5.145a.214.214,0,0,0-.214.214V596.6h-3.215v-1.081a.214.214,0,0,0-.214-.214h-5.144a.214.214,0,0,0-.214.214V596.6h-3.215v-1.081a.214.214,0,0,0-.214-.214h-5.145a.214.214,0,0,0-.214.214V596.6h-3.215v-1.081a.214.214,0,0,0-.214-.214h-40.3a.214.214,0,0,0-.214.214V596.6h-3.215v-1.081a.214.214,0,0,0-.214-.214h-5.145a.214.214,0,0,0-.214.214V596.6h-3.215v-1.081a.214.214,0,0,0-.214-.214h-5.144a.214.214,0,0,0-.214.214V596.6h-3.215v-1.081a.214.214,0,0,0-.214-.214H404.97a.214.214,0,0,0-.214.214V596.6h-3.215v-1.081a.214.214,0,0,0-.214-.214h-5.145a.214.214,0,0,0-.214.214V596.6h-3.215v-1.081a.214.214,0,0,0-.214-.214h-5.145a.214.214,0,0,0-.214.214V596.6h-3.215v-1.081a.214.214,0,0,0-.214-.214H378.6a.214.214,0,0,0-.214.214V596.6h-9.86a5.144,5.144,0,0,0-5.144,5.144v2.326a5.144,5.144,0,0,0,5.144,5.144H539.584a5.144,5.144,0,0,0,5.144-5.144v-2.326a5.145,5.145,0,0,0-5.145-5.145Z" transform="translate(-306.889 -475.875)" fill="#3f3d56"/>
  <rect id="Rectangle_108" data-name="Rectangle 108" width="102.563" height="0.609" transform="translate(92.368 96.765)" fill="#6c63ff"/>
  <path id="Path_404" data-name="Path 404" d="M447.51,454.433H422.25a169.041,169.041,0,0,0,0-28.608h25.26A95.816,95.816,0,0,0,447.51,454.433Z" transform="translate(-347.838 -357.973)" fill="#d0cde1"/>
  <rect id="Rectangle_109" data-name="Rectangle 109" width="18.261" height="1.217" transform="translate(78.064 73.635)" fill="#3f3d56"/>
  <rect id="Rectangle_110" data-name="Rectangle 110" width="18.261" height="1.217" transform="translate(78.064 77.591)" fill="#3f3d56"/>
  <rect id="Rectangle_111" data-name="Rectangle 111" width="18.261" height="1.217" transform="translate(78.064 81.548)" fill="#3f3d56"/>
  <rect id="Rectangle_112" data-name="Rectangle 112" width="18.261" height="1.217" transform="translate(78.064 85.504)" fill="#3f3d56"/>
  <rect id="Rectangle_113" data-name="Rectangle 113" width="18.261" height="1.217" transform="translate(78.064 89.461)" fill="#3f3d56"/>
  <path id="Path_405" data-name="Path 405" d="M254.885,203.853s-3.969-1.417-6.52,4.252a111.81,111.81,0,0,1-6.52,11.907l2.268.567s.567-3.969,1.984-4.536l-.567,5.1s17.01,5.953,24.664-.567l-.284-1.984s1.134.283,1.134,1.984l.851-.85a15.237,15.237,0,0,0-3.4-3.969c-1.675-1.489-2.25-4.321-2.448-6.091a7.371,7.371,0,0,0-1.7-4.014C262.653,203.69,259.563,201.6,254.885,203.853Z" transform="translate(-222.338 -202.877)" fill="#2f2e41"/>
  <path id="Path_406" data-name="Path 406" d="M69.335,414.136l1.217,7,4.869-.913.913-6.087Z" transform="translate(-48.233 -288.097)" fill="#ffb9b9"/>
  <path id="Path_407" data-name="Path 407" d="M251.762,630.013l-6.7.609.3,5.478-.3,7s-3.956,7.913,1.826,7.3,5.174-3.652,5.174-3.652l1.522-1.826-.913-4.565Z" transform="translate(-223.66 -500.018)" fill="#2f2e41"/>
  <path id="Path_408" data-name="Path 408" d="M143.335,414.136l-1.217,7-4.869-.913-.913-6.087Z" transform="translate(-94.843 -288.097)" fill="#ffb9b9"/>
  <path id="Path_409" data-name="Path 409" d="M309.911,630.013l6.7.609-.3,5.478.3,7s3.956,7.913-1.826,7.3-5.174-3.652-5.174-3.652l-1.522-1.826.913-4.565Z" transform="translate(-268.419 -500.018)" fill="#2f2e41"/>
  <circle id="Ellipse_100" data-name="Ellipse 100" cx="7" cy="7" r="7" transform="translate(27.493 5.824)" fill="#ffb9b9"/>
  <path id="Path_410" data-name="Path 410" d="M276.085,257.013,277,267.969l8.522-.3s-2.435-7-.913-9.739Z" transform="translate(-246.158 -240.537)" fill="#ffb9b9"/>
  <path id="Path_411" data-name="Path 411" d="M239.758,281.016l3.505-2.186,3.8,1.882,6.087,2.739-2.13,25.869s4.869,16.13,3.956,24.043,10.043,47.477,1.217,49.3-15.217,3.652-15.521.609-.913-49.608-.913-49.608-.913,49.3-4.565,49.912-19.478,3.043-18.261-.609,9.435-67.564,13.391-71.216l.609-3.043-5.174-24.652,9.716-4.842Z" transform="translate(-204.961 -255.714)" fill="#2f2e41"/>
  <path id="Path_412" data-name="Path 412" d="M229.427,410.013l-.3,12.478s-2.93,12.319,2.035,12.247,1.313-12.247,1.313-12.247l2.13-12.174Z" transform="translate(-212.891 -346.973)" fill="#ffb9b9"/>
  <path id="Path_413" data-name="Path 413" d="M374.954,366.982l8.553,9.091s10.4,7.221,6.656,10.479-9.149-8.245-9.149-8.245l-9.71-7.645Z" transform="translate(-312.397 -317.038)" fill="#ffb9b9"/>
  <path id="Path_414" data-name="Path 414" d="M83.835,176.092l20.844-.639-.271-1.415v-.006l-20.147-.365Z" transform="translate(-58.32 -120.812)" fill="#d0cde1"/>
  <circle id="Ellipse_101" data-name="Ellipse 101" cx="1.826" cy="1.826" r="1.826" transform="translate(27.949 52.236)" fill="#2f2e41"/>
  <path id="Path_415" data-name="Path 415" d="M229.3,295.97l-1.978-.457a5.917,5.917,0,0,0-3.2,4.413c-.609,3.348-8.522,29.521-4.565,31.043s9.739,2.13,9.739,1.522,2.435-23.434,2.435-23.434Z" transform="translate(-206.071 -267.32)" fill="#2f2e41"/>
  <path id="Path_416" data-name="Path 416" d="M315.25,296.086l6.341-2.073a3.084,3.084,0,0,1,3.043,3.348c0,1.381,5.833,12.725,5.833,12.725s14.015,9.99,11.869,10.348c-3.652.609-5.783,7-5.783,7l-13.7-12.174Z" transform="translate(-273.403 -266.277)" fill="#2f2e41"/>
  <path id="Path_417" data-name="Path 417" d="M262.386,225.342s2.268-3.118,4.252-3.685,2.268-3.4,2.268-3.4,5.1,5.67,8.221,5.953.284-6.8.284-6.8l-5.67-1.417-5.386.567-4.253,2.835Z" transform="translate(-236.43 -211.997)" fill="#2f2e41"/>
  <ellipse id="Ellipse_102" data-name="Ellipse 102" cx="0.913" cy="1.37" rx="0.913" ry="1.37" transform="translate(26.732 10.389)" fill="#ffb9b9"/>
</svg>
