<svg id="card9_icn" xmlns="http://www.w3.org/2000/svg" width="186" height="141.21" viewBox="0 0 186 141.21">
  <path id="Path_443" data-name="Path 443" d="M149.909,147.349c-40.034-3.047-87.777-34.066-85.346-66.006s48.67-61.674,88.7-58.627,63.079,62.737,60.648,94.677S189.943,150.4,149.909,147.349Z" transform="translate(-59.921 -22.5)" fill="#f2f2f2"/>
  <ellipse id="Ellipse_103" data-name="Ellipse 103" cx="83.57" cy="5.12" rx="83.57" ry="5.12" transform="translate(9.776 119.739)" fill="#3f3d56"/>
  <ellipse id="Ellipse_104" data-name="Ellipse 104" cx="71.183" cy="3.386" rx="71.183" ry="3.386" transform="translate(22.163 121.391)" opacity="0.1"/>
  <ellipse id="Ellipse_105" data-name="Ellipse 105" cx="35.045" cy="3.055" rx="35.045" ry="3.055" transform="translate(0 135.099)" fill="#3f3d56"/>
  <ellipse id="Ellipse_106" data-name="Ellipse 106" cx="29.851" cy="2.021" rx="29.851" ry="2.021" transform="translate(5.195 136.085)" opacity="0.1"/>
  <rect id="Rectangle_117" data-name="Rectangle 117" width="124.199" height="97.443" transform="translate(32.403 26.756)" fill="#3f3d56"/>
  <path id="Path_444" data-name="Path 444" d="M443.784,261.37h-30.64a.372.372,0,0,1,0-.744h30.64a.372.372,0,1,1,0,.744Z" transform="translate(-350.695 -221.298)" fill="#f2f2f2"/>
  <path id="Path_445" data-name="Path 445" d="M558.146,286.136H509.955a.372.372,0,0,1,0-.744h48.191a.372.372,0,0,1,0,.744Z" transform="translate(-431.517 -241.973)" fill="#f2f2f2"/>
  <path id="Path_446" data-name="Path 446" d="M444.684,310.9h-30.64a.372.372,0,1,1,0-.744h30.64a.372.372,0,0,1,0,.744Z" transform="translate(-351.446 -262.649)" fill="#f2f2f2"/>
  <path id="Path_447" data-name="Path 447" d="M646.862,311.352h-30.64a.372.372,0,0,1,0-.744h30.64a.372.372,0,0,1,0,.744Z" transform="translate(-520.233 -263.025)" fill="#f2f2f2"/>
  <path id="Path_448" data-name="Path 448" d="M445.134,335.667h-30.64a.372.372,0,1,1,0-.744h30.64a.372.372,0,1,1,0,.744Z" transform="translate(-351.822 -283.324)" fill="#f2f2f2"/>
  <path id="Path_449" data-name="Path 449" d="M445.585,360.433h-30.64a.372.372,0,1,1,0-.744h30.64a.372.372,0,0,1,0,.744Z" transform="translate(-352.198 -304)" fill="#f2f2f2"/>
  <path id="Path_450" data-name="Path 450" d="M640.308,261.82h-8.776a.372.372,0,0,1,0-.744h8.776a.372.372,0,0,1,0,.744Z" transform="translate(-533.014 -221.673)" fill="#f2f2f2"/>
  <path id="Path_451" data-name="Path 451" d="M640.308,335.667h-8.776a.372.372,0,0,1,0-.744h8.776a.372.372,0,0,1,0,.744Z" transform="translate(-533.014 -283.324)" fill="#f2f2f2"/>
  <path id="Path_452" data-name="Path 452" d="M640.308,359.983h-8.776a.372.372,0,0,1,0-.744h8.775a.372.372,0,0,1,0,.744Z" transform="translate(-533.014 -303.624)" fill="#f2f2f2"/>
  <path id="Path_453" data-name="Path 453" d="M729.465,359.983h-8.775a.372.372,0,0,1,0-.744h8.775a.372.372,0,0,1,0,.744Z" transform="translate(-607.447 -303.624)" fill="#f2f2f2"/>
  <path id="Path_454" data-name="Path 454" d="M421.469,286.136h-8.775a.372.372,0,0,1,0-.744h8.775a.372.372,0,1,1,0,.744Z" transform="translate(-350.318 -241.973)" fill="#f2f2f2"/>
  <path id="Path_455" data-name="Path 455" d="M444.009,626.1h-30.64a.372.372,0,1,1,0-.744h30.64a.372.372,0,1,1,0,.744Z" transform="translate(-350.883 -525.792)" fill="#f2f2f2"/>
  <path id="Path_456" data-name="Path 456" d="M443.108,675.633h-30.64a.372.372,0,1,1,0-.744h30.64a.372.372,0,1,1,0,.744Z" transform="translate(-350.131 -567.142)" fill="#f2f2f2"/>
  <path id="Path_457" data-name="Path 457" d="M443.558,700.4h-30.64a.372.372,0,0,1,0-.744h30.64a.372.372,0,1,1,0,.744Z" transform="translate(-350.506 -587.818)" fill="#f2f2f2"/>
  <path id="Path_458" data-name="Path 458" d="M633.329,676.083h-8.775a.372.372,0,0,1,0-.744h8.775a.372.372,0,1,1,0,.744Z" transform="translate(-527.188 -567.518)" fill="#f2f2f2"/>
  <path id="Path_459" data-name="Path 459" d="M633.329,700.4h-8.775a.372.372,0,0,1,0-.744h8.775a.372.372,0,1,1,0,.744Z" transform="translate(-527.188 -587.818)" fill="#f2f2f2"/>
  <path id="Path_460" data-name="Path 460" d="M722.485,676.083h-8.776a.372.372,0,0,1,0-.744h8.776a.372.372,0,0,1,0,.744Z" transform="translate(-601.619 -567.518)" fill="#f2f2f2"/>
  <path id="Path_461" data-name="Path 461" d="M558.371,650.867H510.18a.372.372,0,0,1,0-.744h48.191a.372.372,0,1,1,0,.744Z" transform="translate(-431.705 -546.466)" fill="#f2f2f2"/>
  <path id="Path_462" data-name="Path 462" d="M421.694,650.867h-8.775a.372.372,0,0,1,0-.744h8.775a.372.372,0,1,1,0,.744Z" transform="translate(-350.506 -546.466)" fill="#f2f2f2"/>
  <path id="Path_463" data-name="Path 463" d="M558.371,725.615H510.18a.372.372,0,0,1,0-.744h48.191a.372.372,0,1,1,0,.744Z" transform="translate(-431.705 -608.869)" fill="#f2f2f2"/>
  <path id="Path_464" data-name="Path 464" d="M421.694,725.615h-8.775a.372.372,0,0,1,0-.744h8.775a.372.372,0,1,1,0,.744Z" transform="translate(-350.506 -608.869)" fill="#f2f2f2"/>
  <path id="Path_465" data-name="Path 465" d="M458.913,401.13l-11.9,11.75,11.9,11.75,2.677-2.677-9-9,9.073-9.073Z" transform="translate(-373.186 -334.88)" fill="#6c63ff"/>
  <path id="Path_466" data-name="Path 466" d="M611.419,401.13l11.9,11.75-11.9,11.75-2.677-2.677,9-9-9.073-9.073Z" transform="translate(-508.141 -334.88)" fill="#6c63ff"/>
  <circle id="Ellipse_107" data-name="Ellipse 107" cx="1.486" cy="1.486" r="1.486" transform="translate(34.22 27.746)" fill="#6c63ff"/>
  <circle id="Ellipse_108" data-name="Ellipse 108" cx="1.486" cy="1.486" r="1.486" transform="translate(38.183 27.746)" fill="#6c63ff"/>
  <circle id="Ellipse_109" data-name="Ellipse 109" cx="1.486" cy="1.486" r="1.486" transform="translate(42.147 27.746)" fill="#6c63ff"/>
  <rect id="Rectangle_118" data-name="Rectangle 118" width="124.199" height="0.495" transform="translate(32.403 31.71)" opacity="0.1"/>
  <path id="Path_467" data-name="Path 467" d="M1021.717,508.987c0,10.532-6.261,14.21-13.985,14.21s-13.985-3.677-13.985-14.21,13.985-23.931,13.985-23.931S1021.717,498.455,1021.717,508.987Z" transform="translate(-835.717 -408.661)" fill="#f2f2f2"/>
  <path id="Path_468" data-name="Path 468" d="M1010.02,499.086l.144-8.815,5.961-10.9-5.937,9.522.064-3.963,4.107-7.889-4.091,6.841h0l.116-7.128,4.4-6.281-4.382,5.16.073-13.071-.454,17.3.036-.714-4.473-6.846,4.4,8.216-.418,7.961-.012-.211-5.156-7.2,5.14,7.951-.051,1-.01.015.005.082-1.057,20.2h1.412l.169-10.433,5.128-7.931Z" transform="translate(-838.516 -386.161)" fill="#3f3d56"/>
  <path id="Path_469" data-name="Path 469" d="M135.262,768.689a7.122,7.122,0,0,1-1.351.578c-.839.229-1.735.145-2.583.341a1.062,1.062,0,0,0-.835.586,1.231,1.231,0,0,0,.091.764c.936,2.745,1.5,5.659,2.994,8.146a12.328,12.328,0,0,0,2.311,2.806,2.2,2.2,0,0,0,1.178.653,1.2,1.2,0,0,0,1.217-1.682c-.134-.3-.383-.528-.543-.812a3.1,3.1,0,0,1-.3-1.155,7.506,7.506,0,0,1,.117-3.512,11.806,11.806,0,0,1,1.19-2.056,3.589,3.589,0,0,0,.671-2.237,3.885,3.885,0,0,0-.6-1.5c-.278-.466-.827-1.719-1.384-1.875C136.853,767.578,135.767,768.43,135.262,768.689Z" transform="translate(-115.01 -644.641)" fill="#2f2e41"/>
  <path id="Path_470" data-name="Path 470" d="M246.284,814.5a2.315,2.315,0,0,1-.11.784c-.175.461-.608.777-.832,1.217a2.688,2.688,0,0,0,.036,2,2.054,2.054,0,0,0,.646,1.09,2.13,2.13,0,0,0,.983.315,83,83,0,0,0,9.011.262,3.076,3.076,0,0,0,1.606-.233,1.013,1.013,0,0,0,.449-1.382c-.292-.4-.87-.393-1.361-.416a5.6,5.6,0,0,1-3.454-1.423,2.5,2.5,0,0,1-.484-.558,3.425,3.425,0,0,1-.253-.581,25.9,25.9,0,0,0-1.5-3.323,1.761,1.761,0,0,0-.645-.772,1.706,1.706,0,0,0-.7-.153c-.749-.049-2.689-.3-3.269.279C245.871,812.145,246.3,813.812,246.284,814.5Z" transform="translate(-210.766 -680.965)" fill="#2f2e41"/>
  <circle id="Ellipse_110" data-name="Ellipse 110" cx="4.785" cy="4.785" r="4.785" transform="translate(35.343 57.433)" fill="#fbbebe"/>
  <path id="Path_471" data-name="Path 471" d="M246.279,411.926a3.6,3.6,0,0,1-1.47,1.888l6.619,1.35a7.011,7.011,0,0,1-.093-2.951,1.7,1.7,0,0,0,.04-.728c-.124-.48-.665-.711-1.149-.822a15.347,15.347,0,0,1-3.4-.957A16,16,0,0,0,246.279,411.926Z" transform="translate(-210.471 -345.756)" fill="#fbbebe"/>
  <path id="Path_472" data-name="Path 472" d="M214.17,421.4a5.176,5.176,0,0,1,4.511.118,10.211,10.211,0,0,1,2.241,1.788,3.579,3.579,0,0,1,1.36,2.2,6.163,6.163,0,0,1-.179,1.269,4.255,4.255,0,0,0,2.276,4.372,5.792,5.792,0,0,1,.642,2.959c.031,3.871-1.191,7.789-.319,11.56.2.885.522,1.743.7,2.634.229,1.155.218,2.342.338,3.513a15.735,15.735,0,0,0,.844,3.715,1.543,1.543,0,0,1-1.427.6,4.031,4.031,0,0,1-1.526-.518c-2.333-1.194-4.469-2.768-6.885-3.782-1.6-.671-3.3-1.089-4.852-1.864a6.354,6.354,0,0,1-3.467-3.673,8.6,8.6,0,0,1-.229-2.23,40.484,40.484,0,0,1,.6-9.429c.606-2.717,1.774-5.317,2.029-8.09a5.5,5.5,0,0,1,.589-2.622C212.125,422.852,213.663,422.577,214.17,421.4Z" transform="translate(-179.888 -355.134)" fill="#2f2e41"/>
  <path id="Path_473" data-name="Path 473" d="M237.135,362.732a1.237,1.237,0,0,1,1.276-.309c.45.109.866.341,1.321.429a.772.772,0,0,0,.618-.087.9.9,0,0,0,.267-.59,11.257,11.257,0,0,0,.111-2.871.85.85,0,0,1,.026-.4c.113-.271.456-.336.737-.423a2.2,2.2,0,0,0,1.489-2.252.9.9,0,0,0-.274-.618,1.125,1.125,0,0,0-.716-.17q-1.93-.015-3.859,0a2.8,2.8,0,0,0-1.389.253,6.75,6.75,0,0,0-.806.679,7.9,7.9,0,0,1-2.55.989,2.528,2.528,0,0,0-1.118.667,1.177,1.177,0,0,0-.247,1.221,4.333,4.333,0,0,0,.312.48c.513.82.171,1.883.248,2.847a5.209,5.209,0,0,0,3.085,3.441C237.616,366.478,236.489,363.522,237.135,362.732Z" transform="translate(-199.728 -300.446)" fill="#2f2e41"/>
  <path id="Path_474" data-name="Path 474" d="M242.361,676.766a14.282,14.282,0,0,1,.239,2.647c-.059,1.238-.505,2.43-.588,3.666-.062.923.081,1.857-.047,2.773-.082.587-.273,1.153-.392,1.733a7.167,7.167,0,0,0,1.152,5.494.9.9,0,0,0,.334.324.943.943,0,0,0,.414.055,29.716,29.716,0,0,0,4.157-.378.4.4,0,0,0,.267-.118.375.375,0,0,0,.058-.158c.255-1.311-.326-2.625-.474-3.952a12.266,12.266,0,0,1,.52-4.222,18.748,18.748,0,0,1,.573-2.02c.163-.445.36-.879.5-1.332a10.152,10.152,0,0,0,.364-2.18q.147-1.747.156-3.5a14.693,14.693,0,0,0-.275-3.3,17.616,17.616,0,0,0-1.575-3.919,2.48,2.48,0,0,0-.928.441,20.715,20.715,0,0,1-2.535,1.4c-.589.274-1.738.468-2.112,1.038s-.131,1.71-.1,2.33Q242.139,675.181,242.361,676.766Z" transform="translate(-207.656 -561.704)" fill="#2f2e41"/>
  <path id="Path_475" data-name="Path 475" d="M242.361,676.766a14.282,14.282,0,0,1,.239,2.647c-.059,1.238-.505,2.43-.588,3.666-.062.923.081,1.857-.047,2.773-.082.587-.273,1.153-.392,1.733a7.167,7.167,0,0,0,1.152,5.494.9.9,0,0,0,.334.324.943.943,0,0,0,.414.055,29.716,29.716,0,0,0,4.157-.378.4.4,0,0,0,.267-.118.375.375,0,0,0,.058-.158c.255-1.311-.326-2.625-.474-3.952a12.266,12.266,0,0,1,.52-4.222,18.748,18.748,0,0,1,.573-2.02c.163-.445.36-.879.5-1.332a10.152,10.152,0,0,0,.364-2.18q.147-1.747.156-3.5a14.693,14.693,0,0,0-.275-3.3,17.616,17.616,0,0,0-1.575-3.919,2.48,2.48,0,0,0-.928.441,20.715,20.715,0,0,1-2.535,1.4c-.589.274-1.738.468-2.112,1.038s-.131,1.71-.1,2.33Q242.139,675.181,242.361,676.766Z" transform="translate(-207.656 -561.704)" opacity="0.1"/>
  <path id="Path_476" data-name="Path 476" d="M176.1,605.518c-.635,1.711.3,3.56,1.11,5.195a90.826,90.826,0,0,1,4.769,12.6,1.545,1.545,0,0,1,.091.987,1.292,1.292,0,0,1-.466.553,11,11,0,0,1-3.3,1.359,14.888,14.888,0,0,0-3.129,1.467c-.822.509-1.592,1.1-2.36,1.684l-2.446,1.868a1.637,1.637,0,0,0-.409.4,1.6,1.6,0,0,0-.022,1.276,21.706,21.706,0,0,0,1.2,3.269,1.141,1.141,0,0,0,.434.569c.382.205.849-.067,1.14-.388s.544-.72.955-.858.862.029,1.291-.031c.693-.1,1.154-.736,1.654-1.227,2.042-2,5.452-1.858,7.7-3.63a9.781,9.781,0,0,1,1.029-.8c.38-.224.81-.348,1.2-.546a5.107,5.107,0,0,0,2.356-3.131c.4-1.28.519-2.631.809-3.941a17.139,17.139,0,0,0,.414-2.038,10.916,10.916,0,0,0-.042-1.927l-.811-10.028c-.066-.816-.132-1.634-.26-2.443-2.407.086-4.813.183-7.222.211A17.228,17.228,0,0,1,176.1,605.518Z" transform="translate(-147.866 -509.228)" fill="#2f2e41"/>
  <path id="Path_477" data-name="Path 477" d="M201.331,599.841a1.286,1.286,0,0,0,1.669.226c.547-.288.973-.772,1.521-1.057a4.944,4.944,0,0,1,2.44-.346,15.867,15.867,0,0,1,3.912.437c1.309.373,2.583,1.091,3.936.947a.81.81,0,0,0,.621-.292.915.915,0,0,0,.1-.468l.044-1.182a1.068,1.068,0,0,0-.094-.6,1,1,0,0,0-.449-.343,15.479,15.479,0,0,0-6.262-1.179q-1.631-.056-3.263-.046a11.89,11.89,0,0,0-2.93.119C201.375,596.389,200.72,598.858,201.331,599.841Z" transform="translate(-173.98 -501.205)" fill="#2f2e41"/>
  <path id="Path_478" data-name="Path 478" d="M212.072,423.464c-2.524-.022-4.811-1.688-7.335-1.729a1.9,1.9,0,0,0-.891.154,3.316,3.316,0,0,0-.85.809c-.746.808-1.827,1.24-2.593,2.028a3.008,3.008,0,0,0-.835,2.833,2.105,2.105,0,0,0,2.358,1.514,6.078,6.078,0,0,1,2.368-3.217,12.039,12.039,0,0,1,1.851-.971,5.123,5.123,0,0,1,3.587-.652,5.06,5.06,0,0,1,1.224.667l1.974,1.326A13.745,13.745,0,0,0,212.072,423.464Z" transform="translate(-172.626 -355.794)" fill="#6c63ff"/>
  <path id="Path_479" data-name="Path 479" d="M194.8,438.577c-.335.418.148,1.024.074,1.555-.049.353-.339.622-.46.957a5.128,5.128,0,0,0-.106,1.1,4.705,4.705,0,0,1-.211.781,14.033,14.033,0,0,0-.444,2.316l-.442,3.3a12.5,12.5,0,0,0-.14,1.5A4.476,4.476,0,0,1,193,451.2a8.276,8.276,0,0,1-.46,1.02,1.2,1.2,0,0,0-.016,1.078,1.884,1.884,0,0,0-.394,2.351,1.3,1.3,0,0,1,.2.374.961.961,0,0,1-.089.552l-.447,1.19c-.114.3-.151.768.167.838a2.809,2.809,0,0,0-.6.952,1.134,1.134,0,0,0,.161,1.074,1.368,1.368,0,0,1,.28.34.9.9,0,0,1-.032.536,1.966,1.966,0,0,0,.243,1.541,1.383,1.383,0,0,0,1.39.6,6.352,6.352,0,0,1,2.6-.354,46.4,46.4,0,0,1,5.765,1.313c2.144.685,4.221,1.689,6.462,1.9a.627.627,0,0,0,.432-.067.649.649,0,0,0,.2-.411l.693-3.248a33.422,33.422,0,0,0,.637-3.638c.079-.79.1-1.584.124-2.377l.178-6.314a6.309,6.309,0,0,0-.363-2.745l-1.027-3.278c-.586-1.871-1.93-3.53-2.409-5.431a8.029,8.029,0,0,0-1.339-3.432c-1.158-1.337-3.162-1.545-4.916-1.315a5.873,5.873,0,0,0-2.277.694,7.46,7.46,0,0,0-1.941,1.955C195.751,437.5,195.277,437.983,194.8,438.577Z" transform="translate(-165.791 -366.177)" fill="#6c63ff"/>
  <path id="Path_480" data-name="Path 480" d="M236.519,552.62c.145.623.448,1.2.634,1.81.311,1.025.285,2.13.6,3.155.13.43.319.844.413,1.284a5.319,5.319,0,0,1-.5,3.058,11.948,11.948,0,0,0-1.006,2.969,2.275,2.275,0,0,0,.6,2.036,2.976,2.976,0,0,0,2.2.395,2.316,2.316,0,0,0,.8-.167,2.159,2.159,0,0,0,.967-1.6,23.737,23.737,0,0,0,.194-6.474l-.348-5.654a13.232,13.232,0,0,0-.474-3.245,3.1,3.1,0,0,0-.682-1.391,4.589,4.589,0,0,0-1.752-.271C236.173,548.433,236.2,551.221,236.519,552.62Z" transform="translate(-203.415 -461.647)" fill="#fbbebe"/>
  <path id="Path_481" data-name="Path 481" d="M230.533,446.317a1.375,1.375,0,0,0-1.317.116,4.058,4.058,0,0,0-.986.958c-.882,1.076-1.815,2.311-1.684,3.7a9.376,9.376,0,0,0,.383,1.515c.591,2.21-.063,4.547.012,6.833a21.4,21.4,0,0,0,.617,3.911c.058.263.152.568.407.657a.883.883,0,0,0,.587-.091,4.686,4.686,0,0,1,4.288.541c.473-.253.3-1.051.19-1.577a9.061,9.061,0,0,1,.632-4.68,17.239,17.239,0,0,0,1.227-4.6,14.063,14.063,0,0,0-1.09-5.269,1.694,1.694,0,0,0-1.427-1.413A9.844,9.844,0,0,1,230.533,446.317Z" transform="translate(-195.215 -376.22)" fill="#2f2e41"/>
</svg>
