<svg xmlns="http://www.w3.org/2000/svg" xmlns:xlink="http://www.w3.org/1999/xlink" width="215" height="165.091" viewBox="0 0 215 165.091">
  <defs>
    <linearGradient id="linear-gradient" x1="0.5" y1="1" x2="0.5" gradientUnits="objectBoundingBox">
      <stop offset="0" stop-color="gray" stop-opacity="0.251"/>
      <stop offset="0.54" stop-color="gray" stop-opacity="0.122"/>
      <stop offset="1" stop-color="gray" stop-opacity="0.102"/>
    </linearGradient>
    <linearGradient id="linear-gradient-2" x1="0.5" x2="0.5" xlink:href="#linear-gradient"/>
  </defs>
  <g id="card5_icn" transform="translate(0.01 0.019)">
    <path id="Path_278" data-name="Path 278" d="M337.8,134.313c-.193.141-.37.277-.559.41a18.835,18.835,0,0,1-2.182,1.331c-3.964,2.09-8.851,3.111-13.61,3.8-10.675,1.556-21.573,1.859-32.425,2.155-29.322.805-58.715,1.608-87.966-.247-11.557-.732-23.368-1.957-33.841-5.713q-2.252-.805-4.415-1.776a36.257,36.257,0,0,1-8.051-4.815,17.531,17.531,0,0,1-5.027-6.175c-2.213-4.862-1.042-10.322,1.485-15.088a46.885,46.885,0,0,1,3.542-5.542c1.951-2.683,4.1-5.289,6.065-7.97,6.984-9.531,11.542-21.588,5.095-31.364-1.853-2.808-4.53-5.274-6.04-8.205-1.926-3.75-1.778-7.915-1.165-11.96q.119-.77.252-1.526c1.046-6,3.014-12.46,9.084-16.2,6.3-3.891,15.257-3.694,23.081-2.311,12.168,2.173,23.391,6.7,34.734,10.779s23.21,7.814,35.676,8.215c11.008.354,23.848-2.3,31.154-9.192,7.1-6.7,20.435-7.206,30.048-3.161,6.6,2.776,11.522,7.776,13.6,13.4a17.49,17.49,0,0,1,.9,3.49,16.1,16.1,0,0,1,.162,3.292c-.029.543-.085,1.081-.162,1.612-1.606,11.1-13.169,19.853-20.2,29.767-3.434,4.842-5.859,10.659-3.5,15.881,3.6,7.957,16.128,10.787,23.692,16.708a17.8,17.8,0,0,1,3.717,3.814C344.625,122.993,343.27,130.11,337.8,134.313Z" transform="translate(-128.022 -22.083)" fill="#6c63ff" opacity="0.1"/>
    <g id="flowers" transform="translate(-0.01 -0.019)">
      <path id="Path_279" data-name="Path 279" d="M131.664,187.378s-8.86-15.7-22.212-20.225A27.31,27.31,0,0,1,95.614,156.8a45.843,45.843,0,0,1-4.083-7.343" transform="translate(-81.969 -124.802)" fill="none" stroke="#535461" stroke-miterlimit="10" stroke-width="2"/>
      <path id="Path_280" data-name="Path 280" d="M43.055,106.766c1.522,1.47,8.606,3.011,8.606,3.011s-1.734-7.034-3.259-8.512a3.839,3.839,0,1,0-5.347,5.509Z" transform="translate(-41.89 -85.014)" fill="#6c63ff"/>
      <path id="Path_281" data-name="Path 281" d="M55.784,168.588c2.078.412,8.86-2.155,8.86-2.155s-5.287-4.962-7.368-5.374a3.838,3.838,0,1,0-1.493,7.53Z" transform="translate(-50.611 -134.106)" fill="#6c63ff"/>
      <path id="Path_282" data-name="Path 282" d="M122.63,240.869c2-.693,6.549-6.331,6.549-6.331s-7.065-1.616-9.066-.923a3.839,3.839,0,1,0,2.5,7.254Z" transform="translate(-102.865 -192.607)" fill="#6c63ff"/>
      <path id="Path_283" data-name="Path 283" d="M195.286,281.312c2.092-.347,7.531-5.133,7.531-5.133s-6.69-2.787-8.781-2.442a3.839,3.839,0,0,0,1.25,7.576Z" transform="translate(-162.134 -225.116)" fill="#6c63ff"/>
      <path id="Path_284" data-name="Path 284" d="M113.212,144.294c0,2.119-3.833,8.269-3.833,8.269s-3.841-6.146-3.843-8.265a3.839,3.839,0,1,1,7.676,0Z" transform="translate(-93.276 -117.465)" fill="#6c63ff"/>
      <path id="Path_285" data-name="Path 285" d="M194.785,189.689c-.634,2.022-6.133,6.742-6.133,6.742s-1.826-7.021-1.2-9.053a3.839,3.839,0,0,1,7.319,2.294Z" transform="translate(-159.309 -153.369)" fill="#6c63ff"/>
      <path id="Path_286" data-name="Path 286" d="M265.968,250.313c-.281,2.1-4.9,7.682-4.9,7.682s-2.986-6.6-2.7-8.7a3.839,3.839,0,1,1,7.609,1.023Z" transform="translate(-216.655 -202.716)" fill="#6c63ff"/>
      <path id="Path_287" data-name="Path 287" d="M43.055,106.766c1.522,1.47,8.606,3.011,8.606,3.011s-1.734-7.034-3.259-8.512a3.839,3.839,0,1,0-5.347,5.509Z" transform="translate(-41.89 -85.014)" opacity="0.25"/>
      <path id="Path_288" data-name="Path 288" d="M55.784,168.588c2.078.412,8.86-2.155,8.86-2.155s-5.287-4.962-7.368-5.374a3.838,3.838,0,1,0-1.493,7.53Z" transform="translate(-50.611 -134.106)" opacity="0.25"/>
      <path id="Path_289" data-name="Path 289" d="M122.63,240.869c2-.693,6.549-6.331,6.549-6.331s-7.065-1.616-9.066-.923a3.839,3.839,0,1,0,2.5,7.254Z" transform="translate(-102.865 -192.607)" opacity="0.25"/>
      <path id="Path_290" data-name="Path 290" d="M195.286,281.312c2.092-.347,7.531-5.133,7.531-5.133s-6.69-2.787-8.781-2.442a3.839,3.839,0,0,0,1.25,7.576Z" transform="translate(-162.134 -225.116)" opacity="0.25"/>
      <path id="Path_291" data-name="Path 291" d="M113.212,144.294c0,2.119-3.833,8.269-3.833,8.269s-3.841-6.146-3.843-8.265a3.839,3.839,0,1,1,7.676,0Z" transform="translate(-93.276 -117.465)" opacity="0.25"/>
      <path id="Path_292" data-name="Path 292" d="M194.785,189.689c-.634,2.022-6.133,6.742-6.133,6.742s-1.826-7.021-1.2-9.053a3.839,3.839,0,0,1,7.319,2.294Z" transform="translate(-159.309 -153.369)" opacity="0.25"/>
      <path id="Path_293" data-name="Path 293" d="M265.968,250.313c-.281,2.1-4.9,7.682-4.9,7.682s-2.986-6.6-2.7-8.7a3.839,3.839,0,1,1,7.609,1.023Z" transform="translate(-216.655 -202.716)" opacity="0.25"/>
      <path id="Path_294" data-name="Path 294" d="M207.862,131.2s-1.734-17.948-12.112-27.494a27.3,27.3,0,0,1-8.456-15.07,45.869,45.869,0,0,1-.755-8.369" transform="translate(-158.678 -68.939)" fill="none" stroke="#535461" stroke-miterlimit="10" stroke-width="2"/>
      <path id="Path_295" data-name="Path 295" d="M151.6,26.718c.794,1.967,6.651,6.233,6.651,6.233s1.262-7.136.47-9.1a3.841,3.841,0,1,0-7.127,2.87Z" transform="translate(-130.235 -21.441)" fill="#6c63ff"/>
      <path id="Path_296" data-name="Path 296" d="M138.181,88.43c1.734,1.219,8.97,1.618,8.97,1.618s-2.806-6.676-4.54-7.9a3.842,3.842,0,1,0-4.43,6.277Z" transform="translate(-118.32 -69.89)" fill="#6c63ff"/>
      <path id="Path_297" data-name="Path 297" d="M170.212,181.618c2.119.179,8.56-3.132,8.56-3.132s-5.8-4.34-7.917-4.517a3.839,3.839,0,1,0-.643,7.649Z" transform="translate(-142.587 -144.572)" fill="#6c63ff"/>
      <path id="Path_298" data-name="Path 298" d="M220.1,247.942c2.053.532,8.966-1.641,8.966-1.641s-4.987-5.258-7.038-5.79a3.839,3.839,0,1,0-1.926,7.432Z" transform="translate(-183.453 -198.214)" fill="#6c63ff"/>
      <path id="Path_299" data-name="Path 299" d="M200.342,89.819c-.857,1.938-6.855,6-6.855,6s-1.021-7.173-.164-9.113a3.839,3.839,0,1,1,7.019,3.109Z" transform="translate(-163.878 -72.293)" fill="#6c63ff"/>
      <path id="Path_300" data-name="Path 300" d="M250.048,163.412c-1.4,1.593-8.338,3.679-8.338,3.679s1.171-7.15,2.571-8.743a3.837,3.837,0,1,1,5.767,5.064Z" transform="translate(-203.221 -130.924)" fill="#6c63ff"/>
      <path id="Path_301" data-name="Path 301" d="M295.155,248.274c-1.109,1.807-7.6,5.035-7.6,5.035s-.054-7.246,1.056-9.053a3.842,3.842,0,1,1,6.549,4.018Z" transform="translate(-240.238 -199.858)" fill="#6c63ff"/>
    </g>
    <ellipse id="Ellipse_83" data-name="Ellipse 83" cx="21.482" cy="2.797" rx="21.482" ry="2.797" transform="translate(57.128 158.442)" fill="#6c63ff" opacity="0.1"/>
    <g id="floor_flowers" data-name="floor flowers" transform="translate(28.144 148.584)">
      <ellipse id="Ellipse_84" data-name="Ellipse 84" cx="6.526" cy="1.117" rx="6.526" ry="1.117" transform="translate(0.548 11.322)" fill="#6c63ff" opacity="0.1"/>
      <path id="Path_302" data-name="Path 302" d="M219.921,792.94s1.057,1.385-.489,3.467-2.822,3.852-2.311,5.156c0,0,2.333-3.881,4.238-3.935S222.013,795.275,219.921,792.94Z" transform="translate(-211.43 -792.94)" fill="#6c63ff"/>
      <path id="Path_303" data-name="Path 303" d="M220.191,792.94a1.7,1.7,0,0,1,.216.435c1.853,2.177,2.841,4.209,1.059,4.259-1.658.048-3.65,3.014-4.126,3.764a1.774,1.774,0,0,0,.056.172s2.333-3.881,4.238-3.935S222.283,795.275,220.191,792.94Z" transform="translate(-211.7 -792.94)" opacity="0.1"/>
      <path id="Path_304" data-name="Path 304" d="M241.325,800.778c0,.487-.054.882-.121.882s-.123-.385-.123-.882.069-.258.137-.258S241.325,800.29,241.325,800.778Z" transform="translate(-230.867 -799.013)" fill="#ffd037"/>
      <path id="Path_305" data-name="Path 305" d="M242.354,803.716c-.428.233-.8.374-.834.314s.289-.3.717-.53.258-.064.291,0S242.782,803.483,242.354,803.716Z" transform="translate(-231.221 -801.37)" fill="#ffd037"/>
      <path id="Path_306" data-name="Path 306" d="M193.16,792.94s-1.057,1.385.489,3.467,2.822,3.852,2.311,5.156c0,0-2.333-3.881-4.238-3.935S191.072,795.275,193.16,792.94Z" transform="translate(-190.259 -792.94)" fill="#6c63ff"/>
      <path id="Path_307" data-name="Path 307" d="M193.143,792.94a1.7,1.7,0,0,0-.216.435c-1.853,2.177-2.841,4.209-1.059,4.259,1.66.048,3.65,3.014,4.126,3.764a1.366,1.366,0,0,1-.056.172s-2.333-3.881-4.238-3.935S191.055,795.275,193.143,792.94Z" transform="translate(-190.241 -792.94)" opacity="0.1"/>
      <path id="Path_308" data-name="Path 308" d="M192.91,800.778c0,.487.054.882.121.882s.123-.385.123-.882-.069-.258-.137-.258S192.91,800.29,192.91,800.778Z" transform="translate(-191.975 -799.013)" fill="#ffd037"/>
      <path id="Path_309" data-name="Path 309" d="M188.317,803.716c.428.233.8.374.832.314s-.289-.3-.717-.53-.258-.064-.291,0S187.89,803.483,188.317,803.716Z" transform="translate(-188.057 -801.37)" fill="#ffd037"/>
      <path id="Path_310" data-name="Path 310" d="M194.66,830.1s2.959-.093,3.852-.726,4.55-1.395,4.771-.376,4.446,5.064,1.106,5.091-7.761-.52-8.65-1.061S194.66,830.1,194.66,830.1Z" transform="translate(-193.388 -821.648)" fill="#a8a8a8"/>
      <path id="Path_311" data-name="Path 311" d="M204.447,840.418c-3.34.027-7.76-.52-8.65-1.061-.678-.414-.948-1.9-1.038-2.577h-.1s.193,2.385,1.077,2.928,5.31,1.088,8.65,1.061c.963,0,1.3-.351,1.279-.859C205.533,840.222,205.165,840.413,204.447,840.418Z" transform="translate(-193.388 -828.336)" opacity="0.2"/>
      <path id="Path_312" data-name="Path 312" d="M677.162,836.166s-8.144-.491-7.183,5.216a1.388,1.388,0,0,0,.722,1.466s.015-.422.836-.279a3.717,3.717,0,0,0,.884.042,1.83,1.83,0,0,0,1.083-.447h0s2.288-.944,3.178-4.686c0,0,.659-.817.634-1.027l-1.375.578a2.465,2.465,0,0,1,.1,1.816s-.044-1.78-.308-1.734c-.054,0-.715.343-.715.343a4.042,4.042,0,0,1,.193,2.982s.231-2.119-.451-2.856l-.963.564a4.275,4.275,0,0,1,.3,3.24s.164-2.232-.507-3.1l-.876.684s.886,1.759.345,2.966c0,0-.069-2.6-.536-2.795a5.042,5.042,0,0,0-.884.963s.607,1.275.231,1.949c0,0-.231-1.734-.422-1.734a5.721,5.721,0,0,0-.844,1.926,4.194,4.194,0,0,1,.659-2.044,2.3,2.3,0,0,0-1.169.607s.119-.811,1.348-.882a5.284,5.284,0,0,1,.8-.923,5.016,5.016,0,0,0-1.98.227,2.208,2.208,0,0,1,2.205-.418l.865-.7a7.107,7.107,0,0,0-2.311.023,2.822,2.822,0,0,1,2.544-.193l.944-.562a8.594,8.594,0,0,0-2.209-.193,3.383,3.383,0,0,1,2.485.039l.674-.3s-1.015-.193-1.312-.229-.312-.114-.312-.114a3.515,3.515,0,0,1,1.9.212A8.579,8.579,0,0,0,677.162,836.166Z" transform="translate(-577.09 -827.831)" fill="#6c63ff"/>
      <ellipse id="Ellipse_85" data-name="Ellipse 85" cx="5.763" cy="0.975" rx="5.763" ry="0.975" transform="translate(88.7 14.539)" fill="#6c63ff" opacity="0.1"/>
      <path id="Path_313" data-name="Path 313" d="M616.385,837.765s-4.592-.277-4.045,2.941a.786.786,0,0,0,.408.826s0-.239.472-.158a2.246,2.246,0,0,0,.5.025,1.053,1.053,0,0,0,.611-.252h0a3.647,3.647,0,0,0,1.793-2.643s.37-.46.356-.578l-.771.329a1.4,1.4,0,0,1,.056,1.025s-.025-1-.173-.98c-.031,0-.4.193-.4.193a2.285,2.285,0,0,1,.112,1.682s.129-1.2-.254-1.612l-.545.32a2.411,2.411,0,0,1,.171,1.826,3.42,3.42,0,0,0-.287-1.749l-.493.385a2.354,2.354,0,0,1,.193,1.672s-.041-1.466-.3-1.576a3.007,3.007,0,0,0-.5.537s.343.72.131,1.1c0,0-.131-.977-.237-.98a3.234,3.234,0,0,0-.476,1.09,2.34,2.34,0,0,1,.37-1.156,1.294,1.294,0,0,0-.659.341s.067-.458.771-.5a2.917,2.917,0,0,1,.451-.52,2.823,2.823,0,0,0-1.117.127,1.255,1.255,0,0,1,1.244-.235l.487-.4a4.016,4.016,0,0,0-1.3.013,1.573,1.573,0,0,1,1.435-.1l.53-.316a4.757,4.757,0,0,0-1.244-.108,1.915,1.915,0,0,1,1.4.021l.385-.169s-.578-.114-.738-.131-.177-.064-.177-.064a1.988,1.988,0,0,1,1.075.119A4.543,4.543,0,0,0,616.385,837.765Z" transform="translate(-530.58 -829.126)" fill="#6c63ff"/>
      <ellipse id="Ellipse_86" data-name="Ellipse 86" cx="3.249" cy="0.549" rx="3.249" ry="0.549" transform="translate(79.393 12.139)" fill="#6c63ff" opacity="0.1"/>
      <path id="Path_314" data-name="Path 314" d="M658.184,802.35s-5.542-.335-4.889,3.55a.948.948,0,0,0,.493,1s0-.287.568-.193a2.737,2.737,0,0,0,.6.029,1.269,1.269,0,0,0,.738-.3h0a4.395,4.395,0,0,0,2.163-3.192s.449-.555.431-.7l-.936.4a1.684,1.684,0,0,1,.069,1.237s-.031-1.212-.212-1.183c-.035,0-.485.233-.485.233a2.762,2.762,0,0,1,.135,2.03s.158-1.448-.306-1.945l-.659.385a2.908,2.908,0,0,1,.208,2.205,4.162,4.162,0,0,0-.347-2.119l-.6.464a2.844,2.844,0,0,1,.237,2.019s-.048-1.768-.366-1.9a3.629,3.629,0,0,0-.6.649s.414.869.156,1.327c0,0-.156-1.177-.285-1.183a3.867,3.867,0,0,0-.578,1.316,2.832,2.832,0,0,1,.447-1.391,1.565,1.565,0,0,0-.8.412s.081-.553.925-.6a3.629,3.629,0,0,1,.545-.628,3.43,3.43,0,0,0-1.348.156,1.511,1.511,0,0,1,1.5-.285l.589-.48a4.846,4.846,0,0,0-1.574.015,1.918,1.918,0,0,1,1.734-.125l.641-.385a6.321,6.321,0,0,0-1.5-.129,2.305,2.305,0,0,1,1.691.025l.458-.2s-.691-.137-.894-.158-.212-.077-.212-.077a2.394,2.394,0,0,1,1.3.144A5.645,5.645,0,0,0,658.184,802.35Z" transform="translate(-563.64 -800.531)" fill="#6c63ff"/>
      <ellipse id="Ellipse_87" data-name="Ellipse 87" cx="3.924" cy="0.663" rx="3.924" ry="0.663" transform="translate(86.805 6.042)" fill="#6c63ff" opacity="0.1"/>
    </g>
    <g id="browser" transform="translate(26.332 18.387)">
      <path id="Path_315" data-name="Path 315" d="M361.9,211.214V117H178.65v88.809a36.481,36.481,0,0,0,8.09,4.946q2.169,1,4.43,1.828H359.709Z" transform="translate(-178.65 -117)" fill="url(#linear-gradient)"/>
      <path id="Path_316" data-name="Path 316" d="M363.22,222.556V131H180.73v86.311a36.851,36.851,0,0,0,8.051,4.815q2.161.963,4.415,1.776H361.038Z" transform="translate(-180.329 -128.303)" fill="#fff"/>
      <rect id="Rectangle_77" data-name="Rectangle 77" width="182.488" height="4.842" transform="translate(0.403 0.268)" fill="#5a5773"/>
    </g>
    <g id="buttons" transform="translate(29.127 19.824)">
      <circle id="Ellipse_88" data-name="Ellipse 88" cx="1.252" cy="1.252" r="1.252" fill="#fff"/>
      <circle id="Ellipse_89" data-name="Ellipse 89" cx="1.252" cy="1.252" r="1.252" transform="translate(3.371)" fill="#fff"/>
      <circle id="Ellipse_90" data-name="Ellipse 90" cx="1.252" cy="1.252" r="1.252" transform="translate(6.742)" fill="#fff"/>
    </g>
    <g id="boxes" transform="translate(31.631 34.139)">
      <rect id="Rectangle_78" data-name="Rectangle 78" width="30.144" height="18.942" transform="translate(41.738)" fill="#6c63ff"/>
      <rect id="Rectangle_79" data-name="Rectangle 79" width="30.144" height="18.942" fill="#5a5773" opacity="0.2"/>
      <rect id="Rectangle_80" data-name="Rectangle 80" width="30.144" height="18.942" transform="translate(83.476)" fill="#5a5773" opacity="0.2"/>
      <rect id="Rectangle_81" data-name="Rectangle 81" width="30.144" height="18.942" transform="translate(0 27.08)" fill="#5a5773" opacity="0.2"/>
      <rect id="Rectangle_82" data-name="Rectangle 82" width="30.144" height="18.942" transform="translate(41.738 27.08)" fill="#5a5773" opacity="0.2"/>
      <rect id="Rectangle_83" data-name="Rectangle 83" width="30.144" height="18.942" transform="translate(83.476 27.08)" fill="#5a5773" opacity="0.2"/>
      <rect id="Rectangle_84" data-name="Rectangle 84" width="30.144" height="18.942" transform="translate(0 54.158)" fill="#5a5773" opacity="0.2"/>
      <rect id="Rectangle_85" data-name="Rectangle 85" width="30.144" height="18.942" transform="translate(41.738 54.158)" fill="#5a5773" opacity="0.2"/>
      <rect id="Rectangle_86" data-name="Rectangle 86" width="30.144" height="18.942" transform="translate(83.476 54.158)" fill="#5a5773" opacity="0.2"/>
    </g>
    <g id="woman" transform="translate(66.367 38.87)">
      <path id="Path_317" data-name="Path 317" d="M418.257,266.072s-5.414-9.9-4.5-11.507a21.928,21.928,0,0,0,1.585-3.941s2-1.368,2-1.926,1.583-1.851,2.417-2.413.416-3.219,0-3.54a7.338,7.338,0,0,1-1.077-1.448s.578-1.608,0-2.092.085-.963,0-1.449a19.444,19.444,0,0,1,0-2.252,3.63,3.63,0,0,0-2.13-1.541l-.062-.254-.356-1.5s1.734-3.323-1.079-5.062a4.7,4.7,0,0,0-.622-.327,2.163,2.163,0,0,0-.015-.218,13.615,13.615,0,0,0-.408-2.544c-.146-.466-.337-.78-.578-.709a.385.385,0,0,0-.158.091,1.757,1.757,0,0,0-.3.352h0a.078.078,0,0,1-.013.021,6.041,6.041,0,0,0-.663,1.839,10.617,10.617,0,0,0-.193,1.156h0a6.343,6.343,0,0,0-.322.715,4.12,4.12,0,0,0-.013,3.548c.616.963,1.447,2.286,2.049,3.249l.019.031.037.06-.064.04v.148l.056.811.466,7.007a2.981,2.981,0,0,0-.428-.091,3.886,3.886,0,0,0-.622-.04c-.406-1.6-1.522-3.082-1.734-4.75a4.415,4.415,0,0,1-.033-.5c.017-1.05.279-2.1.258-3.151,0-.193,0-.385-.019-.578h0a1.549,1.549,0,0,0-.015-.16,4.736,4.736,0,0,0-2.575-3.588c-.483-.241-1.007-.4-1.477-.665-1.086-.609-1.782-1.707-2.768-2.46a3.064,3.064,0,0,0-2.648-.578,12.229,12.229,0,0,0-1.289.266h0a11.624,11.624,0,0,0-2.949,1.225c-.125.075-.25.152-.37.241a1.629,1.629,0,0,0-.6.7,1.822,1.822,0,0,0-.092.749c0,.183,0,.37.012.553-.054,3.082-3.375,5.466-3.648,8.475,0,.071-.012.143-.015.214v.329h0v.241c.048,1.319.734,2.548.859,3.862.012.117.017.233.019.351a5.825,5.825,0,0,1-.341,1.768,5.174,5.174,0,0,0-1.2.485,7.453,7.453,0,0,0-3.5,3.914,5.733,5.733,0,0,0-.252,1.718,35.875,35.875,0,0,1-.562,6.135,11.466,11.466,0,0,1-.354,1.508.353.353,0,0,0-.012.148l-.4,5.2-.071.915-.1,1.3s.029.079.071.212a6.113,6.113,0,0,1,.158.6,3.232,3.232,0,0,1,.052,1.348.928.928,0,0,1-.281.5.209.209,0,0,0-.033.037,4,4,0,0,0-.3,1.325c-.035.27-.067.578-.1.9-.193,2.051-.312,5.122-.385,7.66-.069,2.5-.094,4.482-.094,4.482a5.115,5.115,0,0,0,1.034.512c-.027.067-.056.137-.083.21a10.119,10.119,0,0,0-.628,2.647,4.615,4.615,0,0,0,3.009,5.079,4.25,4.25,0,0,0,.518.177,1.644,1.644,0,0,0,1.318-.081c0,.114.013.223.019.333.027.47.05.9.062,1.26.083,2.254.641,6.195.641,6.195a8.2,8.2,0,0,1,.025,2.092,11.358,11.358,0,0,0,0,2.413s.578.963,0,1.448-.749,2.889-.578,3.219a.107.107,0,0,1,.01.037c.127.8-.591,12.676-.591,12.676s-.68,1.818-1.221,3.706c-.528,1.838-.925,3.741-.435,4.1a4.087,4.087,0,0,0,1.524.412c0,.079-.012.158-.019.239a6.863,6.863,0,0,1-.337,2,23.3,23.3,0,0,0-.587,4.238l-.012.152a14.2,14.2,0,0,0-.62,1.8s-1.843,4.623-1.219,5.823a.985.985,0,0,0,.229.283h0a.515.515,0,0,0,.06.054c.888.711,3.113.859,3.92.892l-.031,1.144v.042h1.05v-.029c0-.144.023-.807.058-1.693,0-.158.012-.324.019-.493,0-.133.013-.268.019-.406a7.126,7.126,0,0,0,.457-2.571,11.282,11.282,0,0,1,.4-2.982,8.286,8.286,0,0,1,.534-1.454,6.639,6.639,0,0,0-.129-2.961,2.14,2.14,0,0,0-.385-.666v-.385a11.111,11.111,0,0,1,.247-2.469.27.27,0,0,1,0-.039c.015-.067.033-.131.05-.193l.012-.042.341.012c1.046.029,1.814.029,1.814.029a39.134,39.134,0,0,0,.751-6.114v-.25a23.816,23.816,0,0,1,.5-4.336l.672-6.52a3.429,3.429,0,0,1,0-1.926c.206-.5.632-1.42.928-2.055.139-.295.248-.526.295-.626l.027-.054a1.245,1.245,0,0,1-.3-.148h0c-.272-.181-.514-.535.3-1.057,1.25-.805.834-2.816.834-2.816a1.446,1.446,0,0,1,.066-1.368c.433-.643,0-3.057,0-3.057a10.108,10.108,0,0,0,.855-2.013c.31-.963,1.094-5.673,1.464-7.943.121-.745.193-1.227.193-1.227l.012.117.012.127h0l.1,1.073.013.142.193,2.028a62.427,62.427,0,0,1,.144,7.421v.039a2.47,2.47,0,0,1-.141.634c-.443,1-.362,4.981-.339,5.861v.177a3.545,3.545,0,0,0-.235,1.36h0a.873.873,0,0,0,.152.4,1.025,1.025,0,0,1,.148.626v.019a2.293,2.293,0,0,1-.023.277,5.291,5.291,0,0,1-.293,1.09,3.99,3.99,0,0,0-.277,1.789h0a.566.566,0,0,0,.11.218.515.515,0,0,1,.064.231.085.085,0,0,0,0,.021c.156,1.3-.247,7.019-.485,10.151-.1,1.237-.166,2.069-.166,2.069l-.661,6.838.065.046c.075.054.216.146.4.258v.015l-.029.206c-.094.659-.221,1.425-.36,2.011-.012.044-.021.087-.033.127a1.843,1.843,0,0,0-.707.283c-1.4,2.491-.782,4.465,0,5.039a2.024,2.024,0,0,1,.472,1.177l.193,2.483v.285a.739.739,0,0,0,.037.227l.06.753.081,1.048h.639V343.85h.035c1.009.035,2.637.077,3.346.021h.019a1.251,1.251,0,0,0,.193-.021.484.484,0,0,0,.112-.031c.376-.181,1.312-2.835.468-3.438a3.893,3.893,0,0,1-1.031-2.311c-.073-.223-.146-.435-.222-.638V337.3a10.594,10.594,0,0,1,.1-2.207,16.792,16.792,0,0,0,.22-2.637v-.245a3.3,3.3,0,0,0,.43-.141l.031-.013a3.029,3.029,0,0,0,.718-.426l2.358-10.448.248-1.215,1.416-6.913s-.5-2.414,0-2.814c.183-.146.233-.77.222-1.493-.019-1.264-.222-2.853-.222-2.853s.666-1.046,1-1.689a5.247,5.247,0,0,0,0-2.333l.657-3.868a36.551,36.551,0,0,1,2.583-8.448c1.348-2.841.489-10.513-.385-14.6-.023-.106-.046-.21-.069-.31v-.015c.412-.2.917-.451,1.456-.709l.2-.1c.684-.322,1.408-.653,2.057-.928l.042-.017a14.374,14.374,0,0,1,1.431-.535,2.4,2.4,0,0,1,.439-.091C421.757,272.186,418.257,266.072,418.257,266.072ZM392.194,279.16h.347c-.04.075-.079.152-.117.229-.023.046-.046.091-.067.137-.127.264-.245.534-.341.8.039-.285.087-.6.141-.927C392.169,279.324,392.182,279.237,392.194,279.16Zm-.936,5.022a.137.137,0,0,0,0-.027l-.029-.09c-.021-.062-.04-.123-.06-.193q.179-.054.364-.121h.025v.064c-.01.091-.021.181-.033.27h0a.188.188,0,0,1,0,.035,1.872,1.872,0,0,1-.025.212c-.017.139-.035.273-.05.4-.037-.121-.073-.241-.112-.358a.911.911,0,0,1-.081-.193Z" transform="translate(-386.5 -223.338)" fill="url(#linear-gradient-2)"/>
      <path id="Path_318" data-name="Path 318" d="M519.208,236.83l-2.08.736-.755-1.252c-.578-.963-1.379-2.281-1.97-3.238-1.044-1.683.322-4.249.322-4.249s.246-2.575,1.125-3.369,1.123,3.369,1.123,3.369c3.527,1.6,1.637,5.372,1.637,5.372l.343,1.495Z" transform="translate(-489.449 -224.969)" fill="#efb7b9"/>
      <path id="Path_319" data-name="Path 319" d="M529.115,279.866l-2.08.736-.755-1.252v-.11a3.623,3.623,0,0,1,2.583-.51Z" transform="translate(-499.356 -268.004)" opacity="0.1"/>
      <path id="Path_320" data-name="Path 320" d="M523.56,289.307l1.042-.882-.522-7.94a3.3,3.3,0,0,1,4.692,1.042,20.254,20.254,0,0,0,0,2.246c.081.482-.561.963,0,1.443s0,2.086,0,2.086a7.241,7.241,0,0,0,1.034,1.443c.4.32.8,2.968,0,3.529s-2.309,1.845-2.309,2.406-1.926,1.926-1.926,1.926l-1.691-2.236Z" transform="translate(-497.16 -269.009)" fill="#ff6484"/>
      <path id="Path_321" data-name="Path 321" d="M394.311,536.06c-3.887-1.649-3.024-5.676-2.292-7.7a10.506,10.506,0,0,1,.514-1.2l2.18-1.323s.445,1.135.921,2.656C396.738,532.026,398.007,537.63,394.311,536.06Z" transform="translate(-390.447 -467.565)" fill="#efb7b9"/>
      <path id="Path_322" data-name="Path 322" d="M412.969,765.364a6.549,6.549,0,0,0-.578,1.622,11.712,11.712,0,0,0-.25,2.76c.015.641.069,1.061.069,1.061l-4.33,2.978s.025-.349.067-.861a24.036,24.036,0,0,1,.564-4.222,7.027,7.027,0,0,0,.326-1.988c.067-.847.094-1.591.094-1.591S414.142,763.17,412.969,765.364Z" transform="translate(-403.762 -660.12)" fill="#efb7b9"/>
      <path id="Path_323" data-name="Path 323" d="M469.605,779.181s0,.828-.031,1.791a18.343,18.343,0,0,1-.21,2.629,10.826,10.826,0,0,0-.1,2.2c.029.963.1,1.83.1,1.83s-4.421-4.18-3.97-4.511a2.049,2.049,0,0,0,.351-.919c.135-.578.256-1.348.347-2,.108-.78.175-1.408.175-1.408Z" transform="translate(-450.172 -671.801)" fill="#efb7b9"/>
      <path id="Path_324" data-name="Path 324" d="M417.022,765.364a6.55,6.55,0,0,0-.578,1.622,35.413,35.413,0,0,1-3.544-.272c.065-.828.094-1.591.094-1.591S418.2,763.17,417.022,765.364Z" transform="translate(-407.815 -660.12)" opacity="0.1"/>
      <path id="Path_325" data-name="Path 325" d="M472.663,779.2s0,.828-.031,1.791a4.82,4.82,0,0,1-3.482-.771c.108-.78.175-1.408.175-1.408Z" transform="translate(-453.23 -671.817)" opacity="0.1"/>
      <path id="Path_326" data-name="Path 326" d="M429.342,496a37.409,37.409,0,0,0-2.487,8.421l-.641,3.852a5.428,5.428,0,0,1,0,2.325c-.322.641-.963,1.685-.963,1.685s.482,3.929,0,4.33,0,2.806,0,2.806l-1.6,8.09L421.4,537.937c-2.165,1.766-5.047-.48-5.047-.48l.636-6.817s.963-11.942.562-12.431.16-2.005.16-2.005.562-1.445.162-2.005.079-1.764.079-1.764-.16-4.892.322-6.015,0-8.069,0-8.069l-.193-2.163-.112-1.2-.01-.118s-.073.48-.193,1.223c-.354,2.263-1.109,6.953-1.408,7.918a10.307,10.307,0,0,1-.823,2.005s.416,2.406,0,3.047a1.492,1.492,0,0,0-.064,1.364s.4,2.005-.8,2.806,0,1.2,0,1.2-.882,1.926-1.2,2.726a3.566,3.566,0,0,0,0,1.926l-.641,6.495a23.5,23.5,0,0,0-.482,4.571,40.155,40.155,0,0,1-.722,6.094s-6.175,0-7.127-.722,1.589-7.768,1.589-7.768.722-12.351.561-12.67,0-2.727.562-3.207,0-1.445,0-1.445a11.827,11.827,0,0,1,0-2.406,8.531,8.531,0,0,0-.025-2.086s-.537-3.929-.616-6.175-.482-7.3-.482-7.3.42-3.124.484-4.611a5.237,5.237,0,0,1,.578-1.874,16.714,16.714,0,0,1,1.194-2.1s19-5.617,19.8-5.058a7.263,7.263,0,0,1,.824,2.614C429.812,485.524,430.64,493.171,429.342,496Z" transform="translate(-400.858 -429.592)" fill="#444053"/>
      <circle id="Ellipse_91" data-name="Ellipse 91" cx="5.534" cy="5.534" r="5.534" transform="translate(11.243 6.328)" fill="#a1616a"/>
      <path id="Path_327" data-name="Path 327" d="M440.96,481.454c-.638.328-1.065.553-1.065.553s-8.982,4.251-11.536,4.01c-1.976-.193-7.021-.083-9.219-.029a16.721,16.721,0,0,1,1.194-2.1s19-5.615,19.8-5.056A7.3,7.3,0,0,1,440.96,481.454Z" transform="translate(-412.853 -429.591)" opacity="0.1"/>
      <path id="Path_328" data-name="Path 328" d="M408.185,324.873s-5.126.809-6.335,1.6-3.606,2.327-3.606,5.615a31.853,31.853,0,0,1-.882,7.618c-.322.961,5.052,8.741,5.052,8.741l-1.926,11.79s7.7-.241,10.27,0,11.543-4.01,11.543-4.01,5.293-2.806,6.416-2.889-2.246-6.175-2.246-6.175-5.214-9.862-4.332-11.466a22.162,22.162,0,0,0,1.529-3.929l-.963-8.178a3.146,3.146,0,0,0-2.647.4c-1.2.882-5.293.4-5.293.4Z" transform="translate(-395.258 -304.174)" fill="#ff6484"/>
      <path id="Path_329" data-name="Path 329" d="M393.98,388.268l-2.011.561-.557,7.547s.722,2.005,0,2.647-.882,14.356-.882,14.356a5.244,5.244,0,0,0,5.052.4s-.4-1.524.8-7.057a44.1,44.1,0,0,0,1.2-8.34s0-6.9.562-8.021,0-3.929,0-3.929-1.123-1.524-1.044-2.084S393.98,388.268,393.98,388.268Z" transform="translate(-389.754 -353.295)" opacity="0.1"/>
      <path id="Path_330" data-name="Path 330" d="M398.275,528.516a5.122,5.122,0,0,1-3.615-.131,10.5,10.5,0,0,1,.514-1.2l2.18-1.323S397.807,526.995,398.275,528.516Z" transform="translate(-393.088 -467.589)" opacity="0.1"/>
      <path id="Path_331" data-name="Path 331" d="M393.358,388.236l-2.005.56-.561,7.547s.722,2.005,0,2.647-.882,14.356-.882,14.356a5.238,5.238,0,0,0,5.052.393s-.4-1.524.8-7.057a44.454,44.454,0,0,0,1.2-8.34s0-6.9.561-8.021,0-3.929,0-3.929-1.123-1.524-1.042-2.084S393.358,388.236,393.358,388.236Z" transform="translate(-389.253 -353.263)" fill="#ff6484"/>
      <path id="Path_332" data-name="Path 332" d="M497.251,411.15s-1.042,8.982-4.091,10.667C493.16,421.817,499.977,419.893,497.251,411.15Z" transform="translate(-472.616 -374.974)" opacity="0.1"/>
      <path id="Path_333" data-name="Path 333" d="M434.88,415.32s3.768,1.843,2.889,3.126S434.88,415.32,434.88,415.32Z" transform="translate(-425.561 -378.341)" opacity="0.1"/>
      <path id="Path_334" data-name="Path 334" d="M434.88,434.47s2.406,2.487,1.926,3.369S434.88,434.47,434.88,434.47Z" transform="translate(-425.561 -393.803)" opacity="0.1"/>
      <path id="Path_335" data-name="Path 335" d="M535.63,327.47a8.526,8.526,0,0,1,1.034,2.647C536.755,331.161,535.63,327.47,535.63,327.47Z" transform="translate(-506.905 -307.412)" opacity="0.1"/>
      <path id="Path_336" data-name="Path 336" d="M535.63,315.48s.474-.4,1.684,0S535.63,315.48,535.63,315.48Z" transform="translate(-506.905 -297.588)" opacity="0.1"/>
      <path id="Path_337" data-name="Path 337" d="M482.3,552.394a11.152,11.152,0,0,1-5.865-.751l-1.011,2.589-.112-1.2c.166-1.005.487-2.082,1.123-2.354A9.733,9.733,0,0,0,482.3,552.394Z" transform="translate(-458.204 -487.629)" opacity="0.1"/>
      <path id="Path_338" data-name="Path 338" d="M426.18,577.07s4.933,1.023,6.316.842Z" transform="translate(-418.537 -508.936)" opacity="0.1"/>
      <path id="Path_339" data-name="Path 339" d="M428.84,583.746a10.189,10.189,0,0,1,3.157.331Z" transform="translate(-420.685 -514.319)" opacity="0.1"/>
      <path id="Path_340" data-name="Path 340" d="M430.09,588.31a18.874,18.874,0,0,0,2.916.385Z" transform="translate(-421.694 -518.01)" opacity="0.1"/>
      <path id="Path_341" data-name="Path 341" d="M429.46,643.179c.091-.06,4.211-1.023,4.723-.331Z" transform="translate(-421.185 -561.842)" opacity="0.1"/>
      <path id="Path_342" data-name="Path 342" d="M429.46,651.384s3.579-.422,3.669,0S429.46,651.384,429.46,651.384Z" transform="translate(-421.185 -568.784)" opacity="0.1"/>
      <path id="Path_343" data-name="Path 343" d="M429.46,655.47s3.82-.79,4.27-.6S429.46,655.47,429.46,655.47Z" transform="translate(-421.185 -571.728)" opacity="0.1"/>
      <path id="Path_344" data-name="Path 344" d="M412.25,791.265l-4.33,2.978s.025-.349.067-.861a11.674,11.674,0,0,1,2.217-3.619,1.775,1.775,0,0,1,1.976.441C412.2,790.844,412.25,791.265,412.25,791.265Z" transform="translate(-403.794 -680.576)" opacity="0.1"/>
      <path id="Path_345" data-name="Path 345" d="M404.946,794.437a10.747,10.747,0,0,0-.9,4.43,6.87,6.87,0,0,1-.917,3.565,3.527,3.527,0,0,1-.3.435s-3.009-.025-4.062-.9a1.043,1.043,0,0,1-.283-.347c-.6-1.2,1.173-5.8,1.173-5.8a12.78,12.78,0,0,1,2.826-5.443C405.848,789.5,404.946,794.437,404.946,794.437Z" transform="translate(-396.069 -681.072)" fill="#444053"/>
      <path id="Path_346" data-name="Path 346" d="M404.837,825.762a3.507,3.507,0,0,1-.3.435s-3.009-.025-4.062-.9c.518-1.714,2.171-6.9,2.945-6.019C404.143,820.108,404.65,824.094,404.837,825.762Z" transform="translate(-397.779 -704.411)" opacity="0.1"/>
      <path id="Path_347" data-name="Path 347" d="M420.12,819.594l-.21,7.77h1.009s.164-6.817.614-7.77S420.12,819.594,420.12,819.594Z" transform="translate(-413.475 -704.403)" fill="#444053"/>
      <path id="Path_348" data-name="Path 348" d="M469.365,801.815s-4.421-4.18-3.97-4.511a2.05,2.05,0,0,0,.351-.919c.849-.148,2.311.206,3.521,3.6C469.3,800.948,469.365,801.815,469.365,801.815Z" transform="translate(-450.172 -685.985)" opacity="0.1"/>
      <path id="Path_349" data-name="Path 349" d="M465.284,806.99a.454.454,0,0,1-.106.031,31.384,31.384,0,0,1-3.509,0,.759.759,0,0,1-.734-.757c0-.289,0-.641-.023-1.017-.05-1.187-.193-2.6-.618-2.916-.753-.578-1.348-2.539,0-5.022,0,0,2.585-1.974,4.449,3.96a3.942,3.942,0,0,0,.992,2.294C466.545,804.164,465.646,806.818,465.284,806.99Z" transform="translate(-445.431 -686.498)" fill="#444053"/>
      <path id="Path_350" data-name="Path 350" d="M471.116,827.971a31.414,31.414,0,0,1-3.509,0,.759.759,0,0,1-.734-.757c0-.289,0-.641-.023-1.017.325-1.437.794-2.916,1.4-3.253C468.25,822.942,470.074,822.736,471.116,827.971Z" transform="translate(-451.373 -707.449)" opacity="0.1"/>
      <path id="Path_351" data-name="Path 351" d="M423.46,798.271l.485,6.466h.616V797.72Z" transform="translate(-408.27 -682.951)" fill="#444053"/>
      <path id="Path_352" data-name="Path 352" d="M427.175,239.079a11.06,11.06,0,0,0-4.935,1.585,2.051,2.051,0,0,0-.93.934,3.1,3.1,0,0,0-.075,1.156c.052,3.317-3.646,5.827-3.531,9.142.046,1.316.707,2.541.828,3.852.2,2.188-1.092,4.2-2.333,6.014a4.981,4.981,0,0,0,3.515-1.165,26.656,26.656,0,0,1,.491,13.435h1.774a1.349,1.349,0,0,1,.518.064,1.3,1.3,0,0,1,.41.306c1.658,1.651,2.77,4.091,2.136,6.345l3.775-1.416a11.213,11.213,0,0,0,2.606-1.242,3.764,3.764,0,0,0,1.61-2.321c.1-.578.069-1.267.545-1.6a2.966,2.966,0,0,1,.743-.275,3.256,3.256,0,0,0,1.707-2.643,15.22,15.22,0,0,0,.241-4.02c-.168-2.254-.834-4.542-.285-6.742.31-1.235,1-2.385,1.056-3.66.091-2.1-1.552-3.912-1.8-6-.171-1.456.354-2.93.183-4.386a4.712,4.712,0,0,0-2.479-3.577c-.464-.239-.963-.4-1.422-.663-1.046-.607-1.714-1.7-2.664-2.45s-2.531-1.034-3.246-.058Z" transform="translate(-410.479 -236.035)" opacity="0.1"/>
      <path id="Path_353" data-name="Path 353" d="M427.175,237.812a11.06,11.06,0,0,0-4.935,1.585,2.051,2.051,0,0,0-.93.934,3.1,3.1,0,0,0-.075,1.156c.052,3.317-3.646,5.827-3.531,9.143.046,1.314.707,2.539.828,3.852.2,2.188-1.092,4.2-2.333,6.015a5.008,5.008,0,0,0,3.515-1.165,26.647,26.647,0,0,1,.491,13.431h1.774a1.349,1.349,0,0,1,.518.065,1.269,1.269,0,0,1,.41.3c1.658,1.653,2.77,4.091,2.136,6.345l3.775-1.416a11.215,11.215,0,0,0,2.606-1.242,3.763,3.763,0,0,0,1.61-2.321c.1-.578.069-1.267.545-1.6a2.964,2.964,0,0,1,.743-.275,3.256,3.256,0,0,0,1.707-2.643,15.219,15.219,0,0,0,.247-4.024c-.168-2.254-.834-4.542-.285-6.742.31-1.235,1-2.385,1.056-3.66.091-2.1-1.552-3.912-1.8-6-.171-1.456.354-2.928.183-4.386a4.715,4.715,0,0,0-2.479-3.577c-.464-.239-.963-.4-1.422-.661-1.046-.609-1.714-1.7-2.664-2.452s-2.531-1.034-3.246-.058Z" transform="translate(-410.479 -235.009)" fill="#925978"/>
      <g id="Group_44" data-name="Group 44" transform="translate(5.721 5.677)" opacity="0.1">
        <path id="Path_354" data-name="Path 354" d="M442.272,252.81a2.142,2.142,0,0,0-.012.223C442.266,252.96,442.27,252.885,442.272,252.81Z" transform="translate(-437.24 -252.81)"/>
        <path id="Path_355" data-name="Path 355" d="M514.931,280a20.5,20.5,0,0,0,.212-3.063A22.163,22.163,0,0,0,514.931,280Z" transform="translate(-495.9 -272.292)"/>
        <path id="Path_356" data-name="Path 356" d="M424.829,304.5c-.112-1.194-.668-2.311-.8-3.5a4.391,4.391,0,0,0-.029.659c.046,1.3.691,2.516.822,3.81A5.2,5.2,0,0,0,424.829,304.5Z" transform="translate(-422.497 -291.718)"/>
        <path id="Path_357" data-name="Path 357" d="M518.118,329.844a8.263,8.263,0,0,0-.193,2.392,7.256,7.256,0,0,1,.193-1.389c.31-1.235,1-2.385,1.056-3.66a3.971,3.971,0,0,0-.031-.678A31.938,31.938,0,0,1,518.118,329.844Z" transform="translate(-498.318 -312.314)"/>
        <path id="Path_358" data-name="Path 358" d="M419.715,344.36a5.008,5.008,0,0,1-2.843,1.156c-.22.343-.447.678-.672,1.009a5.008,5.008,0,0,0,3.515-1.165,26.58,26.58,0,0,1,1.121,7.213A26.639,26.639,0,0,0,419.715,344.36Z" transform="translate(-416.2 -326.726)"/>
        <path id="Path_359" data-name="Path 359" d="M473.137,389.525c-.212,1.079-.67,2.277-1.707,2.641a2.889,2.889,0,0,0-.744.277c-.476.335-.443,1.029-.545,1.6a3.715,3.715,0,0,1-1.61,2.311,11.581,11.581,0,0,1-2.606,1.244l-3.6,1.348a4.974,4.974,0,0,1-.173,1.069l3.775-1.416a11.214,11.214,0,0,0,2.606-1.242,3.763,3.763,0,0,0,1.61-2.321c.1-.578.069-1.267.545-1.6a2.965,2.965,0,0,1,.744-.275,3.256,3.256,0,0,0,1.707-2.643,15.1,15.1,0,0,0,.272-3.409A15.085,15.085,0,0,1,473.137,389.525Z" transform="translate(-453.299 -361.242)"/>
        <path id="Path_360" data-name="Path 360" d="M439.765,414.43a1.271,1.271,0,0,0-.41-.306,1.377,1.377,0,0,0-.518-.066h-1.574c-.062.335-.127.67-.193,1h1.774a1.349,1.349,0,0,1,.518.065,1.269,1.269,0,0,1,.41.3,7.631,7.631,0,0,1,2.29,4.511A7.185,7.185,0,0,0,439.765,414.43Z" transform="translate(-433.05 -382.997)"/>
      </g>
      <path id="Path_361" data-name="Path 361" d="M405.37,448.96s1.433-.6,1.753,0S405.37,448.96,405.37,448.96Z" transform="translate(-401.735 -405.286)" opacity="0.1"/>
      <path id="Path_362" data-name="Path 362" d="M408,454.31s1.433-.6,1.755,0S408,454.31,408,454.31Z" transform="translate(-403.859 -409.606)" opacity="0.1"/>
    </g>
    <g id="leaves" transform="translate(138.187 1.641)">
      <path id="Path_363" data-name="Path 363" d="M841.717,51.64s-7.329-.441-6.464,4.694a1.253,1.253,0,0,0,.651,1.319s.014-.385.751-.252a3.373,3.373,0,0,0,.8.039,1.651,1.651,0,0,0,.971-.4h0s2.059-.849,2.86-4.216c0,0,.593-.736.578-.925l-1.237.53a2.216,2.216,0,0,1,.089,1.633s-.039-1.6-.277-1.564c-.048,0-.641.308-.641.308a3.659,3.659,0,0,1,.177,2.685s.208-1.915-.4-2.571l-.874.518a3.843,3.843,0,0,1,.273,2.914s.148-2.009-.457-2.791l-.79.614a3.752,3.752,0,0,1,.318,2.66s-.064-2.34-.484-2.516a4.764,4.764,0,0,0-.794.859s.545,1.156.206,1.753c0,0-.208-1.556-.385-1.564a5.185,5.185,0,0,0-.759,1.734,3.759,3.759,0,0,1,.591-1.839,2.055,2.055,0,0,0-1.052.547s.106-.73,1.221-.8a4.8,4.8,0,0,1,.72-.83,4.516,4.516,0,0,0-1.782.206A2.013,2.013,0,0,1,837.506,54l.77-.636a6.646,6.646,0,0,0-2.08.021,2.532,2.532,0,0,1,2.29-.166l.848-.507a7.609,7.609,0,0,0-1.986-.171,3.046,3.046,0,0,1,2.234.035l.607-.272s-.913-.179-1.179-.208-.281-.1-.281-.1a3.151,3.151,0,0,1,1.712.193A7.786,7.786,0,0,0,841.717,51.64Z" transform="translate(-820.578 -47.476)" fill="#6c63ff" opacity="0.1"/>
      <path id="Path_364" data-name="Path 364" d="M799.669,30.06s-6.164,3.989-2.425,7.612a1.253,1.253,0,0,0,1.306.678s-.216-.316.456-.649a3.342,3.342,0,0,0,.665-.441,1.659,1.659,0,0,0,.545-.9h0s1.156-1.907-.193-5.093c0,0,.042-.944-.089-1.083l-.682,1.156a2.217,2.217,0,0,1,1.04,1.262s-.98-1.265-1.156-1.094c-.035.035-.335.63-.335.63a3.647,3.647,0,0,1,1.734,2.055s-.963-1.666-1.851-1.83l-.4.925a3.845,3.845,0,0,1,1.949,2.186s-1.073-1.707-2.022-1.978l-.27.963s1.579.8,1.832,1.965c0,0-1.437-1.845-1.88-1.734a4.877,4.877,0,0,0-.131,1.156s1.121.6,1.206,1.291c0,0-1.09-1.131-1.231-1.036a5.2,5.2,0,0,0,.418,1.851,3.761,3.761,0,0,1-.612-1.832,2.06,2.06,0,0,0-.524,1.063s-.347-.651.514-1.364a5.273,5.273,0,0,1,.087-1.1,4.459,4.459,0,0,0-1.314,1.221s.069-.905,1.377-1.479l.25-.973a6.428,6.428,0,0,0-1.662,1.25s.214-.913,1.745-1.491l.385-.911a7.838,7.838,0,0,0-1.7,1.04,3.064,3.064,0,0,1,1.822-1.3l.328-.578s-.842.4-1.073.532-.287.085-.287.085a3.158,3.158,0,0,1,1.493-.861A7.653,7.653,0,0,0,799.669,30.06Z" transform="translate(-788.976 -30.06)" fill="#6c63ff" opacity="0.1"/>
      <path id="Path_365" data-name="Path 365" d="M760.676,54.117s-3.685,6.356,1.291,7.884a1.242,1.242,0,0,0,1.472,0s-.333-.181.114-.784a3.372,3.372,0,0,0,.385-.693,1.664,1.664,0,0,0,.079-1.05h0s.164-2.223-2.485-4.451c0,0-.385-.859-.578-.923l-.083,1.348a2.221,2.221,0,0,1,1.5.653s-1.448-.684-1.522-.455c-.015.046-.013.713-.013.713a3.722,3.722,0,0,1,2.5,1.05s-1.618-1.046-2.479-.792l.062,1.005a3.841,3.841,0,0,1,2.728,1.065s-1.734-1.034-2.7-.846l.193.98a3.771,3.771,0,0,1,2.523.921s-2.119-.994-2.464-.7a4.761,4.761,0,0,0,.41,1.1s1.271.027,1.66.6c0,0-1.485-.514-1.568-.364a5.191,5.191,0,0,0,1.213,1.458,3.761,3.761,0,0,1-1.377-1.348,2.064,2.064,0,0,0,.015,1.185s-.6-.422-.162-1.448a4.844,4.844,0,0,1-.418-1.015,4.577,4.577,0,0,0-.616,1.683,2,2,0,0,1,.555-1.942l-.218-.982a6.432,6.432,0,0,0-.915,1.868,2.529,2.529,0,0,1,.88-2.119l-.073-.984a7.689,7.689,0,0,0-1.044,1.7,3.039,3.039,0,0,1,1.034-1.982l.029-.665s-.578.734-.715.963-.218.2-.218.2a3.17,3.17,0,0,1,.94-1.447A7.849,7.849,0,0,0,760.676,54.117Z" transform="translate(-759.363 -49.47)" fill="#6c63ff" opacity="0.1"/>
    </g>
    <path id="Path_366" data-name="Path 366" d="M896.649,339.709a2.756,2.756,0,1,0,2.756,2.756A2.756,2.756,0,0,0,896.649,339.709ZM888.59,318.08v2.756h2.756l4.962,10.051-2.074,3.377a2.744,2.744,0,0,0,2.627,4.066h16.116v-2.65H897.2a.326.326,0,0,1-.345-.345,1.729,1.729,0,0,1,.146-.343l1.377-2.175h10.268a2.7,2.7,0,0,0,2.412-1.447l4.964-8.535a1.6,1.6,0,0,0,.139-.69,1.325,1.325,0,0,0-1.379-1.31h-20.4l-1.31-2.756Zm21.629,21.629a2.756,2.756,0,1,0,2.758,2.757A2.756,2.756,0,0,0,910.219,339.709Z" transform="translate(-725.512 -260.962)" fill="#6c63ff"/>
    <path id="Path_367" data-name="Path 367" d="M914.026,326.521h-2.311V324.21h-1.734v2.311H907.67v1.734h2.311v2.311h1.734v-2.311h2.311Z" transform="translate(-732.846 -261.777)" fill="#fff"/>
  </g>
</svg>
