<svg xmlns="http://www.w3.org/2000/svg" width="90.026" height="47.473" viewBox="0 0 90.026 47.473">
  <g id="cassandra" transform="translate(-0.9 -0.2)">
    <path id="Path_5197" data-name="Path 5197" d="M101.025,23.836c.668,7.7-11.455,15.04-27.092,16.375S45.119,36.38,44.451,28.685,55.907,13.645,71.544,12.31c15.6-1.335,28.814,3.8,29.482,11.526" transform="translate(-28.231 -7.718)" fill="#bbe6fb"/>
    <path id="Path_5198" data-name="Path 5198" d="M87.775,15.194c-5.974-.105-12.931,2.284-18.132,4.5a15.221,15.221,0,0,0-.843,4.919c0,9.136,8.258,16.55,18.448,16.55s18.483-7.379,18.483-16.55a15.283,15.283,0,0,0-2.284-7.977,121.545,121.545,0,0,0-15.672-1.441" transform="translate(-44.041 -9.723)" fill="#fff"/>
    <path id="Path_5199" data-name="Path 5199" d="M93.964,15.168c-3.3-.211-9,1.511-13.739,3.233A13.7,13.7,0,0,0,79.1,23.917c0,8.012,7.274,14.512,14.934,14.512,7.625,0,14.372-6.5,14.934-14.512A12.406,12.406,0,0,0,107,16.749c-4.884-.843-10.085-1.37-13.037-1.581" transform="translate(-50.721 -9.697)" fill="#fff"/>
    <path id="Path_5200" data-name="Path 5200" d="M92.825,23.083a9.388,9.388,0,0,1,1.616-2.073,4.6,4.6,0,0,1-.211-.949,1.612,1.612,0,0,1,1.616-1.616,1.641,1.641,0,0,1,.6.105,11.817,11.817,0,0,1,9.839-2.143c.316.07.632.176.949.246A14.056,14.056,0,0,0,97.006,19.6a4.6,4.6,0,0,1,.316.984c0,.914-.6,1.124-1.476,1.124a1.785,1.785,0,0,1-.6-.105,16.048,16.048,0,0,0-1.722,3.373,13.106,13.106,0,0,0,4.6,2.495c0-.07.07-.176.07-.246a5.088,5.088,0,0,1,5.1-4.919,4.912,4.912,0,0,1,4.849,4.076,11.531,11.531,0,0,0,3.268-2.495,2.85,2.85,0,0,1-.422-1.335,1.485,1.485,0,0,1,1.476-1.476,1.318,1.318,0,0,1,.351.035,12.772,12.772,0,0,0,1.019-2.952c-4.252-3.163-12.474-2.706-12.474-2.706s-6.536-.351-10.963,1.827a13.386,13.386,0,0,0,2.425,5.8" transform="translate(-58.051 -9.881)" fill="#373535"/>
    <path id="Path_5201" data-name="Path 5201" d="M118.176,27.084a2.616,2.616,0,0,1,.6.738c.387.7-.387,1.37-1.23,1.37a.6.6,0,0,1-.246-.035,15.645,15.645,0,0,1-3.971,4.217,12.038,12.038,0,0,1,5.9,2.6,17.657,17.657,0,0,0,2.108-7.906,5.662,5.662,0,0,0-2.214-4.568,15.394,15.394,0,0,1-.949,3.584M100.325,40.718c.738-2.038,2.53-3.584,4.252-4.955a9.4,9.4,0,0,1-.773-1.581,12.19,12.19,0,0,1-5.341-3.373c0,.035-.035.105-.035.141a10.311,10.311,0,0,0-.176,3.584,2.152,2.152,0,0,1,1.757,2.108,3.414,3.414,0,0,1-.984,1.933,9.949,9.949,0,0,0,1.3,2.143" transform="translate(-63.091 -15.113)" fill="#373535"/>
    <path id="Path_5202" data-name="Path 5202" d="M87.814,40.524a15.707,15.707,0,0,1-2.038-3.69c-.105,0-.211.035-.316.035-1.195,0-2.425-.984-2.143-2.143a2.129,2.129,0,0,1,1.3-1.406,14.266,14.266,0,0,1,.105-4.568c.07-.387.281-.562.387-.949a12.6,12.6,0,0,1-2.143-6.922V20.6c-2.214,1.124-3.865,2.846-3.865,5.587,0,6.079,3.514,12.053,8.714,14.372v-.035m12.826-8.4A4.95,4.95,0,0,1,96,35.429a4.713,4.713,0,0,1-3.022-1.054A14.057,14.057,0,0,0,88.9,40.137a9.573,9.573,0,0,0,1.019,1.054c1.195.316,2.881,0,4.182,0a14.68,14.68,0,0,0,12.58-6.43,13.248,13.248,0,0,0-6.044-2.635" transform="translate(-50.721 -13.232)" fill="#373535"/>
    <path id="Path_5203" data-name="Path 5203" d="M92.554,24.888a12.752,12.752,0,0,1,1.511-2.495,1.591,1.591,0,0,1-.105-.562,1.612,1.612,0,0,1,1.616-1.616,1.641,1.641,0,0,1,.6.105,11.817,11.817,0,0,1,9.839-2.143c.316.07.633.176.949.246A13.094,13.094,0,0,0,97.087,21.2a2.052,2.052,0,0,1,.141.633,1.612,1.612,0,0,1-1.616,1.616,1.785,1.785,0,0,1-.6-.105,10.607,10.607,0,0,0-1.476,2.706,12.191,12.191,0,0,0,4.638,3.127v-.246a4.921,4.921,0,0,1,9.769-.843,12.613,12.613,0,0,0,3.2-2.917,1.4,1.4,0,0,1-.351-.914,1.485,1.485,0,0,1,1.476-1.476,1.318,1.318,0,0,1,.351.035,12.772,12.772,0,0,0,1.019-2.952c-4.252-3.163-12.474-2.706-12.474-2.706s-6.536-.351-10.963,1.827a12.416,12.416,0,0,0,2.354,5.9" transform="translate(-57.921 -10.984)" fill="#1287b1"/>
    <path id="Path_5204" data-name="Path 5204" d="M118.127,28.627a1.441,1.441,0,0,1,.492,1.089,1.485,1.485,0,0,1-1.476,1.476.6.6,0,0,1-.246-.035,11.629,11.629,0,0,1-3.584,3.584,11.814,11.814,0,0,1,5.763,2.6,14.949,14.949,0,0,0,1.9-7.274A5.662,5.662,0,0,0,118.76,25.5a11.5,11.5,0,0,1-.632,3.127M100.276,42.472a11.7,11.7,0,0,1,3.725-5.2,4.31,4.31,0,0,1-.6-1.124,12.19,12.19,0,0,1-5.341-3.373c0,.035-.035.105-.035.141a10.311,10.311,0,0,0-.176,3.584,2.139,2.139,0,0,1,1.054,3.69,11.581,11.581,0,0,0,1.37,2.284" transform="translate(-62.832 -16.41)" fill="#1287b1"/>
    <path id="Path_5205" data-name="Path 5205" d="M87.555,41.786a11.888,11.888,0,0,1-2.179-2.952c-.105,0-.211.035-.316.035a2.13,2.13,0,0,1-2.143-2.143,2.169,2.169,0,0,1,1.195-1.933,11.242,11.242,0,0,1,.211-4.041c.07-.387.211-.773.316-1.16a11.856,11.856,0,0,1-2.073-6.712V22.6c-2.214,1.124-3.865,2.846-3.865,5.587a14.913,14.913,0,0,0,8.82,13.634c.035,0,.035,0,.035-.035m12.685-7.66a4.95,4.95,0,0,1-4.638,3.3,4.713,4.713,0,0,1-3.022-1.054,12.178,12.178,0,0,0-3.83,5.236c.351.387.738.738,1.124,1.089a14.7,14.7,0,0,0,3.76.492,14.951,14.951,0,0,0,12.545-6.817,11.972,11.972,0,0,0-5.938-2.249" transform="translate(-50.462 -14.529)" fill="#1287b1"/>
    <path id="Path_5206" data-name="Path 5206" d="M113.388,33.963l4.533-1.089-4.568-.246,3.725-2.811-4.217,1.511,2.846-3.971-3.971,2.635,1.37-4.638-2.706,3.83-.07-4.849-1.792,4.322L107.063,24.3l.07,5.13-2.565-4.6,1.406,4.884-4.182-3.022L105.06,30.8l-5.2-1.9,4.076,3.022L98.7,32.1l5.376,1.37L98.7,34.631l5.306.387-4.463,2.846,4.6-1.652-3.2,4.041,4.041-3.268L103.549,42.4l3.127-4.428-.422,5.2,1.757-4.744,1.511,4.955.351-4.99,2.249,4.252-1.335-4.849,4.076,3.163-2.635-4.041,4.5,1.757L113.283,35.3l4.6.351Z" transform="translate(-63.434 -15.631)" fill="#fff"/>
    <path id="Path_5207" data-name="Path 5207" d="M2.8,28.827C16.891,14.736,28.135,10.379,38.361,8.411c1.335-.246,1.616-3.233,1.616-3.233s.176,2.179,1.124,2.46S43.28,4.23,43.28,4.23s-1.124,3.3,0,3.514c1.124.176,3.233-3.233,3.233-3.233s-.843,2.917-.281,3.127c.562.176,3.408-4.252,3.408-4.252S47.954,6.3,49.535,6.619c1.616.281,3.971-2,3.971-2S51.678,6.69,52.487,7.006C56,8.236,58.812,3.7,58.812,3.7a15.781,15.781,0,0,1-2.354,4.182c3.69.949,6.43-4.6,6.43-4.6L60.147,8.833C61.552,9.536,67.21,3,67.21,3s-2.917,5.1-4.638,6.149c.949.773,4.357-2.284,4.357-2.284s-2.741,3.408-1.687,3.584c1.511,1.23,7.1-6.325,7.1-6.325a38.241,38.241,0,0,1-5.376,7.941c2.671,1.37,9.347-7.239,9.347-7.239s-.176,2.741-5.025,7.1c3.584-.457,8.223-7.274,8.223-7.274a22.566,22.566,0,0,1-5.763,8.714C77.26,13.015,82.917,4.3,82.917,4.3s-2.179,6.044-6.606,9.558C81.23,14.947,88.328,7.6,88.328,7.6s-2.776,5.2-6.43,7.344c4.076,1.546,9.663-4.884,9.663-4.884s-5.587,8.609-14.477,8.223c-2.917-.141-11.736-8.855-30.641-8.152C21.424,11.047,16.153,21.659,2.8,28.827" transform="translate(-1.232 -1.816)" fill="rgba(55,53,53,0.35)"/>
    <path id="Path_5208" data-name="Path 5208" d="M4.4,25.957C18.491,11.866,29.735,7.509,39.961,5.541,41.3,5.3,41.577,2.308,41.577,2.308s.176,2.179,1.124,2.46S44.88,1.36,44.88,1.36s-1.124,3.3,0,3.514c1.124.176,3.233-3.233,3.233-3.233s-.843,2.917-.281,3.127C48.394,4.944,51.24.516,51.24.516s-1.687,2.917-.105,3.233c1.616.281,3.971-2,3.971-2s-1.827,2.073-1.019,2.389c3.514,1.23,6.325-3.3,6.325-3.3a15.781,15.781,0,0,1-2.354,4.182c3.69.949,6.43-4.6,6.43-4.6L61.747,5.963c1.406.773,7.1-5.763,7.1-5.763s-2.917,5.1-4.638,6.149C65.155,7.017,68.564,4,68.564,4S65.823,7.4,66.877,7.579c1.511,1.23,7.1-6.325,7.1-6.325A39.206,39.206,0,0,1,68.564,9.2c2.671,1.335,9.382-7.274,9.382-7.274s-.176,2.741-5.025,7.1c3.584-.457,8.223-7.274,8.223-7.274a22.566,22.566,0,0,1-5.763,8.714c3.514-.351,9.171-9.066,9.171-9.066s-2.179,6.044-6.606,9.558C82.865,12.042,89.964,4.7,89.964,4.7s-2.776,5.2-6.43,7.344C87.609,13.588,93.2,7.158,93.2,7.158s-5.587,8.609-14.477,8.223C75.8,15.24,66.983,6.525,48.078,7.228,23.059,8.177,17.753,18.753,4.4,25.957" transform="translate(-2.27)" fill="#373535"/>
    <path id="Path_5209" data-name="Path 5209" d="M1.8,59.327c7.449,3.725,14.266-.562,22.84,1.862,6.536,1.827,14.477,4.111,25.265,2.53C60.693,62.173,69.9,57.465,74.327,49.1c1.37-3.725,6.958.843,6.958.843s-4.076-1.687-3.971-.914c.105.808,6.114,3.584,6.114,3.584s-5.447-1.687-5.1-.422c.316,1.265,6.817,6.4,6.817,6.4s-7.414-5.552-8.012-4.779c-.633.773,3.127,3.83,3.127,3.83s-6.184-3.83-8.363-2.706c-1.581.808,6.43,6.044,6.43,6.044s-5.2-3.971-6.43-2.917,5.868,9.558,5.868,9.558-8.082-8.714-8.89-8.293,2.214,4.6,2.214,4.6-3.936-4.357-5.025-3.619c-1.089.773,5.693,12.053,5.693,12.053s-7.344-11.561-10.4-9.628c4.744,10.436,2.987,11.912,2.987,11.912S63.75,64,57.812,64.282c-2.987.141,1.406,7.941,1.406,7.941s-4.041-7.133-6.747-6.993c4.955,9.417,3.2,13.212,3.2,13.212s.808-8.047-5.9-12.509c2.565,2.284-1.616,12.509-1.616,12.509S51.8,63.368,45.443,66.249c-1.019.457-.07,7.52-.07,7.52s-1.265-8.082-3.2-7.66c-1.124.246-7.1,11.209-7.1,11.209s4.884-11.842,3.408-11.35C37.4,66.32,35.358,71.2,35.358,71.2s.984-4.814,0-5.1-6.536,5.1-6.536,5.1,4.111-4.814,3.408-5.833c-1.089-1.511-2.319-1.581-3.83-.984-2.179.843-5.1,4.814-5.1,4.814s2.917-4.041,2.425-5.517c-.808-2.425-9.206,4.673-9.206,4.673s4.955-4.673,3.83-5.693c-1.124-.984-7.309-.7-9.206-.7C5.49,62.033,3.522,60.7,1.8,59.327" transform="translate(-0.584 -30.77)" fill="rgba(55,53,53,0.35)"/>
    <path id="Path_5210" data-name="Path 5210" d="M.9,56.927c7.449,3.725,14.266-.562,22.84,1.862,6.536,1.827,14.477,4.111,25.265,2.53C59.793,59.773,69,55.065,73.427,46.7c1.37-3.725,6.958.843,6.958.843s-4.076-1.687-3.971-.914c.105.808,6.114,3.584,6.114,3.584s-5.447-1.687-5.1-.422c.316,1.265,6.817,6.4,6.817,6.4s-7.344-5.587-7.941-4.814,3.127,3.83,3.127,3.83-6.184-3.83-8.363-2.706c-1.581.808,6.43,6.044,6.43,6.044s-5.2-3.971-6.43-2.917,5.868,9.558,5.868,9.558-8.047-8.714-8.855-8.293S70.3,61.5,70.3,61.5s-4.006-4.322-5.1-3.584c-1.089.773,5.657,12.053,5.657,12.053S63.518,58.368,60.5,60.3c4.779,10.471,2.987,11.947,2.987,11.947s-.6-10.647-6.536-10.366c-2.987.141,1.406,7.941,1.406,7.941s-4.006-7.1-6.712-6.958c4.955,9.417,3.2,13.212,3.2,13.212s.808-8.047-5.9-12.509c2.565,2.284-1.616,12.509-1.616,12.509S50.973,61,44.613,63.885c-1.019.457-.07,7.52-.07,7.52s-1.265-8.082-3.2-7.66c-1.124.246-7.1,11.209-7.1,11.209s4.884-11.842,3.408-11.35c-1.089.351-3.127,5.236-3.127,5.236s.984-4.814,0-5.1-6.536,5.1-6.536,5.1S32.1,64.025,31.4,63.006c-1.089-1.511-2.319-1.581-3.83-.984-2.179.843-5.1,4.814-5.1,4.814S25.392,62.8,24.9,61.319c-.808-2.425-9.206,4.673-9.206,4.673s4.955-4.673,3.83-5.693c-1.124-.984-7.309-.7-9.206-.7-5.728.035-7.7-1.3-9.417-2.671" transform="translate(0 -29.213)" fill="#373535"/>
  </g>
</svg>
