<svg xmlns="http://www.w3.org/2000/svg" width="802" height="463.849" viewBox="0 0 802 463.849">
  <g id="contact_img" transform="translate(0 0)">
    <circle id="Ellipse_376" data-name="Ellipse 376" cx="6.467" cy="6.467" r="6.467" transform="translate(768.624 15.513)" fill="#f2f2f2"/>
    <circle id="Ellipse_377" data-name="Ellipse 377" cx="6.467" cy="6.467" r="6.467" transform="translate(742.85 15.513)" fill="#f2f2f2"/>
    <circle id="Ellipse_378" data-name="Ellipse 378" cx="6.467" cy="6.467" r="6.467" transform="translate(717.077 15.513)" fill="#f2f2f2"/>
    <circle id="Ellipse_379" data-name="Ellipse 379" cx="6.467" cy="6.467" r="6.467" transform="translate(691.304 15.513)" fill="#f2f2f2"/>
    <circle id="Ellipse_380" data-name="Ellipse 380" cx="6.467" cy="6.467" r="6.467" transform="translate(768.624 42.513)" fill="#f2f2f2"/>
    <circle id="Ellipse_381" data-name="Ellipse 381" cx="6.467" cy="6.467" r="6.467" transform="translate(742.85 42.513)" fill="#f2f2f2"/>
    <circle id="Ellipse_382" data-name="Ellipse 382" cx="6.467" cy="6.467" r="6.467" transform="translate(717.077 42.513)" fill="#f2f2f2"/>
    <circle id="Ellipse_383" data-name="Ellipse 383" cx="6.467" cy="6.467" r="6.467" transform="translate(691.304 42.513)" fill="#f2f2f2"/>
    <circle id="Ellipse_384" data-name="Ellipse 384" cx="6.467" cy="6.467" r="6.467" transform="translate(768.624 69.513)" fill="#f2f2f2"/>
    <circle id="Ellipse_385" data-name="Ellipse 385" cx="6.467" cy="6.467" r="6.467" transform="translate(742.85 69.513)" fill="#f2f2f2"/>
    <circle id="Ellipse_386" data-name="Ellipse 386" cx="6.467" cy="6.467" r="6.467" transform="translate(717.077 69.513)" fill="#f2f2f2"/>
    <circle id="Ellipse_387" data-name="Ellipse 387" cx="6.467" cy="6.467" r="6.467" transform="translate(691.304 69.513)" fill="#f2f2f2"/>
    <circle id="Ellipse_388" data-name="Ellipse 388" cx="6.467" cy="6.467" r="6.467" transform="translate(768.624 96.513)" fill="#f2f2f2"/>
    <circle id="Ellipse_389" data-name="Ellipse 389" cx="6.467" cy="6.467" r="6.467" transform="translate(742.85 96.513)" fill="#f2f2f2"/>
    <circle id="Ellipse_390" data-name="Ellipse 390" cx="6.467" cy="6.467" r="6.467" transform="translate(717.077 96.513)" fill="#f2f2f2"/>
    <circle id="Ellipse_391" data-name="Ellipse 391" cx="6.467" cy="6.467" r="6.467" transform="translate(691.304 96.513)" fill="#f2f2f2"/>
    <circle id="Ellipse_392" data-name="Ellipse 392" cx="6.467" cy="6.467" r="6.467" transform="translate(768.624 123.513)" fill="#f2f2f2"/>
    <circle id="Ellipse_393" data-name="Ellipse 393" cx="6.467" cy="6.467" r="6.467" transform="translate(742.85 123.513)" fill="#f2f2f2"/>
    <circle id="Ellipse_394" data-name="Ellipse 394" cx="6.467" cy="6.467" r="6.467" transform="translate(717.077 123.513)" fill="#f2f2f2"/>
    <circle id="Ellipse_395" data-name="Ellipse 395" cx="6.467" cy="6.467" r="6.467" transform="translate(691.304 123.513)" fill="#f2f2f2"/>
    <circle id="Ellipse_396" data-name="Ellipse 396" cx="6.467" cy="6.467" r="6.467" transform="translate(768.624 150.513)" fill="#f2f2f2"/>
    <circle id="Ellipse_397" data-name="Ellipse 397" cx="6.467" cy="6.467" r="6.467" transform="translate(742.85 150.513)" fill="#f2f2f2"/>
    <circle id="Ellipse_398" data-name="Ellipse 398" cx="6.467" cy="6.467" r="6.467" transform="translate(717.077 150.513)" fill="#f2f2f2"/>
    <circle id="Ellipse_399" data-name="Ellipse 399" cx="6.467" cy="6.467" r="6.467" transform="translate(691.304 150.513)" fill="#f2f2f2"/>
    <path id="Path_5514" data-name="Path 5514" d="M963.083,664.753c4.668-10.084,9.333-20.317,11.359-31.242s1.176-22.783-4.627-32.259-17.228-15.9-28.132-13.76c-8.955,1.759-16.146,8.813-20.357,16.91s-5.9,17.23-7.537,26.208c-.529-10.2-1.09-20.564-4.478-30.2s-10.06-18.615-19.569-22.343-21.879-.8-26.891,8.1c-7.061,12.538,2.3,30.125-5.817,42.006-1.393-11.917-13.855-21.332-25.7-19.416s-20.7,14.781-18.265,26.529c1.45,6.99,6.219,12.936,11.922,17.232s12.334,9.274,18.895,12.09Z" transform="translate(-199 -218.793)" fill="#f2f2f2"/>
    <path id="Path_5515" data-name="Path 5515" d="M819.29,617.18c9.408,3.289,18.9,6.614,27.492,11.756,7.7,4.608,14.553,10.812,18.882,18.757a33.356,33.356,0,0,1,4.125,13.859c.063,1.018,1.655,1.025,1.592,0-.557-9.061-4.972-17.353-11.087-23.911-6.7-7.19-15.392-12.1-24.361-15.91-5.318-2.259-10.769-4.179-16.221-6.085-.969-.339-1.385,1.2-.423,1.535Z" transform="translate(-199 -218.793)" fill="#fff"/>
    <path id="Path_5516" data-name="Path 5516" d="M873.557,579.647a143.382,143.382,0,0,1,13.791,30.616,145.12,145.12,0,0,1,6.361,32.968,143.3,143.3,0,0,1,.151,18.837c-.059,1.023,1.533,1.02,1.592,0a145.193,145.193,0,0,0-2.04-33.82,146.925,146.925,0,0,0-9.769-32.44,143.235,143.235,0,0,0-8.712-16.964.8.8,0,0,0-1.374.8Z" transform="translate(-199 -218.793)" fill="#fff"/>
    <path id="Path_5517" data-name="Path 5517" d="M951.458,588.789a232.043,232.043,0,0,0-17.117,57.578q-1.342,8.365-2.078,16.812c-.089,1.02,1.5,1.014,1.592,0a231.209,231.209,0,0,1,12.738-58.025q2.834-7.892,6.239-15.562c.412-.928-.959-1.739-1.374-.8Z" transform="translate(-199 -218.793)" fill="#fff"/>
    <path id="Path_5518" data-name="Path 5518" d="M1000,664.486H200a1,1,0,0,1,0-2h800a1,1,0,0,1,0,2Z" transform="translate(-199 -218.793)" fill="#3f3d56"/>
    <path id="Path_5519" data-name="Path 5519" d="M613.263,409.335H474.534a7.53,7.53,0,0,1-7.521-7.521v-175.5a7.53,7.53,0,0,1,7.521-7.521H613.263a7.53,7.53,0,0,1,7.521,7.522v175.5a7.53,7.53,0,0,1-7.521,7.521ZM474.534,220.464a5.857,5.857,0,0,0-5.85,5.85v175.5a5.857,5.857,0,0,0,5.85,5.85H613.263a5.857,5.857,0,0,0,5.85-5.85v-175.5a5.857,5.857,0,0,0-5.85-5.85Z" transform="translate(-199 -218.793)" fill="#3f3d56"/>
    <path id="Path_5520" data-name="Path 5520" d="M532.358,303.151H501.821a3.765,3.765,0,0,1-3.761-3.761V263.355a3.765,3.765,0,0,1,3.761-3.761h30.537a3.765,3.765,0,0,1,3.761,3.761v36.036A3.765,3.765,0,0,1,532.358,303.151Z" transform="translate(-199 -218.793)" fill="#6c63ff"/>
    <path id="Path_5521" data-name="Path 5521" d="M591.694,319.865H561.157A3.765,3.765,0,0,1,557.4,316.1V280.069a3.765,3.765,0,0,1,3.761-3.761h30.537a3.765,3.765,0,0,1,3.761,3.761V316.1a3.765,3.765,0,0,1-3.761,3.76Z" transform="translate(-199 -218.793)" fill="#ccc"/>
    <path id="Path_5522" data-name="Path 5522" d="M544.058,370.844H513.521a3.765,3.765,0,0,1-3.761-3.761V331.047a3.765,3.765,0,0,1,3.761-3.761h30.537a3.765,3.765,0,0,1,3.761,3.761v36.036a3.765,3.765,0,0,1-3.761,3.761Z" transform="translate(-199 -218.793)" fill="#ff6584"/>
    <circle id="Ellipse_400" data-name="Ellipse 400" cx="6.467" cy="6.467" r="6.467" transform="translate(109.464 5.353)" fill="#f2f2f2"/>
    <circle id="Ellipse_401" data-name="Ellipse 401" cx="6.467" cy="6.467" r="6.467" transform="translate(109.464 31.127)" fill="#f2f2f2"/>
    <circle id="Ellipse_402" data-name="Ellipse 402" cx="6.467" cy="6.467" r="6.467" transform="translate(109.464 56.9)" fill="#f2f2f2"/>
    <circle id="Ellipse_403" data-name="Ellipse 403" cx="6.467" cy="6.467" r="6.467" transform="translate(109.464 82.673)" fill="#f2f2f2"/>
    <circle id="Ellipse_404" data-name="Ellipse 404" cx="6.467" cy="6.467" r="6.467" transform="translate(136.464 5.353)" fill="#f2f2f2"/>
    <circle id="Ellipse_405" data-name="Ellipse 405" cx="6.467" cy="6.467" r="6.467" transform="translate(136.464 31.127)" fill="#f2f2f2"/>
    <circle id="Ellipse_406" data-name="Ellipse 406" cx="6.467" cy="6.467" r="6.467" transform="translate(136.464 56.9)" fill="#f2f2f2"/>
    <circle id="Ellipse_407" data-name="Ellipse 407" cx="6.467" cy="6.467" r="6.467" transform="translate(136.464 82.673)" fill="#f2f2f2"/>
    <circle id="Ellipse_408" data-name="Ellipse 408" cx="6.467" cy="6.467" r="6.467" transform="translate(163.464 5.353)" fill="#f2f2f2"/>
    <circle id="Ellipse_409" data-name="Ellipse 409" cx="6.467" cy="6.467" r="6.467" transform="translate(163.464 31.127)" fill="#f2f2f2"/>
    <circle id="Ellipse_410" data-name="Ellipse 410" cx="6.467" cy="6.467" r="6.467" transform="translate(163.464 56.9)" fill="#f2f2f2"/>
    <circle id="Ellipse_411" data-name="Ellipse 411" cx="6.467" cy="6.467" r="6.467" transform="translate(163.464 82.673)" fill="#f2f2f2"/>
    <circle id="Ellipse_412" data-name="Ellipse 412" cx="6.467" cy="6.467" r="6.467" transform="translate(190.464 5.353)" fill="#f2f2f2"/>
    <circle id="Ellipse_413" data-name="Ellipse 413" cx="6.467" cy="6.467" r="6.467" transform="translate(190.464 31.127)" fill="#f2f2f2"/>
    <circle id="Ellipse_414" data-name="Ellipse 414" cx="6.467" cy="6.467" r="6.467" transform="translate(190.464 56.9)" fill="#f2f2f2"/>
    <circle id="Ellipse_415" data-name="Ellipse 415" cx="6.467" cy="6.467" r="6.467" transform="translate(190.464 82.673)" fill="#f2f2f2"/>
    <circle id="Ellipse_416" data-name="Ellipse 416" cx="6.467" cy="6.467" r="6.467" transform="translate(217.464 5.353)" fill="#f2f2f2"/>
    <circle id="Ellipse_417" data-name="Ellipse 417" cx="6.467" cy="6.467" r="6.467" transform="translate(217.464 31.127)" fill="#f2f2f2"/>
    <circle id="Ellipse_418" data-name="Ellipse 418" cx="6.467" cy="6.467" r="6.467" transform="translate(217.464 56.9)" fill="#f2f2f2"/>
    <circle id="Ellipse_419" data-name="Ellipse 419" cx="6.467" cy="6.467" r="6.467" transform="translate(217.464 82.673)" fill="#f2f2f2"/>
    <circle id="Ellipse_420" data-name="Ellipse 420" cx="6.467" cy="6.467" r="6.467" transform="translate(244.464 5.353)" fill="#f2f2f2"/>
    <circle id="Ellipse_421" data-name="Ellipse 421" cx="6.467" cy="6.467" r="6.467" transform="translate(244.464 31.127)" fill="#f2f2f2"/>
    <circle id="Ellipse_422" data-name="Ellipse 422" cx="6.467" cy="6.467" r="6.467" transform="translate(244.464 56.9)" fill="#f2f2f2"/>
    <circle id="Ellipse_423" data-name="Ellipse 423" cx="6.467" cy="6.467" r="6.467" transform="translate(244.464 82.673)" fill="#f2f2f2"/>
    <circle id="Ellipse_424" data-name="Ellipse 424" cx="42.012" cy="42.012" r="42.012" transform="translate(139.033 370.409)" fill="#2f2e41"/>
    <rect id="Rectangle_420" data-name="Rectangle 420" width="22.868" height="12.763" transform="translate(144.62 450.267) rotate(-26.601)" fill="#2f2e41"/>
    <ellipse id="Ellipse_425" data-name="Ellipse 425" cx="3.989" cy="10.636" rx="3.989" ry="10.636" transform="translate(133.077 452.136) rotate(-56.601)" fill="#2f2e41"/>
    <rect id="Rectangle_421" data-name="Rectangle 421" width="12.763" height="22.868" transform="translate(191.306 451.431) rotate(-63.399)" fill="#2f2e41"/>
    <ellipse id="Ellipse_426" data-name="Ellipse 426" cx="10.636" cy="3.989" rx="10.636" ry="3.989" transform="translate(206.859 457.189) rotate(-33.399)" fill="#2f2e41"/>
    <circle id="Ellipse_427" data-name="Ellipse 427" cx="14.359" cy="14.359" r="14.359" transform="translate(163.745 387.786)" fill="#fff"/>
    <path id="Path_5523" data-name="Path 5523" d="M368.7,621.284c5.123-3.9,10.914,1.889,7.012,7.012C370.585,632.2,364.794,626.407,368.7,621.284Z" transform="translate(-199 -218.793)" fill="#3f3d56"/>
    <path id="Path_5524" data-name="Path 5524" d="M413.187,585.509c.632-15.554-12.773-28.728-29.941-29.425s-31.6,11.346-32.229,26.9,11.3,19.088,28.47,19.785S412.555,601.062,413.187,585.509Z" transform="translate(-199 -218.793)" fill="#ccc"/>
    <ellipse id="Ellipse_428" data-name="Ellipse 428" cx="6.594" cy="21.006" rx="6.594" ry="21.006" transform="translate(206.034 406.84) rotate(-40.645)" fill="#2f2e41"/>
    <ellipse id="Ellipse_429" data-name="Ellipse 429" cx="21.006" cy="6.594" rx="21.006" ry="6.594" transform="translate(118.8 430.123) rotate(-49.355)" fill="#2f2e41"/>
    <path id="Path_5525" data-name="Path 5525" d="M391.583,647.77a9.572,9.572,0,1,1-18.835,3.429l0-.018c-.942-5.2,3.08-7.043,8.283-7.985S390.642,642.568,391.583,647.77Z" transform="translate(-199 -218.793)" fill="#fff"/>
    <path id="Path_5526" data-name="Path 5526" d="M824.3,546.116h-56.01a2.5,2.5,0,0,1-2.5,2.5h-54.98a12.866,12.866,0,0,0-2.11,2,12.41,12.41,0,0,0-2.9,8v2a12.5,12.5,0,0,0,12.5,12.5h106a12.511,12.511,0,0,0,12.5-12.5v-2a12.517,12.517,0,0,0-12.5-12.5Z" transform="translate(-199 -218.793)" fill="#3f3d56"/>
    <rect id="Rectangle_422" data-name="Rectangle 422" width="13" height="92" transform="translate(566.292 353.827)" fill="#3f3d56"/>
    <path id="Path_5527" data-name="Path 5527" d="M815.292,664.163c0,1.4-19.7.543-44,.543s-44,.861-44-.543,19.7-12.543,44-12.543S815.292,662.758,815.292,664.163Z" transform="translate(-199 -218.793)" fill="#3f3d56"/>
    <path id="Path_5528" data-name="Path 5528" d="M821.847,549l-2.18-13.64a6.574,6.574,0,0,0-7.52-5.45l-22.49,3.59-38.52,6.15-12.53,2h27.18a2.5,2.5,0,0,1,2.5,2.5v1.97a2.5,2.5,0,0,1-2.5,2.5h-69.17a6.332,6.332,0,0,0-2.43,2,6.487,6.487,0,0,0-1.24,4.96l.62,3.88.75,4.71.81,5.06a6.561,6.561,0,0,0,7.5,5.44l17.87-2.85,51.54-8.23,44.36-7.08a6.587,6.587,0,0,0,5.45-7.51Z" transform="translate(-199 -218.793)" fill="#6c63ff"/>
    <path id="Path_5529" data-name="Path 5529" d="M719.127,550.616a6.356,6.356,0,0,0-2.53-2h-19.12a6.322,6.322,0,0,0-2.54,2,6.465,6.465,0,0,0-1.37,3.99v76.21a6.56,6.56,0,0,0,6.55,6.55h13.83a6.559,6.559,0,0,0,6.55-6.55v-76.21a6.484,6.484,0,0,0-1.37-3.99Z" transform="translate(-199 -218.793)" fill="#6c63ff"/>
    <path id="Path_5530" data-name="Path 5530" d="M760.747,420.816l-.13-.17-8.58-10.57a6.315,6.315,0,0,0-1.63-1.43,4.813,4.813,0,0,0-1.06-.54,6.3,6.3,0,0,0-1.71-.42,6.646,6.646,0,0,0-1.18-.02.032.032,0,0,0-.02.01,6.485,6.485,0,0,0-3.62,1.44l-17.61,14.28-22.63,18.36-33.77,27.4-2.46,2h42.73l2.47-2,8.17-6.63.58-.46,39.46-32.01.03-.02a6.456,6.456,0,0,0,1.87-2.45,6.6,6.6,0,0,0,.52-1.97,6.5,6.5,0,0,0-1.43-4.8Z" transform="translate(-199 -218.793)" fill="#6c63ff"/>
    <path id="Path_5531" data-name="Path 5531" d="M760.617,420.646a16.3,16.3,0,0,0-3.56-7.3,16.117,16.117,0,0,0-6.65-4.7c-.4-.15-.79-.29-1.19-.4a17.149,17.149,0,0,0-2.76-.58.032.032,0,0,0-.02.01,16.314,16.314,0,0,0-11.8,3.26l-30.46,23.28a6.462,6.462,0,0,0-2.15,4.57,6.634,6.634,0,0,0,.55,2.97c.1.21.21.42.33.62a5.759,5.759,0,0,0,.84,1.12l4.88,5.48,11.35,12.73.32.36.73.83a6.549,6.549,0,0,0,9.27.41l26.27-28.22a16.213,16.213,0,0,0,3.19-5.03,16.465,16.465,0,0,0,.86-9.41Z" transform="translate(-199 -218.793)" fill="#2f2e41"/>
    <circle id="Ellipse_430" data-name="Ellipse 430" cx="50.122" cy="50.122" r="50.122" transform="translate(523.109 65.399)" fill="#6c63ff"/>
    <path id="Path_5532" data-name="Path 5532" d="M791.027,542.1l-1.37-8.6-.81-5.05a6.563,6.563,0,0,0-7.51-5.44l-36.43,5.81-9.88,1.58-2,.32v10.93h32.76a2.5,2.5,0,0,1,2.5,2.5v1.97a2.5,2.5,0,0,1-2.5,2.5H662.117c0,.02.01.04.01.06l.62,3.88,1.56,9.76a6.561,6.561,0,0,0,7.5,5.44l17.87-2.85,3.89-.62.75-.12,26.18-4.18,17.81-2.85,28.26-4.51.42-.07,18.59-2.96A6.568,6.568,0,0,0,791.027,542.1Z" transform="translate(-199 -218.793)" fill="#6c63ff"/>
    <path id="Path_5533" data-name="Path 5533" d="M840.447,505.316c0,40.86-4.15,65.3-68.15,58.3l-.26-.03a190.027,190.027,0,0,1-33.73-6.45,100.176,100.176,0,0,1-16.64-6.52c-1.26-.64-2.47-1.31-3.66-2h47.78a2.5,2.5,0,0,0,2.5-2.5v-1.97a2.5,2.5,0,0,0-2.5-2.5h-32.76v-63.16a7.341,7.341,0,0,0-7.33-7.33h1.35c.23-.66.46-1.33.71-2,2.43-6.75,2.191-12.06,5.641-18.67,4.74-9.12,4.77-18.29,11-26,4.64-5.73-9.571-11.98-4.351-16.28,10.03-8.28,20.95-13.4,32.03-13.4C812.937,394.806,840.447,464.456,840.447,505.316Z" transform="translate(-199 -218.793)" fill="#2f2e41"/>
    <rect id="Rectangle_423" data-name="Rectangle 423" width="10.088" height="1.873" transform="translate(547.573 104.059)" fill="#2f2e41"/>
    <rect id="Rectangle_428" data-name="Rectangle 428" width="13.088" height="2.873" transform="translate(561.573 134.059)" fill="#2f2e41"/>
    <rect id="Rectangle_424" data-name="Rectangle 424" width="10.088" height="1.873" transform="translate(579.414 104.059)" fill="#2f2e41"/>
    <path id="Path_5535" data-name="Path 5535" d="M802.027,435.146l-3.97-2.76-7.39-5.13a6.564,6.564,0,0,0-9.12,1.65l-24.09,34.67-22.43,32.28-2,2.88v42.91h.18a6.531,6.531,0,0,0,4.09-2,5.835,5.835,0,0,0,.63-.77l6.98-10.06,17.25-24.83,17.88-25.72,1.7-2.45,21.92-31.55a5.666,5.666,0,0,0,.33-.52,5.27,5.27,0,0,0,.27-.53,6.55,6.55,0,0,0-2.23-8.07Z" transform="translate(-199 -218.793)" fill="#6c63ff"/>
    <path id="Path_5536" data-name="Path 5536" d="M802.1,421.426a16.086,16.086,0,0,0-2.22-1.22,16.359,16.359,0,0,0-19.98,5.16l-22.76,30.86a6.525,6.525,0,0,0,2.18,9.04l20.72,13,.26.16,1.04.65a6.573,6.573,0,0,0,9.01-2.2l16.07-31.9.27-.53.01-.01.99-1.99a16.363,16.363,0,0,0-5.59-21.02Z" transform="translate(-199 -218.793)" fill="#2f2e41"/>
    <path id="Path_5537" data-name="Path 5537" d="M662.747,548.616v75.29a6.559,6.559,0,0,0,6.55,6.55h13.83a6.56,6.56,0,0,0,6.55-6.55v-75.29Z" transform="translate(-199 -218.793)" fill="#6c63ff"/>
    <path id="Path_5538" data-name="Path 5538" d="M765.787,539.646h-30.76v-61.16a9.34,9.34,0,0,0-9.33-9.33H611.627a9.342,9.342,0,0,0-9.34,9.328v62.8a9.342,9.342,0,0,0,9.34,9.33h154.16c.16,0,.31-.01.46-.02s.28-.04.42-.06a4.516,4.516,0,0,0,3.62-4.42v-1.97a4.5,4.5,0,0,0-4.5-4.5Zm0,8.97H611.627a7.343,7.343,0,0,1-7.34-7.33v-62.8a7.343,7.343,0,0,1,7.34-7.33H725.7a7.341,7.341,0,0,1,7.33,7.33v63.16h32.76a2.5,2.5,0,0,1,2.5,2.5v1.97a2.5,2.5,0,0,1-2.5,2.5Z" transform="translate(-199 -218.793)" fill="#3f3d56"/>
    <circle id="Ellipse_431" data-name="Ellipse 431" cx="7.69" cy="7.69" r="7.69" transform="translate(461.968 283.404)" fill="#6c63ff"/>
    <rect id="Rectangle_425" data-name="Rectangle 425" width="2" height="9" transform="translate(533.997 321.913)" fill="#3f3d56"/>
    <ellipse id="Ellipse_432" data-name="Ellipse 432" cx="21.534" cy="6.76" rx="21.534" ry="6.76" transform="matrix(0.357, -0.934, 0.934, 0.357, 206.235, 275.65)" fill="#2f2e41"/>
    <circle id="Ellipse_433" data-name="Ellipse 433" cx="43.067" cy="43.067" r="43.067" transform="translate(131.022 326.079) rotate(-80.783)" fill="#2f2e41"/>
    <rect id="Rectangle_426" data-name="Rectangle 426" width="13.084" height="23.442" transform="translate(160.806 324.269)" fill="#2f2e41"/>
    <rect id="Rectangle_427" data-name="Rectangle 427" width="13.084" height="23.442" transform="translate(186.974 324.269)" fill="#2f2e41"/>
    <ellipse id="Ellipse_434" data-name="Ellipse 434" cx="10.903" cy="4.089" rx="10.903" ry="4.089" transform="translate(160.806 343.894)" fill="#2f2e41"/>
    <ellipse id="Ellipse_435" data-name="Ellipse 435" cx="10.903" cy="4.089" rx="10.903" ry="4.089" transform="translate(186.974 343.349)" fill="#2f2e41"/>
    <circle id="Ellipse_436" data-name="Ellipse 436" cx="14.719" cy="14.719" r="14.719" transform="matrix(1, -0.029, 0.029, 1, 166.376, 265.287)" fill="#fff"/>
    <circle id="Ellipse_437" data-name="Ellipse 437" cx="4.906" cy="4.906" r="4.906" transform="translate(176.616 274.66)" fill="#3f3d56"/>
    <path id="Path_5539" data-name="Path 5539" d="M337.655,469.21c-3.477-15.574,7.639-31.31,24.829-35.149s33.944,5.675,37.422,21.249-7.915,21.318-25.1,25.156S341.133,484.784,337.655,469.21Z" transform="translate(-199 -218.793)" fill="#6c63ff"/>
    <ellipse id="Ellipse_438" data-name="Ellipse 438" cx="6.76" cy="21.534" rx="6.76" ry="21.534" transform="translate(109.572 267.365) rotate(-64.626)" fill="#2f2e41"/>
    <path id="Path_5540" data-name="Path 5540" d="M358.277,524.8c0,4.215,10.853,12.539,22.9,12.539s23.335-11.867,23.335-16.082-11.292.818-23.335.818S358.277,520.583,358.277,524.8Z" transform="translate(-199 -218.793)" fill="#fff"/>
    <path id="Path_5541" data-name="Path 5541" d="M462.543,500.03l-31.7,6.188a3.44,3.44,0,0,1-2.92-.772,3.5,3.5,0,0,1-1.217-2.82,82.894,82.894,0,0,0-7.376-37.786,3.5,3.5,0,0,1,.067-3.071,3.44,3.44,0,0,1,2.415-1.814l31.7-6.188a3.485,3.485,0,0,1,3.928,2.209,135.693,135.693,0,0,1,7.911,40.529A3.485,3.485,0,0,1,462.543,500.03Z" transform="translate(-199 -218.793)" fill="#ff6584"/>
    <path id="Path_5542" data-name="Path 5542" d="M323.543,529.03l-31.7,6.188a3.44,3.44,0,0,1-2.92-.772,3.5,3.5,0,0,1-1.217-2.82,82.894,82.894,0,0,0-7.376-37.786,3.5,3.5,0,0,1,.067-3.071,3.44,3.44,0,0,1,2.415-1.814l31.7-6.188a3.485,3.485,0,0,1,3.928,2.209,135.692,135.692,0,0,1,7.911,40.529,3.485,3.485,0,0,1-2.809,3.524Z" transform="translate(-199 -218.793)" fill="#ccc"/>
    <path id="Path_5543" data-name="Path 5543" d="M786.653,299.125a38.017,38.017,0,0,1-28.545.992,37.495,37.495,0,0,1-24.032-33.271l-2.257,1.3,9.516,6.7a1.509,1.509,0,0,0,2.2-.9,20.077,20.077,0,0,1,9.78-12.715,26.2,26.2,0,0,1,17.429-2.9c12.364,2.006,23.495,10.248,30.737,20.243a55.3,55.3,0,0,1,8.642,18.039,1.5,1.5,0,0,0,2.893-.8,58.451,58.451,0,0,0-21.527-31.5c-10.745-7.979-25.788-12.8-38.427-6.36-6.016,3.065-10.911,8.523-12.418,15.2l2.2-.9-9.516-6.7a1.509,1.509,0,0,0-2.257,1.3,41.07,41.07,0,0,0,11.75,26.892,39.926,39.926,0,0,0,27.934,11.684,40.626,40.626,0,0,0,17.407-3.707c1.753-.8.23-3.389-1.514-2.59Z" transform="translate(-199 -218.793)" fill="#2f2e41"/>
    <path id="Path_5544" data-name="Path 5544" d="M365.674,674.954l-31.7,6.188a3.44,3.44,0,0,1-2.92-.772,3.5,3.5,0,0,1-1.217-2.82,82.894,82.894,0,0,0-7.376-37.786,3.5,3.5,0,0,1,.067-3.071,3.44,3.44,0,0,1,2.415-1.814l31.7-6.188a3.486,3.486,0,0,1,3.928,2.209,135.694,135.694,0,0,1,7.911,40.529A3.485,3.485,0,0,1,365.674,674.954Z" transform="translate(-199 -218.793)" fill="#6c63ff"/>
  </g>
</svg>
