<svg id="startup" xmlns="http://www.w3.org/2000/svg" width="72" height="72" viewBox="0 0 72 72">
  <g id="Group_18" data-name="Group 18" transform="translate(33.158 12.658)">
    <g id="Group_17" data-name="Group 17">
      <circle id="Ellipse_6" data-name="Ellipse 6" cx="2.842" cy="2.842" r="2.842" fill="#9e3bbc"/>
    </g>
  </g>
  <g id="Group_20" data-name="Group 20">
    <g id="Group_19" data-name="Group 19">
      <path id="Path_15" data-name="Path 15" d="M69.891,59.344H67.781V27.7a6.335,6.335,0,0,0-6.328-6.328H52.869a10.565,10.565,0,0,0-6.322-4.007V15.9a17.62,17.62,0,0,0-9.6-15.68,2.11,2.11,0,0,0-1.887,0,17.62,17.62,0,0,0-9.6,15.68v1.466a10.565,10.565,0,0,0-6.322,4.007H10.547A6.335,6.335,0,0,0,4.219,27.7V59.344H2.109A2.109,2.109,0,0,0,0,61.453,10.559,10.559,0,0,0,10.547,72H61.453A10.559,10.559,0,0,0,72,61.453,2.109,2.109,0,0,0,69.891,59.344ZM46.547,21.736A6.339,6.339,0,0,1,50.766,27.7v3.345l-4.219-4.219Zm-1.563,9.5,6.4,6.4a2.109,2.109,0,0,0,3.6-1.491V27.7a10.555,10.555,0,0,0-.212-2.109h6.681A2.112,2.112,0,0,1,63.563,27.7V59.344H59.2a8.444,8.444,0,0,0-9.551-8.362,8.443,8.443,0,0,0-6.419-4.245L42.37,36.546ZM32,50.565a2.11,2.11,0,0,0,.806-1.486l.917-10.829h4.561L39.2,49.079a2.109,2.109,0,0,0,2.444,1.9,4.393,4.393,0,0,1,.687-.076,4.214,4.214,0,0,1,4.048,3.123A2.11,2.11,0,0,0,49.2,55.436a4.212,4.212,0,0,1,5.786,3.908H17.016A4.211,4.211,0,0,1,22.8,55.436a2.11,2.11,0,0,0,2.822-1.407,4.167,4.167,0,0,1,4.735-3.047A2.111,2.111,0,0,0,32,50.565ZM30.951,29.672h10.1l-2.144,4.359H33.095ZM29.672,15.9A13.412,13.412,0,0,1,36,4.519,13.411,13.411,0,0,1,42.328,15.9v9.551H29.672ZM21.234,27.7a6.339,6.339,0,0,1,4.219-5.967v5.093l-4.219,4.219Zm-12.8,0a2.124,2.124,0,0,1,2.109-2.123h6.681a10.7,10.7,0,0,0-.212,2.123v8.437a2.109,2.109,0,0,0,3.6,1.491l6.4-6.4,2.614,5.314-.863,10.191a8.444,8.444,0,0,0-6.419,4.245A8.445,8.445,0,0,0,12.8,59.344H8.438ZM61.453,67.781H10.547A6.352,6.352,0,0,1,4.58,63.548H67.42A6.351,6.351,0,0,1,61.453,67.781Z" transform="translate(0 0)" fill="#9e3bbc"/>
    </g>
  </g>
</svg>
