<svg xmlns="http://www.w3.org/2000/svg" width="677.597" height="680.592" viewBox="0 0 677.597 680.592">
  <g id="digi_mar" transform="translate(-27.5 -23.89)">
    <g id="freepik--background-complete--inject-78" transform="translate(58.734 23.89)">
      <path id="Path_6209" data-name="Path 6209" d="M154.273,162.3h0a52.223,52.223,0,0,1-52.223-52.223h0A52.223,52.223,0,0,1,154.273,57.85h0A52.223,52.223,0,0,1,206.5,110.073h0A52.223,52.223,0,0,1,154.273,162.3Z" transform="translate(-19.645 -6.084)" fill="#7c4dff"/>
      <rect id="Rectangle_515" data-name="Rectangle 515" width="10.807" height="34.922" transform="translate(110.94 92.359)" fill="#fff"/>
      <path id="Path_6210" data-name="Path 6210" d="M126.477,85.916a6.448,6.448,0,1,0-6.387-6.448,6.448,6.448,0,0,0,6.387,6.448Z" transform="translate(-10.187 1.87)" fill="#fff"/>
      <path id="Path_6211" data-name="Path 6211" d="M142.771,101.432c0-4.908,2.256-7.835,6.585-7.835,3.963,0,5.884,2.8,5.884,7.835v18.292h10.746V97.652c0-9.359-5.289-13.871-12.7-13.871a12.2,12.2,0,0,0-10.518,5.762V84.847H132.39v34.907h10.381Z" transform="translate(-3.737 7.511)" fill="#fff"/>
      <path id="Path_6212" data-name="Path 6212" d="M189.178,23.89l7.149,13.063,13.079,7.164-13.079,7.149L189.178,64.33l-7.149-13.063L168.95,44.118l13.079-7.164Z" transform="translate(15.432 -23.89)" fill="#f5f5f5"/>
      <path id="Path_6213" data-name="Path 6213" d="M383.087,256.27l5.366,9.817,9.8,5.35-9.8,5.366-5.366,9.817-5.366-9.817-9.8-5.366,9.8-5.35Z" transform="translate(119.756 97.952)" fill="#ebebeb"/>
      <path id="Path_6214" data-name="Path 6214" d="M390.174,224.51l2.424,4.421,4.421,2.424-4.421,2.424-2.424,4.421-2.408-4.421-4.436-2.424,4.436-2.424Z" transform="translate(127.836 81.3)" fill="#e0e0e0"/>
      <path id="Path_6215" data-name="Path 6215" d="M151.064,27.11l2.424,4.436,4.421,2.408-4.421,2.424L151.064,40.8l-2.408-4.421-4.436-2.424,4.436-2.408Z" transform="translate(2.465 -22.202)" fill="#e0e0e0"/>
      <path id="Path_6216" data-name="Path 6216" d="M80.214,307.231a15.838,15.838,0,0,0,9.237-14.755c0-8.734-6.783-15.746-14.969-15.685S59.727,284,59.8,292.735a15.762,15.762,0,0,0,9.634,14.634c-22.773,3.734-21.432,28.52-21.432,28.52l53.946-.457S102.881,310.356,80.214,307.231Z" transform="translate(-47.99 108.711)" fill="#e0e0e0"/>
      <path id="Path_6217" data-name="Path 6217" d="M420.075,406.278a8.4,8.4,0,0,0-16.569.488,8.4,8.4,0,0,0-16.569-.4,11.326,11.326,0,0,0,2.043,8.186,33.273,33.273,0,0,0,5.914,6.25c3.049,2.7,5.808,5.213,8.826,7.9,3.049-2.713,5.533-5.259,8.521-7.972a32.916,32.916,0,0,0,5.869-6.311,11.356,11.356,0,0,0,1.966-8.14Z" transform="translate(129.671 173.041)" fill="#ebebeb"/>
      <path id="Path_6218" data-name="Path 6218" d="M431.69,204.466l5.777-1.143,9.146-20.091-2.286-11.539s8.826-2.317,10.777,13,2.317,11.25,2.317,11.25,18.978-3.689,20.883-2.363c1.387.976,5.64,19.725,7.866,29.907a11.265,11.265,0,0,1-5.625,12.7,7.91,7.91,0,0,1-2,.671c-4.725.945-29.663,1.89-29.663,1.89L438.9,240.73Z" transform="translate(153.192 53.541)" fill="#e0e0e0"/>
      <path id="Path_6219" data-name="Path 6219" d="M420.42,193.86l11.387,38.84,9.908-1.966L434.032,192Z" transform="translate(147.283 64.254)" fill="#e0e0e0"/>
    </g>
    <g id="freepik--Floor--inject-78" transform="translate(27.5 702.473)">
      <path id="Path_6220" data-name="Path 6220" d="M702.729,469.456c0,.229-151.167.4-337.592.4s-337.638-.168-337.638-.4,151.137-.4,337.638-.4S702.729,469.243,702.729,469.456Z" transform="translate(-27.5 -469.06)" fill="#263238"/>
    </g>
    <g id="freepik--Icons--inject-78" transform="translate(59.145 149.004)">
      <path id="Path_6221" data-name="Path 6221" d="M424.055,223.618h0a61.949,61.949,0,0,1-82.786-28.612h0a61.948,61.948,0,0,1,28.611-82.786h0a61.933,61.933,0,0,1,82.786,28.612h0a61.933,61.933,0,0,1-28.612,82.786Z" transform="translate(102.096 -105.968)" fill="#f33058"/>
      <path id="Path_6222" data-name="Path 6222" d="M371.516,173.141a1.524,1.524,0,0,0,1.448-1.875c-.152-.747-.564-2.637-.716-3.414a2.071,2.071,0,0,0-1.524-1.86,12.2,12.2,0,0,1-6.1-6.234c-4.664-9.6-1.661-21.691,9.862-27.285,10.2-4.969,18.841-1.524,22.865,6.859,5.32,10.96,4.969,22.56-2.226,26.066a6.539,6.539,0,0,1-9.558-4.405c-1.189-5.366-1.524-11.631-3.2-15.106-1.524-3.049-4.451-4.893-7.9-3.216-4.07,1.982-5.289,7.774-2.546,13.4a16.281,16.281,0,0,0,4.131,5.427s4.421,19.633,5.183,23.078c1.524,6.844,6.433,13.719,6.905,14.5a.579.579,0,0,0,1.021-.229c.137-.671,2.073-8.993.808-15.761-.351-1.921-2.408-11.753-2.408-11.753,2.546,1.875,7.484,2.226,11.585.229,12.195-5.945,15.091-21.112,7.835-36.02-5.472-11.265-20.136-17.118-34.633-10.061-18.063,8.78-20.868,26.142-15.624,36.934C359.9,168.949,365.16,173.614,371.516,173.141Z" transform="translate(112.243 -97.349)" fill="#fff"/>
      <path id="Path_6223" data-name="Path 6223" d="M443.45,326.183h0a42.681,42.681,0,0,1-24.648-55.15h0a42.681,42.681,0,0,1,55.135-24.664h0a42.681,42.681,0,0,1,24.648,55.15h0a42.681,42.681,0,0,1-55.135,24.664Z" transform="translate(144.542 -33.83)" fill="#7c4dff"/>
      <path id="Path_6224" data-name="Path 6224" d="M476.713,286.8a23,23,0,0,0-42.788-16.768c-.137.3-.259.625-.381.93a22.591,22.591,0,0,0-1.128,12.195l-8.247,9.954,13.353.762a23,23,0,0,0,38.992-6.494,5.542,5.542,0,0,0,.2-.579Zm-28.535,10.259a19.206,19.206,0,0,1-8.8-6.768l-7.789-.442,4.8-5.792a19.008,19.008,0,0,1,.564-11.829c.229-.579.488-1.159.762-1.707a19.344,19.344,0,0,1,35.852,14.085c-.137.488-.29.96-.472,1.433A19.283,19.283,0,0,1,448.178,297.059Z" transform="translate(148.838 -27.099)" fill="#fff" fill-rule="evenodd"/>
      <path id="Path_6225" data-name="Path 6225" d="M455.748,283.705c-.442-.457-2.53-2.713-2.957-3.049s-.732-.579-1.28-.183-2.027,1.174-2.454,1.4-.762.152-1.189-.3a15.381,15.381,0,0,1-3.247-4.222,16.772,16.772,0,0,1-1.524-4.725c-.091-.64.274-.823.64-.976s.762-.412,1.143-.61l.29-.183a5.377,5.377,0,0,0,.564-.5.991.991,0,0,0,.32-.93c0-.3-.107-3.292-.152-4.5s-.549-1.2-.854-1.326-.64-.3-.991-.427a2.088,2.088,0,0,0-1.662.107,6.341,6.341,0,0,0-3.506,3.674,7.108,7.108,0,0,0-.412,1.875,12.591,12.591,0,0,0,.5,4.344c.137.442,1.433,7.18,5.975,11.326s4.832,3.445,5.838,3.719a5.594,5.594,0,0,0,4.573-1.128,4.573,4.573,0,0,0,1.265-2.363A6.882,6.882,0,0,0,455.748,283.705Z" transform="translate(156.328 -23.607)" fill="#fff" fill-rule="evenodd"/>
      <path id="Path_6226" data-name="Path 6226" d="M80.835,190.65h0A32.575,32.575,0,0,1,48.26,158.075h0A32.575,32.575,0,0,1,80.835,125.5h0a32.575,32.575,0,0,1,32.575,32.575h0A32.575,32.575,0,0,1,80.835,190.65Z" transform="translate(-48.26 -95.727)" fill="#7c4dff"/>
      <path id="Path_6227" data-name="Path 6227" d="M58.25,162.595a20.273,20.273,0,0,0,31.157-17.987,14.6,14.6,0,0,0,3.521-3.643,14.71,14.71,0,0,1-4.1,1.128A7.164,7.164,0,0,0,92,138.206a13.932,13.932,0,0,1-4.573,1.723,7.134,7.134,0,0,0-12.195,6.509,20.258,20.258,0,0,1-14.679-7.454,7.149,7.149,0,0,0,2.21,9.512,7.012,7.012,0,0,1-3.232-.884,7.134,7.134,0,0,0,5.716,7.073,7.118,7.118,0,0,1-3.216.122,7.134,7.134,0,0,0,6.646,4.939A14.313,14.313,0,0,1,58.25,162.595Z" transform="translate(-43.022 -89.379)" fill="#fff"/>
      <path id="Path_6228" data-name="Path 6228" d="M131.754,445.687h0a56.1,56.1,0,0,1-67.527-41.568h0A56.1,56.1,0,0,1,105.84,336.53h0A56.1,56.1,0,0,1,173.413,378.1h0a56.1,56.1,0,0,1-41.66,67.589Z" transform="translate(-40.691 14.112)" fill="#f33058"/>
      <path id="Path_6229" data-name="Path 6229" d="M105.059,358.676c7.987-1.905,8.948-2.1,12.195-2.713a17.042,17.042,0,0,1,5.792-.29,9.59,9.59,0,0,1,3.978,1.418A9.8,9.8,0,0,1,130.073,360a17.1,17.1,0,0,1,2.347,5.3c.9,3.125,1.159,4.07,3.049,12.057s2.088,8.948,2.7,12.195a16.646,16.646,0,0,1,.29,5.792,9.146,9.146,0,0,1-1.418,3.978,9.588,9.588,0,0,1-2.9,3.049,17.238,17.238,0,0,1-5.32,2.348c-3.049.9-4.055,1.158-12.042,3.049s-8.948,2.1-12.195,2.713a16.768,16.768,0,0,1-5.808.29,9.451,9.451,0,0,1-3.979-1.418,9.267,9.267,0,0,1-2.957-3,16.861,16.861,0,0,1-2.363-5.3c-.884-3.125-1.143-4.055-3.049-12.042s-2.1-8.948-2.713-12.195a17.56,17.56,0,0,1-.29-5.808,10.122,10.122,0,0,1,4.329-7.027,17.027,17.027,0,0,1,5.3-2.363c3.049-.884,4.07-1.143,12.057-3.049m-1.28-5.4c-8.125,1.936-9.146,2.21-12.3,3.125a22.283,22.283,0,0,0-6.936,3.049,15.792,15.792,0,0,0-6.661,10.823,22.636,22.636,0,0,0,.335,7.622c.625,3.216.823,4.253,2.759,12.378s2.21,9.146,3.049,12.286a22.117,22.117,0,0,0,3.049,6.936,15.106,15.106,0,0,0,4.8,4.588,14.938,14.938,0,0,0,6.1,2.18,22.543,22.543,0,0,0,7.622-.335c3.216-.61,4.253-.823,12.378-2.759s9.146-2.21,12.286-3.049a22.863,22.863,0,0,0,6.936-3.049,15.105,15.105,0,0,0,4.482-4.71,15.349,15.349,0,0,0,2.2-6.1,22.622,22.622,0,0,0-.351-7.622c-.61-3.232-.823-4.253-2.759-12.377s-2.21-9.146-3.049-12.3a23.018,23.018,0,0,0-3.049-6.936,15.061,15.061,0,0,0-4.71-4.466,14.832,14.832,0,0,0-6.1-2.195,22.546,22.546,0,0,0-7.622.335c-3.232.625-4.253.823-12.378,2.759" transform="translate(-32.791 22.026)" fill="#fff"/>
      <path id="Path_6230" data-name="Path 6230" d="M101.274,361.878A15.792,15.792,0,1,0,120.3,373.585a15.792,15.792,0,0,0-19.024-11.707m6.1,25.349a10.259,10.259,0,1,1,6.375-4.6,10.259,10.259,0,0,1-6.375,4.6" transform="translate(-26.826 27.985)" fill="#fff"/>
      <path id="Path_6231" data-name="Path 6231" d="M112.344,359.26a3.674,3.674,0,1,1-1.652-2.3,3.689,3.689,0,0,1,1.652,2.3" transform="translate(-18.477 25.345)" fill="#fff"/>
      <path id="Path_6232" data-name="Path 6232" d="M395.813,393.215h0a26.157,26.157,0,0,1-26.173-26.157h0A26.157,26.157,0,0,1,395.813,340.9h0a26.157,26.157,0,0,1,26.2,26.157h0a26.158,26.158,0,0,1-26.2,26.157Z" transform="translate(120.247 17.212)" fill="#7c4dff"/>
      <path id="Path_6233" data-name="Path 6233" d="M385.338,379.294h6.372V363.4h4.436l.488-5.335H391.71v-3.049c0-1.25.259-1.753,1.524-1.753h3.46V347.71h-4.421c-4.741,0-6.875,2.088-6.875,6.1v4.268H382v5.32h3.308Z" transform="translate(126.728 20.782)" fill="#fff"/>
    </g>
    <g id="freepik--Device--inject-78" transform="translate(230.052 85.518)">
      <path id="Path_6234" data-name="Path 6234" d="M416.3,682.784l-210.189-.076a45.73,45.73,0,0,1-45.73-45.73l.091-526.928a45.73,45.73,0,0,1,45.821-45.73l210.174.122a45.73,45.73,0,0,1,45.73,45.73L462.1,636.978A45.73,45.73,0,0,1,416.3,682.784Z" transform="translate(-160.38 -64.32)" fill="#f0f0f0" stroke="#707070" stroke-width="1"/>
      <path id="Path_6235" data-name="Path 6235" d="M411.461,76.557H370.7a10.137,10.137,0,0,0-9.893,10.3v7.393a10.106,10.106,0,0,1-9.893,10.335H271.482a10.122,10.122,0,0,1-9.893-10.35V86.8A10.152,10.152,0,0,0,251.7,76.45H201.684A32.011,32.011,0,0,0,169.6,108.461l-.107,514.322A32.011,32.011,0,0,0,201.5,654.793l209.777.122A32.011,32.011,0,0,0,443.289,622.9l.107-514.337A32.011,32.011,0,0,0,411.461,76.557Z" transform="translate(-155.603 -57.96)" fill="#fff" stroke="#707070" stroke-width="0.5"/>
      <path id="Path_6236" data-name="Path 6236" d="M338.383,103.988c0,.137-5.3.29-11.829.335s-11.844,0-11.844-.137,5.289-.3,11.829-.351S338.383,103.85,338.383,103.988Z" transform="translate(-79.461 -43.609)" fill="#263238"/>
      <path id="Path_6237" data-name="Path 6237" d="M338.413,107.96c0,.137-5.289.29-11.829.351s-11.844,0-11.844-.152,5.3-.29,11.844-.351S338.413,107.823,338.413,107.96Z" transform="translate(-79.446 -41.53)" fill="#263238"/>
      <path id="Path_6238" data-name="Path 6238" d="M338.458,111.93c0,.137-5.3.3-11.844.351s-11.829,0-11.844-.152,5.3-.29,11.844-.351S338.458,111.793,338.458,111.93Z" transform="translate(-79.43 -39.448)" fill="#263238"/>
      <path id="Path_6239" data-name="Path 6239" d="M184.005,124.205h2.347l6.372-.152-.183.168c0-1.4,0-2.942-.076-4.573V117a2.454,2.454,0,0,1,2.134-1.966h3.049a2.485,2.485,0,0,1,2.088,2.454c0,2.165,0,4.405.076,6.737l-.29-.29h8.033l-.3.3c0-3.232,0-6.585-.091-10.015v-2.546a2.546,2.546,0,0,0-1.128-1.89l-3.506-3.475-3.4-3.338-1.631-1.616c-.564-.549-1.006-1.113-1.661-1.25a2.18,2.18,0,0,0-1.844.351c-.488.412-1.006.991-1.524,1.524l-2.9,2.911c-1.814,1.875-3.7,3.6-5.076,5.228a5.732,5.732,0,0,0-.4,3.049v10.3a8.452,8.452,0,0,1,0,1.052,8.661,8.661,0,0,1,0-.96v-2.881c0-1.143,0-2.85-.107-4.573v-4.421a3.323,3.323,0,0,1,.442-1.677c1.524-1.814,3.262-3.43,5.091-5.366l2.866-2.942c.518-.5.93-1.006,1.524-1.524a2.729,2.729,0,0,1,2.332-.473,4.466,4.466,0,0,1,1.936,1.387l1.646,1.616,3.4,3.338,3.521,3.445a7.026,7.026,0,0,1,.9.976,2.637,2.637,0,0,1,.427,1.357v2.561c0,3.43,0,6.783.076,10.015v.3h-8.9v-7.027a1.936,1.936,0,0,0-1.616-1.951h-2.927a1.966,1.966,0,0,0-1.722,1.524v7.317H184.63a3.489,3.489,0,0,1-.625-.366Z" transform="translate(-148.001 -45.809)" fill="#263238"/>
      <path id="Path_6240" data-name="Path 6240" d="M294.285,379.546a12.742,12.742,0,0,1-2.21.152l-6.006.122c-5.061.076-12.073.122-19.816.122s-14.755,0-19.816-.122l-6.006-.122a12.962,12.962,0,0,1-2.21-.152,11.221,11.221,0,0,1,2.21-.152l6.006-.137c5.061,0,12.073-.107,19.816-.107s14.74,0,19.816.107l6.006.137A11.056,11.056,0,0,1,294.285,379.546Z" transform="translate(-119.567 100.753)" fill="#455a64"/>
      <path id="Path_6241" data-name="Path 6241" d="M382.35,388.586c0,.229-32.27.4-72.07.4s-72.07-.168-72.07-.4,32.27-.4,72.07-.4S382.35,388.373,382.35,388.586Z" transform="translate(-119.572 105.493)" fill="#455a64"/>
      <path id="Path_6242" data-name="Path 6242" d="M337.306,397.136c0,.229-22.179.4-49.54.4s-49.556-.168-49.556-.4,22.179-.4,49.556-.4S337.306,396.862,337.306,397.136Z" transform="translate(-119.572 109.976)" fill="#455a64"/>
      <path id="Path_6243" data-name="Path 6243" d="M337.65,418.039l-4.482-4.5L328.9,417.8V404.93h8.734Zm-4.482-5.061.137.137,3.948,3.963V405.342h-7.942V416.85Z" transform="translate(-72.021 114.27)" fill="#263238"/>
      <path id="Path_6244" data-name="Path 6244" d="M258.986,415.377l-1.524-.7a4.039,4.039,0,1,1,1.219-.884Zm-3.674-8.567a4.1,4.1,0,0,0,.076,8.186,4.36,4.36,0,0,0,1.966-.625h0l1.174.518-.274-1.143h0a4.085,4.085,0,0,0-3.049-6.844Z" transform="translate(-112.605 115.255)" fill="#263238"/>
      <path id="Path_6245" data-name="Path 6245" d="M264.858,414.569l-1.8-4.421-3.4-3.049h8.231Zm-4.436-7.21,2.9,2.652,1.524,3.765,2.591-6.478Z" transform="translate(-108.325 115.408)" fill="#263238"/>
      <rect id="Rectangle_516" data-name="Rectangle 516" width="5.366" height="0.305" transform="translate(154.894 525.332) rotate(-33.05)" fill="#263238"/>
      <path id="Path_6246" data-name="Path 6246" d="M251.366,408.359a2.546,2.546,0,0,0-5.015.168,2.546,2.546,0,0,0-5.03-.091,3.46,3.46,0,0,0,.625,2.485,10.059,10.059,0,0,0,1.8,1.89c.93.808,1.768,1.524,2.683,2.378.915-.823,1.677-1.6,2.591-2.424a10.062,10.062,0,0,0,1.768-1.921A3.384,3.384,0,0,0,251.366,408.359Z" transform="translate(-117.957 115.002)" fill="#7c4dff"/>
      <path id="Path_6247" data-name="Path 6247" d="M424.6,449.224v-5.609c0-3.674,0-9.146-.076-16.1,0-14.009-.076-34.389-.137-59.952l.259.259-243.755.137h0l.4-.4v81.658l-.381-.381,174.428.168,50.912.107h.229l-50.836.107-174.687.183h-.4V367.17h.427l243.755.137H425v.259c0,25.624-.107,46.065-.137,60.119v20.152A2.945,2.945,0,0,1,424.6,449.224Z" transform="translate(-149.799 94.471)" fill="#263238"/>
      <rect id="Rectangle_517" data-name="Rectangle 517" width="53.992" height="67.528" transform="matrix(0.006, -1, 1, 0.006, 40.878, 529.682)" fill="#ebebeb"/>
      <path id="Path_6248" data-name="Path 6248" d="M255.232,376.914H236.391l-48.778-.107.366-.351c-.076,16.082-.168,34.5-.259,53.976.076.107-.747-.747-.4-.4h18.368l17.53.107,31.614.229-.32.335c.152-16.219.29-29.663.4-39.114,0-4.695.107-8.384.137-10.96v50.394h-.335l-31.614-.122-17.53-.091H187.2l-.412-.412c.137-19.5.244-37.91.351-53.976v-.366h.366l48.931.442,13.719.183h4.527Z" transform="translate(-146.533 99.133)" fill="#263238"/>
      <rect id="Rectangle_518" data-name="Rectangle 518" width="47.193" height="62.787" transform="matrix(0.006, -1, 1, 0.006, 43.229, 526.297)" fill="#e0e0e0"/>
      <path id="Path_6249" data-name="Path 6249" d="M188.72,419.606l22.1-29.206L224.3,408.829l9.268-9.756,17.941,20.9Z" transform="translate(-145.521 106.651)" fill="#f5f5f5"/>
      <path id="Path_6250" data-name="Path 6250" d="M219.338,389.829a4.939,4.939,0,1,1-1.43-3.507A4.954,4.954,0,0,1,219.338,389.829Z" transform="translate(-134.662 103.746)" fill="#f5f5f5"/>
      <path id="Path_6251" data-name="Path 6251" d="M286.513,146.98a2.195,2.195,0,0,1-.732,0l-2.058.076-7.622.137c-6.417,0-15.243.107-25.09.107s-18.673,0-25.09-.107l-7.622-.137-2.073-.076a2.043,2.043,0,0,1-.716,0,2.653,2.653,0,0,1,.716-.076H218.3l7.622-.122c6.417-.076,15.243-.122,25.09-.122s18.673,0,25.09.122l7.622.122h2.058A2.85,2.85,0,0,1,286.513,146.98Z" transform="translate(-131.474 -21.147)" fill="#263238"/>
      <path id="Path_6252" data-name="Path 6252" d="M332,349.346l-6.646-6.677L319,348.995V329.88h12.987Zm-6.646-7.5.2.2,5.869,5.884V330.49H319.595v17.1Z" transform="translate(-77.212 74.919)" fill="#263238"/>
      <path id="Path_6253" data-name="Path 6253" d="M221.916,347.124l-3.049-1.387a7.866,7.866,0,1,1,2.393-1.723Zm-7.271-16.844a8.049,8.049,0,1,0,.137,16.1,8.368,8.368,0,0,0,3.872-1.219l.137-.076,2.286,1.021-.518-2.256.107-.107a8.033,8.033,0,0,0-6.021-13.46Z" transform="translate(-136.112 75.129)" fill="#263238"/>
      <path id="Path_6254" data-name="Path 6254" d="M233.313,345.593l-3.567-8.7-6.677-6.1,16.219-.122Zm-8.734-14.222,5.7,5.228,3.049,7.408,5.091-12.743Z" transform="translate(-127.51 75.333)" fill="#263238"/>
      <rect id="Rectangle_519" data-name="Rectangle 519" width="10.548" height="0.594" transform="translate(102.612 411.727) rotate(-33.05)" fill="#263238"/>
      <path id="Path_6255" data-name="Path 6255" d="M206.756,333.391a5.015,5.015,0,0,0-9.893.32,5.015,5.015,0,0,0-9.893-.168,6.783,6.783,0,0,0,1.235,4.878,20.592,20.592,0,0,0,3.552,3.735c1.814,1.524,3.475,3.049,5.289,4.68,1.768-1.616,3.293-3.14,5.076-4.771a20.53,20.53,0,0,0,3.491-3.78A6.8,6.8,0,0,0,206.756,333.391Z" transform="translate(-146.469 74.64)" fill="#7c4dff"/>
      <circle id="Ellipse_296" data-name="Ellipse 296" cx="11.006" cy="11.006" r="11.006" transform="translate(47.803 114.827)" fill="#ebebeb"/>
      <path id="Path_6256" data-name="Path 6256" d="M395.683,301.386c0,.229-46.126.412-103.014.412s-103.029-.183-103.029-.412,46.126-.4,103.029-.4S395.683,301.173,395.683,301.386Z" transform="translate(-145.038 59.772)" fill="#455a64"/>
      <path id="Path_6257" data-name="Path 6257" d="M395.683,290.136c0,.213-46.126.4-103.014.4s-103.029-.183-103.029-.4,46.126-.4,103.029-.4S395.683,289.923,395.683,290.136Z" transform="translate(-145.038 53.873)" fill="#455a64"/>
      <path id="Path_6258" data-name="Path 6258" d="M301.784,312.8c0,.213-25.106.4-56.065.4s-56.08-.183-56.08-.4,25.106-.4,56.08-.4S301.784,312.583,301.784,312.8Z" transform="translate(-145.038 65.754)" fill="#455a64"/>
      <path id="Path_6259" data-name="Path 6259" d="M257.16,436.826a4.405,4.405,0,1,1-1.252-3.138,4.39,4.39,0,0,1,1.252,3.138Z" transform="translate(-114.239 128.652)" fill="#263238"/>
      <path id="Path_6260" data-name="Path 6260" d="M266.009,436.866a4.39,4.39,0,1,1-1.248-3.143,4.375,4.375,0,0,1,1.248,3.143Z" transform="translate(-109.583 128.673)" fill="#263238"/>
      <path id="Path_6261" data-name="Path 6261" d="M274.939,436.906a4.405,4.405,0,1,1-1.252-3.138A4.375,4.375,0,0,1,274.939,436.906Z" transform="translate(-104.901 128.694)" fill="#263238"/>
      <rect id="Rectangle_520" data-name="Rectangle 520" width="243.785" height="149.079" transform="translate(32.483 147.6)" fill="#e0e0e0"/>
      <path id="Path_6262" data-name="Path 6262" d="M196.46,291.142l69.844-93.5,43.321,58.473,29.343-31.279,57.574,66.247Z" transform="translate(-141.462 5.583)" fill="#f5f5f5"/>
      <path id="Path_6263" data-name="Path 6263" d="M293.583,195.526a15.761,15.761,0,1,1-15.761-15.746A15.762,15.762,0,0,1,293.583,195.526Z" transform="translate(-107.067 -3.782)" fill="#f5f5f5"/>
      <path id="Path_6264" data-name="Path 6264" d="M425.15,466c0-3.186-.152-137.86-.366-337.241l.366.366H181.4l.4-.4V465.968l-.335-.32,243.785.32-243.785.335h-.32v-.335c0-94.4,0-211.119-.076-337.241v-.4H425.607v.351c-.076,99.8-.137,184.138-.183,243.556,0,29.663-.076,53.092-.091,69.128v22.987A6.007,6.007,0,0,1,425.15,466Z" transform="translate(-149.537 -30.758)" fill="#263238"/>
    </g>
    <g id="freepik--Megaphone--inject-78" transform="translate(130.45 175.062)">
      <path id="Path_6265" data-name="Path 6265" d="M299.95,405.774l5.4-18.124c.945-3.933,2.2-8.567,3.872-13.856,1.524-4.756,5.4-9.756,8.932-13.353,5.5-5.594,8.125-5.625,11.813-8.6.335-.213.716-.534,1.037-.7a5.806,5.806,0,0,0,1.8-1.524c3.186-3.445.122-8.8-6.356-8.277-4.863.381-12.82,1.768-25.746,15.106-.168.213-.335.381-.488.579-6.783,8.826-13.155-16.356-14.313-25.731a9.8,9.8,0,0,0-13.277-7.622L241.126,338.4a14.74,14.74,0,0,0-9.146.3,9.39,9.39,0,0,0-6.006,11.112l12.789,50.928L201.25,525.586h80.865Z" transform="translate(-39.349 -18.235)" fill="#ffbe9d"/>
      <path id="Path_6266" data-name="Path 6266" d="M355.609,308.12l-25,48.992-12.5-3.475-62.8,51.111a12.713,12.713,0,0,1-17.667-1.524L213.71,375.434s48.245-20.776,57.162-37.971-1.387-21.112-1.387-21.112l22.7-25.792Z" transform="translate(-32.816 -35.24)" fill="#7c4dff"/>
      <path id="Path_6267" data-name="Path 6267" d="M385.409,295.886s-36.584-8.094-88.091-57.6S221.636,122.967,215.4,123.333s-33.825-12.454-86.17,101.4S97.51,364.969,107.891,364.816s81.124-19.923,125.3-14.908,100.956,28.048,100.956,28.048Z" transform="translate(-95.038 -123.063)" fill="#7c4dff"/>
      <path id="Path_6268" data-name="Path 6268" d="M383.6,305.862,371.12,329.6l-5.594,10.67a30.974,30.974,0,0,1-40.379,13.719L246.72,326.654,292.45,222.39l78.35,41.751a30.974,30.974,0,0,1,12.8,41.721Z" transform="translate(-15.508 -70.983)" fill="#7c4dff"/>
      <g id="Group_224" data-name="Group 224" transform="translate(231.212 151.407)" opacity="0.4">
        <path id="Path_6269" data-name="Path 6269" d="M383.6,305.862,371.12,329.6l-5.594,10.67a30.974,30.974,0,0,1-40.379,13.719L246.72,326.654,292.45,222.39l78.35,41.751a30.974,30.974,0,0,1,12.8,41.721Z" transform="translate(-246.72 -222.39)"/>
      </g>
      <path id="Path_6270" data-name="Path 6270" d="M131.068,225.917c-27.849,61.674-39.449,116.641-25.913,122.754s47.117-38.916,74.966-100.605,39.449-116.626,25.913-122.754S158.918,164.243,131.068,225.917Z" transform="translate(-92.698 -122.176)" fill="#7c4dff"/>
      <g id="Group_225" data-name="Group 225" transform="translate(6.802 2.578)" opacity="0.5">
        <path id="Path_6271" data-name="Path 6271" d="M131.068,225.917c-27.849,61.674-39.449,116.641-25.913,122.754s47.117-38.916,74.966-100.605,39.449-116.626,25.913-122.754S158.918,164.243,131.068,225.917Z" transform="translate(-99.501 -124.754)"/>
      </g>
      <path id="Path_6272" data-name="Path 6272" d="M348.254,310.545l-21.264-6.677,13.155-25,15.944,9.908Z" transform="translate(26.579 -41.37)" fill="#7c4dff"/>
      <g id="Group_226" data-name="Group 226" transform="translate(353.569 237.5)" opacity="0.6">
        <path id="Path_6273" data-name="Path 6273" d="M340.145,278.87l-13.155,25,4.375,1.372,10.685-25.2Z" transform="translate(-326.99 -278.87)"/>
      </g>
      <path id="Path_6274" data-name="Path 6274" d="M341.915,289.848c-.3.686-10.914-3.43-23.688-9.146S295.362,269.682,295.652,269s10.914,3.445,23.7,9.222S342.235,289.162,341.915,289.848Z" transform="translate(10.145 -46.586)" fill="#7c4dff"/>
      <path id="Path_6275" data-name="Path 6275" d="M344.638,279.969c-.335.671-9.939-3.369-21.447-9.039s-20.563-10.807-20.228-11.493,9.923,3.369,21.432,9.039S344.973,279.283,344.638,279.969Z" transform="translate(13.977 -51.599)" fill="#7c4dff"/>
      <path id="Path_6276" data-name="Path 6276" d="M335.11,299.393c-.107.366-2.637-.213-6.661-1.524-2.012-.625-4.405-1.418-7.042-2.317s-5.335-2.332-8.247-3.658c-11.631-5.4-20.517-10.67-20.228-11.31s9.847,3.491,21.341,8.841c2.9,1.311,5.579,2.744,8.109,3.8s4.8,1.982,6.707,2.835C332.9,297.807,335.217,299.027,335.11,299.393Z" transform="translate(8.719 -40.506)" fill="#7c4dff"/>
      <path id="Path_6277" data-name="Path 6277" d="M176.1,183.684s-31.8-19.725-49.19,23.246,16.051,50.028,16.051,50.028A286.008,286.008,0,0,0,176.1,183.684Z" transform="translate(-80.953 -93.647)" fill="#7c4dff"/>
      <g id="Group_227" data-name="Group 227" transform="translate(37.791 38.82)" opacity="0.5">
        <path id="Path_6278" data-name="Path 6278" d="M211.015,148.53c.2,0-.259,2.957-1.235,8.216s-2.439,12.865-4.482,22.225l-4.421,15.045q-1.2,4.039-2.485,8.369l-1.3,4.375c-.473,1.524-1.1,2.911-1.646,4.39l-7.18,18.536c-.625,1.616-1.265,3.232-1.89,4.863s-1.524,3.186-2.241,4.8l-4.725,9.756-4.741,9.74c-.808,1.524-1.524,3.232-2.393,4.725s-1.783,3.049-2.652,4.5l-10.137,17.118c-.823,1.341-1.524,2.729-2.439,4.009l-2.637,3.735-5.061,7.134-9.146,12.759c-6.1,7.362-11.189,13.17-14.694,17.21a49.951,49.951,0,0,1-5.686,6.1,49.255,49.255,0,0,1,4.878-6.738c3.384-4.314,8.155-10.35,14.009-17.774l8.765-12.85,4.908-7.149c.854-1.219,1.707-2.469,2.576-3.735s1.524-2.652,2.363-4.009l10.015-17.1,2.607-4.482c.9-1.524,1.524-3.049,2.363-4.695l4.695-9.679c1.524-3.277,3.155-6.494,4.71-9.679.732-1.524,1.616-3.14,2.226-4.756l1.905-4.817,7.286-18.292c.564-1.524,1.2-2.881,1.692-4.344s.9-2.9,1.341-4.329l2.591-8.277,4.68-14.862,5.289-21.95a49.2,49.2,0,0,1,2.286-8.079Z" transform="translate(-119.83 -148.53)"/>
      </g>
      <g id="Group_228" data-name="Group 228" transform="translate(188.485 293.143)" opacity="0.4">
        <path id="Path_6279" data-name="Path 6279" d="M218.69,359.01c2.911,5.274,5.869,10.67,10.152,14.832s10.137,7.119,16.234,6.509,11.661-5.579,11.722-11.585c2.866,2.149,7.271.991,9.649-1.707s3.155-6.433,3.43-10.015c3.9,2.3,9.329.488,11.935-3.216a15.456,15.456,0,0,0,1.524-13.048,45.989,45.989,0,0,0-6.265-12c3.049.244,6.189.457,8.872-.9s4.573-4.924,2.942-7.484a7.362,7.362,0,0,0-4.375-2.789c-4.71-1.524-8-2.652-12.911-2.088-1.128,0,1.966,12.926-28.779,30.578C224.574,356.54,218.69,359.01,218.69,359.01Z" transform="translate(-218.69 -315.373)"/>
      </g>
      <path id="Path_6280" data-name="Path 6280" d="M274.848,356.452c0,.137-2.058-.259-5.381-.168a30.487,30.487,0,0,0-22.59,10.838c-2.149,2.53-3.049,4.375-3.247,4.3a4.7,4.7,0,0,1,.594-1.341,26.694,26.694,0,0,1,2.21-3.323,28.962,28.962,0,0,1,23.033-11.036,23.225,23.225,0,0,1,3.963.366,4.164,4.164,0,0,1,1.418.366Z" transform="translate(-17.128 -1.076)" fill="#eb996e"/>
      <path id="Path_6281" data-name="Path 6281" d="M220,347.9c4.954,4.756,8.338,10.015,13.536,14.8,2.363,2.18,6.1,6.3,9.146,6.844s5.183.137,6.433-2.82c1.021-2.393-.808-5.67-2.058-7.622-3.308-5.2-6.478-9.253-8.948-13.292-1.174-1.89.335-2.286.884-1.4,2.378,2.469,5.945,4.573,8.079,7.3,2.927,3.674,3.445,8.567,11.1,7.012A6.676,6.676,0,0,0,261,357.551c2.881-2.21,3.049-6.1,1.8-9.146a24.876,24.876,0,0,0-4.268-6.433c3.262,3.674,6.814,7.622,12,7.957a7.119,7.119,0,0,0,7.241-3.917c1.524-3.475-.655-6.844-2.866-9.558a100.116,100.116,0,0,0-13-13.292,9.954,9.954,0,0,0-6.311-2.332c-2.683,0-6.1.488-7.622,2.8a10.442,10.442,0,0,0-2.088,7.972s-6.707-3.4-12.1.152a17.164,17.164,0,0,0-6.737,9.695Z" transform="translate(-29.518 -19.369)" fill="#ffbe9d"/>
      <path id="Path_6282" data-name="Path 6282" d="M244.121,324.883a8.048,8.048,0,0,1-.945-9.146c1.143-2.241,2.576-4.421,4.039-4.908,6.387-2.149,34.312,2.683,34.053,8.872s-2.3,9.146-17.438,6.966c-2.668-.381-6.844-.9-6.844-.9l-3.658,5.488Z" transform="translate(-17.893 -24.885)" fill="#ffbe9d"/>
      <path id="Path_6283" data-name="Path 6283" d="M252.02,341.688a36.416,36.416,0,0,0-15.38-13.947,8.871,8.871,0,0,1,2.957,1.036,26.538,26.538,0,0,1,11.1,10.061A8.522,8.522,0,0,1,252.02,341.688Z" transform="translate(-20.793 -15.746)" fill="#eb996e"/>
      <path id="Path_6284" data-name="Path 6284" d="M252.972,326.275c-.137.122-1.982-1.372-4.5-2.911a32.7,32.7,0,0,0-3.262-1.814c-.869-.4-1.448-.5-1.433-.625s.655-.183,1.616.107a14.784,14.784,0,0,1,3.506,1.661C251.478,324.263,253.17,326.108,252.972,326.275Z" transform="translate(-17.05 -19.373)" fill="#eb996e"/>
      <path id="Path_6285" data-name="Path 6285" d="M256.276,321.9a11.935,11.935,0,0,1-5.381-.61,9.939,9.939,0,0,1-3.445-1.86c-.762-.655-1.082-1.189-1.006-1.265a22.863,22.863,0,0,0,4.68,2.317,40.1,40.1,0,0,1,5.152,1.418Z" transform="translate(-15.659 -20.764)" fill="#eb996e"/>
      <path id="Path_6286" data-name="Path 6286" d="M242.719,346.7a19.818,19.818,0,0,1-2.546-3.308,29.615,29.615,0,0,0-6.509-7.408,13.094,13.094,0,0,0-9.237-2.439,15.673,15.673,0,0,0-3.887,1.235,4.015,4.015,0,0,1,.9-.7,8.505,8.505,0,0,1,2.9-1.1,13.018,13.018,0,0,1,9.786,2.363,26.4,26.4,0,0,1,6.524,7.728A24.818,24.818,0,0,1,242.719,346.7Z" transform="translate(-29.235 -13.087)" fill="#eb996e"/>
      <path id="Path_6287" data-name="Path 6287" d="M256.981,382.42a85.347,85.347,0,0,1-11.4,1.631,82.657,82.657,0,0,1-11.509.854,85.88,85.88,0,0,1,11.417-1.631,85.367,85.367,0,0,1,11.493-.854Z" transform="translate(-22.141 12.924)" fill="#eb996e"/>
    </g>
    <g id="freepik--Stars--inject-78" transform="translate(59.831 63.446)">
      <path id="Path_6288" data-name="Path 6288" d="M408.3,49.84,410.025,53l3.14,1.722-3.14,1.722L408.3,59.58l-1.722-3.14-3.14-1.722L406.58,53Z" transform="translate(137.283 -49.84)" fill="#7c4dff"/>
      <path id="Path_6289" data-name="Path 6289" d="M431.918,101.01l1.722,3.155,3.14,1.722-3.14,1.722-1.722,3.14-1.722-3.14-3.155-1.722,3.155-1.722Z" transform="translate(149.657 -23.01)" fill="#7c4dff"/>
      <path id="Path_6290" data-name="Path 6290" d="M53.573,237.53l1.722,3.155,3.155,1.722L55.3,244.115l-1.722,3.155-1.722-3.155-3.14-1.707,3.14-1.722Z" transform="translate(-48.71 48.57)" fill="#7c4dff"/>
      <path id="Path_6291" data-name="Path 6291" d="M379.524,62.56l3.978,7.271,7.271,3.978L383.5,77.773l-3.978,7.271-3.963-7.271L368.29,73.81l7.271-3.978Z" transform="translate(118.853 -43.171)" fill="#7c4dff"/>
      <path id="Path_6292" data-name="Path 6292" d="M76.919,205.1l3.963,7.241,7.256,3.963-7.256,3.978-3.963,7.241-3.963-7.241L65.7,216.3l7.256-3.963Z" transform="translate(-39.802 31.566)" fill="#7c4dff"/>
      <path id="Path_6293" data-name="Path 6293" d="M440.519,318.56l3.963,7.256,7.24,3.963-7.24,3.963L440.519,341l-3.963-7.256-7.256-3.963,7.256-3.963Z" transform="translate(150.842 91.056)" fill="#7c4dff"/>
    </g>
  </g>
</svg>
