<svg xmlns="http://www.w3.org/2000/svg" xmlns:xlink="http://www.w3.org/1999/xlink" width="546.557" height="442" viewBox="0 0 546.557 442">
  <defs>
    <linearGradient id="linear-gradient" x1="0.501" y1="1" x2="0.501" gradientUnits="objectBoundingBox">
      <stop offset="0" stop-color="gray" stop-opacity="0.251"/>
      <stop offset="0.54" stop-color="gray" stop-opacity="0.122"/>
      <stop offset="1" stop-color="gray" stop-opacity="0.102"/>
    </linearGradient>
  </defs>
  <g id="digi" transform="translate(9.862 -756.44)">
    <path id="Path_3768" data-name="Path 3768" d="M6.608,0H539.949a6.812,6.812,0,0,1,6.608,7V336a6.812,6.812,0,0,1-6.608,7H6.608A6.812,6.812,0,0,1,0,336V7A6.812,6.812,0,0,1,6.608,0Z" transform="translate(-9.862 793)" fill="#dedede"/>
    <g id="undraw_mobile_marketing_iqbr" transform="translate(-83.305 685.003)">
      <g id="Group_192" data-name="Group 192" transform="translate(263.551 71.437)" opacity="0.9">
        <rect id="Rectangle_295" data-name="Rectangle 295" width="5.644" height="46.517" rx="2.29" transform="translate(187.686 87.046)" fill="#3a3768"/>
        <rect id="Rectangle_296" data-name="Rectangle 296" width="3.166" height="15.315" rx="1.583" transform="translate(0.115 50.607)" fill="#3a3768"/>
        <rect id="Rectangle_297" data-name="Rectangle 297" width="3.567" height="26.654" rx="1.784" transform="translate(0 78.643)" fill="#3a3768"/>
        <rect id="Rectangle_298" data-name="Rectangle 298" width="3.395" height="26.883" rx="1.698" transform="translate(0.057 114.623)" fill="#3a3768"/>
        <rect id="Rectangle_299" data-name="Rectangle 299" width="188.82" height="383.749" rx="38.99" transform="translate(1.911)" fill="#3a3768"/>
        <rect id="Rectangle_300" data-name="Rectangle 300" width="26.367" height="5.351" rx="2.676" transform="translate(78.102 11.454)" fill="#e6e8ec"/>
        <circle id="Ellipse_201" data-name="Ellipse 201" cx="3.039" cy="3.039" r="3.039" transform="translate(108.457 11.097)" fill="#e6e8ec"/>
      </g>
      <ellipse id="Ellipse_202" data-name="Ellipse 202" cx="61.389" cy="5.983" rx="61.389" ry="5.983" transform="translate(134.252 458.032)" fill="#00ffc4" opacity="0.1"/>
      <ellipse id="Ellipse_203" data-name="Ellipse 203" cx="59.678" cy="6.084" rx="59.678" ry="6.084" transform="translate(375.219 501.269)" fill="#00ffc4" opacity="0.1"/>
      <ellipse id="Ellipse_204" data-name="Ellipse 204" cx="59.678" cy="6.084" rx="59.678" ry="6.084" transform="translate(479.136 470.615)" fill="#00ffc4" opacity="0.1"/>
      <path id="Path_3797" data-name="Path 3797" d="M637.266,174.84h-21.6v2.605a12.346,12.346,0,0,1-12.346,12.346H534.409a12.346,12.346,0,0,1-12.346-12.346V174.84H501.78a14.99,14.99,0,0,0-14.99,15V523.6a14.99,14.99,0,0,0,14.99,15H637.266a15,15,0,0,0,15-15V189.836A15,15,0,0,0,637.266,174.84Z" transform="translate(-209.663 -93.414)" fill="#7c4dff"/>
      <rect id="Rectangle_301" data-name="Rectangle 301" width="49.709" height="49.709" transform="translate(372.371 310.793)" fill="#3a3768" opacity="0.3"/>
      <rect id="Rectangle_302" data-name="Rectangle 302" width="49.709" height="49.709" transform="translate(299.111 245.178)" fill="#3a3768" opacity="0.3"/>
      <rect id="Rectangle_303" data-name="Rectangle 303" width="49.709" height="49.709" transform="translate(303.889 375.288)" fill="#3a3768" opacity="0.3"/>
      <rect id="Rectangle_304" data-name="Rectangle 304" width="49.709" height="49.709" transform="translate(292.798 123.127)" fill="#fff"/>
      <path id="Path_3811" data-name="Path 3811" d="M564.545,265.79l-1.765,1.758a6.224,6.224,0,0,1,0,8.81l1.765,1.771a8.727,8.727,0,0,0,0-12.34Z" transform="translate(-237.244 -126.425)" fill="#ff4b70"/>
      <path id="Path_3812" data-name="Path 3812" d="M553.824,259.632l-1.739,1.739a11.072,11.072,0,0,1,0,15.646l1.739,1.739a13.518,13.518,0,0,0,0-19.111Zm-8.282,6.511V258.18H543.09l-7.339,6.116h-9.785l-2.446,1.223v8.568l2.446,1.223,6.141,9.791h3.669l-2.293-9.791h2.293l7.339,4.9h2.453v-7.963a3.128,3.128,0,0,0,0-6.1Z" transform="translate(-222.995 -123.663)" fill="#ff4b70"/>
      <rect id="Rectangle_305" data-name="Rectangle 305" width="49.709" height="49.709" transform="matrix(0.742, -0.671, 0.671, 0.742, 375.257, 326.226)" fill="#fff"/>
      <path id="Path_3813" data-name="Path 3813" d="M673.34,547.293l3.606-3.274,19.748,21.768-3.631,3.287Zm8.517,20.385,3.631-3.281,5.733,6.37-3.631,3.281Zm7.606-13.48,3.631-3.287,9.027,9.982-3.625,3.281Zm.516-10.371,3.631-3.287,13.958,15.423-3.631,3.287Z" transform="translate(-277.373 -226.147)" fill="#ff4b70"/>
      <rect id="Rectangle_306" data-name="Rectangle 306" width="49.709" height="49.709" transform="translate(371.549 183.028)" fill="#fff"/>
      <path id="Path_3814" data-name="Path 3814" d="M673.7,363.637l-6.67,10.193a3.631,3.631,0,0,1,.828,2.319,3.676,3.676,0,0,1-7.345,0,4.052,4.052,0,0,1,.064-.682l-4.408-2.548a3.688,3.688,0,0,1-4.351.548l-4.689,4.389v4.376A3.274,3.274,0,0,0,650.4,385.5h27.737a3.281,3.281,0,0,0,3.268-3.268V365.975L676.944,363a3.631,3.631,0,0,1-2.249.777,3.739,3.739,0,0,1-.968-.134Z" transform="translate(-267.86 -161.708)" fill="#ff4b70"/>
      <path id="Path_3815" data-name="Path 3815" d="M653.628,361.285a3.669,3.669,0,0,1,3.676,3.669,2.379,2.379,0,0,1-.032.478l4.6,2.548a3.612,3.612,0,0,1,2.325-.828,3.53,3.53,0,0,1,.79.089l6.689-10.358a3.669,3.669,0,1,1,6.664-2.128,3.82,3.82,0,0,1-.1.866l3.185,2.109V351.6a3.274,3.274,0,0,0-3.268-3.262H650.4a3.268,3.268,0,0,0-3.268,3.262v17.544l3.058-2.93a3.708,3.708,0,0,1-.229-1.274,3.669,3.669,0,0,1,3.669-3.657Z" transform="translate(-267.86 -156.387)" fill="#ff4b70"/>
      <rect id="Rectangle_307" data-name="Rectangle 307" width="49.709" height="49.709" transform="translate(308.711 238.451)" fill="#fff"/>
      <path id="Path_3816" data-name="Path 3816" d="M581.319,435.446,550.741,452.01a.637.637,0,0,0,.045,1.14L556,455.118a1.274,1.274,0,0,1,.688.637l4.052,8.345c.076.369.758.471.764.1l-.637-6.9a2.453,2.453,0,0,1,.561-1.4l15.85-15.531a.4.4,0,0,1,.35-.1.363.363,0,0,1,.2.58l-13.665,16.7a3.052,3.052,0,0,0-.535,1.376l-.815,5.956c.064.522.471.72.8.255l2.943-3.459a.637.637,0,0,1,.866-.14l7.587,5.53a.637.637,0,0,0,.962-.376l6.224-30.578a.637.637,0,0,0-.892-.688Z" transform="translate(-232.754 -187.975)" fill="#ff4b70"/>
      <path id="Path_3817" data-name="Path 3817" d="M1022.888,775.726c2.892.376,5.893.637,8.664-.293.427-.134.917-.427.86-.866a1.02,1.02,0,0,0-.2-.42,27.025,27.025,0,0,1-2.631-4.988.407.407,0,0,0-.159-.223.388.388,0,0,0-.28,0c-1.274.331-2.383,1.159-3.657,1.51a5.223,5.223,0,0,1-1.988.153c-.573-.064-1.363-.541-1.879-.484C1021.938,772.006,1022.665,773.8,1022.888,775.726Z" transform="translate(-503.783 -309.035)" fill="#00ffc4"/>
      <path id="Path_3818" data-name="Path 3818" d="M1107.733,766.36a14.8,14.8,0,0,0,5.013-4.708.772.772,0,0,0,.134-.4.829.829,0,0,0-.159-.395,16.323,16.323,0,0,0-4.071-4.4,12.034,12.034,0,0,0-2.274,2.1c-.478.5-1.8,1.332-1.815,2.083,0,.452.5.943.739,1.274.318.471.637.956.911,1.44A23.908,23.908,0,0,1,1107.733,766.36Z" transform="translate(-533.887 -304.517)" fill="#00ffc4"/>
      <path id="Path_3819" data-name="Path 3819" d="M1024.585,783.319a1.911,1.911,0,0,1-.344,1.274,1.7,1.7,0,0,1-.733.427c-4.052,1.446-8.715-.363-12.741,1.07-.835.293-1.618.714-2.453.994a13.277,13.277,0,0,1-3.039.542c-1.433.14-2.867.223-4.3.261a10.4,10.4,0,0,1-3.236-.28,3.918,3.918,0,0,1-2.485-1.968,1.911,1.911,0,0,1-.121-1.4,1.584,1.584,0,0,1,.261-.452,3.879,3.879,0,0,1,.956-.771l1.491-.962a9.956,9.956,0,0,1,2.255-1.2c.586-.191,1.217-.274,1.809-.446,2.1-.637,3.688-2.274,5.173-3.867l2.026-2.16a1.98,1.98,0,0,1,.7-.561,1.911,1.911,0,0,1,.866-.089,11.7,11.7,0,0,1,5.523,1.86,7.969,7.969,0,0,0,1.363.8,4.867,4.867,0,0,0,3.822-.478c.522-.274.408-.446.637-.936s.752-.809,1.21-.357a1.331,1.331,0,0,1,.287.548,15.2,15.2,0,0,1,.274,4.5,2,2,0,0,0,.089.7,4.254,4.254,0,0,0,.395.637,1.007,1.007,0,0,1,.083.166,4.419,4.419,0,0,1,.229,2.141Z" transform="translate(-494.141 -310.78)" fill="#514e7f"/>
      <path id="Path_3820" data-name="Path 3820" d="M1024.585,787.574a1.91,1.91,0,0,1-.344,1.274,1.7,1.7,0,0,1-.733.427c-4.052,1.446-8.715-.363-12.741,1.07-.835.293-1.618.714-2.453.994a13.277,13.277,0,0,1-3.039.542c-1.433.14-2.867.223-4.3.261a10.406,10.406,0,0,1-3.236-.28,3.918,3.918,0,0,1-2.485-1.968,1.911,1.911,0,0,1-.121-1.4,1.584,1.584,0,0,1,.261-.452c.242.5.414,1.147.561,1.382a2.829,2.829,0,0,0,1.911,1.37,4.849,4.849,0,0,0,1.726-.223c3.669-.911,7.568-.924,11.085-2.3a26.471,26.471,0,0,1,3.631-1.4,28.851,28.851,0,0,1,3.924-.318c2.07-.166,4.071-.79,6.116-1.115A4.421,4.421,0,0,1,1024.585,787.574Z" transform="translate(-494.141 -315.035)" fill="#464353"/>
      <path id="Path_3821" data-name="Path 3821" d="M1111.015,767.6a7.352,7.352,0,0,1-2.236,3.982,25.533,25.533,0,0,0-3.122,3.421c-1.057,1.605-1.522,3.587-2.886,4.943a7.821,7.821,0,0,1-1.733,1.274,11.981,11.981,0,0,1-2.249,1.032,17.213,17.213,0,0,1-6.37.35,5.662,5.662,0,0,1-2.013-.4,5.839,5.839,0,0,1-.854-.516,4.051,4.051,0,0,1-1.274-1.319,1.325,1.325,0,0,1-.121-.949,2.168,2.168,0,0,1,.637-.93,14.407,14.407,0,0,1,1.535-1.382,9.116,9.116,0,0,0,2-1.758,5.731,5.731,0,0,0,.771-1.758,15.757,15.757,0,0,0,.561-3.344,10.526,10.526,0,0,1,.236-2.236c.325-1.147,1.178-2.185,1.077-3.376a.865.865,0,0,1,.044-.51.8.8,0,0,1,.4-.248,7.261,7.261,0,0,1,2.089-.478,2.408,2.408,0,0,1,1.911.758c.3.357.491.854.93,1.013a1.543,1.543,0,0,0,.637,0,5.42,5.42,0,0,0,3.032-.936,3.822,3.822,0,0,0,1.274-2.784c0-.4-.178-.809.427-.892.465-.064.828.42,1.064.739a10.4,10.4,0,0,1,2.045,3.727,1.032,1.032,0,0,1,.389-.076,1.663,1.663,0,0,1,1.389.714A2.752,2.752,0,0,1,1111.015,767.6Z" transform="translate(-527.92 -306.002)" fill="#514e7f"/>
      <path id="Path_3822" data-name="Path 3822" d="M1111.106,770.122a7.353,7.353,0,0,1-2.236,3.982,25.525,25.525,0,0,0-3.122,3.421c-1.057,1.605-1.523,3.587-2.886,4.943a7.815,7.815,0,0,1-1.733,1.274,11.98,11.98,0,0,1-2.249,1.032,17.213,17.213,0,0,1-6.37.35,5.663,5.663,0,0,1-2.013-.4,5.844,5.844,0,0,1-.854-.516,4.051,4.051,0,0,1-1.274-1.319,3.1,3.1,0,0,1,1.312-.312c.949.051,1.637.943,2.548,1.217,1.274.389,2.548-.522,3.88-.834.854-.2,1.758-.14,2.593-.414a6.4,6.4,0,0,0,1.911-1.159,9.7,9.7,0,0,0,2.045-1.975,12.587,12.587,0,0,0,1.2-2.4,34.215,34.215,0,0,1,2.427-4.644,3.082,3.082,0,0,1,.5-.637c.2-.185.446-.318.637-.484a5.067,5.067,0,0,0,1.542-2.809,4.7,4.7,0,0,1,.344-.936,1.663,1.663,0,0,1,1.389.713A2.752,2.752,0,0,1,1111.106,770.122Z" transform="translate(-528.011 -308.527)" fill="#464353"/>
      <path id="Path_3823" data-name="Path 3823" d="M979.426,551.837a9.251,9.251,0,0,1,2.6,3.039c.637,1.2,4.134,10.5,3.931,11.83,1.147-1.159,5.7-1.351,6.835-2.5.484-.484,3.1-2.9,3.491-3.466s3.306-1.765,3.625-2.338c1.191-2.134-8.447-10.193-7.218-12.333a.522.522,0,0,0,.1-.331.509.509,0,0,0-.159-.255,15.333,15.333,0,0,0-2.79-1.911,4.46,4.46,0,0,1-2.128-2.548,9.157,9.157,0,0,0-2.465,1.669q-2.644,2.262-5.211,4.638c-.675.637-1.962,1.446-2.274,2.332S978.783,551.315,979.426,551.837Z" transform="translate(-487.848 -226.321)" fill="#a1616a"/>
      <path id="Path_3824" data-name="Path 3824" d="M997.965,552.61a27.929,27.929,0,0,0-4.128,3.376,8.26,8.26,0,0,0-2.631,4.211c-.121.637-.1,1.312-.2,1.969-.427,2.854-2.9,4.95-3.994,7.645a13.073,13.073,0,0,0-.7,2.548,30.036,30.036,0,0,0-.5,5.007c0,1.631,1.567,2.752,2.153,4.275A25.922,25.922,0,0,1,989,586.271a56.437,56.437,0,0,0,2.605,8.6c2.153,5.944,9.129,22.379,11.282,28.329,6.593-1.656,24.15-5.459,29.986-8.919,1.949-1.159-13.505-14.257-11.422-15.162a1.051,1.051,0,0,0,.58-.44,1.007,1.007,0,0,0,0-.637c-2.077-9.1-8.594-16.563-11.543-25.482-1.026-3.077-2.867-5.7-4.268-8.632-1.274-2.65-1.943-5.574-3.453-8.09a5.409,5.409,0,0,0-1.1-1.382,6.759,6.759,0,0,0-1.223-.733C999.608,553.279,998.806,553.03,997.965,552.61Z" transform="translate(-490.786 -230.528)" fill="#514e7f"/>
      <circle id="Ellipse_206" data-name="Ellipse 206" cx="10.32" cy="10.32" r="10.32" transform="translate(481.608 303.837)" fill="#a1616a"/>
      <path id="Path_3825" data-name="Path 3825" d="M997.43,547.259a3.459,3.459,0,0,1,3.88-.554,1.911,1.911,0,0,1,1.153,1.86l5.1.076a10.659,10.659,0,0,1,2.427.223,3.529,3.529,0,0,1,2.026,1.274c.064.083.134.178.236.2a.407.407,0,0,0,.236-.083,4.492,4.492,0,0,1,2.548-.459,13.774,13.774,0,0,1,7.492,3.293,2.427,2.427,0,0,1,.892,1.089c.178.58,0,1.325.42,1.72,0,4.81,1.65,9.288,2.752,13.97a6.19,6.19,0,0,0,1.548,2.223,8.922,8.922,0,0,1,1.656,2.472c.93,2.427-.357,5.275.554,7.715a12.427,12.427,0,0,0,1.758,2.771,7.141,7.141,0,0,1,1.5,3.58c.038.586-.038,1.172,0,1.765a10.752,10.752,0,0,0,.421,2.319c.369,1.408.764,2.816,1.172,4.217.637,2.268,1.529,4.72,3.561,5.931-4.911.834-10.084,1.644-14.767-.057a7.645,7.645,0,0,1-1.841-.924c-1.688-1.2-2.5-3.268-3.23-5.211a24.49,24.49,0,0,1-1.809-6.727,7.693,7.693,0,0,0-.306-2.2c-.478-1.274-1.739-2.032-2.9-2.733a13.946,13.946,0,0,1-3.485-2.714,5.415,5.415,0,0,1-1.414-4.077c.089-.72.37-1.414.4-2.141a1.714,1.714,0,0,0-.994-1.765c-3.574-1.083-5.281-5.313-6.077-8.963a28.606,28.606,0,0,1-.459-5.733l-.045-3.688a4.892,4.892,0,0,1-1.605-3.529,3.961,3.961,0,0,0,0-1.166,3.268,3.268,0,0,0-.816-1.274,10.769,10.769,0,0,1-1.981-2.7Z" transform="translate(-495.003 -228.254)" fill="#464353"/>
      <path id="Path_3826" data-name="Path 3826" d="M979.761,564.549a27.284,27.284,0,0,1-.115,3.466c-.1.433-.274.847-.4,1.274a7.518,7.518,0,0,0,.478,4.854,26.987,26.987,0,0,0,2.478,4.3,6.548,6.548,0,0,1,.8,1.484,7.7,7.7,0,0,1,.306,1.7,51.8,51.8,0,0,0,1.217,6.842,13.442,13.442,0,0,0,2.408,5.5,1.669,1.669,0,0,0,.994.675,1.8,1.8,0,0,0,.847-.178l2.637-1a1.842,1.842,0,0,0,.637-.331,1.6,1.6,0,0,0,.37-1.032,15.169,15.169,0,0,0-1.159-6.249c-2.141-6.077-4.982-11.932-6.37-18.219-.389-1.758-.592-4.459-1.873-5.829-.529-.573-.35-.331-.981,0a7.987,7.987,0,0,0-.924.49A3.026,3.026,0,0,0,979.761,564.549Z" transform="translate(-488.33 -233.74)" fill="#464353"/>
      <path id="Path_3827" data-name="Path 3827" d="M1059.24,625.68" transform="translate(-517.438 -257.049)" fill="#464353"/>
      <path id="Path_3828" data-name="Path 3828" d="M992.287,574.222q1.051,5.561,2.147,11.129l10.244-2.688a7.178,7.178,0,0,0-.885-3.064c-.936-2.344-.956-4.95-1.714-7.358-.573-1.835-1.567-3.523-2.1-5.37-.312-1.07-.465-2.191-.771-3.268a24.948,24.948,0,0,0-1.2-3.115,19.849,19.849,0,0,0-2.236-4.147,6.532,6.532,0,0,0-3.453,2.236,4.75,4.75,0,0,0-.637,2.2c-.178,2.306.637,4.619.376,6.9A20.385,20.385,0,0,0,992.287,574.222Z" transform="translate(-492.905 -231.882)" fill="#ff4b70"/>
      <path id="Path_3829" data-name="Path 3829" d="M1009.126,649.423c.573,2.191-.261,4.459-.936,6.638a51.543,51.543,0,0,0-2.089,10,8.282,8.282,0,0,1-.516,2.548,23.829,23.829,0,0,1-1.242,2.039,10.214,10.214,0,0,0-.784,6.135c.146,1.376.37,2.746.637,4.1a10.339,10.339,0,0,1,.268,4.994c.809-.178,1.363.866,1.331,1.7s-.325,1.726.07,2.459c1.007.363,1.019,1.746.987,2.809a23.689,23.689,0,0,0,.694,5.5q2.281,10.951,4.841,21.844c3.688,1.147,7.995,2.338,11.511.752a2.261,2.261,0,0,0,1.459-1.465,2.635,2.635,0,0,0-.14-1.128l-1.669-6.065a11.168,11.168,0,0,1-.6-4.459c.166-1.128.637-2.338.1-3.325a9.6,9.6,0,0,0-.7-.93c-.879-1.274-.42-2.988-.344-4.542a3.555,3.555,0,0,0-.076-1.038,5.445,5.445,0,0,0-.49-1.14,17.411,17.411,0,0,1-1.911-8.664,2.129,2.129,0,0,0-.153-1.134,2.6,2.6,0,0,1-.28-.459,1.229,1.229,0,0,1,.089-.835,7.25,7.25,0,0,1-1.344-1.274,1.911,1.911,0,0,0,.319-2.943.981.981,0,0,0,.471-1.688c-.217-.153-.5-.217-.637-.433-.236-.318-.045-.771.147-1.115l1.019-1.841c.758-1.363.93-3.051,1.745-4.383a32.89,32.89,0,0,0,2.688-6.135l2.9-8.09,1.975,1.714a6.187,6.187,0,0,1,1.625,1.854,7.827,7.827,0,0,1,.522,2.217c.726,4.4,3.5,8.205,4.523,12.543a8.453,8.453,0,0,0,.93,2.8,6.069,6.069,0,0,1,.535.8,4.226,4.226,0,0,1,.223,1.331,6.2,6.2,0,0,0,2.618,4.459c.968.637,2.2,1.128,2.707,2.185a4.317,4.317,0,0,0,.446.93c.471.567,1.491.637,1.695,1.344.108.4-.1.873.127,1.223a1.116,1.116,0,0,0,.478.357l2.848,1.427c3.185,1.586,4.791,5.224,7.141,7.893a16.388,16.388,0,0,1,2.134,2.828c1.013,1.809,1.484,4.083,3.185,5.249a4.947,4.947,0,0,1,1.236.917c.542.707.344,1.7.389,2.593s.733,1.949,1.58,1.682a6.147,6.147,0,0,0,0,3.294,16.6,16.6,0,0,0,10.065-4.077,3.971,3.971,0,0,0,1.637-2.746,1.063,1.063,0,0,0-.121-.548,1.49,1.49,0,0,0-.637-.484c-2.656-1.44-3.459-4.778-4.791-7.492a62.7,62.7,0,0,0-4.383-6.676c-3.185-4.778-5.313-10.556-10.1-13.716-1.051-.694-2.274-1.312-2.8-2.459a19.6,19.6,0,0,1-.561-2.039,1.714,1.714,0,0,0-1.5-1.274,9.089,9.089,0,0,0,.344-3.185,3.964,3.964,0,0,0-.159-1.37,6.472,6.472,0,0,0-.7-1.351,13.093,13.093,0,0,1-1.8-7.008,11.285,11.285,0,0,0-.121-3.765c-.191-.637-.522-1.166-.758-1.758a10.963,10.963,0,0,1-.548-3.281l-.261-4.2a20.082,20.082,0,0,0-.542-4.147c-.885-3.255-1.733-16.894-4.733-18.43s-8.122,8.957-11.467,9.167a15.289,15.289,0,0,0-4.383.841,21.243,21.243,0,0,0-5.943,3.943l-6.192,5.2a22.568,22.568,0,0,1-3.841,2.771Z" transform="translate(-497.182 -257.655)" fill="#464353"/>
      <path id="Path_3830" data-name="Path 3830" d="M964.22,520.51a7.784,7.784,0,0,1,6.007-2.93,14.014,14.014,0,0,1,6.638,1.669,8.559,8.559,0,0,0,1.911.8c1.1.223,2.306-.076,3.293.446,1.312.694,1.561,2.465,1.446,3.943s-.389,3.1.395,4.364a12.085,12.085,0,0,1,.758,1.134,3.784,3.784,0,0,1-.07,2.427,19.5,19.5,0,0,1-1.274-1.6,1.482,1.482,0,0,0-1.8-.471c-.561.376-.561,1.07-.586,1.688s-.191,1.363-.777,1.567a1.274,1.274,0,0,1-1.274-.51c-1-1.223-.6-3.185-1.586-4.408-.567-.7-1.5-1.038-2.026-1.771-.408-.573-.51-1.319-.866-1.911s-1.191-1.077-1.752-.637a2.382,2.382,0,0,0-.465.637A2.682,2.682,0,0,1,969,525.9a5.585,5.585,0,0,0-1.382-.592,1.7,1.7,0,0,0-1.573.854,3.389,3.389,0,0,0-.414,1.822,4.237,4.237,0,0,1-.344,2.5,2.586,2.586,0,0,1-.739.637,2.187,2.187,0,0,1-2.421.248,1.822,1.822,0,0,1-.542-1.695,13.931,13.931,0,0,1,.516-1.79c.382-1.351-.115-2.873.306-4.147A13.053,13.053,0,0,1,964.22,520.51Z" transform="translate(-481.982 -217.814)" fill="#464353"/>
      <path id="Path_3831" data-name="Path 3831" d="M974.4,559.929a1.594,1.594,0,0,0,.1.949,1.542,1.542,0,0,0,.516.5,10.689,10.689,0,0,0,4.867,1.573,1.465,1.465,0,0,1,.637.172,1.2,1.2,0,0,1,.287,1.357,3.613,3.613,0,0,0-.306,1.44c.127.911,1.2,1.325,2.121,1.44a4.918,4.918,0,0,0,3.688-.714,5.689,5.689,0,0,0,1.523-2.287c2.5-5.733,3.383-12.1,5.918-17.837a3.624,3.624,0,0,0,.382-1.191,1.185,1.185,0,0,0-.471-1.1c-.471-.293-1.2-.127-1.523-.58-.159-.236-.14-.548-.28-.79-.293-.522-1.057-.459-1.586-.739-.408-.223-.694-.637-1.147-.758a1.465,1.465,0,0,0-1.2.516,15.394,15.394,0,0,0-3.1,5.217,61.962,61.962,0,0,1-4.459,8.224,4.753,4.753,0,0,0-1.389-2.72c-.777-.159-1.784,1.21-2.2,1.726a10.932,10.932,0,0,0-2.376,5.606Z" transform="translate(-486.633 -226.444)" fill="#ff4b70"/>
      <rect id="Rectangle_308" data-name="Rectangle 308" width="49.709" height="49.709" transform="translate(492.979 341.639)" fill="#fff"/>
      <path id="Path_3832" data-name="Path 3832" d="M1012.936,605.793V599.27h-16.3v29.368h31.82V605.793Zm-9.779,19.576H999.9v-3.262h3.255Zm0-6.523H999.9v-3.262h3.255Zm0-6.523H999.9v-3.268h3.255Zm0-6.53H999.9v-3.268h3.255Zm6.517,19.576h-3.249v-3.262h3.255Zm0-6.523h-3.249v-3.262h3.255Zm0-6.523h-3.249v-3.268h3.255Zm0-6.53h-3.249v-3.268h3.255Zm15.531,19.576h-12.27v-3.262h3.255v-3.262h-3.255v-3.262h3.255v-3.268h-3.255v-3.262h12.27Zm-2.854-13.047H1019.1v3.268h3.255Zm0,6.523H1019.1v3.268h3.255Z" transform="translate(-494.717 -247.464)" fill="#ff4b70"/>
      <path id="Path_3833" data-name="Path 3833" d="M1058.039,624.859a20.078,20.078,0,0,0-2.357,2.472,4.924,4.924,0,0,0-1.083,3.185,1.638,1.638,0,0,0,.306.93.8.8,0,0,0,.885.274,1.276,1.276,0,0,0,.433-.389,20.361,20.361,0,0,1,1.465-1.593c.191-.185.433-.382.688-.312a.725.725,0,0,1,.3.2,2.025,2.025,0,0,1,.637.962,2.28,2.28,0,0,1-.675,1.854,4.805,4.805,0,0,0-1.141,1.688.719.719,0,0,0,0,.541.885.885,0,0,0,.338.293,4.918,4.918,0,0,0,4.122.268c.885-.35,1.65-.962,2.548-1.274a6.132,6.132,0,0,0,1.128-.42,2.319,2.319,0,0,0,1-1.491,6.369,6.369,0,0,0,.07-1.841,21.024,21.024,0,0,0-1.535-6.944.829.829,0,0,0-.249-.37.873.873,0,0,0-.42-.121c-1.115-.115-2.95-.688-4.026-.274a2.752,2.752,0,0,0-.949.847C1059.275,623.566,1058.039,624.566,1058.039,624.859Z" transform="translate(-515.753 -255.84)" fill="#a1616a"/>
      <path id="Path_3834" data-name="Path 3834" d="M1050.485,601.495c0-1.07-1.325-3.638.771-3.822,0-1.134-1.612-1.847-1.319-3.045.1-.408.427-.733.478-1.14.134-1.166-1.969-1.8-1.625-2.918.127-.427.593-.688.694-1.121.236-1.007-1.567-1.459-1.6-2.491,0-.35.191-.682.178-1.026,0-.44-.382-.771-.593-1.147-.542-.975-.28-2.484-1.274-2.981.637.051.885-.924.605-1.523s-.828-1.115-.828-1.777a2.831,2.831,0,0,0,0-.733c-.185-.637-1.23-.682-1.4-1.319a6.809,6.809,0,0,1,0-.72c-.064-.5-.573-.8-1.051-.949a4.179,4.179,0,0,1-1.4-.5c-.306-.236-.637-.637-.987-.414-.121.07-.185.21-.28.319-.389.452-1.134.255-1.631-.083a6.745,6.745,0,0,1-2.5-4.5c-.319-1.733-.3-3.523-.682-5.243a12.013,12.013,0,0,0-.465-1.567,8.108,8.108,0,0,1-.739-1.567c-.076-1,2-.319,2.79-.217a12.386,12.386,0,0,1,2.268.427,23.993,23.993,0,0,1,2.313,1.013c3.185,1.4,6.957,1.567,9.492,3.905.835.771,1.535,1.777,2.612,2.121a13.345,13.345,0,0,1,1.465.382c1.2.567,1.389,2.16,2.045,3.313a7.073,7.073,0,0,1,.541.956,3.766,3.766,0,0,1,.172,1.223l.089,3.026a111.773,111.773,0,0,1-.242,15.187,12.537,12.537,0,0,0,.057,4.969c.127.433.312.847.42,1.274a8.656,8.656,0,0,1,.166,1.573l.07,1.956a.472.472,0,0,1-.624.58c-2.733-.242-5.485-1.784-8.065-.854" transform="translate(-508.58 -233.463)" fill="#464353"/>
      <path id="Path_3835" data-name="Path 3835" d="M979.243,611.807a.84.84,0,0,0-.306.255,2.172,2.172,0,0,0,0,2.586.873.873,0,0,1,.153.255.752.752,0,0,1-.076.433,1.433,1.433,0,0,0,.2,1.605c.2.166.465.248.592.465.223.37-.089.841-.038,1.274.064.567.733.847,1.274.917a1.357,1.357,0,0,0,1.242-.331,1.032,1.032,0,0,0,0-1.128,3.019,3.019,0,0,0-.841-.841,1.274,1.274,0,0,0,1.2-1.166,1.809,1.809,0,0,0-.726-1.586c-.115-.1-.255-.191-.287-.344s.121-.363.261-.51c.637-.637,1.128-2.2-.07-2.548a2.949,2.949,0,0,0-1.274.057c-.306.1-.306.28-.541.408S979.51,611.674,979.243,611.807Z" transform="translate(-488.136 -251.758)" fill="#a1616a"/>
      <path id="Path_3836" data-name="Path 3836" d="M996.552,543.14a2.1,2.1,0,0,0-1.618.815,4.657,4.657,0,0,0-.675,2.166,18.99,18.99,0,0,1-2.548,6.918" transform="translate(-492.927 -227.091)" opacity="0.1"/>
      <path id="Path_3837" data-name="Path 3837" d="M1000.091,545.88a2.472,2.472,0,0,0-2.115,1.274,7.068,7.068,0,0,0-.535,2.16,11.734,11.734,0,0,1-2.121,4.529" transform="translate(-494.238 -228.085)" opacity="0.1"/>
      <path id="Path_3838" data-name="Path 3838" d="M324.366,605.759c-.369,4.026,2.669,7.925,1.784,11.862-.191.841-.554,1.637-.688,2.484-.363,2.338,1.032,4.555,2.363,6.511l11.429,16.78a10.874,10.874,0,0,0,1.637,2.019c2.191,1.911,5.466,1.739,8.339,2.319a14.3,14.3,0,0,1,5.581,2.472.363.363,0,0,1,.076.5,4.81,4.81,0,0,1-4.154,1.949c-.3.395,0,.975.414,1.274.637.427,1.459.535,1.58,1.58a1.707,1.707,0,0,1-.21,1.045,3.23,3.23,0,0,1-2,1.389c-3.956,1.21-8.237-.911-11.193-3.822s-5.1-6.542-8-9.492c-1.612-1.624-3.44-3.026-5.1-4.606a58.632,58.632,0,0,1-8.364-10.83,12.021,12.021,0,0,1-1.809-3.682c-.306-1.312-.166-2.695-.522-3.994-.459-1.695-1.707-3.051-2.739-4.459a14.8,14.8,0,0,1-3.115-9.651c.268-3.44,2.4-6.842,5.644-8.008a5.052,5.052,0,0,1,3.185-.2,7.689,7.689,0,0,1,3.223,2.548l2.166,2.51a5.784,5.784,0,0,1,1.274,1.911,2.007,2.007,0,0,1-.446,2.134" transform="translate(-125.947 -247.378)" fill="#fbbebe"/>
      <path id="Path_3839" data-name="Path 3839" d="M324.366,605.759c-.369,4.026,2.669,7.925,1.784,11.862-.191.841-.554,1.637-.688,2.484-.363,2.338,1.032,4.555,2.363,6.511l11.429,16.78a10.874,10.874,0,0,0,1.637,2.019c2.191,1.911,5.466,1.739,8.339,2.319a14.3,14.3,0,0,1,5.581,2.472.363.363,0,0,1,.076.5,4.81,4.81,0,0,1-4.154,1.949c-.3.395,0,.975.414,1.274.637.427,1.459.535,1.58,1.58a1.707,1.707,0,0,1-.21,1.045,3.23,3.23,0,0,1-2,1.389c-3.956,1.21-8.237-.911-11.193-3.822s-5.1-6.542-8-9.492c-1.612-1.624-3.44-3.026-5.1-4.606a58.632,58.632,0,0,1-8.364-10.83,12.021,12.021,0,0,1-1.809-3.682c-.306-1.312-.166-2.695-.522-3.994-.459-1.695-1.707-3.051-2.739-4.459a14.8,14.8,0,0,1-3.115-9.651c.268-3.44,2.4-6.842,5.644-8.008a5.052,5.052,0,0,1,3.185-.2,7.689,7.689,0,0,1,3.223,2.548l2.166,2.51a5.784,5.784,0,0,1,1.274,1.911,2.007,2.007,0,0,1-.446,2.134" transform="translate(-125.947 -247.378)" opacity="0.05"/>
      <path id="Path_3842" data-name="Path 3842" d="M376.6,752.538c2.5,1.523,5.606,1.612,8.511,1.274.465-.057,1.019-.1,1.319.268.433.522-.076,1.274-.605,1.72a12.664,12.664,0,0,1-5.848,2.4,39.884,39.884,0,0,1-5.733.382,96.94,96.94,0,0,1-15.627-.58,2.072,2.072,0,0,1-.854-.248,1.618,1.618,0,0,1-.637-.981,3.905,3.905,0,0,1,1.363-3.72,11.467,11.467,0,0,1,3.644-1.956l4.536-1.765c1.064-.414,2.777-1.516,3.931-1.427C372.742,748.047,374.8,751.481,376.6,752.538Z" transform="translate(-187.797 -301.411)" fill="#3f3d56"/>
      <path id="Path_3843" data-name="Path 3843" d="M394.276,768.435a11.142,11.142,0,0,0,7.613,2.841c.713,0,1.707.134,1.707.847a1.121,1.121,0,0,1-.2.592,7.008,7.008,0,0,1-3.937,3.083,14.019,14.019,0,0,1-4.752.3l-4.65-.242c-.879-.045-1.765-.089-2.637-.2s-1.822-.287-2.733-.427a36.457,36.457,0,0,0-6.772-.319,1.968,1.968,0,0,1-1.669-.446c-.414-.522-.172-1.274-.038-1.911.28-1.344,0-2.758.261-4.115a7.235,7.235,0,0,1,4.746-5.052c2.089-.8,5.8-1.707,7.778-.382C391.116,764.415,392.4,766.734,394.276,768.435Z" transform="translate(-216.867 -306.649)" fill="#3f3d56"/>
      <path id="Path_3844" data-name="Path 3844" d="M400.018,662.771c1.911,2.516,3.822,5.421,3.376,8.53a19.234,19.234,0,0,1-1.879,4.708,33.187,33.187,0,0,0-1.911,6.612c-.707,3.294-1.414,6.593-1.854,9.932a62.02,62.02,0,0,0-.414,11.4,3.847,3.847,0,0,0,.8,2.548c.255.255.586.465.694.809a1.37,1.37,0,0,1-.147.956,10.581,10.581,0,0,1-5.67,5.217,21.717,21.717,0,0,1-7.708,1.44,2.166,2.166,0,0,1-1.032-.134,1.988,1.988,0,0,1-.8-.911c-1.911-3.631-.847-8.014-.879-12.1,0-3.421-.828-6.81-.682-10.231.121-2.739.854-5.415,1.121-8.148.44-4.459-.382-8.982-1.2-13.41-.637-3.389-1.274-6.784-2.07-10.142a19.34,19.34,0,0,0-2.191-5.886c-.892-1.408-2.1-2.586-3.122-3.911a17.754,17.754,0,0,1-3.491-12.977c.064-.459,6.562,1.644,7.122,1.911a22.079,22.079,0,0,1,6.37,4.083,52.738,52.738,0,0,1,4,4.943q2.79,3.4,5.491,6.829Q397.024,658.777,400.018,662.771Z" transform="translate(-213.423 -261.161)" fill="#464353"/>
      <path id="Path_3845" data-name="Path 3845" d="M400.018,662.771c1.911,2.516,3.822,5.421,3.376,8.53a19.234,19.234,0,0,1-1.879,4.708,33.187,33.187,0,0,0-1.911,6.612c-.707,3.294-1.414,6.593-1.854,9.932a62.02,62.02,0,0,0-.414,11.4,3.847,3.847,0,0,0,.8,2.548c.255.255.586.465.694.809a1.37,1.37,0,0,1-.147.956,10.581,10.581,0,0,1-5.67,5.217,21.717,21.717,0,0,1-7.708,1.44,2.166,2.166,0,0,1-1.032-.134,1.988,1.988,0,0,1-.8-.911c-1.911-3.631-.847-8.014-.879-12.1,0-3.421-.828-6.81-.682-10.231.121-2.739.854-5.415,1.121-8.148.44-4.459-.382-8.982-1.2-13.41-.637-3.389-1.274-6.784-2.07-10.142a19.34,19.34,0,0,0-2.191-5.886c-.892-1.408-2.1-2.586-3.122-3.911a17.754,17.754,0,0,1-3.491-12.977c.064-.459,6.562,1.644,7.122,1.911a22.079,22.079,0,0,1,6.37,4.083,52.738,52.738,0,0,1,4,4.943q2.79,3.4,5.491,6.829Q397.024,658.777,400.018,662.771Z" transform="translate(-213.423 -261.161)" opacity="0.05"/>
      <path id="Path_3846" data-name="Path 3846" d="M414.979,641.544c-.408,1.949-2.3,3.44-2.351,5.434-.045,1.593,1.089,2.93,1.911,4.3a28.835,28.835,0,0,1,1.949,4.421,67.41,67.41,0,0,0,5.733,11.384c1.089,1.733,2.312,3.612,2.058,5.644a8.333,8.333,0,0,1-.987,2.695l-3.274,6.5a18.666,18.666,0,0,0-1.669,4.109c-.287,1.236-.312,2.548-.478,3.771-.516,3.988-2.383,8-1.274,11.868.1.331.446.733.707.5a12.392,12.392,0,0,0-1.867,6.37c.038,1.2.408,2.453-.038,3.574a3.9,3.9,0,0,0-.5,1.363c0,.325.153.637.185.962a2.13,2.13,0,0,1-1.631,1.981c-.879.293-1.835.274-2.72.535-1.707.51-2.918,1.975-4.383,2.994a9.205,9.205,0,0,1-5.026,1.637,1.275,1.275,0,0,1-.739-.146,1.21,1.21,0,0,1-.414-.9,5,5,0,0,1,1.8-4.338,2.007,2.007,0,0,0,.637-.7,1.7,1.7,0,0,0,.064-.783,58.1,58.1,0,0,1,.191-10.734,16.563,16.563,0,0,0,.166-3.414,13.957,13.957,0,0,1-.274-2.848,14.537,14.537,0,0,1,.873-2.72,19.067,19.067,0,0,0,.414-5.1,44.675,44.675,0,0,1,1.44-8.721,6.619,6.619,0,0,1,1.357-3.147c.682-.713,1.784-1.389,1.523-2.338a2.7,2.7,0,0,0-.637-.93,3.733,3.733,0,0,1-.784-2.848,1.274,1.274,0,0,1-1.465-.688,22.933,22.933,0,0,1-11.518-13.1,4.254,4.254,0,0,0-.516-1.166,5.314,5.314,0,0,0-2.109-1.37c-2.383-1.2-4.026-3.446-5.536-5.644a13.13,13.13,0,0,1-2.141-4.1,13.5,13.5,0,0,1-.293-2.956l-.134-5.1a2.923,2.923,0,0,1,.1-1,2.547,2.547,0,0,1,.554-.815,9.893,9.893,0,0,1,5.44-2.93c1.4-.248,2.822-.2,4.236-.318,2.739-.229,5.447-1.077,8.192-.879,4.306.318,8.141,3.306,10.193,7.116C412.7,640.352,413.45,641.5,414.979,641.544Z" transform="translate(-242.182 -259.286)" fill="#464353"/>
      <rect id="Rectangle_309" data-name="Rectangle 309" width="49.709" height="49.709" transform="translate(206.791 389.978)" fill="#fff"/>
      <path id="Path_3853" data-name="Path 3853" d="M296.127,688.2c0,5.67-2.656,9.237-6.855,9.237-2.147,0-3.784-1.147-4.071-2.848H284.9a4.459,4.459,0,0,1-4.415,2.746c-3.733,0-6.224-2.994-6.224-7.447,0-4.275,2.51-7.25,6.173-7.25a4.459,4.459,0,0,1,4.185,2.5h.306v-2.128h3.051v9.906a1.771,1.771,0,0,0,1.911,1.975c2.115,0,3.466-2.548,3.466-6.562,0-6.37-4.778-10.632-11.83-10.632s-11.945,5.1-11.945,12.282c0,7.358,4.918,12.059,12.575,12.059a23.07,23.07,0,0,0,4.16-.357,1.21,1.21,0,0,1,.51,2.363,21.177,21.177,0,0,1-4.791.522c-9.307,0-15.289-5.733-15.289-14.652,0-8.715,6.084-14.7,14.945-14.7C290.221,675.169,296.127,680.488,296.127,688.2Zm-18.57,1.758c0,2.828,1.325,4.542,3.491,4.542,2.281,0,3.72-1.758,3.72-4.542s-1.44-4.5-3.682-4.5-3.529,1.669-3.529,4.5Z" transform="translate(-49.795 -275.03)" fill="#ff4b70"/>
      <ellipse id="Ellipse_208" data-name="Ellipse 208" cx="10.594" cy="10.594" rx="10.594" ry="10.594" transform="translate(197.011 325.057)" fill="#fbbebe"/>
      <path id="Path_3859" data-name="Path 3859" d="M351.115,572.052a13.735,13.735,0,0,1-8.791,6.148l.8,2.892c1.376,4.982,2.93,10.256,6.778,13.709a6.409,6.409,0,0,1,1.077-4.956,18.767,18.767,0,0,1,3.593-3.759l6.1-5.307a1.663,1.663,0,0,0,.459-.51,1.554,1.554,0,0,0,0-1.159c-.777-2.421-2.994-3.931-4.791-5.561a16.9,16.9,0,0,1-2.414-2.809C352.669,569.02,351.886,570.759,351.115,572.052Z" transform="translate(-153.047 -236.847)" fill="#fbbebe"/>
      <path id="Path_3860" data-name="Path 3860" d="M405.532,588.276a5.733,5.733,0,0,0,.312,2.338,1.643,1.643,0,0,0,1.911.981c-.223-.5.363-1.077.911-1.013a1.714,1.714,0,0,1,1.21,1.026,3.823,3.823,0,0,1,.35,2.37c-.172,1.007-.752,1.969-.6,2.975.121.834.739,1.669.408,2.453a3.939,3.939,0,0,1-.79.943,2.676,2.676,0,0,0,.287,3.669l-8.282.159a5.81,5.81,0,0,1-1.026,4.02,25.31,25.31,0,0,1-18.869,12.32,1.644,1.644,0,0,1,.395,2.51,2.323,2.323,0,0,1-2.65.153,20.118,20.118,0,0,1-2.274-1.7,6.95,6.95,0,0,0-4.663-1.274c-1.038.1-2.039.427-3.077.484-3.058.166-5.689-2.039-8.613-2.937-2.147-.637-4.574-.637-6.37-2a2.526,2.526,0,0,1-1.185-2.459,4.007,4.007,0,0,1,.892-1.44,25.64,25.64,0,0,0,2.389-4.459,26.621,26.621,0,0,1,5.969-7.988,52.684,52.684,0,0,1,5.912-4.491,10.013,10.013,0,0,1,1.605-.962,16.435,16.435,0,0,0,2.191-.892,12.229,12.229,0,0,0,2.274-2.548c1.637-1.911,4.154-2.784,6.173-4.287,1.351-1.007,2.548-2.332,4.16-2.822.784-.236,1.624-.255,2.408-.491,1.784-.541,3.083-2.128,4.835-2.765a19.562,19.562,0,0,1,4.376-.561,10.192,10.192,0,0,0,4.5-1.7,5.409,5.409,0,0,1,1.452-.854c2.211-.637,2.389,3.453,2.6,4.88A40.91,40.91,0,0,1,405.532,588.276Z" transform="translate(-208.815 -239.368)" fill="#3f3d56"/>
      <path id="Path_3861" data-name="Path 3861" d="M330.345,612.6c-.37,4.02,2.669,7.918,1.784,11.862-.191.841-.548,1.637-.682,2.484-.369,2.338,1.026,4.549,2.357,6.5l11.467,16.78a10.194,10.194,0,0,0,1.631,2.019c2.191,1.943,5.466,1.739,8.339,2.325a14.276,14.276,0,0,1,5.587,2.472.363.363,0,0,1,.07.5,4.79,4.79,0,0,1-4.154,1.949c-.3.4,0,.981.414,1.274.637.427,1.459.541,1.58,1.58a1.771,1.771,0,0,1-.2,1.051,3.262,3.262,0,0,1-2.007,1.389c-3.956,1.21-8.231-.917-11.193-3.822s-5.1-6.542-8-9.492c-1.612-1.631-3.44-3.026-5.1-4.606a60.223,60.223,0,0,1-8.364-10.83,12.052,12.052,0,0,1-1.809-3.688c-.306-1.306-.166-2.695-.522-3.988-.459-1.7-1.7-3.058-2.739-4.459a14.82,14.82,0,0,1-3.115-9.658,9.251,9.251,0,0,1,5.644-8.008,5.052,5.052,0,0,1,3.185-.191,7.59,7.59,0,0,1,3.223,2.548l2.172,2.51a5.961,5.961,0,0,1,1.274,1.911,2.007,2.007,0,0,1-.446,2.134" transform="translate(-135.787 -249.859)" fill="#fbbebe"/>
      <path id="Path_3862" data-name="Path 3862" d="M371.462,590.422c1.5.089,3.185.236,4.224,1.274a5.9,5.9,0,0,1,1.057,1.669A16.488,16.488,0,0,1,378.852,600a29.9,29.9,0,0,1-.764,5.542c-.236,1.535.363,3.1.478,4.657a31.789,31.789,0,0,1-6.014-2.312,20.107,20.107,0,0,0-3.523-1.828c-1.79-.6-4.81.427-6.5,1.274-.1-1.2.8-3.281.707-4.459a4.887,4.887,0,0,0-.268-1.484,8.85,8.85,0,0,0-.9-1.433,5.867,5.867,0,0,1,.529-6.886c1.51-1.7,3.88-2.338,6.141-2.605a26.857,26.857,0,0,1,4.294-.146" transform="translate(-182.688 -244.203)" fill="#3f3d56"/>
      <path id="Path_3863" data-name="Path 3863" d="M344.767,552.342l.242-1.994c-1.675.427-3.262-.987-4.332-2.459s-2.058-3.185-3.682-3.822c-1.981-.745-4.077.446-5.969,1.427a18.684,18.684,0,0,1-6.848,2.268,4.851,4.851,0,0,0-1.134.185c-1.229.44-1.816,1.981-1.994,3.383a13.269,13.269,0,0,1-.733,4.141c-.465.943-1.274,1.65-1.733,2.548-1.274,2.5-.045,5.931-1.414,8.39l3.4-3.109c.312-.287.752-.586,1.089-.344s.293.637.408.936a1.777,1.777,0,0,0,2.414.879,6.62,6.62,0,0,0,2.16-1.975,13.2,13.2,0,0,1,5.389-4.083,6.887,6.887,0,0,1,5.7.338c1.586.9,2.746,2.981,4.689,3.051,2.663.1,3.771-4.854,5-6.81a2.414,2.414,0,0,1-.7-3.007C346.531,552.221,344.8,552.036,344.767,552.342Z" transform="translate(-123.204 -227.343)" fill="#464353"/>
      <path id="Path_3864" data-name="Path 3864" d="M718.784,733.707c-.516-2.185-.828-4.1-.828-4.1a8.486,8.486,0,0,0-.949-4.16v-.6h0v-4.4a14.54,14.54,0,0,1,1.108-2.3c.79-1.376,0-6.434,0-6.434s-2.93-7.129-2.223-11.651-6.014-20.086-6.014-20.086a19.841,19.841,0,0,1,.637-4.459,3.22,3.22,0,0,0,.083-.93.691.691,0,0,0,0-.115v.038c-.1-2.981-2.459-8.575-2.459-8.575l.318-10.651a31.37,31.37,0,0,0-.949-14.722c-.86-2.943-1.408-5.294-1.758-7.116-.038-.2-.076-.4-.108-.592,5.052-.771,8.919-1.414,8.919-1.414s-2.93-12.263-4.912-14.41-3.561-8.887-3.561-8.887-1.032-8.664.637-11.193,1.911-6.9,1.911-6.9,3.822-2.758,4.275-3.988a20.193,20.193,0,0,0,1.274-5.44c0-1.459-.478-2.758-.319-3.529s-1.108-3.676-.471-5.058a3.7,3.7,0,0,0,.248-1.331.083.083,0,0,0,0-.038h0a18.933,18.933,0,0,0-.338-3.6,10.194,10.194,0,0,0-3.759-2.013l-.083-.325-.217-.86a2.9,2.9,0,0,0-.376-.223v-1.593l.592-2.8c1.172-4.861-5.326-5.587-5.326-5.587a3.427,3.427,0,0,0-1.841-1.618c-1.274-.459-.217,7.326.395,7.823a25.336,25.336,0,0,1,2.548,4.013h0l.115.2a2.588,2.588,0,0,0-.3.312l.248,1.688.038.261a6.937,6.937,0,0,0-1.038,1.765,3.765,3.765,0,0,1,.949,2.765,8.662,8.662,0,0,0,.395,3.37c-.07-.083-.9-.987-1.739-.764s-3.185.917-3.185.917-1.745.306-1.586.688-1.185,2.07-1.185,2.07L693.27,572.7c-.051-.134-.1-.268-.14-.4a10.7,10.7,0,0,1-.4-1.911,10.407,10.407,0,0,0,1.491-.478,3.23,3.23,0,0,0,1.274-.828,5.059,5.059,0,0,0,.752-2.02,28.022,28.022,0,0,1,1.739-3.873,12.6,12.6,0,0,0,.9-6.912,4.6,4.6,0,0,0-.713-2.039c-.764-1.051-2.153-1.478-3.185-2.319s-1.656-2.115-2.835-2.746a5.586,5.586,0,0,0-3.555-.306,19,19,0,0,0-6.632,2.408,3.41,3.41,0,0,1-2.223.733,3,3,0,0,1-1.6-1.172.316.316,0,0,1,0-.07l-.057-.057a8.388,8.388,0,0,0-.726,3.5v.752a1.442,1.442,0,0,1,0,.166h0a1.122,1.122,0,0,1-.038.248,1.8,1.8,0,0,1-.433.637,2.826,2.826,0,0,0-.382.522.565.565,0,0,1,.064-.191,2.765,2.765,0,0,0-.491,1.472,1.465,1.465,0,0,0,.357,1.057,5.1,5.1,0,0,0,.758.637,8.917,8.917,0,0,0-.134,1.554,9.059,9.059,0,0,0,4.408,7.727l.159.4a11.142,11.142,0,0,1,.847,5.1.861.861,0,0,1-.057.376l-.166.191h0s-7.734.076-9.556-1.573-4.593,4.026-4.593,4.026-2.771.542-3.325,0-3.822-.076-3.822-.076a7.008,7.008,0,0,0-4.829-1.758,14.188,14.188,0,0,0-3.548-1.975h0l-.089-.032h0a3.962,3.962,0,0,0-1.745-.217s-3.822-3.147-4.905-4.829-6.37-7.944-6.415-7.976v-.3l-.064-.911a3.568,3.568,0,0,1-.471.045,1.107,1.107,0,0,0-.108-.318,17.2,17.2,0,0,0-1.121-2.548s0-1.147.338-1.433-.14-4.5-.14-4.5-3.427-8.008-6.492-2.032c0,0-5.8,3.867-.936,8.377,0,0,1.911.937,2.217,1.682.185.484.841,1.841,1.274,2.739l.2.4-.057.045.076.752v.293c-.917.516-1.535,1.032-1.389,1.427a8.384,8.384,0,0,1,.554,2.07s6.734,8.428,7.606,12.034c0,0,18.054,10.728,23.991,11.5l-1.026,5.364a42.437,42.437,0,0,0-.236,4.37c.076,1.147-.713,6.37-.713,6.37s-1.032,7.645-1.911,8.734-.714,5.676-.714,5.676a38.281,38.281,0,0,1-1.185,6.511,16.545,16.545,0,0,0-.236,6.517s-3.013,6.9,4.2,2.223c0,0,3.536-.217,7.645-.357v2.1c-.051,3.95-.076,9.4.1,13.518.319,7.281,2.548,21.659,2.548,21.659v7.237a10.122,10.122,0,0,0-.2,2.07,13.416,13.416,0,0,0,1.949,7.25l.554,4.829a20.006,20.006,0,0,1,1.325,5.1,2.506,2.506,0,0,1-.057.459,3.427,3.427,0,0,0-.064.739c-.07,2.191,1.274,7.441,1.274,7.441s.083,5.287.873,5.593c.675.261-.9,3.052-1.376,3.822a1.282,1.282,0,0,1-.032-.153c-.057.1-.1.159-.1.159a3.716,3.716,0,0,0-.248,1.338,1.911,1.911,0,0,0,.879,1.86c1.5.924,2.312,1.688,1.038,1.994a12.642,12.642,0,0,0-1.4.293c0-.057-.051-.121-.07-.178a.854.854,0,0,0-.5.885,3.919,3.919,0,0,0,.478,1.79,19.109,19.109,0,0,0,2.14,3.911l.637-.07a3,3,0,0,1-.357.637,2.466,2.466,0,0,1-.892.79,2.854,2.854,0,0,1-1.083.376,3.019,3.019,0,0,0-2.242,1.089c-.79,1.019-1.274,2.414.274,3.637l5.663,1.949s9.74,1.274,9.224-.917-.828-4.1-.828-4.1a8.645,8.645,0,0,0-.8-3.88,3.824,3.824,0,0,0-.344-.573l.344-.038s.713-4.829,1.663-5.733c.223-.21.274-.376.217-.5.1-.261-.146-.414-.465-.5l-.07.191a4.78,4.78,0,0,0-.943-.1s-.319-2.548.707-3.453a.974.974,0,0,0,.2-.752,4.333,4.333,0,0,0-.108-1.032l-.038.064a36.783,36.783,0,0,0-2.274-5.944,7.348,7.348,0,0,1,.554-3.224c.631-.924-.076-12.492-.076-12.492s.236-5.593-.478-8.2.873-5.676.873-5.676v-.2s-.038-.344-.1-.885v.057c-.159-1.484-.459-4.166-.682-5.4-.319-1.765.076-10.193.076-10.193l1.427-3.6,2.548,6.2,2.688,8.282a7.039,7.039,0,0,1,1.37,3.516v.261a4.157,4.157,0,0,0,0,.554,4.943,4.943,0,0,0,.822,2.949s.714,3.911,1.822,4.905a4.416,4.416,0,0,1,1.108,2.911s1.344,5.676,1.981,6.67c.535.841.561,3.147.554,3.822h0v.21s.185,2.026.178,3.733v.592a5.941,5.941,0,0,1-.166,1.376v-.2a14.182,14.182,0,0,0-.408,3.536c-.038,2.039.274,4.459,1.51,5.867,2.14,2.453,3.485,2.147,3.485,2.147s-1.032,3.064-2.3,3.682a.761.761,0,0,0-.134.083.355.355,0,0,0-.032-.178,1.5,1.5,0,0,0-.37,1.147,8.2,8.2,0,0,0,1.567,4.542,2.509,2.509,0,0,0,1.07.637l-.2.121a4.469,4.469,0,0,1-.44.21,2.076,2.076,0,0,1-.637.166,3.019,3.019,0,0,0-2.242,1.089c-.79,1.019-1.274,2.414.274,3.638l5.663,1.949S719.274,735.924,718.784,733.707Z" transform="translate(-261.093 -228.214)" fill="url(#linear-gradient)"/>
      <path id="Path_3865" data-name="Path 3865" d="M708.143,840.078l-5.485-1.949c-1.51-1.223-1.026-2.618-.261-3.638a2.886,2.886,0,0,1,2.166-1.089,2.682,2.682,0,0,0,1.051-.376,2.484,2.484,0,0,0,.866-.79,4.033,4.033,0,0,0,.637-2.121s6.02-1.758,7.645,0a4.5,4.5,0,0,1,.733,1.07,8.918,8.918,0,0,1,.765,3.88s.306,1.911.8,4.1S708.143,840.078,708.143,840.078Z" transform="translate(-287.657 -330.967)" fill="#2d293d"/>
      <path id="Path_3866" data-name="Path 3866" d="M750.254,835.877l-5.479-1.949c-1.516-1.223-1.032-2.618-.268-3.631a2.879,2.879,0,0,1,2.172-1.1,1.982,1.982,0,0,0,.637-.166,3.22,3.22,0,0,0,.42-.21,3.467,3.467,0,0,0,1.5-2.911s6.014-1.765,7.645,0a4.264,4.264,0,0,1,.573.784,8.754,8.754,0,0,1,.924,4.166s.306,1.911.8,4.1S750.254,835.877,750.254,835.877Z" transform="translate(-302.941 -329.441)" fill="#2d293d"/>
      <path id="Path_3867" data-name="Path 3867" d="M717.508,830.114a4.5,4.5,0,0,1,.733,1.07h0l-9.021,1.045a4.033,4.033,0,0,0,.637-2.121S715.864,828.356,717.508,830.114Z" transform="translate(-290.396 -330.966)" opacity="0.1"/>
      <path id="Path_3868" data-name="Path 3868" d="M759.464,826.649v1.688c-1.4,2.313-8.186,1.809-10.154.637a3.229,3.229,0,0,0,.42-.21,3.467,3.467,0,0,0,1.5-2.911s6.014-1.765,7.644,0a4.26,4.26,0,0,1,.592.8Z" transform="translate(-304.947 -329.419)" opacity="0.1"/>
      <path id="Path_3869" data-name="Path 3869" d="M740.832,765.088a15.049,15.049,0,0,0-1.077,2.3v6.058c-1.529,2.548-9.5,1.688-10.575.306s-2.223-4.982-1-5.593,2.223-3.682,2.223-3.682-1.274.306-3.37-2.147-1.453-7.893-1.07-9.2,0-5.67,0-5.67.076-3.064-.535-4.064-1.911-6.67-1.911-6.67a4.527,4.527,0,0,0-1.07-2.911c-1.07-1-1.765-4.905-1.765-4.905a5.026,5.026,0,0,1-.764-3.293,6.7,6.7,0,0,0-1.306-3.988l-2.606-8.281-2.453-6.211-1.376,3.6s-.389,8.434-.076,10.193.765,6.434.765,6.434-1.535,3.071-.841,5.676.459,8.2.459,8.2.688,11.575.076,12.5a7.393,7.393,0,0,0-.535,3.185s3.141,6.746,2.14,7.644-.688,3.453-.688,3.453,2.147,0,1.229.917-1.612,5.733-1.612,5.733l-9.282,1.172a19.624,19.624,0,0,1-2.077-3.911c-1.223-2.835.229-2.548,1.465-2.835s.452-1.07-1.007-1.994-.637-2.988-.637-2.988,2.223-3.759,1.459-4.064-.847-5.593-.847-5.593-1.529-6.288-1.147-7.969-1.229-5.733-1.229-5.733l-.535-4.829a13.276,13.276,0,0,1-1.656-9.135v-7.46s-2.147-14.41-2.459-21.659c-.191-4.663-.14-11.027-.076-15,.038-2.223.076-3.7.076-3.7l33.126-3.446a27.446,27.446,0,0,0,.605,4.918c.338,1.816.866,4.173,1.695,7.116a32.362,32.362,0,0,1,.924,14.716l-.306,10.651s2.911,7.129,2.3,9.556a20.232,20.232,0,0,0-.637,4.459s6.517,15.563,5.829,20.086,2.153,11.62,2.153,11.62S741.6,763.738,740.832,765.088Z" transform="translate(-285.238 -275.139)" fill="#464353"/>
      <path id="Path_3870" data-name="Path 3870" d="M737.22,752.674l10.053-1.344S741.59,757.153,737.22,752.674Z" transform="translate(-300.559 -302.655)" opacity="0.05"/>
      <path id="Path_3871" data-name="Path 3871" d="M749.7,735.87s.35,3.561-1.835,4.905C747.87,740.775,751.775,740.164,749.7,735.87Z" transform="translate(-304.424 -297.044)" opacity="0.1"/>
      <path id="Path_3872" data-name="Path 3872" d="M743.008,718.06s-8.422,6.938-11.467,6.37S743.008,718.06,743.008,718.06Z" transform="translate(-298.345 -290.579)" opacity="0.1"/>
      <path id="Path_3873" data-name="Path 3873" d="M713.844,758.55s-6.37,1.459-6.587,4.026S713.844,758.55,713.844,758.55Z" transform="translate(-289.681 -305.275)" opacity="0.1"/>
      <path id="Path_3874" data-name="Path 3874" d="M715.861,808.72s-9.04,1.688-6.472,2.841a43.837,43.837,0,0,0,6.784,2.064S719.084,813.778,715.861,808.72Z" transform="translate(-290.29 -323.485)" opacity="0.05"/>
      <g id="Group_193" data-name="Group 193" transform="translate(409.737 403.541)" opacity="0.05">
        <path id="Path_3875" data-name="Path 3875" d="M706.12,815.252a1.79,1.79,0,0,1-.828-1.312l-.089.166s-.847,2.064.637,2.988c.166.1.325.21.471.312.268-.051.561-.089.835-.159C708.356,816.966,707.579,816.2,706.12,815.252Z" transform="translate(-698.588 -728.92)"/>
        <path id="Path_3876" data-name="Path 3876" d="M724.825,814.18c.248-.229.236-.822.089-1.58a4.275,4.275,0,0,0-.516,2.223,1.7,1.7,0,0,1,.427-.643Z" transform="translate(-705.641 -728.434)"/>
        <path id="Path_3877" data-name="Path 3877" d="M722.517,755.22a10.547,10.547,0,0,0-.637,2.816,11.134,11.134,0,0,1,.7-1.911A5.682,5.682,0,0,0,722.517,755.22Z" transform="translate(-704.728 -707.607)"/>
        <path id="Path_3878" data-name="Path 3878" d="M755.3,748.421a3.646,3.646,0,0,0,.083-.841c-.115.573-.191,1.108-.248,1.573C755.181,748.911,755.232,748.669,755.3,748.421Z" transform="translate(-716.797 -704.834)"/>
        <path id="Path_3879" data-name="Path 3879" d="M722.42,797.031a4.823,4.823,0,0,0,.229-1.7,5.613,5.613,0,0,0-.44,2.147A2.062,2.062,0,0,1,722.42,797.031Z" transform="translate(-704.848 -722.166)"/>
        <path id="Path_3880" data-name="Path 3880" d="M718.018,820.68a30.661,30.661,0,0,0-1.051,4.708l-9.269,1.077a19.2,19.2,0,0,1-2.077-3.911,6.82,6.82,0,0,1-.261-.675c-.554.255-.777.828-.045,2.548a18.979,18.979,0,0,0,2.077,3.905l9.263-1.077s.694-4.829,1.612-5.733C718.718,821.03,718.432,820.8,718.018,820.68Z" transform="translate(-698.547 -731.367)"/>
        <path id="Path_3881" data-name="Path 3881" d="M702.183,756.027s.076,5.294.841,5.6h0c.389-.873.637-1.7.3-1.841-.764-.306-.841-5.593-.841-5.593s-1.535-6.288-1.147-7.976-1.229-5.733-1.229-5.733l-.535-4.829a13.3,13.3,0,0,1-1.688-9.122v-7.447s-2.147-14.41-2.453-21.691c-.2-4.663-.14-11.027-.076-15V680.48h-.261s-.038,1.472-.076,3.7c-.064,3.969-.121,10.339.076,15,.306,7.281,2.453,21.691,2.453,21.691v7.434a13.257,13.257,0,0,0,1.726,9.2l.535,4.829s1.612,4.058,1.223,5.733S702.183,756.027,702.183,756.027Z" transform="translate(-694.956 -680.48)"/>
        <path id="Path_3882" data-name="Path 3882" d="M748.088,824.434a8.92,8.92,0,0,1-1.465-3.644c-.949.854.14,4.173,1.159,5.485s9.046,2.223,10.581-.312V824.5C756.286,826.562,749.107,825.74,748.088,824.434Z" transform="translate(-713.576 -731.406)"/>
        <path id="Path_3883" data-name="Path 3883" d="M766.81,812.87a15.331,15.331,0,0,0-1.07,2.3v1.077c.172-.395.42-.917.764-1.535a4.643,4.643,0,0,0,.338-1.911Z" transform="translate(-720.648 -728.506)"/>
        <path id="Path_3884" data-name="Path 3884" d="M747.37,808.357a14.746,14.746,0,0,0,.758-1.822s-1.274.306-3.376-2.147c-1.5-1.784-1.586-5.154-1.376-7.358-.382,1.306-1,6.746,1.07,9.2A5.4,5.4,0,0,0,747.37,808.357Z" transform="translate(-712.388 -722.783)"/>
        <path id="Path_3885" data-name="Path 3885" d="M735.887,764.128a42.1,42.1,0,0,1,.153,4.542c.051-.3.108-.542.153-.714.389-1.274,0-5.67,0-5.67s.076-3.071-.535-4.064-1.911-6.67-1.911-6.67a4.527,4.527,0,0,0-1.07-2.911c-1.07-1-1.765-4.905-1.765-4.905a5.027,5.027,0,0,1-.771-3.293,6.719,6.719,0,0,0-1.274-3.988l-2.606-8.281L723.777,722l-1.382,3.6s0,.452-.045,1.166l1.121-2.924,2.453,6.2,2.606,8.282a6.557,6.557,0,0,1,1.274,3.982,5.039,5.039,0,0,0,.8,3.262s.688,3.905,1.758,4.905a4.55,4.55,0,0,1,1.077,2.911s1.274,5.67,1.911,6.67S735.887,764.128,735.887,764.128Z" transform="translate(-704.899 -695.55)"/>
      </g>
      <path id="Path_3886" data-name="Path 3886" d="M749.4,562.67l-.573,2.8.032,1.274v.917l-3.185.331-.357-.637h0a27.113,27.113,0,0,0-2.484-4.013c-.592-.5-1.644-8.282-.382-7.817a3.338,3.338,0,0,1,1.784,1.612S750.536,557.8,749.4,562.67Z" transform="translate(-302.242 -231.58)" fill="#ffcdd3"/>
      <path id="Path_3887" data-name="Path 3887" d="M750.872,573.819l-3.185.331-.357-.637h0a2.816,2.816,0,0,1,3.529-.58Z" transform="translate(-304.228 -237.767)" opacity="0.1"/>
      <path id="Path_3888" data-name="Path 3888" d="M751.562,575.493l-4.211.981-.089-.637-.242-1.688a2.9,2.9,0,0,1,4.083-.561l.21.86Z" transform="translate(-304.116 -237.925)" fill="#dce6f2"/>
      <path id="Path_3889" data-name="Path 3889" d="M641.092,559.57l-4.5,2.421-.408-.854c-.433-.9-1.07-2.249-1.274-2.733-.268-.745-2.147-1.688-2.147-1.688-4.714-4.5.9-8.371.9-8.371,2.975-5.982,6.288,2.026,6.288,2.026s.459,4.224.134,4.5-.325,1.44-.325,1.44a17.506,17.506,0,0,1,1.089,2.548C641.022,559.309,641.092,559.57,641.092,559.57Z" transform="translate(-261.962 -228.175)" fill="#ffcdd3"/>
      <path id="Path_3890" data-name="Path 3890" d="M644.115,566.826l-4.5,2.421-.408-.854c.637-.529,2.886-2.357,3.625-2.274a5.279,5.279,0,0,0,1.07,0C644.045,566.564,644.115,566.826,644.115,566.826Z" transform="translate(-264.985 -235.43)" opacity="0.1"/>
      <path id="Path_3891" data-name="Path 3891" d="M644.65,568.363l-5.058,2.491-.1-1.089-.07-.745s2.93-2.516,3.822-2.421a4.7,4.7,0,0,0,1.325,0l.057.911Z" transform="translate(-265.061 -235.604)" fill="#dce6f2"/>
      <path id="Path_3892" data-name="Path 3892" d="M723.937,586.188s-22.061,2.491-17.939,1.153c2.873-.936,4.013-2.758,4.255-4.784a11.651,11.651,0,0,0-.822-5.1,22.149,22.149,0,0,0-1.975-3.988s16.863-9.275,13.493-.841a13.221,13.221,0,0,0-.956,3.994,11.264,11.264,0,0,0,.427,4.039A12.047,12.047,0,0,0,723.937,586.188Z" transform="translate(-289.04 -236.509)" fill="#ffcdd3"/>
      <path id="Path_3893" data-name="Path 3893" d="M722.073,572.626a13.224,13.224,0,0,0-.956,3.994c-1.593,1.331-3.332,1.274-5.568,1.274-1.72,0-3.625.42-4.995-.408a22.141,22.141,0,0,0-1.975-3.988S725.443,564.191,722.073,572.626Z" transform="translate(-290.163 -236.51)" opacity="0.1"/>
      <circle id="Ellipse_209" data-name="Ellipse 209" cx="9.122" cy="9.122" r="9.122" transform="translate(415.964 323.7)" fill="#ffcdd3"/>
      <path id="Path_3894" data-name="Path 3894" d="M723.937,592.239S701.876,594.73,706,593.392c2.873-.936,4.013-2.758,4.255-4.784a11.972,11.972,0,0,1,4.721-2.5,6.581,6.581,0,0,1,3.994-.064,5.324,5.324,0,0,1,1.452.637A12.047,12.047,0,0,0,723.937,592.239Z" transform="translate(-289.04 -242.561)" opacity="0.1"/>
      <path id="Path_3895" data-name="Path 3895" d="M751.7,576.24l-4.211.981-.089-.637a3.72,3.72,0,0,1,4.052-1.389Z" transform="translate(-304.253 -238.672)" opacity="0.1"/>
      <path id="Path_3896" data-name="Path 3896" d="M644.69,568.884l-5.058,2.491-.1-1.089a37.221,37.221,0,0,1,5.1-2.255Z" transform="translate(-265.101 -236.125)" opacity="0.1"/>
      <path id="Path_3897" data-name="Path 3897" d="M728.9,680.388c-8.543,1.344-20.7,3.1-22.634,2.516-1.6-.491-6.708-.44-11.161-.287.038-2.223.076-3.7.076-3.7L728.3,675.47A27.433,27.433,0,0,0,728.9,680.388Z" transform="translate(-285.271 -275.121)" opacity="0.1"/>
      <path id="Path_3898" data-name="Path 3898" d="M716.483,639.512s-28.132,4.829-31.151,3.905-18.519.083-18.519.083c-6.976,4.67-4.058-2.223-4.058-2.223a16.623,16.623,0,0,1,.229-6.517,39.909,39.909,0,0,0,1.147-6.517s-.153-4.6.688-5.67,1.841-8.74,1.841-8.74.771-5.211.694-6.37.229-4.364.229-4.364l.994-5.37c-5.733-.765-23.227-11.5-23.227-11.5-.841-3.6-7.358-12.034-7.358-12.034a8.873,8.873,0,0,0-.535-2.07c-.459-1.223,6.44-3.676,6.44-3.676s5.135,6.288,6.2,7.969a35.077,35.077,0,0,0,4.752,4.829,3.714,3.714,0,0,1,1.688.223h.089a13.6,13.6,0,0,1,3.427,1.968,6.644,6.644,0,0,1,4.676,1.765s3.147-.459,3.682.076,3.185,0,3.185,0,2.688-5.67,4.459-4.026,9.244,1.573,9.244,1.573c1-1.325,3.421-2.274,4.943-2.765a6.581,6.581,0,0,1,3.994-.064,4.944,4.944,0,0,1,1.58.764l4.536,4.459s1.274-1.688,1.153-2.07,1.535-.688,1.535-.688,2.223-.688,3.064-.924,1.618.688,1.682.764a8.977,8.977,0,0,1-.382-3.37,3.822,3.822,0,0,0-.917-2.758c2.707-6.549,8.766-1.007,8.766-1.007s.688,3.6.076,4.982.637,4.294.459,5.058.306,2.07.306,3.523a20.958,20.958,0,0,1-1.223,5.447c-.465,1.223-4.141,3.982-4.141,3.982s-.229,4.37-1.841,6.9-.637,11.193-.637,11.193,1.529,6.746,3.446,8.919S716.483,639.512,716.483,639.512Z" transform="translate(-264.341 -236.277)" fill="#3f3d56"/>
      <path id="Path_3899" data-name="Path 3899" d="M694.965,598.191s-.841-2.548-1.612-2.765a18.141,18.141,0,0,1-2.223-.994l.5-.943s2.879.79,3.338,1.631S694.965,598.191,694.965,598.191Z" transform="translate(-283.83 -245.366)" opacity="0.1"/>
      <path id="Path_3900" data-name="Path 3900" d="M669.029,590.94c-.153.771-6.969,1.459-6.969,1.459l3.446-3.459h0l.089.032h0A13.6,13.6,0,0,1,669.029,590.94Z" transform="translate(-273.279 -243.714)" opacity="0.1"/>
      <circle id="Ellipse_210" data-name="Ellipse 210" cx="0.612" cy="0.612" r="0.612" transform="translate(375.378 336.097)" fill="#575988"/>
      <circle id="Ellipse_211" data-name="Ellipse 211" cx="0.612" cy="0.612" r="0.612" transform="translate(376.161 337.326)" fill="#575988"/>
      <circle id="Ellipse_212" data-name="Ellipse 212" cx="0.612" cy="0.612" r="0.612" transform="translate(376.932 338.454)" fill="#575988"/>
      <circle id="Ellipse_213" data-name="Ellipse 213" cx="0.612" cy="0.612" r="0.612" transform="translate(377.735 339.683)" fill="#575988"/>
      <circle id="Ellipse_214" data-name="Ellipse 214" cx="0.497" cy="0.497" r="0.497" transform="translate(450.103 339.728)" fill="#575988"/>
      <circle id="Ellipse_215" data-name="Ellipse 215" cx="0.497" cy="0.497" r="0.497" transform="translate(450.18 340.862)" fill="#575988"/>
      <circle id="Ellipse_216" data-name="Ellipse 216" cx="0.497" cy="0.497" r="0.497" transform="translate(450.243 341.99)" fill="#575988"/>
      <path id="Path_3901" data-name="Path 3901" d="M697.21,633.47c-.07-.089,17.2,21.73,30.623,9.122C727.833,642.592,706.632,645.465,697.21,633.47Z" transform="translate(-286.037 -259.877)" opacity="0.1"/>
      <path id="Path_3902" data-name="Path 3902" d="M681.63,651.28s10.339.28,11.422,3.255v3.1a1.981,1.981,0,0,1-1.911,0c-1.045-.561-7.294-3.74-9.5-2.211Z" transform="translate(-280.382 -266.341)" opacity="0.1"/>
      <path id="Path_3903" data-name="Path 3903" d="M681.93,651.28s9.887.268,10.925,3.1v2.956a1.911,1.911,0,0,1-1.841,0c-1-.541-7.008-3.567-9.084-2.109Z" transform="translate(-280.491 -266.341)" fill="#3f3d56"/>
      <path id="Path_3904" data-name="Path 3904" d="M690.49,616a33.308,33.308,0,0,0,4.007,6.874,26.853,26.853,0,0,0,6.281,6.065S690.662,617.446,690.49,616Z" transform="translate(-283.598 -253.536)" opacity="0.1"/>
      <path id="Path_3905" data-name="Path 3905" d="M685.18,597.18s1.726,7.447,6.167,9.976Z" transform="translate(-281.67 -246.705)" opacity="0.1"/>
      <path id="Path_3906" data-name="Path 3906" d="M680.912,598.359c-.045-.14-1.535,5.886,5.733,9.224C686.645,607.583,683.574,606.538,680.912,598.359Z" transform="translate(-280.065 -247.132)" opacity="0.1"/>
      <path id="Path_3907" data-name="Path 3907" d="M751.9,590.517a53.355,53.355,0,0,1,4.587,3.446S754.084,590.364,751.9,590.517Z" transform="translate(-305.885 -244.285)" opacity="0.1"/>
      <path id="Path_3908" data-name="Path 3908" d="M710.859,570.708a1.943,1.943,0,0,0,.707,1.236,1.993,1.993,0,0,0,.86.191c2.784.172,5.676.293,8.282-.777a3.084,3.084,0,0,0,1.274-.834,4.963,4.963,0,0,0,.675-2.007,31.28,31.28,0,0,1,1.688-3.873,13.015,13.015,0,0,0,.9-6.956,4.656,4.656,0,0,0-.694-2.039c-.739-1.051-2.083-1.478-3.058-2.319s-1.605-2.121-2.739-2.752a5.326,5.326,0,0,0-3.44-.306,18.176,18.176,0,0,0-6.421,2.414,3.18,3.18,0,0,1-2.147.733,2.949,2.949,0,0,1-1.58-1.21,8.484,8.484,0,0,0-.682,3.969,1.174,1.174,0,0,1-.427,1.236c-.688.8-1.115,2.058-.44,2.86.3.35.752.542,1.038.9.516.637.338,1.561.325,2.383a1.274,1.274,0,0,0,.2.809,1.185,1.185,0,0,0,1.128.268,3.082,3.082,0,0,1,1.2-.115,2.019,2.019,0,0,1,1.045.8A14.565,14.565,0,0,1,710.859,570.708Z" transform="translate(-288.238 -229.623)" fill="#2d293d"/>
      <g id="Group_194" data-name="Group 194" transform="translate(414.974 322.49)" opacity="0.1">
        <path id="Path_3909" data-name="Path 3909" d="M722.175,574.161a3.013,3.013,0,0,1-1.274.828c-2.548,1.077-5.466.949-8.243.777a1.874,1.874,0,0,1-.86-.191,1.911,1.911,0,0,1-.713-1.229,14.218,14.218,0,0,0-2.325-5.4,1.988,1.988,0,0,0-1.045-.8,3.084,3.084,0,0,0-1.2.115,1.185,1.185,0,0,1-1.128-.268,1.236,1.236,0,0,1-.2-.809c0-.822.185-1.745-.331-2.383-.287-.357-.739-.548-1.038-.9a1.8,1.8,0,0,1-.172-1.835,2.1,2.1,0,0,0-.134,2.446c.3.35.752.541,1.038.9.516.637.338,1.561.325,2.383a1.274,1.274,0,0,0,.2.809,1.178,1.178,0,0,0,1.128.268,3.084,3.084,0,0,1,1.2-.115,2.019,2.019,0,0,1,1.045.8,14.466,14.466,0,0,1,2.325,5.4,1.943,1.943,0,0,0,.707,1.236,1.994,1.994,0,0,0,.86.191c2.784.172,5.676.293,8.282-.777a3.127,3.127,0,0,0,1.274-.834,2.426,2.426,0,0,0,.4-.739A.459.459,0,0,1,722.175,574.161Z" transform="translate(-703.176 -556.451)"/>
        <path id="Path_3910" data-name="Path 3910" d="M705.153,557.671a1.273,1.273,0,0,0,.28-.465,1.913,1.913,0,0,0,0-.6,8.409,8.409,0,0,1,.427-3.3l-.051-.057a8.409,8.409,0,0,0-.682,3.969A2.683,2.683,0,0,1,705.153,557.671Z" transform="translate(-703.877 -553.25)"/>
      </g>
      <path id="Path_3911" data-name="Path 3911" d="M712.62,591s11.4,1.51,12.422-.2" transform="translate(-291.63 -244.389)" opacity="0.1"/>
      <path id="Path_3912" data-name="Path 3912" d="M747.4,583.72s6.326,0,7.721,2.383" transform="translate(-304.253 -241.82)" opacity="0.1"/>
    </g>
  </g>
</svg>
