<svg xmlns="http://www.w3.org/2000/svg" width="64.211" height="74.207" viewBox="0 0 64.211 74.207">
  <g id="settings" transform="translate(-5.043 2.5)">
    <g id="Group_6" data-name="Group 6" transform="translate(5.75 46.718)">
      <g id="Group_5" data-name="Group 5">
        <path id="Path_2" data-name="Path 2" d="M49.668,54.607H20.551a1.165,1.165,0,0,0-.823.341L5.75,68.924,7.4,70.571,21.033,56.936H48.387c-.242,1.383-1,3.494-3.378,3.494H32.2V62.76H45.009c4.606,0,5.824-4.572,5.824-6.988A1.165,1.165,0,0,0,49.668,54.607Z" transform="translate(-5.75 -54.607)" fill="#4b3c99" stroke="#4b3c99" stroke-width="1"/>
      </g>
    </g>
    <g id="Group_8" data-name="Group 8" transform="translate(18.094 37.565)">
      <g id="Group_7" data-name="Group 7" transform="translate(0)">
        <path id="Path_3" data-name="Path 3" d="M66.587,45.147a1.165,1.165,0,0,0-1.647,0L54.458,55.629l1.647,1.647,9.567-9.567a4.965,4.965,0,0,1-.731,6.755L51.305,68.1H27.328a1.165,1.165,0,0,0-.823.341l-8.153,8.153L20,78.241l7.812-7.812H51.787a1.165,1.165,0,0,0,.823-.341L66.587,56.111C70.925,51.774,68.484,47.043,66.587,45.147Z" transform="translate(-18.352 -44.806)" fill="#4b3c99" stroke="#4b3c99" stroke-width="1"/>
      </g>
    </g>
    <g id="Group_10" data-name="Group 10" transform="translate(15.75)">
      <g id="Group_9" data-name="Group 9" transform="translate(1 -2)">
        <path id="Path_4" data-name="Path 4" d="M60.107,16.306H55.921a16.2,16.2,0,0,0-1.28-3.085L57.6,10.259a1.165,1.165,0,0,0,0-1.647L52.66,3.67a1.165,1.165,0,0,0-1.647,0L48.051,6.632a16.153,16.153,0,0,0-3.085-1.281V1.165A1.165,1.165,0,0,0,43.8,0H36.813a1.165,1.165,0,0,0-1.165,1.165V5.351a16.153,16.153,0,0,0-3.085,1.281L29.6,3.67a1.165,1.165,0,0,0-1.647,0L23.011,8.612a1.165,1.165,0,0,0,0,1.647l2.963,2.962a16.217,16.217,0,0,0-1.281,3.085H20.507a1.165,1.165,0,0,0-1.165,1.165v6.988a1.165,1.165,0,0,0,1.165,1.165h4.186a16.2,16.2,0,0,0,1.28,3.085l-2.962,2.962a1.165,1.165,0,0,0,0,1.647l4.943,4.943a1.2,1.2,0,0,0,1.647,0L32.563,35.3a16.218,16.218,0,0,0,3.085,1.281v4.186a1.165,1.165,0,0,0,1.165,1.165H43.8a1.165,1.165,0,0,0,1.165-1.165V36.579a16.226,16.226,0,0,0,3.085-1.28l2.962,2.962a1.164,1.164,0,0,0,1.647,0L57.6,33.318a1.165,1.165,0,0,0,0-1.647L54.64,28.709a16.217,16.217,0,0,0,1.281-3.085h4.186a1.165,1.165,0,0,0,1.165-1.165V17.471A1.165,1.165,0,0,0,60.107,16.306Zm-1.165,6.988H55.028a1.165,1.165,0,0,0-1.133.9,13.937,13.937,0,0,1-1.7,4.1,1.165,1.165,0,0,0,.168,1.436l2.771,2.77-3.3,3.3-2.77-2.772a1.165,1.165,0,0,0-1.436-.168,13.9,13.9,0,0,1-4.1,1.7,1.165,1.165,0,0,0-.9,1.133V39.6H37.977V35.687a1.165,1.165,0,0,0-.9-1.133,13.9,13.9,0,0,1-4.1-1.7,1.165,1.165,0,0,0-1.436.168l-2.77,2.772-3.3-3.3,2.771-2.772a1.165,1.165,0,0,0,.168-1.436,13.939,13.939,0,0,1-1.7-4.1,1.165,1.165,0,0,0-1.133-.9H21.671V18.634h3.914a1.165,1.165,0,0,0,1.133-.9,13.939,13.939,0,0,1,1.7-4.1,1.165,1.165,0,0,0-.168-1.436l-2.771-2.77L28.776,6.14l2.771,2.771a1.165,1.165,0,0,0,1.436.168,13.86,13.86,0,0,1,4.1-1.7,1.165,1.165,0,0,0,.9-1.133V2.329h4.659V6.245a1.165,1.165,0,0,0,.9,1.133,13.86,13.86,0,0,1,4.1,1.7,1.165,1.165,0,0,0,1.436-.168l2.77-2.771,3.3,3.294-2.771,2.771a1.165,1.165,0,0,0-.168,1.436,13.939,13.939,0,0,1,1.7,4.1,1.165,1.165,0,0,0,1.133.9h3.915Z" transform="translate(-19.342)" fill="#4b3c99" stroke="#4b3c99" stroke-width="1"/>
      </g>
    </g>
    <g id="Group_12" data-name="Group 12" transform="translate(30.75 12)">
      <g id="Group_11" data-name="Group 11" transform="translate(0)">
        <path id="Path_5" data-name="Path 5" d="M43.132,16.8a6.988,6.988,0,1,0,6.988,6.988A6.988,6.988,0,0,0,43.132,16.8Zm0,11.647a4.659,4.659,0,1,1,4.659-4.659A4.659,4.659,0,0,1,43.132,28.449Z" transform="translate(-36.144 -16.802)" fill="#4b3c99" stroke="#4b3c99" stroke-width="1"/>
      </g>
    </g>
  </g>
</svg>
