<svg id="django" xmlns="http://www.w3.org/2000/svg" width="91.998" height="32.142" viewBox="0 0 91.998 32.142">
  <path id="Path_5196" data-name="Path 5196" d="M10.847,0h5.031V23.288a33.187,33.187,0,0,1-6.534.686C3.2,23.974,0,21.2,0,15.872c0-5.129,3.4-8.461,8.658-8.461a8.045,8.045,0,0,1,2.189.261Zm0,11.723a5,5,0,0,0-1.7-.261c-2.548,0-4.019,1.568-4.019,4.312,0,2.679,1.4,4.149,3.986,4.149a11.715,11.715,0,0,0,1.732-.13Z" fill="#092e20"/>
  <path id="Path_5197" data-name="Path 5197" d="M76,7.87V19.533c0,4.019-.294,5.946-1.176,7.612A8.044,8.044,0,0,1,70.7,30.87l-4.672-2.222c2.222-1.046,3.3-1.96,3.986-3.365.719-1.437.948-3.1.948-7.481V7.87ZM70.966.127H76V5.289H70.966Zm8.07,8.886a15.137,15.137,0,0,1,6.665-1.5c2.581,0,4.28.686,5.031,2.025.424.751.555,1.731.555,3.823V23.584a55.365,55.365,0,0,1-7.187.556c-4.214,0-6.11-1.471-6.11-4.737,0-3.529,2.516-5.162,8.69-5.685V12.607c0-.915-.457-1.241-1.732-1.241A13.176,13.176,0,0,0,79.036,12.9V9.013Zm7.874,8c-3.333.327-4.411.849-4.411,2.156,0,.98.621,1.437,1.993,1.437a13.88,13.88,0,0,0,2.418-.228Zm6.828-8.364a30.173,30.173,0,0,1,7.906-1.143c2.581,0,4.443.588,5.554,1.731,1.045,1.078,1.372,2.254,1.372,4.77v9.866h-5.031v-9.67c0-1.927-.653-2.647-2.45-2.647a7.579,7.579,0,0,0-2.32.359V23.878H93.738Zm16.788,17.969a11.451,11.451,0,0,0,5.391,1.339c3.3,0,4.7-1.339,4.7-4.541v-.1a6.883,6.883,0,0,1-3.267.686c-4.411,0-7.221-2.908-7.221-7.514,0-5.718,4.149-8.952,11.5-8.952a31.758,31.758,0,0,1,6.567.718l-1.723,3.629c-1.339-.261-.107-.035-1.12-.133v.523l.065,2.123.032,2.745c.033.686.033,1.372.066,2.058v1.372c0,4.312-.359,6.338-1.437,8-1.568,2.451-4.28,3.659-8.135,3.659a14.392,14.392,0,0,1-5.423-.98V26.623Zm10-15.028H120a5.5,5.5,0,0,0-2.908.718A3.9,3.9,0,0,0,115.264,16c0,2.516,1.242,3.953,3.463,3.953a6.241,6.241,0,0,0,1.895-.327V17.9c0-.588-.032-1.242-.032-1.928l-.032-2.319-.033-1.666v-.392Zm15.488-4.149c5.031,0,8.1,3.169,8.1,8.3,0,5.26-3.2,8.56-8.3,8.56-5.031,0-8.135-3.169-8.135-8.266,0-5.293,3.2-8.592,8.331-8.592Zm-.1,12.807c1.928,0,3.071-1.6,3.071-4.378,0-2.744-1.111-4.378-3.038-4.378-1.993,0-3.137,1.6-3.137,4.378S133.953,20.252,135.913,20.252Z" transform="translate(-52.116 -0.1)" fill="#092e20"/>
</svg>
