<svg xmlns="http://www.w3.org/2000/svg" width="78.556" height="90.647" viewBox="0 0 78.556 90.647">
  <g id="drupal" transform="translate(-0.91 -0.664)">
    <path id="Path_5222" data-name="Path 5222" d="M26.75,15.231C10.891,21.967.91,35.178.91,52.151a39.278,39.278,0,0,0,78.556,0c0-26.081-24.233-36.45-24.233-36.45A61.515,61.515,0,0,1,46.98,11.53S43.242,9.245,36.725.833c0,0,.148,9.558-9.974,14.4" transform="translate(0 -0.117)" fill="#136da9"/>
    <path id="Path_5223" data-name="Path 5223" d="M113.973,263.291c-1.379-.959-1.051-4.012,2.687-1.83,0,0,7.96,5.846,20.563-1.168.98-.545,2.181,1.379-.935,3.142C136.288,263.435,123.553,269.951,113.973,263.291Z" transform="translate(-77.715 -179.582)" fill="#f0f0f0"/>
    <path id="Path_5224" data-name="Path 5224" d="M113.973,263.291c-1.379-.959-1.051-4.012,2.687-1.83,0,0,7.96,5.846,20.563-1.168.98-.545,2.181,1.379-.935,3.142C136.288,263.435,123.553,269.951,113.973,263.291Z" transform="translate(-77.715 -179.582)" fill="none" stroke="#fffdff" stroke-width="1"/>
    <path id="Path_5225" data-name="Path 5225" d="M149.175,233.058c4.635.543,3.041,2.771,4.284,3.115,2.531.7,1.441-2.064,1.441-2.064-1.87-3.739-5.1-3.5-5.1-3.5-5.063-.779-8.84,4.05-8.84,4.05-.935,2.064.373,2.17.856,1.947C144.268,235.472,145.76,232.657,149.175,233.058Z" transform="translate(-96.677 -159.046)" fill="#f0f0f0"/>
    <path id="Path_5226" data-name="Path 5226" d="M149.175,233.058c4.635.543,3.041,2.771,4.284,3.115,2.531.7,1.441-2.064,1.441-2.064-1.87-3.739-5.1-3.5-5.1-3.5-5.063-.779-8.84,4.05-8.84,4.05-.935,2.064.373,2.17.856,1.947C144.268,235.472,145.76,232.657,149.175,233.058Z" transform="translate(-96.677 -159.046)" fill="none" stroke="#fffdff" stroke-width="1"/>
    <path id="Path_5227" data-name="Path 5227" d="M6.359,72.485S20.443,84.137,54.714,58.178c0,0,17.214-10.806,16.7-29.335A39.552,39.552,0,0,0,56.44,16.709c-1.337-.587-13.082-7-19.425-15.033,0,0-1.15,23.315-31.012,32.52,0,0-7.525,11.1-3.423,29.137,0,0,2.626,7.313,3.779,9.151" transform="translate(-0.308 -0.7)" fill="#008ece"/>
    <path id="Path_5228" data-name="Path 5228" d="M66.759,192.785s-11.684.311-10.281-12.151c0,0,2.44-14.02,18.849-10.9,0,0,3.584.779,10.282,5.92,0,0,4.42,3.408,6.854,3.344,0,0,1.889.181,5.816-2.3,0,0,8.009-6.181,10.809-6,.07,0,5.651-.61,5.651,8.386,0,0,.1,9.918-7.373,13.241,0,0-1.973.675-4.1-1.558,0,0-6.127-6.958-9.139-8.1a6.152,6.152,0,0,0-4.05.156s-1.506.156-7.685,4.258c0,0-10.386,6.491-15.631,5.712Z" transform="translate(-38.369 -116.671)" fill="#f0f0f0"/>
    <path id="Path_5229" data-name="Path 5229" d="M66.759,192.785s-11.684.311-10.281-12.151c0,0,2.44-14.02,18.849-10.9,0,0,3.584.779,10.282,5.92,0,0,4.42,3.408,6.854,3.344,0,0,1.889.181,5.816-2.3,0,0,8.009-6.181,10.809-6,.07,0,5.651-.61,5.651,8.386,0,0,.1,9.918-7.373,13.241,0,0-1.973.675-4.1-1.558,0,0-6.127-6.958-9.139-8.1a6.152,6.152,0,0,0-4.05.156s-1.506.156-7.685,4.258c0,0-10.386,6.491-15.631,5.712Z" transform="translate(-38.369 -116.671)" fill="none" stroke="#fffdff" stroke-width="1"/>
    <path id="Path_5230" data-name="Path 5230" d="M45.315,31.405C52.879,20.57,47.451.664,47.451.664a16.683,16.683,0,0,1-9.78,14.365C21.355,22.071,16.439,33.184,16.439,33.184c3.5,4.958,12.778,21.276,28.876-1.779" transform="translate(-10.745 0)" fill="#008ece"/>
    <path id="Path_5231" data-name="Path 5231" d="M49.058.664s.979,9.088-3.954,12.047c0,0-7.911,3.683-10.326,4.89,0,0-10.159,6.132-13.508,11.9,0,0-7.166,9.589,2.726,7.322,0,0,17.889-5.05,25.159-20.291a2.644,2.644,0,0,0-.936-2.609S53.673,9.8,49.058.664" transform="translate(-12.352)" fill="#a0d8f1"/>
    <path id="Path_5232" data-name="Path 5232" d="M50.476.664a15.858,15.858,0,0,1-4.743,11.347s-1.547,2.18-9.537,5.59c0,0-9.146,4.769-13.247,11.382,0,0-6.077,7.331,2.256,5.365,0,0,16.884-6.222,23.071-17.649a1.872,1.872,0,0,0-.437-2.438S53.9,9.531,50.476.664" transform="translate(-13.77 0)" fill="#f0f0f0"/>
  </g>
</svg>
