<svg xmlns="http://www.w3.org/2000/svg" xmlns:xlink="http://www.w3.org/1999/xlink" width="25.982" height="31.533" viewBox="0 0 25.982 31.533">
  <defs>
    <linearGradient id="linear-gradient" x1="0.5" x2="0.5" y2="1" gradientUnits="objectBoundingBox">
      <stop offset="0" stop-color="#ff4b70"/>
      <stop offset="1" stop-color="#7c4dff"/>
    </linearGradient>
  </defs>
  <g id="layer1" transform="translate(-3 -1020.829)">
    <g id="g9279" transform="translate(-185 -620.02)">
      <path id="path6433" d="M16.75.469a.517.517,0,0,0-.406.5v1.25A6.671,6.671,0,0,0,15,2.781l-.875-.906a.52.52,0,0,0-.719,0l-2,2a.52.52,0,0,0,0,.719l.906.875a6.677,6.677,0,0,0-.562,1.344H10.5a.52.52,0,0,0-.5.5V8.969Q10,8.984,10,9H7.844L7.219,6.375C7.136,6.065,7,6,6.563,6H3V7H6.344L9.813,21.594a.5.5,0,0,0,.063.125v.031a.5.5,0,0,0,.031.063l.875,3.781a3.277,3.277,0,1,0,3.281.844h6.313a3.287,3.287,0,1,0,2.844-.937c-3.373,0-7.659-.062-11.437-.062L10.969,22H24.875a.516.516,0,0,0,.5-.375l3.594-12A.523.523,0,0,0,28.5,9h-2q0-.016,0-.031V7.313a.52.52,0,0,0-.5-.5H24.75a6.67,6.67,0,0,0-.562-1.344l.906-.875a.52.52,0,0,0,0-.719l-2-2a.52.52,0,0,0-.719,0l-.875.906a6.676,6.676,0,0,0-1.344-.562V.969a.52.52,0,0,0-.5-.5H16.844A.5.5,0,0,0,16.75.469Zm.594,1h1.813V2.531a.517.517,0,0,0,.406.5,5.7,5.7,0,0,1,1.781.75.516.516,0,0,0,.625-.062l.781-.75L24,4.219,23.25,5a.514.514,0,0,0-.062.594,5.862,5.862,0,0,1,.75,1.813.517.517,0,0,0,.5.406H25.5V8.969q0,.016,0,.031H11q0-.016,0-.031V7.813h1.063a.517.517,0,0,0,.5-.406,5.7,5.7,0,0,1,.75-1.781A.516.516,0,0,0,13.25,5l-.75-.781,1.25-1.25.781.75a.514.514,0,0,0,.594.063,5.861,5.861,0,0,1,1.813-.75.517.517,0,0,0,.406-.5Zm.906,3.25a4.008,4.008,0,0,0-4,4c0,.086.026.166.031.25h1c-.007-.084-.031-.164-.031-.25a3,3,0,0,1,6,0c0,.086-.024.166-.031.25h1c0-.084.031-.164.031-.25A4.008,4.008,0,0,0,18.25,4.719ZM8.094,10h19.75l-.594,2H15v1H26.938l-.625,2H17v1h9.031l-.625,2H19v1h6.125L24.5,21H10.719Zm3.625,16.438a2.281,2.281,0,1,1-2.281,2.281,2.276,2.276,0,0,1,2.281-2.281Zm11,0a2.281,2.281,0,1,1-2.281,2.281,2.276,2.276,0,0,1,2.281-2.281Zm-11,.75a1.5,1.5,0,1,0,1.5,1.5A1.508,1.508,0,0,0,11.719,27.188Zm11,0a1.5,1.5,0,1,0,1.5,1.5A1.508,1.508,0,0,0,22.719,27.188Zm-11,1a.5.5,0,1,1-.5.5A.493.493,0,0,1,11.719,28.188Zm11,0a.5.5,0,1,1-.5.5A.493.493,0,0,1,22.719,28.188Z" transform="translate(185 1640.382)" fill="url(#linear-gradient)"/>
    </g>
  </g>
</svg>
