<svg xmlns="http://www.w3.org/2000/svg" width="92.091" height="26.671" viewBox="0 0 92.091 26.671">
  <path id="express" d="M.6,20.8V10.549H13.4v-.6H.6V.6H14.2V0H0V21.4H14.324v-.6H.6Zm25.263-14.8-5.3,6.983L15.373,5.994h-.779l5.6,7.432L14.055,21.4h.719l5.784-7.522L26.371,21.4h.749l-6.173-7.971,5.634-7.432h-.719Zm3.057,20.678V17.082h.06a6.155,6.155,0,0,0,2.128,3.371,6.264,6.264,0,0,0,4.046,1.274,5.855,5.855,0,0,0,4.87-2.4,8.161,8.161,0,0,0,1.259-2.577,10.825,10.825,0,0,0,.435-3.086,10.912,10.912,0,0,0-.45-3.207,7.676,7.676,0,0,0-1.3-2.547,5.992,5.992,0,0,0-2.068-1.678,6.109,6.109,0,0,0-2.742-.6,6.65,6.65,0,0,0-2.173.345,5.816,5.816,0,0,0-1.783.974,6.6,6.6,0,0,0-1.349,1.483,6.831,6.831,0,0,0-.869,1.873h-.06V5.993h-.6V26.671h.6Zm6.233-5.514a5.744,5.744,0,0,1-4.525-1.933,8.137,8.137,0,0,1-1.708-5.559,9.529,9.529,0,0,1,.42-2.847,7.373,7.373,0,0,1,1.214-2.367,5.828,5.828,0,0,1,1.963-1.618,5.7,5.7,0,0,1,2.637-.6,5.49,5.49,0,0,1,2.622.6,5.315,5.315,0,0,1,1.858,1.633,7.6,7.6,0,0,1,1.109,2.367,10.431,10.431,0,0,1,.374,2.832,10.673,10.673,0,0,1-.345,2.682,7.668,7.668,0,0,1-1.064,2.4,5.79,5.79,0,0,1-1.843,1.738,5.179,5.179,0,0,1-2.712.674Zm9.859.24V12.676a8.5,8.5,0,0,1,.36-2.457A6.018,6.018,0,0,1,46.48,8.106a5.2,5.2,0,0,1,1.9-1.439,5.776,5.776,0,0,1,2.742-.435v-.6a7.425,7.425,0,0,0-2.412.3,5.858,5.858,0,0,0-1.783.9,4.593,4.593,0,0,0-1.2,1.334A5.963,5.963,0,0,0,45.071,9.8h-.06V5.993h-.6V21.4h.6Zm6.863-7.582H64.76a10.665,10.665,0,0,0-.315-3.057,7.6,7.6,0,0,0-1.2-2.607,6.1,6.1,0,0,0-2.128-1.828,6.55,6.55,0,0,0-3.1-.689,6.307,6.307,0,0,0-4.675,2.113,7.983,7.983,0,0,0-1.5,2.532,9.57,9.57,0,0,0-.569,3.416,12.529,12.529,0,0,0,.39,3.192,7.477,7.477,0,0,0,1.2,2.577,5.409,5.409,0,0,0,2.083,1.693,6.891,6.891,0,0,0,3.072.569,6.739,6.739,0,0,0,4.435-1.483,6.139,6.139,0,0,0,2.128-4.181h-.6a5.762,5.762,0,0,1-1.993,3.821,6.277,6.277,0,0,1-4.031,1.274,6.188,6.188,0,0,1-2.787-.569,5.05,5.05,0,0,1-1.858-1.558,6.8,6.8,0,0,1-1.064-2.323,12.493,12.493,0,0,1-.375-2.892Zm12.287-.6H51.874a9.264,9.264,0,0,1,.6-2.907,7.206,7.206,0,0,1,1.334-2.2,5.574,5.574,0,0,1,1.918-1.394,5.8,5.8,0,0,1,2.352-.48,5.956,5.956,0,0,1,2.637.555,5.448,5.448,0,0,1,1.9,1.513,6.675,6.675,0,0,1,1.154,2.232,9.12,9.12,0,0,1,.39,2.682ZM77.2,10.549h.6A4.458,4.458,0,0,0,76.3,6.8a6.462,6.462,0,0,0-4.076-1.169,7.149,7.149,0,0,0-2.427.36,4.853,4.853,0,0,0-1.618.929,3.344,3.344,0,0,0-.9,1.259,3.616,3.616,0,0,0-.27,1.319,3.881,3.881,0,0,0,.45,2.008,2.958,2.958,0,0,0,1.408,1.169,10.848,10.848,0,0,0,1.5.54q.839.24,1.948.509.989.24,1.948.48a7.037,7.037,0,0,1,1.693.644,3.66,3.66,0,0,1,1.2,1.034,2.709,2.709,0,0,1,.464,1.648,2.932,2.932,0,0,1-.464,1.678,3.744,3.744,0,0,1-1.184,1.124,5.272,5.272,0,0,1-1.6.629,8,8,0,0,1-1.723.195,6.361,6.361,0,0,1-4.181-1.214,4.7,4.7,0,0,1-1.453-3.821h-.6a5.311,5.311,0,0,0,1.573,4.256,6.993,6.993,0,0,0,4.66,1.348,9.1,9.1,0,0,0,1.993-.225,5.538,5.538,0,0,0,1.8-.734,4.063,4.063,0,0,0,1.289-1.318,3.726,3.726,0,0,0,.495-1.978,3.329,3.329,0,0,0-.435-1.8,3.646,3.646,0,0,0-1.139-1.139,6.04,6.04,0,0,0-1.588-.7q-.889-.256-1.783-.495-1.1-.289-2.2-.569a13.369,13.369,0,0,1-1.753-.569,2.974,2.974,0,0,1-1.244-.944A2.861,2.861,0,0,1,67.607,9.5a4.131,4.131,0,0,1,.12-.749A2.687,2.687,0,0,1,68.3,7.657a3.834,3.834,0,0,1,1.378-.989,6.121,6.121,0,0,1,2.547-.435,7.973,7.973,0,0,1,2.023.24,4.205,4.205,0,0,1,1.573.764,3.477,3.477,0,0,1,1.019,1.334,4.861,4.861,0,0,1,.36,1.978Zm13.875,0h.6a4.458,4.458,0,0,0-1.5-3.746A6.461,6.461,0,0,0,86.1,5.634a7.148,7.148,0,0,0-2.427.36,4.85,4.85,0,0,0-1.618.929,3.342,3.342,0,0,0-.9,1.259,3.616,3.616,0,0,0-.27,1.319,3.881,3.881,0,0,0,.45,2.008,2.957,2.957,0,0,0,1.408,1.169,10.854,10.854,0,0,0,1.5.54q.839.24,1.948.509.989.24,1.948.48a7.038,7.038,0,0,1,1.693.644,3.659,3.659,0,0,1,1.2,1.034,2.708,2.708,0,0,1,.465,1.648,2.932,2.932,0,0,1-.465,1.678,3.744,3.744,0,0,1-1.184,1.124,5.273,5.273,0,0,1-1.6.629,8,8,0,0,1-1.723.195,6.36,6.36,0,0,1-4.18-1.214,4.7,4.7,0,0,1-1.453-3.821h-.6a5.31,5.31,0,0,0,1.573,4.256,6.992,6.992,0,0,0,4.66,1.348A9.1,9.1,0,0,0,88.51,21.5a5.541,5.541,0,0,0,1.8-.734A4.063,4.063,0,0,0,91.6,19.449a3.726,3.726,0,0,0,.494-1.978,3.328,3.328,0,0,0-.435-1.8,3.643,3.643,0,0,0-1.139-1.139,6.043,6.043,0,0,0-1.588-.7q-.889-.256-1.783-.495-1.1-.289-2.2-.569A13.365,13.365,0,0,1,83.19,12.2a2.972,2.972,0,0,1-1.244-.944A2.861,2.861,0,0,1,81.482,9.5a4.119,4.119,0,0,1,.12-.749,2.689,2.689,0,0,1,.569-1.094,3.835,3.835,0,0,1,1.378-.989A6.122,6.122,0,0,1,86.1,6.233a7.973,7.973,0,0,1,2.023.24,4.207,4.207,0,0,1,1.573.764,3.477,3.477,0,0,1,1.019,1.334,4.861,4.861,0,0,1,.36,1.978Z" fill="#222"/>
</svg>
