<svg xmlns="http://www.w3.org/2000/svg" width="30" height="30" viewBox="0 0 30 30">
  <g id="fb" transform="translate(0 0)">
    <circle id="Ellipse_172" data-name="Ellipse 172" cx="15" cy="15" r="15" transform="translate(0 0)" fill="#ff4b70"/>
    <path id="facebook" d="M14.007,3h2.252a.375.375,0,0,0,.375-.375V.375A.375.375,0,0,0,16.259,0H14.007A4.134,4.134,0,0,0,9.878,4.129V6.757H7.25a.375.375,0,0,0-.375.375V9.384a.375.375,0,0,0,.375.375H9.878v7.883a.375.375,0,0,0,.375.375h2.252a.375.375,0,0,0,.375-.375V9.76h2.628a.375.375,0,0,0,.356-.257l.751-2.252a.375.375,0,0,0-.356-.494H12.881V4.129A1.126,1.126,0,0,1,14.007,3Z" transform="translate(3 6)" fill="#fff"/>
  </g>
</svg>
