<svg id="figma-1" xmlns="http://www.w3.org/2000/svg" width="54.432" height="81.647" viewBox="0 0 54.432 81.647">
  <path id="path0_fill" d="M13.608,227.216a13.613,13.613,0,0,0,13.608-13.608V200H13.608a13.608,13.608,0,0,0,0,27.216Z" transform="translate(0 -145.568)" fill="#0acf83"/>
  <path id="path1_fill" d="M0,113.608A13.613,13.613,0,0,1,13.608,100H27.216v27.216H13.608A13.613,13.613,0,0,1,0,113.608Z" transform="translate(0 -72.784)" fill="#a259ff"/>
  <path id="path1_fill_1_" d="M0,13.608A13.613,13.613,0,0,1,13.608,0H27.216V27.216H13.608A13.613,13.613,0,0,1,0,13.608Z" fill="#f24e1e"/>
  <path id="path2_fill" d="M100,0h13.608a13.608,13.608,0,0,1,0,27.216H100Z" transform="translate(-72.784)" fill="#ff7262"/>
  <path id="path3_fill" d="M127.216,113.608A13.608,13.608,0,1,1,113.608,100,13.613,13.613,0,0,1,127.216,113.608Z" transform="translate(-72.784 -72.784)" fill="#1abcfe"/>
</svg>
