<svg xmlns="http://www.w3.org/2000/svg" width="61.646" height="85.379" viewBox="0 0 61.646 85.379">
  <g id="firebase" transform="translate(0 -0.05)">
    <path id="Path_5196" data-name="Path 5196" d="M710.166,371.513l-8.539,7.951L693.7,363.469l4.095-9.2c1.035-1.835,2.728-1.859,3.762,0Z" transform="translate(-669.689 -340.624)" fill="#ffa000"/>
    <path id="Path_5197" data-name="Path 5197" d="M31.941,674.591,0,704.3l24.015-45.7Z" transform="translate(0 -635.755)" fill="#f57f17"/>
    <path id="Path_5198" data-name="Path 5198" d="M49.84,516.335c1.53-1.457,3.1-.966,3.5,1.1l8.3,48.31L34.1,582.284a12.683,12.683,0,0,1-3.527.751,13,13,0,0,1-3.223-.775L0,566.151Z" transform="translate(0 -497.606)" fill="#ffca28"/>
    <path id="Path_5199" data-name="Path 5199" d="M24.015,22.845,0,68.545l10.7-66.8c.4-2.07,1.575-2.281,2.634-.447Z" transform="translate(0 0)" fill="#ffa000"/>
  </g>
</svg>
