<svg xmlns="http://www.w3.org/2000/svg" xmlns:xlink="http://www.w3.org/1999/xlink" width="502.002" height="154.7" viewBox="0 0 502.002 154.7"><defs><linearGradient id="a" x1="0.5" x2="0.5" y2="1" gradientUnits="objectBoundingBox"><stop offset="0" stop-color="#ff4b70"/><stop offset="1" stop-color="#7c4dff"/></linearGradient><linearGradient id="b" y1="0.5" x2="1" y2="0.5" gradientUnits="objectBoundingBox"><stop offset="0" stop-color="#eee"/><stop offset="1" stop-color="#fff"/></linearGradient><filter id="c" x="14.165" y="8.851" width="487.837" height="143" filterUnits="userSpaceOnUse"><feOffset dy="3" input="SourceAlpha"/><feGaussianBlur stdDeviation="3" result="d"/><feFlood flood-opacity="0.161"/><feComposite operator="in" in2="d"/><feComposite in="SourceGraphic"/></filter><linearGradient id="e" x1="0.5" x2="0.5" y2="1" gradientUnits="objectBoundingBox"><stop offset="0" stop-color="#00dfc0"/><stop offset="1" stop-color="#0ab7ab"/></linearGradient></defs><g transform="translate(0.005 0.001)"><path d="M141,0l47,77.35L141,154.7H62L0,77.35,62,0Z" transform="translate(188.158 154.699) rotate(180)" fill="url(#a)"/><g transform="matrix(1, 0, 0, 1, -0.01, 0)" filter="url(#c)"><path d="M-2886-1644.5l37.527-62.5v.526h425.342a6.984,6.984,0,0,1,6.968,7v109.949a6.984,6.984,0,0,1-6.968,7h-425.342v.525Z" transform="translate(2909.17 1721.85)" fill="url(#b)"/></g><path d="M-2886-1644.5l2.4-62.5v.526h27.6v123.95h-27.6v.525Z" transform="translate(3350.995 1721.849)" opacity="0" fill="url(#e)"/><g transform="translate(53.158 36.35)"><circle cx="40.5" cy="40.5" r="40.5" fill="#3e5e68"/><g transform="translate(20.998 11)"><path d="M268.715,239.58v31.264h-3.642l-10.252-10.822-.027.028V239.58Z" transform="translate(-235.217 -211.839)" fill="#2fc0f0"/><path d="M148.885,239.58v20.47L138.69,270.844h-3.675V239.58Z" transform="translate(-129.307 -211.839)" fill="#9ee2f8"/><path d="M270.947,22.851l1.256,7.125-6.8,2.474-3.617,6.265-6.773-2.465V.18l5.516,4.629h7.235l1.256,7.125,5.542,4.651Z" transform="translate(-235.412 -0.159)" fill="#ff9f22"/><path d="M105.336.021v36.07l-.025-.009-6.8,2.474-3.617-6.265-6.8-2.474,1.256-7.125-3.617-6.265,5.542-4.651L92.533,4.65h7.235L105.311,0Z" transform="translate(-85.733)" fill="#ffda44"/><path d="M262.4,127.859l-7.385,5.538v-4.341l5.3-3.976Z" transform="translate(-235.412 -110.597)" fill="#fd5"/><path d="M196.118,153.142v4.341l-3.181,2.385L188.4,154.58l2.637-2.26,2.415,2.817Z" transform="translate(-176.515 -134.683)" fill="#fff68e"/></g></g><path d="M11.361-7.369v-3.377h8.723v7.984A10.981,10.981,0,0,1,16.4-.6a13.41,13.41,0,0,1-4.888.937A10.97,10.97,0,0,1,6.029-.978,8.389,8.389,0,0,1,2.516-4.751,12.194,12.194,0,0,1,1.34-10.09a11.537,11.537,0,0,1,1.313-5.564A8.84,8.84,0,0,1,6.5-19.386a10.366,10.366,0,0,1,4.8-1,9.574,9.574,0,0,1,5.831,1.565,7.069,7.069,0,0,1,2.7,4.327l-4.02.752a4.245,4.245,0,0,0-1.593-2.331,4.814,4.814,0,0,0-2.919-.854,5.484,5.484,0,0,0-4.218,1.682,7.084,7.084,0,0,0-1.565,4.99A7.848,7.848,0,0,0,7.1-4.9a5.3,5.3,0,0,0,4.156,1.784,6.969,6.969,0,0,0,2.55-.5A8.738,8.738,0,0,0,16-4.826V-7.369ZM33.346,0V-2.174A5.6,5.6,0,0,1,31.261-.342a5.845,5.845,0,0,1-2.728.67,5.333,5.333,0,0,1-2.625-.643,3.793,3.793,0,0,1-1.682-1.8,8.053,8.053,0,0,1-.52-3.213V-14.52h3.842v6.672A18.5,18.5,0,0,0,27.76-4.1,2.046,2.046,0,0,0,28.533-3a2.374,2.374,0,0,0,1.422.4,3.023,3.023,0,0,0,1.764-.54,2.747,2.747,0,0,0,1.066-1.34A15.552,15.552,0,0,0,33.072-8.4V-14.52h3.842V0ZM43.764-10.09l-3.486-.629A5.43,5.43,0,0,1,42.3-13.836a7.4,7.4,0,0,1,4.266-1.012,9.193,9.193,0,0,1,3.828.608A3.818,3.818,0,0,1,52.165-12.7a7.922,7.922,0,0,1,.513,3.438l-.041,4.484a15.569,15.569,0,0,0,.185,2.823A8.241,8.241,0,0,0,53.512,0h-3.8q-.15-.383-.369-1.135-.1-.342-.137-.451A6.926,6.926,0,0,1,47.1-.15a6.03,6.03,0,0,1-2.393.479A4.948,4.948,0,0,1,41.173-.889a4.045,4.045,0,0,1-1.292-3.076,4.129,4.129,0,0,1,.588-2.194,3.841,3.841,0,0,1,1.647-1.477,12.876,12.876,0,0,1,3.056-.9A20.932,20.932,0,0,0,48.9-9.475v-.383a1.989,1.989,0,0,0-.547-1.579,3.277,3.277,0,0,0-2.064-.472,2.749,2.749,0,0,0-1.6.4,2.8,2.8,0,0,0-.925,1.419ZM48.9-6.973a24.014,24.014,0,0,1-2.338.588,7.042,7.042,0,0,0-2.092.67,1.6,1.6,0,0,0-.752,1.354,1.884,1.884,0,0,0,.6,1.395,2.1,2.1,0,0,0,1.531.588,3.327,3.327,0,0,0,1.982-.684,2.406,2.406,0,0,0,.916-1.271,7.586,7.586,0,0,0,.15-1.873ZM60.143,0H56.3V-14.52h3.568v2.064a6.2,6.2,0,0,1,1.647-1.928,3.031,3.031,0,0,1,1.661-.465,4.876,4.876,0,0,1,2.529.725l-1.189,3.35a3.371,3.371,0,0,0-1.8-.629,2.132,2.132,0,0,0-1.367.444,3.037,3.037,0,0,0-.882,1.606,22.821,22.821,0,0,0-.321,4.867Zm10.09-10.09-3.486-.629a5.43,5.43,0,0,1,2.023-3.117,7.4,7.4,0,0,1,4.266-1.012,9.193,9.193,0,0,1,3.828.608A3.818,3.818,0,0,1,78.635-12.7a7.922,7.922,0,0,1,.513,3.438l-.041,4.484a15.569,15.569,0,0,0,.185,2.823A8.241,8.241,0,0,0,79.98,0h-3.8q-.15-.383-.369-1.135-.1-.342-.137-.451A6.926,6.926,0,0,1,73.568-.15a6.03,6.03,0,0,1-2.393.479A4.948,4.948,0,0,1,67.642-.889,4.045,4.045,0,0,1,66.35-3.965a4.129,4.129,0,0,1,.588-2.194,3.841,3.841,0,0,1,1.647-1.477,12.876,12.876,0,0,1,3.056-.9,20.932,20.932,0,0,0,3.732-.943v-.383a1.989,1.989,0,0,0-.547-1.579,3.277,3.277,0,0,0-2.064-.472,2.749,2.749,0,0,0-1.6.4,2.8,2.8,0,0,0-.93,1.423Zm5.141,3.117a24.014,24.014,0,0,1-2.338.588,7.042,7.042,0,0,0-2.092.67,1.6,1.6,0,0,0-.752,1.354,1.884,1.884,0,0,0,.6,1.4,2.1,2.1,0,0,0,1.531.588,3.327,3.327,0,0,0,1.982-.684,2.406,2.406,0,0,0,.916-1.271,7.586,7.586,0,0,0,.15-1.873ZM96.141,0H92.3V-7.41a11.453,11.453,0,0,0-.246-3.042,2.134,2.134,0,0,0-.8-1.073,2.286,2.286,0,0,0-1.333-.383,3.081,3.081,0,0,0-1.791.547,2.755,2.755,0,0,0-1.087,1.449,12.527,12.527,0,0,0-.294,3.336V0H82.906V-14.52h3.568v2.133a5.814,5.814,0,0,1,4.785-2.461,5.764,5.764,0,0,1,2.324.458,3.894,3.894,0,0,1,1.593,1.169,4.235,4.235,0,0,1,.752,1.613,12,12,0,0,1,.212,2.584ZM106.7-14.52v3.063h-2.63v5.852a14.554,14.554,0,0,0,.075,2.071.844.844,0,0,0,.342.485,1.084,1.084,0,0,0,.649.191,4.97,4.97,0,0,0,1.545-.369l.328,2.98a7.637,7.637,0,0,1-3.035.574A4.814,4.814,0,0,1,102.1-.021a2.734,2.734,0,0,1-1.224-.9,3.561,3.561,0,0,1-.54-1.5,18.623,18.623,0,0,1-.123-2.707v-6.33H98.451V-14.52h1.764V-17.4l3.855-2.242v5.127Zm11.074,9.9,3.828.643a6.279,6.279,0,0,1-2.331,3.206,6.848,6.848,0,0,1-3.985,1.1,6.5,6.5,0,0,1-5.605-2.475,8.314,8.314,0,0,1-1.436-5,8.017,8.017,0,0,1,1.887-5.653,6.214,6.214,0,0,1,4.771-2.044,6.445,6.445,0,0,1,5.113,2.14q1.873,2.14,1.791,6.556h-9.625a3.887,3.887,0,0,0,.93,2.659,2.908,2.908,0,0,0,2.215.95,2.352,2.352,0,0,0,1.518-.492,3.04,3.04,0,0,0,.925-1.591Zm.219-3.883a3.7,3.7,0,0,0-.861-2.536,2.643,2.643,0,0,0-2-.868,2.668,2.668,0,0,0-2.078.916,3.545,3.545,0,0,0-.807,2.488ZM133.347-4.62l3.828.643a6.279,6.279,0,0,1-2.331,3.206,6.848,6.848,0,0,1-3.985,1.1,6.5,6.5,0,0,1-5.6-2.475,8.314,8.314,0,0,1-1.436-5A8.017,8.017,0,0,1,125.7-12.8a6.214,6.214,0,0,1,4.771-2.044,6.445,6.445,0,0,1,5.113,2.14q1.873,2.14,1.791,6.556H127.75a3.887,3.887,0,0,0,.93,2.659,2.908,2.908,0,0,0,2.215.95,2.352,2.352,0,0,0,1.518-.492,3.04,3.04,0,0,0,.929-1.59Zm.219-3.883a3.7,3.7,0,0,0-.861-2.536,2.643,2.643,0,0,0-2-.868,2.668,2.668,0,0,0-2.078.916A3.545,3.545,0,0,0,127.82-8.5Z" transform="translate(153.227 59.35)" fill="#333"/><path d="M17.191-12.6,13.737,0H11.373l-2.4-8.815a6.026,6.026,0,0,1-.185-1.23H8.754a5.971,5.971,0,0,1-.211,1.213L6.135,0H3.718L.193-12.6H2.487L4.772-3.375a6.721,6.721,0,0,1,.176,1.213h.044a6.881,6.881,0,0,1,.246-1.213L7.822-12.6H9.976l2.391,9.3a7.262,7.262,0,0,1,.185,1.125h.035a6.907,6.907,0,0,1,.2-1.16L15.029-12.6Zm8.6,8.657h-6.13a2.593,2.593,0,0,0,.769,1.925,2.861,2.861,0,0,0,2.017.677A4.448,4.448,0,0,0,25.093-2.2v1.64a6.044,6.044,0,0,1-3.252.773,4.026,4.026,0,0,1-3.116-1.226A4.9,4.9,0,0,1,17.6-4.465a4.8,4.8,0,0,1,1.244-3.423,4.068,4.068,0,0,1,3.089-1.323,3.547,3.547,0,0,1,2.856,1.187,4.926,4.926,0,0,1,1.011,3.3ZM23.827-5.388A2.627,2.627,0,0,0,23.309-7.1,1.733,1.733,0,0,0,21.9-7.708a1.979,1.979,0,0,0-1.49.642,2.931,2.931,0,0,0-.751,1.679ZM39.6,0H37.617V-1.406h-.035A2.978,2.978,0,0,1,34.849.211,2.879,2.879,0,0,1,32.77-.51a2.521,2.521,0,0,1-.751-1.907q0-2.549,2.936-2.971l2.672-.378q0-1.925-1.828-1.925a4.343,4.343,0,0,0-2.9,1.107V-8.367a6.325,6.325,0,0,1,3.287-.844q3.41,0,3.41,3.357ZM37.626-4.421l-1.89.264a3,3,0,0,0-1.323.426,1.246,1.246,0,0,0-.444,1.094,1.2,1.2,0,0,0,.409.936,1.583,1.583,0,0,0,1.094.365,2.019,2.019,0,0,0,1.542-.655,2.322,2.322,0,0,0,.611-1.648ZM47.3-7.058a1.69,1.69,0,0,0-1.063-.29,1.82,1.82,0,0,0-1.512.817,3.655,3.655,0,0,0-.606,2.224V0H42.082V-9h2.039v1.854h.035a3.135,3.135,0,0,1,.918-1.481,2.073,2.073,0,0,1,1.384-.532,1.718,1.718,0,0,1,.844.167Zm9.062,3.111H50.229A2.593,2.593,0,0,0,51-2.021a2.861,2.861,0,0,0,2.017.677A4.448,4.448,0,0,0,55.663-2.2V-.562a6.044,6.044,0,0,1-3.252.773,4.026,4.026,0,0,1-3.116-1.226,4.9,4.9,0,0,1-1.129-3.45A4.8,4.8,0,0,1,49.41-7.888,4.068,4.068,0,0,1,52.5-9.211a3.547,3.547,0,0,1,2.856,1.187,4.926,4.926,0,0,1,1.011,3.3ZM54.4-5.388A2.627,2.627,0,0,0,53.877-7.1a1.733,1.733,0,0,0-1.406-.611,1.979,1.979,0,0,0-1.49.642A2.931,2.931,0,0,0,50.23-5.39ZM71.253,0H69.214V-4.922q0-2.672-1.784-2.672a1.866,1.866,0,0,0-1.512.773A3.079,3.079,0,0,0,65.3-4.843V0H63.255V-13.324H65.3v5.818h.035a3.22,3.22,0,0,1,2.918-1.7q3,0,3,3.665ZM74.76-10.89a1.226,1.226,0,0,1-.857-.325,1.07,1.07,0,0,1-.356-.826,1.1,1.1,0,0,1,.356-.835,1.208,1.208,0,0,1,.857-.334,1.246,1.246,0,0,1,.879.334,1.091,1.091,0,0,1,.36.835,1.076,1.076,0,0,1-.36.813,1.237,1.237,0,0,1-.879.338ZM75.771,0h-2.04V-9H75.77ZM86.625-.721q0,4.957-4.983,4.957a7.422,7.422,0,0,1-3.067-.589V1.784a5.676,5.676,0,0,0,2.8.844q3.208,0,3.208-3.155v-.984h-.035A3.3,3.3,0,0,1,81.51.211a3.289,3.289,0,0,1-2.65-1.2A4.851,4.851,0,0,1,77.854-4.21a5.682,5.682,0,0,1,1.081-3.647,3.594,3.594,0,0,1,2.971-1.354,2.863,2.863,0,0,1,2.646,1.459h.035V-9h2.039ZM84.6-4.122V-5.291a2.29,2.29,0,0,0-.628-1.622A2.059,2.059,0,0,0,82.4-7.585a2.156,2.156,0,0,0-1.815.857,3.867,3.867,0,0,0-.655,2.4A3.329,3.329,0,0,0,80.561-2.2a2.017,2.017,0,0,0,1.666.8,2.162,2.162,0,0,0,1.714-.76A2.865,2.865,0,0,0,84.6-4.122ZM97.277,0H95.238V-4.922q0-2.672-1.784-2.672a1.866,1.866,0,0,0-1.512.773,3.079,3.079,0,0,0-.615,1.978V0H89.279V-13.324h2.048v5.818h.035a3.22,3.22,0,0,1,2.918-1.7q3,0,3,3.665ZM101.8,0H99.756V-13.324H101.8Zm10.45-9L108.193,1.441q-1.266,2.8-3.551,2.8a4.258,4.258,0,0,1-1.072-.114v-1.7a2.852,2.852,0,0,0,.879.158,1.814,1.814,0,0,0,1.7-1.125l.606-1.477L103.184-9h2.259l2.145,6.539q.035.123.158.65h.044q.044-.2.158-.633L110.2-9ZM125-.413a5.029,5.029,0,0,1-2.558.624,4.331,4.331,0,0,1-3.234-1.252,4.437,4.437,0,0,1-1.23-3.248A4.883,4.883,0,0,1,119.3-7.862a4.729,4.729,0,0,1,3.538-1.349,5.164,5.164,0,0,1,2.171.431v1.9a3.288,3.288,0,0,0-2-.7,2.785,2.785,0,0,0-2.118.875,3.2,3.2,0,0,0-.826,2.29,3.049,3.049,0,0,0,.778,2.206,2.762,2.762,0,0,0,2.087.809A3.262,3.262,0,0,0,125-2.188Zm6.012.624a4.461,4.461,0,0,1-3.327-1.261,4.556,4.556,0,0,1-1.244-3.344,4.741,4.741,0,0,1,1.3-3.542,4.767,4.767,0,0,1,3.494-1.274,4.318,4.318,0,0,1,3.287,1.239A4.787,4.787,0,0,1,135.7-4.534a4.717,4.717,0,0,1-1.27,3.45A4.562,4.562,0,0,1,131.01.211Zm.1-7.8a2.328,2.328,0,0,0-1.89.835,3.5,3.5,0,0,0-.694,2.3,3.293,3.293,0,0,0,.7,2.228,2.362,2.362,0,0,0,1.881.813,2.241,2.241,0,0,0,1.85-.8,3.54,3.54,0,0,0,.646-2.276,3.594,3.594,0,0,0-.646-2.294,2.23,2.23,0,0,0-1.853-.8ZM145.784,0h-2.039V-5.071q0-2.522-1.784-2.522a1.948,1.948,0,0,0-1.538.7,2.592,2.592,0,0,0-.606,1.762V0h-2.048V-9h2.048v1.494h.035a3.208,3.208,0,0,1,2.918-1.705,2.718,2.718,0,0,1,2.241.954,4.282,4.282,0,0,1,.773,2.755Zm7.743-14.071-.272,1.617a6.222,6.222,0,0,0-.791-.079q-1.2,0-1.2,1.354v1.336h2.048v1.635H151.26V.035h-2.232V-8.209h-1.635V-9.844h1.635V-11.32q0-2.865,2.918-2.865a11.045,11.045,0,0,1,1.579.114Zm3.911,4.228V.035H155.17V-9.844Zm.088-4.087v2.32h-2.452v-2.32ZM168.39,0h-2.039V-1.529h-.035a3.252,3.252,0,0,1-3.032,1.74A3.273,3.273,0,0,1,160.625-1a5.017,5.017,0,0,1-1-3.292,5.465,5.465,0,0,1,1.1-3.577,3.61,3.61,0,0,1,2.94-1.345,2.815,2.815,0,0,1,2.646,1.459h.035v-5.572h2.039Zm-2.013-4.113V-5.291a2.3,2.3,0,0,0-.624-1.626,2.081,2.081,0,0,0-1.591-.668,2.142,2.142,0,0,0-1.8.853,3.8,3.8,0,0,0-.655,2.364,3.4,3.4,0,0,0,.628,2.167,2.044,2.044,0,0,0,1.692.8,2.116,2.116,0,0,0,1.7-.769,2.9,2.9,0,0,0,.65-1.943Zm12.3.167h-6.135a2.593,2.593,0,0,0,.769,1.925,2.861,2.861,0,0,0,2.017.677,4.448,4.448,0,0,0,2.646-.861V-.562a6.044,6.044,0,0,1-3.252.773A4.026,4.026,0,0,1,171.6-1.015a4.9,4.9,0,0,1-1.129-3.45,4.8,4.8,0,0,1,1.244-3.423A4.068,4.068,0,0,1,174.8-9.211a3.547,3.547,0,0,1,2.856,1.187,4.926,4.926,0,0,1,1.011,3.3ZM176.7-5.388a2.627,2.627,0,0,0-.519-1.709,1.733,1.733,0,0,0-1.406-.611,1.979,1.979,0,0,0-1.49.642,2.931,2.931,0,0,0-.751,1.679ZM188.631,0h-2.039V-5.071q0-2.522-1.784-2.522a1.948,1.948,0,0,0-1.538.7,2.592,2.592,0,0,0-.606,1.762V0h-2.048V-9h2.048v1.494h.035a3.208,3.208,0,0,1,2.918-1.705,2.718,2.718,0,0,1,2.241.954,4.282,4.282,0,0,1,.773,2.755Zm7.233-.1a3.534,3.534,0,0,1-1.573.3q-2.619,0-2.619-2.514V-7.4h-1.5V-9h1.5v-2.083l2.039-.58V-9h2.153v1.6h-2.153v4.5A1.773,1.773,0,0,0,194-1.758a1.2,1.2,0,0,0,.967.343,1.4,1.4,0,0,0,.9-.3ZM203.6-10.89a1.226,1.226,0,0,1-.857-.325,1.07,1.07,0,0,1-.356-.826,1.1,1.1,0,0,1,.356-.835,1.208,1.208,0,0,1,.857-.334,1.246,1.246,0,0,1,.879.334,1.091,1.091,0,0,1,.36.835,1.076,1.076,0,0,1-.36.813,1.237,1.237,0,0,1-.879.338ZM204.609,0H202.57V-9h2.039Zm10.679,0h-2.039V-5.071q0-2.522-1.784-2.522a1.948,1.948,0,0,0-1.538.7,2.592,2.592,0,0,0-.606,1.762V0h-2.048V-9h2.048v1.494h.035a3.208,3.208,0,0,1,2.918-1.7,2.718,2.718,0,0,1,2.241.954,4.282,4.282,0,0,1,.773,2.755Zm11.426.211a4.461,4.461,0,0,1-3.327-1.261,4.556,4.556,0,0,1-1.244-3.344,4.741,4.741,0,0,1,1.3-3.542,4.767,4.767,0,0,1,3.494-1.274,4.318,4.318,0,0,1,3.287,1.239A4.787,4.787,0,0,1,231.4-4.535a4.717,4.717,0,0,1-1.27,3.45,4.562,4.562,0,0,1-3.416,1.3Zm.1-7.8a2.328,2.328,0,0,0-1.89.835,3.5,3.5,0,0,0-.694,2.3,3.293,3.293,0,0,0,.7,2.228,2.362,2.362,0,0,0,1.881.813,2.241,2.241,0,0,0,1.85-.8,3.54,3.54,0,0,0,.646-2.276,3.594,3.594,0,0,0-.646-2.294,2.23,2.23,0,0,0-1.85-.8ZM241.321,0h-2.039V-1.424h-.035a2.934,2.934,0,0,1-2.76,1.635q-3.19,0-3.19-3.832V-9h2.039v5.168q0,2.426,1.872,2.426a1.892,1.892,0,0,0,1.49-.668,2.56,2.56,0,0,0,.584-1.749V-9h2.039ZM249.2-7.058a1.69,1.69,0,0,0-1.063-.29,1.82,1.82,0,0,0-1.512.817,3.655,3.655,0,0,0-.606,2.224V0H243.98V-9h2.039v1.854h.035a3.135,3.135,0,0,1,.918-1.481,2.073,2.073,0,0,1,1.384-.532,1.718,1.718,0,0,1,.844.167Zm8.464,5.73h-.035V4.14H255.59V-9h2.039v1.582h.035a3.341,3.341,0,0,1,3.059-1.793,3.222,3.222,0,0,1,2.672,1.2,5.05,5.05,0,0,1,.958,3.234,5.607,5.607,0,0,1-1.081,3.6A3.576,3.576,0,0,1,260.314.185a2.949,2.949,0,0,1-2.654-1.512Zm-.053-3.551v1.116a2.382,2.382,0,0,0,.628,1.67,2.07,2.07,0,0,0,1.6.686,2.084,2.084,0,0,0,1.78-.883,4.111,4.111,0,0,0,.646-2.465,3.24,3.24,0,0,0-.6-2.079,1.979,1.979,0,0,0-1.63-.751,2.2,2.2,0,0,0-1.753.773,2.865,2.865,0,0,0-.675,1.934Zm14.045-2.18a1.69,1.69,0,0,0-1.063-.29,1.82,1.82,0,0,0-1.512.817,3.655,3.655,0,0,0-.606,2.224V0h-2.039V-9h2.039v1.854h.035a3.135,3.135,0,0,1,.918-1.481,2.073,2.073,0,0,1,1.384-.532,1.718,1.718,0,0,1,.844.167Zm5.428,7.27a4.461,4.461,0,0,1-3.327-1.261,4.556,4.556,0,0,1-1.244-3.344,4.741,4.741,0,0,1,1.3-3.542A4.767,4.767,0,0,1,277.3-9.211a4.318,4.318,0,0,1,3.287,1.239,4.787,4.787,0,0,1,1.178,3.437,4.717,4.717,0,0,1-1.27,3.45,4.562,4.562,0,0,1-3.411,1.3Zm.1-7.8a2.328,2.328,0,0,0-1.89.835,3.5,3.5,0,0,0-.694,2.3,3.293,3.293,0,0,0,.7,2.228,2.362,2.362,0,0,0,1.881.813,2.241,2.241,0,0,0,1.85-.8,3.54,3.54,0,0,0,.646-2.276,3.594,3.594,0,0,0-.646-2.294,2.23,2.23,0,0,0-1.85-.8ZM297.3,0h-2.04V-4.9a3.975,3.975,0,0,0-.4-2.048,1.471,1.471,0,0,0-1.349-.633,1.626,1.626,0,0,0-1.358.8,3.263,3.263,0,0,0-.558,1.916V0h-2.048V-5.071q0-2.514-1.775-2.514a1.6,1.6,0,0,0-1.358.756,3.333,3.333,0,0,0-.532,1.96V0h-2.039V-9h2.039v1.424h.035a3.118,3.118,0,0,1,2.839-1.635,2.677,2.677,0,0,1,1.63.514,2.561,2.561,0,0,1,.954,1.349,3.212,3.212,0,0,1,2.988-1.863q2.971,0,2.971,3.665Zm3.516-10.89a1.226,1.226,0,0,1-.857-.325,1.07,1.07,0,0,1-.356-.826,1.1,1.1,0,0,1,.356-.835,1.208,1.208,0,0,1,.857-.334,1.246,1.246,0,0,1,.879.334,1.091,1.091,0,0,1,.36.835,1.076,1.076,0,0,1-.36.813,1.237,1.237,0,0,1-.881.338ZM301.825,0h-2.039V-9h2.039Zm2.1-.281v-1.89a4.068,4.068,0,0,0,2.522.87q1.846,0,1.846-1.09a.859.859,0,0,0-.158-.523,1.51,1.51,0,0,0-.426-.382,3.351,3.351,0,0,0-.633-.3q-.365-.132-.813-.3a8.605,8.605,0,0,1-1-.466,3.014,3.014,0,0,1-.738-.558,2.107,2.107,0,0,1-.444-.708,2.6,2.6,0,0,1-.149-.923A2.133,2.133,0,0,1,304.24-7.7a2.673,2.673,0,0,1,.826-.835,3.962,3.962,0,0,1,1.178-.51,5.392,5.392,0,0,1,1.362-.171,6.193,6.193,0,0,1,2.232.378v1.784a3.763,3.763,0,0,0-2.18-.65,2.847,2.847,0,0,0-.7.079,1.8,1.8,0,0,0-.532.22,1.081,1.081,0,0,0-.343.338.807.807,0,0,0-.123.435.93.93,0,0,0,.123.492,1.118,1.118,0,0,0,.365.356,3.149,3.149,0,0,0,.58.281q.338.127.778.277a11.364,11.364,0,0,1,1.042.483,3.52,3.52,0,0,1,.787.558,2.188,2.188,0,0,1,.5.721,2.447,2.447,0,0,1,.176.971,2.22,2.22,0,0,1-.316,1.2,2.637,2.637,0,0,1-.844.844,3.95,3.95,0,0,1-1.217.5,6.324,6.324,0,0,1-1.455.163,6.129,6.129,0,0,1-2.553-.5Zm15.943-3.665h-6.135a2.593,2.593,0,0,0,.769,1.925,2.861,2.861,0,0,0,2.017.677,4.448,4.448,0,0,0,2.646-.861V-.562a6.044,6.044,0,0,1-3.252.773A4.026,4.026,0,0,1,312.8-1.015a4.9,4.9,0,0,1-1.129-3.45,4.8,4.8,0,0,1,1.244-3.423A4.068,4.068,0,0,1,316-9.211a3.547,3.547,0,0,1,2.856,1.187,4.926,4.926,0,0,1,1.011,3.3ZM317.9-5.388a2.627,2.627,0,0,0-.519-1.709,1.733,1.733,0,0,0-1.406-.611,1.979,1.979,0,0,0-1.49.642,2.931,2.931,0,0,0-.751,1.679ZM6.073,23.9a3.534,3.534,0,0,1-1.573.3q-2.619,0-2.619-2.514V16.6H.378V15h1.5V12.917l2.039-.58V15H6.073v1.6H3.92v4.5a1.773,1.773,0,0,0,.29,1.143,1.2,1.2,0,0,0,.967.343,1.4,1.4,0,0,0,.9-.3Zm5.748.308A4.461,4.461,0,0,1,8.5,22.95a4.556,4.556,0,0,1-1.244-3.344,4.741,4.741,0,0,1,1.3-3.542,4.767,4.767,0,0,1,3.494-1.274,4.318,4.318,0,0,1,3.287,1.239,4.787,4.787,0,0,1,1.178,3.437,4.717,4.717,0,0,1-1.27,3.45,4.562,4.562,0,0,1-3.419,1.3Zm.1-7.8a2.328,2.328,0,0,0-1.89.835,3.5,3.5,0,0,0-.694,2.3,3.293,3.293,0,0,0,.7,2.228,2.362,2.362,0,0,0,1.881.813,2.241,2.241,0,0,0,1.85-.8,3.54,3.54,0,0,0,.646-2.276,3.594,3.594,0,0,0-.646-2.294,2.23,2.23,0,0,0-1.85-.8Zm11.048,7.3v-1.89a4.068,4.068,0,0,0,2.522.87q1.846,0,1.846-1.09a.859.859,0,0,0-.158-.523,1.51,1.51,0,0,0-.426-.382,3.351,3.351,0,0,0-.633-.3q-.365-.132-.813-.3a8.607,8.607,0,0,1-1-.466,3.014,3.014,0,0,1-.738-.558,2.107,2.107,0,0,1-.444-.708,2.605,2.605,0,0,1-.149-.923,2.133,2.133,0,0,1,.308-1.147,2.673,2.673,0,0,1,.826-.835,3.962,3.962,0,0,1,1.178-.51,5.392,5.392,0,0,1,1.362-.171,6.193,6.193,0,0,1,2.232.378v1.784a3.763,3.763,0,0,0-2.18-.65,2.847,2.847,0,0,0-.7.079,1.8,1.8,0,0,0-.532.22,1.081,1.081,0,0,0-.343.338.807.807,0,0,0-.123.435.93.93,0,0,0,.123.492,1.118,1.118,0,0,0,.365.356,3.15,3.15,0,0,0,.58.281q.338.127.778.277a11.364,11.364,0,0,1,1.042.483,3.52,3.52,0,0,1,.787.558,2.188,2.188,0,0,1,.5.721,2.447,2.447,0,0,1,.176.971,2.22,2.22,0,0,1-.316,1.2,2.637,2.637,0,0,1-.844.844,3.95,3.95,0,0,1-1.217.5,6.324,6.324,0,0,1-1.455.163,6.129,6.129,0,0,1-2.557-.486Zm15.943-3.665H32.774a2.593,2.593,0,0,0,.769,1.925,2.861,2.861,0,0,0,2.017.677,4.448,4.448,0,0,0,2.646-.861v1.644a6.044,6.044,0,0,1-3.252.773,4.026,4.026,0,0,1-3.116-1.226,4.9,4.9,0,0,1-1.129-3.45A4.8,4.8,0,0,1,31.953,16.1a4.068,4.068,0,0,1,3.089-1.323,3.547,3.547,0,0,1,2.858,1.2,4.926,4.926,0,0,1,1.011,3.3ZM36.94,18.612a2.627,2.627,0,0,0-.519-1.709,1.733,1.733,0,0,0-1.406-.611,1.979,1.979,0,0,0-1.49.642,2.931,2.931,0,0,0-.751,1.679Zm9.132-1.67a1.69,1.69,0,0,0-1.063-.29,1.82,1.82,0,0,0-1.512.817,3.655,3.655,0,0,0-.606,2.224V24H40.852V15h2.039v1.854h.035a3.135,3.135,0,0,1,.918-1.481,2.073,2.073,0,0,1,1.384-.532,1.718,1.718,0,0,1,.844.167ZM55.266,15l-3.48,9H49.579l-3.313-9H48.48l2,6.293a5.867,5.867,0,0,1,.281,1.213h.026a6.511,6.511,0,0,1,.246-1.178L53.121,15Zm9,5.054H58.131a2.593,2.593,0,0,0,.769,1.925,2.861,2.861,0,0,0,2.017.677,4.448,4.448,0,0,0,2.646-.861v1.644a6.044,6.044,0,0,1-3.252.773,4.026,4.026,0,0,1-3.116-1.226,4.9,4.9,0,0,1-1.129-3.45,4.8,4.8,0,0,1,1.244-3.423,4.068,4.068,0,0,1,3.09-1.324,3.547,3.547,0,0,1,2.856,1.187,4.926,4.926,0,0,1,1.011,3.3ZM62.3,18.612a2.627,2.627,0,0,0-.519-1.709,1.733,1.733,0,0,0-1.406-.611,1.979,1.979,0,0,0-1.49.642,2.931,2.931,0,0,0-.751,1.679ZM78.952,15l-4.06,10.441q-1.266,2.795-3.551,2.8a4.258,4.258,0,0,1-1.072-.114v-1.7a2.852,2.852,0,0,0,.879.158,1.814,1.814,0,0,0,1.705-1.125l.606-1.477L69.882,15h2.259l2.145,6.539q.035.123.158.65h.044q.044-.2.158-.633L76.9,15ZM84.3,24.211a4.461,4.461,0,0,1-3.327-1.261,4.556,4.556,0,0,1-1.244-3.344,4.741,4.741,0,0,1,1.3-3.542,4.767,4.767,0,0,1,3.494-1.274A4.318,4.318,0,0,1,87.8,16.028a4.787,4.787,0,0,1,1.178,3.437,4.717,4.717,0,0,1-1.27,3.45,4.562,4.562,0,0,1-3.408,1.3Zm.1-7.8a2.328,2.328,0,0,0-1.89.835,3.5,3.5,0,0,0-.694,2.3,3.293,3.293,0,0,0,.7,2.228,2.362,2.362,0,0,0,1.881.813,2.241,2.241,0,0,0,1.85-.8,3.54,3.54,0,0,0,.646-2.276,3.594,3.594,0,0,0-.646-2.294,2.23,2.23,0,0,0-1.854-.8ZM98.9,24H96.864V22.576h-.035a2.934,2.934,0,0,1-2.76,1.635q-3.19,0-3.19-3.832V15h2.039v5.168q0,2.426,1.872,2.426a1.892,1.892,0,0,0,1.49-.668,2.56,2.56,0,0,0,.584-1.749V15H98.9Zm9.677-1.3h-.035V24H106.5V10.676h2.039v5.906h.035a3.341,3.341,0,0,1,3.059-1.793A3.22,3.22,0,0,1,114.306,16a5.053,5.053,0,0,1,.962,3.239,5.641,5.641,0,0,1-1.081,3.617,3.571,3.571,0,0,1-2.953,1.358A2.9,2.9,0,0,1,108.58,22.7Zm-.053-3.577v1.116a2.382,2.382,0,0,0,.628,1.67,2.218,2.218,0,0,0,3.375-.2,4.111,4.111,0,0,0,.646-2.465,3.24,3.24,0,0,0-.6-2.079,1.979,1.979,0,0,0-1.63-.751,2.2,2.2,0,0,0-1.753.773,2.865,2.865,0,0,0-.663,1.935Zm16.444.932h-6.135a2.593,2.593,0,0,0,.769,1.925,2.861,2.861,0,0,0,2.017.677,4.448,4.448,0,0,0,2.646-.861V23.44a6.044,6.044,0,0,1-3.252.773,4.026,4.026,0,0,1-3.116-1.226,4.9,4.9,0,0,1-1.129-3.45,4.8,4.8,0,0,1,1.244-3.423,4.068,4.068,0,0,1,3.089-1.323,3.547,3.547,0,0,1,2.856,1.187,4.926,4.926,0,0,1,1.011,3.3ZM123,18.612a2.627,2.627,0,0,0-.519-1.709,1.733,1.733,0,0,0-1.406-.611,1.979,1.979,0,0,0-1.49.642,2.931,2.931,0,0,0-.751,1.679Zm8.66,5.288a3.534,3.534,0,0,1-1.573.3q-2.619,0-2.619-2.514V16.6h-1.5V15h1.5V12.917l2.039-.58V15h2.153v1.6h-2.153v4.5a1.773,1.773,0,0,0,.29,1.143,1.2,1.2,0,0,0,.967.343,1.4,1.4,0,0,0,.9-.3Zm6.5,0a3.534,3.534,0,0,1-1.573.3q-2.619,0-2.619-2.514V16.6h-1.5V15h1.5V12.917l2.039-.58V15h2.153v1.6h-2.153v4.5a1.773,1.773,0,0,0,.29,1.143,1.2,1.2,0,0,0,.967.343,1.4,1.4,0,0,0,.9-.3Zm9.378-3.85H141.4a2.593,2.593,0,0,0,.769,1.925,2.861,2.861,0,0,0,2.017.677,4.448,4.448,0,0,0,2.646-.861v1.644a6.044,6.044,0,0,1-3.252.773,4.026,4.026,0,0,1-3.116-1.226,4.9,4.9,0,0,1-1.129-3.45,4.8,4.8,0,0,1,1.244-3.423,4.068,4.068,0,0,1,3.089-1.323,3.547,3.547,0,0,1,2.856,1.187,4.926,4.926,0,0,1,1.011,3.3Zm-1.969-1.441a2.627,2.627,0,0,0-.519-1.709,1.733,1.733,0,0,0-1.406-.611,1.979,1.979,0,0,0-1.49.642,2.931,2.931,0,0,0-.751,1.679Zm9.132-1.67a1.69,1.69,0,0,0-1.063-.29,1.82,1.82,0,0,0-1.512.817,3.655,3.655,0,0,0-.606,2.224V24h-2.039V15h2.039v1.854h.035a3.135,3.135,0,0,1,.918-1.481,2.073,2.073,0,0,1,1.384-.532,1.718,1.718,0,0,1,.844.167Zm.844,7.251a1.261,1.261,0,0,1-.9-.347,1.1,1.1,0,0,1-.369-.831,1.124,1.124,0,0,1,.369-.844,1.252,1.252,0,0,1,.9-.352,1.278,1.278,0,0,1,.91.352,1.118,1.118,0,0,1,.374.844,1.1,1.1,0,0,1-.374.831,1.287,1.287,0,0,1-.906.35Z" transform="translate(151.995 92.35)" fill="#333"/><path d="M-3563.64-1751.57h-14.18l-38.028-61.4,38.028-61.4h14.149l-37.02,61.374,37.05,61.424Z" transform="translate(3615.843 1890.349)" opacity="0" fill="url(#e)"/></g></svg>