<svg xmlns="http://www.w3.org/2000/svg" xmlns:xlink="http://www.w3.org/1999/xlink" width="512" height="451.67" viewBox="0 0 512 451.67">
  <defs>
    <linearGradient id="linear-gradient" x1="0.5" x2="0.5" y2="1" gradientUnits="objectBoundingBox">
      <stop offset="0" stop-color="#ff4b70"/>
      <stop offset="1" stop-color="#7c4dff"/>
    </linearGradient>
  </defs>
  <g id="Healthcare" transform="translate(0 -30.165)">
    <g id="Group_365" data-name="Group 365">
      <g id="Group_364" data-name="Group 364">
        <path id="Path_5243" data-name="Path 5243" d="M424.5,81.836a10,10,0,1,0,10,10A10,10,0,0,0,424.5,81.836Z" fill="url(#linear-gradient)"/>
      </g>
    </g>
    <g id="Group_367" data-name="Group 367">
      <g id="Group_366" data-name="Group 366">
        <path id="Path_5244" data-name="Path 5244" d="M476.458,71.761c-23.865-26.823-56.967-41.6-93.208-41.6-39.629,0-75.791,15.361-104.574,44.423A177.206,177.206,0,0,0,256,102.8a177.34,177.34,0,0,0-22.676-28.213C204.541,45.526,168.38,30.165,128.75,30.165,52.894,30.165,0,93.626,0,169.076,0,270.994,108,356.809,249.451,479.392a10,10,0,0,0,13.1,0C404.333,356.516,512,270.852,512,169.076,512,132.081,499.378,97.521,476.458,71.761ZM256,458.607C122.431,343.023,20,260.007,20,169.076c0-67.79,46.752-118.91,108.75-118.91,34.424,0,64.661,12.786,89.871,38a149.089,149.089,0,0,1,28.255,39.011,10,10,0,0,0,9.109,5.9H256a10.015,10.015,0,0,0,9.121-5.9A149.108,149.108,0,0,1,293.38,88.167c25.209-25.216,55.446-38,89.871-38,62,0,108.75,51.12,108.75,118.91C492,262.06,382.81,348.872,256,458.607Z" fill="url(#linear-gradient)"/>
      </g>
    </g>
    <g id="Group_369" data-name="Group 369">
      <g id="Group_368" data-name="Group 368">
        <path id="Path_5245" data-name="Path 5245" d="M459.476,117.461a10,10,0,0,0-17.712,9.288A92.707,92.707,0,0,1,452,169.076c0,28.9-13.753,59.565-43.282,96.517a10,10,0,0,0,15.624,12.486c32.514-40.688,47.658-75.325,47.658-109A111.5,111.5,0,0,0,459.476,117.461Z" fill="url(#linear-gradient)"/>
      </g>
    </g>
    <g id="Group_371" data-name="Group 371">
      <g id="Group_370" data-name="Group 370">
        <path id="Path_5246" data-name="Path 5246" d="M352,221.836H296v-56a10,10,0,0,0-10-10H226a10,10,0,0,0-10,10v56H160a10,10,0,0,0-10,10v60a10,10,0,0,0,10,10h56v56a10,10,0,0,0,10,10h60a10,10,0,0,0,10-10v-56h56a10,10,0,0,0,10-10v-60A10,10,0,0,0,352,221.836Zm-10,60H286a10,10,0,0,0-10,10v56H236v-56a10,10,0,0,0-10-10H170v-40h56a10,10,0,0,0,10-10v-56h40v56a10,10,0,0,0,10,10h56Z" fill="url(#linear-gradient)"/>
      </g>
    </g>
  </g>
</svg>
