<svg xmlns="http://www.w3.org/2000/svg" xmlns:xlink="http://www.w3.org/1999/xlink" width="512.001" height="512" viewBox="0 0 512.001 512">
  <defs>
    <linearGradient id="linear-gradient" x1="0.5" x2="0.5" y2="1" gradientUnits="objectBoundingBox">
      <stop offset="0" stop-color="#ff4b70"/>
      <stop offset="1" stop-color="#7c4dff"/>
    </linearGradient>
  </defs>
  <g id="Housing" transform="translate(0 -0.001)">
    <g id="Group_373" data-name="Group 373">
      <g id="Group_372" data-name="Group 372">
        <path id="Path_5247" data-name="Path 5247" d="M447.145,250a10,10,0,0,0,13.047-.959l48.887-48.986a10,10,0,0,0-1.109-15.088L458,147.795V48a10,10,0,0,0-10-10H384a10,10,0,0,0-10,10V85.312L261.969,1.978a10,10,0,0,0-11.938,0L162.466,67.114A10,10,0,0,0,174.4,83.161l81.6-60.7L486.753,194.11l-34.609,34.68L261.969,87.329a10,10,0,0,0-11.938,0L59.857,228.79,25.248,194.11l89.673-66.7a10,10,0,1,0-11.937-16.047L4.031,184.965a10,10,0,0,0-1.109,15.088l48.887,48.986A10,10,0,0,0,64.856,250L72,244.683V324H20A20.023,20.023,0,0,0,0,344V492a20.023,20.023,0,0,0,20,20H88a20.013,20.013,0,0,0,19.742-16.951l46.509,16.383a9.994,9.994,0,0,0,3.322.568H300.365a70.008,70.008,0,0,0,45.173-16.549l108.17-91.543A40.555,40.555,0,0,0,440,334.359V244.683ZM438,132.918l-44-32.729V58h44ZM88,492H20V344H44v74a10,10,0,0,0,20,0V344H88v8.014l.011,128.549c-.011.231,0,.461,0,.69l0,10.747ZM442.505,358.879a20.564,20.564,0,0,1-1.718,29.763l-108.17,91.543A49.982,49.982,0,0,1,300.364,492H159.283L108,473.936V362h73.355a49.762,49.762,0,0,1,27.694,8.385l66.9,44.6a13.044,13.044,0,0,1-12.858,22.624l-57.233-27.338a10,10,0,1,0-8.621,18.046l57.233,27.338a33.045,33.045,0,0,0,32.573-57.312l-66.9-44.6A69.71,69.71,0,0,0,181.356,342H107.9A20.045,20.045,0,0,0,92,324.4v-94.6L256,107.815,420,229.806V333.084h0a40.393,40.393,0,0,0-18.6,8.808L321.8,408.8a10,10,0,1,0,12.869,15.309l79.6-66.912A20.565,20.565,0,0,1,442.505,358.879Z" fill="url(#linear-gradient)"/>
      </g>
    </g>
    <g id="Group_375" data-name="Group 375">
      <g id="Group_374" data-name="Group 374">
        <path id="Path_5248" data-name="Path 5248" d="M146.649,89.531a9.992,9.992,0,1,0,2.931,7.07A10.072,10.072,0,0,0,146.649,89.531Z" fill="url(#linear-gradient)"/>
      </g>
    </g>
    <g id="Group_377" data-name="Group 377">
      <g id="Group_376" data-name="Group 376">
        <path id="Path_5249" data-name="Path 5249" d="M294.24,193.245a10,10,0,0,0-13.624,3.792L214.07,314.914a10,10,0,1,0,17.416,9.832l66.546-117.877A10,10,0,0,0,294.24,193.245Z" fill="url(#linear-gradient)"/>
      </g>
    </g>
    <g id="Group_379" data-name="Group 379">
      <g id="Group_378" data-name="Group 378">
        <path id="Path_5250" data-name="Path 5250" d="M300.048,268.907a34,34,0,1,0,34,34A34.038,34.038,0,0,0,300.048,268.907Zm0,48a14,14,0,1,1,14-14A14.015,14.015,0,0,1,300.048,316.907Z" fill="url(#linear-gradient)"/>
      </g>
    </g>
    <g id="Group_381" data-name="Group 381">
      <g id="Group_380" data-name="Group 380">
        <path id="Path_5251" data-name="Path 5251" d="M212.053,172.012a34,34,0,1,0,34,34A34.038,34.038,0,0,0,212.053,172.012Zm0,48a14,14,0,1,1,14-14A14.015,14.015,0,0,1,212.053,220.012Z" fill="url(#linear-gradient)"/>
      </g>
    </g>
    <g id="Group_383" data-name="Group 383">
      <g id="Group_382" data-name="Group 382">
        <path id="Path_5252" data-name="Path 5252" d="M61.569,450.431A9.992,9.992,0,1,0,64.5,457.5,10.072,10.072,0,0,0,61.569,450.431Z" fill="url(#linear-gradient)"/>
      </g>
    </g>
  </g>
</svg>
