<svg xmlns="http://www.w3.org/2000/svg" width="61.259" height="69.474" viewBox="0 0 61.259 69.474">
  <g id="html" transform="translate(-0.445 -15.102)">
    <path id="Path_5196" data-name="Path 5196" d="M61.7,70.766l-5.581,62.519L31.037,140.24,6.02,133.295.445,70.766Z" transform="translate(0 -55.664)" fill="#e44d26"/>
    <path id="Path_5197" data-name="Path 5197" d="M128,151.1l20.271-5.62,4.769-53.426H128Z" transform="translate(-96.926 -71.842)" fill="#f16529"/>
    <path id="Path_5198" data-name="Path 5198" d="M56.3,131.664H67.147V124H47.917l.183,2.057,1.885,21.134H67.147v-7.669H57Zm1.728,19.357h-7.7L51.4,163.062l15.709,4.361.035-.01v-7.979l-.034.009-8.541-2.306Z" transform="translate(-36.073 -96.111)" fill="#ebebeb"/>
    <path id="Path_5200" data-name="Path 5200" d="M127.889,147.186h9.443l-.89,9.946-8.553,2.309v7.978l15.722-4.357.115-1.3,1.8-20.19.187-2.059H127.889Zm0-15.541v.019h18.524l.154-1.724.35-3.888L147.1,124H127.889v7.65Z" transform="translate(-96.841 -96.111)" fill="#fff"/>
  </g>
</svg>
