<svg xmlns="http://www.w3.org/2000/svg" width="30" height="30" viewBox="0 0 30 30">
  <g id="insta" transform="translate(0 0)">
    <circle id="Ellipse_173" data-name="Ellipse 173" cx="15" cy="15" r="15" transform="translate(0 0)" fill="#ff4b70"/>
    <g id="instagram" transform="translate(6 6)">
      <path id="Path_3050" data-name="Path 3050" d="M12.551,0H5.7A5.705,5.705,0,0,0,0,5.7v6.846a5.705,5.705,0,0,0,5.7,5.7h6.846a5.705,5.705,0,0,0,5.7-5.7V5.7A5.705,5.705,0,0,0,12.551,0Zm3.993,12.551a4,4,0,0,1-3.993,3.993H5.7a4,4,0,0,1-3.993-3.993V5.7A4,4,0,0,1,5.7,1.711h6.846A4,4,0,0,1,16.544,5.7Z" fill="#fff"/>
      <path id="Path_3051" data-name="Path 3051" d="M12.064,7.5a4.564,4.564,0,1,0,4.564,4.564A4.564,4.564,0,0,0,12.064,7.5Zm0,7.416a2.852,2.852,0,1,1,2.852-2.852A2.856,2.856,0,0,1,12.064,14.916Z" transform="translate(-2.936 -2.936)" fill="#fff"/>
      <circle id="Ellipse_174" data-name="Ellipse 174" cx="0.608" cy="0.608" r="0.608" transform="translate(13.426 3.613)" fill="#fff"/>
    </g>
  </g>
</svg>
