<svg xmlns="http://www.w3.org/2000/svg" width="215.774" height="215.775" viewBox="0 0 215.774 215.775">
  <path id="Intersection_1" data-name="Intersection 1" d="M-4828.667,277.438l109.1-109.1-109.1,109.1Zm107.718-87.919-86.532,86.533Zm-126.582,85.57,125.619-125.62-125.619,125.62Zm-15.246-4.554,136.312-136.311-136.312,136.311Zm132.361-51.749-47.8,47.8Zm-145.852,45.442,143.495-143.5-143.495,143.5Zm-12-7.8,147.7-147.7-147.7,147.7Zm-11.356-9.857,149.2-149.2-149.2,149.2Zm-9.24-10.558,147.881-147.881-147.881,147.881Zm-7.891-11.91L-4772.9,80.244l-143.861,143.861Zm-6.412-13.386,136.887-136.888-136.887,136.888Zm-4.682-15.118L-4801.4,69.15-4927.85,195.6Zm-2.537-18.676,110.313-110.313-110.313,110.313Zm1.086-20.885,88.341-88.342-88.341,88.342Zm8.51-28.31,51.523-51.523-51.523,51.523Z" transform="translate(4932.862 -64.138)" fill="none" stroke="#d5274a" stroke-linecap="round" stroke-width="7"/>
</svg>
