<svg id="invision" xmlns="http://www.w3.org/2000/svg" width="71.448" height="71.834" viewBox="0 0 71.448 71.834">
  <path id="Path_5203" data-name="Path 5203" d="M64.971,0H6.477A6.494,6.494,0,0,0,0,6.512V65.323a6.494,6.494,0,0,0,6.477,6.512H64.971a6.494,6.494,0,0,0,6.477-6.512V6.512A6.494,6.494,0,0,0,64.971,0" fill="#dc395f"/>
  <path id="Path_5204" data-name="Path 5204" d="M57.537,58.375a4.324,4.324,0,1,0-4.364-4.325,4.326,4.326,0,0,0,4.364,4.325m-9.05,23.155a14.929,14.929,0,0,0-.385,3.248c0,3.808,2.054,6.336,6.419,6.336,3.62,0,6.555-2.161,8.668-5.651L61.9,90.67h7.188L73.194,74.1c1.027-4.194,3.017-6.372,6.034-6.372a3.6,3.6,0,0,1,3.851,3.936,7.769,7.769,0,0,1-.321,2.323L80.64,81.606a11.5,11.5,0,0,0-.449,3.227c0,3.615,2.117,6.259,6.546,6.259,3.787,0,6.8-2.451,8.472-8.324l-2.824-1.1c-1.412,3.934-2.632,4.646-3.595,4.646s-1.476-.645-1.476-1.935a8.6,8.6,0,0,1,.321-2l2.054-7.419a16.443,16.443,0,0,0,.706-4.706c0-5.55-3.338-8.446-7.381-8.446-3.787,0-7.638,3.434-9.563,7.049l1.412-6.488H63.888l-1.541,5.714h5.135L64.32,80.814c-2.483,5.55-7.044,5.64-7.617,5.511-.94-.213-1.541-.572-1.541-1.8a12.231,12.231,0,0,1,.449-2.953l4.814-19.2h-12.2L46.69,68.086h5.07L48.487,81.531" transform="translate(-33.659 -35.774)" fill="#fff"/>
</svg>
