<svg id="java-4" xmlns="http://www.w3.org/2000/svg" width="57.283" height="77.67" viewBox="0 0 57.283 77.67">
  <path id="Path_2755" data-name="Path 2755" d="M79.876,259.208s-2.968,1.726,2.112,2.31a44.445,44.445,0,0,0,16.083-.682,27.982,27.982,0,0,0,4.274,2.087c-15.2,6.516-34.411-.377-22.469-3.714m-1.858-8.5s-3.329,2.464,1.755,2.99a62.742,62.742,0,0,0,20.751-1,9.212,9.212,0,0,0,3.2,1.949c-18.384,5.376-38.859.424-25.7-3.943" transform="translate(-61.427 -199.141)" fill="#5382a1"/>
  <path id="Path_2756" data-name="Path 2756" d="M155.647,101.452c3.746,4.313-.984,8.2-.984,8.2s9.512-4.911,5.144-11.06c-4.08-5.735-7.209-8.584,9.73-18.409,0,0-26.59,6.641-13.89,21.274" transform="translate(-123.393 -64.314)" fill="#e76f00"/>
  <path id="Path_2757" data-name="Path 2757" d="M66.918,229.387s2.2,1.81-2.419,3.21c-8.776,2.659-36.528,3.462-44.238.106-2.771-1.206,2.426-2.879,4.06-3.23a10.543,10.543,0,0,1,2.679-.3c-3.082-2.171-19.921,4.263-8.553,6.106,31,5.027,56.511-2.264,48.47-5.891m-32.487-23.6s-14.116,3.353-5,4.57c3.85.515,11.524.4,18.672-.2,5.842-.493,11.708-1.54,11.708-1.54a24.794,24.794,0,0,0-3.55,1.9c-14.335,3.77-42.027,2.016-34.055-1.84a26.709,26.709,0,0,1,12.224-2.889m25.323,14.155c14.572-7.572,7.835-14.849,3.132-13.869a10.907,10.907,0,0,0-1.667.448,2.657,2.657,0,0,1,1.245-.96c9.3-3.271,16.458,9.647-3,14.763a1.266,1.266,0,0,0,.293-.382" transform="translate(-14.555 -163.031)" fill="#5382a1"/>
  <path id="Path_2758" data-name="Path 2758" d="M120.687,4.4s8.07,8.073-7.654,20.487c-12.609,9.958-2.875,15.636-.005,22.123-7.36-6.641-12.762-12.487-9.138-17.928,5.319-7.987,20.054-11.859,16.8-24.682" transform="translate(-84.273 -4.399)" fill="#e76f00"/>
  <path id="Path_2759" data-name="Path 2759" d="M74.866,347.374c13.987.9,35.467-.5,35.975-7.115,0,0-.978,2.509-11.56,4.5a115.007,115.007,0,0,1-35.4.545s1.788,1.479,10.981,2.069" transform="translate(-53.558 -269.948)" fill="#5382a1"/>
</svg>
