<svg xmlns="http://www.w3.org/2000/svg" width="61.673" height="70.474" viewBox="0 0 61.673 70.474">
  <g id="javascript" transform="translate(0 -21.671)">
    <path id="Path_275" data-name="Path 275" d="M61.673,489.9H0l5.782,63.3,25.052,7.174L55.885,553.2Z" transform="translate(0 -468.229)" fill="#e6a329"/>
    <path id="Path_276" data-name="Path 276" d="M887.9,637v60.053l20.3-5.815L913.136,637Z" transform="translate(-857.066 -610.221)" fill="#f1bf22"/>
    <path id="Path_277" data-name="Path 277" d="M424.983,858.5H393.774L391.6,882.333l.045-.148h26.514l-.864,10.084-8.459,2.471-8.584-2.511-.514-6.1h-7.792l1.112,12.2,15.779,4.548,15.786-4.548,2.174-23.938H398.657l.361-7.976h19.523l.292,4.57h7.858Z" transform="translate(-378.001 -824.029)" fill="#fff"/>
    <path id="Path_278" data-name="Path 278" d="M408.842,858.5H393.774L391.6,882.333l.045-.148h17.2V874.41h-9.087l.361-7.976h8.726Zm-9.087,27.629h-7.81l1.112,12.189,15.779,4.543v-8.111l-8.584-2.517Z" transform="translate(-378.001 -824.029)" fill="#ebebeb"/>
  </g>
</svg>
