<svg xmlns="http://www.w3.org/2000/svg" width="71.684" height="72.189" viewBox="0 0 71.684 72.189">
  <g id="joomla" transform="translate(-0.663 -0.747)">
    <path id="Path_5233" data-name="Path 5233" d="M126.6,11.341A9.47,9.47,0,0,0,107.756,10l-.1-.051c-7.745-3.493-14.27,2.694-14.27,2.694L76.133,29.988l6.819,6.567L96.842,22.908c6.486-6.487,10.018-2.1,10.018-2.1,4.883,4.125.168,9.008.168,9.008l6.988,6.735c5.706-6.163,6.037-11.541,4.3-15.82a9.47,9.47,0,0,0,8.283-9.394" transform="translate(-54.255 -0.807)" fill="#f9ae41"/>
    <path id="Path_5234" data-name="Path 5234" d="M158.611,109.635l.051-.1c3.494-7.746-2.694-14.27-2.694-14.27L138.624,78.011l-6.566,6.819L145.7,98.721c6.486,6.487,2.1,10.019,2.1,10.019-4.125,4.883-9.008.168-9.008.168l-6.735,6.987c6.163,5.706,11.541,6.037,15.82,4.3a9.47,9.47,0,1,0,10.733-10.562" transform="translate(-94.458 -55.544)" fill="#ee4035"/>
    <path id="Path_5235" data-name="Path 5235" d="M44.314,133.04,30.423,146.687c-6.487,6.487-10.019,2.1-10.019,2.1-4.883-4.125-.168-9.008-.168-9.008l-6.987-6.735c-5.706,6.163-6.037,11.541-4.3,15.82a9.47,9.47,0,1,0,10.563,10.733l.1.05c7.746,3.494,14.27-2.694,14.27-2.694l17.258-17.343-6.819-6.566" transform="translate(0 -95.104)" fill="#4f91cd"/>
    <path id="Path_5236" data-name="Path 5236" d="M21.926,30.507c-6.487-6.487-2.1-10.019-2.1-10.019,4.126-4.883,9.008-.168,9.008-.168l6.735-6.987C29.41,7.627,24.032,7.3,19.753,9.03A9.47,9.47,0,1,0,9.02,19.593c-.032.061-.05.1-.05.1-3.494,7.745,2.694,14.269,2.694,14.269L29.007,51.216,35.573,44.4,21.926,30.507" transform="translate(-0.162 0)" fill="#7ac043"/>
  </g>
</svg>
