<svg xmlns="http://www.w3.org/2000/svg" width="75.035" height="72.285" viewBox="0 0 75.035 72.285">
  <path id="jquery" d="M6.479,20.974C-.164,30.521.663,42.945,5.738,53.091c.12.243.247.482.372.722l.237.457.148.263.264.473q.237.417.484.831l.276.455c.183.3.37.588.562.879l.24.37c.264.395.535.788.814,1.175l.023.03.137.186c.242.333.49.662.742.987l.279.355q.337.424.685.843l.262.313c.312.367.631.733.955,1.091l.02.02.037.041c.317.346.642.685.971,1.023l.311.314c.255.257.514.509.775.76l.317.3c.349.329.7.652,1.063.968l.017.013.185.158c.317.275.64.548.966.815l.4.319q.4.32.8.629l.43.327q.448.33.9.648l.329.233.09.064c.288.2.582.389.877.58l.379.253c.452.285.91.568,1.373.841l.379.214q.51.295,1.03.578c.188.1.381.2.57.294.245.128.489.258.738.383l.17.083.3.146c.386.184.775.366,1.169.54l.247.111q.676.3,1.363.567l.332.131c.424.163.854.325,1.286.476l.161.056c.474.166.952.319,1.434.469l.346.1a14.029,14.029,0,0,0,1.481.417C65.606,81.256,74.939,56.09,74.939,56.09,67.1,66.3,53.188,69,40.005,66c-.5-.113-.984-.269-1.471-.413l-.367-.111q-.714-.219-1.417-.461l-.195-.07c-.42-.148-.835-.3-1.249-.463l-.351-.138q-.679-.268-1.349-.561l-.269-.119c-.382-.173-.761-.348-1.138-.529l-.329-.158c-.3-.144-.588-.3-.88-.448-.2-.1-.394-.2-.587-.307-.357-.191-.706-.389-1.055-.592l-.356-.2c-.463-.272-.92-.555-1.373-.841l-.37-.247c-.328-.211-.655-.427-.978-.65l-.314-.221q-.466-.33-.924-.668l-.409-.31c-.28-.214-.558-.429-.834-.652l-.372-.3c-.351-.289-.7-.578-1.038-.875l-.114-.1c-.37-.325-.732-.658-1.091-.992l-.308-.3c-.266-.253-.527-.508-.784-.769l-.307-.307q-.491-.5-.963-1.018l-.048-.051c-.332-.364-.658-.735-.976-1.111l-.255-.3c-.237-.286-.473-.576-.7-.869l-.257-.32c-.276-.359-.547-.716-.811-1.081C8.445,39.47,5.815,25.7,11.664,14.395M27.1,12.929c-4.8,6.914-4.543,16.169-.8,23.481a30.468,30.468,0,0,0,2.125,3.547A16.851,16.851,0,0,0,30.9,43.045c.346.381.708.754,1.078,1.119l.284.28c.359.348.723.69,1.1,1.023l.045.039.011.011c.417.366.848.717,1.286,1.064l.292.228c.439.337.887.667,1.345.982l.039.03c.2.14.408.27.614.4l.291.192c.328.21.66.415,1,.611l.142.082c.291.167.585.332.881.493l.314.163c.2.107.408.216.616.319l.093.042c.423.208.851.41,1.287.6l.284.117c.349.148.7.293,1.054.428l.452.166c.321.119.643.228.968.337l.438.14a10.718,10.718,0,0,0,1.4.4C71.022,56.429,76.75,37.33,76.75,37.33c-5.162,7.435-15.16,10.983-25.828,8.213-.474-.125-.941-.26-1.405-.406L49.094,45q-.5-.16-.982-.339l-.443-.165c-.357-.137-.708-.278-1.058-.426l-.285-.12q-.657-.286-1.294-.6c-.219-.107-.434-.219-.649-.33l-.375-.193c-.276-.149-.551-.3-.821-.464l-.2-.111q-.5-.294-.994-.607l-.3-.2c-.216-.14-.432-.283-.644-.426-.457-.316-.9-.646-1.341-.981l-.3-.238A29.908,29.908,0,0,1,29.279,25.359,22.4,22.4,0,0,1,31.027,7.385m13.419-.467A14.456,14.456,0,0,0,43.3,20.866,19.645,19.645,0,0,0,54.577,31.4c.2.075.409.143.616.213l.272.086a7.914,7.914,0,0,0,.884.255c13.7,2.647,17.413-7.029,18.4-8.453-3.254,4.686-8.723,5.81-15.434,4.181-.53-.128-1.113-.32-1.623-.5a19.622,19.622,0,0,1-5.308-2.863c-6-4.557-9.735-13.248-5.817-20.326" transform="translate(-1.714 -3.997)" fill="#0868ac"/>
</svg>
