<svg xmlns="http://www.w3.org/2000/svg" width="30" height="30" viewBox="0 0 30 30">
  <g id="linkdin" transform="translate(0 0)">
    <circle id="Ellipse_173" data-name="Ellipse 173" cx="15" cy="15" r="15" transform="translate(0 0)" fill="#ff4b70"/>
    <g id="linkedin" transform="translate(8 8)">
      <rect id="Rectangle_185" data-name="Rectangle 185" width="3.261" height="10.025" transform="translate(0 4.557)" fill="#fff"/>
      <path id="Path_3052" data-name="Path 3052" d="M16.961,9.493c-.035-.011-.067-.023-.1-.033s-.087-.018-.132-.026a2.923,2.923,0,0,0-.585-.059h0a4.531,4.531,0,0,0-3.5,1.917V9.375H9.375V19.4h3.261V13.932s2.464-3.432,3.5-.911V19.4H19.4V12.635A3.251,3.251,0,0,0,16.961,9.493Z" transform="translate(-4.818 -4.818)" fill="#fff"/>
      <circle id="Ellipse_175" data-name="Ellipse 175" cx="1.595" cy="1.595" r="1.595" fill="#fff"/>
    </g>
  </g>
</svg>
