<svg id="mail" xmlns="http://www.w3.org/2000/svg" width="15.425" height="10.99" viewBox="0 0 15.425 10.99">
  <path id="Path_3057" data-name="Path 3057" d="M164.625,48.858c0-.018.012-.035.011-.052l-4.707,4.536,4.7,4.391c0-.031-.006-.063-.006-.1Z" transform="translate(-149.212 -47.752)" fill="#fff"/>
  <path id="Path_3058" data-name="Path 3058" d="M20.271,126.9,18.35,128.75a.5.5,0,0,1-.691.006l-1.916-1.786-4.732,4.561a1.09,1.09,0,0,0,.368.073H24.624a1.09,1.09,0,0,0,.529-.146Z" transform="translate(-10.272 -120.614)" fill="#fff"/>
  <path id="Path_3059" data-name="Path 3059" d="M13.443,40.166l7.184-6.92a1.089,1.089,0,0,0-.555-.162H6.825a1.092,1.092,0,0,0-.695.259Z" transform="translate(-5.719 -33.085)" fill="#fff"/>
  <path id="Path_3060" data-name="Path 3060" d="M0,52.1v8.61A1.093,1.093,0,0,0,.047,61l4.673-4.5Z" transform="translate(0 -50.826)" fill="#fff"/>
</svg>
