<svg xmlns="http://www.w3.org/2000/svg" xmlns:xlink="http://www.w3.org/1999/xlink" width="75.439" height="82.57" viewBox="0 0 75.439 82.57">
  <defs>
    <linearGradient id="linear-gradient" x1="-4.183" y1="0.143" x2="-3.174" y2="0.794" gradientUnits="objectBoundingBox">
      <stop offset="0" stop-color="#909ca9"/>
      <stop offset="1" stop-color="#ededee"/>
    </linearGradient>
    <linearGradient id="linear-gradient-2" x1="-8.133" y1="37.388" x2="-6.64" y2="37.388" gradientUnits="objectBoundingBox">
      <stop offset="0" stop-color="#939fab"/>
      <stop offset="1" stop-color="#dcdee1"/>
    </linearGradient>
    <radialGradient id="radial-gradient" cx="0.443" cy="0.439" r="0.128" gradientTransform="matrix(-0.691, -0.149, -0.208, 1.978, -19.227, -9.973)" gradientUnits="objectBoundingBox">
      <stop offset="0" stop-color="#ee352c"/>
      <stop offset="1" stop-color="#a91d22"/>
    </radialGradient>
  </defs>
  <g id="microsoft-sql" transform="translate(-531.963 0.001)">
    <g id="Group_288" data-name="Group 288" transform="translate(531.964 -0.001)">
      <path id="Path_5196" data-name="Path 5196" d="M380.142,463.277l-16.536,5.4-14.386,6.349-4.025,1.063c-1.025.975-2.1,1.962-3.262,2.962-1.275,1.1-2.462,2.1-3.375,2.825a25.169,25.169,0,0,0-3.275,3.25,14.735,14.735,0,0,0-2.425,4.1,6.883,6.883,0,0,0,.975,6.187c1.7,2.5,5.087,5.049,9.036,6.787a57.406,57.406,0,0,0,7.949,2.662,105.247,105.247,0,0,0,16.948,2.413,19.461,19.461,0,0,0,2.187,0,29.79,29.79,0,0,0,1.613-3.062A77.415,77.415,0,0,0,377.43,488.7a73.5,73.5,0,0,0,1.5-10.749c.088-1.212.125-5.275.05-6.649a46.7,46.7,0,0,0-.625-5.862,1.351,1.351,0,0,1-.038-.512,21.536,21.536,0,0,1,2.237-.675l-.412-.975h0Zm-3.775,2.212a40.477,40.477,0,0,1,.65,6.262,3.349,3.349,0,0,1-.012.85c-.1,0-2.112-1.187-3.549-2.087-1.25-.787-3.625-2.362-4-2.662-.125-.087-.113-.1.912-.45C372.105,466.814,376.23,465.489,376.368,465.489Zm-8.424,2.775a4.149,4.149,0,0,1,1.087.587,77.468,77.468,0,0,0,7.574,4.212c.462.2.512.125-.55.85a54.473,54.473,0,0,1-8.587,4.612c-.612.275-1.125.487-1.137.487a3.239,3.239,0,0,1,.15-.687,36.852,36.852,0,0,0,1.338-8.787c.012-1.25.012-1.25.125-1.287C367.918,468.264,367.931,468.264,367.944,468.264Zm-1.737.662a26.942,26.942,0,0,1-.075,3.637,31.81,31.81,0,0,1-1.15,5.437,8.343,8.343,0,0,1-.287.875,21.984,21.984,0,0,1-2.325-2.262,16.913,16.913,0,0,1-2.3-3.35,10.537,10.537,0,0,1-.7-1.7C359.569,471.426,366.156,468.877,366.206,468.927Zm-8.174,3.212a.047.047,0,0,1,.038.012,2.338,2.338,0,0,1,.188.45,16.891,16.891,0,0,0,2.075,3.712,21.153,21.153,0,0,0,2.887,3.112c.3.25.575.487.612.525.075.075.1.062-1.937.837-2.362.9-4.937,1.8-7.887,2.75q-1.057.341-2.112.687c-.113.038-.075-.025.25-.537a70.291,70.291,0,0,0,4.937-9.949c.213-.55.425-1.1.463-1.225a.451.451,0,0,1,.275-.325A1.209,1.209,0,0,1,358.032,472.139Zm-2.5,1.037a27.971,27.971,0,0,1-1.225,2.587c-1.212,2.362-2.537,4.687-4.312,7.512-.3.487-.587.937-.625.987-.062.088-.088.062-.287-.325a11.461,11.461,0,0,1-.962-2.9,11.669,11.669,0,0,1,.063-3.725c.162-.775.15-.762.525-.95C350.308,475.551,355.483,473.126,355.533,473.176Zm21.56.875v.525a68,68,0,0,1-.738,9.4c-.075.487-.138.887-.15.9s-.362-.1-.787-.225a32.257,32.257,0,0,1-5.749-2.462,25.463,25.463,0,0,1-2.925-1.8c.012-.012.537-.287,1.15-.612a73.625,73.625,0,0,0,6.837-4.012c.762-.512,1.912-1.337,2.162-1.562Zm-31,3.7c.05,0,.037.1-.038.55-.05.325-.112.925-.137,1.337a9.248,9.248,0,0,0,1.1,5.025,10.378,10.378,0,0,1,.437.95c-.088.075-8.362,2.5-10.961,3.212-.775.212-1.45.4-1.5.412-.087.025-.1.013-.062-.2a13.133,13.133,0,0,1,3.637-6.262,16.168,16.168,0,0,1,4.112-3.15c1.275-.725,3.237-1.812,3.387-1.862C346.071,477.75,346.083,477.75,346.1,477.75Zm19.5,3.487a5.033,5.033,0,0,1,.675.363,37.654,37.654,0,0,0,9.574,3.725l.288.063-.4.225c-1.662.925-7.124,3.2-12.711,5.287-.813.3-1.612.6-1.763.662a.9.9,0,0,1-.288.088c0-.013.225-.45.512-.987a61.67,61.67,0,0,0,3.937-8.962C365.519,481.463,365.581,481.25,365.594,481.238Zm-1.987.65a3.6,3.6,0,0,1-.213.575,79.149,79.149,0,0,1-4.337,8.737c-.462.825-.85,1.487-.863,1.487s-.387-.225-.837-.5a25.7,25.7,0,0,1-6.537-5.562l-.225-.275,1.137-.312a81.618,81.618,0,0,0,10.974-3.787C363.194,482.05,363.594,481.888,363.607,481.888Zm12.349,4.312h0c.012.288-.625,2.862-1.15,4.724-.437,1.562-.813,2.787-1.5,4.949-.3.95-.562,1.737-.575,1.737a.83.83,0,0,1-.162-.037,52.241,52.241,0,0,1-10.161-2.862c-.875-.35-2.125-.913-2.2-.975a14.614,14.614,0,0,1,1.675-.787c5.687-2.487,11.586-5.312,13.611-6.524A1.631,1.631,0,0,1,375.955,486.2Zm-28.509.975c.025.025-1.562,2.312-3.787,5.424-.775,1.087-1.675,2.362-2.012,2.837s-.85,1.225-1.137,1.675l-.525.813-.562-.475a20.821,20.821,0,0,1-2.325-2.375,10.256,10.256,0,0,1-2.087-4.037c-.138-.6-.138-.9-.013-.937.187-.05,3.525-.837,6.649-1.563,1.737-.4,3.749-.875,4.474-1.05S347.433,487.175,347.446,487.175Zm1.6.612.4.45a23.465,23.465,0,0,0,5.862,4.8,3.291,3.291,0,0,1,.675.438c-.087.063-7.724,2.774-11.261,4-1.987.7-3.625,1.262-3.637,1.262a2.149,2.149,0,0,1-.25-.162l-.225-.162.362-.525c1.175-1.7,2.65-3.562,5.862-7.437l2.212-2.662Zm9.974,7.137c.012-.012.562.187,1.237.438a40.014,40.014,0,0,0,4.637,1.437,51.326,51.326,0,0,0,7.012,1.212c.275.025.425.05.375.088-.088.05-1.925.662-3.275,1.087-2.15.675-8.712,2.612-14.061,4.149-.987.287-1.837.525-1.887.537a.991.991,0,0,1-.537-.138,9.048,9.048,0,0,1,.662-.837,74.2,74.2,0,0,0,5.075-6.824C358.669,495.449,359.02,494.936,359.02,494.924Zm-2.2.063c.012.012-.875,1.437-2.424,3.887-.663,1.037-1.4,2.212-1.663,2.625s-.625,1.025-.837,1.375l-.363.637-.187-.05c-.45-.125-3.612-1.237-4.45-1.575a30.956,30.956,0,0,1-2.912-1.337,12.17,12.17,0,0,1-2.15-1.362c.025-.012,1.737-.475,3.8-1.037,5.474-1.487,8.512-2.35,10.5-2.975A5,5,0,0,1,356.82,494.986Zm15.561,3.649h.012c.05.125-1.975,5.75-2.712,7.524-.162.4-.225.5-.312.487-.212-.012-3.15-.425-4.937-.687-3.112-.475-8.337-1.387-9.649-1.687l-.3-.062,1.862-.425c4-.9,5.924-1.387,7.874-1.987a55.66,55.66,0,0,0,7.362-2.837A6.035,6.035,0,0,1,372.381,498.636Z" transform="translate(-332.512 -424.73)" fill="url(#linear-gradient)"/>
      <path id="Path_5197" data-name="Path 5197" d="M474.3,82.735a79.463,79.463,0,0,0-7.574,2.725,47.3,47.3,0,0,0-8.712,4.375,6.606,6.606,0,0,0-1.687,1.687,1.167,1.167,0,0,0-.075.425l1.675,1.587,3.987,1.275,9.487,1.7,10.849,1.862.113-.937c-.037,0-.062-.012-.1-.012l-1.425-.225-.287-.512c-1.475-2.6-3.1-5.824-4.05-8a41.357,41.357,0,0,1-1.825-5.037c-.212-.85-.237-.9-.375-.912h0Zm-.2.638h.013c.012.012.062.363.112.775a26.109,26.109,0,0,0,1.212,5.262c.462,1.375.462,1.3-.075,1.137-1.275-.35-6.987-1.337-11.124-1.912-.662-.088-1.225-.175-1.225-.187-.05-.05,2.987-1.637,4.325-2.262C469.046,85.4,473.746,83.435,474.1,83.373Zm-12.049,5.6.488.162a74.5,74.5,0,0,0,12.986,2.475c.412.038.762.075.775.075a5.785,5.785,0,0,1-.787.412c-1.775.887-3.725,1.975-5.074,2.812a5.182,5.182,0,0,1-.812.45c-.05,0-.312-.05-.587-.088l-.5-.075-1.25-1.225c-2.2-2.137-3.925-3.787-4.587-4.412Zm-.5.387,1.762,2.2c.962,1.212,1.937,2.4,2.15,2.662a4.1,4.1,0,0,1,.375.488c-.05.037-2.55-.45-3.875-.75-1.362-.313-1.925-.463-2.762-.725l-.687-.225v-.175c.012-.837,1.075-2.087,2.875-3.362l.163-.113Zm14.973,3c.05,0,.112.112.262.45.425.937,1.75,3.462,2.075,3.95.1.163.275.175-1.487-.112-4.237-.688-5.6-.912-5.6-.937a1.3,1.3,0,0,1,.288-.188,24.4,24.4,0,0,0,3.812-2.637c.287-.238.55-.462.6-.5C476.483,92.359,476.508,92.347,476.52,92.359Z" transform="translate(-443.714 -82.734)" fill="url(#linear-gradient-2)"/>
      <path id="Path_5198" data-name="Path 5198" d="M399.411,167.757a1.245,1.245,0,0,0-.012,1.088,4.938,4.938,0,0,0,1.175,1.387s5.562,5.424,6.237,6.2a17.377,17.377,0,0,1,4.537,11.874,19.226,19.226,0,0,1-1.975,8.987c-2.6,5.674-8.087,11.936-16.548,18.886l1.238-.413a39.739,39.739,0,0,1,4.437-2.637,158.154,158.154,0,0,1,20.635-9.237c11.7-4.4,30.934-9.549,41.883-11.224l1.138-.175-.175-.275a38.547,38.547,0,0,0-2.512-3.537,30.031,30.031,0,0,0-8.874-7.387c-4.9-2.737-11.236-4.874-19.26-6.462-1.512-.3-4.837-.875-7.537-1.287-5.724-.887-9.424-1.5-13.5-2.2-1.462-.25-3.65-.625-5.1-.937a32.389,32.389,0,0,1-3.312-.887c-.9-.35-2.2-.7-2.475-1.763Zm3.225,3.125a3.482,3.482,0,0,1,.475.15c.475.162,1.087.35,1.812.55q.823.226,1.65.437c.75.187,1.375.362,1.387.362.088.088,1.35,4.124,1.775,5.674.162.588.287,1.087.275,1.087a2.526,2.526,0,0,1-.313-.487,26.017,26.017,0,0,0-6.449-7.287,5.33,5.33,0,0,1-.612-.487Zm6.149,1.7a4.913,4.913,0,0,1,.675.112c2.125.475,5.937,1.2,8.374,1.612a3.061,3.061,0,0,1,.738.162,1.261,1.261,0,0,1-.338.213c-.412.212-2.075,1.2-2.625,1.575a23.945,23.945,0,0,0-3.537,2.825c-.362.363-.675.662-.675.662s-.075-.212-.138-.475a40.5,40.5,0,0,0-2.237-6.124,5.365,5.365,0,0,1-.25-.575C408.773,172.594,408.773,172.582,408.785,172.582Zm10.824,2.062a4.811,4.811,0,0,1,.45,1.387,20.462,20.462,0,0,1,.6,5.724c-.025.525-.05,1.012-.075,1.075l-.037.125-.65-.212c-1.337-.425-3.512-1.063-5.374-1.587-1.063-.287-1.925-.55-1.925-.575a29.543,29.543,0,0,1,2.212-2.212,57.989,57.989,0,0,1,4.8-3.725Zm.862.125c.038-.037,5.174.85,7.512,1.3,1.737.337,4.262.862,4.412.925.075.025-.188.175-1.025.55a54.25,54.25,0,0,0-8.186,4.45c-.637.425-1.175.775-1.187.775a6.828,6.828,0,0,1-.025-.8,17.457,17.457,0,0,0-1.35-6.8A1.892,1.892,0,0,1,420.472,174.769Zm13.286,2.625a9.407,9.407,0,0,1-.275,1.65,31.332,31.332,0,0,1-3.149,7.224,8.239,8.239,0,0,1-.525.85,5.334,5.334,0,0,1-.75-.4,40.7,40.7,0,0,0-4.9-2.4c-.5-.212-.937-.387-.95-.412-.088-.075,3.937-2.737,6.062-4.012C430.958,178.868,433.708,177.344,433.758,177.394Zm.95.15c.113,0,2.387.625,3.575.975a73.732,73.732,0,0,1,8.512,3.112l.912.413-.637.15a93.171,93.171,0,0,0-14.411,4.462c-.362.15-.687.275-.712.275a3.218,3.218,0,0,1,.262-.638,25.311,25.311,0,0,0,2.412-8.324C434.633,177.731,434.67,177.544,434.707,177.544Zm-22.647,5.2c.037-.038,1.775.375,2.712.637,1.425.4,4.449,1.412,4.449,1.487,0,.012-.337.3-.737.65-1.637,1.362-3.212,2.8-5.1,4.624-.562.538-1.037.975-1.062.975s-.037-.075-.025-.175a28.178,28.178,0,0,0-.175-7.537C412.085,183.055,412.048,182.756,412.06,182.743Zm36.509.038a24.007,24.007,0,0,1-1.325,2.062c-.75,1.075-1.85,2.5-4.337,5.625-1.312,1.65-2.787,3.512-3.274,4.137s-.912,1.15-.925,1.15a4.3,4.3,0,0,1-.35-.5,25.83,25.83,0,0,0-5.062-5.587c-.375-.313-.787-.65-.925-.75a1.393,1.393,0,0,1-.25-.212c0-.037,2.125-.95,3.737-1.6,2.825-1.15,6.674-2.525,9.561-3.412,1.512-.475,3.125-.937,3.15-.912Zm.962.25a2.879,2.879,0,0,1,.712.35,42.392,42.392,0,0,1,8.362,6.274c.662.65,2.3,2.35,2.275,2.362,0,0-.575.05-1.25.1a123.2,123.2,0,0,0-18.473,3.075c-.437.1-.825.187-.85.187s.462-.487,1.075-1.075a31.978,31.978,0,0,0,7.587-10.1c.287-.612.537-1.137.562-1.175h0ZM421.7,185.88c.175.037,1.8.8,3.025,1.412,1.125.562,2.812,1.462,2.9,1.537.012.012-.588.325-1.325.687-2.35,1.175-4.362,2.287-6.462,3.562-.6.363-1.1.663-1.112.663-.05,0-.038-.05.3-.663a26.1,26.1,0,0,0,2.537-6.887c.05-.187.1-.312.137-.312Zm-1.625.3a23.863,23.863,0,0,1-.65,2.412,30.768,30.768,0,0,1-2.212,5.074c-.2.35-.5.862-.663,1.15l-.312.5-.7-.675a9.182,9.182,0,0,0-2.325-1.712,3.357,3.357,0,0,1-.6-.35c0-.1,2.137-2.037,3.775-3.437C417.559,188.13,420.034,186.143,420.072,186.18Zm9.937,4.087.612.4a47.52,47.52,0,0,1,4.312,3.187c.712.587,2.087,1.825,2.362,2.125l.15.163-1.012.287c-5.724,1.587-10.149,3-15.311,4.9-.575.212-1.062.387-1.1.387-.075,0-.137.062,1.15-1.125a54.874,54.874,0,0,0,8.4-9.649l.438-.675Zm-2.612.65c.025.025-1.687,2.437-2.712,3.8-1.225,1.625-3.4,4.35-4.9,6.124-.625.738-1.162,1.35-1.187,1.363s-.05-.175-.05-.462a10.475,10.475,0,0,0-1.062-4.5c-.287-.575-.337-.712-.275-.775.237-.213,3.874-2.287,6.174-3.525C424.934,192.117,427.358,190.892,427.4,190.917Zm-15.8,3.875a5.52,5.52,0,0,1,.65.325,13.726,13.726,0,0,1,2.15,1.45,3.728,3.728,0,0,1-.725.6c-1.187.85-2.987,2.212-4.037,3.05-1.1.875-1.137.9-1.013.712a23.036,23.036,0,0,0,1.675-2.887,23.272,23.272,0,0,0,1.05-2.612A2.118,2.118,0,0,1,411.6,194.792Zm4.212,3.3c.062-.012.138.1.475.6a9.017,9.017,0,0,1,1.4,3.637l.025.25-1.712.662c-3.062,1.187-5.887,2.362-7.8,3.237-.537.25-1.475.7-2.087,1s-1.112.55-1.112.537.387-.3.862-.65a50.4,50.4,0,0,0,9.4-8.661c.263-.313.5-.6.525-.613Zm-1.937.475a26.414,26.414,0,0,1-2.35,2.65,41.455,41.455,0,0,1-7.762,6.262c-.375.237-.712.45-.75.475-.088.05.025-.075,1.325-1.487.825-.887,1.45-1.637,2.162-2.562a4.224,4.224,0,0,1,1.25-1.188C409.586,201.391,413.822,198.516,413.872,198.566Z" transform="translate(-386.715 -159.145)" fill="url(#radial-gradient)"/>
    </g>
  </g>
</svg>
