<svg xmlns="http://www.w3.org/2000/svg" width="546.557" height="361.25" viewBox="0 0 546.557 361.25">
  <g id="mob" transform="translate(9.862 -793)">
    <path id="Path_3768" data-name="Path 3768" d="M6.608,0H539.949a6.812,6.812,0,0,1,6.608,7V336a6.812,6.812,0,0,1-6.608,7H6.608A6.812,6.812,0,0,1,0,336V7A6.812,6.812,0,0,1,6.608,0Z" transform="translate(-9.862 793)" fill="#dedede"/>
    <g id="undraw_drag_5i9w" transform="translate(13.337 805)">
      <path id="Path_3745" data-name="Path 3745" d="M500.12,436.993c-1.565,0-3.146-.025-4.7-.073l.035-1.127c2.228.069,4.5.089,6.74.058l.015,1.128Q501.169,436.992,500.12,436.993Zm8.88-.262-.066-1.126c2.231-.132,4.491-.317,6.717-.55l.118,1.121c-2.243.235-4.519.421-6.769.554Zm-20.358-.176c-2.25-.172-4.524-.4-6.758-.672l.138-1.119c2.218.272,4.474.5,6.706.667Zm33.863-1.24-.169-1.115c2.217-.336,4.451-.727,6.638-1.162l.22,1.106c-2.2.438-4.455.832-6.689,1.17Zm-47.34-.413c-2.223-.377-4.466-.81-6.668-1.288l.239-1.1c2.185.475,4.412.9,6.617,1.278Zm60.658-2.235-.271-1.095c2.176-.538,4.365-1.133,6.5-1.767l.321,1.082c-2.156.639-4.361,1.239-6.554,1.781Zm-73.928-.647c-2.18-.58-4.374-1.218-6.521-1.9l.34-1.075c2.131.674,4.308,1.306,6.471,1.882Zm86.947-3.216-.37-1.065c2.112-.734,4.236-1.528,6.314-2.36l.419,1.048C553.11,427.267,550.969,428.066,548.841,428.806Zm-99.912-.883c-2.118-.778-4.248-1.618-6.332-2.5l.438-1.04c2.068.871,4.182,1.7,6.284,2.477Zm112.506-4.156-.467-1.027c2.028-.921,4.067-1.905,6.059-2.924l.513,1c-2.007,1.026-4.062,2.017-6.1,2.946Zm-125.046-1.125c-2.035-.97-4.079-2-6.072-3.067l.532-.995c1.978,1.057,4.006,2.081,6.026,3.044ZM573.5,417.6l-.558-.979c1.945-1.11,3.886-2.276,5.77-3.468l.6.953C577.42,415.3,575.464,416.48,573.5,417.6Zm-149.11-1.364c-1.936-1.152-3.875-2.366-5.762-3.609l.621-.942c1.873,1.234,3.8,2.439,5.718,3.582Zm160.573-5.888-.646-.924c1.831-1.279,3.659-2.62,5.432-3.982l.688.895c-1.786,1.373-3.628,2.723-5.474,4.012Zm-171.924-1.588c-1.821-1.322-3.639-2.708-5.406-4.118l.7-.881c1.753,1.4,3.558,2.774,5.365,4.086Zm182.684-6.681-.727-.862c1.707-1.44,3.406-2.941,5.05-4.461l.766.828c-1.656,1.532-3.368,3.044-5.088,4.5Zm-193.3-1.8c-1.7-1.485-3.38-3.029-5.007-4.591l.781-.814c1.614,1.55,3.286,3.083,4.969,4.557Zm203.269-7.423-.8-.792c1.574-1.595,3.13-3.245,4.626-4.9l.838.755c-1.507,1.673-3.075,3.335-4.661,4.942Zm-213.067-1.981c-1.556-1.636-3.092-3.327-4.567-5.025l.852-.739c1.463,1.686,2.988,3.364,4.532,4.987Zm222.159-8.11-.871-.716c1.422-1.73,2.821-3.515,4.161-5.307l.9.675c-1.35,1.806-2.76,3.6-4.193,5.348Zm-231.058-2.142c-1.4-1.765-2.773-3.588-4.089-5.417l.915-.659c1.306,1.815,2.671,3.624,4.058,5.376Zm239.2-8.74-.933-.633c1.258-1.852,2.49-3.759,3.662-5.667l.962.59c-1.182,1.923-2.423,3.844-3.69,5.71ZM375.8,369.611c-1.229-1.884-2.432-3.823-3.576-5.764l.972-.573c1.135,1.926,2.329,3.851,3.549,5.72ZM630.039,360.3l-.987-.545c1.083-1.96,2.135-3.972,3.128-5.982l1.011.5c-1,2.025-2.061,4.053-3.152,6.027ZM368.92,357.927c-1.052-1.988-2.072-4.028-3.032-6.063l1.02-.481c.953,2.019,1.965,4.044,3.009,6.017ZM636.063,348.1l-1.033-.453c.9-2.053,1.762-4.155,2.566-6.248l1.053.4c-.809,2.109-1.68,4.228-2.585,6.3ZM363.138,345.67c-.865-2.075-1.693-4.2-2.461-6.311l1.06-.386c.762,2.1,1.584,4.2,2.442,6.263Zm277.8-10.274-1.071-.355c.7-2.121,1.368-4.289,1.974-6.444l1.086.305C642.319,331.075,641.65,333.26,640.941,335.4ZM358.5,332.924c-.671-2.15-1.3-4.346-1.874-6.528l1.091-.286c.568,2.166,1.194,4.345,1.86,6.478Zm286.113-10.6-1.1-.256c.505-2.174.967-4.394,1.373-6.6l1.109.2c-.409,2.222-.874,4.458-1.384,6.65Zm-289.559-2.535c-.47-2.2-.9-4.448-1.265-6.672l1.113-.185c.367,2.208.789,4.435,1.256,6.622Zm292.016-10.82-1.118-.153c.3-2.209.56-4.462.762-6.7l1.124.1c-.2,2.252-.462,4.521-.767,6.748Zm-294.239-2.576c-.266-2.233-.484-4.507-.649-6.759l1.125-.083c.163,2.236.38,4.492.644,6.709ZM648.3,295.447l-1.127-.051c.1-2.235.151-4.5.151-6.738h1.128c0,2.253-.052,4.537-.153,6.789Zm-296.457-2.6c-.039-1.383-.058-2.794-.058-4.193q0-1.3.022-2.6l1.128.02q-.022,1.287-.022,2.579c0,1.389.02,2.789.058,4.162Zm295.474-5.767c-.023-2.236-.1-4.5-.222-6.738l1.126-.063c.125,2.252.2,4.535.224,6.788ZM353.2,279.345l-1.126-.071c.141-2.254.335-4.53.577-6.766l1.121.121C353.537,274.849,353.344,277.108,353.2,279.345Zm293.364-5.716c-.225-2.224-.505-4.474-.833-6.688l1.116-.165c.329,2.231.612,4.5.839,6.739Zm-291.913-7.681-1.115-.172c.346-2.232.747-4.481,1.194-6.686l1.105.224C355.4,261.5,355,263.734,354.655,265.949ZM644.6,260.3c-.43-2.2-.915-4.415-1.443-6.583l1.1-.267c.531,2.184,1.021,4.417,1.454,6.633Zm-287.27-7.558-1.094-.274c.548-2.185,1.154-4.388,1.8-6.548l1.08.324C358.473,248.387,357.871,250.573,357.327,252.741Zm284.082-5.535c-.629-2.148-1.316-4.308-2.043-6.422l1.066-.367c.733,2.13,1.425,4.308,2.059,6.472Zm-280.2-7.389-1.064-.374c.75-2.132,1.559-4.275,2.406-6.368l1.046.423C362.757,235.576,361.954,237.7,361.21,239.818Zm275.818-5.355c-.823-2.076-1.7-4.159-2.62-6.193l1.029-.463c.923,2.049,1.81,4.148,2.639,6.24ZM366.273,227.3l-1.025-.471c.942-2.052,1.945-4.109,2.98-6.115l1,.517C368.2,223.22,367.208,225.262,366.273,227.3Zm265.235-5.1c-1.01-1.991-2.079-3.987-3.179-5.93l.982-.556c1.109,1.959,2.186,3.969,3.2,5.976Zm-259.044-6.9-.978-.563c1.125-1.954,2.312-3.91,3.527-5.813l.951.607C374.759,211.424,373.581,213.366,372.464,215.3Zm252.417-4.814c-1.192-1.9-2.44-3.788-3.71-5.619l.926-.643c1.28,1.845,2.537,3.75,3.738,5.662Zm-245.157-6.556-.922-.65c1.3-1.844,2.66-3.683,4.042-5.464l.891.691C382.364,200.28,381.015,202.1,379.725,203.935Zm237.483-4.508c-1.359-1.78-2.775-3.55-4.209-5.261l.865-.725c1.444,1.723,2.871,3.507,4.241,5.3ZM387.989,193.28l-.859-.731c1.459-1.714,2.98-3.42,4.521-5.071l.825.769C390.948,189.885,389.438,191.579,387.989,193.28ZM608.556,189.1c-1.515-1.649-3.087-3.284-4.671-4.858l.8-.8c1.6,1.587,3.18,3.233,4.707,4.9Zm-211.37-5.676-.789-.806c1.613-1.578,3.282-3.138,4.961-4.637l.751.842c-1.666,1.487-3.323,3.035-4.923,4.6ZM599,179.6c-1.661-1.506-3.375-2.992-5.1-4.415l.719-.869c1.733,1.434,3.461,2.931,5.135,4.449Zm-191.763-5.15-.712-.875c1.745-1.421,3.548-2.822,5.359-4.165l.672.906c-1.8,1.333-3.588,2.723-5.319,4.133Zm181.375-3.444c-1.792-1.349-3.635-2.673-5.479-3.935l.637-.931c1.858,1.271,3.716,2.6,5.521,3.964Zm-170.555-4.574-.63-.936c1.867-1.256,3.789-2.487,5.714-3.657l.586.964c-1.91,1.162-3.817,2.383-5.671,3.629Zm159.422-3.041c-1.906-1.18-3.864-2.33-5.818-3.419l.548-.985c1.97,1.1,3.942,2.256,5.863,3.445Zm-147.923-3.954-.541-.99c1.975-1.081,4-2.13,6.02-3.117l.5,1.013C433.523,157.325,431.513,158.365,429.553,159.438Zm136.135-2.613c-2.007-1-4.063-1.966-6.111-2.871l.456-1.032c2.064.912,4.136,1.886,6.159,2.893Zm-124.052-3.3-.448-1.035c2.064-.895,4.176-1.753,6.276-2.551l.4,1.055c-2.084.792-4.18,1.643-6.228,2.531Zm111.7-2.163c-2.089-.81-4.226-1.583-6.354-2.3l.359-1.07c2.144.72,4.3,1.5,6.4,2.315Zm-99.12-2.615-.351-1.072c2.144-.7,4.331-1.365,6.5-1.966l.3,1.087c-2.153.6-4.324,1.254-6.451,1.952Zm86.329-1.677c-2.151-.613-4.346-1.184-6.522-1.7l.259-1.1c2.193.517,4.4,1.092,6.573,1.71ZM467.2,145.147l-.251-1.1c2.2-.5,4.436-.959,6.654-1.359l.2,1.11C471.6,144.2,469.382,144.649,467.2,145.147Zm60.229-1.166c-2.2-.412-4.434-.779-6.65-1.09l.156-1.117c2.233.314,4.488.683,6.7,1.1Zm-46.968-1.227-.149-1.118c2.233-.3,4.5-.549,6.749-.744l.1,1.124c-2.229.194-4.482.443-6.7.739Zm33.624-.647c-2.222-.209-4.483-.371-6.722-.479l.055-1.127c2.255.109,4.534.272,6.773.483Zm-20.2-.524-.047-1.127c2.073-.086,4.186-.131,6.281-.131h.511l0,1.128h-.507c-2.078,0-4.176.044-6.233.13Z" transform="translate(-188.923 -140.325)" fill="#3f3d56"/>
      <path id="Path_3746" data-name="Path 3746" d="M865.735,611.132a6.768,6.768,0,1,1,6.768-6.768,6.768,6.768,0,0,1-6.768,6.768Zm0-12.408a5.64,5.64,0,1,0,5.64,5.64A5.64,5.64,0,0,0,865.735,598.724Z" transform="translate(-410.05 -339.691)" fill="#2f2e41"/>
      <path id="Path_3747" data-name="Path 3747" d="M424.468,255.416V292.46a1.3,1.3,0,0,1-1.292,1.292h-.919V486.727a20.136,20.136,0,0,1-20.134,20.135H281.543a20.131,20.131,0,0,1-20.129-20.133V300.519h-.666a.912.912,0,0,1-.914-.908V278.529a.914.914,0,0,1,.914-.914h.665v-7.941h-.671a.957.957,0,0,1-.953-.959V247.92a.956.956,0,0,1,.953-.953h.671v-10.84h-.682a.845.845,0,0,1-.846-.846V223.933a.85.85,0,0,1,.846-.852h.682V200.1a20.13,20.13,0,0,1,20.129-20.129h120.58A20.135,20.135,0,0,1,422.257,200.1v54.021h.919A1.3,1.3,0,0,1,424.468,255.416Z" transform="translate(-148.813 -157.612)" fill="#3f3d56"/>
      <rect id="Rectangle_244" data-name="Rectangle 244" width="22.461" height="4.561" rx="2.28" transform="translate(177.802 32.688)" fill="#e6e8ec"/>
      <circle id="Ellipse_190" data-name="Ellipse 190" cx="2.587" cy="2.587" r="2.587" transform="translate(203.659 32.381)" fill="#e6e8ec"/>
      <path id="Path_3748" data-name="Path 3748" d="M421.778,212.849V497.159A12.775,12.775,0,0,1,409,509.929H293.579A12.753,12.753,0,0,1,280.8,497.159V212.849a12.774,12.774,0,0,1,12.775-12.775h17.275v2.217a10.519,10.519,0,0,0,10.519,10.519h58.7a10.519,10.519,0,0,0,10.519-10.519v-2.217H409A12.771,12.771,0,0,1,421.778,212.849Z" transform="translate(-157.975 -166.375)" fill="#7c4dff"/>
      <rect id="Rectangle_245" data-name="Rectangle 245" width="130.85" height="63.733" transform="translate(128.464 126.902)" opacity="0.2"/>
      <rect id="Rectangle_246" data-name="Rectangle 246" width="130.85" height="63.733" transform="translate(333.763 54.145)" fill="#f2f2f2"/>
      <rect id="Rectangle_247" data-name="Rectangle 247" width="130.85" height="63.733" transform="translate(128.464 223.504)" fill="#3f3d56"/>
      <circle id="Ellipse_191" data-name="Ellipse 191" cx="11.28" cy="11.28" r="11.28" transform="translate(234.497 57.122)" fill="#fff"/>
      <path id="Path_3749" data-name="Path 3749" d="M434.98,116.992h-4.714v-4.713h-.725v4.713h-4.713v.725h4.713v4.713h.725v-4.713h4.714Z" transform="translate(-184.127 -48.953)" fill="#3f3d56"/>
      <rect id="Rectangle_248" data-name="Rectangle 248" width="130.85" height="63.733" transform="translate(319.098 45.685)" fill="#3f3d56"/>
      <path id="Path_3750" data-name="Path 3750" d="M731.561,277.6c3.426,12.662,15.158,20.5,15.158,20.5s6.179-12.687,2.754-25.349-15.158-20.5-15.158-20.5S728.136,264.937,731.561,277.6Z" transform="translate(-354.051 -189.123)" fill="#fff"/>
      <path id="Path_3751" data-name="Path 3751" d="M723.127,284.7c9.4,9.15,10.547,23.215,10.547,23.215s-14.091-.769-23.49-9.919-10.547-23.215-10.547-23.215S713.727,275.553,723.127,284.7Z" transform="translate(-340.583 -198.948)" fill="#ff4b70"/>
      <path id="Path_3752" data-name="Path 3752" d="M383.4,594.6c3.425,12.662,15.158,20.5,15.158,20.5s6.179-12.687,2.753-25.349-15.158-20.5-15.158-20.5S379.978,581.937,383.4,594.6Z" transform="translate(-202.257 -327.333)" fill="#fff"/>
      <path id="Path_3753" data-name="Path 3753" d="M374.969,601.7c9.4,9.15,10.547,23.215,10.547,23.215s-14.091-.769-23.49-9.919-10.547-23.215-10.547-23.215S365.569,592.553,374.969,601.7Z" transform="translate(-188.789 -337.157)" fill="#ff4b70"/>
      <path id="Path_3754" data-name="Path 3754" d="M424.806,594.6c-3.425,12.662-15.158,20.5-15.158,20.5s-6.179-12.687-2.754-25.349,15.158-20.5,15.158-20.5S428.231,581.937,424.806,594.6Z" transform="translate(-212.499 -327.333)" fill="#fff"/>
      <path id="Path_3755" data-name="Path 3755" d="M422.375,601.7c-9.4,9.15-10.547,23.215-10.547,23.215s14.091-.769,23.49-9.919,10.547-23.215,10.547-23.215S431.773,592.553,422.375,601.7Z" transform="translate(-215.1 -337.157)" fill="#ff4b70"/>
      <path id="Path_3756" data-name="Path 3756" d="M672.187,468.279H661.053V457.145h11.134Zm-10.278-.857h9.421V458H661.91Z" transform="translate(-323.761 -278.456)" fill="#3f3d56"/>
      <path id="Path_3757" data-name="Path 3757" d="M156.567,586.8l-7.594-8.142,8.142-7.594,7.594,8.142Zm-6.384-8.1,6.426,6.89,6.89-6.426-6.426-6.89Z" transform="translate(-100.498 -328.124)" fill="#2f2e41"/>
      <circle id="Ellipse_192" data-name="Ellipse 192" cx="5.684" cy="5.684" r="5.684" transform="translate(56.401 72.124)" fill="#3f3d56"/>
      <path id="Path_3758" data-name="Path 3758" d="M160.41,282.008a16.422,16.422,0,1,1,16.422-16.422A16.422,16.422,0,0,1,160.41,282.008Zm0-31.58a15.158,15.158,0,1,0,15.158,15.158,15.158,15.158,0,0,0-15.158-15.158Z" transform="translate(-98.324 -187.778)" fill="#2f2e41"/>
      <rect id="Rectangle_250" data-name="Rectangle 250" width="130.85" height="63.733" transform="translate(156.664 116.75)" fill="#3f3d56"/>
      <rect id="Rectangle_251" data-name="Rectangle 251" width="1.128" height="41.968" transform="translate(221.608 138.602)" fill="#fff"/>
      <circle id="Ellipse_193" data-name="Ellipse 193" cx="5.935" cy="5.935" r="5.935" transform="translate(216.237 133.231)" fill="#ff4b70"/>
      <path id="Path_3759" data-name="Path 3759" d="M442.851,419.339S442,401.1,424.622,403.223" transform="translate(-220.679 -254.872)" fill="#fff"/>
      <path id="Path_3760" data-name="Path 3760" d="M645.625,541.093,573.042,563.8l-90.291-56.975,0,0-.3-.182-.049-.032-.718-.45-8.6-5.409c.016-.146.036-.288.065-.426a3.893,3.893,0,0,1,.884-1.8,4.343,4.343,0,0,1,.511-.511h0c.081-.069.166-.138.255-.2s.182-.134.28-.195c1.663-1.115,4.168-1.59,6.78-1.732a32.27,32.27,0,0,1,16.272,3.528c10.149,5.133,31.965,15.234,35.367,9.046,4.46-8.11-46.226-98.534-46.226-98.534-4.173-10.725-1.119-14.229.795-15.332.057-.032.114-.065.166-.093a4.721,4.721,0,0,1,.628-.268,2.892,2.892,0,0,1,.345-.1.787.787,0,0,1,.093-.02l6.723,8.937.1.134.361.483.109.146,40.756,54.165C599.8,424.311,621.3,514.33,621.3,514.33Z" transform="translate(-241.809 -250.97)" fill="#fbbebe"/>
      <path id="Path_3761" data-name="Path 3761" d="M508.254,403.817a1.763,1.763,0,0,1-1.634.993,2.591,2.591,0,0,1-.665-.089c-1.508-.405-3.256-2.06-4.562-4.318a9.3,9.3,0,0,1-1.5-5.9,4.714,4.714,0,0,1,.628-.268,2.909,2.909,0,0,1,.345-.1c-.523,1.026-.211,3.357,1.233,5.859,1.18,2.048,2.778,3.6,4.063,3.937a1.1,1.1,0,0,0,1.521-.88l.1.134.361.483Z" transform="translate(-253.461 -250.985)" fill="#3f3d56"/>
      <path id="Path_3762" data-name="Path 3762" d="M483.185,586.8l-.049-.032-.718-.45c0-1.156-.872-3.049-2.806-4.951-1.634-1.594-3.532-2.64-4.841-2.688a4.334,4.334,0,0,1,.511-.511h0c.081-.069.166-.138.255-.2a10.574,10.574,0,0,1,4.639,2.822C482.3,582.876,483.472,585.256,483.185,586.8Z" transform="translate(-242.543 -331.132)" fill="#3f3d56"/>
    </g>
  </g>
</svg>
