<svg xmlns="http://www.w3.org/2000/svg" width="41.676" height="93.072" viewBox="0 0 41.676 93.072">
  <g id="mongodb" transform="translate(0 -0.203)">
    <path id="Path_5198" data-name="Path 5198" d="M30.971,99.432l-2.478-.847s.3-12.631-4.231-13.537c-3.021-3.506.485-148.673,11.363-.484,0,0-3.747,1.873-4.412,5.077-.726,3.143-.242,9.791-.242,9.791Z" transform="translate(-8.014 -6.157)" fill="#fff" fill-rule="evenodd"/>
    <path id="Path_5199" data-name="Path 5199" d="M30.971,99.432l-2.478-.847s.3-12.631-4.231-13.537c-3.021-3.506.485-148.673,11.363-.484,0,0-3.747,1.873-4.412,5.077-.726,3.143-.242,9.791-.242,9.791Z" transform="translate(-8.014 -6.157)" fill="#a6a385" fill-rule="evenodd"/>
    <path id="Path_5200" data-name="Path 5200" d="M35.078,81.194s21.7-14.263,16.62-43.938C46.8,15.682,35.259,8.611,33.99,5.891A30.509,30.509,0,0,1,31.27.573l.907,60.012c0,.061-1.874,18.373,2.9,20.61" transform="translate(-10.791 -0.128)" fill="#fff" fill-rule="evenodd"/>
    <path id="Path_5201" data-name="Path 5201" d="M35.078,81.194s21.7-14.263,16.62-43.938C46.8,15.682,35.259,8.611,33.99,5.891A30.509,30.509,0,0,1,31.27.573l.907,60.012c0,.061-1.874,18.373,2.9,20.61" transform="translate(-10.791 -0.128)" fill="#499d4a" fill-rule="evenodd"/>
    <path id="Path_5202" data-name="Path 5202" d="M19.21,81.852S-1.157,67.951.052,43.476C1.2,19,15.584,6.972,18.364,4.8,20.177,2.863,20.237,2.137,20.359.2c1.269,2.72,1.028,40.674,1.208,45.146C22.11,62.573,20.6,78.589,19.21,81.852Z" transform="translate(0)" fill="#fff" fill-rule="evenodd"/>
    <path id="Path_5203" data-name="Path 5203" d="M19.21,81.852S-1.157,67.951.052,43.476C1.2,19,15.584,6.972,18.364,4.8,20.177,2.863,20.237,2.137,20.359.2c1.269,2.72,1.028,40.674,1.208,45.146C22.11,62.573,20.6,78.589,19.21,81.852Z" transform="translate(0)" fill="#58aa50" fill-rule="evenodd"/>
  </g>
</svg>
