<svg xmlns="http://www.w3.org/2000/svg" width="68.868" height="67.602" viewBox="0 0 68.868 67.602">
  <g id="mysql" transform="translate(-0.024)">
    <path id="Path_5198" data-name="Path 5198" d="M63.459,52.286A21.681,21.681,0,0,0,54.372,53.6c-.7.281-1.827.281-1.921,1.171.375.375.422.984.75,1.5a10.981,10.981,0,0,0,2.436,2.857c.983.749,1.967,1.5,3,2.154,1.827,1.124,3.888,1.78,5.668,2.9,1.031.655,2.061,1.5,3.091,2.2.515.374.843.984,1.5,1.218v-.14c-.328-.422-.422-1.031-.75-1.5-.468-.468-.937-.89-1.405-1.358a22.217,22.217,0,0,0-4.871-4.73c-1.5-1.031-4.778-2.436-5.387-4.169l-.094-.093a19.048,19.048,0,0,0,3.232-.75c1.592-.422,3.044-.328,4.684-.75.749-.187,1.5-.422,2.248-.656v-.421c-.843-.843-1.452-1.967-2.342-2.764a62.451,62.451,0,0,0-7.728-5.761c-1.452-.937-3.326-1.546-4.872-2.342-.562-.281-1.5-.422-1.826-.89a18.892,18.892,0,0,1-1.921-3.606c-1.358-2.576-2.67-5.433-3.841-8.15a49.819,49.819,0,0,0-2.389-5.34C36.807,16.22,31.561,11.4,23.505,6.665a22.514,22.514,0,0,0-6-1.92C16.339,4.7,15.168,4.6,14,4.557a18.636,18.636,0,0,1-2.155-1.639C9.173,1.231,2.287-2.422.32,2.4-.945,5.447,2.194,8.444,3.271,9.991A22.062,22.062,0,0,1,5.66,13.5c.328.8.421,1.64.749,2.482a56.238,56.238,0,0,0,2.436,6.277,22.647,22.647,0,0,0,1.733,2.9c.375.515,1.03.75,1.171,1.592-.656.937-.7,2.342-1.078,3.513-1.686,5.293-1.03,11.85,1.358,15.738.749,1.171,2.529,3.748,4.918,2.764,2.108-.843,1.64-3.513,2.248-5.855.141-.563.047-.937.328-1.312V41.7c.656,1.311,1.311,2.576,1.92,3.888a26.748,26.748,0,0,0,6.089,6.277c1.125.843,2.014,2.295,3.42,2.81v-.141h-.094a5.179,5.179,0,0,0-1.077-.937,22.709,22.709,0,0,1-2.436-2.81A60.267,60.267,0,0,1,22.1,42.262c-.749-1.452-1.405-3.044-2.014-4.5-.281-.563-.281-1.405-.75-1.686a17.63,17.63,0,0,0-2.248,3.185c-.889,2.014-.983,4.5-1.311,7.072-.187.047-.094,0-.188.094-1.5-.375-2.014-1.921-2.576-3.232a20.256,20.256,0,0,1-.421-12.506c.328-.984,1.733-4.075,1.171-5.012-.281-.89-1.218-1.405-1.733-2.108a18.872,18.872,0,0,1-1.686-3c-1.124-2.623-1.686-5.527-2.9-8.15A24.93,24.93,0,0,0,5.1,8.819,23.189,23.189,0,0,1,2.521,5.166c-.234-.515-.562-1.358-.187-1.92a.746.746,0,0,1,.656-.609c.609-.516,2.342.14,2.951.421A23.874,23.874,0,0,1,10.578,5.4c.656.468,1.358,1.358,2.2,1.593h.984c1.5.328,3.185.094,4.59.515A29.933,29.933,0,0,1,25.1,10.74,41.555,41.555,0,0,1,39.711,26.759c.562,1.077.8,2.061,1.311,3.185.984,2.3,2.2,4.637,3.185,6.886a30.8,30.8,0,0,0,3.326,6.277c.7.983,3.513,1.5,4.778,2.014a33.22,33.22,0,0,1,3.232,1.311c1.592.983,3.185,2.108,4.684,3.185.75.562,3.091,1.733,3.232,2.67Z" transform="translate(0 0)" fill="#00546b"/>
    <path id="Path_5199" data-name="Path 5199" d="M52.974,43.022a7.422,7.422,0,0,0-1.92.234v.094h.094a15.094,15.094,0,0,0,1.5,1.92c.375.749.7,1.5,1.078,2.249l.093-.094a2.643,2.643,0,0,0,.984-2.342,10.485,10.485,0,0,1-.562-.983C53.958,43.631,53.349,43.4,52.974,43.022Z" transform="translate(-37.291 -31.44)" fill="#00546b"/>
  </g>
</svg>
