<svg xmlns="http://www.w3.org/2000/svg" width="69.225" height="76.285" viewBox="0 0 69.225 76.285">
  <g id="nodejs" transform="translate(-0.603 -0.584)">
    <path id="Path_5196" data-name="Path 5196" d="M32.092,1.4a6.4,6.4,0,0,1,6.245,0Q52.6,9.457,66.862,17.51a5.872,5.872,0,0,1,2.966,5.057V54.89a5.936,5.936,0,0,1-3.187,5.167Q52.426,68.072,38.218,76.092a6.216,6.216,0,0,1-6.314-.176q-4.262-2.47-8.528-4.931A5.021,5.021,0,0,1,21.73,69.8c.362-.489,1.01-.549,1.537-.763a19.905,19.905,0,0,0,3.365-1.57.785.785,0,0,1,.876.052c2.429,1.393,4.837,2.826,7.275,4.206.52.3,1.047-.1,1.491-.346Q50.223,63.5,64.182,55.632a.923.923,0,0,0,.507-.909q.01-15.994,0-31.989a1,1,0,0,0-.6-1Q49.931,13.759,35.772,5.772a.984.984,0,0,0-1.112,0Q20.5,13.752,6.338,21.741a.988.988,0,0,0-.6.992q0,15.994,0,31.991a.9.9,0,0,0,.513.9q3.779,2.143,7.564,4.272a5.845,5.845,0,0,0,4.729.633,3.587,3.587,0,0,0,2.323-3.371c.013-10.6-.007-21.2.01-31.8a.8.8,0,0,1,.869-.815c1.211-.008,2.423-.016,3.634,0a.838.838,0,0,1,.791.969c0,10.667.013,21.335-.008,32,0,2.843-1.165,5.936-3.794,7.327a11.686,11.686,0,0,1-10.444-.287c-2.771-1.383-5.415-3.015-8.136-4.5A5.922,5.922,0,0,1,.6,54.89V22.568a5.883,5.883,0,0,1,3.067-5.121Q17.883,9.426,32.092,1.4Z" transform="translate(0)" fill="#8cc84b"/>
    <path id="Path_5197" data-name="Path 5197" d="M116.23,85.708c4.132-.266,8.556-.158,12.275,1.878a9.283,9.283,0,0,1,4.526,8.033.869.869,0,0,1-.943.64c-1.2,0-2.4.016-3.6-.008a.927.927,0,0,1-.868-.9A5.476,5.476,0,0,0,125,91.567c-2.211-1.107-4.775-1.051-7.186-1.028a9.755,9.755,0,0,0-5.144,1.281,3.26,3.26,0,0,0-1.084,3.642c.385.915,1.442,1.211,2.306,1.483,4.98,1.3,10.257,1.173,15.142,2.887a7.129,7.129,0,0,1,4.693,4.175,8.919,8.919,0,0,1-1.511,8.509,11.923,11.923,0,0,1-6.4,3.45,30.753,30.753,0,0,1-9.662.41c-3.022-.345-6.166-1.138-8.5-3.2a8.919,8.919,0,0,1-2.872-7.035.806.806,0,0,1,.882-.71c1.207-.01,2.415-.013,3.622,0a.846.846,0,0,1,.865.837,5.488,5.488,0,0,0,2.042,3.853c2.454,1.583,5.533,1.475,8.343,1.519,2.328-.1,4.941-.134,6.841-1.673a3.778,3.778,0,0,0,1.028-3.609c-.293-1.066-1.409-1.563-2.367-1.888-4.916-1.555-10.253-.991-15.121-2.75a7.359,7.359,0,0,1-4.647-4.05,8.3,8.3,0,0,1,1.657-8.63c2.175-2.19,5.315-3.033,8.3-3.335Z" transform="translate(-75.872 -61.919)" fill="#8cc84b"/>
  </g>
</svg>
