<svg xmlns="http://www.w3.org/2000/svg" width="99.392" height="12.921" viewBox="0 0 99.392 12.921">
  <path id="oracle" d="M42.908,8.406h6.568L46,2.819l-6.374,10.1h-2.9L44.481.786A1.832,1.832,0,0,1,46,0a1.8,1.8,0,0,1,1.491.766l7.783,12.155h-2.9l-1.369-2.257H44.359l-1.45-2.257Zm30.131,2.257V.122H70.578V11.7a1.206,1.206,0,0,0,.357.858,1.258,1.258,0,0,0,.9.368H83.059l1.451-2.257H73.039ZM32.316,8.774a4.326,4.326,0,1,0,0-8.651H21.547v12.8h2.461V2.38h8.145a2.073,2.073,0,0,1,0,4.147l-6.939-.01,7.348,6.4h3.575L31.193,8.774h1.124ZM6.4,12.921a6.4,6.4,0,1,1,0-12.8h7.439a6.4,6.4,0,1,1,0,12.8Zm7.273-2.257a4.142,4.142,0,1,0,0-8.283H6.565a4.142,4.142,0,1,0,0,8.283h7.109Zm46.741,2.257a6.4,6.4,0,1,1,0-12.8H69.25L67.81,2.38H60.578a4.142,4.142,0,1,0,0,8.283h8.876L68,12.921H60.415Zm30.1-2.257A4.136,4.136,0,0,1,86.532,7.65h10.52L98.5,5.393H86.532A4.148,4.148,0,0,1,90.516,2.38h7.221L99.2.122H90.352a6.4,6.4,0,1,0,0,12.8h7.589l1.45-2.257H90.516Z" fill="#ea1b22"/>
</svg>
