<svg xmlns="http://www.w3.org/2000/svg" width="61" height="72" viewBox="0 0 61 72">
  <g id="pen" opacity="0.6">
    <g id="Group_14" data-name="Group 14">
      <g id="Group_13" data-name="Group 13">
        <path id="Path_6" data-name="Path 6" d="M59.213,0H52.064a1.906,1.906,0,0,0-1.787,2.006V4.011H35.554A5.451,5.451,0,0,0,30.5,0a5.451,5.451,0,0,0-5.054,4.011H10.723V2.006A1.906,1.906,0,0,0,8.936,0H1.787A1.906,1.906,0,0,0,0,2.006v8.023a1.906,1.906,0,0,0,1.787,2.006H8.936a1.906,1.906,0,0,0,1.787-2.006V8h7.432C11.707,12.579,7.788,20.321,7.316,28.54a6.014,6.014,0,0,0-3.623,5.691c0,3.318,2.405,6.017,5.361,6.017s5.361-2.7,5.361-6.017A6.034,6.034,0,0,0,10.9,28.58c.635-9.446,6.7-17.582,14.8-19.891a5.347,5.347,0,0,0,4.8,3.345,5.347,5.347,0,0,0,4.8-3.345C43.407,11,49.468,19.134,50.1,28.58a6.034,6.034,0,0,0-3.518,5.651c0,3.318,2.405,6.017,5.361,6.017s5.361-2.7,5.361-6.017a6.014,6.014,0,0,0-3.623-5.691C53.211,20.3,49.281,12.6,42.846,8.023h7.432v2.006a1.906,1.906,0,0,0,1.787,2.006h7.148A1.906,1.906,0,0,0,61,10.028V2.006A1.906,1.906,0,0,0,59.213,0ZM7.148,8.023H3.574V4.011H7.148ZM9.055,36.236a2.019,2.019,0,0,1,0-4.011,2.019,2.019,0,0,1,0,4.011ZM30.5,8.023a1.908,1.908,0,0,1-1.787-2.006,1.8,1.8,0,1,1,3.574,0A1.908,1.908,0,0,1,30.5,8.023Zm21.445,24.2a2.019,2.019,0,1,1-1.787,2.006A1.908,1.908,0,0,1,51.945,32.225Zm5.48-24.2H53.852V4.011h3.574Z" fill="#2bc24f"/>
      </g>
    </g>
    <g id="Group_16" data-name="Group 16" transform="translate(12.449 19.72)">
      <g id="Group_15" data-name="Group 15">
        <path id="Path_7" data-name="Path 7" d="M58.689,47.886,42.644,23.818l0,0-.018-.025c-.028-.04-.057-.078-.087-.116a2.006,2.006,0,0,0-3.211.116l-.018.025,0,0L23.261,47.886a2.006,2.006,0,0,0,.251,2.531,25.411,25.411,0,0,1,7.242,14.829,10.337,10.337,0,0,0-.9.813A10.166,10.166,0,0,0,26.935,73.2a2.006,2.006,0,0,0,2.006,2.006H53.009A2.006,2.006,0,0,0,55.015,73.2a10.167,10.167,0,0,0-2.921-7.142,10.339,10.339,0,0,0-.9-.813,25.407,25.407,0,0,1,7.242-14.829A2.006,2.006,0,0,0,58.689,47.886Zm-17.714-.893A2.006,2.006,0,1,1,38.969,49,2.008,2.008,0,0,1,40.975,46.993Zm-9.686,24.2a6.127,6.127,0,0,1,5.675-4.145h8.023a6.127,6.127,0,0,1,5.675,4.145Zm16.137-7.851a9.854,9.854,0,0,0-2.44-.305H36.964a9.848,9.848,0,0,0-2.44.305,29.432,29.432,0,0,0-7.04-14.561L38.969,31.555V43.326a6.017,6.017,0,1,0,4.011,0V31.555L54.466,48.782A29.427,29.427,0,0,0,47.426,63.344Z" transform="translate(-22.924 -22.926)" fill="#2bc24f"/>
      </g>
    </g>
  </g>
</svg>
