<svg xmlns="http://www.w3.org/2000/svg" width="42" height="42" viewBox="0 0 42 42">
  <g id="phone_call_red" transform="translate(-469 -326)">
    <g id="Ellipse_316" data-name="Ellipse 316" transform="translate(469 326)" fill="none" stroke="#ff4b70" stroke-width="1.5">
      <circle cx="21" cy="21" r="21" stroke="none"/>
      <circle cx="21" cy="21" r="20.25" fill="none"/>
    </g>
    <path id="Icon_material-phone-in-talk" data-name="Icon material-phone-in-talk" d="M5.406,15.819A10.287,10.287,0,0,0,8.638,15.3a.924.924,0,0,1,.924.217l1.992,1.992a13.624,13.624,0,0,0,5.967-5.967l-1.992-2a.869.869,0,0,1-.226-.906,10.287,10.287,0,0,0,.516-3.233.908.908,0,0,1,.906-.906h3.169a.908.908,0,0,1,.906.906A15.392,15.392,0,0,1,5.406,20.8a.908.908,0,0,1-.906-.906V16.724A.908.908,0,0,1,5.406,15.819Zm.906-3.169H4.5A8.15,8.15,0,0,1,12.65,4.5V6.311A6.334,6.334,0,0,0,6.311,12.65Zm3.622,0H8.122A4.529,4.529,0,0,1,12.65,8.122V9.933A2.713,2.713,0,0,0,9.933,12.65Z" transform="translate(477.5 334.5)" fill="#ff4b70"/>
  </g>
</svg>
