<svg id="phone" xmlns="http://www.w3.org/2000/svg" width="12.208" height="15.014" viewBox="0 0 12.208 15.014">
  <g id="Group_171" data-name="Group 171">
    <path id="Path_3054" data-name="Path 3054" d="M12.428,11.019l-1.707-2.1a1.059,1.059,0,0,0-1.89.524,1.142,1.142,0,0,1-1.341.9A5.992,5.992,0,0,1,4.318,6.454a1.429,1.429,0,0,1,.732-1.646,1.541,1.541,0,0,0,.427-2.32L3.769.393a1.058,1.058,0,0,0-1.646,0L.964,1.815c-1.159,1.5.122,5.462,2.988,8.979s6.1,5.163,7.317,3.667l1.159-1.422A1.753,1.753,0,0,0,12.428,11.019Z" transform="translate(-0.539 0)" fill="#fff"/>
  </g>
</svg>
