<svg xmlns="http://www.w3.org/2000/svg" xmlns:xlink="http://www.w3.org/1999/xlink" width="71.34" height="69.556" viewBox="0 0 71.34 69.556">
  <defs>
    <radialGradient id="radial-gradient" cx="0.329" cy="0.224" r="0.781" gradientTransform="translate(-0.01 0.01) scale(0.973 0.968)" gradientUnits="objectBoundingBox">
      <stop offset="0" stop-color="#34364e" stop-opacity="0.98"/>
      <stop offset="1" stop-color="#0c0824"/>
    </radialGradient>
  </defs>
  <g id="photoshop-cc" transform="translate(0 -130.746)">
    <path id="Path_5196" data-name="Path 5196" d="M24.8,155.549H90.2V219.16H24.8Z" transform="translate(-21.831 -21.831)" fill="url(#radial-gradient)"/>
    <path id="Path_5197" data-name="Path 5197" d="M2.972,133.718H68.367V197.33H2.972ZM0,200.3H71.34V130.746H0Zm48.095-41.02c-2.348,0-3.151,1.189-3.151,2.17,0,1.07.535,1.813,3.686,3.448,4.667,2.259,6.123,4.429,6.123,7.61,0,4.756-3.626,7.312-8.531,7.312a12.932,12.932,0,0,1-6.094-1.278c-.208-.089-.238-.238-.238-.476V173.7c0-.3.149-.387.357-.238a11.033,11.033,0,0,0,5.975,1.754c2.348,0,3.329-.981,3.329-2.319,0-1.07-.684-2.021-3.686-3.567-4.221-2.021-5.975-4.072-5.975-7.491,0-3.835,3-7.015,8.2-7.015a13.668,13.668,0,0,1,5.321.832.658.658,0,0,1,.3.594v4.072c0,.238-.149.386-.446.3a10.041,10.041,0,0,0-5.172-1.337Zm-25.563,3.537c.684.059,1.219.059,2.408.059,3.478,0,6.748-1.219,6.748-5.945,0-3.775-2.348-5.678-6.3-5.678-1.189,0-2.319.059-2.854.089ZM17.24,147.035c0-.208.416-.357.654-.357,1.9-.089,4.726-.149,7.669-.149,8.234,0,11.444,4.518,11.444,10.285,0,7.55-5.469,10.79-12.187,10.79-1.13,0-1.516-.059-2.319-.059V178.96c0,.238-.089.357-.357.357H17.6c-.238,0-.357-.089-.357-.357V147.035Z" fill="#31c5f0"/>
  </g>
</svg>
