<svg xmlns="http://www.w3.org/2000/svg" width="425" height="312.409" viewBox="0 0 425 312.409">
  <g id="port_vec" transform="translate(2.679 39.808)">
    <rect id="Rectangle_421" data-name="Rectangle 421" width="22.289" height="11.573" transform="translate(351.06 48.95)" fill="#7c4dff" opacity="0.41"/>
    <rect id="Rectangle_422" data-name="Rectangle 422" width="22.289" height="11.573" transform="translate(352.775 63.648)" fill="#7c4dff" opacity="0.41"/>
    <rect id="Rectangle_423" data-name="Rectangle 423" width="22.289" height="11.573" transform="translate(334.343 -39.808)" fill="#7c4dff" opacity="0.41"/>
    <rect id="Rectangle_424" data-name="Rectangle 424" width="22.289" height="11.573" transform="translate(350.203 -26.52)" fill="#7c4dff" opacity="0.41"/>
    <rect id="Rectangle_425" data-name="Rectangle 425" width="22.289" height="11.573" transform="translate(307.339 -38.951)" fill="#7c4dff" opacity="0.41"/>
    <rect id="Rectangle_426" data-name="Rectangle 426" width="22.289" height="11.573" transform="translate(378.922 -10.734)" fill="#7c4dff" opacity="0.41"/>
    <rect id="Rectangle_427" data-name="Rectangle 427" width="22.289" height="11.573" transform="translate(351.918 -9.844)" fill="#7c4dff" opacity="0.41"/>
    <rect id="Rectangle_428" data-name="Rectangle 428" width="22.289" height="11.573" transform="translate(323.199 -25.663)" fill="#7c4dff" opacity="0.41"/>
    <rect id="Rectangle_429" data-name="Rectangle 429" width="22.289" height="11.573" transform="translate(377.636 81.91)" fill="#7c4dff" opacity="0.41"/>
    <rect id="Rectangle_430" data-name="Rectangle 430" width="22.289" height="11.573" transform="translate(350.632 82.801)" fill="#7c4dff" opacity="0.41"/>
    <rect id="Rectangle_431" data-name="Rectangle 431" width="22.289" height="11.573" transform="translate(24.009 49.395)" fill="#7c4dff" opacity="0.41"/>
    <rect id="Rectangle_432" data-name="Rectangle 432" width="22.289" height="11.573" transform="translate(39.868 63.203)" fill="#7c4dff" opacity="0.41"/>
    <rect id="Rectangle_433" data-name="Rectangle 433" width="22.289" height="11.573" transform="translate(160.316 -28.447)" fill="#7c4dff" opacity="0.41"/>
    <rect id="Rectangle_434" data-name="Rectangle 434" width="22.289" height="11.573" transform="translate(336.058 144.712)" fill="#7c4dff" opacity="0.41"/>
    <rect id="Rectangle_435" data-name="Rectangle 435" width="22.289" height="11.573" transform="translate(41.583 77.901)" fill="#7c4dff" opacity="0.41"/>
    <rect id="Rectangle_436" data-name="Rectangle 436" width="22.289" height="11.573" transform="translate(176.176 -15.159)" fill="#7c4dff" opacity="0.41"/>
    <rect id="Rectangle_437" data-name="Rectangle 437" width="22.289" height="11.573" transform="translate(94.734 18.217)" fill="#7c4dff" opacity="0.41"/>
    <rect id="Rectangle_438" data-name="Rectangle 438" width="22.289" height="11.573" transform="translate(110.594 32.024)" fill="#7c4dff" opacity="0.41"/>
    <rect id="Rectangle_439" data-name="Rectangle 439" width="22.289" height="11.573" transform="translate(153.029 24.453)" fill="#7c4dff" opacity="0.41"/>
    <rect id="Rectangle_440" data-name="Rectangle 440" width="22.289" height="11.573" transform="translate(112.308 46.723)" fill="#7c4dff" opacity="0.41"/>
    <rect id="Rectangle_441" data-name="Rectangle 441" width="22.289" height="11.573" transform="translate(366.062 144.712)" fill="#7c4dff" opacity="0.41"/>
    <path id="Path_5196" data-name="Path 5196" d="M601.138,701.065H243.016a12.008,12.008,0,0,1-12.008-12.008h0q194.728-22.631,382.137,0h0A12.008,12.008,0,0,1,601.138,701.065Z" transform="translate(-198.481 -428.464)" fill="#ccc"/>
    <path id="Path_5197" data-name="Path 5197" d="M613.144,428.886l-382.136-.706,44.288-74.52.212-.353V189.072a15.179,15.179,0,0,1,15.181-15.18H551.347a15.179,15.179,0,0,1,15.18,15.181V354.436Z" transform="translate(-198.481 -167.587)" fill="#e6e6e6"/>
    <path id="Path_5198" data-name="Path 5198" d="M348.739,195.864a4.95,4.95,0,0,0-4.944,4.944V350.556a4.95,4.95,0,0,0,4.944,4.945h263.47a4.95,4.95,0,0,0,4.944-4.945V200.808a4.95,4.95,0,0,0-4.944-4.944Z" transform="translate(-256.878 -178.963)" fill="#fff"/>
    <path id="Path_5199" data-name="Path 5199" d="M340.711,567.913a2.124,2.124,0,0,0-1.925,1.233l-13.647,29.667a2.119,2.119,0,0,0,1.925,3H614.045a2.119,2.119,0,0,0,1.895-3.067l-14.833-29.667a2.108,2.108,0,0,0-1.895-1.171Z" transform="translate(-247.118 -371.598)" fill="#ccc"/>
    <circle id="Ellipse_316" data-name="Ellipse 316" cx="3.179" cy="3.179" r="3.179" transform="translate(219.358 8.072)" fill="#fff"/>
    <path id="Path_5200" data-name="Path 5200" d="M560.583,649.94a2.122,2.122,0,0,0-2.046,1.568l-3.423,12.714a2.119,2.119,0,0,0,2.046,2.67h65.1a2.119,2.119,0,0,0,2-2.812l-4.4-12.714a2.12,2.12,0,0,0-2-1.426Z" transform="translate(-366.255 -414.069)" fill="#ccc"/>
    <path id="Path_5201" data-name="Path 5201" d="M453.4,366.922v2.826H162.169l.219-.353v-2.472Z" transform="translate(-85.353 -183.675)" fill="#ccc"/>
    <path id="Path_5202" data-name="Path 5202" d="M850.778,554.237a.517.517,0,0,0-.5.382l-.834,3.1a.516.516,0,0,0,.5.65H865.8a.516.516,0,0,0,.487-.685l-1.072-3.1a.516.516,0,0,0-.488-.347Z" transform="translate(-518.679 -364.517)" fill="#ccc"/>
    <path id="Path_5203" data-name="Path 5203" d="M802.778,554.237a.516.516,0,0,0-.5.382l-.834,3.1a.516.516,0,0,0,.5.65H817.8a.516.516,0,0,0,.488-.685l-1.072-3.1a.516.516,0,0,0-.488-.347Z" transform="translate(-493.826 -364.517)" fill="#ccc"/>
    <path id="Path_5204" data-name="Path 5204" d="M628.7,416.719h1.243l-2.485-166.075h-1.242l.05,3.313H598.415l.05-3.313h-1.242l-2.485,166.075h1.242l.161-10.768h32.4Zm-1.791-119.69H597.771l.3-20.293H626.6Zm.019,1.242.3,20.293H597.448l.3-20.293Zm.322,21.536.3,20.293H597.126l.3-20.293Zm.322,21.536.3,20.293H596.8l.3-20.293Zm.322,21.536.3,20.293H596.482l.3-20.293ZM626.281,255.2l.3,20.293H598.093l.3-20.293ZM596.16,404.708l.3-20.293h31.751l.3,20.293Z" transform="translate(-386.808 -207.326)" fill="#3f3d56"/>
    <circle id="Ellipse_317" data-name="Ellipse 317" cx="20.26" cy="20.26" r="20.26" transform="translate(199.116 60)" fill="#2f2e41"/>
    <rect id="Rectangle_412" data-name="Rectangle 412" width="6.155" height="11.027" transform="translate(225.237 95.359) rotate(-10.261)" fill="#2f2e41"/>
    <rect id="Rectangle_413" data-name="Rectangle 413" width="6.155" height="11.027" transform="translate(213.124 97.551) rotate(-10.261)" fill="#2f2e41"/>
    <ellipse id="Ellipse_318" data-name="Ellipse 318" cx="5.129" cy="1.923" rx="5.129" ry="1.923" transform="matrix(0.763, -0.646, 0.646, 0.763, 211.903, 111.064)" fill="#2f2e41"/>
    <ellipse id="Ellipse_319" data-name="Ellipse 319" cx="5.129" cy="1.923" rx="5.129" ry="1.923" transform="matrix(0.763, -0.646, 0.646, 0.763, 223.764, 108.917)" fill="#2f2e41"/>
    <circle id="Ellipse_320" data-name="Ellipse 320" cx="6.924" cy="6.924" r="6.924" transform="translate(211.033 68.38)" fill="#fff"/>
    <circle id="Ellipse_321" data-name="Ellipse 321" cx="2.308" cy="2.308" r="2.308" transform="translate(212.804 70.514)" fill="#3f3d56"/>
    <path id="Path_5205" data-name="Path 5205" d="M619.414,266.295c.3-7.5-6.16-13.853-14.438-14.19s-15.237,5.471-15.542,12.972,5.45,9.2,13.729,9.541S619.109,273.8,619.414,266.295Z" transform="translate(-384.056 -208.076)" fill="#6c63ff"/>
    <ellipse id="Ellipse_322" data-name="Ellipse 322" cx="3.18" cy="10.13" rx="3.18" ry="10.13" transform="matrix(0.223, -0.975, 0.975, 0.223, 190.084, 77.405)" fill="#2f2e41"/>
    <ellipse id="Ellipse_323" data-name="Ellipse 323" cx="3.18" cy="10.13" rx="3.18" ry="10.13" transform="matrix(0.223, -0.975, 0.975, 0.223, 229.853, 84.019)" fill="#2f2e41"/>
    <path id="Path_5206" data-name="Path 5206" d="M620.188,341.223a4.616,4.616,0,1,1-9.083,1.653l0-.009c-.454-2.509,1.485-3.4,3.994-3.85S619.733,338.714,620.188,341.223Z" transform="translate(-395.248 -252.979)" fill="#fff"/>
    <ellipse id="Ellipse_324" data-name="Ellipse 324" cx="10.384" cy="3.26" rx="10.384" ry="3.26" transform="matrix(0.357, -0.934, 0.934, 0.357, 140.959, 156.442)" fill="#2f2e41"/>
    <circle id="Ellipse_325" data-name="Ellipse 325" cx="20.768" cy="20.768" r="20.768" transform="translate(104.689 180.761) rotate(-80.783)" fill="#2f2e41"/>
    <rect id="Rectangle_414" data-name="Rectangle 414" width="6.309" height="11.304" transform="translate(119.052 179.887)" fill="#2f2e41"/>
    <rect id="Rectangle_415" data-name="Rectangle 415" width="6.309" height="11.304" transform="translate(131.671 179.887)" fill="#2f2e41"/>
    <ellipse id="Ellipse_326" data-name="Ellipse 326" cx="5.258" cy="1.972" rx="5.258" ry="1.972" transform="translate(119.052 189.352)" fill="#2f2e41"/>
    <ellipse id="Ellipse_327" data-name="Ellipse 327" cx="5.258" cy="1.972" rx="5.258" ry="1.972" transform="translate(131.671 189.089)" fill="#2f2e41"/>
    <path id="Path_5207" data-name="Path 5207" d="M387.952,441.358c-1.677-7.51,3.684-15.1,11.973-16.95s16.369,2.737,18.046,10.247-3.817,10.28-12.106,12.131S389.629,448.868,387.952,441.358Z" transform="translate(-279.582 -297.083)" fill="#6c63ff"/>
    <ellipse id="Ellipse_328" data-name="Ellipse 328" cx="3.26" cy="10.384" rx="3.26" ry="10.384" transform="translate(94.345 152.447) rotate(-64.626)" fill="#2f2e41"/>
    <circle id="Ellipse_329" data-name="Ellipse 329" cx="20.768" cy="20.768" r="20.768" transform="translate(17.822 163.849)" fill="#2f2e41"/>
    <rect id="Rectangle_416" data-name="Rectangle 416" width="6.309" height="11.304" transform="translate(29.126 200.916)" fill="#2f2e41"/>
    <rect id="Rectangle_417" data-name="Rectangle 417" width="6.309" height="11.304" transform="translate(41.745 200.916)" fill="#2f2e41"/>
    <ellipse id="Ellipse_330" data-name="Ellipse 330" cx="5.258" cy="1.972" rx="5.258" ry="1.972" transform="translate(29.126 210.38)" fill="#2f2e41"/>
    <ellipse id="Ellipse_331" data-name="Ellipse 331" cx="5.258" cy="1.972" rx="5.258" ry="1.972" transform="translate(41.745 210.118)" fill="#2f2e41"/>
    <circle id="Ellipse_332" data-name="Ellipse 332" cx="7.098" cy="7.098" r="7.098" transform="translate(32.018 172.261)" fill="#fff"/>
    <circle id="Ellipse_333" data-name="Ellipse 333" cx="2.366" cy="2.366" r="2.366" transform="translate(36.75 176.993)" fill="#3f3d56"/>
    <path id="Path_5208" data-name="Path 5208" d="M201.474,484.965c-1.677-7.51,3.684-15.1,11.973-16.95s16.369,2.737,18.046,10.247-3.817,10.28-12.106,12.131S203.151,492.475,201.474,484.965Z" transform="translate(-183.03 -319.662)" fill="#e6e6e6"/>
    <ellipse id="Ellipse_334" data-name="Ellipse 334" cx="10.384" cy="3.26" rx="10.384" ry="3.26" transform="matrix(0.357, -0.934, 0.934, 0.357, 43.935, 117.794)" fill="#2f2e41"/>
    <circle id="Ellipse_335" data-name="Ellipse 335" cx="20.768" cy="20.768" r="20.768" transform="translate(7.665 142.114) rotate(-80.783)" fill="#2f2e41"/>
    <rect id="Rectangle_418" data-name="Rectangle 418" width="6.309" height="11.304" transform="translate(22.028 141.24)" fill="#2f2e41"/>
    <rect id="Rectangle_419" data-name="Rectangle 419" width="6.309" height="11.304" transform="translate(34.647 141.24)" fill="#2f2e41"/>
    <ellipse id="Ellipse_336" data-name="Ellipse 336" cx="5.258" cy="1.972" rx="5.258" ry="1.972" transform="translate(22.028 150.704)" fill="#2f2e41"/>
    <ellipse id="Ellipse_337" data-name="Ellipse 337" cx="5.258" cy="1.972" rx="5.258" ry="1.972" transform="translate(34.647 150.441)" fill="#2f2e41"/>
    <circle id="Ellipse_338" data-name="Ellipse 338" cx="7.098" cy="7.098" r="7.098" transform="translate(24.92 112.585)" fill="#fff"/>
    <circle id="Ellipse_339" data-name="Ellipse 339" cx="2.366" cy="2.366" r="2.366" transform="translate(29.652 117.317)" fill="#3f3d56"/>
    <path id="Path_5209" data-name="Path 5209" d="M186.755,361.215c-1.677-7.51,3.684-15.1,11.973-16.95S215.1,347,216.774,354.512s-3.817,10.28-12.106,12.131S188.432,368.725,186.755,361.215Z" transform="translate(-175.409 -255.588)" fill="#6c63ff"/>
    <ellipse id="Ellipse_340" data-name="Ellipse 340" cx="3.26" cy="10.384" rx="3.26" ry="10.384" transform="translate(-2.679 113.8) rotate(-64.626)" fill="#2f2e41"/>
    <path id="Path_5210" data-name="Path 5210" d="M207.707,432.736c0,2.033,5.234,6.046,11.041,6.046S230,433.06,230,431.027s-5.445.394-11.253.394S207.707,430.7,207.707,432.736Z" transform="translate(-186.416 -300.303)" fill="#fff"/>
    <path id="Path_5211" data-name="Path 5211" d="M269.651,255.461a1.448,1.448,0,0,0-1.447,1.447v59.8a1.448,1.448,0,0,0,1.447,1.447h138.4A1.448,1.448,0,0,0,409.5,316.7v-59.8a1.448,1.448,0,0,0-1.447-1.447Z" transform="translate(-217.74 -209.821)" fill="#e23357"/>
    <circle id="Ellipse_341" data-name="Ellipse 341" cx="14.043" cy="14.043" r="14.043" transform="translate(75.238 62.943)" fill="#fff"/>
    <path id="Path_40" data-name="Path 40" d="M412.66,316.587a1.642,1.642,0,1,0,0,3.284H457a1.642,1.642,0,0,0,.054-3.284H412.66Z" transform="translate(-291.684 -241.469)" fill="#fff"/>
    <path id="Path_40-2" data-name="Path 40" d="M412.66,296.86a1.642,1.642,0,1,0,0,3.284H434.8a1.642,1.642,0,1,0,.054-3.284h-22.2Z" transform="translate(-291.684 -231.255)" fill="#fff"/>
    <path id="Path_40-3" data-name="Path 40" d="M412.66,337.253a1.642,1.642,0,1,0,0,3.284H457a1.642,1.642,0,0,0,.054-3.284H412.66Z" transform="translate(-291.684 -252.17)" fill="#fff"/>
    <ellipse id="Ellipse_342" data-name="Ellipse 342" cx="3.26" cy="10.384" rx="3.26" ry="10.384" transform="matrix(0.934, -0.357, 0.357, 0.934, 325.854, 177.453)" fill="#2f2e41"/>
    <circle id="Ellipse_343" data-name="Ellipse 343" cx="20.768" cy="20.768" r="20.768" transform="translate(323.638 188.841) rotate(-9.217)" fill="#2f2e41"/>
    <path id="Path_5212" data-name="Path 5212" d="M736.261,447.932h-6.309l1.235,13.538,5.085-1.382Z" transform="translate(-379.333 -225.619)" fill="#2f2e41"/>
    <path id="Path_5213" data-name="Path 5213" d="M707.738,448h-6.31l1.234,13.538,4.856-1.417Z" transform="translate(-364.564 -225.657)" fill="#2f2e41"/>
    <ellipse id="Ellipse_344" data-name="Ellipse 344" cx="5.258" cy="1.972" rx="5.258" ry="1.972" transform="translate(332.389 232.972) rotate(-4.182)" fill="#2f2e41"/>
    <circle id="Ellipse_345" data-name="Ellipse 345" cx="7.098" cy="7.098" r="7.098" transform="translate(339.84 193.657)" fill="#fff"/>
    <circle id="Ellipse_346" data-name="Ellipse 346" cx="2.366" cy="2.366" r="2.366" transform="translate(344.572 198.389)" fill="#3f3d56"/>
    <ellipse id="Ellipse_347" data-name="Ellipse 347" cx="10.384" cy="3.26" rx="10.384" ry="3.26" transform="translate(360.615 197.972) rotate(-53.55)" fill="#2f2e41"/>
    <path id="Path_5214" data-name="Path 5214" d="M863.077,604.88c0-1.675,4.314-4.983,9.1-4.983s9.274,4.716,9.274,6.392-4.488-.325-9.274-.325S863.077,606.556,863.077,604.88Z" transform="translate(-525.746 -388.159)" fill="#fff"/>
    <path id="Path_5215" data-name="Path 5215" d="M879.67,429.316l-113.686-15.76a3.38,3.38,0,0,1-2.88-3.807l12.78-92.189a3.379,3.379,0,0,1,3.807-2.88l113.684,15.76a3.38,3.38,0,0,1,2.88,3.807l-12.781,92.189A3.38,3.38,0,0,1,879.67,429.316Z" transform="translate(-473.967 -240.465)" fill="#e23357"/>
    <path id="Path_5216" data-name="Path 5216" d="M857.856,436.3l-58.039-8.046a1.194,1.194,0,0,1-.214-.047l34.041-43.741a1.94,1.94,0,0,1,3.345.464l14,34.461.671,1.649Z" transform="translate(-492.881 -276.22)" fill="#fff"/>
    <path id="Path_5217" data-name="Path 5217" d="M738.446,300.724l-19.816-2.747L730.316,285.2l.841-.921.421-.461.671,1.649Z" transform="translate(-373.471 -140.645)" opacity="0.2"/>
    <path id="Path_5218" data-name="Path 5218" d="M933.517,461.229l-50.2-6.959L895,441.489l.841-.921,15.229-16.656a2.589,2.589,0,0,1,3.839.3,2.32,2.32,0,0,1,.151.253Z" transform="translate(-536.226 -296.67)" fill="#fff"/>
    <circle id="Ellipse_348" data-name="Ellipse 348" cx="8.68" cy="8.68" r="8.68" transform="translate(357.001 105.734)" fill="#fff"/>
    <rect id="Rectangle_420" data-name="Rectangle 420" width="10.609" height="10.609" transform="translate(307.664 81.301) rotate(7.893)" fill="#3f3d56"/>
    <path id="Path_5219" data-name="Path 5219" d="M893.311,529.334c1.677-7.51-3.684-15.1-11.973-16.95s-16.369,2.737-18.046,10.247,3.817,10.28,12.106,12.131S891.634,536.844,893.311,529.334Z" transform="translate(-525.701 -342.635)" fill="#f2f2f2"/>
    <ellipse id="Ellipse_349" data-name="Ellipse 349" cx="5.258" cy="1.972" rx="5.258" ry="1.972" transform="translate(346.225 232.939) rotate(-4.182)" fill="#2f2e41"/>
  </g>
</svg>
