<svg id="Portal" xmlns="http://www.w3.org/2000/svg" xmlns:xlink="http://www.w3.org/1999/xlink" width="480" height="480" viewBox="0 0 480 480">
  <defs>
    <linearGradient id="linear-gradient" x1="0.5" x2="0.5" y2="1" gradientUnits="objectBoundingBox">
      <stop offset="0" stop-color="#ff4b70"/>
      <stop offset="1" stop-color="#7c4dff"/>
    </linearGradient>
  </defs>
  <g id="Group_385" data-name="Group 385">
    <g id="Group_384" data-name="Group 384">
      <path id="Path_5253" data-name="Path 5253" d="M240,0a48,48,0,1,0,48,48A48,48,0,0,0,240,0Zm0,80a32,32,0,1,1,32-32A32,32,0,0,1,240,80Z" fill="url(#linear-gradient)"/>
    </g>
  </g>
  <g id="Group_387" data-name="Group 387">
    <g id="Group_386" data-name="Group 386">
      <path id="Path_5254" data-name="Path 5254" d="M272,104h-1.888l-1.688.84a63.773,63.773,0,0,1-56.848,0l-1.688-.84H208a40.048,40.048,0,0,0-40,40v48a24,24,0,0,0,24,24h96a24,24,0,0,0,24-24V144A40.048,40.048,0,0,0,272,104Zm24,88a8,8,0,0,1-8,8H192a8,8,0,0,1-8-8V144a24,24,0,0,1,22.3-23.936,80.061,80.061,0,0,0,67.408,0A24,24,0,0,1,296,144Z" fill="url(#linear-gradient)"/>
    </g>
  </g>
  <g id="Group_389" data-name="Group 389">
    <g id="Group_388" data-name="Group 388">
      <path id="Path_5255" data-name="Path 5255" d="M408,264a48,48,0,1,0,48,48A48,48,0,0,0,408,264Zm0,80a32,32,0,1,1,32-32A32,32,0,0,1,408,344Z" fill="url(#linear-gradient)"/>
    </g>
  </g>
  <g id="Group_391" data-name="Group 391">
    <g id="Group_390" data-name="Group 390">
      <path id="Path_5256" data-name="Path 5256" d="M440,368h-1.888l-1.688.8a63.779,63.779,0,0,1-56.848,0l-1.688-.8H376a40.048,40.048,0,0,0-40,40v48a24,24,0,0,0,24,24h96a24,24,0,0,0,24-24V408A40.048,40.048,0,0,0,440,368Zm24,88a8,8,0,0,1-8,8H360a8,8,0,0,1-8-8V408a24,24,0,0,1,22.3-23.936,80.061,80.061,0,0,0,67.408,0A24,24,0,0,1,464,408Z" fill="url(#linear-gradient)"/>
    </g>
  </g>
  <g id="Group_393" data-name="Group 393">
    <g id="Group_392" data-name="Group 392">
      <path id="Path_5257" data-name="Path 5257" d="M72,264a48,48,0,1,0,48,48A48,48,0,0,0,72,264Zm0,80a32,32,0,1,1,32-32A32,32,0,0,1,72,344Z" fill="url(#linear-gradient)"/>
    </g>
  </g>
  <g id="Group_395" data-name="Group 395">
    <g id="Group_394" data-name="Group 394">
      <path id="Path_5258" data-name="Path 5258" d="M104,368h-1.888l-1.688.8a63.779,63.779,0,0,1-56.848,0l-1.688-.8H40A40.048,40.048,0,0,0,0,408v48a24,24,0,0,0,24,24h96a24,24,0,0,0,24-24V408A40.048,40.048,0,0,0,104,368Zm24,88a8,8,0,0,1-8,8H24a8,8,0,0,1-8-8V408a24,24,0,0,1,22.3-23.936,80.061,80.061,0,0,0,67.408,0A24,24,0,0,1,128,408Z" fill="url(#linear-gradient)"/>
    </g>
  </g>
  <g id="Group_397" data-name="Group 397">
    <g id="Group_396" data-name="Group 396">
      <path id="Path_5259" data-name="Path 5259" d="M319.372,406.276l-.012-.028a8,8,0,0,0-10.495-4.224h0a177.456,177.456,0,0,1-114.1,7.856l7.488-2.2a8,8,0,0,0-4.5-15.36l-32,9.384c-.12,0-.208.136-.32.176a7.928,7.928,0,0,0-2.064,1.144,6.983,6.983,0,0,0-.8.5,7.749,7.749,0,0,0-1.96,2.72,8.011,8.011,0,0,0-.608,3.3,24.664,24.664,0,0,0,.8,3.2c.048.112,0,.24.088.352l16,30.616a8,8,0,0,0,14.192-7.408l-6.512-12.448a192.565,192.565,0,0,0,130.552-7.1A8,8,0,0,0,319.372,406.276Z" fill="url(#linear-gradient)"/>
    </g>
  </g>
  <g id="Group_399" data-name="Group 399">
    <g id="Group_398" data-name="Group 398">
      <path id="Path_5260" data-name="Path 5260" d="M453.656,210.344a8,8,0,0,0-11.312,0l-11.32,11.32a191.71,191.71,0,0,0-115.888-158.4,8,8,0,0,0-6.272,14.72A175.736,175.736,0,0,1,414.68,219.368l-9.024-9.024a8,8,0,0,0-11.312,11.312l24,24a8,8,0,0,0,11.314.014l.014-.014,24-24A8,8,0,0,0,453.656,210.344Z" fill="url(#linear-gradient)"/>
    </g>
  </g>
  <g id="Group_401" data-name="Group 401">
    <g id="Group_400" data-name="Group 400">
      <path id="Path_5261" data-name="Path 5261" d="M175.768,69.272a7.44,7.44,0,0,0-.208-1.384c0-.072-.088-.12-.12-.2s0-.136,0-.2a7.673,7.673,0,0,0-.752-1.1,8.076,8.076,0,0,0-.912-1.32A7.508,7.508,0,0,0,172.216,64a7.037,7.037,0,0,0-.9-.648l-32-14.616a8,8,0,0,0-6.64,14.544l16.568,7.576A191.706,191.706,0,0,0,48,240a8,8,0,0,0,16,0A175.728,175.728,0,0,1,150.584,88.448L144.8,100.536a8,8,0,0,0,3.736,10.664A7.876,7.876,0,0,0,152,112a8,8,0,0,0,7.2-4.536l16-33.384a.364.364,0,0,1,.064-.248,7.694,7.694,0,0,0,.432-1.7,8.282,8.282,0,0,0,.3-1.32A7.979,7.979,0,0,0,175.768,69.272Z" fill="url(#linear-gradient)"/>
    </g>
  </g>
</svg>
