<svg xmlns="http://www.w3.org/2000/svg" width="70.482" height="72.665" viewBox="0 0 70.482 72.665">
  <g id="postgresql" transform="translate(-0.297 -0.364)">
    <path id="Path_5199" data-name="Path 5199" d="M70.592,43.892A3.575,3.575,0,0,0,67.624,41.5a6.8,6.8,0,0,0-2.369.131,21.29,21.29,0,0,1-3.65.48,70.394,70.394,0,0,0,7.452-17.726c2.473-9.573,1.151-13.935-.393-15.907C64.578,3.257,58.616.452,51.424.367a30.553,30.553,0,0,0-8.962,1.255,33.369,33.369,0,0,0-5.241-.48,17.038,17.038,0,0,0-9.129,2.249,41.624,41.624,0,0,0-6.447-1.618c-6.3-1.035-11.385-.229-15.1,2.4-4.5,3.179-6.586,8.7-6.2,16.415a94.337,94.337,0,0,0,3.65,16.967A58.6,58.6,0,0,0,7.921,47.579c1.939,3.675,4.014,5.839,6.344,6.616a6.236,6.236,0,0,0,6.173-1.339,5.4,5.4,0,0,0,1.3,1.117,8.637,8.637,0,0,0,2.449,1.032,13.154,13.154,0,0,0,8.563-.51c.015.445.027.87.037,1.237.017.6.033,1.179.055,1.725.148,3.691.4,6.561,1.143,8.569.041.11.1.279.154.457a10.316,10.316,0,0,0,2.571,4.529,7.669,7.669,0,0,0,5.425,2.017,12.191,12.191,0,0,0,2.536-.282c2.71-.581,5.788-1.466,8.015-4.636,2.105-3,3.129-7.511,3.314-14.624.024-.2.046-.393.067-.576l.044-.376.5.044.128.009a19.624,19.624,0,0,0,8.208-1.422c1.638-.76,6.887-3.531,5.651-7.272" transform="translate(0)"/>
    <path id="Path_5200" data-name="Path 5200" d="M73.874,52.623c-8.208,1.693-8.772-1.086-8.772-1.086,8.666-12.859,12.289-29.181,9.163-33.176-8.529-10.9-23.292-5.743-23.539-5.61l-.079.014a29.272,29.272,0,0,0-5.476-.57A13.525,13.525,0,0,0,36.5,14.791S10.165,3.941,11.39,28.436c.261,5.211,7.469,39.43,16.067,29.094,3.143-3.78,6.179-6.975,6.179-6.975a7.97,7.97,0,0,0,5.206,1.329l.147-.125a5.735,5.735,0,0,0,.059,1.472c-2.215,2.475-1.564,2.909-5.992,3.821-4.481.923-1.849,2.567-.13,3,2.083.521,6.9,1.259,10.16-3.3l-.13.52c.868.7,1.477,4.521,1.375,7.99s-.17,5.85.513,7.71,1.366,6.045,7.187,4.8c4.864-1.042,7.384-3.743,7.735-8.249.249-3.2.812-2.729.847-5.593l.452-1.356c.521-4.342.083-5.743,3.079-5.091l.729.064A16.6,16.6,0,0,0,71.659,56.4c3.648-1.693,5.812-4.52,2.214-3.777h0" transform="translate(-8.002 -8.003)" fill="#336791"/>
    <path id="Path_5201" data-name="Path 5201" d="M102.778,80.084a2.546,2.546,0,0,0-1.748.249.642.642,0,0,0-.265.427,1.246,1.246,0,0,0,.3.816,2.286,2.286,0,0,0,1.451.905,1.654,1.654,0,0,0,.232.016,1.881,1.881,0,0,0,1.782-1.212c.09-.645-.846-1.074-1.754-1.2m24.5.02c-.071-.505-.97-.649-1.823-.531s-1.679.5-1.61,1.01a1.73,1.73,0,0,0,1.608,1.066,1.537,1.537,0,0,0,.215-.015,2.073,2.073,0,0,0,1.17-.64,1.29,1.29,0,0,0,.439-.89" transform="translate(-72.736 -57.32)" fill="#fff"/>
    <path id="Path_5202" data-name="Path 5202" d="M73.785,49.5c-.313-.946-1.32-1.251-2.994-.905-4.969,1.026-6.749.315-7.333-.115a68.324,68.324,0,0,0,8.754-19.632,37.3,37.3,0,0,0,1.3-8.442c.041-2.612-.4-4.531-1.322-5.7-3.7-4.726-9.127-7.261-15.7-7.331A26.9,26.9,0,0,0,47.415,8.8a22.622,22.622,0,0,0-5.106-.656,14.752,14.752,0,0,0-8.75,2.412,39.06,39.06,0,0,0-7.111-1.865c-5.76-.927-10.338-.225-13.6,2.089-3.9,2.761-5.7,7.7-5.348,14.671a92.1,92.1,0,0,0,3.564,16.475c2.777,9.1,5.8,14.247,8.972,15.307a4.018,4.018,0,0,0,1.273.211c1.159,0,2.579-.522,4.057-2.3q2.7-3.244,5.592-6.327A9.009,9.009,0,0,0,34.975,49.9c0,.037.006.073.01.11q-.362.432-.709.876c-.972,1.234-1.174,1.491-4.3,2.135-.89.184-3.254.671-3.289,2.328C26.647,57.16,29.479,57.92,29.8,58a13.349,13.349,0,0,0,3.241.42A9.43,9.43,0,0,0,39.532,56c-.054,6.454.215,12.814.99,14.751.635,1.586,2.185,5.463,7.083,5.463a11.362,11.362,0,0,0,2.38-.27c5.111-1.1,7.331-3.355,8.19-8.335.46-2.662,1.248-9.018,1.619-12.427a10.015,10.015,0,0,0,2.88.356,17.14,17.14,0,0,0,6.537-1.246c1.847-.858,5.18-2.962,4.575-4.791ZM61.612,26.459a20.678,20.678,0,0,1-.3,2.874,26.546,26.546,0,0,0-.363,3.374,25.583,25.583,0,0,0,.267,3.815c.306,2.545.62,5.164-.6,7.749a10.074,10.074,0,0,1-.538-1.106c-.151-.366-.479-.954-.933-1.767-1.766-3.167-5.9-10.584-3.785-13.61.631-.9,2.231-1.827,6.248-1.328ZM56.743,9.407c5.888.13,10.545,2.333,13.843,6.546,2.529,3.232-.256,17.938-8.318,30.625l-.245-.308-.1-.128C64,42.7,63.6,39.3,63.234,36.28a23.651,23.651,0,0,1-.254-3.507,24.841,24.841,0,0,1,.34-3.13,19.76,19.76,0,0,0,.318-3.874,1.605,1.605,0,0,0,.034-.546c-.131-1.392-1.721-5.559-4.961-9.331a22.346,22.346,0,0,0-7.886-5.929,26.591,26.591,0,0,1,5.918-.556ZM23.8,53.845c-1.628,1.958-2.753,1.582-3.122,1.459-2.409-.8-5.2-5.9-7.67-13.971A91.265,91.265,0,0,1,9.527,25.35c-.311-6.231,1.2-10.574,4.49-12.907,5.355-3.8,14.159-1.525,17.7-.372-.051.05-.1.1-.154.148-5.806,5.863-5.668,15.88-5.653,16.492,0,.236.019.571.046,1.031a41.443,41.443,0,0,1-.211,8.372,10.587,10.587,0,0,0,2.79,8.861q.344.358.722.681c-.995,1.065-3.156,3.421-5.457,6.189ZM30,45.568a8.566,8.566,0,0,1-2.245-7.173,43.326,43.326,0,0,0,.227-8.773c-.015-.246-.028-.461-.035-.631.848-.752,4.778-2.858,7.581-2.216a3.084,3.084,0,0,1,2.382,2.662c1.677,7.756.222,10.988-.947,13.586-.241.535-.469,1.041-.663,1.564l-.151.4a26.518,26.518,0,0,0-.956,2.877A7.236,7.236,0,0,1,30,45.567Zm.294,10.46a4.5,4.5,0,0,1-1.357-.583,6.626,6.626,0,0,1,1.446-.431c3.681-.758,4.249-1.292,5.491-2.869.285-.362.607-.771,1.054-1.27h0c.665-.745.97-.619,1.522-.39a2.153,2.153,0,0,1,1.06,1.363,1.517,1.517,0,0,1-.13,1.275C36.787,56.753,33.008,56.706,30.295,56.027ZM49.558,73.953c-4.5.965-6.1-1.333-7.148-3.959-.678-1.7-1.011-9.342-.775-17.786a1.017,1.017,0,0,0-.044-.323,4.262,4.262,0,0,0-.126-.6,4.123,4.123,0,0,0-2.237-2.683,3.155,3.155,0,0,0-2.059-.249,24.877,24.877,0,0,1,.886-2.653l.152-.407c.171-.459.385-.934.611-1.438,1.223-2.718,2.9-6.441,1.08-14.85-.681-3.15-2.956-4.688-6.4-4.331a14.777,14.777,0,0,0-4.9,1.526c-.2.1-.388.2-.562.3.263-3.174,1.258-9.105,4.979-12.858a12.225,12.225,0,0,1,9.264-3.466,19.637,19.637,0,0,1,15,7.17,22.771,22.771,0,0,1,4.105,7.04c-3.8-.386-6.378.363-7.687,2.234-2.847,4.07,1.558,11.97,3.675,15.766.388.7.723,1.3.829,1.553a14.1,14.1,0,0,0,2.234,3.6c.2.249.394.492.541.7-1.15.331-3.215,1.1-3.027,4.925-.152,1.921-1.231,10.914-1.78,14.091-.724,4.2-2.269,5.761-6.612,6.693Zm18.8-21.509a14.83,14.83,0,0,1-5.012,1.043c-2.064.1-3.115-.231-3.363-.433-.116-2.386.772-2.635,1.712-2.9.148-.041.292-.082.431-.131a3.51,3.51,0,0,0,.285.209c1.659,1.1,4.619,1.213,8.8.351l.046-.009a11.248,11.248,0,0,1-2.9,1.869Z" transform="translate(-5.181 -5.07)" fill="#fff"/>
  </g>
</svg>
