<svg xmlns="http://www.w3.org/2000/svg" xmlns:xlink="http://www.w3.org/1999/xlink" width="504" height="154.7" viewBox="0 0 504 154.7"><defs><linearGradient id="a" x1="0.5" x2="0.5" y2="1" gradientUnits="objectBoundingBox"><stop offset="0" stop-color="#ff4b70"/><stop offset="1" stop-color="#7c4dff"/></linearGradient><linearGradient id="b" x1="0.011" y1="0.5" x2="1.029" y2="0.5" gradientUnits="objectBoundingBox"><stop offset="0" stop-color="#eee"/><stop offset="1" stop-color="#fff"/></linearGradient><filter id="c" x="0" y="8.85" width="490" height="143" filterUnits="userSpaceOnUse"><feOffset dy="3" input="SourceAlpha"/><feGaussianBlur stdDeviation="3" result="d"/><feFlood flood-opacity="0.161"/><feComposite operator="in" in2="d"/><feComposite in="SourceGraphic"/></filter><linearGradient id="e" x1="0.5" y1="1" x2="0.5" gradientUnits="objectBoundingBox"><stop offset="0" stop-color="#00dfc0"/><stop offset="1" stop-color="#0ab7ab"/></linearGradient><linearGradient id="f" x1="0.5" y1="1" x2="0.5" gradientUnits="objectBoundingBox"><stop offset="0" stop-color="#7c4dff"/><stop offset="1" stop-color="#ff4b70"/></linearGradient></defs><g transform="translate(9)"><path d="M141,154.7l47-77.35L141,0H62L0,77.35,62,154.7Z" transform="translate(307)" fill="url(#a)"/><g transform="matrix(1, 0, 0, 1, -9, 0)" filter="url(#c)"><path d="M0,62.5,37.7,0V125Zm37.7,61.975V.525H465a7,7,0,0,1,7,7V117.474a7,7,0,0,1-7,7Z" transform="translate(481 139.85) rotate(180)" fill="url(#b)"/></g><path d="M0,62.5,2.4,125v-.526H30V.525H2.4V0Z" transform="translate(31 139.849) rotate(180)" opacity="0" fill="url(#e)"/><g transform="translate(-167 37.349)"><g transform="translate(528)"><circle cx="40.5" cy="40.5" r="40.5" fill="#3e5e68"/><g transform="translate(-91.185 11)"><path d="M242.745,256H241v17.449h3.49V256Z" transform="translate(-111.179 -226.22)" fill="#59c36a"/><path d="M256,256h1.745v17.449H256Z" transform="translate(-124.434 -226.22)" fill="#00a66c"/><path d="M158.684,301a8.724,8.724,0,0,0-8.724,8.724A8.724,8.724,0,0,0,141.235,301H136v1.745a8.725,8.725,0,0,0,8.721,8.724l5.238,3.49,5.235-3.49a8.725,8.725,0,0,0,8.724-8.721V301Z" transform="translate(-18.394 -265.986)" fill="#97de3d"/><path d="M269.959,302.745V301h-5.235A8.724,8.724,0,0,0,256,309.724v5.235l5.235-3.49a8.725,8.725,0,0,0,8.724-8.721Z" transform="translate(-124.434 -265.986)" fill="#59c36a"/><g transform="translate(115.861)"><path d="M136.7,0a15.762,15.762,0,1,0,15.7,15.82A15.762,15.762,0,0,0,136.7,0Z" transform="translate(-121)" fill="#fed843"/><path d="M271.7,15.82A15.8,15.8,0,0,0,256,0V31.525A15.7,15.7,0,0,0,271.7,15.82Z" transform="translate(-240.296)" fill="#fabe2c"/><g transform="translate(10.469 3.606)"><path d="M216.235,41.469a1.745,1.745,0,1,1,1.745-1.745h3.49a5.22,5.22,0,0,0-3.49-4.914V31h-3.49v3.81a5.222,5.222,0,0,0,1.745,10.149A1.745,1.745,0,1,1,214.49,46.7H211a5.22,5.22,0,0,0,3.49,4.914v3.81h3.49v-3.81a5.222,5.222,0,0,0-1.745-10.149Z" transform="translate(-211 -31)" fill="#fabe2c"/></g><g transform="translate(15.704 3.606)"><path d="M257.745,131.149A5.222,5.222,0,0,0,256,121v3.49a1.745,1.745,0,0,1,0,3.49v6.98h1.745Z" transform="translate(-256 -110.531)" fill="#ff9100"/><path d="M257.745,39.724h3.49a5.22,5.22,0,0,0-3.49-4.914V31H256v6.98a1.746,1.746,0,0,1,1.745,1.744Z" transform="translate(-256 -31)" fill="#ff9100"/></g></g><path d="M131.566,391H115.185l4.654,14.076h23.454L147.946,391Z" transform="translate(0 -345.516)" fill="#edf9ff"/><path d="M272.381,391H256v14.076h11.727Z" transform="translate(-124.434 -345.516)" fill="#c0e1f0"/></g></g></g><path d="M2.037,0V-20.043H8.531a23.549,23.549,0,0,1,4.813.3,5.255,5.255,0,0,1,2.885,1.962,6.222,6.222,0,0,1,1.162,3.9,6.539,6.539,0,0,1-.67,3.1,5.5,5.5,0,0,1-1.7,1.976,5.866,5.866,0,0,1-2.1.95,23.1,23.1,0,0,1-4.2.287H6.084V0ZM6.084-16.652v5.688H8.3a10.465,10.465,0,0,0,3.2-.314,2.657,2.657,0,0,0,1.265-.984,2.694,2.694,0,0,0,.458-1.559,2.589,2.589,0,0,0-.643-1.8,2.8,2.8,0,0,0-1.627-.889,19.451,19.451,0,0,0-2.912-.137ZM24.363,0H20.521V-14.52H24.09v2.064a6.2,6.2,0,0,1,1.647-1.928,3.031,3.031,0,0,1,1.661-.465,4.876,4.876,0,0,1,2.529.725l-1.189,3.35a3.371,3.371,0,0,0-1.8-.629,2.132,2.132,0,0,0-1.367.444,3.037,3.037,0,0,0-.882,1.606,22.821,22.821,0,0,0-.321,4.867Zm6.33-7.465a7.854,7.854,0,0,1,.943-3.7A6.475,6.475,0,0,1,34.31-13.9a7.932,7.932,0,0,1,3.862-.943,7.249,7.249,0,0,1,5.4,2.14,7.392,7.392,0,0,1,2.106,5.4,7.481,7.481,0,0,1-2.126,5.462A7.186,7.186,0,0,1,38.2.328a8.431,8.431,0,0,1-3.808-.9A6.19,6.19,0,0,1,31.637-3.22a8.814,8.814,0,0,1-.944-4.245Zm3.938.2a4.811,4.811,0,0,0,1.025,3.309A3.258,3.258,0,0,0,38.186-2.8a3.237,3.237,0,0,0,2.522-1.148,4.877,4.877,0,0,0,1.019-3.336,4.788,4.788,0,0,0-1.019-3.281,3.237,3.237,0,0,0-2.522-1.148,3.258,3.258,0,0,0-2.529,1.148A4.811,4.811,0,0,0,34.631-7.26Zm12.7,3.117,3.855-.588a2.825,2.825,0,0,0,1,1.7,3.373,3.373,0,0,0,2.1.581A3.8,3.8,0,0,0,56.533-3a1.221,1.221,0,0,0,.506-1.025,1.009,1.009,0,0,0-.273-.725,3.061,3.061,0,0,0-1.286-.5q-4.648-1.025-5.893-1.873a3.741,3.741,0,0,1-1.723-3.268,4.027,4.027,0,0,1,1.49-3.172,6.959,6.959,0,0,1,4.621-1.285,8.062,8.062,0,0,1,4.43.971,4.961,4.961,0,0,1,2,2.871l-3.623.67a2.24,2.24,0,0,0-.882-1.3,3.225,3.225,0,0,0-1.853-.451,4.174,4.174,0,0,0-2.174.424.91.91,0,0,0-.437.779.849.849,0,0,0,.383.7A14.414,14.414,0,0,0,55.408-9.1a10.684,10.684,0,0,1,4.283,1.7,3.552,3.552,0,0,1,1.2,2.857,4.386,4.386,0,0,1-1.668,3.432A7.383,7.383,0,0,1,54.291.328a8.1,8.1,0,0,1-4.7-1.2,5.543,5.543,0,0,1-2.259-3.271ZM64.148-14.52H67.73v2.133a5.36,5.36,0,0,1,1.887-1.777,5.2,5.2,0,0,1,2.639-.684,5.536,5.536,0,0,1,4.293,1.982,8.024,8.024,0,0,1,1.764,5.523A8.267,8.267,0,0,1,76.536-1.69,5.537,5.537,0,0,1,72.229.328,4.893,4.893,0,0,1,70.048-.15,7.35,7.35,0,0,1,67.99-1.791V5.523H64.148Zm3.8,7.014A5.593,5.593,0,0,0,68.92-3.89a2.969,2.969,0,0,0,2.365,1.169,2.776,2.776,0,0,0,2.229-1.073,5.53,5.53,0,0,0,.886-3.52,5.248,5.248,0,0,0-.916-3.391,2.834,2.834,0,0,0-2.27-1.107,2.948,2.948,0,0,0-2.338,1.087,4.838,4.838,0,0,0-.927,3.219ZM89.77-4.621l3.828.643A6.279,6.279,0,0,1,91.267-.772a6.848,6.848,0,0,1-3.985,1.1,6.5,6.5,0,0,1-5.605-2.475,8.314,8.314,0,0,1-1.436-5A8.017,8.017,0,0,1,82.127-12.8,6.214,6.214,0,0,1,86.9-14.848a6.445,6.445,0,0,1,5.113,2.14q1.873,2.14,1.791,6.556H84.178a3.887,3.887,0,0,0,.93,2.659,2.908,2.908,0,0,0,2.215.95,2.352,2.352,0,0,0,1.518-.492,3.04,3.04,0,0,0,.929-1.586ZM89.988-8.5a3.7,3.7,0,0,0-.861-2.536,2.643,2.643,0,0,0-2-.868,2.668,2.668,0,0,0-2.078.916,3.545,3.545,0,0,0-.8,2.488ZM100.611,0H96.77V-14.52h3.568v2.064a6.205,6.205,0,0,1,1.647-1.928,3.031,3.031,0,0,1,1.661-.465,4.876,4.876,0,0,1,2.529.725l-1.189,3.35a3.371,3.371,0,0,0-1.8-.629,2.132,2.132,0,0,0-1.367.444,3.037,3.037,0,0,0-.882,1.606,22.821,22.821,0,0,0-.321,4.867Zm7.219-16.488v-3.555h3.842v3.555ZM107.83,0V-14.52h3.842V0Zm14.438-14.52v3.063h-2.625v5.852a14.554,14.554,0,0,0,.075,2.071.844.844,0,0,0,.342.485,1.084,1.084,0,0,0,.649.191,4.97,4.97,0,0,0,1.545-.369l.328,2.98a7.637,7.637,0,0,1-3.035.574,4.814,4.814,0,0,1-1.873-.349,2.734,2.734,0,0,1-1.224-.9,3.561,3.561,0,0,1-.54-1.5,18.623,18.623,0,0,1-.123-2.707v-6.33h-1.764V-14.52h1.764V-17.4l3.855-2.242v5.127Zm.848,0H127.2l3.473,10.309,3.391-10.309h3.979L132.918-.547,132,1.982a10.309,10.309,0,0,1-.964,1.941,4.206,4.206,0,0,1-1.053,1.087,4.6,4.6,0,0,1-1.463.649,7.6,7.6,0,0,1-1.962.232,10.178,10.178,0,0,1-2.174-.232l-.342-3.008a8.5,8.5,0,0,0,1.627.178,2.411,2.411,0,0,0,1.982-.786,5.455,5.455,0,0,0,.984-2Z" transform="translate(27 59.349)" fill="#333"/><path d="M17.191-12.6,13.737,0H11.373l-2.4-8.815a6.026,6.026,0,0,1-.185-1.23H8.754a5.971,5.971,0,0,1-.211,1.213L6.135,0H3.718L.193-12.6H2.487L4.772-3.375a6.721,6.721,0,0,1,.176,1.213h.044a6.881,6.881,0,0,1,.246-1.213L7.822-12.6H9.976l2.391,9.3a7.262,7.262,0,0,1,.185,1.125h.035a6.907,6.907,0,0,1,.2-1.16L15.029-12.6Zm8.6,8.657h-6.13a2.593,2.593,0,0,0,.769,1.925,2.861,2.861,0,0,0,2.017.677A4.448,4.448,0,0,0,25.093-2.2v1.64a6.044,6.044,0,0,1-3.252.773,4.026,4.026,0,0,1-3.116-1.226A4.9,4.9,0,0,1,17.6-4.465a4.8,4.8,0,0,1,1.244-3.423,4.068,4.068,0,0,1,3.089-1.323,3.547,3.547,0,0,1,2.856,1.187,4.926,4.926,0,0,1,1.011,3.3ZM23.827-5.388A2.627,2.627,0,0,0,23.309-7.1,1.733,1.733,0,0,0,21.9-7.708a1.979,1.979,0,0,0-1.49.642,2.931,2.931,0,0,0-.751,1.679ZM39.6,0H37.617V-1.406h-.035A2.978,2.978,0,0,1,34.849.211,2.879,2.879,0,0,1,32.77-.51a2.521,2.521,0,0,1-.751-1.907q0-2.549,2.936-2.971l2.672-.378q0-1.925-1.828-1.925a4.343,4.343,0,0,0-2.9,1.107V-8.367a6.325,6.325,0,0,1,3.287-.844q3.41,0,3.41,3.357ZM37.626-4.421l-1.89.264a3,3,0,0,0-1.323.426,1.246,1.246,0,0,0-.444,1.094,1.2,1.2,0,0,0,.409.936,1.583,1.583,0,0,0,1.094.365,2.019,2.019,0,0,0,1.542-.655,2.322,2.322,0,0,0,.611-1.648ZM47.3-7.058a1.69,1.69,0,0,0-1.063-.29,1.82,1.82,0,0,0-1.512.817,3.655,3.655,0,0,0-.606,2.224V0H42.082V-9h2.039v1.854h.035a3.135,3.135,0,0,1,.918-1.481,2.073,2.073,0,0,1,1.384-.532,1.718,1.718,0,0,1,.844.167Zm9.062,3.111H50.229A2.593,2.593,0,0,0,51-2.021a2.861,2.861,0,0,0,2.017.677A4.448,4.448,0,0,0,55.663-2.2V-.562a6.044,6.044,0,0,1-3.252.773,4.026,4.026,0,0,1-3.116-1.226,4.9,4.9,0,0,1-1.129-3.45A4.8,4.8,0,0,1,49.41-7.888,4.068,4.068,0,0,1,52.5-9.211a3.547,3.547,0,0,1,2.856,1.187,4.926,4.926,0,0,1,1.011,3.3ZM54.4-5.388A2.627,2.627,0,0,0,53.877-7.1a1.733,1.733,0,0,0-1.406-.611,1.979,1.979,0,0,0-1.49.642A2.931,2.931,0,0,0,50.23-5.39ZM65.329-1.327h-.035V4.14H63.255V-9h2.039v1.582h.035a3.341,3.341,0,0,1,3.059-1.793,3.222,3.222,0,0,1,2.672,1.2,5.05,5.05,0,0,1,.958,3.234,5.607,5.607,0,0,1-1.081,3.6A3.576,3.576,0,0,1,67.983.185a2.949,2.949,0,0,1-2.654-1.512Zm-.053-3.551v1.116a2.382,2.382,0,0,0,.628,1.67,2.07,2.07,0,0,0,1.6.686,2.084,2.084,0,0,0,1.78-.883,4.111,4.111,0,0,0,.646-2.465,3.24,3.24,0,0,0-.6-2.079,1.979,1.979,0,0,0-1.63-.751,2.2,2.2,0,0,0-1.753.773,2.865,2.865,0,0,0-.671,1.933Zm14.045-2.18a1.69,1.69,0,0,0-1.063-.29,1.82,1.82,0,0,0-1.512.817,3.655,3.655,0,0,0-.606,2.224V0H74.1V-9h2.04v1.854h.035a3.135,3.135,0,0,1,.918-1.481,2.073,2.073,0,0,1,1.384-.532,1.718,1.718,0,0,1,.844.167ZM84.753.211A4.461,4.461,0,0,1,81.426-1.05a4.556,4.556,0,0,1-1.244-3.344,4.741,4.741,0,0,1,1.3-3.542A4.767,4.767,0,0,1,84.976-9.21,4.318,4.318,0,0,1,88.26-7.972a4.787,4.787,0,0,1,1.178,3.437,4.717,4.717,0,0,1-1.27,3.45,4.562,4.562,0,0,1-3.415,1.3Zm.1-7.8a2.328,2.328,0,0,0-1.89.835,3.5,3.5,0,0,0-.694,2.3,3.293,3.293,0,0,0,.7,2.228,2.362,2.362,0,0,0,1.881.813,2.241,2.241,0,0,0,1.85-.8,3.54,3.54,0,0,0,.646-2.276A3.594,3.594,0,0,0,86.7-6.776a2.23,2.23,0,0,0-1.85-.809ZM99.264-9l-3.48,9H93.577L90.264-9h2.215l2,6.293a5.867,5.867,0,0,1,.281,1.213h.026a6.511,6.511,0,0,1,.246-1.178L97.119-9Zm2.408-1.89a1.226,1.226,0,0,1-.857-.325,1.07,1.07,0,0,1-.356-.826,1.1,1.1,0,0,1,.356-.835,1.208,1.208,0,0,1,.857-.334,1.246,1.246,0,0,1,.879.334,1.091,1.091,0,0,1,.36.835,1.076,1.076,0,0,1-.36.813,1.237,1.237,0,0,1-.879.338ZM102.683,0h-2.039V-9h2.039Zm10.846,0H111.49V-1.529h-.035a3.252,3.252,0,0,1-3.032,1.74A3.273,3.273,0,0,1,105.763-1a5.017,5.017,0,0,1-1-3.292,5.465,5.465,0,0,1,1.1-3.577,3.61,3.61,0,0,1,2.94-1.345,2.815,2.815,0,0,1,2.646,1.459h.035v-5.572h2.039Zm-2.013-4.113V-5.291a2.3,2.3,0,0,0-.624-1.626,2.081,2.081,0,0,0-1.591-.668,2.142,2.142,0,0,0-1.8.853,3.8,3.8,0,0,0-.655,2.364,3.4,3.4,0,0,0,.628,2.167,2.044,2.044,0,0,0,1.692.8,2.116,2.116,0,0,0,1.7-.769,2.9,2.9,0,0,0,.65-1.943Zm5.7-6.776a1.226,1.226,0,0,1-.857-.325A1.07,1.07,0,0,1,116-12.04a1.1,1.1,0,0,1,.356-.835,1.208,1.208,0,0,1,.857-.334,1.246,1.246,0,0,1,.879.334,1.091,1.091,0,0,1,.36.835,1.076,1.076,0,0,1-.36.813,1.237,1.237,0,0,1-.875.337ZM118.23,0h-2.039V-9h2.039Zm10.679,0H126.87V-5.071q0-2.522-1.784-2.522a1.948,1.948,0,0,0-1.538.7,2.592,2.592,0,0,0-.606,1.762V0h-2.048V-9h2.048v1.494h.035A3.208,3.208,0,0,1,125.9-9.211a2.718,2.718,0,0,1,2.241.954,4.282,4.282,0,0,1,.773,2.755Zm10.679-.721q0,4.957-4.983,4.957a7.422,7.422,0,0,1-3.067-.589V1.784a5.676,5.676,0,0,0,2.8.844q3.208,0,3.208-3.155v-.984h-.035A3.3,3.3,0,0,1,134.473.211a3.289,3.289,0,0,1-2.65-1.2,4.851,4.851,0,0,1-1.006-3.221A5.682,5.682,0,0,1,131.9-7.857a3.594,3.594,0,0,1,2.971-1.354,2.863,2.863,0,0,1,2.646,1.459h.035V-9h2.039Zm-2.021-3.4v-1.17a2.29,2.29,0,0,0-.628-1.622,2.059,2.059,0,0,0-1.569-.672,2.156,2.156,0,0,0-1.815.857,3.867,3.867,0,0,0-.655,2.4,3.329,3.329,0,0,0,.628,2.123,2.017,2.017,0,0,0,1.666.8,2.162,2.162,0,0,0,1.714-.76,2.865,2.865,0,0,0,.658-1.957ZM154.1,0h-1.978V-1.406h-.035A2.978,2.978,0,0,1,149.353.211a2.879,2.879,0,0,1-2.079-.721,2.521,2.521,0,0,1-.751-1.907q0-2.549,2.936-2.971l2.672-.378q0-1.925-1.828-1.925a4.343,4.343,0,0,0-2.9,1.107V-8.367a6.325,6.325,0,0,1,3.287-.844q3.41,0,3.41,3.357Zm-1.97-4.421-1.89.264a3,3,0,0,0-1.323.426,1.246,1.246,0,0,0-.444,1.094,1.2,1.2,0,0,0,.409.936,1.583,1.583,0,0,0,1.094.365,2.019,2.019,0,0,0,1.542-.655,2.322,2.322,0,0,0,.611-1.648ZM174.99,0h-2.039V-4.9a3.975,3.975,0,0,0-.4-2.048,1.471,1.471,0,0,0-1.349-.633,1.626,1.626,0,0,0-1.358.8,3.263,3.263,0,0,0-.558,1.916V0h-2.048V-5.071q0-2.514-1.775-2.514a1.6,1.6,0,0,0-1.358.756,3.333,3.333,0,0,0-.532,1.96V0h-2.039V-9h2.039v1.424h.035a3.118,3.118,0,0,1,2.839-1.635,2.677,2.677,0,0,1,1.63.514,2.561,2.561,0,0,1,.954,1.349,3.212,3.212,0,0,1,2.988-1.863q2.971,0,2.971,3.665Zm9.4,0h-1.978V-1.406h-.035A2.978,2.978,0,0,1,179.64.211a2.879,2.879,0,0,1-2.079-.721,2.521,2.521,0,0,1-.751-1.907q0-2.549,2.936-2.971l2.672-.378q0-1.925-1.828-1.925a4.343,4.343,0,0,0-2.9,1.107V-8.367a6.325,6.325,0,0,1,3.287-.844q3.41,0,3.41,3.357Zm-1.969-4.421-1.89.264a3,3,0,0,0-1.323.426,1.246,1.246,0,0,0-.444,1.094,1.2,1.2,0,0,0,.409.936,1.583,1.583,0,0,0,1.094.365,2.019,2.019,0,0,0,1.542-.655,2.322,2.322,0,0,0,.611-1.648ZM194.4-9l-3,4.553L194.361,0H192l-1.582-2.786q-.149-.255-.352-.65h-.035q-.035.079-.369.65L188.051,0H185.7l3.059-4.412L185.854-9h2.373l1.556,2.927q.176.325.343.668h.026L192.164-9Zm2.522-1.89a1.226,1.226,0,0,1-.857-.325,1.07,1.07,0,0,1-.356-.826,1.1,1.1,0,0,1,.356-.835,1.208,1.208,0,0,1,.857-.334,1.246,1.246,0,0,1,.879.334,1.091,1.091,0,0,1,.36.835,1.076,1.076,0,0,1-.36.813,1.237,1.237,0,0,1-.882.338ZM197.93,0h-2.039V-9h2.039Zm16.119,0H212.01V-4.9a3.975,3.975,0,0,0-.4-2.048,1.471,1.471,0,0,0-1.349-.633,1.626,1.626,0,0,0-1.358.8,3.263,3.263,0,0,0-.558,1.916V0H206.3V-5.071q0-2.514-1.775-2.514a1.6,1.6,0,0,0-1.358.756,3.333,3.333,0,0,0-.532,1.96V0H200.6V-9h2.039v1.424h.035a3.118,3.118,0,0,1,2.839-1.635,2.677,2.677,0,0,1,1.63.514,2.561,2.561,0,0,1,.954,1.349,3.212,3.212,0,0,1,2.988-1.863q2.971,0,2.971,3.665Zm10.336,0h-2.039V-1.424h-.035a2.934,2.934,0,0,1-2.76,1.635q-3.19,0-3.19-3.832V-9H218.4v5.168q0,2.426,1.872,2.426a1.892,1.892,0,0,0,1.49-.668,2.56,2.56,0,0,0,.584-1.749V-9h2.039ZM240.5,0h-2.039V-4.9a3.975,3.975,0,0,0-.4-2.048,1.471,1.471,0,0,0-1.349-.633,1.626,1.626,0,0,0-1.358.8,3.263,3.263,0,0,0-.558,1.916V0h-2.048V-5.071q0-2.514-1.775-2.514a1.6,1.6,0,0,0-1.358.756,3.333,3.333,0,0,0-.532,1.96V0h-2.039V-9h2.039v1.424h.035a3.118,3.118,0,0,1,2.839-1.635,2.677,2.677,0,0,1,1.63.514,2.561,2.561,0,0,1,.954,1.349,3.212,3.212,0,0,1,2.988-1.863q2.971,0,2.971,3.665Zm9.483,0h-2.048V-13.324h2.048Zm10.274-3.946h-6.135a2.593,2.593,0,0,0,.769,1.925,2.861,2.861,0,0,0,2.017.677,4.448,4.448,0,0,0,2.646-.861V-.562A6.044,6.044,0,0,1,256.3.211a4.026,4.026,0,0,1-3.116-1.226,4.9,4.9,0,0,1-1.129-3.45A4.8,4.8,0,0,1,253.3-7.888a4.068,4.068,0,0,1,3.089-1.323,3.547,3.547,0,0,1,2.856,1.187,4.926,4.926,0,0,1,1.011,3.3Zm-1.969-1.441a2.627,2.627,0,0,0-.519-1.709,1.733,1.733,0,0,0-1.406-.611,1.979,1.979,0,0,0-1.49.642,2.931,2.931,0,0,0-.751,1.679ZM269.947-9l-3.48,9h-2.206l-3.313-9h2.215l2,6.293a5.867,5.867,0,0,1,.281,1.213h.026a6.509,6.509,0,0,1,.246-1.178L267.8-9Zm9,5.054h-6.135a2.593,2.593,0,0,0,.769,1.925,2.861,2.861,0,0,0,2.017.677,4.448,4.448,0,0,0,2.646-.861V-.562a6.044,6.044,0,0,1-3.252.773,4.026,4.026,0,0,1-3.116-1.226,4.9,4.9,0,0,1-1.129-3.45,4.8,4.8,0,0,1,1.244-3.423,4.068,4.068,0,0,1,3.089-1.323,3.547,3.547,0,0,1,2.856,1.187,4.926,4.926,0,0,1,1.011,3.3Zm-1.969-1.441A2.627,2.627,0,0,0,276.46-7.1a1.733,1.733,0,0,0-1.406-.611,1.979,1.979,0,0,0-1.49.642,2.931,2.931,0,0,0-.751,1.679ZM282.938,0H280.89V-13.324h2.048ZM294.53.211A4.461,4.461,0,0,1,291.2-1.05a4.556,4.556,0,0,1-1.244-3.344,4.741,4.741,0,0,1,1.3-3.542A4.767,4.767,0,0,1,294.75-9.21a4.318,4.318,0,0,1,3.287,1.239,4.787,4.787,0,0,1,1.178,3.437,4.717,4.717,0,0,1-1.27,3.45A4.562,4.562,0,0,1,294.53.211Zm.1-7.8a2.328,2.328,0,0,0-1.89.835,3.5,3.5,0,0,0-.694,2.3,3.293,3.293,0,0,0,.7,2.228,2.362,2.362,0,0,0,1.881.813,2.241,2.241,0,0,0,1.85-.8,3.54,3.54,0,0,0,.646-2.276,3.594,3.594,0,0,0-.646-2.294,2.23,2.23,0,0,0-1.85-.8Zm11.751-4.078a1.854,1.854,0,0,0-.94-.237q-1.485,0-1.485,1.679V-9h2.092v1.6h-2.083V0h-2.039V-7.4h-1.538V-9h1.538v-1.459a2.841,2.841,0,0,1,.932-2.246,3.393,3.393,0,0,1,2.329-.822,3.459,3.459,0,0,1,1.2.167ZM.765,23.719v-1.89a4.068,4.068,0,0,0,2.522.87q1.846,0,1.846-1.09a.859.859,0,0,0-.158-.523,1.51,1.51,0,0,0-.426-.382,3.351,3.351,0,0,0-.633-.3q-.365-.132-.813-.3a8.607,8.607,0,0,1-1-.466,3.014,3.014,0,0,1-.738-.558,2.107,2.107,0,0,1-.444-.708,2.605,2.605,0,0,1-.149-.923A2.133,2.133,0,0,1,1.08,16.3a2.673,2.673,0,0,1,.826-.835,3.962,3.962,0,0,1,1.178-.51,5.392,5.392,0,0,1,1.362-.171,6.193,6.193,0,0,1,2.232.378v1.784A3.763,3.763,0,0,0,4.5,16.3a2.847,2.847,0,0,0-.7.079,1.8,1.8,0,0,0-.532.22,1.081,1.081,0,0,0-.343.338.807.807,0,0,0-.123.435.93.93,0,0,0,.123.492,1.118,1.118,0,0,0,.365.356,3.15,3.15,0,0,0,.58.281q.338.127.778.277a11.364,11.364,0,0,1,1.042.483,3.52,3.52,0,0,1,.787.558,2.188,2.188,0,0,1,.5.721,2.447,2.447,0,0,1,.176.971,2.22,2.22,0,0,1-.316,1.2,2.637,2.637,0,0,1-.844.844,3.95,3.95,0,0,1-1.217.5,6.324,6.324,0,0,1-1.455.163,6.129,6.129,0,0,1-2.556-.5Zm13.069.185a3.534,3.534,0,0,1-1.573.3q-2.619,0-2.619-2.514V16.6h-1.5V15h1.5V12.917l2.039-.58V15h2.153v1.6H11.681v4.5a1.773,1.773,0,0,0,.29,1.143,1.2,1.2,0,0,0,.967.343,1.4,1.4,0,0,0,.9-.3ZM22.5,24H20.522V22.594h-.035a2.978,2.978,0,0,1-2.733,1.617,2.879,2.879,0,0,1-2.079-.721,2.521,2.521,0,0,1-.751-1.907q0-2.549,2.936-2.971l2.672-.378q0-1.925-1.828-1.925a4.343,4.343,0,0,0-2.9,1.107V15.633a6.325,6.325,0,0,1,3.287-.844q3.41,0,3.41,3.357Zm-1.969-4.421-1.89.264a3,3,0,0,0-1.323.426,1.246,1.246,0,0,0-.444,1.094,1.2,1.2,0,0,0,.409.936,1.583,1.583,0,0,0,1.094.365,2.019,2.019,0,0,0,1.542-.655,2.322,2.322,0,0,0,.611-1.648Zm6.53,3.12h-.035V24H24.987V10.676h2.039v5.906h.035a3.341,3.341,0,0,1,3.059-1.793A3.22,3.22,0,0,1,32.788,16a5.053,5.053,0,0,1,.962,3.239,5.641,5.641,0,0,1-1.081,3.617,3.571,3.571,0,0,1-2.953,1.358A2.9,2.9,0,0,1,27.062,22.7Zm-.053-3.577v1.116a2.382,2.382,0,0,0,.628,1.67,2.218,2.218,0,0,0,3.375-.2,4.111,4.111,0,0,0,.646-2.465,3.24,3.24,0,0,0-.6-2.079,1.979,1.979,0,0,0-1.63-.751,2.2,2.2,0,0,0-1.753.773,2.865,2.865,0,0,0-.665,1.936Zm9.853-6.012A1.226,1.226,0,0,1,36,12.785a1.07,1.07,0,0,1-.356-.826A1.1,1.1,0,0,1,36,11.124a1.208,1.208,0,0,1,.857-.334,1.246,1.246,0,0,1,.879.334,1.091,1.091,0,0,1,.36.835,1.076,1.076,0,0,1-.36.813,1.237,1.237,0,0,1-.875.338ZM37.872,24H35.833V15h2.039Zm4.711,0H40.535V10.676h2.048Zm3.683-10.89a1.226,1.226,0,0,1-.857-.325,1.07,1.07,0,0,1-.356-.826,1.1,1.1,0,0,1,.356-.835,1.208,1.208,0,0,1,.857-.334,1.246,1.246,0,0,1,.879.334,1.091,1.091,0,0,1,.36.835,1.076,1.076,0,0,1-.36.813,1.237,1.237,0,0,1-.879.338ZM47.276,24H45.237V15h2.039Zm7.409-.1a3.534,3.534,0,0,1-1.573.3q-2.619,0-2.619-2.514V16.6h-1.5V15h1.5V12.917l2.039-.58V15h2.153v1.6H52.532v4.5a1.773,1.773,0,0,0,.29,1.143,1.2,1.2,0,0,0,.967.343,1.4,1.4,0,0,0,.9-.3ZM64.239,15l-4.06,10.441q-1.266,2.795-3.551,2.8a4.258,4.258,0,0,1-1.072-.114v-1.7a2.852,2.852,0,0,0,.879.158,1.814,1.814,0,0,0,1.705-1.125l.606-1.477L55.169,15h2.259l2.145,6.539q.035.123.158.65h.044q.044-.2.158-.633L62.183,15Zm11.048,8.9a3.534,3.534,0,0,1-1.573.3q-2.619,0-2.619-2.514V16.6H69.6V15h1.5V12.917l2.039-.58V15h2.153v1.6H73.134v4.5a1.773,1.773,0,0,0,.29,1.143,1.2,1.2,0,0,0,.967.343,1.4,1.4,0,0,0,.9-.3Zm5.748.308a4.461,4.461,0,0,1-3.327-1.261A4.556,4.556,0,0,1,76.464,19.6a4.741,4.741,0,0,1,1.3-3.542,4.767,4.767,0,0,1,3.494-1.274,4.318,4.318,0,0,1,3.287,1.239,4.787,4.787,0,0,1,1.178,3.437,4.717,4.717,0,0,1-1.27,3.45,4.562,4.562,0,0,1-3.418,1.3Zm.1-7.8a2.328,2.328,0,0,0-1.89.835,3.5,3.5,0,0,0-.694,2.3,3.293,3.293,0,0,0,.7,2.228,2.362,2.362,0,0,0,1.881.813,2.241,2.241,0,0,0,1.85-.8,3.54,3.54,0,0,0,.646-2.276,3.594,3.594,0,0,0-.646-2.294,2.23,2.23,0,0,0-1.85-.8Zm15.6,7.8a4.461,4.461,0,0,1-3.327-1.261A4.556,4.556,0,0,1,92.164,19.6a4.741,4.741,0,0,1,1.3-3.542,4.767,4.767,0,0,1,3.494-1.274,4.318,4.318,0,0,1,3.287,1.239,4.787,4.787,0,0,1,1.178,3.437,4.717,4.717,0,0,1-1.27,3.45,4.562,4.562,0,0,1-3.421,1.3Zm.1-7.8a2.328,2.328,0,0,0-1.89.835,3.5,3.5,0,0,0-.694,2.3,3.293,3.293,0,0,0,.7,2.228,2.362,2.362,0,0,0,1.881.813,2.241,2.241,0,0,0,1.85-.8,3.54,3.54,0,0,0,.646-2.276,3.594,3.594,0,0,0-.646-2.294,2.23,2.23,0,0,0-1.853-.8ZM111.34,24H109.3V22.576h-.035a2.934,2.934,0,0,1-2.76,1.635q-3.19,0-3.19-3.832V15h2.039v5.168q0,2.426,1.872,2.426a1.892,1.892,0,0,0,1.49-.668,2.56,2.56,0,0,0,.584-1.749V15h2.039Zm7.875-7.058a1.69,1.69,0,0,0-1.063-.29,1.82,1.82,0,0,0-1.512.817,3.655,3.655,0,0,0-.606,2.224V24h-2.039V15h2.039v1.854h.035a3.135,3.135,0,0,1,.918-1.481,2.073,2.073,0,0,1,1.384-.532,1.718,1.718,0,0,1,.844.167Zm12.832,6.645a5.029,5.029,0,0,1-2.558.624,4.331,4.331,0,0,1-3.234-1.252,4.437,4.437,0,0,1-1.23-3.248,4.883,4.883,0,0,1,1.323-3.573,4.729,4.729,0,0,1,3.538-1.349,5.164,5.164,0,0,1,2.171.431v1.9a3.288,3.288,0,0,0-2-.7,2.785,2.785,0,0,0-2.118.875,3.2,3.2,0,0,0-.826,2.29,3.049,3.049,0,0,0,.778,2.206,2.762,2.762,0,0,0,2.087.809,3.262,3.262,0,0,0,2.074-.782Zm4.069.413h-2.048V10.676h2.048ZM139.8,13.11a1.226,1.226,0,0,1-.857-.325,1.07,1.07,0,0,1-.356-.826,1.1,1.1,0,0,1,.356-.835,1.208,1.208,0,0,1,.857-.334,1.246,1.246,0,0,1,.879.334,1.091,1.091,0,0,1,.36.835,1.076,1.076,0,0,1-.36.813,1.237,1.237,0,0,1-.879.338ZM140.81,24h-2.039V15h2.039Zm10.283-3.946h-6.135a2.593,2.593,0,0,0,.769,1.925,2.861,2.861,0,0,0,2.017.677,4.448,4.448,0,0,0,2.646-.861v1.644a6.044,6.044,0,0,1-3.252.773,4.026,4.026,0,0,1-3.116-1.226,4.9,4.9,0,0,1-1.129-3.45,4.8,4.8,0,0,1,1.244-3.423,4.068,4.068,0,0,1,3.089-1.323,3.547,3.547,0,0,1,2.856,1.187,4.926,4.926,0,0,1,1.011,3.3Zm-1.969-1.441a2.627,2.627,0,0,0-.519-1.709,1.733,1.733,0,0,0-1.406-.611,1.979,1.979,0,0,0-1.49.642,2.931,2.931,0,0,0-.751,1.679ZM161.051,24h-2.039V18.929q0-2.522-1.784-2.522a1.948,1.948,0,0,0-1.538.7,2.592,2.592,0,0,0-.606,1.762V24h-2.048V15h2.048v1.494h.035a3.208,3.208,0,0,1,2.918-1.7,2.718,2.718,0,0,1,2.241.954,4.282,4.282,0,0,1,.773,2.755Zm7.233-.1a3.534,3.534,0,0,1-1.573.3q-2.619,0-2.619-2.514V16.6h-1.5V15h1.5V12.917l2.039-.58V15h2.153v1.6h-2.153v4.5a1.773,1.773,0,0,0,.29,1.143,1.2,1.2,0,0,0,.967.343,1.4,1.4,0,0,0,.9-.3Zm1.2-.185v-1.89A4.068,4.068,0,0,0,172,22.7q1.846,0,1.846-1.09a.859.859,0,0,0-.158-.523,1.51,1.51,0,0,0-.426-.382,3.351,3.351,0,0,0-.633-.3q-.365-.132-.813-.3a8.608,8.608,0,0,1-1-.466,3.014,3.014,0,0,1-.738-.558,2.107,2.107,0,0,1-.444-.708,2.6,2.6,0,0,1-.149-.923,2.133,2.133,0,0,1,.308-1.147,2.673,2.673,0,0,1,.826-.835,3.962,3.962,0,0,1,1.178-.51,5.392,5.392,0,0,1,1.362-.171,6.193,6.193,0,0,1,2.232.378v1.784a3.763,3.763,0,0,0-2.18-.65,2.847,2.847,0,0,0-.7.079,1.8,1.8,0,0,0-.532.22,1.081,1.081,0,0,0-.343.338.807.807,0,0,0-.123.435.93.93,0,0,0,.123.492,1.118,1.118,0,0,0,.365.356,3.149,3.149,0,0,0,.58.281q.338.127.778.277a11.365,11.365,0,0,1,1.042.483,3.52,3.52,0,0,1,.787.558,2.188,2.188,0,0,1,.5.721,2.447,2.447,0,0,1,.176.971,2.22,2.22,0,0,1-.316,1.2,2.637,2.637,0,0,1-.844.844,3.95,3.95,0,0,1-1.217.5,6.324,6.324,0,0,1-1.455.163,6.129,6.129,0,0,1-2.553-.5Zm9.167.475a1.261,1.261,0,0,1-.9-.347,1.1,1.1,0,0,1-.369-.831,1.124,1.124,0,0,1,.369-.844,1.252,1.252,0,0,1,.9-.352,1.278,1.278,0,0,1,.91.352,1.118,1.118,0,0,1,.374.844,1.1,1.1,0,0,1-.374.831,1.287,1.287,0,0,1-.915.35Z" transform="translate(27 92.349)" fill="#333"/><path d="M52.175,122.8H38.029L0,61.4,38.029,0H52.207L15.157,61.425,52.177,122.8Z" transform="translate(494.001 138.775) rotate(180)" opacity="0" fill="url(#f)"/></g></svg>