<svg xmlns="http://www.w3.org/2000/svg" xmlns:xlink="http://www.w3.org/1999/xlink" width="504" height="154.7" viewBox="0 0 504 154.7"><defs><linearGradient id="a" x1="0.5" x2="0.5" y2="1" gradientUnits="objectBoundingBox"><stop offset="0" stop-color="#ff4b70"/><stop offset="1" stop-color="#7c4dff"/></linearGradient><linearGradient id="b" y1="0.5" x2="1.052" y2="0.5" gradientUnits="objectBoundingBox"><stop offset="0" stop-color="#eee"/><stop offset="1" stop-color="#fff"/></linearGradient><filter id="c" x="0" y="8.85" width="488.999" height="143" filterUnits="userSpaceOnUse"><feOffset dy="3" input="SourceAlpha"/><feGaussianBlur stdDeviation="3" result="d"/><feFlood flood-opacity="0.161"/><feComposite operator="in" in2="d"/><feComposite in="SourceGraphic"/></filter><linearGradient id="e" x1="0.5" y1="1" x2="0.5" gradientUnits="objectBoundingBox"><stop offset="0" stop-color="#00dfc0"/><stop offset="1" stop-color="#0ab7ab"/></linearGradient></defs><g transform="translate(9)"><path d="M141,154.7l47-77.35L141,0H62L0,77.35,62,154.7Z" transform="translate(305.999)" fill="url(#a)"/><g transform="matrix(1, 0, 0, 1, -9, 0)" filter="url(#c)"><path d="M0,62.5,37.62,0V125Zm37.62,61.975V.525H464.014a6.993,6.993,0,0,1,6.985,7V117.474a6.993,6.993,0,0,1-6.985,7Z" transform="translate(480 139.85) rotate(180)" fill="url(#b)"/></g><path d="M0,62.5,2.4,125v-.526H30V.525H2.4V0Z" transform="translate(33 139.849) rotate(180)" opacity="0" fill="url(#e)"/><g transform="translate(359.999 37.35)"><circle cx="40.5" cy="40.5" r="40.5" fill="#3e5e68"/><g transform="translate(17 18)"><path d="M60,16h42.145V49.567H60Z" transform="translate(-54.406 -16)" fill="#f0f7ff"/><path d="M286,16h21.072V49.567H286Z" transform="translate(-259.333 -16)" fill="#dfe7f4"/><g transform="translate(16.877 5.594)"><path d="M181,76h19.58v2.8H181Z" transform="translate(-181 -76)" fill="#dfe7f4"/></g><g transform="translate(11.189 16.783)"><path d="M120,196h30.863v2.8H120Z" transform="translate(-120 -196)" fill="#dfe7f4"/></g><g transform="translate(16.877 22.378)"><path d="M181,256h19.58v2.8H181Z" transform="translate(-181 -256)" fill="#dfe7f4"/></g><g transform="translate(19.674 11.189)"><path d="M211,136h2.8v2.8H211Z" transform="translate(-211 -136)" fill="#474f54"/></g><g transform="translate(25.268 11.189)"><path d="M271,136h2.8v2.8H271Z" transform="translate(-271 -136)" fill="#474f54"/></g><g transform="translate(30.863 11.189)"><path d="M331,136h2.8v2.8H331Z" transform="translate(-331 -136)" fill="#32393f"/></g><path d="M286,136h1.4v2.8H286Z" transform="translate(-259.333 -124.811)" fill="#32393f"/><g transform="translate(26.667 5.594)"><path d="M286,76h9.79v2.8H286Z" transform="translate(-286 -76)" fill="#c7cfe1"/><path d="M286,256h9.79v2.8H286Z" transform="translate(-286 -239.217)" fill="#c7cfe1"/><path d="M286,196h15.385v2.8H286Z" transform="translate(-286 -184.811)" fill="#c7cfe1"/></g><path d="M34.422,313.817l-11.951,3-1.608,2.8H16.821l-2.742-2.8-12.044-3a13.742,13.742,0,0,0,0,14.393l13.746-3.033h4.988l13.653,3.033a13.742,13.742,0,0,0,0-14.393Z" transform="translate(0 -286.048)" fill="#fed843"/><path d="M212.147,328.21a13.742,13.742,0,0,0,0-14.393l-11.951,3-1.608,2.8H196v5.562h2.494Z" transform="translate(-177.725 -286.048)" fill="#fabe2c"/><path d="M155.2,346H151v13.986l4.2-2.1,4.2,2.1V346Z" transform="translate(-136.921 -315.231)" fill="#ff641a"/><path d="M200.2,346H196v11.888l4.2,2.1Z" transform="translate(-177.725 -315.231)" fill="#f03800"/></g></g><path d="M18.17-2.543a13.224,13.224,0,0,0,3.24,1.7L19.92,2.01a9.229,9.229,0,0,1-1.791-.752q-.191-.1-2.693-1.777a10.766,10.766,0,0,1-4.361.861,9.574,9.574,0,0,1-7.24-2.721Q1.217-5.1,1.217-10.021t2.625-7.636a9.423,9.423,0,0,1,7.123-2.728,9.325,9.325,0,0,1,7.068,2.728q2.611,2.728,2.611,7.636a13.19,13.19,0,0,1-.725,4.566A9.5,9.5,0,0,1,18.17-2.543ZM14.916-4.826a6.053,6.053,0,0,0,1.169-2.215,10.385,10.385,0,0,0,.39-2.98,7.6,7.6,0,0,0-1.531-5.188,5.114,5.114,0,0,0-4.006-1.716A5.126,5.126,0,0,0,6.925-15.2a7.577,7.577,0,0,0-1.538,5.182A7.753,7.753,0,0,0,6.925-4.765a4.963,4.963,0,0,0,3.89,1.743,4.747,4.747,0,0,0,1.654-.287,11.705,11.705,0,0,0-2.5-1.258L11.1-6.877a13.746,13.746,0,0,1,3.816,2.051ZM33.346,0V-2.174A5.6,5.6,0,0,1,31.261-.342a5.845,5.845,0,0,1-2.728.67,5.333,5.333,0,0,1-2.625-.643,3.793,3.793,0,0,1-1.682-1.8,8.053,8.053,0,0,1-.52-3.213V-14.52h3.842v6.672A18.5,18.5,0,0,0,27.76-4.1,2.046,2.046,0,0,0,28.533-3a2.374,2.374,0,0,0,1.422.4,3.023,3.023,0,0,0,1.764-.54,2.747,2.747,0,0,0,1.066-1.34A15.552,15.552,0,0,0,33.072-8.4V-14.52h3.842V0ZM43.764-10.09l-3.486-.629A5.43,5.43,0,0,1,42.3-13.836a7.4,7.4,0,0,1,4.266-1.012,9.193,9.193,0,0,1,3.828.608A3.818,3.818,0,0,1,52.165-12.7a7.922,7.922,0,0,1,.513,3.438l-.041,4.484a15.569,15.569,0,0,0,.185,2.823A8.241,8.241,0,0,0,53.512,0h-3.8q-.15-.383-.369-1.135-.1-.342-.137-.451A6.926,6.926,0,0,1,47.1-.15a6.03,6.03,0,0,1-2.393.479A4.948,4.948,0,0,1,41.173-.889a4.045,4.045,0,0,1-1.292-3.076,4.129,4.129,0,0,1,.588-2.194,3.841,3.841,0,0,1,1.647-1.477,12.876,12.876,0,0,1,3.056-.9A20.932,20.932,0,0,0,48.9-9.475v-.383a1.989,1.989,0,0,0-.547-1.579,3.277,3.277,0,0,0-2.064-.472,2.749,2.749,0,0,0-1.6.4,2.8,2.8,0,0,0-.925,1.419ZM48.9-6.973a24.014,24.014,0,0,1-2.338.588,7.042,7.042,0,0,0-2.092.67,1.6,1.6,0,0,0-.752,1.354,1.884,1.884,0,0,0,.6,1.395,2.1,2.1,0,0,0,1.531.588,3.327,3.327,0,0,0,1.982-.684,2.406,2.406,0,0,0,.916-1.271,7.586,7.586,0,0,0,.15-1.873ZM56.465,0V-20.043h3.842V0Zm7.779-16.488v-3.555h3.842v3.555ZM64.244,0V-14.52h3.842V0ZM78.682-14.52v3.063H76.057v5.852a14.554,14.554,0,0,0,.075,2.071.844.844,0,0,0,.342.485,1.084,1.084,0,0,0,.649.191,4.97,4.97,0,0,0,1.545-.369L79-.246a7.637,7.637,0,0,1-3.035.574,4.814,4.814,0,0,1-1.873-.349,2.734,2.734,0,0,1-1.224-.9,3.561,3.561,0,0,1-.54-1.5A18.622,18.622,0,0,1,72.2-5.127v-6.33H70.438V-14.52H72.2V-17.4l3.855-2.242v5.127Zm.848,0h4.088L87.09-4.211,90.48-14.52h3.979L89.332-.547l-.916,2.529a10.311,10.311,0,0,1-.964,1.941A4.206,4.206,0,0,1,86.4,5.011a4.6,4.6,0,0,1-1.463.649,7.6,7.6,0,0,1-1.962.232A10.178,10.178,0,0,1,80.8,5.66l-.342-3.008a8.5,8.5,0,0,0,1.627.178,2.411,2.411,0,0,0,1.982-.786,5.455,5.455,0,0,0,.984-2Z" transform="translate(27 59.35)" fill="#333"/><path d="M17.191-12.6,13.737,0H11.373l-2.4-8.815a6.026,6.026,0,0,1-.185-1.23H8.754a5.971,5.971,0,0,1-.211,1.213L6.135,0H3.718L.193-12.6H2.487L4.772-3.375a6.721,6.721,0,0,1,.176,1.213h.044a6.881,6.881,0,0,1,.246-1.213L7.822-12.6H9.976l2.391,9.3a7.262,7.262,0,0,1,.185,1.125h.035a6.907,6.907,0,0,1,.2-1.16L15.029-12.6Zm8.6,8.657h-6.13a2.593,2.593,0,0,0,.769,1.925,2.861,2.861,0,0,0,2.017.677A4.448,4.448,0,0,0,25.093-2.2v1.64a6.044,6.044,0,0,1-3.252.773,4.026,4.026,0,0,1-3.116-1.226A4.9,4.9,0,0,1,17.6-4.465a4.8,4.8,0,0,1,1.244-3.423,4.068,4.068,0,0,1,3.089-1.323,3.547,3.547,0,0,1,2.856,1.187,4.926,4.926,0,0,1,1.011,3.3ZM23.827-5.388A2.627,2.627,0,0,0,23.309-7.1,1.733,1.733,0,0,0,21.9-7.708a1.979,1.979,0,0,0-1.49.642,2.931,2.931,0,0,0-.751,1.679ZM34.761-1.327h-.035V4.14H32.687V-9h2.039v1.582h.035A3.341,3.341,0,0,1,37.82-9.211a3.222,3.222,0,0,1,2.672,1.2,5.05,5.05,0,0,1,.958,3.234,5.607,5.607,0,0,1-1.081,3.6A3.576,3.576,0,0,1,37.415.185a2.949,2.949,0,0,1-2.654-1.512Zm-.053-3.551v1.116a2.382,2.382,0,0,0,.628,1.67,2.07,2.07,0,0,0,1.6.686,2.084,2.084,0,0,0,1.78-.883,4.111,4.111,0,0,0,.646-2.465,3.24,3.24,0,0,0-.6-2.079,1.979,1.979,0,0,0-1.63-.751,2.2,2.2,0,0,0-1.753.773,2.865,2.865,0,0,0-.671,1.933Zm14.045-2.18a1.69,1.69,0,0,0-1.063-.29,1.82,1.82,0,0,0-1.512.817,3.655,3.655,0,0,0-.606,2.224V0h-2.04V-9h2.039v1.854h.035a3.135,3.135,0,0,1,.918-1.481,2.073,2.073,0,0,1,1.384-.532,1.718,1.718,0,0,1,.844.167ZM54.185.211A4.461,4.461,0,0,1,50.858-1.05a4.556,4.556,0,0,1-1.244-3.344,4.741,4.741,0,0,1,1.3-3.542A4.767,4.767,0,0,1,54.4-9.211a4.318,4.318,0,0,1,3.287,1.239,4.787,4.787,0,0,1,1.178,3.437,4.717,4.717,0,0,1-1.27,3.45,4.562,4.562,0,0,1-3.41,1.3Zm.1-7.8a2.328,2.328,0,0,0-1.89.835,3.5,3.5,0,0,0-.694,2.3,3.293,3.293,0,0,0,.7,2.228,2.362,2.362,0,0,0,1.881.813,2.241,2.241,0,0,0,1.85-.8,3.54,3.54,0,0,0,.646-2.276,3.594,3.594,0,0,0-.646-2.294,2.23,2.23,0,0,0-1.851-.8ZM68.7-9,65.22,0H63.009L59.7-9h2.21l2,6.293a5.867,5.867,0,0,1,.281,1.213h.026a6.511,6.511,0,0,1,.246-1.178L66.551-9Zm2.4-1.89a1.226,1.226,0,0,1-.857-.325,1.07,1.07,0,0,1-.356-.826,1.1,1.1,0,0,1,.356-.835,1.208,1.208,0,0,1,.857-.334,1.246,1.246,0,0,1,.879.334,1.091,1.091,0,0,1,.36.835,1.076,1.076,0,0,1-.36.813,1.237,1.237,0,0,1-.879.338ZM72.114,0H70.075V-9h2.039ZM82.96,0H80.921V-1.529h-.035A3.252,3.252,0,0,1,77.854.211,3.273,3.273,0,0,1,75.2-1a5.017,5.017,0,0,1-1-3.292,5.465,5.465,0,0,1,1.1-3.577,3.61,3.61,0,0,1,2.94-1.345,2.815,2.815,0,0,1,2.646,1.459h.035v-5.572H82.96ZM80.947-4.113V-5.291a2.3,2.3,0,0,0-.624-1.626,2.081,2.081,0,0,0-1.591-.668,2.142,2.142,0,0,0-1.8.853,3.8,3.8,0,0,0-.655,2.364A3.4,3.4,0,0,0,76.909-2.2a2.044,2.044,0,0,0,1.692.8,2.116,2.116,0,0,0,1.7-.769,2.9,2.9,0,0,0,.646-1.944Zm12.3.167H87.108a2.593,2.593,0,0,0,.769,1.925,2.861,2.861,0,0,0,2.017.677A4.448,4.448,0,0,0,92.54-2.2V-.562a6.044,6.044,0,0,1-3.252.773,4.026,4.026,0,0,1-3.116-1.226,4.9,4.9,0,0,1-1.129-3.45,4.8,4.8,0,0,1,1.244-3.423,4.068,4.068,0,0,1,3.089-1.323,3.547,3.547,0,0,1,2.856,1.187,4.926,4.926,0,0,1,1.011,3.3ZM91.274-5.388A2.627,2.627,0,0,0,90.756-7.1a1.733,1.733,0,0,0-1.406-.611,1.979,1.979,0,0,0-1.49.642,2.931,2.931,0,0,0-.751,1.679ZM104.88-.1a3.534,3.534,0,0,1-1.573.3q-2.619,0-2.619-2.514V-7.4h-1.5V-9h1.5v-2.083l2.039-.58V-9h2.153v1.6h-2.153v4.5a1.773,1.773,0,0,0,.29,1.143,1.2,1.2,0,0,0,.967.343,1.4,1.4,0,0,0,.9-.3Zm9.756.1H112.6V-4.922q0-2.672-1.784-2.672a1.866,1.866,0,0,0-1.512.773,3.079,3.079,0,0,0-.615,1.978V0h-2.048V-13.324h2.048v5.818h.035a3.22,3.22,0,0,1,2.918-1.7q3,0,3,3.665Zm10.1-3.946H118.6a2.593,2.593,0,0,0,.769,1.925,2.861,2.861,0,0,0,2.017.677,4.448,4.448,0,0,0,2.646-.861V-.562a6.044,6.044,0,0,1-3.252.773,4.026,4.026,0,0,1-3.116-1.226,4.9,4.9,0,0,1-1.129-3.45,4.8,4.8,0,0,1,1.244-3.423,4.068,4.068,0,0,1,3.089-1.323,3.547,3.547,0,0,1,2.856,1.187,4.926,4.926,0,0,1,1.011,3.3Zm-1.969-1.441a2.627,2.627,0,0,0-.519-1.709,1.733,1.733,0,0,0-1.406-.611,1.979,1.979,0,0,0-1.49.642,2.931,2.931,0,0,0-.751,1.679ZM133.7-1.3h-.035V0h-2.039V-13.324h2.039v5.906h.035a3.341,3.341,0,0,1,3.059-1.793A3.22,3.22,0,0,1,139.425-8a5.053,5.053,0,0,1,.962,3.239,5.641,5.641,0,0,1-1.081,3.617A3.571,3.571,0,0,1,136.354.211,2.9,2.9,0,0,1,133.7-1.3Zm-.053-3.577v1.116a2.382,2.382,0,0,0,.628,1.67,2.07,2.07,0,0,0,1.6.686,2.084,2.084,0,0,0,1.78-.883,4.111,4.111,0,0,0,.646-2.465,3.24,3.24,0,0,0-.6-2.079,1.979,1.979,0,0,0-1.63-.751,2.2,2.2,0,0,0-1.753.773,2.865,2.865,0,0,0-.672,1.932Zm16.444.932h-6.135a2.593,2.593,0,0,0,.769,1.925,2.861,2.861,0,0,0,2.017.677,4.448,4.448,0,0,0,2.646-.861V-.562a6.044,6.044,0,0,1-3.252.773,4.026,4.026,0,0,1-3.116-1.226,4.9,4.9,0,0,1-1.129-3.45,4.8,4.8,0,0,1,1.244-3.423,4.068,4.068,0,0,1,3.089-1.323,3.547,3.547,0,0,1,2.856,1.187,4.926,4.926,0,0,1,1.011,3.3Zm-1.969-1.441A2.627,2.627,0,0,0,147.6-7.1a1.733,1.733,0,0,0-1.406-.611,1.979,1.979,0,0,0-1.49.642,2.931,2.931,0,0,0-.751,1.679ZM151.471-.28V-2.17a4.068,4.068,0,0,0,2.522.87q1.846,0,1.846-1.09a.859.859,0,0,0-.158-.523,1.51,1.51,0,0,0-.426-.382,3.351,3.351,0,0,0-.633-.3q-.365-.132-.813-.3a8.607,8.607,0,0,1-1-.466,3.014,3.014,0,0,1-.738-.558,2.107,2.107,0,0,1-.444-.708,2.6,2.6,0,0,1-.149-.923,2.133,2.133,0,0,1,.308-1.147,2.673,2.673,0,0,1,.826-.835,3.962,3.962,0,0,1,1.178-.51,5.392,5.392,0,0,1,1.362-.171,6.193,6.193,0,0,1,2.232.378v1.784a3.763,3.763,0,0,0-2.18-.65,2.847,2.847,0,0,0-.7.079,1.8,1.8,0,0,0-.532.22,1.081,1.081,0,0,0-.343.338.807.807,0,0,0-.123.435.93.93,0,0,0,.123.492,1.118,1.118,0,0,0,.365.356,3.149,3.149,0,0,0,.58.281q.338.127.778.277a11.362,11.362,0,0,1,1.042.483,3.52,3.52,0,0,1,.787.558,2.188,2.188,0,0,1,.5.721,2.447,2.447,0,0,1,.176.971,2.22,2.22,0,0,1-.316,1.2,2.637,2.637,0,0,1-.844.844,3.95,3.95,0,0,1-1.217.5,6.324,6.324,0,0,1-1.455.163,6.129,6.129,0,0,1-2.554-.5ZM164.54-.1a3.534,3.534,0,0,1-1.573.3q-2.619,0-2.619-2.514V-7.4h-1.5V-9h1.5v-2.083l2.039-.58V-9h2.153v1.6h-2.153v4.5a1.773,1.773,0,0,0,.29,1.143,1.2,1.2,0,0,0,.967.343,1.4,1.4,0,0,0,.9-.3Zm6.144-.185v-1.89a4.068,4.068,0,0,0,2.522.87q1.846,0,1.846-1.09a.859.859,0,0,0-.158-.523,1.51,1.51,0,0,0-.426-.382,3.351,3.351,0,0,0-.633-.3q-.365-.132-.813-.3a8.608,8.608,0,0,1-1-.466,3.014,3.014,0,0,1-.738-.558,2.107,2.107,0,0,1-.444-.708,2.6,2.6,0,0,1-.149-.923A2.133,2.133,0,0,1,171-7.695a2.673,2.673,0,0,1,.826-.835A3.962,3.962,0,0,1,173-9.04a5.392,5.392,0,0,1,1.362-.171,6.193,6.193,0,0,1,2.232.378v1.784a3.763,3.763,0,0,0-2.18-.65,2.847,2.847,0,0,0-.7.079,1.8,1.8,0,0,0-.532.22,1.081,1.081,0,0,0-.343.338.807.807,0,0,0-.123.435.93.93,0,0,0,.123.492,1.118,1.118,0,0,0,.365.356,3.15,3.15,0,0,0,.58.281q.338.127.778.277a11.364,11.364,0,0,1,1.042.483,3.52,3.52,0,0,1,.787.558,2.188,2.188,0,0,1,.5.721,2.446,2.446,0,0,1,.176.971,2.22,2.22,0,0,1-.316,1.2,2.637,2.637,0,0,1-.844.844,3.95,3.95,0,0,1-1.217.5,6.324,6.324,0,0,1-1.455.163,6.129,6.129,0,0,1-2.551-.5ZM183,.211a4.461,4.461,0,0,1-3.33-1.261,4.556,4.556,0,0,1-1.244-3.344,4.741,4.741,0,0,1,1.3-3.542A4.767,4.767,0,0,1,183.22-9.21a4.318,4.318,0,0,1,3.28,1.238,4.787,4.787,0,0,1,1.178,3.437,4.717,4.717,0,0,1-1.27,3.45A4.562,4.562,0,0,1,183,.211Zm.1-7.8a2.328,2.328,0,0,0-1.89.835,3.5,3.5,0,0,0-.694,2.3,3.293,3.293,0,0,0,.7,2.228,2.362,2.362,0,0,0,1.881.813,2.241,2.241,0,0,0,1.85-.8,3.54,3.54,0,0,0,.646-2.276,3.594,3.594,0,0,0-.646-2.294,2.23,2.23,0,0,0-1.853-.8ZM191.8,0h-2.048V-13.324H191.8Zm10.5,0h-2.039V-1.424h-.035a2.934,2.934,0,0,1-2.76,1.635q-3.19,0-3.19-3.832V-9h2.039v5.168q0,2.426,1.872,2.426a1.892,1.892,0,0,0,1.49-.668,2.56,2.56,0,0,0,.584-1.749V-9H202.3Zm7.4-.1a3.534,3.534,0,0,1-1.573.3q-2.619,0-2.619-2.514V-7.4h-1.5V-9h1.5v-2.083l2.039-.58V-9H209.7v1.6h-2.153v4.5a1.773,1.773,0,0,0,.29,1.143,1.2,1.2,0,0,0,.967.343,1.4,1.4,0,0,0,.9-.3Zm2.786-10.793a1.226,1.226,0,0,1-.857-.325,1.07,1.07,0,0,1-.356-.826,1.1,1.1,0,0,1,.356-.835,1.208,1.208,0,0,1,.857-.334,1.246,1.246,0,0,1,.879.334,1.091,1.091,0,0,1,.36.835,1.076,1.076,0,0,1-.36.813,1.237,1.237,0,0,1-.872.341ZM213.5,0h-2.039V-9H213.5Zm6.653.211a4.461,4.461,0,0,1-3.327-1.261,4.556,4.556,0,0,1-1.244-3.344,4.741,4.741,0,0,1,1.3-3.542,4.767,4.767,0,0,1,3.494-1.274,4.318,4.318,0,0,1,3.287,1.239,4.787,4.787,0,0,1,1.178,3.437,4.717,4.717,0,0,1-1.27,3.45,4.562,4.562,0,0,1-3.414,1.3Zm.1-7.8a2.328,2.328,0,0,0-1.89.835,3.5,3.5,0,0,0-.694,2.3,3.293,3.293,0,0,0,.7,2.228,2.362,2.362,0,0,0,1.881.813,2.241,2.241,0,0,0,1.85-.8,3.54,3.54,0,0,0,.646-2.276,3.594,3.594,0,0,0-.646-2.294,2.23,2.23,0,0,0-1.846-.8ZM234.932,0h-2.039V-5.071q0-2.522-1.784-2.522a1.948,1.948,0,0,0-1.538.7,2.592,2.592,0,0,0-.606,1.762V0h-2.048V-9h2.048v1.494H229a3.208,3.208,0,0,1,2.918-1.7,2.718,2.718,0,0,1,2.241.954,4.282,4.282,0,0,1,.773,2.755Zm1.925-.281v-1.89a4.068,4.068,0,0,0,2.522.87q1.846,0,1.846-1.09a.859.859,0,0,0-.158-.523,1.51,1.51,0,0,0-.426-.382,3.351,3.351,0,0,0-.633-.3q-.365-.132-.813-.3a8.606,8.606,0,0,1-1-.466,3.014,3.014,0,0,1-.738-.558,2.107,2.107,0,0,1-.444-.708,2.606,2.606,0,0,1-.149-.923,2.133,2.133,0,0,1,.308-1.147A2.673,2.673,0,0,1,238-8.53a3.962,3.962,0,0,1,1.178-.51,5.392,5.392,0,0,1,1.362-.171,6.193,6.193,0,0,1,2.232.378v1.784a3.763,3.763,0,0,0-2.18-.65,2.847,2.847,0,0,0-.7.079,1.8,1.8,0,0,0-.532.22,1.081,1.081,0,0,0-.343.338.807.807,0,0,0-.123.435.93.93,0,0,0,.123.492,1.118,1.118,0,0,0,.365.356,3.15,3.15,0,0,0,.58.281q.338.127.778.277a11.362,11.362,0,0,1,1.042.483,3.52,3.52,0,0,1,.787.558,2.188,2.188,0,0,1,.5.721,2.447,2.447,0,0,1,.176.971,2.22,2.22,0,0,1-.316,1.2,2.637,2.637,0,0,1-.844.844,3.95,3.95,0,0,1-1.217.5,6.324,6.324,0,0,1-1.455.163,6.129,6.129,0,0,1-2.557-.5ZM258.311,4.14h-2.039V-1.547h-.035A3.152,3.152,0,0,1,253.222.211,3.3,3.3,0,0,1,250.554-1a4.987,4.987,0,0,1-1.006-3.292,5.462,5.462,0,0,1,1.1-3.582,3.643,3.643,0,0,1,2.966-1.34,2.769,2.769,0,0,1,2.619,1.459h.035V-9h2.039ZM256.3-4.1V-5.26a2.339,2.339,0,0,0-.628-1.652,2.082,2.082,0,0,0-1.6-.677,2.137,2.137,0,0,0-1.789.848,3.844,3.844,0,0,0-.655,2.4,3.331,3.331,0,0,0,.633,2.153,2.007,2.007,0,0,0,1.635.782,2.179,2.179,0,0,0,1.749-.765A2.867,2.867,0,0,0,256.3-4.1ZM268.822,0h-2.039V-1.424h-.035a2.934,2.934,0,0,1-2.76,1.635q-3.19,0-3.19-3.832V-9h2.039v5.168q0,2.426,1.872,2.426a1.892,1.892,0,0,0,1.49-.668,2.56,2.56,0,0,0,.584-1.749V-9h2.039ZM272.5-10.89a1.226,1.226,0,0,1-.857-.325,1.07,1.07,0,0,1-.356-.826,1.1,1.1,0,0,1,.356-.835,1.208,1.208,0,0,1,.857-.334,1.246,1.246,0,0,1,.879.334,1.091,1.091,0,0,1,.36.835,1.076,1.076,0,0,1-.36.813,1.237,1.237,0,0,1-.879.338ZM273.516,0h-2.039V-9h2.039Zm9.105-.413a5.029,5.029,0,0,1-2.558.624,4.331,4.331,0,0,1-3.234-1.252,4.437,4.437,0,0,1-1.23-3.248,4.883,4.883,0,0,1,1.323-3.573,4.729,4.729,0,0,1,3.538-1.349,5.164,5.164,0,0,1,2.171.431v1.9a3.288,3.288,0,0,0-2-.7,2.785,2.785,0,0,0-2.118.875,3.2,3.2,0,0,0-.826,2.29,3.049,3.049,0,0,0,.778,2.206,2.762,2.762,0,0,0,2.087.809,3.262,3.262,0,0,0,2.074-.782ZM292.808,0h-2.584l-3.5-4.324h-.035V0h-2.048V-13.324h2.048v8.446h.035L290.03-9h2.452l-3.718,4.342Zm3.331,0h-2.048V-13.324h2.048Zm10.45-9L302.528,1.441q-1.266,2.8-3.551,2.8a4.258,4.258,0,0,1-1.072-.114v-1.7a2.852,2.852,0,0,0,.879.158,1.814,1.814,0,0,0,1.7-1.125L301.1-.018,297.519-9h2.259l2.145,6.539q.035.123.158.65h.044q.044-.2.158-.633L304.532-9ZM8.235,24H6.258V22.594H6.223A2.978,2.978,0,0,1,3.49,24.211a2.879,2.879,0,0,1-2.079-.721A2.521,2.521,0,0,1,.66,21.583q0-2.549,2.936-2.971l2.672-.378q0-1.925-1.828-1.925a4.343,4.343,0,0,0-2.9,1.107V15.633a6.325,6.325,0,0,1,3.287-.844q3.41,0,3.41,3.357ZM6.267,19.579l-1.89.264a3,3,0,0,0-1.323.426,1.246,1.246,0,0,0-.444,1.094,1.2,1.2,0,0,0,.409.936,1.583,1.583,0,0,0,1.094.365,2.019,2.019,0,0,0,1.542-.655,2.322,2.322,0,0,0,.611-1.648ZM18.738,24H16.7V18.929q0-2.522-1.784-2.522a1.948,1.948,0,0,0-1.538.7,2.592,2.592,0,0,0-.606,1.762V24H10.723V15h2.048v1.494h.035a3.208,3.208,0,0,1,2.918-1.7,2.718,2.718,0,0,1,2.241.954,4.282,4.282,0,0,1,.773,2.755Zm10.67,0H27.369V22.471h-.035a3.252,3.252,0,0,1-3.032,1.74A3.273,3.273,0,0,1,21.643,23a5.017,5.017,0,0,1-1-3.292,5.465,5.465,0,0,1,1.1-3.577,3.61,3.61,0,0,1,2.94-1.345,2.815,2.815,0,0,1,2.646,1.459h.035V10.676H29.4ZM27.4,19.887V18.709a2.3,2.3,0,0,0-.624-1.626,2.081,2.081,0,0,0-1.591-.668,2.142,2.142,0,0,0-1.8.853,3.8,3.8,0,0,0-.655,2.364,3.4,3.4,0,0,0,.628,2.167,2.044,2.044,0,0,0,1.692.8,2.116,2.116,0,0,0,1.7-.769,2.9,2.9,0,0,0,.65-1.943Zm11.7,2.786h-.035V28.14H37.02V15h2.039v1.582h.035a3.341,3.341,0,0,1,3.059-1.793,3.222,3.222,0,0,1,2.672,1.2,5.05,5.05,0,0,1,.958,3.234,5.607,5.607,0,0,1-1.081,3.6,3.576,3.576,0,0,1-2.953,1.354,2.949,2.949,0,0,1-2.655-1.5Zm-.053-3.551v1.116a2.382,2.382,0,0,0,.628,1.67,2.218,2.218,0,0,0,3.375-.2,4.111,4.111,0,0,0,.646-2.465,3.24,3.24,0,0,0-.6-2.079,1.979,1.979,0,0,0-1.63-.751,2.2,2.2,0,0,0-1.753.773,2.865,2.865,0,0,0-.672,1.936Zm14.045-2.18a1.69,1.69,0,0,0-1.063-.29,1.82,1.82,0,0,0-1.512.817,3.655,3.655,0,0,0-.606,2.224V24H47.865V15H49.9v1.854h.035a3.135,3.135,0,0,1,.918-1.481,2.073,2.073,0,0,1,1.384-.532,1.718,1.718,0,0,1,.844.167Zm5.432,7.269A4.461,4.461,0,0,1,55.2,22.95a4.556,4.556,0,0,1-1.244-3.344,4.741,4.741,0,0,1,1.3-3.542,4.767,4.767,0,0,1,3.494-1.274,4.318,4.318,0,0,1,3.287,1.239A4.787,4.787,0,0,1,63.2,19.465a4.717,4.717,0,0,1-1.27,3.45,4.562,4.562,0,0,1-3.412,1.3Zm.1-7.8a2.328,2.328,0,0,0-1.89.835,3.5,3.5,0,0,0-.694,2.3,3.293,3.293,0,0,0,.7,2.228,2.362,2.362,0,0,0,1.881.813,2.241,2.241,0,0,0,1.85-.8,3.54,3.54,0,0,0,.646-2.276,3.594,3.594,0,0,0-.646-2.294,2.23,2.23,0,0,0-1.857-.8Zm11.751-4.078a1.854,1.854,0,0,0-.94-.237q-1.485,0-1.485,1.679V15h2.092v1.6H67.948V24H65.909V16.6H64.371V15h1.538V13.541a2.841,2.841,0,0,1,.932-2.246,3.393,3.393,0,0,1,2.329-.822,3.459,3.459,0,0,1,1.2.167ZM79.1,20.054H72.967a2.593,2.593,0,0,0,.769,1.925,2.861,2.861,0,0,0,2.017.677A4.448,4.448,0,0,0,78.4,21.8v1.644a6.044,6.044,0,0,1-3.252.773,4.026,4.026,0,0,1-3.116-1.226,4.9,4.9,0,0,1-1.129-3.45,4.8,4.8,0,0,1,1.244-3.423,4.068,4.068,0,0,1,3.089-1.323,3.547,3.547,0,0,1,2.856,1.187,4.926,4.926,0,0,1,1.011,3.3Zm-1.969-1.441a2.627,2.627,0,0,0-.519-1.709,1.733,1.733,0,0,0-1.406-.611,1.979,1.979,0,0,0-1.49.642,2.931,2.931,0,0,0-.751,1.679Zm3.349,5.106v-1.89A4.068,4.068,0,0,0,83,22.7q1.846,0,1.846-1.09a.859.859,0,0,0-.158-.523,1.51,1.51,0,0,0-.426-.382,3.351,3.351,0,0,0-.633-.3q-.365-.132-.813-.3a8.608,8.608,0,0,1-1-.466,3.014,3.014,0,0,1-.738-.558,2.107,2.107,0,0,1-.444-.708,2.6,2.6,0,0,1-.149-.923,2.133,2.133,0,0,1,.308-1.147,2.673,2.673,0,0,1,.826-.835,3.962,3.962,0,0,1,1.178-.51,5.392,5.392,0,0,1,1.362-.171,6.193,6.193,0,0,1,2.232.378v1.784a3.763,3.763,0,0,0-2.18-.65,2.847,2.847,0,0,0-.7.079,1.8,1.8,0,0,0-.532.22,1.081,1.081,0,0,0-.343.338.807.807,0,0,0-.123.435.93.93,0,0,0,.123.492,1.118,1.118,0,0,0,.365.356,3.15,3.15,0,0,0,.58.281q.338.127.778.277a11.365,11.365,0,0,1,1.042.483,3.52,3.52,0,0,1,.787.558,2.188,2.188,0,0,1,.5.721,2.447,2.447,0,0,1,.176.971,2.22,2.22,0,0,1-.316,1.2,2.637,2.637,0,0,1-.844.844,3.95,3.95,0,0,1-1.217.5,6.324,6.324,0,0,1-1.455.163,6.129,6.129,0,0,1-2.551-.5Zm7.761,0v-1.89a4.068,4.068,0,0,0,2.522.87q1.846,0,1.846-1.09a.859.859,0,0,0-.158-.523,1.51,1.51,0,0,0-.426-.382,3.351,3.351,0,0,0-.633-.3q-.365-.132-.813-.3a8.608,8.608,0,0,1-1-.466,3.014,3.014,0,0,1-.738-.558,2.107,2.107,0,0,1-.444-.708,2.605,2.605,0,0,1-.149-.923,2.133,2.133,0,0,1,.308-1.147,2.673,2.673,0,0,1,.826-.835,3.962,3.962,0,0,1,1.178-.51,5.392,5.392,0,0,1,1.362-.171,6.193,6.193,0,0,1,2.232.378v1.784a3.763,3.763,0,0,0-2.18-.65,2.847,2.847,0,0,0-.7.079,1.8,1.8,0,0,0-.532.22,1.081,1.081,0,0,0-.343.338.807.807,0,0,0-.123.435.93.93,0,0,0,.123.492,1.118,1.118,0,0,0,.365.356,3.15,3.15,0,0,0,.58.281q.338.127.778.277a11.363,11.363,0,0,1,1.042.483,3.52,3.52,0,0,1,.787.558,2.188,2.188,0,0,1,.5.721,2.447,2.447,0,0,1,.176.971,2.22,2.22,0,0,1-.316,1.2,2.637,2.637,0,0,1-.844.844,3.95,3.95,0,0,1-1.217.5,6.324,6.324,0,0,1-1.455.163,6.129,6.129,0,0,1-2.553-.5ZM97.594,13.11a1.226,1.226,0,0,1-.857-.325,1.07,1.07,0,0,1-.356-.826,1.1,1.1,0,0,1,.356-.835,1.208,1.208,0,0,1,.857-.334,1.246,1.246,0,0,1,.879.334,1.091,1.091,0,0,1,.36.835,1.076,1.076,0,0,1-.36.813A1.237,1.237,0,0,1,97.594,13.11ZM98.6,24H96.565V15H98.6Zm6.653.211a4.461,4.461,0,0,1-3.327-1.261,4.556,4.556,0,0,1-1.244-3.344,4.741,4.741,0,0,1,1.3-3.542,4.767,4.767,0,0,1,3.494-1.274,4.318,4.318,0,0,1,3.287,1.239,4.787,4.787,0,0,1,1.178,3.437,4.717,4.717,0,0,1-1.27,3.45,4.562,4.562,0,0,1-3.413,1.3Zm.1-7.8a2.328,2.328,0,0,0-1.89.835,3.5,3.5,0,0,0-.694,2.3,3.293,3.293,0,0,0,.7,2.228,2.362,2.362,0,0,0,1.881.813,2.241,2.241,0,0,0,1.85-.8,3.54,3.54,0,0,0,.646-2.276,3.594,3.594,0,0,0-.646-2.294,2.23,2.23,0,0,0-1.846-.8ZM120.032,24h-2.039V18.929q0-2.522-1.784-2.522a1.948,1.948,0,0,0-1.538.7,2.592,2.592,0,0,0-.606,1.762V24h-2.048V15h2.048v1.494h.035a3.208,3.208,0,0,1,2.918-1.7,2.718,2.718,0,0,1,2.241.954,4.282,4.282,0,0,1,.773,2.755Zm9.4,0H127.45V22.594h-.035a2.978,2.978,0,0,1-2.733,1.617,2.879,2.879,0,0,1-2.079-.721,2.521,2.521,0,0,1-.751-1.907q0-2.549,2.936-2.971l2.672-.378q0-1.925-1.828-1.925a4.343,4.343,0,0,0-2.9,1.107V15.633a6.325,6.325,0,0,1,3.287-.844q3.41,0,3.41,3.357Zm-1.969-4.421-1.89.264a3,3,0,0,0-1.323.426,1.246,1.246,0,0,0-.444,1.094,1.2,1.2,0,0,0,.409.936,1.583,1.583,0,0,0,1.094.365,2.019,2.019,0,0,0,1.542-.655,2.322,2.322,0,0,0,.611-1.648Zm6.5,4.421h-2.048V10.676h2.048Zm4.7,0h-2.048V10.676h2.048Zm10.45-9-4.061,10.441q-1.266,2.795-3.551,2.8a4.258,4.258,0,0,1-1.072-.114v-1.7a2.852,2.852,0,0,0,.879.158,1.814,1.814,0,0,0,1.705-1.125l.606-1.477L140.045,15H142.3l2.145,6.539q.035.123.158.65h.044q.044-.2.158-.633L147.059,15Zm13.922,5.054H156.9a2.593,2.593,0,0,0,.769,1.925,2.861,2.861,0,0,0,2.017.677,4.448,4.448,0,0,0,2.646-.861v1.644a6.044,6.044,0,0,1-3.252.773,4.026,4.026,0,0,1-3.116-1.226,4.9,4.9,0,0,1-1.129-3.45,4.8,4.8,0,0,1,1.244-3.423,4.068,4.068,0,0,1,3.089-1.323,3.547,3.547,0,0,1,2.856,1.187,4.926,4.926,0,0,1,1.011,3.3Zm-1.969-1.441a2.627,2.627,0,0,0-.519-1.709,1.733,1.733,0,0,0-1.406-.611,1.979,1.979,0,0,0-1.49.642,2.931,2.931,0,0,0-.751,1.679ZM172.731,15l-3.48,9h-2.206l-3.313-9h2.215l2,6.293a5.867,5.867,0,0,1,.281,1.213h.026a6.512,6.512,0,0,1,.246-1.178L170.587,15Zm9,5.054H175.6a2.593,2.593,0,0,0,.769,1.925,2.861,2.861,0,0,0,2.017.677,4.448,4.448,0,0,0,2.646-.861v1.644a6.044,6.044,0,0,1-3.252.773,4.026,4.026,0,0,1-3.116-1.226,4.9,4.9,0,0,1-1.129-3.45,4.8,4.8,0,0,1,1.244-3.423,4.068,4.068,0,0,1,3.089-1.323,3.547,3.547,0,0,1,2.856,1.187,4.926,4.926,0,0,1,1.011,3.3Zm-1.969-1.441a2.627,2.627,0,0,0-.519-1.709,1.733,1.733,0,0,0-1.406-.611,1.979,1.979,0,0,0-1.49.642,2.931,2.931,0,0,0-.751,1.679Zm9.132-1.67a1.69,1.69,0,0,0-1.063-.29,1.82,1.82,0,0,0-1.512.817,3.655,3.655,0,0,0-.606,2.224V24h-2.039V15h2.039v1.854h.035a3.135,3.135,0,0,1,.918-1.481,2.073,2.073,0,0,1,1.384-.532,1.718,1.718,0,0,1,.844.167ZM198.132,15l-4.061,10.441q-1.266,2.795-3.551,2.8a4.258,4.258,0,0,1-1.072-.114v-1.7a2.852,2.852,0,0,0,.879.158,1.814,1.814,0,0,0,1.7-1.125l.606-1.477L189.062,15h2.259l2.145,6.539q.035.123.158.65h.044q.044-.2.158-.633L196.075,15Zm11.048,8.9a3.534,3.534,0,0,1-1.573.3q-2.619,0-2.619-2.514V16.6h-1.5V15h1.5V12.917l2.039-.58V15h2.153v1.6h-2.153v4.5a1.773,1.773,0,0,0,.29,1.143,1.2,1.2,0,0,0,.967.343,1.4,1.4,0,0,0,.9-.3Zm2.786-10.793a1.226,1.226,0,0,1-.857-.325,1.07,1.07,0,0,1-.356-.826,1.1,1.1,0,0,1,.356-.835,1.208,1.208,0,0,1,.857-.334,1.246,1.246,0,0,1,.879.334,1.091,1.091,0,0,1,.36.835,1.076,1.076,0,0,1-.36.813,1.237,1.237,0,0,1-.879.341ZM212.977,24h-2.039V15h2.039ZM229.1,24h-2.039V19.1a3.975,3.975,0,0,0-.4-2.048,1.471,1.471,0,0,0-1.349-.633,1.626,1.626,0,0,0-1.358.8,3.263,3.263,0,0,0-.558,1.916V24h-2.048V18.929q0-2.514-1.775-2.514a1.6,1.6,0,0,0-1.358.756,3.333,3.333,0,0,0-.532,1.96V24H215.64V15h2.039v1.424h.035a3.118,3.118,0,0,1,2.839-1.635,2.677,2.677,0,0,1,1.63.514,2.561,2.561,0,0,1,.954,1.349,3.212,3.212,0,0,1,2.988-1.863q2.971,0,2.971,3.665Zm10.1-3.946h-6.135a2.593,2.593,0,0,0,.769,1.925,2.861,2.861,0,0,0,2.017.677A4.448,4.448,0,0,0,238.5,21.8v1.644a6.044,6.044,0,0,1-3.252.773,4.026,4.026,0,0,1-3.116-1.226A4.9,4.9,0,0,1,231,19.535a4.8,4.8,0,0,1,1.244-3.423,4.068,4.068,0,0,1,3.089-1.323,3.547,3.547,0,0,1,2.856,1.187,4.926,4.926,0,0,1,1.011,3.3Zm-1.969-1.441a2.627,2.627,0,0,0-.519-1.709,1.733,1.733,0,0,0-1.406-.611,1.979,1.979,0,0,0-1.49.642,2.931,2.931,0,0,0-.751,1.679Zm4.755,5.581a1.261,1.261,0,0,1-.9-.347,1.1,1.1,0,0,1-.369-.831,1.124,1.124,0,0,1,.369-.844,1.252,1.252,0,0,1,.9-.352,1.278,1.278,0,0,1,.91.352,1.118,1.118,0,0,1,.374.844,1.1,1.1,0,0,1-.374.831,1.287,1.287,0,0,1-.907.346Z" transform="translate(27 92.35)" fill="#333"/><path d="M52.175,122.8H38.029L0,61.4,38.029,0H52.207L15.157,61.425,52.177,122.8Z" transform="translate(495 138.775) rotate(180)" opacity="0" fill="url(#e)"/></g></svg>