<svg xmlns="http://www.w3.org/2000/svg" width="86.886" height="77.376" viewBox="0 0 86.886 77.376">
  <g id="react-2" transform="translate(0)">
    <path id="Path_2751" data-name="Path 2751" d="M262.586,116.7c0-5.756-7.208-11.211-18.259-14.593,2.55-11.264,1.417-20.225-3.577-23.094a7.765,7.765,0,0,0-3.967-.992v3.949a4.1,4.1,0,0,1,2.019.46c2.409,1.381,3.453,6.641,2.639,13.407-.195,1.665-.514,3.418-.9,5.207a85.825,85.825,0,0,0-11.246-1.93,86.4,86.4,0,0,0-7.367-8.855c5.773-5.366,11.193-8.306,14.877-8.306V78c-4.87,0-11.246,3.471-17.692,9.493-6.446-5.986-12.822-9.422-17.692-9.422V82.02c3.666,0,9.1,2.922,14.877,8.253a83.648,83.648,0,0,0-7.314,8.837,82.7,82.7,0,0,0-11.264,1.948c-.407-1.771-.708-3.489-.921-5.136-.832-6.765.195-12.025,2.586-13.424a3.941,3.941,0,0,1,2.037-.46V78.089a7.9,7.9,0,0,0-4,.992c-4.977,2.869-6.092,11.813-3.524,23.041-11.016,3.4-18.188,8.837-18.188,14.575,0,5.756,7.208,11.211,18.259,14.593-2.55,11.264-1.417,20.225,3.577,23.094a7.785,7.785,0,0,0,3.985.992c4.87,0,11.246-3.471,17.692-9.493,6.447,5.986,12.822,9.422,17.692,9.422a7.9,7.9,0,0,0,4-.992c4.977-2.869,6.092-11.813,3.524-23.041,10.98-3.383,18.153-8.837,18.153-14.575Zm-23.059-11.813c-.655,2.285-1.47,4.64-2.391,7-.726-1.417-1.488-2.834-2.32-4.25-.815-1.417-1.682-2.8-2.55-4.144C234.781,103.857,237.207,104.317,239.527,104.884Zm-8.111,18.861c-1.381,2.391-2.8,4.658-4.268,6.765-2.639.23-5.313.354-8.005.354-2.674,0-5.348-.124-7.97-.336q-2.2-3.161-4.286-6.73-2.019-3.48-3.684-7.049c1.1-2.373,2.338-4.746,3.666-7.066,1.381-2.391,2.8-4.658,4.268-6.765,2.639-.23,5.313-.354,8.005-.354,2.674,0,5.348.124,7.97.337q2.2,3.161,4.286,6.73,2.019,3.48,3.684,7.049C233.966,119.052,232.745,121.425,231.416,123.745Zm5.72-2.3c.956,2.373,1.771,4.746,2.444,7.049-2.32.567-4.764,1.045-7.3,1.417.868-1.364,1.736-2.763,2.55-4.2.815-1.417,1.576-2.851,2.3-4.268Zm-17.958,18.9a73.014,73.014,0,0,1-4.923-5.667c1.594.071,3.223.124,4.87.124,1.665,0,3.312-.035,4.923-.124A69.127,69.127,0,0,1,219.179,140.34ZM206,129.908c-2.515-.372-4.941-.832-7.261-1.4.655-2.285,1.47-4.64,2.391-7,.726,1.417,1.488,2.834,2.32,4.25S205.134,128.563,206,129.908ZM219.09,93.054a73,73,0,0,1,4.923,5.667c-1.594-.071-3.223-.124-4.87-.124-1.665,0-3.312.035-4.923.124A69.132,69.132,0,0,1,219.09,93.054Zm-13.105,10.431c-.868,1.364-1.736,2.763-2.55,4.2-.815,1.417-1.576,2.834-2.3,4.25-.956-2.373-1.771-4.746-2.444-7.049C201.008,104.335,203.452,103.857,205.984,103.485Zm-16.028,22.173c-6.269-2.674-10.325-6.181-10.325-8.961s4.056-6.3,10.325-8.961c1.523-.655,3.188-1.24,4.906-1.789a85.063,85.063,0,0,0,3.985,10.785,83.859,83.859,0,0,0-3.932,10.732c-1.753-.549-3.418-1.151-4.959-1.806Zm9.528,25.308c-2.409-1.381-3.453-6.641-2.639-13.407.195-1.665.514-3.418.9-5.207A85.828,85.828,0,0,0,209,134.283a86.392,86.392,0,0,0,7.367,8.855c-5.774,5.366-11.193,8.306-14.877,8.306A4.226,4.226,0,0,1,199.485,150.966Zm42.008-13.5c.832,6.765-.195,12.025-2.586,13.424a3.942,3.942,0,0,1-2.037.46c-3.666,0-9.1-2.922-14.877-8.253a83.653,83.653,0,0,0,7.314-8.837,82.7,82.7,0,0,0,11.264-1.948A49.578,49.578,0,0,1,241.493,137.471Zm6.818-11.813c-1.523.655-3.188,1.24-4.906,1.789a85.063,85.063,0,0,0-3.985-10.785,83.855,83.855,0,0,0,3.932-10.732c1.753.549,3.418,1.151,4.977,1.806,6.269,2.674,10.325,6.181,10.325,8.961C258.637,119.477,254.581,123,248.312,125.658Z" transform="translate(-175.7 -78)" fill="#61dafb"/>
    <circle id="Ellipse_166" data-name="Ellipse 166" cx="8.094" cy="8.094" r="8.094" transform="translate(35.332 30.603)" fill="#61dafb"/>
  </g>
</svg>
