<svg xmlns="http://www.w3.org/2000/svg" xmlns:xlink="http://www.w3.org/1999/xlink" width="138" height="133" viewBox="0 0 138 133">
  <defs>
    <clipPath id="clip-path">
      <rect width="138" height="133" fill="none"/>
    </clipPath>
  </defs>
  <g id="Repeat_Grid_8" data-name="Repeat Grid 8" clip-path="url(#clip-path)">
    <g transform="translate(-498 -580.807)">
      <circle id="Ellipse_308" data-name="Ellipse 308" cx="2" cy="2" r="2" transform="translate(498 580.807)" fill="#419aff"/>
    </g>
    <g transform="translate(-486 -580.807)">
      <circle id="Ellipse_308-2" data-name="Ellipse 308" cx="2" cy="2" r="2" transform="translate(498 580.807)" fill="#419aff"/>
    </g>
    <g transform="translate(-474 -580.807)">
      <circle id="Ellipse_308-3" data-name="Ellipse 308" cx="2" cy="2" r="2" transform="translate(498 580.807)" fill="#419aff"/>
    </g>
    <g transform="translate(-462 -580.807)">
      <circle id="Ellipse_308-4" data-name="Ellipse 308" cx="2" cy="2" r="2" transform="translate(498 580.807)" fill="#419aff"/>
    </g>
    <g transform="translate(-450 -580.807)">
      <circle id="Ellipse_308-5" data-name="Ellipse 308" cx="2" cy="2" r="2" transform="translate(498 580.807)" fill="#419aff"/>
    </g>
    <g transform="translate(-438 -580.807)">
      <circle id="Ellipse_308-6" data-name="Ellipse 308" cx="2" cy="2" r="2" transform="translate(498 580.807)" fill="#419aff"/>
    </g>
    <g transform="translate(-426 -580.807)">
      <circle id="Ellipse_308-7" data-name="Ellipse 308" cx="2" cy="2" r="2" transform="translate(498 580.807)" fill="#419aff"/>
    </g>
    <g transform="translate(-414 -580.807)">
      <circle id="Ellipse_308-8" data-name="Ellipse 308" cx="2" cy="2" r="2" transform="translate(498 580.807)" fill="#419aff"/>
    </g>
    <g transform="translate(-402 -580.807)">
      <circle id="Ellipse_308-9" data-name="Ellipse 308" cx="2" cy="2" r="2" transform="translate(498 580.807)" fill="#419aff"/>
    </g>
    <g transform="translate(-390 -580.807)">
      <circle id="Ellipse_308-10" data-name="Ellipse 308" cx="2" cy="2" r="2" transform="translate(498 580.807)" fill="#419aff"/>
    </g>
    <g transform="translate(-378 -580.807)">
      <circle id="Ellipse_308-11" data-name="Ellipse 308" cx="2" cy="2" r="2" transform="translate(498 580.807)" fill="#419aff"/>
    </g>
    <g transform="translate(-366 -580.807)">
      <circle id="Ellipse_308-12" data-name="Ellipse 308" cx="2" cy="2" r="2" transform="translate(498 580.807)" fill="#419aff"/>
    </g>
    <g transform="translate(-498 -568.807)">
      <circle id="Ellipse_308-13" data-name="Ellipse 308" cx="2" cy="2" r="2" transform="translate(498 580.807)" fill="#419aff"/>
    </g>
    <g transform="translate(-486 -568.807)">
      <circle id="Ellipse_308-14" data-name="Ellipse 308" cx="2" cy="2" r="2" transform="translate(498 580.807)" fill="#419aff"/>
    </g>
    <g transform="translate(-474 -568.807)">
      <circle id="Ellipse_308-15" data-name="Ellipse 308" cx="2" cy="2" r="2" transform="translate(498 580.807)" fill="#419aff"/>
    </g>
    <g transform="translate(-462 -568.807)">
      <circle id="Ellipse_308-16" data-name="Ellipse 308" cx="2" cy="2" r="2" transform="translate(498 580.807)" fill="#419aff"/>
    </g>
    <g transform="translate(-450 -568.807)">
      <circle id="Ellipse_308-17" data-name="Ellipse 308" cx="2" cy="2" r="2" transform="translate(498 580.807)" fill="#419aff"/>
    </g>
    <g transform="translate(-438 -568.807)">
      <circle id="Ellipse_308-18" data-name="Ellipse 308" cx="2" cy="2" r="2" transform="translate(498 580.807)" fill="#419aff"/>
    </g>
    <g transform="translate(-426 -568.807)">
      <circle id="Ellipse_308-19" data-name="Ellipse 308" cx="2" cy="2" r="2" transform="translate(498 580.807)" fill="#419aff"/>
    </g>
    <g transform="translate(-414 -568.807)">
      <circle id="Ellipse_308-20" data-name="Ellipse 308" cx="2" cy="2" r="2" transform="translate(498 580.807)" fill="#419aff"/>
    </g>
    <g transform="translate(-402 -568.807)">
      <circle id="Ellipse_308-21" data-name="Ellipse 308" cx="2" cy="2" r="2" transform="translate(498 580.807)" fill="#419aff"/>
    </g>
    <g transform="translate(-390 -568.807)">
      <circle id="Ellipse_308-22" data-name="Ellipse 308" cx="2" cy="2" r="2" transform="translate(498 580.807)" fill="#419aff"/>
    </g>
    <g transform="translate(-378 -568.807)">
      <circle id="Ellipse_308-23" data-name="Ellipse 308" cx="2" cy="2" r="2" transform="translate(498 580.807)" fill="#419aff"/>
    </g>
    <g transform="translate(-366 -568.807)">
      <circle id="Ellipse_308-24" data-name="Ellipse 308" cx="2" cy="2" r="2" transform="translate(498 580.807)" fill="#419aff"/>
    </g>
    <g transform="translate(-498 -556.807)">
      <circle id="Ellipse_308-25" data-name="Ellipse 308" cx="2" cy="2" r="2" transform="translate(498 580.807)" fill="#419aff"/>
    </g>
    <g transform="translate(-486 -556.807)">
      <circle id="Ellipse_308-26" data-name="Ellipse 308" cx="2" cy="2" r="2" transform="translate(498 580.807)" fill="#419aff"/>
    </g>
    <g transform="translate(-474 -556.807)">
      <circle id="Ellipse_308-27" data-name="Ellipse 308" cx="2" cy="2" r="2" transform="translate(498 580.807)" fill="#419aff"/>
    </g>
    <g transform="translate(-462 -556.807)">
      <circle id="Ellipse_308-28" data-name="Ellipse 308" cx="2" cy="2" r="2" transform="translate(498 580.807)" fill="#419aff"/>
    </g>
    <g transform="translate(-450 -556.807)">
      <circle id="Ellipse_308-29" data-name="Ellipse 308" cx="2" cy="2" r="2" transform="translate(498 580.807)" fill="#419aff"/>
    </g>
    <g transform="translate(-438 -556.807)">
      <circle id="Ellipse_308-30" data-name="Ellipse 308" cx="2" cy="2" r="2" transform="translate(498 580.807)" fill="#419aff"/>
    </g>
    <g transform="translate(-426 -556.807)">
      <circle id="Ellipse_308-31" data-name="Ellipse 308" cx="2" cy="2" r="2" transform="translate(498 580.807)" fill="#419aff"/>
    </g>
    <g transform="translate(-414 -556.807)">
      <circle id="Ellipse_308-32" data-name="Ellipse 308" cx="2" cy="2" r="2" transform="translate(498 580.807)" fill="#419aff"/>
    </g>
    <g transform="translate(-402 -556.807)">
      <circle id="Ellipse_308-33" data-name="Ellipse 308" cx="2" cy="2" r="2" transform="translate(498 580.807)" fill="#419aff"/>
    </g>
    <g transform="translate(-390 -556.807)">
      <circle id="Ellipse_308-34" data-name="Ellipse 308" cx="2" cy="2" r="2" transform="translate(498 580.807)" fill="#419aff"/>
    </g>
    <g transform="translate(-378 -556.807)">
      <circle id="Ellipse_308-35" data-name="Ellipse 308" cx="2" cy="2" r="2" transform="translate(498 580.807)" fill="#419aff"/>
    </g>
    <g transform="translate(-366 -556.807)">
      <circle id="Ellipse_308-36" data-name="Ellipse 308" cx="2" cy="2" r="2" transform="translate(498 580.807)" fill="#419aff"/>
    </g>
    <g transform="translate(-498 -544.807)">
      <circle id="Ellipse_308-37" data-name="Ellipse 308" cx="2" cy="2" r="2" transform="translate(498 580.807)" fill="#419aff"/>
    </g>
    <g transform="translate(-486 -544.807)">
      <circle id="Ellipse_308-38" data-name="Ellipse 308" cx="2" cy="2" r="2" transform="translate(498 580.807)" fill="#419aff"/>
    </g>
    <g transform="translate(-474 -544.807)">
      <circle id="Ellipse_308-39" data-name="Ellipse 308" cx="2" cy="2" r="2" transform="translate(498 580.807)" fill="#419aff"/>
    </g>
    <g transform="translate(-462 -544.807)">
      <circle id="Ellipse_308-40" data-name="Ellipse 308" cx="2" cy="2" r="2" transform="translate(498 580.807)" fill="#419aff"/>
    </g>
    <g transform="translate(-450 -544.807)">
      <circle id="Ellipse_308-41" data-name="Ellipse 308" cx="2" cy="2" r="2" transform="translate(498 580.807)" fill="#419aff"/>
    </g>
    <g transform="translate(-438 -544.807)">
      <circle id="Ellipse_308-42" data-name="Ellipse 308" cx="2" cy="2" r="2" transform="translate(498 580.807)" fill="#419aff"/>
    </g>
    <g transform="translate(-426 -544.807)">
      <circle id="Ellipse_308-43" data-name="Ellipse 308" cx="2" cy="2" r="2" transform="translate(498 580.807)" fill="#419aff"/>
    </g>
    <g transform="translate(-414 -544.807)">
      <circle id="Ellipse_308-44" data-name="Ellipse 308" cx="2" cy="2" r="2" transform="translate(498 580.807)" fill="#419aff"/>
    </g>
    <g transform="translate(-402 -544.807)">
      <circle id="Ellipse_308-45" data-name="Ellipse 308" cx="2" cy="2" r="2" transform="translate(498 580.807)" fill="#419aff"/>
    </g>
    <g transform="translate(-390 -544.807)">
      <circle id="Ellipse_308-46" data-name="Ellipse 308" cx="2" cy="2" r="2" transform="translate(498 580.807)" fill="#419aff"/>
    </g>
    <g transform="translate(-378 -544.807)">
      <circle id="Ellipse_308-47" data-name="Ellipse 308" cx="2" cy="2" r="2" transform="translate(498 580.807)" fill="#419aff"/>
    </g>
    <g transform="translate(-366 -544.807)">
      <circle id="Ellipse_308-48" data-name="Ellipse 308" cx="2" cy="2" r="2" transform="translate(498 580.807)" fill="#419aff"/>
    </g>
    <g transform="translate(-498 -532.807)">
      <circle id="Ellipse_308-49" data-name="Ellipse 308" cx="2" cy="2" r="2" transform="translate(498 580.807)" fill="#419aff"/>
    </g>
    <g transform="translate(-486 -532.807)">
      <circle id="Ellipse_308-50" data-name="Ellipse 308" cx="2" cy="2" r="2" transform="translate(498 580.807)" fill="#419aff"/>
    </g>
    <g transform="translate(-474 -532.807)">
      <circle id="Ellipse_308-51" data-name="Ellipse 308" cx="2" cy="2" r="2" transform="translate(498 580.807)" fill="#419aff"/>
    </g>
    <g transform="translate(-462 -532.807)">
      <circle id="Ellipse_308-52" data-name="Ellipse 308" cx="2" cy="2" r="2" transform="translate(498 580.807)" fill="#419aff"/>
    </g>
    <g transform="translate(-450 -532.807)">
      <circle id="Ellipse_308-53" data-name="Ellipse 308" cx="2" cy="2" r="2" transform="translate(498 580.807)" fill="#419aff"/>
    </g>
    <g transform="translate(-438 -532.807)">
      <circle id="Ellipse_308-54" data-name="Ellipse 308" cx="2" cy="2" r="2" transform="translate(498 580.807)" fill="#419aff"/>
    </g>
    <g transform="translate(-426 -532.807)">
      <circle id="Ellipse_308-55" data-name="Ellipse 308" cx="2" cy="2" r="2" transform="translate(498 580.807)" fill="#419aff"/>
    </g>
    <g transform="translate(-414 -532.807)">
      <circle id="Ellipse_308-56" data-name="Ellipse 308" cx="2" cy="2" r="2" transform="translate(498 580.807)" fill="#419aff"/>
    </g>
    <g transform="translate(-402 -532.807)">
      <circle id="Ellipse_308-57" data-name="Ellipse 308" cx="2" cy="2" r="2" transform="translate(498 580.807)" fill="#419aff"/>
    </g>
    <g transform="translate(-390 -532.807)">
      <circle id="Ellipse_308-58" data-name="Ellipse 308" cx="2" cy="2" r="2" transform="translate(498 580.807)" fill="#419aff"/>
    </g>
    <g transform="translate(-378 -532.807)">
      <circle id="Ellipse_308-59" data-name="Ellipse 308" cx="2" cy="2" r="2" transform="translate(498 580.807)" fill="#419aff"/>
    </g>
    <g transform="translate(-366 -532.807)">
      <circle id="Ellipse_308-60" data-name="Ellipse 308" cx="2" cy="2" r="2" transform="translate(498 580.807)" fill="#419aff"/>
    </g>
    <g transform="translate(-498 -520.807)">
      <circle id="Ellipse_308-61" data-name="Ellipse 308" cx="2" cy="2" r="2" transform="translate(498 580.807)" fill="#419aff"/>
    </g>
    <g transform="translate(-486 -520.807)">
      <circle id="Ellipse_308-62" data-name="Ellipse 308" cx="2" cy="2" r="2" transform="translate(498 580.807)" fill="#419aff"/>
    </g>
    <g transform="translate(-474 -520.807)">
      <circle id="Ellipse_308-63" data-name="Ellipse 308" cx="2" cy="2" r="2" transform="translate(498 580.807)" fill="#419aff"/>
    </g>
    <g transform="translate(-462 -520.807)">
      <circle id="Ellipse_308-64" data-name="Ellipse 308" cx="2" cy="2" r="2" transform="translate(498 580.807)" fill="#419aff"/>
    </g>
    <g transform="translate(-450 -520.807)">
      <circle id="Ellipse_308-65" data-name="Ellipse 308" cx="2" cy="2" r="2" transform="translate(498 580.807)" fill="#419aff"/>
    </g>
    <g transform="translate(-438 -520.807)">
      <circle id="Ellipse_308-66" data-name="Ellipse 308" cx="2" cy="2" r="2" transform="translate(498 580.807)" fill="#419aff"/>
    </g>
    <g transform="translate(-426 -520.807)">
      <circle id="Ellipse_308-67" data-name="Ellipse 308" cx="2" cy="2" r="2" transform="translate(498 580.807)" fill="#419aff"/>
    </g>
    <g transform="translate(-414 -520.807)">
      <circle id="Ellipse_308-68" data-name="Ellipse 308" cx="2" cy="2" r="2" transform="translate(498 580.807)" fill="#419aff"/>
    </g>
    <g transform="translate(-402 -520.807)">
      <circle id="Ellipse_308-69" data-name="Ellipse 308" cx="2" cy="2" r="2" transform="translate(498 580.807)" fill="#419aff"/>
    </g>
    <g transform="translate(-390 -520.807)">
      <circle id="Ellipse_308-70" data-name="Ellipse 308" cx="2" cy="2" r="2" transform="translate(498 580.807)" fill="#419aff"/>
    </g>
    <g transform="translate(-378 -520.807)">
      <circle id="Ellipse_308-71" data-name="Ellipse 308" cx="2" cy="2" r="2" transform="translate(498 580.807)" fill="#419aff"/>
    </g>
    <g transform="translate(-366 -520.807)">
      <circle id="Ellipse_308-72" data-name="Ellipse 308" cx="2" cy="2" r="2" transform="translate(498 580.807)" fill="#419aff"/>
    </g>
    <g transform="translate(-498 -508.807)">
      <circle id="Ellipse_308-73" data-name="Ellipse 308" cx="2" cy="2" r="2" transform="translate(498 580.807)" fill="#419aff"/>
    </g>
    <g transform="translate(-486 -508.807)">
      <circle id="Ellipse_308-74" data-name="Ellipse 308" cx="2" cy="2" r="2" transform="translate(498 580.807)" fill="#419aff"/>
    </g>
    <g transform="translate(-474 -508.807)">
      <circle id="Ellipse_308-75" data-name="Ellipse 308" cx="2" cy="2" r="2" transform="translate(498 580.807)" fill="#419aff"/>
    </g>
    <g transform="translate(-462 -508.807)">
      <circle id="Ellipse_308-76" data-name="Ellipse 308" cx="2" cy="2" r="2" transform="translate(498 580.807)" fill="#419aff"/>
    </g>
    <g transform="translate(-450 -508.807)">
      <circle id="Ellipse_308-77" data-name="Ellipse 308" cx="2" cy="2" r="2" transform="translate(498 580.807)" fill="#419aff"/>
    </g>
    <g transform="translate(-438 -508.807)">
      <circle id="Ellipse_308-78" data-name="Ellipse 308" cx="2" cy="2" r="2" transform="translate(498 580.807)" fill="#419aff"/>
    </g>
    <g transform="translate(-426 -508.807)">
      <circle id="Ellipse_308-79" data-name="Ellipse 308" cx="2" cy="2" r="2" transform="translate(498 580.807)" fill="#419aff"/>
    </g>
    <g transform="translate(-414 -508.807)">
      <circle id="Ellipse_308-80" data-name="Ellipse 308" cx="2" cy="2" r="2" transform="translate(498 580.807)" fill="#419aff"/>
    </g>
    <g transform="translate(-402 -508.807)">
      <circle id="Ellipse_308-81" data-name="Ellipse 308" cx="2" cy="2" r="2" transform="translate(498 580.807)" fill="#419aff"/>
    </g>
    <g transform="translate(-390 -508.807)">
      <circle id="Ellipse_308-82" data-name="Ellipse 308" cx="2" cy="2" r="2" transform="translate(498 580.807)" fill="#419aff"/>
    </g>
    <g transform="translate(-378 -508.807)">
      <circle id="Ellipse_308-83" data-name="Ellipse 308" cx="2" cy="2" r="2" transform="translate(498 580.807)" fill="#419aff"/>
    </g>
    <g transform="translate(-366 -508.807)">
      <circle id="Ellipse_308-84" data-name="Ellipse 308" cx="2" cy="2" r="2" transform="translate(498 580.807)" fill="#419aff"/>
    </g>
    <g transform="translate(-498 -496.807)">
      <circle id="Ellipse_308-85" data-name="Ellipse 308" cx="2" cy="2" r="2" transform="translate(498 580.807)" fill="#419aff"/>
    </g>
    <g transform="translate(-486 -496.807)">
      <circle id="Ellipse_308-86" data-name="Ellipse 308" cx="2" cy="2" r="2" transform="translate(498 580.807)" fill="#419aff"/>
    </g>
    <g transform="translate(-474 -496.807)">
      <circle id="Ellipse_308-87" data-name="Ellipse 308" cx="2" cy="2" r="2" transform="translate(498 580.807)" fill="#419aff"/>
    </g>
    <g transform="translate(-462 -496.807)">
      <circle id="Ellipse_308-88" data-name="Ellipse 308" cx="2" cy="2" r="2" transform="translate(498 580.807)" fill="#419aff"/>
    </g>
    <g transform="translate(-450 -496.807)">
      <circle id="Ellipse_308-89" data-name="Ellipse 308" cx="2" cy="2" r="2" transform="translate(498 580.807)" fill="#419aff"/>
    </g>
    <g transform="translate(-438 -496.807)">
      <circle id="Ellipse_308-90" data-name="Ellipse 308" cx="2" cy="2" r="2" transform="translate(498 580.807)" fill="#419aff"/>
    </g>
    <g transform="translate(-426 -496.807)">
      <circle id="Ellipse_308-91" data-name="Ellipse 308" cx="2" cy="2" r="2" transform="translate(498 580.807)" fill="#419aff"/>
    </g>
    <g transform="translate(-414 -496.807)">
      <circle id="Ellipse_308-92" data-name="Ellipse 308" cx="2" cy="2" r="2" transform="translate(498 580.807)" fill="#419aff"/>
    </g>
    <g transform="translate(-402 -496.807)">
      <circle id="Ellipse_308-93" data-name="Ellipse 308" cx="2" cy="2" r="2" transform="translate(498 580.807)" fill="#419aff"/>
    </g>
    <g transform="translate(-390 -496.807)">
      <circle id="Ellipse_308-94" data-name="Ellipse 308" cx="2" cy="2" r="2" transform="translate(498 580.807)" fill="#419aff"/>
    </g>
    <g transform="translate(-378 -496.807)">
      <circle id="Ellipse_308-95" data-name="Ellipse 308" cx="2" cy="2" r="2" transform="translate(498 580.807)" fill="#419aff"/>
    </g>
    <g transform="translate(-366 -496.807)">
      <circle id="Ellipse_308-96" data-name="Ellipse 308" cx="2" cy="2" r="2" transform="translate(498 580.807)" fill="#419aff"/>
    </g>
    <g transform="translate(-498 -484.807)">
      <circle id="Ellipse_308-97" data-name="Ellipse 308" cx="2" cy="2" r="2" transform="translate(498 580.807)" fill="#419aff"/>
    </g>
    <g transform="translate(-486 -484.807)">
      <circle id="Ellipse_308-98" data-name="Ellipse 308" cx="2" cy="2" r="2" transform="translate(498 580.807)" fill="#419aff"/>
    </g>
    <g transform="translate(-474 -484.807)">
      <circle id="Ellipse_308-99" data-name="Ellipse 308" cx="2" cy="2" r="2" transform="translate(498 580.807)" fill="#419aff"/>
    </g>
    <g transform="translate(-462 -484.807)">
      <circle id="Ellipse_308-100" data-name="Ellipse 308" cx="2" cy="2" r="2" transform="translate(498 580.807)" fill="#419aff"/>
    </g>
    <g transform="translate(-450 -484.807)">
      <circle id="Ellipse_308-101" data-name="Ellipse 308" cx="2" cy="2" r="2" transform="translate(498 580.807)" fill="#419aff"/>
    </g>
    <g transform="translate(-438 -484.807)">
      <circle id="Ellipse_308-102" data-name="Ellipse 308" cx="2" cy="2" r="2" transform="translate(498 580.807)" fill="#419aff"/>
    </g>
    <g transform="translate(-426 -484.807)">
      <circle id="Ellipse_308-103" data-name="Ellipse 308" cx="2" cy="2" r="2" transform="translate(498 580.807)" fill="#419aff"/>
    </g>
    <g transform="translate(-414 -484.807)">
      <circle id="Ellipse_308-104" data-name="Ellipse 308" cx="2" cy="2" r="2" transform="translate(498 580.807)" fill="#419aff"/>
    </g>
    <g transform="translate(-402 -484.807)">
      <circle id="Ellipse_308-105" data-name="Ellipse 308" cx="2" cy="2" r="2" transform="translate(498 580.807)" fill="#419aff"/>
    </g>
    <g transform="translate(-390 -484.807)">
      <circle id="Ellipse_308-106" data-name="Ellipse 308" cx="2" cy="2" r="2" transform="translate(498 580.807)" fill="#419aff"/>
    </g>
    <g transform="translate(-378 -484.807)">
      <circle id="Ellipse_308-107" data-name="Ellipse 308" cx="2" cy="2" r="2" transform="translate(498 580.807)" fill="#419aff"/>
    </g>
    <g transform="translate(-366 -484.807)">
      <circle id="Ellipse_308-108" data-name="Ellipse 308" cx="2" cy="2" r="2" transform="translate(498 580.807)" fill="#419aff"/>
    </g>
    <g transform="translate(-498 -472.807)">
      <circle id="Ellipse_308-109" data-name="Ellipse 308" cx="2" cy="2" r="2" transform="translate(498 580.807)" fill="#419aff"/>
    </g>
    <g transform="translate(-486 -472.807)">
      <circle id="Ellipse_308-110" data-name="Ellipse 308" cx="2" cy="2" r="2" transform="translate(498 580.807)" fill="#419aff"/>
    </g>
    <g transform="translate(-474 -472.807)">
      <circle id="Ellipse_308-111" data-name="Ellipse 308" cx="2" cy="2" r="2" transform="translate(498 580.807)" fill="#419aff"/>
    </g>
    <g transform="translate(-462 -472.807)">
      <circle id="Ellipse_308-112" data-name="Ellipse 308" cx="2" cy="2" r="2" transform="translate(498 580.807)" fill="#419aff"/>
    </g>
    <g transform="translate(-450 -472.807)">
      <circle id="Ellipse_308-113" data-name="Ellipse 308" cx="2" cy="2" r="2" transform="translate(498 580.807)" fill="#419aff"/>
    </g>
    <g transform="translate(-438 -472.807)">
      <circle id="Ellipse_308-114" data-name="Ellipse 308" cx="2" cy="2" r="2" transform="translate(498 580.807)" fill="#419aff"/>
    </g>
    <g transform="translate(-426 -472.807)">
      <circle id="Ellipse_308-115" data-name="Ellipse 308" cx="2" cy="2" r="2" transform="translate(498 580.807)" fill="#419aff"/>
    </g>
    <g transform="translate(-414 -472.807)">
      <circle id="Ellipse_308-116" data-name="Ellipse 308" cx="2" cy="2" r="2" transform="translate(498 580.807)" fill="#419aff"/>
    </g>
    <g transform="translate(-402 -472.807)">
      <circle id="Ellipse_308-117" data-name="Ellipse 308" cx="2" cy="2" r="2" transform="translate(498 580.807)" fill="#419aff"/>
    </g>
    <g transform="translate(-390 -472.807)">
      <circle id="Ellipse_308-118" data-name="Ellipse 308" cx="2" cy="2" r="2" transform="translate(498 580.807)" fill="#419aff"/>
    </g>
    <g transform="translate(-378 -472.807)">
      <circle id="Ellipse_308-119" data-name="Ellipse 308" cx="2" cy="2" r="2" transform="translate(498 580.807)" fill="#419aff"/>
    </g>
    <g transform="translate(-366 -472.807)">
      <circle id="Ellipse_308-120" data-name="Ellipse 308" cx="2" cy="2" r="2" transform="translate(498 580.807)" fill="#419aff"/>
    </g>
    <g transform="translate(-498 -460.807)">
      <circle id="Ellipse_308-121" data-name="Ellipse 308" cx="2" cy="2" r="2" transform="translate(498 580.807)" fill="#419aff"/>
    </g>
    <g transform="translate(-486 -460.807)">
      <circle id="Ellipse_308-122" data-name="Ellipse 308" cx="2" cy="2" r="2" transform="translate(498 580.807)" fill="#419aff"/>
    </g>
    <g transform="translate(-474 -460.807)">
      <circle id="Ellipse_308-123" data-name="Ellipse 308" cx="2" cy="2" r="2" transform="translate(498 580.807)" fill="#419aff"/>
    </g>
    <g transform="translate(-462 -460.807)">
      <circle id="Ellipse_308-124" data-name="Ellipse 308" cx="2" cy="2" r="2" transform="translate(498 580.807)" fill="#419aff"/>
    </g>
    <g transform="translate(-450 -460.807)">
      <circle id="Ellipse_308-125" data-name="Ellipse 308" cx="2" cy="2" r="2" transform="translate(498 580.807)" fill="#419aff"/>
    </g>
    <g transform="translate(-438 -460.807)">
      <circle id="Ellipse_308-126" data-name="Ellipse 308" cx="2" cy="2" r="2" transform="translate(498 580.807)" fill="#419aff"/>
    </g>
    <g transform="translate(-426 -460.807)">
      <circle id="Ellipse_308-127" data-name="Ellipse 308" cx="2" cy="2" r="2" transform="translate(498 580.807)" fill="#419aff"/>
    </g>
    <g transform="translate(-414 -460.807)">
      <circle id="Ellipse_308-128" data-name="Ellipse 308" cx="2" cy="2" r="2" transform="translate(498 580.807)" fill="#419aff"/>
    </g>
    <g transform="translate(-402 -460.807)">
      <circle id="Ellipse_308-129" data-name="Ellipse 308" cx="2" cy="2" r="2" transform="translate(498 580.807)" fill="#419aff"/>
    </g>
    <g transform="translate(-390 -460.807)">
      <circle id="Ellipse_308-130" data-name="Ellipse 308" cx="2" cy="2" r="2" transform="translate(498 580.807)" fill="#419aff"/>
    </g>
    <g transform="translate(-378 -460.807)">
      <circle id="Ellipse_308-131" data-name="Ellipse 308" cx="2" cy="2" r="2" transform="translate(498 580.807)" fill="#419aff"/>
    </g>
    <g transform="translate(-366 -460.807)">
      <circle id="Ellipse_308-132" data-name="Ellipse 308" cx="2" cy="2" r="2" transform="translate(498 580.807)" fill="#419aff"/>
    </g>
  </g>
</svg>
