<svg xmlns="http://www.w3.org/2000/svg" xmlns:xlink="http://www.w3.org/1999/xlink" width="642.006" height="363.422" viewBox="0 0 642.006 363.422"><defs><filter id="a" x="0" y="0" width="642.006" height="363.422" filterUnits="userSpaceOnUse"><feOffset input="SourceAlpha"/><feGaussianBlur stdDeviation="7" result="b"/><feFlood flood-opacity="0.212"/><feComposite operator="in" in2="b"/><feComposite in="SourceGraphic"/></filter></defs><g transform="translate(21.003 21)"><g transform="matrix(1, 0, 0, 1, -21, -21)" filter="url(#a)"><path d="M8.4,9.025H277.312L300.414-34,322.941,9.025H591.6a8.638,8.638,0,0,1,8.4,8.858V278.564a8.638,8.638,0,0,1-8.4,8.858H8.4A8.638,8.638,0,0,1,0,278.564V17.883A8.638,8.638,0,0,1,8.4,9.025Z" transform="translate(21 55)" fill="#fff"/></g><g transform="translate(10 64.442)"><g transform="translate(0.449 0.449)"><path d="M292.933,37v4.467q-4.3.391-4.3,6.225H292a1.8,1.8,0,0,1,1.8,1.8v5.39a1.8,1.8,0,0,1-1.8,1.8h-6.2a1.8,1.8,0,0,1-1.8-1.8V48Q284,37.5,292.933,37Z" transform="translate(-284 -37)" fill="#46ea72"/><path d="M18.933,37v4.467q-4.3.391-4.3,6.225H18a1.8,1.8,0,0,1,1.8,1.8v5.39a1.8,1.8,0,0,1-1.8,1.8H11.8a1.8,1.8,0,0,1-1.8-1.8V48Q10,37.5,18.933,37Z" transform="translate(2.309 -37)" fill="#46ea72"/></g><path d="M9.382,27a.449.449,0,0,1,.449.449v4.467a.449.449,0,0,1-.409.447c-2.508.228-3.782,1.973-3.884,5.329H8.445a2.249,2.249,0,0,1,2.246,2.246v5.39a2.249,2.249,0,0,1-2.246,2.246h-6.2A2.249,2.249,0,0,1,0,45.328V43.891a.45.45,0,0,1,.9,0v1.438a1.349,1.349,0,0,0,1.348,1.348h6.2A1.349,1.349,0,0,0,9.8,45.329v-5.39A1.349,1.349,0,0,0,8.445,38.59H5.083a.449.449,0,0,1-.449-.449,8.3,8.3,0,0,1,1.154-4.729,4.489,4.489,0,0,1,3.145-1.894V27.932C3.528,28.416.9,31.861.9,38.448v1.609a.45.45,0,1,1-.9,0V38.448c0-3.588.785-6.374,2.334-8.281A9.267,9.267,0,0,1,9.357,27Z" transform="translate(12.309 -27)" fill="#34c75c"/><path d="M276.246,47.574h6.2a2.249,2.249,0,0,0,2.246-2.246v-5.39a2.249,2.249,0,0,0-2.246-2.246H279.54c.1-3.356,1.376-5.1,3.884-5.329a.449.449,0,0,0,.409-.447V27.449a.449.449,0,0,0-.449-.449h-.025a9.267,9.267,0,0,0-7.023,3.166C274.785,32.074,274,34.86,274,38.448v6.88a2.249,2.249,0,0,0,2.246,2.246ZM274.9,38.448c0-6.588,2.629-10.032,8.035-10.516v3.586a4.488,4.488,0,0,0-3.145,1.894,8.3,8.3,0,0,0-1.154,4.729.449.449,0,0,0,.449.449h3.362a1.349,1.349,0,0,1,1.348,1.348v5.39a1.349,1.349,0,0,1-1.348,1.348h-5.391V43.35a.45.45,0,1,0-.9,0v3.322a1.349,1.349,0,0,1-1.258-1.344Z" transform="translate(-274 -27)" fill="#34c75c"/><path d="M444.449,145.751a.45.45,0,1,1-.449.454h0a.449.449,0,0,1,.449-.454Z" transform="translate(-441.844 -131.412)" fill="#34c75c"/><path d="M218.449,141.666a.449.449,0,0,1,.449.449v.009a.45.45,0,1,1-.9,0v-.009a.449.449,0,0,1,.451-.449Z" transform="translate(-205.691 -127.151)" fill="#34c75c"/></g><g transform="translate(566 284.422)"><g transform="translate(0.449 0.449)"><path d="M284.86,56.676V52.209q4.3-.391,4.3-6.225H285.8a1.8,1.8,0,0,1-1.8-1.8V38.8a1.8,1.8,0,0,1,1.8-1.8H292a1.8,1.8,0,0,1,1.8,1.8v6.88Q293.793,56.173,284.86,56.676Z" transform="translate(-271.691 -37)" fill="#46ea72"/><path d="M10.86,56.676V52.209q4.3-.391,4.3-6.225H11.8a1.8,1.8,0,0,1-1.8-1.8V38.8A1.8,1.8,0,0,1,11.8,37H18a1.8,1.8,0,0,1,1.8,1.8v6.88Q19.793,56.173,10.86,56.676Z" transform="translate(-10 -37)" fill="#46ea72"/></g><path d="M1.309,47.574a.449.449,0,0,1-.449-.449V42.658a.449.449,0,0,1,.409-.447c2.508-.228,3.782-1.973,3.884-5.329H2.246A2.249,2.249,0,0,1,0,34.636v-5.39A2.249,2.249,0,0,1,2.246,27h6.2a2.249,2.249,0,0,1,2.246,2.246v1.437a.45.45,0,1,1-.9,0V29.246A1.349,1.349,0,0,0,8.445,27.9h-6.2A1.349,1.349,0,0,0,.9,29.246v5.39a1.349,1.349,0,0,0,1.348,1.348h3.36a.449.449,0,0,1,.449.449A8.3,8.3,0,0,1,4.9,41.162a4.489,4.489,0,0,1-3.145,1.894v3.586c5.4-.484,8.035-3.929,8.035-10.516V34.517a.45.45,0,1,1,.9,0v1.609c0,3.588-.785,6.374-2.334,8.281a9.267,9.267,0,0,1-7.023,3.166Z" transform="translate(0 -27)" fill="#34c75c"/><path d="M282.445,27h-6.2A2.249,2.249,0,0,0,274,29.246v5.39a2.249,2.249,0,0,0,2.246,2.246h2.906c-.1,3.356-1.376,5.1-3.884,5.329a.449.449,0,0,0-.409.447v4.467a.449.449,0,0,0,.449.449h.025a9.267,9.267,0,0,0,7.023-3.166c1.549-1.907,2.334-4.693,2.334-8.281v-6.88A2.249,2.249,0,0,0,282.445,27Zm1.348,9.126c0,6.588-2.629,10.032-8.035,10.516V43.056a4.488,4.488,0,0,0,3.145-1.894,8.3,8.3,0,0,0,1.154-4.729.449.449,0,0,0-.449-.449h-3.362a1.349,1.349,0,0,1-1.348-1.348v-5.39a1.349,1.349,0,0,1,1.348-1.348h5.391v3.326a.45.45,0,1,0,.9,0V27.9a1.349,1.349,0,0,1,1.258,1.344Z" transform="translate(-261.691 -27)" fill="#34c75c"/><path d="M444.449,146.652a.45.45,0,1,1,.449-.454h0a.449.449,0,0,1-.449.454Z" transform="translate(-424.055 -140.416)" fill="#34c75c"/><path d="M218.449,142.574a.449.449,0,0,1-.449-.449v-.009a.45.45,0,0,1,.9,0v.009a.449.449,0,0,1-.451.449Z" transform="translate(-208.207 -136.515)" fill="#34c75c"/></g><g transform="translate(-15 9)"><path d="M10.549,0H1.9V-15.4h8.3v2.17H4.458v4.361h5.3v2.159h-5.3v4.555h6.091ZM22.2-11,18.541-5.436,22.161,0h-2.89L17.338-3.405q-.183-.312-.43-.795h-.043q-.043.1-.451.795L14.448,0H11.569l3.738-5.393L11.763-11h2.9l1.9,3.577q.215.4.419.816h.032L19.476-11ZM31.636-.5A6.146,6.146,0,0,1,28.51.258a5.294,5.294,0,0,1-3.953-1.531,5.423,5.423,0,0,1-1.5-3.969,5.968,5.968,0,0,1,1.617-4.367,5.78,5.78,0,0,1,4.324-1.649,6.312,6.312,0,0,1,2.653.526v2.32A4.019,4.019,0,0,0,29.2-9.271,3.4,3.4,0,0,0,26.608-8.2,3.908,3.908,0,0,0,25.6-5.4a3.727,3.727,0,0,0,.951,2.7,3.375,3.375,0,0,0,2.551.988,3.987,3.987,0,0,0,2.535-.956ZM43.42-4.823h-7.5a3.17,3.17,0,0,0,.94,2.353,3.5,3.5,0,0,0,2.465.827A5.436,5.436,0,0,0,42.561-2.7V-.687a7.387,7.387,0,0,1-3.975.945,4.92,4.92,0,0,1-3.808-1.5A5.994,5.994,0,0,1,33.4-5.457a5.861,5.861,0,0,1,1.52-4.184,4.972,4.972,0,0,1,3.776-1.617,4.335,4.335,0,0,1,3.491,1.45A6.021,6.021,0,0,1,43.42-5.779ZM41.014-6.585a3.211,3.211,0,0,0-.634-2.089,2.118,2.118,0,0,0-1.719-.747,2.419,2.419,0,0,0-1.821.784,3.582,3.582,0,0,0-.918,2.052ZM48.3,0h-2.5V-16.285h2.5Zm5.747,0h-2.5V-16.285h2.5ZM66.6-4.823H59.1a3.17,3.17,0,0,0,.94,2.353,3.5,3.5,0,0,0,2.465.827A5.436,5.436,0,0,0,65.742-2.7V-.687a7.387,7.387,0,0,1-3.975.945,4.92,4.92,0,0,1-3.808-1.5,5.994,5.994,0,0,1-1.38-4.216A5.861,5.861,0,0,1,58.1-9.641a4.972,4.972,0,0,1,3.776-1.617,4.335,4.335,0,0,1,3.491,1.45A6.021,6.021,0,0,1,66.6-5.779ZM64.2-6.585a3.211,3.211,0,0,0-.634-2.089,2.118,2.118,0,0,0-1.719-.747,2.419,2.419,0,0,0-1.821.784A3.582,3.582,0,0,0,59.1-6.585ZM78.772,0H76.28V-6.2q0-3.083-2.181-3.083a2.381,2.381,0,0,0-1.88.854,3.168,3.168,0,0,0-.741,2.154V0h-2.5V-11h2.5v1.826h.043a3.921,3.921,0,0,1,3.566-2.084,3.322,3.322,0,0,1,2.739,1.166,5.234,5.234,0,0,1,.945,3.368Zm8.841-.118A4.319,4.319,0,0,1,85.69.247q-3.2,0-3.2-3.072v-6.22H80.652V-11h1.837v-2.546l2.492-.709V-11h2.632v1.955H84.981v5.5a2.167,2.167,0,0,0,.354,1.4,1.472,1.472,0,0,0,1.182.419,1.713,1.713,0,0,0,1.1-.365ZM115.2-15.4,110.978,0h-2.89l-2.933-10.774a7.365,7.365,0,0,1-.226-1.5h-.043a7.3,7.3,0,0,1-.258,1.482L101.686,0H98.731L94.424-15.4h2.8l2.793,11.279a8.215,8.215,0,0,1,.215,1.482h.054a8.411,8.411,0,0,1,.3-1.482L103.748-15.4h2.632L109.3-4.039a8.876,8.876,0,0,1,.226,1.375h.043a8.442,8.442,0,0,1,.247-1.418L112.557-15.4ZM121.376.258a5.452,5.452,0,0,1-4.066-1.542,5.569,5.569,0,0,1-1.52-4.087A5.794,5.794,0,0,1,117.375-9.7a5.826,5.826,0,0,1,4.27-1.558,5.277,5.277,0,0,1,4.018,1.515,5.851,5.851,0,0,1,1.439,4.2,5.765,5.765,0,0,1-1.552,4.216A5.576,5.576,0,0,1,121.376.258Zm.118-9.528a2.845,2.845,0,0,0-2.31,1.021,4.273,4.273,0,0,0-.849,2.814,4.025,4.025,0,0,0,.859,2.723,2.886,2.886,0,0,0,2.3.994,2.739,2.739,0,0,0,2.261-.978,4.327,4.327,0,0,0,.79-2.782,4.393,4.393,0,0,0-.79-2.8A2.726,2.726,0,0,0,121.494-9.271Zm14.523.645a2.066,2.066,0,0,0-1.3-.354,2.225,2.225,0,0,0-1.848,1,4.467,4.467,0,0,0-.741,2.718V0h-2.492V-11h2.492v2.267h.043a3.832,3.832,0,0,1,1.123-1.81,2.534,2.534,0,0,1,1.692-.65,2.1,2.1,0,0,1,1.031.2ZM147.759,0H144.6l-4.275-5.285h-.043V0h-2.5V-16.285h2.5V-5.962h.043L144.364-11h3l-4.544,5.307Zm4.479-15.4-.2,10.871h-2.041L149.714-15.4ZM151.046.215a1.563,1.563,0,0,1-1.1-.414,1.312,1.312,0,0,1-.451-1,1.386,1.386,0,0,1,.451-1.042,1.53,1.53,0,0,1,1.1-.43,1.523,1.523,0,0,1,1.08.43,1.378,1.378,0,0,1,.457,1.042,1.306,1.306,0,0,1-.457,1A1.555,1.555,0,0,1,151.046.215ZM170.983,0h-8.647V-15.4h8.3v2.17h-5.747v4.361h5.3v2.159h-5.3v4.555h6.091Zm11.655-11-3.663,5.564L182.6,0h-2.89l-1.934-3.405q-.183-.312-.43-.795H177.3q-.043.1-.451.795L174.883,0H172l3.738-5.393L172.2-11h2.9L177-7.423q.215.4.419.816h.032L179.91-11Zm10.27,11h-2.417V-1.719h-.043A3.639,3.639,0,0,1,187.107.258a3.519,3.519,0,0,1-2.541-.881,3.081,3.081,0,0,1-.918-2.331q0-3.115,3.588-3.631l3.266-.462q0-2.353-2.234-2.353a5.308,5.308,0,0,0-3.545,1.354v-2.181a7.731,7.731,0,0,1,4.018-1.031q4.168,0,4.168,4.1ZM190.5-5.4l-2.31.322a3.661,3.661,0,0,0-1.617.521,1.522,1.522,0,0,0-.542,1.337,1.464,1.464,0,0,0,.5,1.144,1.934,1.934,0,0,0,1.337.446,2.468,2.468,0,0,0,1.885-.8,2.837,2.837,0,0,0,.747-2.014Zm13.32,4.9A6.146,6.146,0,0,1,200.7.258a5.294,5.294,0,0,1-3.953-1.531,5.423,5.423,0,0,1-1.5-3.969,5.968,5.968,0,0,1,1.617-4.367,5.78,5.78,0,0,1,4.324-1.649,6.312,6.312,0,0,1,2.653.526v2.32a4.019,4.019,0,0,0-2.449-.859A3.4,3.4,0,0,0,198.795-8.2a3.908,3.908,0,0,0-1.01,2.8,3.727,3.727,0,0,0,.951,2.7,3.375,3.375,0,0,0,2.551.988,3.987,3.987,0,0,0,2.535-.956Zm8.271.387a4.319,4.319,0,0,1-1.923.365q-3.2,0-3.2-3.072v-6.22h-1.837V-11h1.837v-2.546l2.492-.709V-11h2.632v1.955h-2.632v5.5a2.167,2.167,0,0,0,.354,1.4A1.472,1.472,0,0,0,211-1.729a1.713,1.713,0,0,0,1.1-.365ZM216.745,0h-2.5V-16.285h2.5Zm12.772-11L224.555,1.762q-1.547,3.416-4.34,3.416a5.2,5.2,0,0,1-1.311-.14V2.965a3.485,3.485,0,0,0,1.074.193,2.217,2.217,0,0,0,2.084-1.375l.741-1.8L218.432-11h2.761l2.621,7.992q.043.15.193.795h.054q.054-.247.193-.773L227-11Zm22.494,0L248.768,0h-2.61l-2-7.455a4.721,4.721,0,0,1-.15-.967h-.043a4.408,4.408,0,0,1-.193.945L241.6,0h-2.557l-3.233-11h2.578l2,7.928a4.7,4.7,0,0,1,.129.945h.075a5.106,5.106,0,0,1,.172-.967L242.988-11h2.342l1.977,7.96a5.568,5.568,0,0,1,.14.945h.075a5.014,5.014,0,0,1,.161-.945L249.638-11ZM263.635,0h-2.492V-6.016q0-3.266-2.181-3.266a2.281,2.281,0,0,0-1.848.945,3.763,3.763,0,0,0-.752,2.417V0h-2.5V-16.285h2.5v7.111h.043a3.936,3.936,0,0,1,3.566-2.084q3.663,0,3.663,4.479Zm11.473,0H272.69V-1.719h-.043A3.639,3.639,0,0,1,269.307.258a3.519,3.519,0,0,1-2.541-.881,3.081,3.081,0,0,1-.918-2.331q0-3.115,3.588-3.631l3.266-.462q0-2.353-2.234-2.353a5.308,5.308,0,0,0-3.545,1.354v-2.181a7.731,7.731,0,0,1,4.018-1.031q4.168,0,4.168,4.1ZM272.7-5.4l-2.31.322a3.661,3.661,0,0,0-1.617.521,1.522,1.522,0,0,0-.542,1.337,1.464,1.464,0,0,0,.5,1.144,1.934,1.934,0,0,0,1.337.446,2.468,2.468,0,0,0,1.885-.8,2.838,2.838,0,0,0,.747-2.014ZM283.948-.118a4.319,4.319,0,0,1-1.923.365q-3.2,0-3.2-3.072v-6.22h-1.837V-11h1.837v-2.546l2.492-.709V-11h2.632v1.955h-2.632v5.5a2.167,2.167,0,0,0,.354,1.4,1.472,1.472,0,0,0,1.182.419,1.713,1.713,0,0,0,1.1-.365Zm11.1.118h-2.632V-15.4h2.632Z" transform="translate(166.997 133)" fill="#3b4d53"/><path d="M16.414-11,13.17,0H10.56l-2-7.455a4.721,4.721,0,0,1-.15-.967H8.368a4.408,4.408,0,0,1-.193.945L6,0H3.448L.215-11H2.793l2,7.928a4.7,4.7,0,0,1,.129.945H5a5.106,5.106,0,0,1,.172-.967L7.391-11H9.732l1.977,7.96a5.568,5.568,0,0,1,.14.945h.075a5.014,5.014,0,0,1,.161-.945L14.04-11ZM26.705,0H24.288V-1.719h-.043A3.639,3.639,0,0,1,20.9.258a3.519,3.519,0,0,1-2.541-.881,3.081,3.081,0,0,1-.918-2.331q0-3.115,3.588-3.631L24.3-7.047Q24.3-9.4,22.064-9.4A5.308,5.308,0,0,0,18.52-8.046v-2.181a7.731,7.731,0,0,1,4.018-1.031q4.168,0,4.168,4.1ZM24.3-5.4l-2.31.322a3.661,3.661,0,0,0-1.617.521,1.522,1.522,0,0,0-.542,1.337,1.464,1.464,0,0,0,.5,1.144,1.934,1.934,0,0,0,1.337.446,2.468,2.468,0,0,0,1.885-.8A2.837,2.837,0,0,0,24.3-4.447ZM39.542,0H37.05V-6.2q0-3.083-2.181-3.083a2.381,2.381,0,0,0-1.88.854,3.168,3.168,0,0,0-.741,2.154V0h-2.5V-11h2.5v1.826h.043a3.921,3.921,0,0,1,3.566-2.084A3.322,3.322,0,0,1,38.6-10.092a5.234,5.234,0,0,1,.945,3.368Zm8.841-.118A4.319,4.319,0,0,1,46.46.247q-3.2,0-3.2-3.072v-6.22H41.422V-11h1.837v-2.546l2.492-.709V-11h2.632v1.955H45.751v5.5a2.167,2.167,0,0,0,.354,1.4,1.472,1.472,0,0,0,1.182.419,1.713,1.713,0,0,0,1.1-.365ZM59.716-4.823h-7.5a3.17,3.17,0,0,0,.94,2.353,3.5,3.5,0,0,0,2.465.827A5.436,5.436,0,0,0,58.856-2.7V-.687a7.387,7.387,0,0,1-3.975.945,4.92,4.92,0,0,1-3.808-1.5,5.994,5.994,0,0,1-1.38-4.216,5.861,5.861,0,0,1,1.52-4.184,4.972,4.972,0,0,1,3.776-1.617,4.335,4.335,0,0,1,3.491,1.45,6.021,6.021,0,0,1,1.235,4.028ZM57.31-6.585a3.211,3.211,0,0,0-.634-2.089,2.118,2.118,0,0,0-1.719-.747,2.419,2.419,0,0,0-1.821.784,3.582,3.582,0,0,0-.918,2.052ZM72.091,0H69.6V-1.869h-.043A3.975,3.975,0,0,1,65.85.258,4,4,0,0,1,62.6-1.219a6.132,6.132,0,0,1-1.219-4.023,6.68,6.68,0,0,1,1.348-4.372,4.412,4.412,0,0,1,3.593-1.644,3.441,3.441,0,0,1,3.233,1.783H69.6v-6.811h2.492Zm-2.46-5.027V-6.467a2.8,2.8,0,0,0-.763-1.987,2.544,2.544,0,0,0-1.944-.816,2.618,2.618,0,0,0-2.2,1.042,4.643,4.643,0,0,0-.8,2.89,4.161,4.161,0,0,0,.768,2.648,2.5,2.5,0,0,0,2.068.972,2.586,2.586,0,0,0,2.073-.94A3.541,3.541,0,0,0,69.631-5.027ZM76.377.236a1.541,1.541,0,0,1-1.1-.424A1.345,1.345,0,0,1,74.83-1.2a1.374,1.374,0,0,1,.451-1.031,1.53,1.53,0,0,1,1.1-.43,1.562,1.562,0,0,1,1.112.43A1.366,1.366,0,0,1,77.945-1.2a1.338,1.338,0,0,1-.457,1.015A1.573,1.573,0,0,1,76.377.236ZM89.6,0H86.969V-15.4H89.6Zm18,0h-2.417V-1.719h-.043A3.639,3.639,0,0,1,101.8.258a3.519,3.519,0,0,1-2.541-.881,3.081,3.081,0,0,1-.918-2.331q0-3.115,3.588-3.631l3.266-.462q0-2.353-2.234-2.353a5.308,5.308,0,0,0-3.545,1.354v-2.181a7.731,7.731,0,0,1,4.018-1.031q4.168,0,4.168,4.1ZM105.2-5.4l-2.31.322a3.661,3.661,0,0,0-1.617.521,1.522,1.522,0,0,0-.542,1.337,1.464,1.464,0,0,0,.5,1.144,1.934,1.934,0,0,0,1.337.446,2.468,2.468,0,0,0,1.885-.8,2.837,2.837,0,0,0,.747-2.014ZM113.147,0h-2.5V-16.285h2.5Zm18.036-11L127.939,0h-2.61l-2-7.455a4.721,4.721,0,0,1-.15-.967h-.043a4.407,4.407,0,0,1-.193.945L120.774,0h-2.557l-3.233-11h2.578l2,7.928a4.7,4.7,0,0,1,.129.945h.075a5.105,5.105,0,0,1,.172-.967L122.16-11H124.5l1.977,7.96a5.568,5.568,0,0,1,.14.945h.075a5.013,5.013,0,0,1,.161-.945L128.81-11ZM141.475,0h-2.417V-1.719h-.043A3.639,3.639,0,0,1,135.674.258a3.519,3.519,0,0,1-2.541-.881,3.081,3.081,0,0,1-.918-2.331q0-3.115,3.588-3.631l3.266-.462q0-2.353-2.234-2.353a5.308,5.308,0,0,0-3.545,1.354v-2.181a7.731,7.731,0,0,1,4.018-1.031q4.168,0,4.168,4.1Zm-2.406-5.4-2.31.322a3.661,3.661,0,0,0-1.617.521,1.522,1.522,0,0,0-.542,1.337,1.464,1.464,0,0,0,.5,1.144,1.934,1.934,0,0,0,1.337.446,2.468,2.468,0,0,0,1.885-.8,2.837,2.837,0,0,0,.747-2.014ZM154.043-11,149.08,1.762q-1.547,3.416-4.34,3.416a5.2,5.2,0,0,1-1.311-.14V2.965a3.485,3.485,0,0,0,1.074.193,2.217,2.217,0,0,0,2.084-1.375l.741-1.8L142.957-11h2.761l2.621,7.992q.043.15.193.795h.054q.054-.247.193-.773L151.529-11ZM155.01-.344v-2.31a4.972,4.972,0,0,0,3.083,1.063q2.256,0,2.256-1.332a1.05,1.05,0,0,0-.193-.639,1.846,1.846,0,0,0-.521-.467,4.1,4.1,0,0,0-.773-.365q-.446-.161-.994-.365a10.519,10.519,0,0,1-1.219-.569,3.684,3.684,0,0,1-.9-.682,2.575,2.575,0,0,1-.542-.865A3.184,3.184,0,0,1,155.021-8a2.607,2.607,0,0,1,.376-1.4,3.267,3.267,0,0,1,1.01-1.021,4.842,4.842,0,0,1,1.439-.623,6.59,6.59,0,0,1,1.665-.209,7.569,7.569,0,0,1,2.729.462v2.181a4.6,4.6,0,0,0-2.664-.795,3.479,3.479,0,0,0-.854.1,2.2,2.2,0,0,0-.65.269,1.321,1.321,0,0,0-.419.414.987.987,0,0,0-.15.532,1.136,1.136,0,0,0,.15.6,1.366,1.366,0,0,0,.446.435,3.851,3.851,0,0,0,.709.344q.414.156.951.338a13.89,13.89,0,0,1,1.273.591,4.3,4.3,0,0,1,.961.682,2.674,2.674,0,0,1,.612.881,2.991,2.991,0,0,1,.215,1.187,2.713,2.713,0,0,1-.387,1.461A3.223,3.223,0,0,1,161.4-.548a4.827,4.827,0,0,1-1.488.607,7.729,7.729,0,0,1-1.778.2A7.49,7.49,0,0,1,155.01-.344Zm22.021.226a4.319,4.319,0,0,1-1.923.365q-3.2,0-3.2-3.072v-6.22H170.07V-11h1.837v-2.546l2.492-.709V-11h2.632v1.955H174.4v5.5a2.167,2.167,0,0,0,.354,1.4,1.472,1.472,0,0,0,1.182.419,1.713,1.713,0,0,0,1.1-.365ZM188.955,0h-2.492V-6.016q0-3.266-2.181-3.266a2.281,2.281,0,0,0-1.848.945,3.763,3.763,0,0,0-.752,2.417V0h-2.5V-16.285h2.5v7.111h.043a3.936,3.936,0,0,1,3.566-2.084q3.663,0,3.663,4.479Zm7.906.258A5.452,5.452,0,0,1,192.8-1.284a5.568,5.568,0,0,1-1.52-4.087A5.794,5.794,0,0,1,192.86-9.7a5.826,5.826,0,0,1,4.27-1.558,5.277,5.277,0,0,1,4.018,1.515,5.851,5.851,0,0,1,1.439,4.2,5.765,5.765,0,0,1-1.552,4.216A5.576,5.576,0,0,1,196.861.258Zm.118-9.528a2.845,2.845,0,0,0-2.31,1.021,4.273,4.273,0,0,0-.849,2.814,4.025,4.025,0,0,0,.859,2.723,2.886,2.886,0,0,0,2.3.994,2.739,2.739,0,0,0,2.261-.978,4.327,4.327,0,0,0,.79-2.782,4.393,4.393,0,0,0-.79-2.8A2.726,2.726,0,0,0,196.979-9.271ZM214.715,0h-2.492V-1.74h-.043a3.587,3.587,0,0,1-3.373,2q-3.9,0-3.9-4.684V-11H207.4v6.316q0,2.965,2.288,2.965a2.312,2.312,0,0,0,1.821-.816,3.128,3.128,0,0,0,.714-2.138V-11h2.492Zm13.256-.881q0,6.059-6.091,6.059a9.071,9.071,0,0,1-3.749-.72V2.181a6.937,6.937,0,0,0,3.427,1.031q3.921,0,3.921-3.856v-1.2h-.043A4.036,4.036,0,0,1,221.719.258a4.02,4.02,0,0,1-3.239-1.466,5.929,5.929,0,0,1-1.23-3.937A6.944,6.944,0,0,1,218.571-9.6a4.393,4.393,0,0,1,3.631-1.654,3.5,3.5,0,0,1,3.233,1.783h.043V-11h2.492ZM225.5-5.038V-6.467a2.8,2.8,0,0,0-.768-1.982,2.516,2.516,0,0,0-1.917-.822A2.635,2.635,0,0,0,220.6-8.223a4.726,4.726,0,0,0-.8,2.927,4.068,4.068,0,0,0,.768,2.594,2.465,2.465,0,0,0,2.036.972,2.642,2.642,0,0,0,2.095-.929A3.5,3.5,0,0,0,225.5-5.038ZM240.99,0H238.5V-6.016q0-3.266-2.181-3.266a2.281,2.281,0,0,0-1.848.945,3.763,3.763,0,0,0-.752,2.417V0h-2.5V-16.285h2.5v7.111h.043a3.936,3.936,0,0,1,3.566-2.084q3.663,0,3.663,4.479Zm8.83-.118A4.319,4.319,0,0,1,247.9.247q-3.2,0-3.2-3.072v-6.22h-1.837V-11H244.7v-2.546l2.492-.709V-11h2.632v1.955h-2.632v5.5a2.167,2.167,0,0,0,.354,1.4,1.472,1.472,0,0,0,1.182.419,1.713,1.713,0,0,0,1.1-.365Zm9.453-13.191a1.5,1.5,0,0,1-1.047-.4,1.308,1.308,0,0,1-.435-1.01,1.341,1.341,0,0,1,.435-1.021,1.476,1.476,0,0,1,1.047-.408,1.522,1.522,0,0,1,1.074.408,1.334,1.334,0,0,1,.44,1.021,1.315,1.315,0,0,1-.44.994A1.511,1.511,0,0,1,259.273-13.31ZM260.509,0h-2.492V-11h2.492Zm9.056-.118a4.319,4.319,0,0,1-1.923.365q-3.2,0-3.2-3.072v-6.22H262.6V-11h1.837v-2.546l2.492-.709V-11h2.632v1.955h-2.632v5.5a2.167,2.167,0,0,0,.354,1.4,1.472,1.472,0,0,0,1.182.419,1.713,1.713,0,0,0,1.1-.365ZM292.553-11,289.309,0H286.7l-2-7.455a4.722,4.722,0,0,1-.15-.967h-.043a4.406,4.406,0,0,1-.193.945L282.144,0h-2.557l-3.233-11h2.578l2,7.928a4.7,4.7,0,0,1,.129.945h.075a5.1,5.1,0,0,1,.172-.967L283.529-11h2.342l1.977,7.96a5.569,5.569,0,0,1,.14.945h.075a5.012,5.012,0,0,1,.161-.945L290.179-11Zm3.1-2.31a1.5,1.5,0,0,1-1.047-.4,1.308,1.308,0,0,1-.435-1.01,1.341,1.341,0,0,1,.435-1.021,1.476,1.476,0,0,1,1.047-.408,1.522,1.522,0,0,1,1.074.408,1.334,1.334,0,0,1,.44,1.021,1.315,1.315,0,0,1-.44.994A1.511,1.511,0,0,1,295.657-13.31ZM296.893,0H294.4V-11h2.492Zm5.758,0h-2.5V-16.285h2.5ZM308.4,0h-2.5V-16.285h2.5Zm11.827-1.59h-.043V0h-2.492V-16.285h2.492v7.219h.043a4.084,4.084,0,0,1,3.738-2.191,3.936,3.936,0,0,1,3.26,1.477A6.176,6.176,0,0,1,328.4-5.822a6.894,6.894,0,0,1-1.321,4.42,4.365,4.365,0,0,1-3.609,1.66A3.543,3.543,0,0,1,320.225-1.59Zm-.064-4.372V-4.6a2.911,2.911,0,0,0,.768,2.041,2.53,2.53,0,0,0,1.95.838,2.547,2.547,0,0,0,2.175-1.08,5.024,5.024,0,0,0,.79-3.013,3.959,3.959,0,0,0-.736-2.541,2.418,2.418,0,0,0-1.993-.918,2.685,2.685,0,0,0-2.143.945A3.5,3.5,0,0,0,320.16-5.962Zm20.1,1.139h-7.5a3.17,3.17,0,0,0,.94,2.353,3.5,3.5,0,0,0,2.465.827A5.436,5.436,0,0,0,339.4-2.7V-.687a7.387,7.387,0,0,1-3.975.945,4.92,4.92,0,0,1-3.808-1.5,5.994,5.994,0,0,1-1.38-4.216,5.861,5.861,0,0,1,1.52-4.184,4.972,4.972,0,0,1,3.776-1.617,4.335,4.335,0,0,1,3.491,1.45,6.021,6.021,0,0,1,1.235,4.028Zm-2.406-1.762a3.211,3.211,0,0,0-.634-2.089,2.118,2.118,0,0,0-1.719-.747,2.419,2.419,0,0,0-1.821.784,3.583,3.583,0,0,0-.918,2.052Z" transform="translate(144.997 163)" fill="#3b4d53"/><path d="M11.4,0H8.905V-6.016q0-3.266-2.181-3.266a2.281,2.281,0,0,0-1.848.945,3.763,3.763,0,0,0-.752,2.417V0h-2.5V-16.285h2.5v7.111h.043a3.936,3.936,0,0,1,3.566-2.084q3.663,0,3.663,4.479ZM22.87,0H20.453V-1.719H20.41A3.639,3.639,0,0,1,17.069.258a3.519,3.519,0,0,1-2.541-.881,3.081,3.081,0,0,1-.918-2.331q0-3.115,3.588-3.631l3.266-.462q0-2.353-2.234-2.353a5.308,5.308,0,0,0-3.545,1.354v-2.181A7.731,7.731,0,0,1,18.7-11.258q4.168,0,4.168,4.1ZM20.464-5.4l-2.31.322a3.661,3.661,0,0,0-1.617.521A1.522,1.522,0,0,0,16-3.223a1.464,1.464,0,0,0,.5,1.144,1.934,1.934,0,0,0,1.337.446,2.468,2.468,0,0,0,1.885-.8,2.837,2.837,0,0,0,.747-2.014ZM32.291-8.626a2.066,2.066,0,0,0-1.3-.354,2.225,2.225,0,0,0-1.848,1A4.467,4.467,0,0,0,28.4-5.264V0H25.91V-11H28.4v2.267h.043a3.832,3.832,0,0,1,1.123-1.81,2.534,2.534,0,0,1,1.692-.65,2.1,2.1,0,0,1,1.031.2ZM43.86,0H41.368V-1.869h-.043A3.975,3.975,0,0,1,37.619.258a4,4,0,0,1-3.25-1.477A6.132,6.132,0,0,1,33.15-5.242,6.68,6.68,0,0,1,34.5-9.614a4.412,4.412,0,0,1,3.593-1.644,3.441,3.441,0,0,1,3.233,1.783h.043v-6.811H43.86ZM41.4-5.027V-6.467a2.8,2.8,0,0,0-.763-1.987,2.544,2.544,0,0,0-1.944-.816,2.618,2.618,0,0,0-2.2,1.042,4.643,4.643,0,0,0-.8,2.89,4.161,4.161,0,0,0,.768,2.648,2.5,2.5,0,0,0,2.068.972,2.586,2.586,0,0,0,2.073-.94A3.541,3.541,0,0,0,41.4-5.027ZM58.964-.118a4.319,4.319,0,0,1-1.923.365q-3.2,0-3.2-3.072v-6.22H52V-11H53.84v-2.546l2.492-.709V-11h2.632v1.955H56.332v5.5a2.167,2.167,0,0,0,.354,1.4,1.472,1.472,0,0,0,1.182.419,1.713,1.713,0,0,0,1.1-.365Zm6.9.376a5.452,5.452,0,0,1-4.066-1.542,5.569,5.569,0,0,1-1.52-4.087A5.794,5.794,0,0,1,61.859-9.7a5.826,5.826,0,0,1,4.27-1.558,5.277,5.277,0,0,1,4.018,1.515,5.851,5.851,0,0,1,1.439,4.2,5.765,5.765,0,0,1-1.552,4.216A5.576,5.576,0,0,1,65.86.258Zm.118-9.528a2.845,2.845,0,0,0-2.31,1.021,4.273,4.273,0,0,0-.849,2.814,4.025,4.025,0,0,0,.859,2.723,2.886,2.886,0,0,0,2.3.994A2.739,2.739,0,0,0,68.24-2.7a4.327,4.327,0,0,0,.79-2.782,4.393,4.393,0,0,0-.79-2.8A2.726,2.726,0,0,0,65.979-9.271ZM82.7-1.59h-.043V0H80.169V-16.285h2.492v7.219H82.7a4.084,4.084,0,0,1,3.738-2.191A3.936,3.936,0,0,1,89.7-9.781a6.176,6.176,0,0,1,1.176,3.958A6.894,6.894,0,0,1,89.558-1.4,4.365,4.365,0,0,1,85.948.258,3.543,3.543,0,0,1,82.7-1.59ZM82.64-5.962V-4.6a2.911,2.911,0,0,0,.768,2.041,2.529,2.529,0,0,0,1.95.838A2.547,2.547,0,0,0,87.533-2.8a5.024,5.024,0,0,0,.79-3.013,3.959,3.959,0,0,0-.736-2.541,2.418,2.418,0,0,0-1.993-.918,2.685,2.685,0,0,0-2.143.945A3.5,3.5,0,0,0,82.64-5.962ZM99.806-8.626a2.066,2.066,0,0,0-1.3-.354,2.225,2.225,0,0,0-1.848,1,4.467,4.467,0,0,0-.741,2.718V0H93.425V-11h2.492v2.267h.043a3.832,3.832,0,0,1,1.123-1.81,2.534,2.534,0,0,1,1.692-.65,2.1,2.1,0,0,1,1.031.2Zm3.019-4.684a1.5,1.5,0,0,1-1.047-.4,1.308,1.308,0,0,1-.435-1.01,1.341,1.341,0,0,1,.435-1.021,1.476,1.476,0,0,1,1.047-.408,1.522,1.522,0,0,1,1.074.408,1.334,1.334,0,0,1,.44,1.021,1.315,1.315,0,0,1-.44.994A1.511,1.511,0,0,1,102.824-13.31ZM104.06,0h-2.492V-11h2.492Zm13.052,0h-2.492V-6.2q0-3.083-2.181-3.083a2.381,2.381,0,0,0-1.88.854,3.168,3.168,0,0,0-.741,2.154V0h-2.5V-11h2.5v1.826h.043a3.921,3.921,0,0,1,3.566-2.084,3.322,3.322,0,0,1,2.739,1.166,5.234,5.234,0,0,1,.945,3.368Zm13.052-.881q0,6.059-6.091,6.059a9.071,9.071,0,0,1-3.749-.72V2.181a6.937,6.937,0,0,0,3.427,1.031q3.921,0,3.921-3.856v-1.2h-.043A4.036,4.036,0,0,1,123.911.258a4.02,4.02,0,0,1-3.239-1.466,5.929,5.929,0,0,1-1.23-3.937A6.944,6.944,0,0,1,120.764-9.6a4.393,4.393,0,0,1,3.631-1.654,3.5,3.5,0,0,1,3.233,1.783h.043V-11h2.492Zm-2.471-4.157V-6.467a2.8,2.8,0,0,0-.768-1.982,2.516,2.516,0,0,0-1.917-.822,2.635,2.635,0,0,0-2.218,1.047,4.726,4.726,0,0,0-.8,2.927,4.068,4.068,0,0,0,.768,2.594,2.465,2.465,0,0,0,2.036.972,2.642,2.642,0,0,0,2.095-.929A3.5,3.5,0,0,0,127.692-5.038ZM155.9,0h-2.492V-5.994a4.858,4.858,0,0,0-.489-2.5,1.8,1.8,0,0,0-1.649-.773,1.987,1.987,0,0,0-1.66.978,3.989,3.989,0,0,0-.682,2.342V0h-2.5V-6.2q0-3.072-2.17-3.072a1.957,1.957,0,0,0-1.66.924,4.073,4.073,0,0,0-.65,2.4V0h-2.492V-11h2.492v1.74h.043a3.811,3.811,0,0,1,3.47-2,3.271,3.271,0,0,1,1.993.628,3.13,3.13,0,0,1,1.166,1.649,3.925,3.925,0,0,1,3.652-2.277q3.631,0,3.631,4.479ZM168.47-11,163.507,1.762q-1.547,3.416-4.34,3.416a5.2,5.2,0,0,1-1.311-.14V2.965a3.485,3.485,0,0,0,1.074.193,2.217,2.217,0,0,0,2.084-1.375l.741-1.8L157.384-11h2.761l2.621,7.992q.043.15.193.795h.054q.054-.247.193-.773L165.956-11ZM184.046-.5a6.146,6.146,0,0,1-3.126.763,5.294,5.294,0,0,1-3.953-1.531,5.423,5.423,0,0,1-1.5-3.969,5.968,5.968,0,0,1,1.617-4.367,5.78,5.78,0,0,1,4.324-1.649,6.312,6.312,0,0,1,2.653.526v2.32a4.019,4.019,0,0,0-2.449-.859A3.4,3.4,0,0,0,179.019-8.2a3.908,3.908,0,0,0-1.01,2.8,3.727,3.727,0,0,0,.951,2.7,3.375,3.375,0,0,0,2.551.988,3.987,3.987,0,0,0,2.535-.956Zm7.348.763a5.452,5.452,0,0,1-4.066-1.542,5.568,5.568,0,0,1-1.52-4.087A5.794,5.794,0,0,1,187.392-9.7a5.826,5.826,0,0,1,4.27-1.558,5.277,5.277,0,0,1,4.018,1.515,5.851,5.851,0,0,1,1.439,4.2,5.765,5.765,0,0,1-1.552,4.216A5.576,5.576,0,0,1,191.394.258Zm.118-9.528A2.845,2.845,0,0,0,189.2-8.25a4.273,4.273,0,0,0-.849,2.814,4.025,4.025,0,0,0,.859,2.723,2.886,2.886,0,0,0,2.3.994,2.739,2.739,0,0,0,2.261-.978,4.327,4.327,0,0,0,.79-2.782,4.393,4.393,0,0,0-.79-2.8A2.726,2.726,0,0,0,191.512-9.271ZM216.1,0h-2.492V-5.994a4.858,4.858,0,0,0-.489-2.5,1.8,1.8,0,0,0-1.649-.773,1.987,1.987,0,0,0-1.66.978,3.989,3.989,0,0,0-.682,2.342V0h-2.5V-6.2q0-3.072-2.17-3.072a1.957,1.957,0,0,0-1.66.924,4.073,4.073,0,0,0-.65,2.4V0h-2.492V-11h2.492v1.74h.043a3.811,3.811,0,0,1,3.47-2,3.271,3.271,0,0,1,1.993.628,3.13,3.13,0,0,1,1.166,1.649,3.925,3.925,0,0,1,3.652-2.277q3.631,0,3.631,4.479Zm5.575-1.622h-.043V5.06h-2.492V-11h2.492v1.934h.043a4.084,4.084,0,0,1,3.738-2.191,3.938,3.938,0,0,1,3.266,1.472,6.172,6.172,0,0,1,1.171,3.953,6.853,6.853,0,0,1-1.321,4.4A4.37,4.37,0,0,1,224.92.226,3.6,3.6,0,0,1,221.676-1.622Zm-.064-4.34V-4.6a2.911,2.911,0,0,0,.768,2.041,2.529,2.529,0,0,0,1.95.838A2.547,2.547,0,0,0,226.5-2.8a5.024,5.024,0,0,0,.79-3.013,3.959,3.959,0,0,0-.736-2.541,2.418,2.418,0,0,0-1.993-.918,2.685,2.685,0,0,0-2.143.945A3.5,3.5,0,0,0,221.611-5.962ZM240.582,0h-2.417V-1.719h-.043A3.639,3.639,0,0,1,234.781.258a3.519,3.519,0,0,1-2.541-.881,3.081,3.081,0,0,1-.918-2.331q0-3.115,3.588-3.631l3.266-.462q0-2.353-2.234-2.353A5.308,5.308,0,0,0,232.4-8.046v-2.181a7.731,7.731,0,0,1,4.018-1.031q4.168,0,4.168,4.1Zm-2.406-5.4-2.31.322a3.661,3.661,0,0,0-1.617.521,1.522,1.522,0,0,0-.542,1.337,1.464,1.464,0,0,0,.5,1.144,1.934,1.934,0,0,0,1.337.446,2.468,2.468,0,0,0,1.885-.8,2.837,2.837,0,0,0,.747-2.014ZM253.419,0h-2.492V-6.2q0-3.083-2.181-3.083a2.381,2.381,0,0,0-1.88.854,3.168,3.168,0,0,0-.741,2.154V0h-2.5V-11h2.5v1.826h.043a3.921,3.921,0,0,1,3.566-2.084,3.322,3.322,0,0,1,2.739,1.166,5.234,5.234,0,0,1,.945,3.368Zm12.568-11L261.024,1.762q-1.547,3.416-4.34,3.416a5.2,5.2,0,0,1-1.311-.14V2.965a3.485,3.485,0,0,0,1.074.193,2.217,2.217,0,0,0,2.084-1.375l.741-1.8L254.9-11h2.761l2.621,7.992q.043.15.193.795h.054q.054-.247.193-.773L263.474-11Zm4.619-4.705-1.751,4.78h-1.644l1.214-4.78ZM271.1-.344v-2.31a4.972,4.972,0,0,0,3.083,1.063q2.256,0,2.256-1.332a1.05,1.05,0,0,0-.193-.639,1.846,1.846,0,0,0-.521-.467,4.1,4.1,0,0,0-.773-.365q-.446-.161-.994-.365a10.52,10.52,0,0,1-1.219-.569,3.683,3.683,0,0,1-.9-.682,2.575,2.575,0,0,1-.542-.865A3.184,3.184,0,0,1,271.111-8a2.607,2.607,0,0,1,.376-1.4,3.267,3.267,0,0,1,1.01-1.021,4.842,4.842,0,0,1,1.439-.623,6.59,6.59,0,0,1,1.665-.209,7.569,7.569,0,0,1,2.729.462v2.181a4.6,4.6,0,0,0-2.664-.795,3.479,3.479,0,0,0-.854.1,2.2,2.2,0,0,0-.65.269,1.321,1.321,0,0,0-.419.414.987.987,0,0,0-.15.532,1.136,1.136,0,0,0,.15.6,1.366,1.366,0,0,0,.446.435,3.85,3.85,0,0,0,.709.344q.414.156.951.338a13.89,13.89,0,0,1,1.273.591,4.3,4.3,0,0,1,.961.682,2.674,2.674,0,0,1,.612.881,2.991,2.991,0,0,1,.215,1.187,2.713,2.713,0,0,1-.387,1.461,3.223,3.223,0,0,1-1.031,1.031A4.827,4.827,0,0,1,276,.059a7.729,7.729,0,0,1-1.778.2A7.49,7.49,0,0,1,271.1-.344Z" transform="translate(175.997 193)" fill="#3b4d53"/><path d="M10.936-4.823h-7.5a3.17,3.17,0,0,0,.94,2.353,3.5,3.5,0,0,0,2.465.827A5.436,5.436,0,0,0,10.076-2.7V-.687A7.387,7.387,0,0,1,6.1.258a4.92,4.92,0,0,1-3.808-1.5A5.994,5.994,0,0,1,.913-5.457a5.861,5.861,0,0,1,1.52-4.184,4.972,4.972,0,0,1,3.776-1.617A4.335,4.335,0,0,1,9.7-9.808a6.021,6.021,0,0,1,1.235,4.028ZM8.529-6.585A3.211,3.211,0,0,0,7.9-8.674a2.118,2.118,0,0,0-1.719-.747,2.419,2.419,0,0,0-1.821.784,3.582,3.582,0,0,0-.918,2.052ZM12.622-.344v-2.31A4.972,4.972,0,0,0,15.705-1.59q2.256,0,2.256-1.332a1.05,1.05,0,0,0-.193-.639,1.846,1.846,0,0,0-.521-.467,4.1,4.1,0,0,0-.773-.365q-.446-.161-.994-.365a10.519,10.519,0,0,1-1.219-.569,3.684,3.684,0,0,1-.9-.682,2.575,2.575,0,0,1-.542-.865A3.184,3.184,0,0,1,12.633-8a2.607,2.607,0,0,1,.376-1.4,3.267,3.267,0,0,1,1.01-1.021,4.842,4.842,0,0,1,1.439-.623,6.59,6.59,0,0,1,1.665-.209,7.569,7.569,0,0,1,2.729.462v2.181a4.6,4.6,0,0,0-2.664-.795,3.479,3.479,0,0,0-.854.1,2.2,2.2,0,0,0-.65.269,1.321,1.321,0,0,0-.419.414.987.987,0,0,0-.15.532,1.136,1.136,0,0,0,.15.6,1.366,1.366,0,0,0,.446.435,3.851,3.851,0,0,0,.709.344q.414.156.951.338a13.89,13.89,0,0,1,1.273.591,4.3,4.3,0,0,1,.961.682,2.674,2.674,0,0,1,.612.881,2.991,2.991,0,0,1,.215,1.187,2.713,2.713,0,0,1-.387,1.461A3.223,3.223,0,0,1,19.014-.548a4.827,4.827,0,0,1-1.488.607,7.729,7.729,0,0,1-1.778.2A7.49,7.49,0,0,1,12.622-.344Zm9.485,0v-2.31A4.972,4.972,0,0,0,25.19-1.59q2.256,0,2.256-1.332a1.05,1.05,0,0,0-.193-.639,1.846,1.846,0,0,0-.521-.467,4.1,4.1,0,0,0-.773-.365q-.446-.161-.994-.365a10.519,10.519,0,0,1-1.219-.569,3.684,3.684,0,0,1-.9-.682,2.575,2.575,0,0,1-.542-.865A3.184,3.184,0,0,1,22.118-8a2.607,2.607,0,0,1,.376-1.4,3.267,3.267,0,0,1,1.01-1.021,4.842,4.842,0,0,1,1.439-.623,6.59,6.59,0,0,1,1.665-.209,7.569,7.569,0,0,1,2.729.462v2.181a4.6,4.6,0,0,0-2.664-.795,3.479,3.479,0,0,0-.854.1,2.2,2.2,0,0,0-.65.269,1.321,1.321,0,0,0-.419.414.987.987,0,0,0-.15.532,1.136,1.136,0,0,0,.15.6,1.366,1.366,0,0,0,.446.435,3.851,3.851,0,0,0,.709.344q.414.156.951.338a13.89,13.89,0,0,1,1.273.591,4.3,4.3,0,0,1,.961.682,2.674,2.674,0,0,1,.612.881,2.991,2.991,0,0,1,.215,1.187,2.713,2.713,0,0,1-.387,1.461A3.223,3.223,0,0,1,28.5-.548a4.827,4.827,0,0,1-1.488.607,7.729,7.729,0,0,1-1.778.2A7.49,7.49,0,0,1,22.107-.344ZM41.594-4.823H34.1a3.17,3.17,0,0,0,.94,2.353,3.5,3.5,0,0,0,2.465.827A5.436,5.436,0,0,0,40.734-2.7V-.687A7.387,7.387,0,0,1,36.76.258a4.92,4.92,0,0,1-3.808-1.5,5.994,5.994,0,0,1-1.38-4.216,5.861,5.861,0,0,1,1.52-4.184,4.972,4.972,0,0,1,3.776-1.617,4.335,4.335,0,0,1,3.491,1.45,6.021,6.021,0,0,1,1.235,4.028ZM39.188-6.585a3.211,3.211,0,0,0-.634-2.089,2.118,2.118,0,0,0-1.719-.747,2.419,2.419,0,0,0-1.821.784A3.582,3.582,0,0,0,34.1-6.585ZM53.765,0H51.272V-6.2q0-3.083-2.181-3.083a2.381,2.381,0,0,0-1.88.854,3.168,3.168,0,0,0-.741,2.154V0h-2.5V-11h2.5v1.826h.043a3.921,3.921,0,0,1,3.566-2.084,3.322,3.322,0,0,1,2.739,1.166,5.234,5.234,0,0,1,.945,3.368ZM64.679-.5a6.146,6.146,0,0,1-3.126.763A5.294,5.294,0,0,1,57.6-1.273a5.423,5.423,0,0,1-1.5-3.969,5.968,5.968,0,0,1,1.617-4.367,5.78,5.78,0,0,1,4.324-1.649,6.312,6.312,0,0,1,2.653.526v2.32a4.019,4.019,0,0,0-2.449-.859A3.4,3.4,0,0,0,59.651-8.2a3.908,3.908,0,0,0-1.01,2.8,3.727,3.727,0,0,0,.951,2.7,3.375,3.375,0,0,0,2.551.988,3.987,3.987,0,0,0,2.535-.956ZM76.463-4.823h-7.5a3.17,3.17,0,0,0,.94,2.353,3.5,3.5,0,0,0,2.465.827A5.436,5.436,0,0,0,75.6-2.7V-.687a7.387,7.387,0,0,1-3.975.945,4.92,4.92,0,0,1-3.808-1.5,5.994,5.994,0,0,1-1.38-4.216,5.861,5.861,0,0,1,1.52-4.184,4.972,4.972,0,0,1,3.776-1.617,4.335,4.335,0,0,1,3.491,1.45,6.021,6.021,0,0,1,1.235,4.028ZM74.057-6.585a3.211,3.211,0,0,0-.634-2.089A2.118,2.118,0,0,0,71.7-9.421a2.419,2.419,0,0,0-1.821.784,3.583,3.583,0,0,0-.918,2.052ZM89.762.258A5.452,5.452,0,0,1,85.7-1.284a5.569,5.569,0,0,1-1.52-4.087A5.794,5.794,0,0,1,85.76-9.7a5.826,5.826,0,0,1,4.27-1.558,5.277,5.277,0,0,1,4.018,1.515,5.851,5.851,0,0,1,1.439,4.2,5.765,5.765,0,0,1-1.552,4.216A5.576,5.576,0,0,1,89.762.258Zm.118-9.528A2.845,2.845,0,0,0,87.57-8.25a4.273,4.273,0,0,0-.849,2.814,4.025,4.025,0,0,0,.859,2.723,2.886,2.886,0,0,0,2.3.994A2.739,2.739,0,0,0,92.141-2.7a4.327,4.327,0,0,0,.79-2.782,4.393,4.393,0,0,0-.79-2.8A2.726,2.726,0,0,0,89.88-9.271ZM107.819,0h-2.492V-6.2q0-3.083-2.181-3.083a2.381,2.381,0,0,0-1.88.854,3.168,3.168,0,0,0-.741,2.154V0h-2.5V-11h2.5v1.826h.043a3.921,3.921,0,0,1,3.566-2.084,3.322,3.322,0,0,1,2.739,1.166,5.234,5.234,0,0,1,.945,3.368Zm14.889-.118a4.319,4.319,0,0,1-1.923.365q-3.2,0-3.2-3.072v-6.22h-1.837V-11h1.837v-2.546l2.492-.709V-11h2.632v1.955h-2.632v5.5a2.167,2.167,0,0,0,.354,1.4,1.472,1.472,0,0,0,1.182.419,1.713,1.713,0,0,0,1.1-.365ZM134.632,0H132.14V-6.016q0-3.266-2.181-3.266a2.281,2.281,0,0,0-1.848.945,3.763,3.763,0,0,0-.752,2.417V0h-2.5V-16.285h2.5v7.111h.043a3.936,3.936,0,0,1,3.566-2.084q3.663,0,3.663,4.479Zm12.343-4.823h-7.5a3.17,3.17,0,0,0,.94,2.353,3.5,3.5,0,0,0,2.465.827A5.436,5.436,0,0,0,146.115-2.7V-.687a7.387,7.387,0,0,1-3.975.945,4.92,4.92,0,0,1-3.808-1.5,5.994,5.994,0,0,1-1.38-4.216,5.861,5.861,0,0,1,1.52-4.184,4.972,4.972,0,0,1,3.776-1.617,4.335,4.335,0,0,1,3.491,1.45,6.021,6.021,0,0,1,1.235,4.028Zm-2.406-1.762a3.211,3.211,0,0,0-.634-2.089,2.118,2.118,0,0,0-1.719-.747,2.419,2.419,0,0,0-1.821.784,3.582,3.582,0,0,0-.918,2.052ZM170.188-11,166.944,0h-2.61l-2-7.455a4.721,4.721,0,0,1-.15-.967h-.043a4.408,4.408,0,0,1-.193.945L159.779,0h-2.557l-3.233-11h2.578l2,7.928a4.7,4.7,0,0,1,.129.945h.075a5.106,5.106,0,0,1,.172-.967L161.165-11h2.342l1.977,7.96a5.568,5.568,0,0,1,.14.945h.075a5.014,5.014,0,0,1,.161-.945L167.814-11Zm11.054,6.177h-7.5a3.17,3.17,0,0,0,.94,2.353,3.5,3.5,0,0,0,2.465.827A5.436,5.436,0,0,0,180.383-2.7V-.687a7.387,7.387,0,0,1-3.975.945,4.92,4.92,0,0,1-3.808-1.5,5.994,5.994,0,0,1-1.38-4.216,5.861,5.861,0,0,1,1.52-4.184,4.972,4.972,0,0,1,3.776-1.617,4.335,4.335,0,0,1,3.491,1.45,6.021,6.021,0,0,1,1.235,4.028Zm-2.406-1.762a3.211,3.211,0,0,0-.634-2.089,2.118,2.118,0,0,0-1.719-.747,2.419,2.419,0,0,0-1.821.784,3.582,3.582,0,0,0-.918,2.052Zm7.315,5h-.043V0h-2.492V-16.285h2.492v7.219h.043a4.084,4.084,0,0,1,3.738-2.191,3.936,3.936,0,0,1,3.26,1.477,6.176,6.176,0,0,1,1.176,3.958A6.894,6.894,0,0,1,193-1.4,4.365,4.365,0,0,1,189.4.258,3.543,3.543,0,0,1,186.151-1.59Zm-.064-4.372V-4.6a2.911,2.911,0,0,0,.768,2.041,2.529,2.529,0,0,0,1.95.838A2.547,2.547,0,0,0,190.98-2.8a5.024,5.024,0,0,0,.79-3.013,3.959,3.959,0,0,0-.736-2.541,2.418,2.418,0,0,0-1.993-.918,2.685,2.685,0,0,0-2.143.945A3.5,3.5,0,0,0,186.087-5.962ZM197.9.236a1.541,1.541,0,0,1-1.1-.424,1.345,1.345,0,0,1-.451-1.015,1.374,1.374,0,0,1,.451-1.031,1.53,1.53,0,0,1,1.1-.43,1.563,1.563,0,0,1,1.112.43,1.366,1.366,0,0,1,.457,1.031,1.338,1.338,0,0,1-.457,1.015A1.573,1.573,0,0,1,197.9.236Zm20.485-13.471h-4.426V0h-2.557V-13.234h-4.415V-15.4h11.4ZM230.141,0h-2.492V-6.016q0-3.266-2.181-3.266a2.281,2.281,0,0,0-1.848.945,3.763,3.763,0,0,0-.752,2.417V0h-2.5V-16.285h2.5v7.111h.043a3.936,3.936,0,0,1,3.566-2.084q3.663,0,3.663,4.479Zm11.473,0H239.2V-1.719h-.043A3.639,3.639,0,0,1,235.813.258a3.519,3.519,0,0,1-2.541-.881,3.081,3.081,0,0,1-.918-2.331q0-3.115,3.588-3.631l3.266-.462q0-2.353-2.234-2.353a5.308,5.308,0,0,0-3.545,1.354v-2.181a7.731,7.731,0,0,1,4.018-1.031q4.168,0,4.168,4.1Zm-2.406-5.4-2.31.322a3.661,3.661,0,0,0-1.617.521,1.522,1.522,0,0,0-.542,1.337,1.464,1.464,0,0,0,.5,1.144,1.934,1.934,0,0,0,1.337.446,2.468,2.468,0,0,0,1.885-.8,2.837,2.837,0,0,0,.747-2.014ZM254.45,0h-2.492V-6.2q0-3.083-2.181-3.083a2.381,2.381,0,0,0-1.88.854,3.168,3.168,0,0,0-.741,2.154V0h-2.5V-11h2.5v1.826h.043a3.921,3.921,0,0,1,3.566-2.084,3.322,3.322,0,0,1,2.739,1.166,5.234,5.234,0,0,1,.945,3.368Zm13.02,0h-3.158l-4.275-5.285h-.043V0h-2.5V-16.285h2.5V-5.962h.043L264.075-11h3l-4.544,5.307Zm.881-.344v-2.31a4.972,4.972,0,0,0,3.083,1.063q2.256,0,2.256-1.332a1.05,1.05,0,0,0-.193-.639,1.846,1.846,0,0,0-.521-.467,4.1,4.1,0,0,0-.773-.365q-.446-.161-.994-.365a10.52,10.52,0,0,1-1.219-.569,3.683,3.683,0,0,1-.9-.682,2.575,2.575,0,0,1-.542-.865A3.184,3.184,0,0,1,268.361-8a2.607,2.607,0,0,1,.376-1.4,3.267,3.267,0,0,1,1.01-1.021,4.842,4.842,0,0,1,1.439-.623,6.59,6.59,0,0,1,1.665-.209,7.569,7.569,0,0,1,2.729.462v2.181a4.6,4.6,0,0,0-2.664-.795,3.479,3.479,0,0,0-.854.1,2.2,2.2,0,0,0-.65.269,1.321,1.321,0,0,0-.419.414.987.987,0,0,0-.15.532,1.136,1.136,0,0,0,.15.6,1.366,1.366,0,0,0,.446.435,3.85,3.85,0,0,0,.709.344q.414.156.951.338a13.89,13.89,0,0,1,1.273.591,4.3,4.3,0,0,1,.961.682,2.674,2.674,0,0,1,.612.881,2.991,2.991,0,0,1,.215,1.187,2.713,2.713,0,0,1-.387,1.461,3.223,3.223,0,0,1-1.031,1.031,4.827,4.827,0,0,1-1.488.607,7.729,7.729,0,0,1-1.778.2A7.49,7.49,0,0,1,268.351-.344Zm22.44-13.911a2.266,2.266,0,0,0-1.149-.29q-1.815,0-1.815,2.052V-11h2.557v1.955h-2.546V0h-2.492V-9.045h-1.88V-11h1.88v-1.783a3.472,3.472,0,0,1,1.139-2.745,4.147,4.147,0,0,1,2.847-1,4.227,4.227,0,0,1,1.461.2ZM297.032.258a5.452,5.452,0,0,1-4.066-1.542,5.569,5.569,0,0,1-1.52-4.087A5.794,5.794,0,0,1,293.031-9.7a5.826,5.826,0,0,1,4.27-1.558,5.277,5.277,0,0,1,4.018,1.515,5.851,5.851,0,0,1,1.439,4.2,5.765,5.765,0,0,1-1.552,4.216A5.576,5.576,0,0,1,297.032.258Zm.118-9.528a2.845,2.845,0,0,0-2.31,1.021,4.273,4.273,0,0,0-.849,2.814,4.025,4.025,0,0,0,.859,2.723,2.886,2.886,0,0,0,2.3.994,2.739,2.739,0,0,0,2.261-.978,4.327,4.327,0,0,0,.79-2.782,4.393,4.393,0,0,0-.79-2.8A2.726,2.726,0,0,0,297.15-9.271Zm14.523.645a2.066,2.066,0,0,0-1.3-.354,2.225,2.225,0,0,0-1.848,1,4.467,4.467,0,0,0-.741,2.718V0h-2.492V-11h2.492v2.267h.043a3.832,3.832,0,0,1,1.123-1.81,2.534,2.534,0,0,1,1.692-.65,2.1,2.1,0,0,1,1.031.2Z" transform="translate(159.997 223)" fill="#3b4d53"/><path d="M11.623,0H9.131V-1.869H9.088A3.975,3.975,0,0,1,5.382.258a4,4,0,0,1-3.25-1.477A6.132,6.132,0,0,1,.913-5.242,6.68,6.68,0,0,1,2.261-9.614a4.412,4.412,0,0,1,3.593-1.644A3.441,3.441,0,0,1,9.088-9.475h.043v-6.811h2.492ZM9.163-5.027V-6.467A2.8,2.8,0,0,0,8.4-8.454a2.544,2.544,0,0,0-1.944-.816,2.618,2.618,0,0,0-2.2,1.042,4.643,4.643,0,0,0-.8,2.89,4.161,4.161,0,0,0,.768,2.648,2.5,2.5,0,0,0,2.068.972,2.586,2.586,0,0,0,2.073-.94A3.541,3.541,0,0,0,9.163-5.027ZM19.755.258a5.452,5.452,0,0,1-4.066-1.542,5.569,5.569,0,0,1-1.52-4.087A5.794,5.794,0,0,1,15.753-9.7a5.826,5.826,0,0,1,4.27-1.558,5.277,5.277,0,0,1,4.018,1.515,5.851,5.851,0,0,1,1.439,4.2,5.765,5.765,0,0,1-1.552,4.216A5.576,5.576,0,0,1,19.755.258Zm.118-9.528a2.845,2.845,0,0,0-2.31,1.021,4.273,4.273,0,0,0-.849,2.814,4.025,4.025,0,0,0,.859,2.723,2.886,2.886,0,0,0,2.3.994A2.739,2.739,0,0,0,22.134-2.7a4.327,4.327,0,0,0,.79-2.782,4.393,4.393,0,0,0-.79-2.8A2.726,2.726,0,0,0,19.873-9.271Zm9.4-4.039a1.5,1.5,0,0,1-1.047-.4,1.308,1.308,0,0,1-.435-1.01,1.341,1.341,0,0,1,.435-1.021,1.476,1.476,0,0,1,1.047-.408,1.522,1.522,0,0,1,1.074.408,1.334,1.334,0,0,1,.44,1.021,1.315,1.315,0,0,1-.44.994A1.511,1.511,0,0,1,29.272-13.31ZM30.508,0H28.016V-11h2.492ZM43.56,0H41.067V-6.2q0-3.083-2.181-3.083a2.381,2.381,0,0,0-1.88.854,3.168,3.168,0,0,0-.741,2.154V0h-2.5V-11h2.5v1.826h.043a3.921,3.921,0,0,1,3.566-2.084,3.322,3.322,0,0,1,2.739,1.166,5.234,5.234,0,0,1,.945,3.368ZM56.611-.881q0,6.059-6.091,6.059a9.071,9.071,0,0,1-3.749-.72V2.181A6.937,6.937,0,0,0,50.2,3.212q3.921,0,3.921-3.856v-1.2h-.043A4.036,4.036,0,0,1,50.359.258a4.02,4.02,0,0,1-3.239-1.466,5.929,5.929,0,0,1-1.23-3.937A6.944,6.944,0,0,1,47.212-9.6a4.393,4.393,0,0,1,3.631-1.654,3.5,3.5,0,0,1,3.233,1.783h.043V-11h2.492ZM54.141-5.038V-6.467a2.8,2.8,0,0,0-.768-1.982,2.516,2.516,0,0,0-1.917-.822,2.635,2.635,0,0,0-2.218,1.047,4.726,4.726,0,0,0-.8,2.927A4.068,4.068,0,0,0,49.2-2.7a2.465,2.465,0,0,0,2.036.972,2.642,2.642,0,0,0,2.095-.929A3.5,3.5,0,0,0,54.141-5.038ZM71.7-.118a4.319,4.319,0,0,1-1.923.365q-3.2,0-3.2-3.072v-6.22H64.743V-11H66.58v-2.546l2.492-.709V-11H71.7v1.955H69.072v5.5a2.167,2.167,0,0,0,.354,1.4,1.472,1.472,0,0,0,1.182.419,1.713,1.713,0,0,0,1.1-.365ZM83.628,0H81.136V-6.016q0-3.266-2.181-3.266a2.281,2.281,0,0,0-1.848.945,3.763,3.763,0,0,0-.752,2.417V0h-2.5V-16.285h2.5v7.111H76.4a3.936,3.936,0,0,1,3.566-2.084q3.663,0,3.663,4.479Zm4.286-13.31a1.5,1.5,0,0,1-1.047-.4,1.308,1.308,0,0,1-.435-1.01,1.341,1.341,0,0,1,.435-1.021,1.476,1.476,0,0,1,1.047-.408,1.522,1.522,0,0,1,1.074.408,1.334,1.334,0,0,1,.44,1.021,1.315,1.315,0,0,1-.44.994A1.511,1.511,0,0,1,87.914-13.31ZM89.149,0H86.657V-11h2.492Zm2.567-.344v-2.31A4.972,4.972,0,0,0,94.8-1.59q2.256,0,2.256-1.332a1.05,1.05,0,0,0-.193-.639,1.846,1.846,0,0,0-.521-.467,4.1,4.1,0,0,0-.773-.365q-.446-.161-.994-.365a10.52,10.52,0,0,1-1.219-.569,3.684,3.684,0,0,1-.9-.682,2.575,2.575,0,0,1-.542-.865A3.184,3.184,0,0,1,91.728-8,2.607,2.607,0,0,1,92.1-9.4a3.267,3.267,0,0,1,1.01-1.021,4.842,4.842,0,0,1,1.439-.623,6.59,6.59,0,0,1,1.665-.209,7.569,7.569,0,0,1,2.729.462v2.181a4.6,4.6,0,0,0-2.664-.795,3.479,3.479,0,0,0-.854.1,2.2,2.2,0,0,0-.65.269,1.321,1.321,0,0,0-.419.414.987.987,0,0,0-.15.532,1.136,1.136,0,0,0,.15.6,1.366,1.366,0,0,0,.446.435,3.85,3.85,0,0,0,.709.344q.414.156.951.338a13.89,13.89,0,0,1,1.273.591,4.3,4.3,0,0,1,.961.682,2.674,2.674,0,0,1,.612.881,2.991,2.991,0,0,1,.215,1.187,2.713,2.713,0,0,1-.387,1.461A3.223,3.223,0,0,1,98.108-.548a4.827,4.827,0,0,1-1.488.607,7.729,7.729,0,0,1-1.778.2A7.49,7.49,0,0,1,91.717-.344Zm23.45.559A1.58,1.58,0,0,1,114.56.1a1.492,1.492,0,0,1-.478-.312,1.418,1.418,0,0,1-.317-.462,1.39,1.39,0,0,1-.113-.553,1.424,1.424,0,0,1,.118-.58,1.411,1.411,0,0,1,.322-.462,1.525,1.525,0,0,1,.483-.306,1.591,1.591,0,0,1,.6-.113,1.7,1.7,0,0,1,.607.107,1.5,1.5,0,0,1,.494.3,1.374,1.374,0,0,1,.328.462,1.451,1.451,0,0,1,.118.591,1.387,1.387,0,0,1-.118.575,1.389,1.389,0,0,1-.328.457,1.5,1.5,0,0,1-.494.3A1.736,1.736,0,0,1,115.167.215Zm-5.973,0a1.591,1.591,0,0,1-.6-.113,1.525,1.525,0,0,1-.483-.306,1.427,1.427,0,0,1-.322-.457,1.361,1.361,0,0,1-.118-.564,1.451,1.451,0,0,1,.118-.591,1.374,1.374,0,0,1,.328-.462,1.514,1.514,0,0,1,.489-.3,1.661,1.661,0,0,1,.6-.107,1.632,1.632,0,0,1,.607.113,1.526,1.526,0,0,1,.494.312,1.449,1.449,0,0,1,.328.462,1.387,1.387,0,0,1,.118.575,1.361,1.361,0,0,1-.118.564,1.389,1.389,0,0,1-.328.457,1.576,1.576,0,0,1-.494.306A1.662,1.662,0,0,1,109.194.215Zm-5.973,0a1.591,1.591,0,0,1-.6-.113,1.417,1.417,0,0,1-.478-.312,1.46,1.46,0,0,1-.312-.462,1.39,1.39,0,0,1-.113-.553,1.444,1.444,0,0,1,.113-.575,1.46,1.46,0,0,1,.312-.462,1.417,1.417,0,0,1,.478-.312,1.62,1.62,0,0,1,.612-.113,1.632,1.632,0,0,1,.607.113,1.526,1.526,0,0,1,.494.312,1.449,1.449,0,0,1,.328.462,1.387,1.387,0,0,1,.118.575,1.361,1.361,0,0,1-.118.564,1.389,1.389,0,0,1-.328.457,1.576,1.576,0,0,1-.494.306A1.662,1.662,0,0,1,103.222.215Z" transform="translate(256.997 253)" fill="#3b4d53"/></g></g></svg>