<svg xmlns="http://www.w3.org/2000/svg" xmlns:xlink="http://www.w3.org/1999/xlink" width="642.006" height="363.422" viewBox="0 0 642.006 363.422"><defs><filter id="a" x="0" y="0" width="642.006" height="363.422" filterUnits="userSpaceOnUse"><feOffset input="SourceAlpha"/><feGaussianBlur stdDeviation="7" result="b"/><feFlood flood-opacity="0.212"/><feComposite operator="in" in2="b"/><feComposite in="SourceGraphic"/></filter></defs><g transform="translate(21.003 21)"><g transform="matrix(1, 0, 0, 1, -21, -21)" filter="url(#a)"><path d="M8.4,9.025H277.312L300.414-34,322.941,9.025H591.6a8.638,8.638,0,0,1,8.4,8.858V278.564a8.638,8.638,0,0,1-8.4,8.858H8.4A8.638,8.638,0,0,1,0,278.564V17.883A8.638,8.638,0,0,1,8.4,9.025Z" transform="translate(21 55)" fill="#fff"/></g><g transform="translate(10 64.442)"><g transform="translate(0.449 0.449)"><path d="M292.933,37v4.467q-4.3.391-4.3,6.225H292a1.8,1.8,0,0,1,1.8,1.8v5.39a1.8,1.8,0,0,1-1.8,1.8h-6.2a1.8,1.8,0,0,1-1.8-1.8V48Q284,37.5,292.933,37Z" transform="translate(-284 -37)" fill="#46ea72"/><path d="M18.933,37v4.467q-4.3.391-4.3,6.225H18a1.8,1.8,0,0,1,1.8,1.8v5.39a1.8,1.8,0,0,1-1.8,1.8H11.8a1.8,1.8,0,0,1-1.8-1.8V48Q10,37.5,18.933,37Z" transform="translate(2.309 -37)" fill="#46ea72"/></g><path d="M9.382,27a.449.449,0,0,1,.449.449v4.467a.449.449,0,0,1-.409.447c-2.508.228-3.782,1.973-3.884,5.329H8.445a2.249,2.249,0,0,1,2.246,2.246v5.39a2.249,2.249,0,0,1-2.246,2.246h-6.2A2.249,2.249,0,0,1,0,45.328V43.891a.45.45,0,0,1,.9,0v1.438a1.349,1.349,0,0,0,1.348,1.348h6.2A1.349,1.349,0,0,0,9.8,45.329v-5.39A1.349,1.349,0,0,0,8.445,38.59H5.083a.449.449,0,0,1-.449-.449,8.3,8.3,0,0,1,1.154-4.729,4.489,4.489,0,0,1,3.145-1.894V27.932C3.528,28.416.9,31.861.9,38.448v1.609a.45.45,0,1,1-.9,0V38.448c0-3.588.785-6.374,2.334-8.281A9.267,9.267,0,0,1,9.357,27Z" transform="translate(12.309 -27)" fill="#34c75c"/><path d="M276.246,47.574h6.2a2.249,2.249,0,0,0,2.246-2.246v-5.39a2.249,2.249,0,0,0-2.246-2.246H279.54c.1-3.356,1.376-5.1,3.884-5.329a.449.449,0,0,0,.409-.447V27.449a.449.449,0,0,0-.449-.449h-.025a9.267,9.267,0,0,0-7.023,3.166C274.785,32.074,274,34.86,274,38.448v6.88a2.249,2.249,0,0,0,2.246,2.246ZM274.9,38.448c0-6.588,2.629-10.032,8.035-10.516v3.586a4.488,4.488,0,0,0-3.145,1.894,8.3,8.3,0,0,0-1.154,4.729.449.449,0,0,0,.449.449h3.362a1.349,1.349,0,0,1,1.348,1.348v5.39a1.349,1.349,0,0,1-1.348,1.348h-5.391V43.35a.45.45,0,1,0-.9,0v3.322a1.349,1.349,0,0,1-1.258-1.344Z" transform="translate(-274 -27)" fill="#34c75c"/><path d="M444.449,145.751a.45.45,0,1,1-.449.454h0a.449.449,0,0,1,.449-.454Z" transform="translate(-441.844 -131.412)" fill="#34c75c"/><path d="M218.449,141.666a.449.449,0,0,1,.449.449v.009a.45.45,0,1,1-.9,0v-.009a.449.449,0,0,1,.451-.449Z" transform="translate(-205.691 -127.151)" fill="#34c75c"/></g><g transform="translate(566 284.422)"><g transform="translate(0.449 0.449)"><path d="M284.86,56.676V52.209q4.3-.391,4.3-6.225H285.8a1.8,1.8,0,0,1-1.8-1.8V38.8a1.8,1.8,0,0,1,1.8-1.8H292a1.8,1.8,0,0,1,1.8,1.8v6.88Q293.793,56.173,284.86,56.676Z" transform="translate(-271.691 -37)" fill="#46ea72"/><path d="M10.86,56.676V52.209q4.3-.391,4.3-6.225H11.8a1.8,1.8,0,0,1-1.8-1.8V38.8A1.8,1.8,0,0,1,11.8,37H18a1.8,1.8,0,0,1,1.8,1.8v6.88Q19.793,56.173,10.86,56.676Z" transform="translate(-10 -37)" fill="#46ea72"/></g><path d="M1.309,47.574a.449.449,0,0,1-.449-.449V42.658a.449.449,0,0,1,.409-.447c2.508-.228,3.782-1.973,3.884-5.329H2.246A2.249,2.249,0,0,1,0,34.636v-5.39A2.249,2.249,0,0,1,2.246,27h6.2a2.249,2.249,0,0,1,2.246,2.246v1.437a.45.45,0,1,1-.9,0V29.246A1.349,1.349,0,0,0,8.445,27.9h-6.2A1.349,1.349,0,0,0,.9,29.246v5.39a1.349,1.349,0,0,0,1.348,1.348h3.36a.449.449,0,0,1,.449.449A8.3,8.3,0,0,1,4.9,41.162a4.489,4.489,0,0,1-3.145,1.894v3.586c5.4-.484,8.035-3.929,8.035-10.516V34.517a.45.45,0,1,1,.9,0v1.609c0,3.588-.785,6.374-2.334,8.281a9.267,9.267,0,0,1-7.023,3.166Z" transform="translate(0 -27)" fill="#34c75c"/><path d="M282.445,27h-6.2A2.249,2.249,0,0,0,274,29.246v5.39a2.249,2.249,0,0,0,2.246,2.246h2.906c-.1,3.356-1.376,5.1-3.884,5.329a.449.449,0,0,0-.409.447v4.467a.449.449,0,0,0,.449.449h.025a9.267,9.267,0,0,0,7.023-3.166c1.549-1.907,2.334-4.693,2.334-8.281v-6.88A2.249,2.249,0,0,0,282.445,27Zm1.348,9.126c0,6.588-2.629,10.032-8.035,10.516V43.056a4.488,4.488,0,0,0,3.145-1.894,8.3,8.3,0,0,0,1.154-4.729.449.449,0,0,0-.449-.449h-3.362a1.349,1.349,0,0,1-1.348-1.348v-5.39a1.349,1.349,0,0,1,1.348-1.348h5.391v3.326a.45.45,0,1,0,.9,0V27.9a1.349,1.349,0,0,1,1.258,1.344Z" transform="translate(-261.691 -27)" fill="#34c75c"/><path d="M444.449,146.652a.45.45,0,1,1,.449-.454h0a.449.449,0,0,1-.449.454Z" transform="translate(-424.055 -140.416)" fill="#34c75c"/><path d="M218.449,142.574a.449.449,0,0,1-.449-.449v-.009a.45.45,0,0,1,.9,0v.009a.449.449,0,0,1-.451.449Z" transform="translate(-208.207 -136.515)" fill="#34c75c"/></g><g transform="translate(-16.08 41)"><path d="M11.784-13.234H7.358V0H4.8V-13.234H.387V-15.4h11.4ZM23.536,0H21.044V-6.016q0-3.266-2.181-3.266a2.281,2.281,0,0,0-1.848.945,3.763,3.763,0,0,0-.752,2.417V0h-2.5V-16.285h2.5v7.111h.043a3.936,3.936,0,0,1,3.566-2.084q3.663,0,3.663,4.479ZM35.879-4.823h-7.5a3.17,3.17,0,0,0,.94,2.353,3.5,3.5,0,0,0,2.465.827A5.436,5.436,0,0,0,35.02-2.7V-.687a7.387,7.387,0,0,1-3.975.945,4.92,4.92,0,0,1-3.808-1.5,5.994,5.994,0,0,1-1.38-4.216,5.861,5.861,0,0,1,1.52-4.184,4.972,4.972,0,0,1,3.776-1.617,4.335,4.335,0,0,1,3.491,1.45,6.021,6.021,0,0,1,1.235,4.028ZM33.473-6.585a3.211,3.211,0,0,0-.634-2.089,2.118,2.118,0,0,0-1.719-.747,2.419,2.419,0,0,0-1.821.784,3.582,3.582,0,0,0-.918,2.052ZM54.076,0H51.584V-6.016q0-3.266-2.181-3.266a2.281,2.281,0,0,0-1.848.945A3.763,3.763,0,0,0,46.8-5.919V0H44.3V-16.285h2.5v7.111h.043a3.936,3.936,0,0,1,3.566-2.084q3.663,0,3.663,4.479Zm4.286-13.31a1.5,1.5,0,0,1-1.047-.4,1.308,1.308,0,0,1-.435-1.01,1.341,1.341,0,0,1,.435-1.021,1.476,1.476,0,0,1,1.047-.408,1.522,1.522,0,0,1,1.074.408,1.334,1.334,0,0,1,.44,1.021,1.315,1.315,0,0,1-.44.994A1.511,1.511,0,0,1,58.362-13.31ZM59.6,0H57.105V-11H59.6ZM72.864-.881q0,6.059-6.091,6.059a9.071,9.071,0,0,1-3.749-.72V2.181a6.937,6.937,0,0,0,3.427,1.031q3.921,0,3.921-3.856v-1.2h-.043A4.036,4.036,0,0,1,66.612.258a4.02,4.02,0,0,1-3.239-1.466,5.929,5.929,0,0,1-1.23-3.937A6.944,6.944,0,0,1,63.465-9.6,4.393,4.393,0,0,1,67.1-11.258a3.5,3.5,0,0,1,3.233,1.783h.043V-11h2.492ZM70.394-5.038V-6.467a2.8,2.8,0,0,0-.768-1.982,2.516,2.516,0,0,0-1.917-.822A2.635,2.635,0,0,0,65.49-8.223a4.726,4.726,0,0,0-.8,2.927A4.068,4.068,0,0,0,65.458-2.7a2.465,2.465,0,0,0,2.036.972,2.642,2.642,0,0,0,2.095-.929A3.5,3.5,0,0,0,70.394-5.038ZM85.884,0H83.392V-6.016q0-3.266-2.181-3.266a2.281,2.281,0,0,0-1.848.945,3.763,3.763,0,0,0-.752,2.417V0h-2.5V-16.285h2.5v7.111h.043a3.936,3.936,0,0,1,3.566-2.084q3.663,0,3.663,4.479Zm5.532,0h-2.5V-16.285h2.5Zm12.772-11L99.226,1.762q-1.547,3.416-4.34,3.416a5.2,5.2,0,0,1-1.311-.14V2.965a3.485,3.485,0,0,0,1.074.193,2.217,2.217,0,0,0,2.084-1.375l.741-1.8L93.1-11h2.761l2.621,7.992q.043.15.193.795h.054q.054-.247.193-.773L101.675-11Zm10.237,9.378h-.043V5.06h-2.492V-11h2.492v1.934h.043a4.084,4.084,0,0,1,3.738-2.191,3.938,3.938,0,0,1,3.266,1.472A6.172,6.172,0,0,1,122.6-5.833a6.853,6.853,0,0,1-1.321,4.4A4.37,4.37,0,0,1,117.67.226,3.6,3.6,0,0,1,114.426-1.622Zm-.064-4.34V-4.6a2.911,2.911,0,0,0,.768,2.041,2.529,2.529,0,0,0,1.95.838,2.547,2.547,0,0,0,2.175-1.08,5.024,5.024,0,0,0,.79-3.013,3.959,3.959,0,0,0-.736-2.541,2.418,2.418,0,0,0-1.993-.918,2.685,2.685,0,0,0-2.143.945A3.5,3.5,0,0,0,114.361-5.962Zm17.166-2.664a2.066,2.066,0,0,0-1.3-.354,2.225,2.225,0,0,0-1.848,1,4.467,4.467,0,0,0-.741,2.718V0h-2.492V-11h2.492v2.267h.043a3.832,3.832,0,0,1,1.123-1.81,2.534,2.534,0,0,1,1.692-.65,2.1,2.1,0,0,1,1.031.2ZM137.973.258a5.452,5.452,0,0,1-4.066-1.542,5.568,5.568,0,0,1-1.52-4.087A5.794,5.794,0,0,1,133.971-9.7a5.826,5.826,0,0,1,4.27-1.558,5.277,5.277,0,0,1,4.018,1.515,5.851,5.851,0,0,1,1.439,4.2,5.765,5.765,0,0,1-1.552,4.216A5.576,5.576,0,0,1,137.973.258Zm.118-9.528a2.845,2.845,0,0,0-2.31,1.021,4.273,4.273,0,0,0-.849,2.814,4.025,4.025,0,0,0,.859,2.723,2.886,2.886,0,0,0,2.3.994,2.739,2.739,0,0,0,2.261-.978,4.327,4.327,0,0,0,.79-2.782,4.393,4.393,0,0,0-.79-2.8A2.726,2.726,0,0,0,138.091-9.271Zm14-4.984a2.266,2.266,0,0,0-1.149-.29q-1.815,0-1.815,2.052V-11h2.557v1.955h-2.546V0h-2.492V-9.045h-1.88V-11h1.88v-1.783a3.472,3.472,0,0,1,1.139-2.745,4.146,4.146,0,0,1,2.847-1,4.227,4.227,0,0,1,1.461.2Zm10.678,9.432h-7.5a3.17,3.17,0,0,0,.94,2.353,3.5,3.5,0,0,0,2.465.827A5.436,5.436,0,0,0,161.906-2.7V-.687a7.387,7.387,0,0,1-3.975.945,4.92,4.92,0,0,1-3.808-1.5,5.994,5.994,0,0,1-1.38-4.216,5.861,5.861,0,0,1,1.52-4.184,4.972,4.972,0,0,1,3.776-1.617,4.335,4.335,0,0,1,3.491,1.45,6.021,6.021,0,0,1,1.235,4.028Zm-2.406-1.762a3.211,3.211,0,0,0-.634-2.089,2.118,2.118,0,0,0-1.719-.747,2.419,2.419,0,0,0-1.821.784,3.582,3.582,0,0,0-.918,2.052Zm4.093,6.241v-2.31a4.972,4.972,0,0,0,3.083,1.063q2.256,0,2.256-1.332a1.05,1.05,0,0,0-.193-.639,1.846,1.846,0,0,0-.521-.467,4.1,4.1,0,0,0-.773-.365q-.446-.161-.994-.365a10.519,10.519,0,0,1-1.219-.569,3.684,3.684,0,0,1-.9-.682,2.575,2.575,0,0,1-.542-.865A3.184,3.184,0,0,1,164.463-8a2.607,2.607,0,0,1,.376-1.4,3.267,3.267,0,0,1,1.01-1.021,4.842,4.842,0,0,1,1.439-.623,6.59,6.59,0,0,1,1.665-.209,7.569,7.569,0,0,1,2.729.462v2.181a4.6,4.6,0,0,0-2.664-.795,3.479,3.479,0,0,0-.854.1,2.2,2.2,0,0,0-.65.269,1.321,1.321,0,0,0-.419.414.987.987,0,0,0-.15.532,1.136,1.136,0,0,0,.15.6,1.366,1.366,0,0,0,.446.435,3.851,3.851,0,0,0,.709.344q.414.156.951.338a13.89,13.89,0,0,1,1.273.591,4.3,4.3,0,0,1,.961.682,2.674,2.674,0,0,1,.612.881,2.991,2.991,0,0,1,.215,1.187,2.713,2.713,0,0,1-.387,1.461,3.223,3.223,0,0,1-1.031,1.031,4.827,4.827,0,0,1-1.488.607,7.729,7.729,0,0,1-1.778.2A7.49,7.49,0,0,1,164.452-.344Zm9.485,0v-2.31a4.972,4.972,0,0,0,3.083,1.063q2.256,0,2.256-1.332a1.05,1.05,0,0,0-.193-.639,1.846,1.846,0,0,0-.521-.467,4.1,4.1,0,0,0-.773-.365q-.446-.161-.994-.365a10.519,10.519,0,0,1-1.219-.569,3.684,3.684,0,0,1-.9-.682,2.575,2.575,0,0,1-.542-.865A3.184,3.184,0,0,1,173.948-8a2.607,2.607,0,0,1,.376-1.4,3.267,3.267,0,0,1,1.01-1.021,4.842,4.842,0,0,1,1.439-.623,6.59,6.59,0,0,1,1.665-.209,7.569,7.569,0,0,1,2.729.462v2.181A4.6,4.6,0,0,0,178.5-9.41a3.479,3.479,0,0,0-.854.1,2.2,2.2,0,0,0-.65.269,1.321,1.321,0,0,0-.419.414.987.987,0,0,0-.15.532,1.136,1.136,0,0,0,.15.6,1.366,1.366,0,0,0,.446.435,3.851,3.851,0,0,0,.709.344q.414.156.951.338a13.89,13.89,0,0,1,1.273.591,4.3,4.3,0,0,1,.961.682,2.674,2.674,0,0,1,.612.881,2.991,2.991,0,0,1,.215,1.187,2.713,2.713,0,0,1-.387,1.461,3.223,3.223,0,0,1-1.031,1.031,4.827,4.827,0,0,1-1.488.607,7.729,7.729,0,0,1-1.778.2A7.49,7.49,0,0,1,173.938-.344Zm11.43-12.966a1.5,1.5,0,0,1-1.047-.4,1.308,1.308,0,0,1-.435-1.01,1.341,1.341,0,0,1,.435-1.021,1.476,1.476,0,0,1,1.047-.408,1.522,1.522,0,0,1,1.074.408,1.334,1.334,0,0,1,.44,1.021,1.315,1.315,0,0,1-.44.994A1.511,1.511,0,0,1,185.367-13.31ZM186.6,0H184.11V-11H186.6Zm8.132.258a5.452,5.452,0,0,1-4.066-1.542,5.568,5.568,0,0,1-1.52-4.087A5.794,5.794,0,0,1,190.733-9.7,5.826,5.826,0,0,1,195-11.258a5.277,5.277,0,0,1,4.018,1.515,5.851,5.851,0,0,1,1.439,4.2,5.765,5.765,0,0,1-1.552,4.216A5.576,5.576,0,0,1,194.734.258Zm.118-9.528a2.845,2.845,0,0,0-2.31,1.021,4.273,4.273,0,0,0-.849,2.814,4.025,4.025,0,0,0,.859,2.723,2.886,2.886,0,0,0,2.3.994,2.739,2.739,0,0,0,2.261-.978,4.327,4.327,0,0,0,.79-2.782,4.393,4.393,0,0,0-.79-2.8A2.726,2.726,0,0,0,194.853-9.271ZM212.792,0H210.3V-6.2q0-3.083-2.181-3.083a2.381,2.381,0,0,0-1.88.854,3.168,3.168,0,0,0-.741,2.154V0H203V-11h2.5v1.826h.043a3.921,3.921,0,0,1,3.566-2.084,3.322,3.322,0,0,1,2.739,1.166,5.234,5.234,0,0,1,.945,3.368Zm11.483,0h-2.417V-1.719h-.043A3.639,3.639,0,0,1,218.475.258a3.519,3.519,0,0,1-2.541-.881,3.081,3.081,0,0,1-.918-2.331q0-3.115,3.588-3.631l3.266-.462q0-2.353-2.234-2.353a5.308,5.308,0,0,0-3.545,1.354v-2.181a7.731,7.731,0,0,1,4.018-1.031q4.168,0,4.168,4.1Zm-2.406-5.4-2.31.322a3.661,3.661,0,0,0-1.617.521,1.522,1.522,0,0,0-.542,1.337,1.464,1.464,0,0,0,.5,1.144,1.934,1.934,0,0,0,1.337.446,2.468,2.468,0,0,0,1.885-.8,2.837,2.837,0,0,0,.747-2.014ZM229.818,0h-2.5V-16.285h2.5Zm15.093-.118a4.319,4.319,0,0,1-1.923.365q-3.2,0-3.2-3.072v-6.22H237.95V-11h1.837v-2.546l2.492-.709V-11h2.632v1.955h-2.632v5.5a2.167,2.167,0,0,0,.354,1.4,1.472,1.472,0,0,0,1.182.419,1.713,1.713,0,0,0,1.1-.365Zm11.333-4.705h-7.5a3.17,3.17,0,0,0,.94,2.353,3.5,3.5,0,0,0,2.465.827A5.436,5.436,0,0,0,255.385-2.7V-.687a7.387,7.387,0,0,1-3.975.945,4.92,4.92,0,0,1-3.808-1.5,5.994,5.994,0,0,1-1.38-4.216,5.861,5.861,0,0,1,1.52-4.184,4.972,4.972,0,0,1,3.776-1.617,4.335,4.335,0,0,1,3.491,1.45,6.021,6.021,0,0,1,1.235,4.028Zm-2.406-1.762a3.211,3.211,0,0,0-.634-2.089,2.118,2.118,0,0,0-1.719-.747,2.419,2.419,0,0,0-1.821.784,3.582,3.582,0,0,0-.918,2.052ZM267.062,0h-2.417V-1.719H264.6A3.639,3.639,0,0,1,261.261.258a3.519,3.519,0,0,1-2.541-.881,3.081,3.081,0,0,1-.918-2.331q0-3.115,3.588-3.631l3.266-.462q0-2.353-2.234-2.353a5.308,5.308,0,0,0-3.545,1.354v-2.181a7.731,7.731,0,0,1,4.018-1.031q4.168,0,4.168,4.1Zm-2.406-5.4-2.31.322a3.661,3.661,0,0,0-1.617.521,1.522,1.522,0,0,0-.542,1.337,1.464,1.464,0,0,0,.5,1.144,1.934,1.934,0,0,0,1.337.446,2.468,2.468,0,0,0,1.885-.8,2.838,2.838,0,0,0,.747-2.014ZM286.548,0h-2.492V-5.994a4.858,4.858,0,0,0-.489-2.5,1.8,1.8,0,0,0-1.649-.773,1.987,1.987,0,0,0-1.66.978,3.989,3.989,0,0,0-.682,2.342V0h-2.5V-6.2q0-3.072-2.17-3.072a1.957,1.957,0,0,0-1.66.924,4.074,4.074,0,0,0-.65,2.4V0H270.1V-11h2.492v1.74h.043a3.811,3.811,0,0,1,3.47-2,3.271,3.271,0,0,1,1.993.628,3.13,3.13,0,0,1,1.166,1.649,3.925,3.925,0,0,1,3.652-2.277q3.631,0,3.631,4.479Zm17.531,0h-2.417V-1.719h-.043A3.639,3.639,0,0,1,298.278.258a3.519,3.519,0,0,1-2.541-.881,3.081,3.081,0,0,1-.918-2.331q0-3.115,3.588-3.631l3.266-.462q0-2.353-2.234-2.353a5.308,5.308,0,0,0-3.545,1.354v-2.181a7.731,7.731,0,0,1,4.018-1.031q4.168,0,4.168,4.1Zm-2.406-5.4-2.31.322a3.661,3.661,0,0,0-1.617.521,1.522,1.522,0,0,0-.542,1.337,1.464,1.464,0,0,0,.5,1.144,1.934,1.934,0,0,0,1.337.446,2.468,2.468,0,0,0,1.885-.8,2.838,2.838,0,0,0,.747-2.014ZM312.92-.118A4.319,4.319,0,0,1,311,.247q-3.2,0-3.2-3.072v-6.22h-1.837V-11H307.8v-2.546l2.492-.709V-11h2.632v1.955h-2.632v5.5a2.167,2.167,0,0,0,.354,1.4,1.472,1.472,0,0,0,1.182.419,1.713,1.713,0,0,0,1.1-.365ZM333.051,0h-3.33l-5.36-7.047A3.89,3.89,0,0,1,324-7.584h-.043V0H321.4V-15.4h2.557v7.24H324a3.543,3.543,0,0,1,.365-.526l5.167-6.714h3.062l-6.048,7.391Zm15.737-11L345.544,0h-2.61l-2-7.455a4.722,4.722,0,0,1-.15-.967h-.043a4.406,4.406,0,0,1-.193.945L338.379,0h-2.557l-3.233-11h2.578l2,7.928a4.7,4.7,0,0,1,.129.945h.075a5.1,5.1,0,0,1,.172-.967L339.765-11h2.342l1.977,7.96a5.569,5.569,0,0,1,.14.945h.075a5.012,5.012,0,0,1,.161-.945L346.414-11Zm3.1-2.31a1.5,1.5,0,0,1-1.047-.4,1.308,1.308,0,0,1-.435-1.01,1.341,1.341,0,0,1,.435-1.021,1.476,1.476,0,0,1,1.047-.408,1.522,1.522,0,0,1,1.074.408,1.334,1.334,0,0,1,.44,1.021,1.315,1.315,0,0,1-.44.994A1.511,1.511,0,0,1,351.893-13.31ZM353.128,0h-2.492V-11h2.492Zm13.256,5.06h-2.492v-6.95h-.043A3.853,3.853,0,0,1,360.164.258a4.031,4.031,0,0,1-3.26-1.477,6.1,6.1,0,0,1-1.23-4.023,6.675,6.675,0,0,1,1.348-4.377,4.452,4.452,0,0,1,3.625-1.638,3.384,3.384,0,0,1,3.2,1.783h.043V-11h2.492Zm-2.46-10.065V-6.424a2.859,2.859,0,0,0-.768-2.02,2.545,2.545,0,0,0-1.95-.827,2.612,2.612,0,0,0-2.186,1.037,4.7,4.7,0,0,0-.8,2.927,4.072,4.072,0,0,0,.773,2.632,2.453,2.453,0,0,0,2,.956,2.663,2.663,0,0,0,2.138-.935A3.5,3.5,0,0,0,363.924-5.006Zm5.027,4.662v-2.31a4.972,4.972,0,0,0,3.083,1.063q2.256,0,2.256-1.332a1.05,1.05,0,0,0-.193-.639,1.846,1.846,0,0,0-.521-.467,4.1,4.1,0,0,0-.773-.365q-.446-.161-.994-.365a10.52,10.52,0,0,1-1.219-.569,3.683,3.683,0,0,1-.9-.682,2.575,2.575,0,0,1-.542-.865A3.184,3.184,0,0,1,368.962-8a2.607,2.607,0,0,1,.376-1.4,3.267,3.267,0,0,1,1.01-1.021,4.842,4.842,0,0,1,1.439-.623,6.59,6.59,0,0,1,1.665-.209,7.569,7.569,0,0,1,2.729.462v2.181a4.6,4.6,0,0,0-2.664-.795,3.479,3.479,0,0,0-.854.1,2.2,2.2,0,0,0-.65.269,1.321,1.321,0,0,0-.419.414.987.987,0,0,0-.15.532,1.136,1.136,0,0,0,.15.6,1.366,1.366,0,0,0,.446.435,3.85,3.85,0,0,0,.709.344q.414.156.951.338a13.89,13.89,0,0,1,1.273.591,4.3,4.3,0,0,1,.961.682,2.674,2.674,0,0,1,.612.881,2.991,2.991,0,0,1,.215,1.187,2.713,2.713,0,0,1-.387,1.461,3.223,3.223,0,0,1-1.031,1.031,4.827,4.827,0,0,1-1.488.607,7.729,7.729,0,0,1-1.778.2A7.49,7.49,0,0,1,368.951-.344Zm15.05.6a5.452,5.452,0,0,1-4.066-1.542,5.569,5.569,0,0,1-1.52-4.087A5.794,5.794,0,0,1,380-9.7a5.826,5.826,0,0,1,4.27-1.558,5.277,5.277,0,0,1,4.018,1.515,5.851,5.851,0,0,1,1.439,4.2,5.765,5.765,0,0,1-1.552,4.216A5.576,5.576,0,0,1,384,.258Zm.118-9.528a2.845,2.845,0,0,0-2.31,1.021,4.273,4.273,0,0,0-.849,2.814,4.025,4.025,0,0,0,.859,2.723,2.886,2.886,0,0,0,2.3.994A2.739,2.739,0,0,0,386.38-2.7a4.327,4.327,0,0,0,.79-2.782,4.393,4.393,0,0,0-.79-2.8A2.726,2.726,0,0,0,384.119-9.271Zm14-4.984a2.266,2.266,0,0,0-1.149-.29q-1.815,0-1.815,2.052V-11h2.557v1.955h-2.546V0H392.67V-9.045h-1.88V-11h1.88v-1.783a3.472,3.472,0,0,1,1.139-2.745,4.147,4.147,0,0,1,2.847-1,4.227,4.227,0,0,1,1.461.2ZM405.689-.118a4.319,4.319,0,0,1-1.923.365q-3.2,0-3.2-3.072v-6.22h-1.837V-11h1.837v-2.546l2.492-.709V-11h2.632v1.955h-2.632v5.5a2.167,2.167,0,0,0,.354,1.4,1.472,1.472,0,0,0,1.182.419,1.713,1.713,0,0,0,1.1-.365Z" transform="translate(113.08 117)" fill="#3b4d53"/><path d="M11.4,0H8.905V-6.016q0-3.266-2.181-3.266a2.281,2.281,0,0,0-1.848.945,3.763,3.763,0,0,0-.752,2.417V0h-2.5V-16.285h2.5v7.111h.043a3.936,3.936,0,0,1,3.566-2.084q3.663,0,3.663,4.479ZM23.74-4.823h-7.5a3.17,3.17,0,0,0,.94,2.353,3.5,3.5,0,0,0,2.465.827A5.436,5.436,0,0,0,22.881-2.7V-.687a7.387,7.387,0,0,1-3.975.945,4.92,4.92,0,0,1-3.808-1.5,5.994,5.994,0,0,1-1.38-4.216,5.861,5.861,0,0,1,1.52-4.184,4.972,4.972,0,0,1,3.776-1.617A4.335,4.335,0,0,1,22.5-9.808,6.021,6.021,0,0,1,23.74-5.779ZM21.334-6.585A3.211,3.211,0,0,0,20.7-8.674a2.118,2.118,0,0,0-1.719-.747,2.419,2.419,0,0,0-1.821.784,3.582,3.582,0,0,0-.918,2.052ZM28.617,0h-2.5V-16.285h2.5ZM34.4-1.622h-.043V5.06H31.861V-11h2.492v1.934H34.4a4.084,4.084,0,0,1,3.738-2.191A3.938,3.938,0,0,1,41.4-9.786a6.172,6.172,0,0,1,1.171,3.953,6.853,6.853,0,0,1-1.321,4.4A4.37,4.37,0,0,1,37.641.226,3.6,3.6,0,0,1,34.4-1.622Zm-.064-4.34V-4.6A2.911,2.911,0,0,0,35.1-2.557a2.529,2.529,0,0,0,1.95.838A2.547,2.547,0,0,0,39.225-2.8a5.024,5.024,0,0,0,.79-3.013,3.959,3.959,0,0,0-.736-2.541,2.418,2.418,0,0,0-1.993-.918,2.685,2.685,0,0,0-2.143.945A3.5,3.5,0,0,0,34.332-5.962Zm20.1,1.139h-7.5a3.17,3.17,0,0,0,.94,2.353,3.5,3.5,0,0,0,2.465.827A5.436,5.436,0,0,0,53.571-2.7V-.687A7.387,7.387,0,0,1,49.6.258a4.92,4.92,0,0,1-3.808-1.5,5.994,5.994,0,0,1-1.38-4.216,5.861,5.861,0,0,1,1.52-4.184A4.972,4.972,0,0,1,49.7-11.258,4.335,4.335,0,0,1,53.2-9.808a6.021,6.021,0,0,1,1.235,4.028ZM52.024-6.585a3.211,3.211,0,0,0-.634-2.089,2.118,2.118,0,0,0-1.719-.747,2.419,2.419,0,0,0-1.821.784,3.582,3.582,0,0,0-.918,2.052ZM66.806,0H64.313V-1.869h-.043A3.975,3.975,0,0,1,60.564.258a4,4,0,0,1-3.25-1.477A6.132,6.132,0,0,1,56.1-5.242a6.68,6.68,0,0,1,1.348-4.372,4.412,4.412,0,0,1,3.593-1.644,3.441,3.441,0,0,1,3.233,1.783h.043v-6.811h2.492Zm-2.46-5.027V-6.467a2.8,2.8,0,0,0-.763-1.987,2.544,2.544,0,0,0-1.944-.816,2.618,2.618,0,0,0-2.2,1.042,4.643,4.643,0,0,0-.8,2.89,4.161,4.161,0,0,0,.768,2.648,2.5,2.5,0,0,0,2.068.972,2.586,2.586,0,0,0,2.073-.94A3.541,3.541,0,0,0,64.346-5.027ZM92.555,0H90.063V-5.994a4.858,4.858,0,0,0-.489-2.5,1.8,1.8,0,0,0-1.649-.773,1.987,1.987,0,0,0-1.66.978,3.989,3.989,0,0,0-.682,2.342V0h-2.5V-6.2q0-3.072-2.17-3.072a1.957,1.957,0,0,0-1.66.924,4.074,4.074,0,0,0-.65,2.4V0H76.108V-11H78.6v1.74h.043a3.811,3.811,0,0,1,3.47-2,3.271,3.271,0,0,1,1.993.628A3.13,3.13,0,0,1,85.271-8.98a3.925,3.925,0,0,1,3.652-2.277q3.631,0,3.631,4.479Zm12.354-4.823h-7.5a3.17,3.17,0,0,0,.94,2.353,3.5,3.5,0,0,0,2.465.827A5.436,5.436,0,0,0,104.049-2.7V-.687a7.387,7.387,0,0,1-3.975.945,4.92,4.92,0,0,1-3.808-1.5,5.994,5.994,0,0,1-1.38-4.216,5.861,5.861,0,0,1,1.52-4.184,4.972,4.972,0,0,1,3.776-1.617,4.335,4.335,0,0,1,3.491,1.45,6.021,6.021,0,0,1,1.235,4.028ZM102.5-6.585a3.211,3.211,0,0,0-.634-2.089,2.118,2.118,0,0,0-1.719-.747,2.419,2.419,0,0,0-1.821.784,3.583,3.583,0,0,0-.918,2.052Zm13.363,5h-.043V0H113.33V-16.285h2.492v7.219h.043a4.084,4.084,0,0,1,3.738-2.191,3.936,3.936,0,0,1,3.26,1.477,6.176,6.176,0,0,1,1.176,3.958,6.894,6.894,0,0,1-1.321,4.42,4.365,4.365,0,0,1-3.609,1.66A3.543,3.543,0,0,1,115.865-1.59ZM115.8-5.962V-4.6a2.911,2.911,0,0,0,.768,2.041,2.529,2.529,0,0,0,1.95.838,2.547,2.547,0,0,0,2.175-1.08,5.024,5.024,0,0,0,.79-3.013,3.959,3.959,0,0,0-.736-2.541,2.418,2.418,0,0,0-1.993-.918,2.685,2.685,0,0,0-2.143.945A3.5,3.5,0,0,0,115.8-5.962ZM136.179,0h-2.492V-1.74h-.043a3.587,3.587,0,0,1-3.373,2q-3.9,0-3.9-4.684V-11h2.492v6.316q0,2.965,2.288,2.965a2.312,2.312,0,0,0,1.821-.816,3.128,3.128,0,0,0,.714-2.138V-11h2.492Zm4.5-13.31a1.5,1.5,0,0,1-1.047-.4,1.308,1.308,0,0,1-.435-1.01,1.341,1.341,0,0,1,.435-1.021,1.476,1.476,0,0,1,1.047-.408,1.522,1.522,0,0,1,1.074.408,1.334,1.334,0,0,1,.44,1.021,1.315,1.315,0,0,1-.44.994A1.511,1.511,0,0,1,140.68-13.31ZM141.915,0h-2.492V-11h2.492Zm5.758,0h-2.5V-16.285h2.5Zm13.245,0h-2.492V-1.869h-.043A3.975,3.975,0,0,1,154.677.258a4,4,0,0,1-3.25-1.477,6.132,6.132,0,0,1-1.219-4.023,6.68,6.68,0,0,1,1.348-4.372,4.412,4.412,0,0,1,3.593-1.644,3.441,3.441,0,0,1,3.233,1.783h.043v-6.811h2.492Zm-2.46-5.027V-6.467a2.8,2.8,0,0,0-.763-1.987,2.544,2.544,0,0,0-1.944-.816,2.618,2.618,0,0,0-2.2,1.042,4.643,4.643,0,0,0-.8,2.89,4.161,4.161,0,0,0,.768,2.648,2.5,2.5,0,0,0,2.068.972,2.586,2.586,0,0,0,2.073-.94A3.541,3.541,0,0,0,158.458-5.027ZM186.667,0h-2.492V-5.994a4.858,4.858,0,0,0-.489-2.5,1.8,1.8,0,0,0-1.649-.773,1.987,1.987,0,0,0-1.66.978,3.989,3.989,0,0,0-.682,2.342V0h-2.5V-6.2q0-3.072-2.17-3.072a1.957,1.957,0,0,0-1.66.924,4.073,4.073,0,0,0-.65,2.4V0h-2.492V-11h2.492v1.74h.043a3.811,3.811,0,0,1,3.47-2,3.271,3.271,0,0,1,1.993.628,3.13,3.13,0,0,1,1.166,1.649,3.925,3.925,0,0,1,3.652-2.277q3.631,0,3.631,4.479Zm12.568-11L194.272,1.762q-1.547,3.416-4.34,3.416a5.2,5.2,0,0,1-1.311-.14V2.965a3.485,3.485,0,0,0,1.074.193,2.217,2.217,0,0,0,2.084-1.375l.741-1.8L188.149-11h2.761l2.621,7.992q.043.15.193.795h.054q.054-.247.193-.773L196.722-11Zm13.5,10.882a4.319,4.319,0,0,1-1.923.365q-3.2,0-3.2-3.072v-6.22h-1.837V-11h1.837v-2.546l2.492-.709V-11h2.632v1.955h-2.632v5.5a2.167,2.167,0,0,0,.354,1.4,1.472,1.472,0,0,0,1.182.419,1.713,1.713,0,0,0,1.1-.365Zm8.529-8.508a2.066,2.066,0,0,0-1.3-.354,2.225,2.225,0,0,0-1.848,1,4.467,4.467,0,0,0-.741,2.718V0h-2.492V-11h2.492v2.267h.043a3.832,3.832,0,0,1,1.123-1.81,2.534,2.534,0,0,1,1.692-.65,2.1,2.1,0,0,1,1.031.2ZM232.622,0H230.13V-1.74h-.043a3.587,3.587,0,0,1-3.373,2q-3.9,0-3.9-4.684V-11h2.492v6.316q0,2.965,2.288,2.965a2.312,2.312,0,0,0,1.821-.816,3.128,3.128,0,0,0,.714-2.138V-11h2.492Zm2.557-.344v-2.31a4.972,4.972,0,0,0,3.083,1.063q2.256,0,2.256-1.332a1.05,1.05,0,0,0-.193-.639,1.846,1.846,0,0,0-.521-.467,4.1,4.1,0,0,0-.773-.365q-.446-.161-.994-.365a10.519,10.519,0,0,1-1.219-.569,3.684,3.684,0,0,1-.9-.682,2.575,2.575,0,0,1-.542-.865A3.184,3.184,0,0,1,235.189-8a2.607,2.607,0,0,1,.376-1.4,3.267,3.267,0,0,1,1.01-1.021,4.842,4.842,0,0,1,1.439-.623,6.59,6.59,0,0,1,1.665-.209,7.569,7.569,0,0,1,2.729.462v2.181a4.6,4.6,0,0,0-2.664-.795,3.479,3.479,0,0,0-.854.1,2.2,2.2,0,0,0-.65.269,1.321,1.321,0,0,0-.419.414.987.987,0,0,0-.15.532,1.136,1.136,0,0,0,.15.6,1.366,1.366,0,0,0,.446.435,3.851,3.851,0,0,0,.709.344q.414.156.951.338a13.89,13.89,0,0,1,1.273.591,4.3,4.3,0,0,1,.961.682,2.674,2.674,0,0,1,.612.881,2.991,2.991,0,0,1,.215,1.187,2.713,2.713,0,0,1-.387,1.461A3.223,3.223,0,0,1,241.57-.548a4.827,4.827,0,0,1-1.488.607,7.729,7.729,0,0,1-1.778.2A7.49,7.49,0,0,1,235.179-.344Zm15.974.226a4.319,4.319,0,0,1-1.923.365q-3.2,0-3.2-3.072v-6.22h-1.837V-11h1.837v-2.546l2.492-.709V-11h2.632v1.955h-2.632v5.5a2.167,2.167,0,0,0,.354,1.4,1.472,1.472,0,0,0,1.182.419,1.713,1.713,0,0,0,1.1-.365Zm9.453-13.191a1.5,1.5,0,0,1-1.047-.4,1.308,1.308,0,0,1-.435-1.01,1.341,1.341,0,0,1,.435-1.021,1.476,1.476,0,0,1,1.047-.408,1.522,1.522,0,0,1,1.074.408,1.334,1.334,0,0,1,.44,1.021,1.315,1.315,0,0,1-.44.994A1.511,1.511,0,0,1,260.605-13.31ZM261.841,0h-2.492V-11h2.492Zm13.052,0H272.4V-6.2q0-3.083-2.181-3.083a2.381,2.381,0,0,0-1.88.854,3.168,3.168,0,0,0-.741,2.154V0h-2.5V-11h2.5v1.826h.043a3.921,3.921,0,0,1,3.566-2.084,3.322,3.322,0,0,1,2.739,1.166,5.234,5.234,0,0,1,.945,3.368Zm14.889-.118a4.319,4.319,0,0,1-1.923.365q-3.2,0-3.2-3.072v-6.22H282.82V-11h1.837v-2.546l2.492-.709V-11h2.632v1.955h-2.632v5.5a2.167,2.167,0,0,0,.354,1.4,1.472,1.472,0,0,0,1.182.419,1.713,1.713,0,0,0,1.1-.365ZM301.705,0h-2.492V-6.016q0-3.266-2.181-3.266a2.281,2.281,0,0,0-1.848.945,3.763,3.763,0,0,0-.752,2.417V0h-2.5V-16.285h2.5v7.111h.043a3.936,3.936,0,0,1,3.566-2.084q3.663,0,3.663,4.479Zm12.343-4.823h-7.5a3.17,3.17,0,0,0,.94,2.353,3.5,3.5,0,0,0,2.465.827A5.436,5.436,0,0,0,313.188-2.7V-.687a7.387,7.387,0,0,1-3.975.945,4.92,4.92,0,0,1-3.808-1.5,5.994,5.994,0,0,1-1.38-4.216,5.861,5.861,0,0,1,1.52-4.184,4.972,4.972,0,0,1,3.776-1.617,4.335,4.335,0,0,1,3.491,1.45,6.021,6.021,0,0,1,1.235,4.028Zm-2.406-1.762a3.211,3.211,0,0,0-.634-2.089,2.118,2.118,0,0,0-1.719-.747,2.419,2.419,0,0,0-1.821.784,3.583,3.583,0,0,0-.918,2.052ZM332.868,0h-2.492V-5.994a4.858,4.858,0,0,0-.489-2.5,1.8,1.8,0,0,0-1.649-.773,1.987,1.987,0,0,0-1.66.978,3.989,3.989,0,0,0-.682,2.342V0h-2.5V-6.2q0-3.072-2.17-3.072a1.957,1.957,0,0,0-1.66.924,4.074,4.074,0,0,0-.65,2.4V0h-2.492V-11h2.492v1.74h.043a3.811,3.811,0,0,1,3.47-2,3.271,3.271,0,0,1,1.993.628,3.13,3.13,0,0,1,1.166,1.649,3.925,3.925,0,0,1,3.652-2.277q3.631,0,3.631,4.479Zm5.371-2.567-1.665,5.36h-1.869l1.182-5.36ZM355.706,0h-2.417V-1.719h-.043A3.639,3.639,0,0,1,349.905.258a3.519,3.519,0,0,1-2.541-.881,3.081,3.081,0,0,1-.918-2.331q0-3.115,3.588-3.631l3.266-.462q0-2.353-2.234-2.353a5.308,5.308,0,0,0-3.545,1.354v-2.181a7.731,7.731,0,0,1,4.018-1.031q4.168,0,4.168,4.1ZM353.3-5.4l-2.31.322a3.661,3.661,0,0,0-1.617.521,1.522,1.522,0,0,0-.542,1.337,1.464,1.464,0,0,0,.5,1.144,1.934,1.934,0,0,0,1.337.446,2.468,2.468,0,0,0,1.885-.8,2.838,2.838,0,0,0,.747-2.014ZM368.543,0h-2.492V-6.2q0-3.083-2.181-3.083a2.381,2.381,0,0,0-1.88.854,3.168,3.168,0,0,0-.741,2.154V0h-2.5V-11h2.5v1.826h.043a3.921,3.921,0,0,1,3.566-2.084,3.322,3.322,0,0,1,2.739,1.166,5.234,5.234,0,0,1,.945,3.368Zm13.041,0h-2.492V-1.869h-.043A3.975,3.975,0,0,1,375.343.258a4,4,0,0,1-3.25-1.477,6.132,6.132,0,0,1-1.219-4.023,6.68,6.68,0,0,1,1.348-4.372,4.412,4.412,0,0,1,3.593-1.644,3.441,3.441,0,0,1,3.233,1.783h.043v-6.811h2.492Zm-2.46-5.027V-6.467a2.8,2.8,0,0,0-.763-1.987,2.544,2.544,0,0,0-1.944-.816,2.618,2.618,0,0,0-2.2,1.042,4.643,4.643,0,0,0-.8,2.89,4.16,4.16,0,0,0,.768,2.648,2.5,2.5,0,0,0,2.068.972,2.586,2.586,0,0,0,2.073-.94A3.541,3.541,0,0,0,379.124-5.027Z" transform="translate(125.08 147)" fill="#3b4d53"/><path d="M7.423-.118A4.319,4.319,0,0,1,5.5.247q-3.2,0-3.2-3.072v-6.22H.462V-11H2.3v-2.546l2.492-.709V-11H7.423v1.955H4.791v5.5a2.167,2.167,0,0,0,.354,1.4,1.472,1.472,0,0,0,1.182.419,1.713,1.713,0,0,0,1.1-.365ZM19.347,0H16.854V-6.016q0-3.266-2.181-3.266a2.281,2.281,0,0,0-1.848.945,3.763,3.763,0,0,0-.752,2.417V0h-2.5V-16.285h2.5v7.111h.043a3.936,3.936,0,0,1,3.566-2.084q3.663,0,3.663,4.479ZM31.689-4.823h-7.5a3.17,3.17,0,0,0,.94,2.353,3.5,3.5,0,0,0,2.465.827A5.436,5.436,0,0,0,30.83-2.7V-.687a7.387,7.387,0,0,1-3.975.945,4.92,4.92,0,0,1-3.808-1.5,5.994,5.994,0,0,1-1.38-4.216,5.861,5.861,0,0,1,1.52-4.184,4.972,4.972,0,0,1,3.776-1.617,4.335,4.335,0,0,1,3.491,1.45,6.021,6.021,0,0,1,1.235,4.028ZM29.283-6.585a3.211,3.211,0,0,0-.634-2.089,2.118,2.118,0,0,0-1.719-.747,2.419,2.419,0,0,0-1.821.784,3.582,3.582,0,0,0-.918,2.052ZM43.592-11,38.629,1.762q-1.547,3.416-4.34,3.416a5.2,5.2,0,0,1-1.311-.14V2.965a3.485,3.485,0,0,0,1.074.193,2.217,2.217,0,0,0,2.084-1.375l.741-1.8L32.506-11h2.761l2.621,7.992q.043.15.193.795h.054q.054-.247.193-.773L41.078-11Zm17.7,11H58.8V-1.869H58.76A3.975,3.975,0,0,1,55.054.258,4,4,0,0,1,51.8-1.219a6.132,6.132,0,0,1-1.219-4.023,6.68,6.68,0,0,1,1.348-4.372,4.412,4.412,0,0,1,3.593-1.644A3.441,3.441,0,0,1,58.76-9.475H58.8v-6.811h2.492Zm-2.46-5.027V-6.467a2.8,2.8,0,0,0-.763-1.987,2.544,2.544,0,0,0-1.944-.816,2.618,2.618,0,0,0-2.2,1.042,4.643,4.643,0,0,0-.8,2.89A4.161,4.161,0,0,0,53.9-2.691a2.5,2.5,0,0,0,2.068.972,2.586,2.586,0,0,0,2.073-.94A3.541,3.541,0,0,0,58.835-5.027Zm15.028.2h-7.5a3.17,3.17,0,0,0,.94,2.353,3.5,3.5,0,0,0,2.465.827A5.436,5.436,0,0,0,73-2.7V-.687a7.387,7.387,0,0,1-3.975.945,4.92,4.92,0,0,1-3.808-1.5,5.994,5.994,0,0,1-1.38-4.216,5.861,5.861,0,0,1,1.52-4.184,4.972,4.972,0,0,1,3.776-1.617,4.335,4.335,0,0,1,3.491,1.45,6.021,6.021,0,0,1,1.235,4.028ZM71.457-6.585a3.211,3.211,0,0,0-.634-2.089A2.118,2.118,0,0,0,69.1-9.421a2.419,2.419,0,0,0-1.821.784,3.583,3.583,0,0,0-.918,2.052ZM78.74,0h-2.5V-16.285h2.5Zm4.5-13.31a1.5,1.5,0,0,1-1.047-.4,1.308,1.308,0,0,1-.435-1.01,1.341,1.341,0,0,1,.435-1.021,1.476,1.476,0,0,1,1.047-.408,1.522,1.522,0,0,1,1.074.408,1.334,1.334,0,0,1,.44,1.021,1.315,1.315,0,0,1-.44.994A1.511,1.511,0,0,1,83.241-13.31ZM84.477,0H81.984V-11h2.492ZM97.206-11,92.952,0h-2.7l-4.05-11h2.707l2.438,7.691A7.171,7.171,0,0,1,91.7-1.826h.032a7.958,7.958,0,0,1,.3-1.439L94.585-11Zm10.828,6.177h-7.5a3.17,3.17,0,0,0,.94,2.353,3.5,3.5,0,0,0,2.465.827A5.436,5.436,0,0,0,107.175-2.7V-.687A7.387,7.387,0,0,1,103.2.258a4.92,4.92,0,0,1-3.808-1.5,5.994,5.994,0,0,1-1.38-4.216,5.861,5.861,0,0,1,1.52-4.184,4.972,4.972,0,0,1,3.776-1.617,4.335,4.335,0,0,1,3.491,1.45,6.021,6.021,0,0,1,1.235,4.028Zm-2.406-1.762a3.211,3.211,0,0,0-.634-2.089,2.118,2.118,0,0,0-1.719-.747,2.419,2.419,0,0,0-1.821.784,3.583,3.583,0,0,0-.918,2.052Zm11.161-2.041a2.066,2.066,0,0,0-1.3-.354,2.225,2.225,0,0,0-1.848,1,4.467,4.467,0,0,0-.741,2.718V0h-2.492V-11H112.9v2.267h.043a3.832,3.832,0,0,1,1.123-1.81,2.534,2.534,0,0,1,1.692-.65,2.1,2.1,0,0,1,1.031.2Zm10.882,3.8h-7.5a3.17,3.17,0,0,0,.94,2.353,3.5,3.5,0,0,0,2.465.827A5.436,5.436,0,0,0,126.812-2.7V-.687a7.387,7.387,0,0,1-3.975.945,4.92,4.92,0,0,1-3.808-1.5,5.994,5.994,0,0,1-1.38-4.216,5.861,5.861,0,0,1,1.52-4.184,4.972,4.972,0,0,1,3.776-1.617,4.335,4.335,0,0,1,3.491,1.45,6.021,6.021,0,0,1,1.235,4.028Zm-2.406-1.762a3.211,3.211,0,0,0-.634-2.089,2.118,2.118,0,0,0-1.719-.747,2.419,2.419,0,0,0-1.821.784,3.583,3.583,0,0,0-.918,2.052ZM140.046,0h-2.492V-1.869h-.043A3.975,3.975,0,0,1,133.8.258a4,4,0,0,1-3.25-1.477,6.132,6.132,0,0,1-1.219-4.023,6.68,6.68,0,0,1,1.348-4.372,4.412,4.412,0,0,1,3.593-1.644,3.441,3.441,0,0,1,3.233,1.783h.043v-6.811h2.492Zm-2.46-5.027V-6.467a2.8,2.8,0,0,0-.763-1.987,2.544,2.544,0,0,0-1.944-.816,2.618,2.618,0,0,0-2.2,1.042,4.643,4.643,0,0,0-.8,2.89,4.161,4.161,0,0,0,.768,2.648,2.5,2.5,0,0,0,2.068.972,2.586,2.586,0,0,0,2.073-.94A3.541,3.541,0,0,0,137.586-5.027ZM165.795,0H163.3V-5.994a4.858,4.858,0,0,0-.489-2.5,1.8,1.8,0,0,0-1.649-.773,1.987,1.987,0,0,0-1.66.978,3.989,3.989,0,0,0-.682,2.342V0h-2.5V-6.2q0-3.072-2.17-3.072a1.957,1.957,0,0,0-1.66.924,4.073,4.073,0,0,0-.65,2.4V0h-2.492V-11h2.492v1.74h.043a3.811,3.811,0,0,1,3.47-2,3.271,3.271,0,0,1,1.993.628,3.13,3.13,0,0,1,1.166,1.649,3.925,3.925,0,0,1,3.652-2.277q3.631,0,3.631,4.479Zm12.568-11L173.4,1.762q-1.547,3.416-4.34,3.416a5.2,5.2,0,0,1-1.311-.14V2.965a3.485,3.485,0,0,0,1.074.193,2.217,2.217,0,0,0,2.084-1.375l.741-1.8L167.277-11h2.761l2.621,7.992q.043.15.193.795h.054q.054-.247.193-.773L175.85-11ZM188.6-1.622h-.043V5.06h-2.492V-11h2.492v1.934h.043a4.084,4.084,0,0,1,3.738-2.191A3.938,3.938,0,0,1,195.6-9.786a6.172,6.172,0,0,1,1.171,3.953,6.853,6.853,0,0,1-1.321,4.4A4.37,4.37,0,0,1,191.845.226,3.6,3.6,0,0,1,188.6-1.622Zm-.064-4.34V-4.6a2.911,2.911,0,0,0,.768,2.041,2.529,2.529,0,0,0,1.95.838,2.547,2.547,0,0,0,2.175-1.08,5.024,5.024,0,0,0,.79-3.013,3.959,3.959,0,0,0-.736-2.541,2.418,2.418,0,0,0-1.993-.918,2.685,2.685,0,0,0-2.143.945A3.5,3.5,0,0,0,188.536-5.962ZM205.7-8.626a2.066,2.066,0,0,0-1.3-.354,2.225,2.225,0,0,0-1.848,1,4.467,4.467,0,0,0-.741,2.718V0h-2.492V-11h2.492v2.267h.043a3.832,3.832,0,0,1,1.123-1.81,2.534,2.534,0,0,1,1.692-.65,2.1,2.1,0,0,1,1.031.2ZM212.147.258a5.452,5.452,0,0,1-4.066-1.542,5.568,5.568,0,0,1-1.52-4.087A5.794,5.794,0,0,1,208.146-9.7a5.826,5.826,0,0,1,4.27-1.558,5.277,5.277,0,0,1,4.018,1.515,5.851,5.851,0,0,1,1.439,4.2,5.765,5.765,0,0,1-1.552,4.216A5.576,5.576,0,0,1,212.147.258Zm.118-9.528a2.845,2.845,0,0,0-2.31,1.021,4.273,4.273,0,0,0-.849,2.814,4.025,4.025,0,0,0,.859,2.723,2.886,2.886,0,0,0,2.3.994,2.739,2.739,0,0,0,2.261-.978,4.327,4.327,0,0,0,.79-2.782,4.393,4.393,0,0,0-.79-2.8A2.726,2.726,0,0,0,212.266-9.271ZM222.9-.462a6.677,6.677,0,0,1-1.139,4.173,3.877,3.877,0,0,1-3.255,1.466,3.588,3.588,0,0,1-1.525-.344V2.7a2.35,2.35,0,0,0,1.321.483q2.105,0,2.105-3.717V-11H222.9ZM221.676-13.31a1.5,1.5,0,0,1-1.047-.4,1.308,1.308,0,0,1-.435-1.01,1.341,1.341,0,0,1,.435-1.021,1.476,1.476,0,0,1,1.047-.408,1.509,1.509,0,0,1,1.063.408,1.334,1.334,0,0,1,.44,1.021,1.315,1.315,0,0,1-.44.994A1.5,1.5,0,0,1,221.676-13.31Zm13.793,8.486h-7.5a3.17,3.17,0,0,0,.94,2.353,3.5,3.5,0,0,0,2.465.827A5.436,5.436,0,0,0,234.609-2.7V-.687a7.387,7.387,0,0,1-3.975.945,4.92,4.92,0,0,1-3.808-1.5,5.994,5.994,0,0,1-1.38-4.216,5.861,5.861,0,0,1,1.52-4.184,4.972,4.972,0,0,1,3.776-1.617,4.335,4.335,0,0,1,3.491,1.45,6.021,6.021,0,0,1,1.235,4.028Zm-2.406-1.762a3.211,3.211,0,0,0-.634-2.089,2.118,2.118,0,0,0-1.719-.747,2.419,2.419,0,0,0-1.821.784,3.582,3.582,0,0,0-.918,2.052ZM245.717-.5a6.146,6.146,0,0,1-3.126.763,5.294,5.294,0,0,1-3.953-1.531,5.423,5.423,0,0,1-1.5-3.969,5.968,5.968,0,0,1,1.617-4.367,5.78,5.78,0,0,1,4.324-1.649,6.312,6.312,0,0,1,2.653.526v2.32a4.019,4.019,0,0,0-2.449-.859A3.4,3.4,0,0,0,240.689-8.2a3.908,3.908,0,0,0-1.01,2.8,3.727,3.727,0,0,0,.951,2.7,3.375,3.375,0,0,0,2.551.988,3.987,3.987,0,0,0,2.535-.956Zm8.271.387a4.319,4.319,0,0,1-1.923.365q-3.2,0-3.2-3.072v-6.22h-1.837V-11h1.837v-2.546l2.492-.709V-11h2.632v1.955h-2.632v5.5a2.167,2.167,0,0,0,.354,1.4,1.472,1.472,0,0,0,1.182.419,1.713,1.713,0,0,0,1.1-.365Zm13.073.376A5.452,5.452,0,0,1,263-1.284a5.569,5.569,0,0,1-1.52-4.087A5.794,5.794,0,0,1,263.06-9.7a5.826,5.826,0,0,1,4.27-1.558,5.277,5.277,0,0,1,4.018,1.515,5.851,5.851,0,0,1,1.439,4.2,5.765,5.765,0,0,1-1.552,4.216A5.576,5.576,0,0,1,267.062.258Zm.118-9.528a2.845,2.845,0,0,0-2.31,1.021,4.273,4.273,0,0,0-.849,2.814,4.025,4.025,0,0,0,.859,2.723,2.886,2.886,0,0,0,2.3.994,2.739,2.739,0,0,0,2.261-.978,4.327,4.327,0,0,0,.79-2.782,4.393,4.393,0,0,0-.79-2.8A2.726,2.726,0,0,0,267.18-9.271ZM285.119,0h-2.492V-6.2q0-3.083-2.181-3.083a2.381,2.381,0,0,0-1.88.854,3.168,3.168,0,0,0-.741,2.154V0h-2.5V-11h2.5v1.826h.043a3.921,3.921,0,0,1,3.566-2.084,3.322,3.322,0,0,1,2.739,1.166,5.234,5.234,0,0,1,.945,3.368Zm14.889-.118a4.319,4.319,0,0,1-1.923.365q-3.2,0-3.2-3.072v-6.22h-1.837V-11h1.837v-2.546l2.492-.709V-11h2.632v1.955h-2.632v5.5a2.167,2.167,0,0,0,.354,1.4,1.472,1.472,0,0,0,1.182.419,1.713,1.713,0,0,0,1.1-.365Zm3.405-13.191a1.5,1.5,0,0,1-1.047-.4,1.308,1.308,0,0,1-.435-1.01,1.341,1.341,0,0,1,.435-1.021,1.476,1.476,0,0,1,1.047-.408,1.522,1.522,0,0,1,1.074.408,1.334,1.334,0,0,1,.44,1.021,1.315,1.315,0,0,1-.44.994A1.511,1.511,0,0,1,303.413-13.31ZM304.648,0h-2.492V-11h2.492Zm19.7,0h-2.492V-5.994a4.858,4.858,0,0,0-.489-2.5,1.8,1.8,0,0,0-1.649-.773,1.987,1.987,0,0,0-1.66.978,3.989,3.989,0,0,0-.682,2.342V0h-2.5V-6.2q0-3.072-2.17-3.072a1.957,1.957,0,0,0-1.66.924,4.074,4.074,0,0,0-.65,2.4V0H307.9V-11H310.4v1.74h.043a3.811,3.811,0,0,1,3.47-2,3.271,3.271,0,0,1,1.993.628,3.13,3.13,0,0,1,1.166,1.649,3.925,3.925,0,0,1,3.652-2.277q3.631,0,3.631,4.479ZM336.7-4.823h-7.5a3.17,3.17,0,0,0,.94,2.353,3.5,3.5,0,0,0,2.465.827A5.436,5.436,0,0,0,335.844-2.7V-.687a7.387,7.387,0,0,1-3.975.945,4.92,4.92,0,0,1-3.808-1.5,5.994,5.994,0,0,1-1.38-4.216,5.861,5.861,0,0,1,1.52-4.184,4.972,4.972,0,0,1,3.776-1.617,4.335,4.335,0,0,1,3.491,1.45A6.021,6.021,0,0,1,336.7-5.779ZM334.3-6.585a3.211,3.211,0,0,0-.634-2.089,2.118,2.118,0,0,0-1.719-.747,2.419,2.419,0,0,0-1.821.784,3.583,3.583,0,0,0-.918,2.052ZM340.108.236a1.541,1.541,0,0,1-1.1-.424,1.345,1.345,0,0,1-.451-1.015,1.374,1.374,0,0,1,.451-1.031,1.53,1.53,0,0,1,1.1-.43,1.562,1.562,0,0,1,1.112.43,1.366,1.366,0,0,1,.457,1.031,1.338,1.338,0,0,1-.457,1.015A1.573,1.573,0,0,1,340.108.236Z" transform="translate(145.08 177)" fill="#3b4d53"/></g></g></svg>