<svg xmlns="http://www.w3.org/2000/svg" xmlns:xlink="http://www.w3.org/1999/xlink" width="642.006" height="363.422" viewBox="0 0 642.006 363.422"><defs><filter id="a" x="0" y="0" width="642.006" height="363.422" filterUnits="userSpaceOnUse"><feOffset input="SourceAlpha"/><feGaussianBlur stdDeviation="7" result="b"/><feFlood flood-opacity="0.212"/><feComposite operator="in" in2="b"/><feComposite in="SourceGraphic"/></filter></defs><g transform="translate(21.003 21)"><g transform="matrix(1, 0, 0, 1, -21, -21)" filter="url(#a)"><path d="M8.4,9.025H277.312L300.414-34,322.941,9.025H591.6a8.638,8.638,0,0,1,8.4,8.858V278.564a8.638,8.638,0,0,1-8.4,8.858H8.4A8.638,8.638,0,0,1,0,278.564V17.883A8.638,8.638,0,0,1,8.4,9.025Z" transform="translate(21 55)" fill="#fff"/></g><g transform="translate(10 64.442)"><g transform="translate(0.449 0.449)"><path d="M292.933,37v4.467q-4.3.391-4.3,6.225H292a1.8,1.8,0,0,1,1.8,1.8v5.39a1.8,1.8,0,0,1-1.8,1.8h-6.2a1.8,1.8,0,0,1-1.8-1.8V48Q284,37.5,292.933,37Z" transform="translate(-284 -37)" fill="#46ea72"/><path d="M18.933,37v4.467q-4.3.391-4.3,6.225H18a1.8,1.8,0,0,1,1.8,1.8v5.39a1.8,1.8,0,0,1-1.8,1.8H11.8a1.8,1.8,0,0,1-1.8-1.8V48Q10,37.5,18.933,37Z" transform="translate(2.309 -37)" fill="#46ea72"/></g><path d="M9.382,27a.449.449,0,0,1,.449.449v4.467a.449.449,0,0,1-.409.447c-2.508.228-3.782,1.973-3.884,5.329H8.445a2.249,2.249,0,0,1,2.246,2.246v5.39a2.249,2.249,0,0,1-2.246,2.246h-6.2A2.249,2.249,0,0,1,0,45.328V43.891a.45.45,0,0,1,.9,0v1.438a1.349,1.349,0,0,0,1.348,1.348h6.2A1.349,1.349,0,0,0,9.8,45.329v-5.39A1.349,1.349,0,0,0,8.445,38.59H5.083a.449.449,0,0,1-.449-.449,8.3,8.3,0,0,1,1.154-4.729,4.489,4.489,0,0,1,3.145-1.894V27.932C3.528,28.416.9,31.861.9,38.448v1.609a.45.45,0,1,1-.9,0V38.448c0-3.588.785-6.374,2.334-8.281A9.267,9.267,0,0,1,9.357,27Z" transform="translate(12.309 -27)" fill="#34c75c"/><path d="M276.246,47.574h6.2a2.249,2.249,0,0,0,2.246-2.246v-5.39a2.249,2.249,0,0,0-2.246-2.246H279.54c.1-3.356,1.376-5.1,3.884-5.329a.449.449,0,0,0,.409-.447V27.449a.449.449,0,0,0-.449-.449h-.025a9.267,9.267,0,0,0-7.023,3.166C274.785,32.074,274,34.86,274,38.448v6.88a2.249,2.249,0,0,0,2.246,2.246ZM274.9,38.448c0-6.588,2.629-10.032,8.035-10.516v3.586a4.488,4.488,0,0,0-3.145,1.894,8.3,8.3,0,0,0-1.154,4.729.449.449,0,0,0,.449.449h3.362a1.349,1.349,0,0,1,1.348,1.348v5.39a1.349,1.349,0,0,1-1.348,1.348h-5.391V43.35a.45.45,0,1,0-.9,0v3.322a1.349,1.349,0,0,1-1.258-1.344Z" transform="translate(-274 -27)" fill="#34c75c"/><path d="M444.449,145.751a.45.45,0,1,1-.449.454h0a.449.449,0,0,1,.449-.454Z" transform="translate(-441.844 -131.412)" fill="#34c75c"/><path d="M218.449,141.666a.449.449,0,0,1,.449.449v.009a.45.45,0,1,1-.9,0v-.009a.449.449,0,0,1,.451-.449Z" transform="translate(-205.691 -127.151)" fill="#34c75c"/></g><g transform="translate(566 284.422)"><g transform="translate(0.449 0.449)"><path d="M284.86,56.676V52.209q4.3-.391,4.3-6.225H285.8a1.8,1.8,0,0,1-1.8-1.8V38.8a1.8,1.8,0,0,1,1.8-1.8H292a1.8,1.8,0,0,1,1.8,1.8v6.88Q293.793,56.173,284.86,56.676Z" transform="translate(-271.691 -37)" fill="#46ea72"/><path d="M10.86,56.676V52.209q4.3-.391,4.3-6.225H11.8a1.8,1.8,0,0,1-1.8-1.8V38.8A1.8,1.8,0,0,1,11.8,37H18a1.8,1.8,0,0,1,1.8,1.8v6.88Q19.793,56.173,10.86,56.676Z" transform="translate(-10 -37)" fill="#46ea72"/></g><path d="M1.309,47.574a.449.449,0,0,1-.449-.449V42.658a.449.449,0,0,1,.409-.447c2.508-.228,3.782-1.973,3.884-5.329H2.246A2.249,2.249,0,0,1,0,34.636v-5.39A2.249,2.249,0,0,1,2.246,27h6.2a2.249,2.249,0,0,1,2.246,2.246v1.437a.45.45,0,1,1-.9,0V29.246A1.349,1.349,0,0,0,8.445,27.9h-6.2A1.349,1.349,0,0,0,.9,29.246v5.39a1.349,1.349,0,0,0,1.348,1.348h3.36a.449.449,0,0,1,.449.449A8.3,8.3,0,0,1,4.9,41.162a4.489,4.489,0,0,1-3.145,1.894v3.586c5.4-.484,8.035-3.929,8.035-10.516V34.517a.45.45,0,1,1,.9,0v1.609c0,3.588-.785,6.374-2.334,8.281a9.267,9.267,0,0,1-7.023,3.166Z" transform="translate(0 -27)" fill="#34c75c"/><path d="M282.445,27h-6.2A2.249,2.249,0,0,0,274,29.246v5.39a2.249,2.249,0,0,0,2.246,2.246h2.906c-.1,3.356-1.376,5.1-3.884,5.329a.449.449,0,0,0-.409.447v4.467a.449.449,0,0,0,.449.449h.025a9.267,9.267,0,0,0,7.023-3.166c1.549-1.907,2.334-4.693,2.334-8.281v-6.88A2.249,2.249,0,0,0,282.445,27Zm1.348,9.126c0,6.588-2.629,10.032-8.035,10.516V43.056a4.488,4.488,0,0,0,3.145-1.894,8.3,8.3,0,0,0,1.154-4.729.449.449,0,0,0-.449-.449h-3.362a1.349,1.349,0,0,1-1.348-1.348v-5.39a1.349,1.349,0,0,1,1.348-1.348h5.391v3.326a.45.45,0,1,0,.9,0V27.9a1.349,1.349,0,0,1,1.258,1.344Z" transform="translate(-261.691 -27)" fill="#34c75c"/><path d="M444.449,146.652a.45.45,0,1,1,.449-.454h0a.449.449,0,0,1-.449.454Z" transform="translate(-424.055 -140.416)" fill="#34c75c"/><path d="M218.449,142.574a.449.449,0,0,1-.449-.449v-.009a.45.45,0,0,1,.9,0v.009a.449.449,0,0,1-.451.449Z" transform="translate(-208.207 -136.515)" fill="#34c75c"/></g><g transform="translate(15 5)"><path d="M13.557,0h-3.33L4.866-7.047A3.891,3.891,0,0,1,4.5-7.584H4.458V0H1.9V-15.4H4.458v7.24H4.5a3.544,3.544,0,0,1,.365-.526L10.033-15.4h3.062L7.047-8.014ZM29.294-11,26.05,0h-2.61l-2-7.455a4.721,4.721,0,0,1-.15-.967h-.043a4.408,4.408,0,0,1-.193.945L18.885,0H16.328L13.095-11h2.578l2,7.928a4.7,4.7,0,0,1,.129.945h.075a5.106,5.106,0,0,1,.172-.967L20.271-11h2.342l1.977,7.96a5.568,5.568,0,0,1,.14.945H24.8a5.014,5.014,0,0,1,.161-.945L26.92-11Zm3.1-2.31a1.5,1.5,0,0,1-1.047-.4,1.308,1.308,0,0,1-.435-1.01,1.341,1.341,0,0,1,.435-1.021,1.476,1.476,0,0,1,1.047-.408,1.522,1.522,0,0,1,1.074.408,1.334,1.334,0,0,1,.44,1.021,1.315,1.315,0,0,1-.44.994A1.511,1.511,0,0,1,32.4-13.31ZM33.634,0H31.142V-11h2.492ZM46.89,5.06H44.4v-6.95h-.043A3.853,3.853,0,0,1,40.67.258a4.031,4.031,0,0,1-3.26-1.477,6.1,6.1,0,0,1-1.23-4.023A6.676,6.676,0,0,1,37.528-9.62a4.452,4.452,0,0,1,3.625-1.638,3.384,3.384,0,0,1,3.2,1.783H44.4V-11H46.89ZM44.43-5.006V-6.424a2.859,2.859,0,0,0-.768-2.02,2.545,2.545,0,0,0-1.95-.827,2.612,2.612,0,0,0-2.186,1.037,4.7,4.7,0,0,0-.8,2.927A4.072,4.072,0,0,0,39.5-2.675a2.453,2.453,0,0,0,2,.956,2.663,2.663,0,0,0,2.138-.935A3.5,3.5,0,0,0,44.43-5.006ZM49.457-.344v-2.31A4.972,4.972,0,0,0,52.54-1.59q2.256,0,2.256-1.332a1.05,1.05,0,0,0-.193-.639,1.846,1.846,0,0,0-.521-.467,4.1,4.1,0,0,0-.773-.365q-.446-.161-.994-.365A10.519,10.519,0,0,1,51.1-5.328a3.684,3.684,0,0,1-.9-.682,2.575,2.575,0,0,1-.542-.865A3.184,3.184,0,0,1,49.468-8a2.607,2.607,0,0,1,.376-1.4,3.267,3.267,0,0,1,1.01-1.021,4.842,4.842,0,0,1,1.439-.623,6.59,6.59,0,0,1,1.665-.209,7.569,7.569,0,0,1,2.729.462v2.181a4.6,4.6,0,0,0-2.664-.795,3.479,3.479,0,0,0-.854.1,2.2,2.2,0,0,0-.65.269,1.321,1.321,0,0,0-.419.414.987.987,0,0,0-.15.532,1.136,1.136,0,0,0,.15.6,1.366,1.366,0,0,0,.446.435,3.851,3.851,0,0,0,.709.344q.414.156.951.338a13.89,13.89,0,0,1,1.273.591,4.3,4.3,0,0,1,.961.682,2.674,2.674,0,0,1,.612.881,2.991,2.991,0,0,1,.215,1.187,2.713,2.713,0,0,1-.387,1.461A3.223,3.223,0,0,1,55.849-.548a4.827,4.827,0,0,1-1.488.607,7.729,7.729,0,0,1-1.778.2A7.49,7.49,0,0,1,49.457-.344Zm15.05.6a5.452,5.452,0,0,1-4.066-1.542,5.569,5.569,0,0,1-1.52-4.087A5.794,5.794,0,0,1,60.505-9.7a5.826,5.826,0,0,1,4.27-1.558,5.277,5.277,0,0,1,4.018,1.515,5.851,5.851,0,0,1,1.439,4.2A5.765,5.765,0,0,1,68.68-1.327,5.576,5.576,0,0,1,64.507.258Zm.118-9.528a2.845,2.845,0,0,0-2.31,1.021,4.273,4.273,0,0,0-.849,2.814,4.025,4.025,0,0,0,.859,2.723,2.886,2.886,0,0,0,2.3.994A2.739,2.739,0,0,0,66.886-2.7a4.327,4.327,0,0,0,.79-2.782,4.393,4.393,0,0,0-.79-2.8A2.726,2.726,0,0,0,64.625-9.271Zm14-4.984a2.266,2.266,0,0,0-1.149-.29q-1.815,0-1.815,2.052V-11h2.557v1.955H75.668V0H73.176V-9.045H71.3V-11h1.88v-1.783a3.472,3.472,0,0,1,1.139-2.745,4.146,4.146,0,0,1,2.847-1,4.227,4.227,0,0,1,1.461.2ZM86.2-.118a4.319,4.319,0,0,1-1.923.365q-3.2,0-3.2-3.072v-6.22H79.234V-11h1.837v-2.546l2.492-.709V-11H86.2v1.955H83.563v5.5a2.167,2.167,0,0,0,.354,1.4,1.472,1.472,0,0,0,1.182.419,1.713,1.713,0,0,0,1.1-.365ZM110.215,0h-2.492V-6.016q0-3.266-2.181-3.266a2.281,2.281,0,0,0-1.848.945,3.763,3.763,0,0,0-.752,2.417V0h-2.5V-16.285h2.5v7.111h.043a3.936,3.936,0,0,1,3.566-2.084q3.663,0,3.663,4.479Zm11.473,0h-2.417V-1.719h-.043A3.639,3.639,0,0,1,115.887.258a3.519,3.519,0,0,1-2.541-.881,3.081,3.081,0,0,1-.918-2.331q0-3.115,3.588-3.631l3.266-.462q0-2.353-2.234-2.353A5.308,5.308,0,0,0,113.5-8.046v-2.181a7.731,7.731,0,0,1,4.018-1.031q4.168,0,4.168,4.1Zm-2.406-5.4-2.31.322a3.661,3.661,0,0,0-1.617.521,1.522,1.522,0,0,0-.542,1.337,1.464,1.464,0,0,0,.5,1.144,1.934,1.934,0,0,0,1.337.446,2.468,2.468,0,0,0,1.885-.8,2.837,2.837,0,0,0,.747-2.014Zm4.759,5.06v-2.31a4.972,4.972,0,0,0,3.083,1.063q2.256,0,2.256-1.332a1.05,1.05,0,0,0-.193-.639,1.846,1.846,0,0,0-.521-.467,4.1,4.1,0,0,0-.773-.365q-.446-.161-.994-.365a10.52,10.52,0,0,1-1.219-.569,3.684,3.684,0,0,1-.9-.682,2.575,2.575,0,0,1-.542-.865A3.184,3.184,0,0,1,124.051-8a2.607,2.607,0,0,1,.376-1.4,3.267,3.267,0,0,1,1.01-1.021,4.842,4.842,0,0,1,1.439-.623,6.59,6.59,0,0,1,1.665-.209,7.569,7.569,0,0,1,2.729.462v2.181a4.6,4.6,0,0,0-2.664-.795,3.479,3.479,0,0,0-.854.1,2.2,2.2,0,0,0-.65.269,1.321,1.321,0,0,0-.419.414.987.987,0,0,0-.15.532,1.136,1.136,0,0,0,.15.6,1.366,1.366,0,0,0,.446.435,3.85,3.85,0,0,0,.709.344q.414.156.951.338a13.89,13.89,0,0,1,1.273.591,4.3,4.3,0,0,1,.961.682,2.674,2.674,0,0,1,.612.881,2.991,2.991,0,0,1,.215,1.187,2.713,2.713,0,0,1-.387,1.461,3.223,3.223,0,0,1-1.031,1.031,4.827,4.827,0,0,1-1.488.607,7.729,7.729,0,0,1-1.778.2A7.49,7.49,0,0,1,124.04-.344ZM150.262,0H147.77V-1.869h-.043A3.975,3.975,0,0,1,144.021.258a4,4,0,0,1-3.25-1.477,6.132,6.132,0,0,1-1.219-4.023A6.68,6.68,0,0,1,140.9-9.614a4.412,4.412,0,0,1,3.593-1.644,3.441,3.441,0,0,1,3.233,1.783h.043v-6.811h2.492ZM147.8-5.027V-6.467a2.8,2.8,0,0,0-.763-1.987,2.544,2.544,0,0,0-1.944-.816,2.618,2.618,0,0,0-2.2,1.042,4.643,4.643,0,0,0-.8,2.89,4.161,4.161,0,0,0,.768,2.648,2.5,2.5,0,0,0,2.068.972,2.586,2.586,0,0,0,2.073-.94A3.541,3.541,0,0,0,147.8-5.027Zm15.028.2h-7.5a3.17,3.17,0,0,0,.94,2.353,3.5,3.5,0,0,0,2.465.827A5.436,5.436,0,0,0,161.971-2.7V-.687A7.387,7.387,0,0,1,158,.258a4.92,4.92,0,0,1-3.808-1.5,5.994,5.994,0,0,1-1.38-4.216,5.861,5.861,0,0,1,1.52-4.184,4.972,4.972,0,0,1,3.776-1.617,4.335,4.335,0,0,1,3.491,1.45,6.021,6.021,0,0,1,1.235,4.028Zm-2.406-1.762a3.211,3.211,0,0,0-.634-2.089,2.118,2.118,0,0,0-1.719-.747,2.419,2.419,0,0,0-1.821.784,3.582,3.582,0,0,0-.918,2.052ZM175.205,0h-2.492V-1.869h-.043A3.975,3.975,0,0,1,168.964.258a4,4,0,0,1-3.25-1.477A6.132,6.132,0,0,1,164.5-5.242a6.68,6.68,0,0,1,1.348-4.372,4.412,4.412,0,0,1,3.593-1.644,3.441,3.441,0,0,1,3.233,1.783h.043v-6.811h2.492Zm-2.46-5.027V-6.467a2.8,2.8,0,0,0-.763-1.987,2.544,2.544,0,0,0-1.944-.816,2.618,2.618,0,0,0-2.2,1.042,4.643,4.643,0,0,0-.8,2.89,4.161,4.161,0,0,0,.768,2.648,2.5,2.5,0,0,0,2.068.972,2.586,2.586,0,0,0,2.073-.94A3.541,3.541,0,0,0,172.745-5.027Zm6.972-8.282a1.5,1.5,0,0,1-1.047-.4,1.308,1.308,0,0,1-.435-1.01,1.341,1.341,0,0,1,.435-1.021,1.476,1.476,0,0,1,1.047-.408,1.522,1.522,0,0,1,1.074.408,1.334,1.334,0,0,1,.44,1.021,1.315,1.315,0,0,1-.44.994A1.511,1.511,0,0,1,179.717-13.31ZM180.952,0H178.46V-11h2.492Zm11.129-.5a6.146,6.146,0,0,1-3.126.763A5.294,5.294,0,0,1,185-1.273a5.423,5.423,0,0,1-1.5-3.969,5.968,5.968,0,0,1,1.617-4.367,5.78,5.78,0,0,1,4.324-1.649,6.312,6.312,0,0,1,2.653.526v2.32a4.019,4.019,0,0,0-2.449-.859A3.4,3.4,0,0,0,187.054-8.2a3.908,3.908,0,0,0-1.01,2.8,3.727,3.727,0,0,0,.951,2.7,3.375,3.375,0,0,0,2.551.988,3.987,3.987,0,0,0,2.535-.956ZM203,0h-2.417V-1.719h-.043A3.639,3.639,0,0,1,197.194.258a3.519,3.519,0,0,1-2.541-.881,3.081,3.081,0,0,1-.918-2.331q0-3.115,3.588-3.631l3.266-.462q0-2.353-2.234-2.353a5.308,5.308,0,0,0-3.545,1.354v-2.181a7.731,7.731,0,0,1,4.018-1.031q4.168,0,4.168,4.1Zm-2.406-5.4-2.31.322a3.661,3.661,0,0,0-1.617.521,1.522,1.522,0,0,0-.542,1.337,1.464,1.464,0,0,0,.5,1.144,1.934,1.934,0,0,0,1.337.446,2.468,2.468,0,0,0,1.885-.8,2.837,2.837,0,0,0,.747-2.014ZM211.836-.118a4.319,4.319,0,0,1-1.923.365q-3.2,0-3.2-3.072v-6.22h-1.837V-11h1.837v-2.546l2.492-.709V-11h2.632v1.955H209.2v5.5a2.167,2.167,0,0,0,.354,1.4,1.472,1.472,0,0,0,1.182.419,1.713,1.713,0,0,0,1.1-.365Zm11.333-4.705h-7.5a3.17,3.17,0,0,0,.94,2.353,3.5,3.5,0,0,0,2.465.827A5.436,5.436,0,0,0,222.31-2.7V-.687a7.387,7.387,0,0,1-3.975.945,4.92,4.92,0,0,1-3.808-1.5,5.994,5.994,0,0,1-1.38-4.216,5.861,5.861,0,0,1,1.52-4.184,4.972,4.972,0,0,1,3.776-1.617,4.335,4.335,0,0,1,3.491,1.45,6.021,6.021,0,0,1,1.235,4.028Zm-2.406-1.762a3.211,3.211,0,0,0-.634-2.089,2.118,2.118,0,0,0-1.719-.747,2.419,2.419,0,0,0-1.821.784,3.582,3.582,0,0,0-.918,2.052ZM235.544,0h-2.492V-1.869h-.043A3.975,3.975,0,0,1,229.3.258a4,4,0,0,1-3.25-1.477,6.132,6.132,0,0,1-1.219-4.023,6.68,6.68,0,0,1,1.348-4.372,4.412,4.412,0,0,1,3.593-1.644,3.441,3.441,0,0,1,3.233,1.783h.043v-6.811h2.492Zm-2.46-5.027V-6.467a2.8,2.8,0,0,0-.763-1.987,2.544,2.544,0,0,0-1.944-.816,2.618,2.618,0,0,0-2.2,1.042,4.643,4.643,0,0,0-.8,2.89,4.161,4.161,0,0,0,.768,2.648,2.5,2.5,0,0,0,2.068.972,2.586,2.586,0,0,0,2.073-.94A3.541,3.541,0,0,0,233.084-5.027ZM254.848,0h-2.492V-1.869h-.043A3.975,3.975,0,0,1,248.606.258a4,4,0,0,1-3.25-1.477,6.132,6.132,0,0,1-1.219-4.023,6.68,6.68,0,0,1,1.348-4.372,4.412,4.412,0,0,1,3.593-1.644,3.441,3.441,0,0,1,3.233,1.783h.043v-6.811h2.492Zm-2.46-5.027V-6.467a2.8,2.8,0,0,0-.763-1.987,2.544,2.544,0,0,0-1.944-.816,2.618,2.618,0,0,0-2.2,1.042,4.643,4.643,0,0,0-.8,2.89,4.161,4.161,0,0,0,.768,2.648,2.5,2.5,0,0,0,2.068.972,2.586,2.586,0,0,0,2.073-.94A3.541,3.541,0,0,0,252.388-5.027Zm15.028.2h-7.5a3.17,3.17,0,0,0,.94,2.353,3.5,3.5,0,0,0,2.465.827A5.436,5.436,0,0,0,266.557-2.7V-.687a7.387,7.387,0,0,1-3.975.945,4.92,4.92,0,0,1-3.808-1.5,5.994,5.994,0,0,1-1.38-4.216,5.861,5.861,0,0,1,1.52-4.184,4.972,4.972,0,0,1,3.776-1.617,4.335,4.335,0,0,1,3.491,1.45,6.021,6.021,0,0,1,1.235,4.028ZM265.01-6.585a3.211,3.211,0,0,0-.634-2.089,2.118,2.118,0,0,0-1.719-.747,2.419,2.419,0,0,0-1.821.784,3.583,3.583,0,0,0-.918,2.052ZM279.265-11,275.011,0h-2.7l-4.05-11h2.707l2.438,7.691a7.172,7.172,0,0,1,.344,1.482h.032a7.957,7.957,0,0,1,.3-1.439L276.644-11Zm10.828,6.177h-7.5a3.17,3.17,0,0,0,.94,2.353A3.5,3.5,0,0,0,286-1.644,5.436,5.436,0,0,0,289.233-2.7V-.687a7.387,7.387,0,0,1-3.975.945,4.92,4.92,0,0,1-3.808-1.5,5.994,5.994,0,0,1-1.38-4.216,5.861,5.861,0,0,1,1.52-4.184,4.972,4.972,0,0,1,3.776-1.617,4.335,4.335,0,0,1,3.491,1.45,6.021,6.021,0,0,1,1.235,4.028Zm-2.406-1.762a3.211,3.211,0,0,0-.634-2.089,2.118,2.118,0,0,0-1.719-.747,2.419,2.419,0,0,0-1.821.784,3.583,3.583,0,0,0-.918,2.052ZM294.97,0h-2.5V-16.285h2.5Zm8.121.258a5.452,5.452,0,0,1-4.066-1.542,5.569,5.569,0,0,1-1.52-4.087A5.794,5.794,0,0,1,299.089-9.7a5.826,5.826,0,0,1,4.27-1.558,5.277,5.277,0,0,1,4.018,1.515,5.851,5.851,0,0,1,1.439,4.2,5.765,5.765,0,0,1-1.552,4.216A5.576,5.576,0,0,1,303.091.258Zm.118-9.528A2.845,2.845,0,0,0,300.9-8.25a4.273,4.273,0,0,0-.849,2.814,4.025,4.025,0,0,0,.859,2.723,2.886,2.886,0,0,0,2.3.994A2.739,2.739,0,0,0,305.47-2.7a4.327,4.327,0,0,0,.79-2.782,4.393,4.393,0,0,0-.79-2.8A2.726,2.726,0,0,0,303.209-9.271Zm10.678,7.648h-.043V5.06h-2.492V-11h2.492v1.934h.043a4.084,4.084,0,0,1,3.738-2.191,3.938,3.938,0,0,1,3.266,1.472,6.172,6.172,0,0,1,1.171,3.953,6.853,6.853,0,0,1-1.321,4.4A4.37,4.37,0,0,1,317.131.226,3.6,3.6,0,0,1,313.887-1.622Zm-.064-4.34V-4.6a2.911,2.911,0,0,0,.768,2.041,2.53,2.53,0,0,0,1.95.838,2.547,2.547,0,0,0,2.175-1.08,5.024,5.024,0,0,0,.79-3.013,3.959,3.959,0,0,0-.736-2.541,2.418,2.418,0,0,0-1.993-.918,2.685,2.685,0,0,0-2.143.945A3.5,3.5,0,0,0,313.822-5.962Zm20.1,1.139h-7.5a3.17,3.17,0,0,0,.94,2.353,3.5,3.5,0,0,0,2.465.827A5.436,5.436,0,0,0,333.062-2.7V-.687a7.387,7.387,0,0,1-3.975.945,4.92,4.92,0,0,1-3.808-1.5,5.994,5.994,0,0,1-1.38-4.216,5.861,5.861,0,0,1,1.52-4.184,4.972,4.972,0,0,1,3.776-1.617,4.335,4.335,0,0,1,3.491,1.45,6.021,6.021,0,0,1,1.235,4.028Zm-2.406-1.762a3.211,3.211,0,0,0-.634-2.089,2.118,2.118,0,0,0-1.719-.747,2.419,2.419,0,0,0-1.821.784,3.583,3.583,0,0,0-.918,2.052Zm11.161-2.041a2.066,2.066,0,0,0-1.3-.354,2.225,2.225,0,0,0-1.848,1,4.467,4.467,0,0,0-.741,2.718V0h-2.492V-11h2.492v2.267h.043a3.832,3.832,0,0,1,1.123-1.81,2.534,2.534,0,0,1,1.692-.65,2.1,2.1,0,0,1,1.031.2ZM343.89-.344v-2.31a4.972,4.972,0,0,0,3.083,1.063q2.256,0,2.256-1.332a1.05,1.05,0,0,0-.193-.639,1.846,1.846,0,0,0-.521-.467,4.1,4.1,0,0,0-.773-.365q-.446-.161-.994-.365a10.52,10.52,0,0,1-1.219-.569,3.683,3.683,0,0,1-.9-.682,2.575,2.575,0,0,1-.542-.865A3.184,3.184,0,0,1,343.9-8a2.607,2.607,0,0,1,.376-1.4,3.267,3.267,0,0,1,1.01-1.021,4.842,4.842,0,0,1,1.439-.623,6.59,6.59,0,0,1,1.665-.209,7.569,7.569,0,0,1,2.729.462v2.181a4.6,4.6,0,0,0-2.664-.795,3.479,3.479,0,0,0-.854.1,2.2,2.2,0,0,0-.65.269,1.321,1.321,0,0,0-.419.414.987.987,0,0,0-.15.532,1.136,1.136,0,0,0,.15.6,1.366,1.366,0,0,0,.446.435,3.85,3.85,0,0,0,.709.344q.414.156.951.338a13.89,13.89,0,0,1,1.273.591,4.3,4.3,0,0,1,.961.682,2.674,2.674,0,0,1,.612.881A2.991,2.991,0,0,1,351.7-3.04a2.713,2.713,0,0,1-.387,1.461,3.223,3.223,0,0,1-1.031,1.031,4.827,4.827,0,0,1-1.488.607,7.729,7.729,0,0,1-1.778.2A7.49,7.49,0,0,1,343.89-.344ZM374.9-11,371.658,0h-2.61l-2-7.455a4.722,4.722,0,0,1-.15-.967h-.043a4.406,4.406,0,0,1-.193.945L364.493,0h-2.557L358.7-11h2.578l2,7.928a4.7,4.7,0,0,1,.129.945h.075a5.1,5.1,0,0,1,.172-.967L365.879-11h2.342L370.2-3.04a5.569,5.569,0,0,1,.14.945h.075a5.012,5.012,0,0,1,.161-.945L372.528-11ZM386.525,0h-2.492V-6.016q0-3.266-2.181-3.266A2.281,2.281,0,0,0,380-8.336a3.763,3.763,0,0,0-.752,2.417V0h-2.5V-16.285h2.5v7.111h.043a3.936,3.936,0,0,1,3.566-2.084q3.663,0,3.663,4.479Zm7.906.258a5.452,5.452,0,0,1-4.066-1.542,5.569,5.569,0,0,1-1.52-4.087A5.794,5.794,0,0,1,390.43-9.7a5.826,5.826,0,0,1,4.27-1.558,5.277,5.277,0,0,1,4.018,1.515,5.851,5.851,0,0,1,1.439,4.2A5.765,5.765,0,0,1,398.6-1.327,5.576,5.576,0,0,1,394.432.258Zm.118-9.528a2.845,2.845,0,0,0-2.31,1.021,4.273,4.273,0,0,0-.849,2.814,4.025,4.025,0,0,0,.859,2.723,2.886,2.886,0,0,0,2.3.994,2.739,2.739,0,0,0,2.261-.978,4.327,4.327,0,0,0,.79-2.782,4.393,4.393,0,0,0-.79-2.8A2.726,2.726,0,0,0,394.55-9.271Z" transform="translate(83.997 131.917)" fill="#3b4d53"/><path d="M7.423-.118A4.319,4.319,0,0,1,5.5.247q-3.2,0-3.2-3.072v-6.22H.462V-11H2.3v-2.546l2.492-.709V-11H7.423v1.955H4.791v5.5a2.167,2.167,0,0,0,.354,1.4,1.472,1.472,0,0,0,1.182.419,1.713,1.713,0,0,0,1.1-.365ZM18.015,0H15.6V-1.719h-.043A3.639,3.639,0,0,1,12.214.258,3.519,3.519,0,0,1,9.673-.623a3.081,3.081,0,0,1-.918-2.331q0-3.115,3.588-3.631l3.266-.462q0-2.353-2.234-2.353A5.308,5.308,0,0,0,9.829-8.046v-2.181a7.731,7.731,0,0,1,4.018-1.031q4.168,0,4.168,4.1ZM15.608-5.4l-2.31.322a3.661,3.661,0,0,0-1.617.521,1.522,1.522,0,0,0-.542,1.337,1.464,1.464,0,0,0,.5,1.144,1.934,1.934,0,0,0,1.337.446,2.468,2.468,0,0,0,1.885-.8,2.837,2.837,0,0,0,.747-2.014ZM31.034,0H27.876L23.6-5.285h-.043V0h-2.5V-16.285h2.5V-5.962H23.6L27.64-11h3L26.093-5.693Zm10.5-4.823h-7.5a3.17,3.17,0,0,0,.94,2.353,3.5,3.5,0,0,0,2.465.827A5.436,5.436,0,0,0,40.67-2.7V-.687A7.387,7.387,0,0,1,36.7.258a4.92,4.92,0,0,1-3.808-1.5,5.994,5.994,0,0,1-1.38-4.216,5.861,5.861,0,0,1,1.52-4.184A4.972,4.972,0,0,1,36.8-11.258a4.335,4.335,0,0,1,3.491,1.45,6.021,6.021,0,0,1,1.235,4.028ZM39.123-6.585a3.211,3.211,0,0,0-.634-2.089,2.118,2.118,0,0,0-1.719-.747,2.419,2.419,0,0,0-1.821.784,3.582,3.582,0,0,0-.918,2.052ZM59.544,0H57.052V-1.74h-.043a3.587,3.587,0,0,1-3.373,2q-3.9,0-3.9-4.684V-11h2.492v6.316q0,2.965,2.288,2.965a2.312,2.312,0,0,0,1.821-.816,3.129,3.129,0,0,0,.714-2.138V-11h2.492Zm5.779-1.622H65.28V5.06H62.788V-11H65.28v1.934h.043a4.084,4.084,0,0,1,3.738-2.191,3.938,3.938,0,0,1,3.266,1.472A6.172,6.172,0,0,1,73.5-5.833a6.853,6.853,0,0,1-1.321,4.4A4.37,4.37,0,0,1,68.567.226,3.6,3.6,0,0,1,65.323-1.622Zm-.064-4.34V-4.6a2.911,2.911,0,0,0,.768,2.041,2.529,2.529,0,0,0,1.95.838A2.547,2.547,0,0,0,70.152-2.8a5.024,5.024,0,0,0,.79-3.013,3.959,3.959,0,0,0-.736-2.541,2.418,2.418,0,0,0-1.993-.918,2.685,2.685,0,0,0-2.143.945A3.5,3.5,0,0,0,65.259-5.962ZM87.893-.118A4.319,4.319,0,0,1,85.97.247q-3.2,0-3.2-3.072v-6.22H80.932V-11h1.837v-2.546l2.492-.709V-11h2.632v1.955H85.261v5.5a2.167,2.167,0,0,0,.354,1.4,1.472,1.472,0,0,0,1.182.419,1.713,1.713,0,0,0,1.1-.365ZM99.816,0H97.324V-6.016q0-3.266-2.181-3.266a2.281,2.281,0,0,0-1.848.945,3.763,3.763,0,0,0-.752,2.417V0h-2.5V-16.285h2.5v7.111h.043a3.936,3.936,0,0,1,3.566-2.084q3.663,0,3.663,4.479Zm12.343-4.823h-7.5a3.17,3.17,0,0,0,.94,2.353,3.5,3.5,0,0,0,2.465.827A5.436,5.436,0,0,0,111.3-2.7V-.687a7.387,7.387,0,0,1-3.975.945,4.92,4.92,0,0,1-3.808-1.5,5.994,5.994,0,0,1-1.38-4.216,5.861,5.861,0,0,1,1.52-4.184,4.972,4.972,0,0,1,3.776-1.617,4.335,4.335,0,0,1,3.491,1.45,6.021,6.021,0,0,1,1.235,4.028Zm-2.406-1.762a3.211,3.211,0,0,0-.634-2.089,2.118,2.118,0,0,0-1.719-.747,2.419,2.419,0,0,0-1.821.784,3.583,3.583,0,0,0-.918,2.052Zm13.363,4.963h-.043V5.06h-2.492V-11h2.492v1.934h.043a4.084,4.084,0,0,1,3.738-2.191,3.938,3.938,0,0,1,3.266,1.472,6.172,6.172,0,0,1,1.171,3.953,6.853,6.853,0,0,1-1.321,4.4A4.37,4.37,0,0,1,126.36.226,3.6,3.6,0,0,1,123.116-1.622Zm-.064-4.34V-4.6a2.911,2.911,0,0,0,.768,2.041,2.529,2.529,0,0,0,1.95.838,2.547,2.547,0,0,0,2.175-1.08,5.024,5.024,0,0,0,.79-3.013A3.959,3.959,0,0,0,128-8.352a2.418,2.418,0,0,0-1.993-.918,2.685,2.685,0,0,0-2.143.945A3.5,3.5,0,0,0,123.052-5.962Zm17.166-2.664a2.066,2.066,0,0,0-1.3-.354,2.225,2.225,0,0,0-1.848,1,4.467,4.467,0,0,0-.741,2.718V0h-2.492V-11h2.492v2.267h.043a3.832,3.832,0,0,1,1.123-1.81,2.534,2.534,0,0,1,1.692-.65,2.1,2.1,0,0,1,1.031.2ZM146.663.258A5.452,5.452,0,0,1,142.6-1.284a5.568,5.568,0,0,1-1.52-4.087A5.794,5.794,0,0,1,142.662-9.7a5.826,5.826,0,0,1,4.27-1.558,5.277,5.277,0,0,1,4.018,1.515,5.851,5.851,0,0,1,1.439,4.2,5.765,5.765,0,0,1-1.552,4.216A5.576,5.576,0,0,1,146.663.258Zm.118-9.528a2.845,2.845,0,0,0-2.31,1.021,4.273,4.273,0,0,0-.849,2.814,4.025,4.025,0,0,0,.859,2.723,2.886,2.886,0,0,0,2.3.994,2.739,2.739,0,0,0,2.261-.978,4.327,4.327,0,0,0,.79-2.782,4.393,4.393,0,0,0-.79-2.8A2.726,2.726,0,0,0,146.781-9.271ZM157.416-.462a6.677,6.677,0,0,1-1.139,4.173,3.877,3.877,0,0,1-3.255,1.466,3.588,3.588,0,0,1-1.525-.344V2.7a2.35,2.35,0,0,0,1.321.483q2.105,0,2.105-3.717V-11h2.492ZM156.191-13.31a1.5,1.5,0,0,1-1.047-.4,1.308,1.308,0,0,1-.435-1.01,1.341,1.341,0,0,1,.435-1.021,1.476,1.476,0,0,1,1.047-.408,1.509,1.509,0,0,1,1.063.408,1.334,1.334,0,0,1,.44,1.021,1.315,1.315,0,0,1-.44.994A1.5,1.5,0,0,1,156.191-13.31Zm13.793,8.486h-7.5a3.17,3.17,0,0,0,.94,2.353,3.5,3.5,0,0,0,2.465.827A5.436,5.436,0,0,0,169.125-2.7V-.687a7.387,7.387,0,0,1-3.975.945,4.92,4.92,0,0,1-3.808-1.5,5.994,5.994,0,0,1-1.38-4.216,5.861,5.861,0,0,1,1.52-4.184,4.972,4.972,0,0,1,3.776-1.617,4.335,4.335,0,0,1,3.491,1.45,6.021,6.021,0,0,1,1.235,4.028Zm-2.406-1.762a3.211,3.211,0,0,0-.634-2.089,2.118,2.118,0,0,0-1.719-.747,2.419,2.419,0,0,0-1.821.784,3.582,3.582,0,0,0-.918,2.052ZM180.232-.5a6.146,6.146,0,0,1-3.126.763,5.294,5.294,0,0,1-3.953-1.531,5.423,5.423,0,0,1-1.5-3.969,5.968,5.968,0,0,1,1.617-4.367,5.78,5.78,0,0,1,4.324-1.649,6.312,6.312,0,0,1,2.653.526v2.32a4.019,4.019,0,0,0-2.449-.859A3.4,3.4,0,0,0,175.205-8.2a3.908,3.908,0,0,0-1.01,2.8,3.727,3.727,0,0,0,.951,2.7,3.375,3.375,0,0,0,2.551.988,3.987,3.987,0,0,0,2.535-.956Zm8.271.387a4.319,4.319,0,0,1-1.923.365q-3.2,0-3.2-3.072v-6.22h-1.837V-11h1.837v-2.546l2.492-.709V-11H188.5v1.955h-2.632v5.5a2.167,2.167,0,0,0,.354,1.4,1.472,1.472,0,0,0,1.182.419,1.713,1.713,0,0,0,1.1-.365ZM205.144,0h-2.417V-1.719h-.043A3.639,3.639,0,0,1,199.343.258,3.519,3.519,0,0,1,196.8-.623a3.081,3.081,0,0,1-.918-2.331q0-3.115,3.588-3.631l3.266-.462q0-2.353-2.234-2.353a5.308,5.308,0,0,0-3.545,1.354v-2.181a7.731,7.731,0,0,1,4.018-1.031q4.168,0,4.168,4.1Zm-2.406-5.4-2.31.322a3.661,3.661,0,0,0-1.617.521,1.522,1.522,0,0,0-.542,1.337,1.464,1.464,0,0,0,.5,1.144,1.934,1.934,0,0,0,1.337.446,2.468,2.468,0,0,0,1.885-.8,2.837,2.837,0,0,0,.747-2.014ZM217.98,0h-2.492V-6.2q0-3.083-2.181-3.083a2.381,2.381,0,0,0-1.88.854,3.168,3.168,0,0,0-.741,2.154V0h-2.5V-11h2.5v1.826h.043a3.921,3.921,0,0,1,3.566-2.084,3.322,3.322,0,0,1,2.739,1.166,5.234,5.234,0,0,1,.945,3.368Zm13.041,0h-2.492V-1.869h-.043A3.975,3.975,0,0,1,224.78.258a4,4,0,0,1-3.25-1.477,6.132,6.132,0,0,1-1.219-4.023,6.68,6.68,0,0,1,1.348-4.372,4.412,4.412,0,0,1,3.593-1.644,3.441,3.441,0,0,1,3.233,1.783h.043v-6.811h2.492Zm-2.46-5.027V-6.467a2.8,2.8,0,0,0-.763-1.987,2.544,2.544,0,0,0-1.944-.816,2.618,2.618,0,0,0-2.2,1.042,4.643,4.643,0,0,0-.8,2.89,4.161,4.161,0,0,0,.768,2.648,2.5,2.5,0,0,0,2.068.972,2.586,2.586,0,0,0,2.073-.94A3.541,3.541,0,0,0,228.562-5.027ZM249.917,0h-2.492V-1.74h-.043a3.587,3.587,0,0,1-3.373,2q-3.9,0-3.9-4.684V-11H242.6v6.316q0,2.965,2.288,2.965a2.312,2.312,0,0,0,1.821-.816,3.128,3.128,0,0,0,.714-2.138V-11h2.492Zm13.041,0h-2.492V-6.2q0-3.083-2.181-3.083a2.381,2.381,0,0,0-1.88.854,3.168,3.168,0,0,0-.741,2.154V0h-2.5V-11h2.5v1.826h.043a3.921,3.921,0,0,1,3.566-2.084,3.322,3.322,0,0,1,2.739,1.166,5.234,5.234,0,0,1,.945,3.368ZM276,0h-2.492V-1.869h-.043A3.975,3.975,0,0,1,269.758.258a4,4,0,0,1-3.25-1.477,6.132,6.132,0,0,1-1.219-4.023,6.68,6.68,0,0,1,1.348-4.372,4.412,4.412,0,0,1,3.593-1.644,3.441,3.441,0,0,1,3.233,1.783h.043v-6.811H276Zm-2.46-5.027V-6.467a2.8,2.8,0,0,0-.763-1.987,2.544,2.544,0,0,0-1.944-.816,2.618,2.618,0,0,0-2.2,1.042,4.643,4.643,0,0,0-.8,2.89,4.16,4.16,0,0,0,.768,2.648,2.5,2.5,0,0,0,2.068.972,2.586,2.586,0,0,0,2.073-.94A3.541,3.541,0,0,0,273.539-5.027Zm15.028.2h-7.5a3.17,3.17,0,0,0,.94,2.353,3.5,3.5,0,0,0,2.465.827A5.436,5.436,0,0,0,287.708-2.7V-.687a7.387,7.387,0,0,1-3.975.945,4.92,4.92,0,0,1-3.808-1.5,5.994,5.994,0,0,1-1.38-4.216,5.861,5.861,0,0,1,1.52-4.184,4.972,4.972,0,0,1,3.776-1.617,4.335,4.335,0,0,1,3.491,1.45,6.021,6.021,0,0,1,1.235,4.028Zm-2.406-1.762a3.211,3.211,0,0,0-.634-2.089,2.118,2.118,0,0,0-1.719-.747,2.419,2.419,0,0,0-1.821.784,3.583,3.583,0,0,0-.918,2.052Zm11.161-2.041a2.066,2.066,0,0,0-1.3-.354,2.225,2.225,0,0,0-1.848,1,4.467,4.467,0,0,0-.741,2.718V0h-2.492V-11h2.492v2.267h.043a3.832,3.832,0,0,1,1.123-1.81,2.534,2.534,0,0,1,1.692-.65,2.1,2.1,0,0,1,1.031.2Zm1.214,8.282v-2.31a4.972,4.972,0,0,0,3.083,1.063q2.256,0,2.256-1.332a1.05,1.05,0,0,0-.193-.639,1.846,1.846,0,0,0-.521-.467,4.1,4.1,0,0,0-.773-.365q-.446-.161-.994-.365a10.52,10.52,0,0,1-1.219-.569,3.683,3.683,0,0,1-.9-.682,2.575,2.575,0,0,1-.542-.865A3.184,3.184,0,0,1,298.547-8a2.607,2.607,0,0,1,.376-1.4,3.267,3.267,0,0,1,1.01-1.021,4.842,4.842,0,0,1,1.439-.623,6.59,6.59,0,0,1,1.665-.209,7.569,7.569,0,0,1,2.729.462v2.181A4.6,4.6,0,0,0,303.1-9.41a3.479,3.479,0,0,0-.854.1,2.2,2.2,0,0,0-.65.269,1.321,1.321,0,0,0-.419.414.987.987,0,0,0-.15.532,1.136,1.136,0,0,0,.15.6,1.366,1.366,0,0,0,.446.435,3.85,3.85,0,0,0,.709.344q.414.156.951.338a13.89,13.89,0,0,1,1.273.591,4.3,4.3,0,0,1,.961.682,2.674,2.674,0,0,1,.612.881,2.991,2.991,0,0,1,.215,1.187,2.713,2.713,0,0,1-.387,1.461,3.223,3.223,0,0,1-1.031,1.031,4.827,4.827,0,0,1-1.488.607,7.729,7.729,0,0,1-1.778.2A7.49,7.49,0,0,1,298.536-.344Zm15.974.226a4.319,4.319,0,0,1-1.923.365q-3.2,0-3.2-3.072v-6.22h-1.837V-11h1.837v-2.546l2.492-.709V-11h2.632v1.955h-2.632v5.5a2.167,2.167,0,0,0,.354,1.4,1.472,1.472,0,0,0,1.182.419,1.713,1.713,0,0,0,1.1-.365ZM325.1,0h-2.417V-1.719h-.043A3.639,3.639,0,0,1,319.3.258a3.519,3.519,0,0,1-2.541-.881,3.081,3.081,0,0,1-.918-2.331q0-3.115,3.588-3.631l3.266-.462q0-2.353-2.234-2.353a5.308,5.308,0,0,0-3.545,1.354v-2.181a7.731,7.731,0,0,1,4.018-1.031q4.168,0,4.168,4.1ZM322.7-5.4l-2.31.322a3.661,3.661,0,0,0-1.617.521,1.522,1.522,0,0,0-.542,1.337,1.464,1.464,0,0,0,.5,1.144,1.934,1.934,0,0,0,1.337.446,2.468,2.468,0,0,0,1.885-.8,2.838,2.838,0,0,0,.747-2.014ZM337.938,0h-2.492V-6.2q0-3.083-2.181-3.083a2.381,2.381,0,0,0-1.88.854,3.168,3.168,0,0,0-.741,2.154V0h-2.5V-11h2.5v1.826h.043a3.921,3.921,0,0,1,3.566-2.084,3.322,3.322,0,0,1,2.739,1.166,5.234,5.234,0,0,1,.945,3.368Zm13.041,0h-2.492V-1.869h-.043A3.975,3.975,0,0,1,344.738.258a4,4,0,0,1-3.25-1.477,6.132,6.132,0,0,1-1.219-4.023,6.68,6.68,0,0,1,1.348-4.372,4.412,4.412,0,0,1,3.593-1.644,3.441,3.441,0,0,1,3.233,1.783h.043v-6.811h2.492Zm-2.46-5.027V-6.467a2.8,2.8,0,0,0-.763-1.987,2.544,2.544,0,0,0-1.944-.816,2.618,2.618,0,0,0-2.2,1.042,4.643,4.643,0,0,0-.8,2.89,4.16,4.16,0,0,0,.768,2.648,2.5,2.5,0,0,0,2.068.972,2.586,2.586,0,0,0,2.073-.94A3.541,3.541,0,0,0,348.52-5.027ZM366.083-.118a4.319,4.319,0,0,1-1.923.365q-3.2,0-3.2-3.072v-6.22h-1.837V-11h1.837v-2.546l2.492-.709V-11h2.632v1.955h-2.632v5.5a2.167,2.167,0,0,0,.354,1.4,1.472,1.472,0,0,0,1.182.419,1.713,1.713,0,0,0,1.1-.365ZM378.007,0h-2.492V-6.016q0-3.266-2.181-3.266a2.281,2.281,0,0,0-1.848.945,3.763,3.763,0,0,0-.752,2.417V0h-2.5V-16.285h2.5v7.111h.043a3.936,3.936,0,0,1,3.566-2.084q3.663,0,3.663,4.479ZM390.35-4.823h-7.5a3.17,3.17,0,0,0,.94,2.353,3.5,3.5,0,0,0,2.465.827A5.436,5.436,0,0,0,389.49-2.7V-.687a7.387,7.387,0,0,1-3.975.945,4.92,4.92,0,0,1-3.808-1.5,5.994,5.994,0,0,1-1.38-4.216,5.861,5.861,0,0,1,1.52-4.184,4.972,4.972,0,0,1,3.776-1.617,4.335,4.335,0,0,1,3.491,1.45,6.021,6.021,0,0,1,1.235,4.028Zm-2.406-1.762a3.211,3.211,0,0,0-.634-2.089,2.118,2.118,0,0,0-1.719-.747,2.419,2.419,0,0,0-1.821.784,3.583,3.583,0,0,0-.918,2.052Z" transform="translate(85.997 161.917)" fill="#3b4d53"/><path d="M4.157-1.622H4.114V5.06H1.622V-11H4.114v1.934h.043A4.084,4.084,0,0,1,7.9-11.258a3.938,3.938,0,0,1,3.266,1.472,6.172,6.172,0,0,1,1.171,3.953,6.853,6.853,0,0,1-1.321,4.4A4.37,4.37,0,0,1,7.4.226,3.6,3.6,0,0,1,4.157-1.622Zm-.064-4.34V-4.6a2.911,2.911,0,0,0,.768,2.041,2.529,2.529,0,0,0,1.95.838A2.547,2.547,0,0,0,8.986-2.8a5.024,5.024,0,0,0,.79-3.013A3.959,3.959,0,0,0,9.04-8.352a2.418,2.418,0,0,0-1.993-.918A2.685,2.685,0,0,0,4.9-8.325,3.5,3.5,0,0,0,4.093-5.962ZM21.259-8.626a2.066,2.066,0,0,0-1.3-.354,2.225,2.225,0,0,0-1.848,1,4.467,4.467,0,0,0-.741,2.718V0H14.878V-11H17.37v2.267h.043a3.832,3.832,0,0,1,1.123-1.81,2.534,2.534,0,0,1,1.692-.65,2.1,2.1,0,0,1,1.031.2Zm10.882,3.8h-7.5a3.17,3.17,0,0,0,.94,2.353,3.5,3.5,0,0,0,2.465.827A5.436,5.436,0,0,0,31.281-2.7V-.687a7.387,7.387,0,0,1-3.975.945,4.92,4.92,0,0,1-3.808-1.5,5.994,5.994,0,0,1-1.38-4.216,5.861,5.861,0,0,1,1.52-4.184,4.972,4.972,0,0,1,3.776-1.617,4.335,4.335,0,0,1,3.491,1.45,6.021,6.021,0,0,1,1.235,4.028ZM29.734-6.585A3.211,3.211,0,0,0,29.1-8.674a2.118,2.118,0,0,0-1.719-.747,2.419,2.419,0,0,0-1.821.784,3.582,3.582,0,0,0-.918,2.052ZM40.9-8.626a2.066,2.066,0,0,0-1.3-.354,2.225,2.225,0,0,0-1.848,1,4.467,4.467,0,0,0-.741,2.718V0H34.515V-11h2.492v2.267h.043a3.832,3.832,0,0,1,1.123-1.81,2.534,2.534,0,0,1,1.692-.65,2.1,2.1,0,0,1,1.031.2Zm10.882,3.8h-7.5a3.17,3.17,0,0,0,.94,2.353,3.5,3.5,0,0,0,2.465.827A5.436,5.436,0,0,0,50.918-2.7V-.687a7.387,7.387,0,0,1-3.975.945,4.92,4.92,0,0,1-3.808-1.5,5.994,5.994,0,0,1-1.38-4.216,5.861,5.861,0,0,1,1.52-4.184,4.972,4.972,0,0,1,3.776-1.617,4.335,4.335,0,0,1,3.491,1.45,6.021,6.021,0,0,1,1.235,4.028ZM49.371-6.585a3.211,3.211,0,0,0-.634-2.089,2.118,2.118,0,0,0-1.719-.747,2.419,2.419,0,0,0-1.821.784,3.582,3.582,0,0,0-.918,2.052ZM64.152,5.06H61.66v-6.95h-.043A3.853,3.853,0,0,1,57.933.258a4.031,4.031,0,0,1-3.26-1.477,6.1,6.1,0,0,1-1.23-4.023A6.676,6.676,0,0,1,54.791-9.62a4.452,4.452,0,0,1,3.625-1.638,3.384,3.384,0,0,1,3.2,1.783h.043V-11h2.492ZM61.692-5.006V-6.424a2.859,2.859,0,0,0-.768-2.02,2.545,2.545,0,0,0-1.95-.827,2.612,2.612,0,0,0-2.186,1.037,4.7,4.7,0,0,0-.8,2.927,4.072,4.072,0,0,0,.773,2.632,2.453,2.453,0,0,0,2,.956A2.663,2.663,0,0,0,60.9-2.653,3.5,3.5,0,0,0,61.692-5.006ZM77,0H74.508V-1.74h-.043a3.587,3.587,0,0,1-3.373,2q-3.9,0-3.9-4.684V-11h2.492v6.316q0,2.965,2.288,2.965a2.312,2.312,0,0,0,1.821-.816,3.129,3.129,0,0,0,.714-2.138V-11H77Zm4.5-13.31a1.5,1.5,0,0,1-1.047-.4,1.308,1.308,0,0,1-.435-1.01,1.341,1.341,0,0,1,.435-1.021,1.476,1.476,0,0,1,1.047-.408,1.522,1.522,0,0,1,1.074.408,1.334,1.334,0,0,1,.44,1.021,1.315,1.315,0,0,1-.44.994A1.511,1.511,0,0,1,81.5-13.31ZM82.736,0H80.244V-11h2.492ZM85.3-.344v-2.31A4.972,4.972,0,0,0,88.387-1.59q2.256,0,2.256-1.332a1.05,1.05,0,0,0-.193-.639,1.846,1.846,0,0,0-.521-.467,4.1,4.1,0,0,0-.773-.365q-.446-.161-.994-.365a10.52,10.52,0,0,1-1.219-.569,3.684,3.684,0,0,1-.9-.682,2.575,2.575,0,0,1-.542-.865A3.184,3.184,0,0,1,85.314-8a2.607,2.607,0,0,1,.376-1.4,3.267,3.267,0,0,1,1.01-1.021,4.842,4.842,0,0,1,1.439-.623,6.59,6.59,0,0,1,1.665-.209,7.569,7.569,0,0,1,2.729.462v2.181a4.6,4.6,0,0,0-2.664-.795,3.479,3.479,0,0,0-.854.1,2.2,2.2,0,0,0-.65.269,1.321,1.321,0,0,0-.419.414.987.987,0,0,0-.15.532,1.136,1.136,0,0,0,.15.6,1.366,1.366,0,0,0,.446.435,3.85,3.85,0,0,0,.709.344q.414.156.951.338a13.89,13.89,0,0,1,1.273.591,4.3,4.3,0,0,1,.961.682,2.674,2.674,0,0,1,.612.881,2.991,2.991,0,0,1,.215,1.187,2.713,2.713,0,0,1-.387,1.461A3.223,3.223,0,0,1,91.7-.548a4.827,4.827,0,0,1-1.488.607,7.729,7.729,0,0,1-1.778.2A7.49,7.49,0,0,1,85.3-.344ZM96.733-13.31a1.5,1.5,0,0,1-1.047-.4,1.308,1.308,0,0,1-.435-1.01,1.341,1.341,0,0,1,.435-1.021,1.476,1.476,0,0,1,1.047-.408,1.522,1.522,0,0,1,1.074.408,1.334,1.334,0,0,1,.44,1.021,1.315,1.315,0,0,1-.44.994A1.511,1.511,0,0,1,96.733-13.31ZM97.969,0H95.477V-11h2.492Zm9.056-.118A4.319,4.319,0,0,1,105.1.247q-3.2,0-3.2-3.072v-6.22h-1.837V-11H101.9v-2.546l2.492-.709V-11h2.632v1.955h-2.632v5.5a2.167,2.167,0,0,0,.354,1.4,1.472,1.472,0,0,0,1.182.419,1.713,1.713,0,0,0,1.1-.365Zm11.333-4.705h-7.5a3.17,3.17,0,0,0,.94,2.353,3.5,3.5,0,0,0,2.465.827A5.436,5.436,0,0,0,117.5-2.7V-.687a7.387,7.387,0,0,1-3.975.945,4.92,4.92,0,0,1-3.808-1.5,5.994,5.994,0,0,1-1.38-4.216,5.861,5.861,0,0,1,1.52-4.184,4.972,4.972,0,0,1,3.776-1.617,4.335,4.335,0,0,1,3.491,1.45,6.021,6.021,0,0,1,1.235,4.028Zm-2.406-1.762a3.211,3.211,0,0,0-.634-2.089,2.118,2.118,0,0,0-1.719-.747,2.419,2.419,0,0,0-1.821.784,3.583,3.583,0,0,0-.918,2.052Zm4.093,6.241v-2.31a4.972,4.972,0,0,0,3.083,1.063q2.256,0,2.256-1.332a1.05,1.05,0,0,0-.193-.639,1.846,1.846,0,0,0-.521-.467,4.1,4.1,0,0,0-.773-.365q-.446-.161-.994-.365a10.52,10.52,0,0,1-1.219-.569,3.684,3.684,0,0,1-.9-.682,2.575,2.575,0,0,1-.542-.865A3.184,3.184,0,0,1,120.055-8a2.607,2.607,0,0,1,.376-1.4,3.267,3.267,0,0,1,1.01-1.021,4.842,4.842,0,0,1,1.439-.623,6.59,6.59,0,0,1,1.665-.209,7.569,7.569,0,0,1,2.729.462v2.181a4.6,4.6,0,0,0-2.664-.795,3.479,3.479,0,0,0-.854.1,2.2,2.2,0,0,0-.65.269,1.321,1.321,0,0,0-.419.414.987.987,0,0,0-.15.532,1.136,1.136,0,0,0,.15.6,1.366,1.366,0,0,0,.446.435,3.85,3.85,0,0,0,.709.344q.414.156.951.338a13.89,13.89,0,0,1,1.273.591,4.3,4.3,0,0,1,.961.682,2.674,2.674,0,0,1,.612.881,2.991,2.991,0,0,1,.215,1.187,2.713,2.713,0,0,1-.387,1.461,3.223,3.223,0,0,1-1.031,1.031,4.827,4.827,0,0,1-1.488.607,7.729,7.729,0,0,1-1.778.2A7.49,7.49,0,0,1,120.044-.344Zm21.1.6a5.452,5.452,0,0,1-4.066-1.542,5.568,5.568,0,0,1-1.52-4.087A5.794,5.794,0,0,1,137.14-9.7a5.826,5.826,0,0,1,4.27-1.558,5.277,5.277,0,0,1,4.018,1.515,5.851,5.851,0,0,1,1.439,4.2,5.765,5.765,0,0,1-1.552,4.216A5.576,5.576,0,0,1,141.142.258Zm.118-9.528a2.845,2.845,0,0,0-2.31,1.021,4.273,4.273,0,0,0-.849,2.814,4.025,4.025,0,0,0,.859,2.723,2.886,2.886,0,0,0,2.3.994,2.739,2.739,0,0,0,2.261-.978,4.327,4.327,0,0,0,.79-2.782,4.393,4.393,0,0,0-.79-2.8A2.726,2.726,0,0,0,141.26-9.271Zm14-4.984a2.266,2.266,0,0,0-1.149-.29q-1.815,0-1.815,2.052V-11h2.557v1.955H152.3V0h-2.492V-9.045h-1.88V-11h1.88v-1.783a3.472,3.472,0,0,1,1.139-2.745,4.146,4.146,0,0,1,2.847-1,4.227,4.227,0,0,1,1.461.2ZM168.47-.118a4.319,4.319,0,0,1-1.923.365q-3.2,0-3.2-3.072v-6.22h-1.837V-11h1.837v-2.546l2.492-.709V-11h2.632v1.955h-2.632v5.5a2.167,2.167,0,0,0,.354,1.4,1.472,1.472,0,0,0,1.182.419,1.713,1.713,0,0,0,1.1-.365ZM180.394,0H177.9V-6.016q0-3.266-2.181-3.266a2.281,2.281,0,0,0-1.848.945,3.763,3.763,0,0,0-.752,2.417V0h-2.5V-16.285h2.5v7.111h.043a3.936,3.936,0,0,1,3.566-2.084q3.663,0,3.663,4.479Zm12.343-4.823h-7.5a3.17,3.17,0,0,0,.94,2.353,3.5,3.5,0,0,0,2.465.827A5.436,5.436,0,0,0,191.877-2.7V-.687A7.387,7.387,0,0,1,187.9.258a4.92,4.92,0,0,1-3.808-1.5,5.994,5.994,0,0,1-1.38-4.216,5.861,5.861,0,0,1,1.52-4.184,4.972,4.972,0,0,1,3.776-1.617,4.335,4.335,0,0,1,3.491,1.45,6.021,6.021,0,0,1,1.235,4.028ZM190.33-6.585a3.211,3.211,0,0,0-.634-2.089,2.118,2.118,0,0,0-1.719-.747,2.419,2.419,0,0,0-1.821.784,3.582,3.582,0,0,0-.918,2.052Zm18.7,6.08a6.146,6.146,0,0,1-3.126.763,5.294,5.294,0,0,1-3.953-1.531,5.423,5.423,0,0,1-1.5-3.969,5.968,5.968,0,0,1,1.617-4.367,5.78,5.78,0,0,1,4.324-1.649,6.312,6.312,0,0,1,2.653.526v2.32a4.019,4.019,0,0,0-2.449-.859A3.4,3.4,0,0,0,204-8.2,3.908,3.908,0,0,0,203-5.4a3.727,3.727,0,0,0,.951,2.7,3.375,3.375,0,0,0,2.551.988,3.987,3.987,0,0,0,2.535-.956Zm4.974.5h-2.5V-16.285h2.5Zm4.5-13.31a1.5,1.5,0,0,1-1.047-.4,1.308,1.308,0,0,1-.435-1.01,1.341,1.341,0,0,1,.435-1.021,1.476,1.476,0,0,1,1.047-.408,1.522,1.522,0,0,1,1.074.408,1.334,1.334,0,0,1,.44,1.021,1.315,1.315,0,0,1-.44.994A1.511,1.511,0,0,1,218.507-13.31ZM219.742,0H217.25V-11h2.492Zm12.568-4.823h-7.5a3.17,3.17,0,0,0,.94,2.353,3.5,3.5,0,0,0,2.465.827A5.436,5.436,0,0,0,231.451-2.7V-.687a7.387,7.387,0,0,1-3.975.945,4.92,4.92,0,0,1-3.808-1.5,5.994,5.994,0,0,1-1.38-4.216,5.861,5.861,0,0,1,1.52-4.184,4.972,4.972,0,0,1,3.776-1.617,4.335,4.335,0,0,1,3.491,1.45,6.021,6.021,0,0,1,1.235,4.028ZM229.9-6.585a3.211,3.211,0,0,0-.634-2.089,2.118,2.118,0,0,0-1.719-.747,2.419,2.419,0,0,0-1.821.784,3.582,3.582,0,0,0-.918,2.052ZM244.481,0h-2.492V-6.2q0-3.083-2.181-3.083a2.381,2.381,0,0,0-1.88.854,3.168,3.168,0,0,0-.741,2.154V0h-2.5V-11h2.5v1.826h.043a3.921,3.921,0,0,1,3.566-2.084,3.322,3.322,0,0,1,2.739,1.166,5.234,5.234,0,0,1,.945,3.368Zm8.841-.118A4.319,4.319,0,0,1,251.4.247q-3.2,0-3.2-3.072v-6.22h-1.837V-11H248.2v-2.546l2.492-.709V-11h2.632v1.955H250.69v5.5a2.167,2.167,0,0,0,.354,1.4,1.472,1.472,0,0,0,1.182.419,1.713,1.713,0,0,0,1.1-.365Zm3.18.354a1.541,1.541,0,0,1-1.1-.424,1.345,1.345,0,0,1-.451-1.015,1.374,1.374,0,0,1,.451-1.031,1.53,1.53,0,0,1,1.1-.43,1.562,1.562,0,0,1,1.112.43A1.366,1.366,0,0,1,258.07-1.2a1.338,1.338,0,0,1-.457,1.015A1.573,1.573,0,0,1,256.5.236ZM269.726,0h-2.632V-15.4h2.632Zm18,0h-2.417V-1.719h-.043A3.639,3.639,0,0,1,281.929.258a3.519,3.519,0,0,1-2.541-.881,3.081,3.081,0,0,1-.918-2.331q0-3.115,3.588-3.631l3.266-.462q0-2.353-2.234-2.353a5.308,5.308,0,0,0-3.545,1.354v-2.181a7.731,7.731,0,0,1,4.018-1.031q4.168,0,4.168,4.1Zm-2.406-5.4-2.31.322a3.661,3.661,0,0,0-1.617.521,1.522,1.522,0,0,0-.542,1.337,1.464,1.464,0,0,0,.5,1.144,1.934,1.934,0,0,0,1.337.446,2.468,2.468,0,0,0,1.885-.8,2.838,2.838,0,0,0,.747-2.014ZM307.216,0h-2.492V-5.994a4.858,4.858,0,0,0-.489-2.5,1.8,1.8,0,0,0-1.649-.773,1.987,1.987,0,0,0-1.66.978,3.989,3.989,0,0,0-.682,2.342V0h-2.5V-6.2q0-3.072-2.17-3.072a1.957,1.957,0,0,0-1.66.924,4.074,4.074,0,0,0-.65,2.4V0H290.77V-11h2.492v1.74h.043a3.811,3.811,0,0,1,3.47-2,3.271,3.271,0,0,1,1.993.628,3.13,3.13,0,0,1,1.166,1.649,3.925,3.925,0,0,1,3.652-2.277q3.631,0,3.631,4.479Zm18.863,0h-2.492V-6.016q0-3.266-2.181-3.266a2.281,2.281,0,0,0-1.848.945,3.763,3.763,0,0,0-.752,2.417V0h-2.5V-16.285h2.5v7.111h.043a3.936,3.936,0,0,1,3.566-2.084q3.663,0,3.663,4.479Zm11.473,0h-2.417V-1.719h-.043A3.639,3.639,0,0,1,331.751.258a3.519,3.519,0,0,1-2.541-.881,3.081,3.081,0,0,1-.918-2.331q0-3.115,3.588-3.631l3.266-.462q0-2.353-2.234-2.353a5.308,5.308,0,0,0-3.545,1.354v-2.181a7.731,7.731,0,0,1,4.018-1.031q4.168,0,4.168,4.1Zm-2.406-5.4-2.31.322a3.661,3.661,0,0,0-1.617.521,1.522,1.522,0,0,0-.542,1.337,1.464,1.464,0,0,0,.5,1.144,1.934,1.934,0,0,0,1.337.446,2.468,2.468,0,0,0,1.885-.8,2.838,2.838,0,0,0,.747-2.014Zm7.981,3.781h-.043V5.06h-2.492V-11h2.492v1.934h.043a4.084,4.084,0,0,1,3.738-2.191,3.938,3.938,0,0,1,3.266,1.472A6.172,6.172,0,0,1,351.3-5.833a6.853,6.853,0,0,1-1.321,4.4A4.37,4.37,0,0,1,346.371.226,3.6,3.6,0,0,1,343.127-1.622Zm-.064-4.34V-4.6a2.911,2.911,0,0,0,.768,2.041,2.53,2.53,0,0,0,1.95.838,2.547,2.547,0,0,0,2.175-1.08,5.024,5.024,0,0,0,.79-3.013,3.959,3.959,0,0,0-.736-2.541,2.418,2.418,0,0,0-1.993-.918,2.685,2.685,0,0,0-2.143.945A3.5,3.5,0,0,0,343.063-5.962Zm13.32,4.34h-.043V5.06h-2.492V-11h2.492v1.934h.043a4.084,4.084,0,0,1,3.738-2.191,3.938,3.938,0,0,1,3.266,1.472,6.172,6.172,0,0,1,1.171,3.953,6.853,6.853,0,0,1-1.321,4.4A4.37,4.37,0,0,1,359.627.226,3.6,3.6,0,0,1,356.383-1.622Zm-.064-4.34V-4.6a2.911,2.911,0,0,0,.768,2.041,2.53,2.53,0,0,0,1.95.838,2.547,2.547,0,0,0,2.175-1.08A5.024,5.024,0,0,0,362-5.812a3.959,3.959,0,0,0-.736-2.541,2.418,2.418,0,0,0-1.993-.918,2.685,2.685,0,0,0-2.143.945A3.5,3.5,0,0,0,356.318-5.962ZM376.632-11,371.669,1.762q-1.547,3.416-4.34,3.416a5.2,5.2,0,0,1-1.311-.14V2.965a3.485,3.485,0,0,0,1.074.193,2.217,2.217,0,0,0,2.084-1.375l.741-1.8L365.546-11h2.761l2.621,7.992q.043.15.193.795h.054q.054-.247.193-.773L374.118-11Zm22.494,0L395.882,0h-2.61l-2-7.455a4.722,4.722,0,0,1-.15-.967h-.043a4.406,4.406,0,0,1-.193.945L388.717,0H386.16l-3.233-11H385.5l2,7.928a4.7,4.7,0,0,1,.129.945h.075a5.1,5.1,0,0,1,.172-.967L390.1-11h2.342l1.977,7.96a5.569,5.569,0,0,1,.14.945h.075a5.012,5.012,0,0,1,.161-.945L396.752-11Zm3.1-2.31a1.5,1.5,0,0,1-1.047-.4,1.308,1.308,0,0,1-.435-1.01,1.341,1.341,0,0,1,.435-1.021,1.476,1.476,0,0,1,1.047-.408,1.522,1.522,0,0,1,1.074.408,1.334,1.334,0,0,1,.44,1.021,1.315,1.315,0,0,1-.44.994A1.511,1.511,0,0,1,402.23-13.31ZM403.466,0h-2.492V-11h2.492Zm9.056-.118A4.319,4.319,0,0,1,410.6.247q-3.2,0-3.2-3.072v-6.22h-1.837V-11H407.4v-2.546l2.492-.709V-11h2.632v1.955H409.89v5.5a2.167,2.167,0,0,0,.354,1.4,1.472,1.472,0,0,0,1.182.419,1.713,1.713,0,0,0,1.1-.365ZM424.445,0h-2.492V-6.016q0-3.266-2.181-3.266a2.281,2.281,0,0,0-1.848.945,3.763,3.763,0,0,0-.752,2.417V0h-2.5V-16.285h2.5v7.111h.043a3.936,3.936,0,0,1,3.566-2.084q3.663,0,3.663,4.479Z" transform="translate(70.997 191.917)" fill="#3b4d53"/><path d="M7.423-.118A4.319,4.319,0,0,1,5.5.247q-3.2,0-3.2-3.072v-6.22H.462V-11H2.3v-2.546l2.492-.709V-11H7.423v1.955H4.791v5.5a2.167,2.167,0,0,0,.354,1.4,1.472,1.472,0,0,0,1.182.419,1.713,1.713,0,0,0,1.1-.365ZM19.347,0H16.854V-6.016q0-3.266-2.181-3.266a2.281,2.281,0,0,0-1.848.945,3.763,3.763,0,0,0-.752,2.417V0h-2.5V-16.285h2.5v7.111h.043a3.936,3.936,0,0,1,3.566-2.084q3.663,0,3.663,4.479ZM31.689-4.823h-7.5a3.17,3.17,0,0,0,.94,2.353,3.5,3.5,0,0,0,2.465.827A5.436,5.436,0,0,0,30.83-2.7V-.687a7.387,7.387,0,0,1-3.975.945,4.92,4.92,0,0,1-3.808-1.5,5.994,5.994,0,0,1-1.38-4.216,5.861,5.861,0,0,1,1.52-4.184,4.972,4.972,0,0,1,3.776-1.617,4.335,4.335,0,0,1,3.491,1.45,6.021,6.021,0,0,1,1.235,4.028ZM29.283-6.585a3.211,3.211,0,0,0-.634-2.089,2.118,2.118,0,0,0-1.719-.747,2.419,2.419,0,0,0-1.821.784,3.582,3.582,0,0,0-.918,2.052ZM39.424-.344v-2.31A4.972,4.972,0,0,0,42.507-1.59q2.256,0,2.256-1.332a1.05,1.05,0,0,0-.193-.639,1.846,1.846,0,0,0-.521-.467,4.1,4.1,0,0,0-.773-.365q-.446-.161-.994-.365a10.519,10.519,0,0,1-1.219-.569,3.684,3.684,0,0,1-.9-.682,2.575,2.575,0,0,1-.542-.865A3.184,3.184,0,0,1,39.435-8a2.607,2.607,0,0,1,.376-1.4,3.267,3.267,0,0,1,1.01-1.021,4.842,4.842,0,0,1,1.439-.623,6.59,6.59,0,0,1,1.665-.209,7.569,7.569,0,0,1,2.729.462v2.181a4.6,4.6,0,0,0-2.664-.795,3.479,3.479,0,0,0-.854.1,2.2,2.2,0,0,0-.65.269,1.321,1.321,0,0,0-.419.414.987.987,0,0,0-.15.532,1.136,1.136,0,0,0,.15.6,1.366,1.366,0,0,0,.446.435,3.851,3.851,0,0,0,.709.344q.414.156.951.338a13.89,13.89,0,0,1,1.273.591,4.3,4.3,0,0,1,.961.682,2.674,2.674,0,0,1,.612.881,2.991,2.991,0,0,1,.215,1.187,2.713,2.713,0,0,1-.387,1.461A3.223,3.223,0,0,1,45.815-.548a4.827,4.827,0,0,1-1.488.607,7.729,7.729,0,0,1-1.778.2A7.49,7.49,0,0,1,39.424-.344ZM58.91-4.823h-7.5a3.17,3.17,0,0,0,.94,2.353,3.5,3.5,0,0,0,2.465.827A5.436,5.436,0,0,0,58.051-2.7V-.687a7.387,7.387,0,0,1-3.975.945,4.92,4.92,0,0,1-3.808-1.5,5.994,5.994,0,0,1-1.38-4.216,5.861,5.861,0,0,1,1.52-4.184,4.972,4.972,0,0,1,3.776-1.617,4.335,4.335,0,0,1,3.491,1.45A6.021,6.021,0,0,1,58.91-5.779ZM56.5-6.585a3.211,3.211,0,0,0-.634-2.089,2.118,2.118,0,0,0-1.719-.747,2.419,2.419,0,0,0-1.821.784,3.582,3.582,0,0,0-.918,2.052ZM67.665-8.626a2.066,2.066,0,0,0-1.3-.354,2.225,2.225,0,0,0-1.848,1,4.467,4.467,0,0,0-.741,2.718V0H61.284V-11h2.492v2.267h.043a3.832,3.832,0,0,1,1.123-1.81,2.534,2.534,0,0,1,1.692-.65,2.1,2.1,0,0,1,1.031.2ZM79.782-11,75.528,0h-2.7l-4.05-11h2.707l2.438,7.691a7.171,7.171,0,0,1,.344,1.482H74.3a7.958,7.958,0,0,1,.3-1.439L77.161-11Zm2.943-2.31a1.5,1.5,0,0,1-1.047-.4,1.308,1.308,0,0,1-.435-1.01,1.341,1.341,0,0,1,.435-1.021,1.476,1.476,0,0,1,1.047-.408,1.522,1.522,0,0,1,1.074.408,1.334,1.334,0,0,1,.44,1.021,1.315,1.315,0,0,1-.44.994A1.511,1.511,0,0,1,82.726-13.31ZM83.961,0H81.469V-11h2.492ZM95.09-.5a6.146,6.146,0,0,1-3.126.763,5.294,5.294,0,0,1-3.953-1.531,5.423,5.423,0,0,1-1.5-3.969,5.968,5.968,0,0,1,1.617-4.367,5.78,5.78,0,0,1,4.324-1.649,6.312,6.312,0,0,1,2.653.526v2.32a4.019,4.019,0,0,0-2.449-.859A3.4,3.4,0,0,0,90.063-8.2a3.908,3.908,0,0,0-1.01,2.8A3.727,3.727,0,0,0,90-2.707a3.375,3.375,0,0,0,2.551.988,3.987,3.987,0,0,0,2.535-.956Zm11.784-4.318h-7.5a3.17,3.17,0,0,0,.94,2.353,3.5,3.5,0,0,0,2.465.827A5.436,5.436,0,0,0,106.015-2.7V-.687a7.387,7.387,0,0,1-3.975.945,4.92,4.92,0,0,1-3.808-1.5,5.994,5.994,0,0,1-1.38-4.216,5.861,5.861,0,0,1,1.52-4.184,4.972,4.972,0,0,1,3.776-1.617,4.335,4.335,0,0,1,3.491,1.45,6.021,6.021,0,0,1,1.235,4.028Zm-2.406-1.762a3.211,3.211,0,0,0-.634-2.089,2.118,2.118,0,0,0-1.719-.747,2.419,2.419,0,0,0-1.821.784,3.583,3.583,0,0,0-.918,2.052Zm4.093,6.241v-2.31a4.972,4.972,0,0,0,3.083,1.063q2.256,0,2.256-1.332a1.05,1.05,0,0,0-.193-.639,1.846,1.846,0,0,0-.521-.467,4.1,4.1,0,0,0-.773-.365q-.446-.161-.994-.365a10.52,10.52,0,0,1-1.219-.569,3.684,3.684,0,0,1-.9-.682,2.575,2.575,0,0,1-.542-.865A3.184,3.184,0,0,1,108.571-8a2.607,2.607,0,0,1,.376-1.4,3.267,3.267,0,0,1,1.01-1.021,4.842,4.842,0,0,1,1.439-.623,6.59,6.59,0,0,1,1.665-.209,7.569,7.569,0,0,1,2.729.462v2.181a4.6,4.6,0,0,0-2.664-.795,3.479,3.479,0,0,0-.854.1,2.2,2.2,0,0,0-.65.269,1.321,1.321,0,0,0-.419.414.987.987,0,0,0-.15.532,1.136,1.136,0,0,0,.15.6,1.366,1.366,0,0,0,.446.435,3.85,3.85,0,0,0,.709.344q.414.156.951.338a13.89,13.89,0,0,1,1.273.591,4.3,4.3,0,0,1,.961.682,2.674,2.674,0,0,1,.612.881,2.991,2.991,0,0,1,.215,1.187,2.713,2.713,0,0,1-.387,1.461,3.223,3.223,0,0,1-1.031,1.031,4.827,4.827,0,0,1-1.488.607,7.729,7.729,0,0,1-1.778.2A7.49,7.49,0,0,1,108.561-.344ZM133.225,0h-2.417V-1.719h-.043A3.639,3.639,0,0,1,127.424.258a3.519,3.519,0,0,1-2.541-.881,3.081,3.081,0,0,1-.918-2.331q0-3.115,3.588-3.631l3.266-.462q0-2.353-2.234-2.353a5.308,5.308,0,0,0-3.545,1.354v-2.181a7.731,7.731,0,0,1,4.018-1.031q4.168,0,4.168,4.1Zm-2.406-5.4-2.31.322a3.661,3.661,0,0,0-1.617.521,1.522,1.522,0,0,0-.542,1.337,1.464,1.464,0,0,0,.5,1.144,1.934,1.934,0,0,0,1.337.446,2.468,2.468,0,0,0,1.885-.8,2.837,2.837,0,0,0,.747-2.014ZM146.062,0h-2.492V-6.2q0-3.083-2.181-3.083a2.381,2.381,0,0,0-1.88.854,3.168,3.168,0,0,0-.741,2.154V0h-2.5V-11h2.5v1.826h.043a3.921,3.921,0,0,1,3.566-2.084,3.322,3.322,0,0,1,2.739,1.166,5.234,5.234,0,0,1,.945,3.368ZM159.1,0H156.61V-1.869h-.043A3.975,3.975,0,0,1,152.861.258a4,4,0,0,1-3.25-1.477,6.132,6.132,0,0,1-1.219-4.023,6.68,6.68,0,0,1,1.348-4.372,4.412,4.412,0,0,1,3.593-1.644,3.441,3.441,0,0,1,3.233,1.783h.043v-6.811H159.1Zm-2.46-5.027V-6.467a2.8,2.8,0,0,0-.763-1.987,2.544,2.544,0,0,0-1.944-.816,2.618,2.618,0,0,0-2.2,1.042,4.643,4.643,0,0,0-.8,2.89,4.161,4.161,0,0,0,.768,2.648,2.5,2.5,0,0,0,2.068.972,2.586,2.586,0,0,0,2.073-.94A3.541,3.541,0,0,0,156.643-5.027ZM174.206-.118a4.319,4.319,0,0,1-1.923.365q-3.2,0-3.2-3.072v-6.22h-1.837V-11h1.837v-2.546l2.492-.709V-11h2.632v1.955h-2.632v5.5a2.167,2.167,0,0,0,.354,1.4,1.472,1.472,0,0,0,1.182.419,1.713,1.713,0,0,0,1.1-.365ZM186.13,0h-2.492V-6.016q0-3.266-2.181-3.266a2.281,2.281,0,0,0-1.848.945,3.763,3.763,0,0,0-.752,2.417V0h-2.5V-16.285h2.5v7.111h.043a3.936,3.936,0,0,1,3.566-2.084q3.663,0,3.663,4.479Zm12.343-4.823h-7.5a3.17,3.17,0,0,0,.94,2.353,3.5,3.5,0,0,0,2.465.827A5.436,5.436,0,0,0,197.613-2.7V-.687a7.387,7.387,0,0,1-3.975.945,4.92,4.92,0,0,1-3.808-1.5,5.994,5.994,0,0,1-1.38-4.216,5.861,5.861,0,0,1,1.52-4.184,4.972,4.972,0,0,1,3.776-1.617,4.335,4.335,0,0,1,3.491,1.45,6.021,6.021,0,0,1,1.235,4.028Zm-2.406-1.762a3.211,3.211,0,0,0-.634-2.089,2.118,2.118,0,0,0-1.719-.747,2.419,2.419,0,0,0-1.821.784,3.582,3.582,0,0,0-.918,2.052ZM212.7-.118a4.319,4.319,0,0,1-1.923.365q-3.2,0-3.2-3.072v-6.22h-1.837V-11h1.837v-2.546l2.492-.709V-11H212.7v1.955h-2.632v5.5a2.167,2.167,0,0,0,.354,1.4,1.472,1.472,0,0,0,1.182.419,1.713,1.713,0,0,0,1.1-.365ZM216.1-13.31a1.5,1.5,0,0,1-1.047-.4,1.308,1.308,0,0,1-.435-1.01,1.341,1.341,0,0,1,.435-1.021,1.476,1.476,0,0,1,1.047-.408,1.522,1.522,0,0,1,1.074.408,1.334,1.334,0,0,1,.44,1.021,1.315,1.315,0,0,1-.44.994A1.511,1.511,0,0,1,216.1-13.31ZM217.336,0h-2.492V-11h2.492Zm19.7,0h-2.492V-5.994a4.858,4.858,0,0,0-.489-2.5,1.8,1.8,0,0,0-1.649-.773,1.987,1.987,0,0,0-1.66.978,3.989,3.989,0,0,0-.682,2.342V0h-2.5V-6.2q0-3.072-2.17-3.072a1.957,1.957,0,0,0-1.66.924,4.073,4.073,0,0,0-.65,2.4V0h-2.492V-11h2.492v1.74h.043a3.811,3.811,0,0,1,3.47-2,3.271,3.271,0,0,1,1.993.628,3.13,3.13,0,0,1,1.166,1.649,3.925,3.925,0,0,1,3.652-2.277q3.631,0,3.631,4.479Zm12.354-4.823h-7.5a3.17,3.17,0,0,0,.94,2.353,3.5,3.5,0,0,0,2.465.827A5.436,5.436,0,0,0,248.531-2.7V-.687a7.387,7.387,0,0,1-3.975.945,4.92,4.92,0,0,1-3.808-1.5,5.994,5.994,0,0,1-1.38-4.216,5.861,5.861,0,0,1,1.52-4.184,4.972,4.972,0,0,1,3.776-1.617,4.335,4.335,0,0,1,3.491,1.45,6.021,6.021,0,0,1,1.235,4.028Zm-2.406-1.762a3.211,3.211,0,0,0-.634-2.089,2.118,2.118,0,0,0-1.719-.747,2.419,2.419,0,0,0-1.821.784,3.582,3.582,0,0,0-.918,2.052ZM263.613-.118a4.319,4.319,0,0,1-1.923.365q-3.2,0-3.2-3.072v-6.22h-1.837V-11h1.837v-2.546l2.492-.709V-11h2.632v1.955h-2.632v5.5a2.167,2.167,0,0,0,.354,1.4,1.472,1.472,0,0,0,1.182.419,1.713,1.713,0,0,0,1.1-.365ZM274.205,0h-2.417V-1.719h-.043A3.639,3.639,0,0,1,268.4.258a3.519,3.519,0,0,1-2.541-.881,3.081,3.081,0,0,1-.918-2.331q0-3.115,3.588-3.631l3.266-.462q0-2.353-2.234-2.353a5.308,5.308,0,0,0-3.545,1.354v-2.181a7.731,7.731,0,0,1,4.018-1.031q4.168,0,4.168,4.1ZM271.8-5.4l-2.31.322a3.661,3.661,0,0,0-1.617.521,1.522,1.522,0,0,0-.542,1.337,1.464,1.464,0,0,0,.5,1.144,1.934,1.934,0,0,0,1.337.446,2.468,2.468,0,0,0,1.885-.8,2.838,2.838,0,0,0,.747-2.014ZM287.225,0h-3.158l-4.275-5.285h-.043V0h-2.5V-16.285h2.5V-5.962h.043L283.83-11h3l-4.544,5.307Zm10.5-4.823h-7.5a3.17,3.17,0,0,0,.94,2.353,3.5,3.5,0,0,0,2.465.827A5.436,5.436,0,0,0,296.86-2.7V-.687a7.387,7.387,0,0,1-3.975.945,4.92,4.92,0,0,1-3.808-1.5,5.994,5.994,0,0,1-1.38-4.216,5.861,5.861,0,0,1,1.52-4.184,4.972,4.972,0,0,1,3.776-1.617,4.335,4.335,0,0,1,3.491,1.45,6.021,6.021,0,0,1,1.235,4.028Zm-2.406-1.762a3.211,3.211,0,0,0-.634-2.089,2.118,2.118,0,0,0-1.719-.747,2.419,2.419,0,0,0-1.821.784,3.583,3.583,0,0,0-.918,2.052ZM309.891,0H307.4V-6.2q0-3.083-2.181-3.083a2.381,2.381,0,0,0-1.88.854,3.168,3.168,0,0,0-.741,2.154V0h-2.5V-11h2.5v1.826h.043a3.921,3.921,0,0,1,3.566-2.084,3.322,3.322,0,0,1,2.739,1.166,5.234,5.234,0,0,1,.945,3.368Zm14.889-.118a4.319,4.319,0,0,1-1.923.365q-3.2,0-3.2-3.072v-6.22h-1.837V-11h1.837v-2.546l2.492-.709V-11h2.632v1.955h-2.632v5.5a2.167,2.167,0,0,0,.354,1.4,1.472,1.472,0,0,0,1.182.419,1.713,1.713,0,0,0,1.1-.365Zm6.9.376a5.452,5.452,0,0,1-4.066-1.542,5.569,5.569,0,0,1-1.52-4.087A5.794,5.794,0,0,1,327.674-9.7a5.826,5.826,0,0,1,4.27-1.558,5.277,5.277,0,0,1,4.018,1.515,5.851,5.851,0,0,1,1.439,4.2,5.765,5.765,0,0,1-1.552,4.216A5.576,5.576,0,0,1,331.676.258Zm.118-9.528a2.845,2.845,0,0,0-2.31,1.021,4.273,4.273,0,0,0-.849,2.814,4.025,4.025,0,0,0,.859,2.723,2.886,2.886,0,0,0,2.3.994,2.739,2.739,0,0,0,2.261-.978,4.327,4.327,0,0,0,.79-2.782,4.393,4.393,0,0,0-.79-2.8A2.726,2.726,0,0,0,331.794-9.271ZM355.985,0h-2.492V-1.869h-.043A3.975,3.975,0,0,1,349.744.258a4,4,0,0,1-3.25-1.477,6.132,6.132,0,0,1-1.219-4.023,6.68,6.68,0,0,1,1.348-4.372,4.412,4.412,0,0,1,3.593-1.644,3.441,3.441,0,0,1,3.233,1.783h.043v-6.811h2.492Zm-2.46-5.027V-6.467a2.8,2.8,0,0,0-.763-1.987,2.544,2.544,0,0,0-1.944-.816,2.618,2.618,0,0,0-2.2,1.042,4.643,4.643,0,0,0-.8,2.89,4.16,4.16,0,0,0,.768,2.648,2.5,2.5,0,0,0,2.068.972,2.586,2.586,0,0,0,2.073-.94A3.541,3.541,0,0,0,353.525-5.027Zm15.028.2h-7.5A3.17,3.17,0,0,0,362-2.471a3.5,3.5,0,0,0,2.465.827A5.436,5.436,0,0,0,367.694-2.7V-.687a7.387,7.387,0,0,1-3.975.945,4.92,4.92,0,0,1-3.808-1.5,5.994,5.994,0,0,1-1.38-4.216,5.861,5.861,0,0,1,1.52-4.184,4.972,4.972,0,0,1,3.776-1.617,4.335,4.335,0,0,1,3.491,1.45,6.021,6.021,0,0,1,1.235,4.028Zm-2.406-1.762a3.211,3.211,0,0,0-.634-2.089,2.118,2.118,0,0,0-1.719-.747,2.419,2.419,0,0,0-1.821.784,3.583,3.583,0,0,0-.918,2.052ZM373.431,0h-2.5V-16.285h2.5Zm4.5-13.31a1.5,1.5,0,0,1-1.047-.4,1.308,1.308,0,0,1-.435-1.01,1.341,1.341,0,0,1,.435-1.021,1.476,1.476,0,0,1,1.047-.408,1.522,1.522,0,0,1,1.074.408,1.334,1.334,0,0,1,.44,1.021,1.315,1.315,0,0,1-.44.994A1.511,1.511,0,0,1,377.932-13.31ZM379.167,0h-2.492V-11h2.492ZM391.9-11,387.643,0h-2.7L380.9-11H383.6l2.438,7.691a7.172,7.172,0,0,1,.344,1.482h.032a7.957,7.957,0,0,1,.3-1.439L389.275-11Zm10.828,6.177h-7.5a3.17,3.17,0,0,0,.94,2.353,3.5,3.5,0,0,0,2.465.827A5.436,5.436,0,0,0,401.865-2.7V-.687a7.387,7.387,0,0,1-3.975.945,4.92,4.92,0,0,1-3.808-1.5,5.994,5.994,0,0,1-1.38-4.216,5.861,5.861,0,0,1,1.52-4.184A4.972,4.972,0,0,1,398-11.258a4.335,4.335,0,0,1,3.491,1.45,6.021,6.021,0,0,1,1.235,4.028Zm-2.406-1.762a3.211,3.211,0,0,0-.634-2.089,2.118,2.118,0,0,0-1.719-.747,2.419,2.419,0,0,0-1.821.784,3.583,3.583,0,0,0-.918,2.052Zm11.161-2.041a2.066,2.066,0,0,0-1.3-.354,2.225,2.225,0,0,0-1.848,1,4.467,4.467,0,0,0-.741,2.718V0H405.1V-11h2.492v2.267h.043a3.832,3.832,0,0,1,1.123-1.81,2.534,2.534,0,0,1,1.692-.65,2.1,2.1,0,0,1,1.031.2Z" transform="translate(77.997 221.917)" fill="#3b4d53"/><path d="M7.423-.118A4.319,4.319,0,0,1,5.5.247q-3.2,0-3.2-3.072v-6.22H.462V-11H2.3v-2.546l2.492-.709V-11H7.423v1.955H4.791v5.5a2.167,2.167,0,0,0,.354,1.4,1.472,1.472,0,0,0,1.182.419,1.713,1.713,0,0,0,1.1-.365ZM19.347,0H16.854V-6.016q0-3.266-2.181-3.266a2.281,2.281,0,0,0-1.848.945,3.763,3.763,0,0,0-.752,2.417V0h-2.5V-16.285h2.5v7.111h.043a3.936,3.936,0,0,1,3.566-2.084q3.663,0,3.663,4.479ZM31.689-4.823h-7.5a3.17,3.17,0,0,0,.94,2.353,3.5,3.5,0,0,0,2.465.827A5.436,5.436,0,0,0,30.83-2.7V-.687a7.387,7.387,0,0,1-3.975.945,4.92,4.92,0,0,1-3.808-1.5,5.994,5.994,0,0,1-1.38-4.216,5.861,5.861,0,0,1,1.52-4.184,4.972,4.972,0,0,1,3.776-1.617,4.335,4.335,0,0,1,3.491,1.45,6.021,6.021,0,0,1,1.235,4.028ZM29.283-6.585a3.211,3.211,0,0,0-.634-2.089,2.118,2.118,0,0,0-1.719-.747,2.419,2.419,0,0,0-1.821.784,3.582,3.582,0,0,0-.918,2.052ZM42.646-1.622H42.6V5.06H40.111V-11H42.6v1.934h.043a4.084,4.084,0,0,1,3.738-2.191A3.938,3.938,0,0,1,49.65-9.786a6.172,6.172,0,0,1,1.171,3.953,6.853,6.853,0,0,1-1.321,4.4A4.37,4.37,0,0,1,45.891.226,3.6,3.6,0,0,1,42.646-1.622Zm-.064-4.34V-4.6a2.911,2.911,0,0,0,.768,2.041,2.529,2.529,0,0,0,1.95.838A2.547,2.547,0,0,0,47.475-2.8a5.024,5.024,0,0,0,.79-3.013,3.959,3.959,0,0,0-.736-2.541,2.418,2.418,0,0,0-1.993-.918,2.685,2.685,0,0,0-2.143.945A3.5,3.5,0,0,0,42.582-5.962ZM59.748-8.626a2.066,2.066,0,0,0-1.3-.354,2.225,2.225,0,0,0-1.848,1,4.467,4.467,0,0,0-.741,2.718V0H53.367V-11h2.492v2.267H55.9a3.832,3.832,0,0,1,1.123-1.81,2.534,2.534,0,0,1,1.692-.65,2.1,2.1,0,0,1,1.031.2ZM66.193.258a5.452,5.452,0,0,1-4.066-1.542,5.569,5.569,0,0,1-1.52-4.087A5.794,5.794,0,0,1,62.192-9.7a5.826,5.826,0,0,1,4.27-1.558,5.277,5.277,0,0,1,4.018,1.515,5.851,5.851,0,0,1,1.439,4.2,5.765,5.765,0,0,1-1.552,4.216A5.576,5.576,0,0,1,66.193.258Zm.118-9.528A2.845,2.845,0,0,0,64-8.25a4.273,4.273,0,0,0-.849,2.814,4.025,4.025,0,0,0,.859,2.723,2.886,2.886,0,0,0,2.3.994A2.739,2.739,0,0,0,68.573-2.7a4.327,4.327,0,0,0,.79-2.782,4.393,4.393,0,0,0-.79-2.8A2.726,2.726,0,0,0,66.312-9.271ZM76.946-.462a6.677,6.677,0,0,1-1.139,4.173,3.877,3.877,0,0,1-3.255,1.466,3.588,3.588,0,0,1-1.525-.344V2.7a2.35,2.35,0,0,0,1.321.483q2.105,0,2.105-3.717V-11h2.492ZM75.722-13.31a1.5,1.5,0,0,1-1.047-.4,1.308,1.308,0,0,1-.435-1.01,1.341,1.341,0,0,1,.435-1.021,1.476,1.476,0,0,1,1.047-.408,1.509,1.509,0,0,1,1.063.408,1.334,1.334,0,0,1,.44,1.021,1.315,1.315,0,0,1-.44.994A1.5,1.5,0,0,1,75.722-13.31ZM89.515-4.823h-7.5a3.17,3.17,0,0,0,.94,2.353,3.5,3.5,0,0,0,2.465.827A5.436,5.436,0,0,0,88.655-2.7V-.687a7.387,7.387,0,0,1-3.975.945,4.92,4.92,0,0,1-3.808-1.5,5.994,5.994,0,0,1-1.38-4.216,5.861,5.861,0,0,1,1.52-4.184,4.972,4.972,0,0,1,3.776-1.617,4.335,4.335,0,0,1,3.491,1.45,6.021,6.021,0,0,1,1.235,4.028ZM87.108-6.585a3.211,3.211,0,0,0-.634-2.089,2.118,2.118,0,0,0-1.719-.747,2.419,2.419,0,0,0-1.821.784,3.583,3.583,0,0,0-.918,2.052ZM99.763-.5a6.146,6.146,0,0,1-3.126.763,5.294,5.294,0,0,1-3.953-1.531,5.423,5.423,0,0,1-1.5-3.969A5.968,5.968,0,0,1,92.8-9.609a5.78,5.78,0,0,1,4.324-1.649,6.312,6.312,0,0,1,2.653.526v2.32a4.019,4.019,0,0,0-2.449-.859A3.4,3.4,0,0,0,94.735-8.2a3.908,3.908,0,0,0-1.01,2.8,3.727,3.727,0,0,0,.951,2.7,3.375,3.375,0,0,0,2.551.988,3.987,3.987,0,0,0,2.535-.956Zm8.271.387a4.319,4.319,0,0,1-1.923.365q-3.2,0-3.2-3.072v-6.22h-1.837V-11h1.837v-2.546l2.492-.709V-11h2.632v1.955H105.4v5.5a2.167,2.167,0,0,0,.354,1.4,1.472,1.472,0,0,0,1.182.419,1.713,1.713,0,0,0,1.1-.365Zm3.18.354a1.541,1.541,0,0,1-1.1-.424,1.345,1.345,0,0,1-.451-1.015,1.374,1.374,0,0,1,.451-1.031,1.53,1.53,0,0,1,1.1-.43,1.562,1.562,0,0,1,1.112.43,1.366,1.366,0,0,1,.457,1.031,1.338,1.338,0,0,1-.457,1.015A1.573,1.573,0,0,1,111.214.236Z" transform="translate(226.997 251.917)" fill="#3b4d53"/></g></g></svg>