<svg xmlns="http://www.w3.org/2000/svg" xmlns:xlink="http://www.w3.org/1999/xlink" width="51.133" height="51.131" viewBox="0 0 51.133 51.131">
  <defs>
    <linearGradient id="linear-gradient" x1="0.5" x2="0.5" y2="1" gradientUnits="objectBoundingBox">
      <stop offset="0" stop-color="#ff4b70"/>
      <stop offset="1" stop-color="#7c4dff"/>
    </linearGradient>
  </defs>
  <g id="rocket1" transform="translate(0 0)">
    <path id="Path_4294" data-name="Path 4294" d="M19.693,40.62a1.07,1.07,0,0,1-.754-.311L5.246,26.616A1.067,1.067,0,0,1,5.2,25.152l10.263-11.5C22.64,5.263,34.322-.167,44.508.005a1.064,1.064,0,0,1,1.04,1.04c.236,10.193-5.256,21.868-13.67,29.056L20.4,40.349A1.055,1.055,0,0,1,19.693,40.62ZM44.161,1.535v-.49L38.5,3.194c7.683-6.566,4.76,8.273,4.917-1.061-9.334.156,6.554-4.418,0,3.248Z" transform="translate(5.578 -0.001)" fill="url(#linear-gradient)"/>
    <path id="Path_4295" data-name="Path 4295" d="M15.119,33.53a.989.989,0,0,1-.3-.047,1.054,1.054,0,0,1-.754-.822L12.6,22.461a1.068,1.068,0,0,1,.9-1.206c.582-.092,8.071-7.6,8.156-7.02l-.809.708c3.733-4.464.809,5.062.809-.708a1.065,1.065,0,0,1,2.131,0,26.98,26.98,0,0,1-7.845,18.951A1.2,1.2,0,0,1,15.119,33.53Z" transform="translate(14.232 14.887)" fill="url(#linear-gradient)"/>
    <path id="Path_4296" data-name="Path 4296" d="M12.518,17.355a.92.92,0,0,1-.151-.011l-10.2-1.462a1.065,1.065,0,0,1-.6-1.813A27.042,27.042,0,0,1,20.593,6.155a1.065,1.065,0,0,1,0,2.131c-5.8,0,4.417-4.006,0-.295v.295s-6.937,7.572-7.02,8.156a1.071,1.071,0,0,1-1.055.914Z" transform="translate(1.418 6.956)" fill="url(#linear-gradient)"/>
    <path id="Path_4297" data-name="Path 4297" d="M19.958,15.017a5.324,5.324,0,1,1,3.767-1.557A5.31,5.31,0,0,1,19.958,15.017Zm0-8.518a3.194,3.194,0,1,0,2.261.933A3.189,3.189,0,0,0,19.958,6.5Zm3.013,6.208h.021Z" transform="translate(16.546 4.936)" fill="#fff"/>
    <path id="Path_4298" data-name="Path 4298" d="M1.066,33.042a1.063,1.063,0,0,1-1.021-1.37C.394,30.507,3.524,20.208,5.8,17.928a6.585,6.585,0,0,1,9.313,9.313C12.837,29.521,2.538,32.65,1.372,33a1.171,1.171,0,0,1-.307.043Zm9.4-14.912c-1.142,0,2.228-1.07,1.359-.2-1.229,1.231,3.139-2.691,1.788,1.5,4.193-1.351-1.229,2.6,0,1.368,1.736-1.736,1.736.369,0-1.368A4.438,4.438,0,0,0,10.461,18.131Z" transform="translate(0 18.089)" fill="url(#linear-gradient)"/>
  </g>
</svg>
