<svg xmlns="http://www.w3.org/2000/svg" xmlns:xlink="http://www.w3.org/1999/xlink" width="502.002" height="154.7" viewBox="0 0 502.002 154.7"><defs><linearGradient id="a" x1="0.5" x2="0.5" y2="1" gradientUnits="objectBoundingBox"><stop offset="0" stop-color="#ff4b70"/><stop offset="1" stop-color="#7c4dff"/></linearGradient><linearGradient id="b" y1="0.5" x2="1" y2="0.5" gradientUnits="objectBoundingBox"><stop offset="0" stop-color="#eee"/><stop offset="1" stop-color="#fff"/></linearGradient><filter id="c" x="14.165" y="8.851" width="487.837" height="143" filterUnits="userSpaceOnUse"><feOffset dy="3" input="SourceAlpha"/><feGaussianBlur stdDeviation="3" result="d"/><feFlood flood-opacity="0.161"/><feComposite operator="in" in2="d"/><feComposite in="SourceGraphic"/></filter><linearGradient id="e" x1="0.5" x2="0.5" y2="1" gradientUnits="objectBoundingBox"><stop offset="0" stop-color="#00dfc0"/><stop offset="1" stop-color="#0ab7ab"/></linearGradient></defs><g transform="translate(0.005 0.001)"><path d="M141,0l47,77.35L141,154.7H62L0,77.35,62,0Z" transform="translate(188.158 154.699) rotate(180)" fill="url(#a)"/><g transform="matrix(1, 0, 0, 1, 0, 0)" filter="url(#c)"><path d="M-2886-1644.5l37.527-62.5v.526h425.342a6.984,6.984,0,0,1,6.968,7v109.949a6.984,6.984,0,0,1-6.968,7h-425.342v.525Z" transform="translate(2909.17 1721.85)" fill="url(#b)"/></g><path d="M-2886-1644.5l2.4-62.5v.526h27.6v123.95h-27.6v.525Z" transform="translate(3350.995 1721.849)" opacity="0" fill="url(#e)"/><path d="M1.012-6.521,4.949-6.9A4.8,4.8,0,0,0,6.392-3.992a4.361,4.361,0,0,0,2.933.93,4.507,4.507,0,0,0,2.946-.827,2.461,2.461,0,0,0,.991-1.935,1.825,1.825,0,0,0-.417-1.21A3.333,3.333,0,0,0,11.389-7.9q-.711-.246-3.24-.875A10.992,10.992,0,0,1,3.582-10.76a5.215,5.215,0,0,1-1.846-4.033A5.152,5.152,0,0,1,2.6-17.657a5.435,5.435,0,0,1,2.5-2.03,10.028,10.028,0,0,1,3.944-.7q3.773,0,5.681,1.654a5.839,5.839,0,0,1,2,4.416l-4.047.178a3.437,3.437,0,0,0-1.114-2.222A4.08,4.08,0,0,0,9-17.038a4.624,4.624,0,0,0-2.762.725A1.46,1.46,0,0,0,5.6-15.069a1.539,1.539,0,0,0,.6,1.217,10.639,10.639,0,0,0,3.719,1.34,19.625,19.625,0,0,1,4.368,1.442,5.63,5.63,0,0,1,2.226,2.04,5.958,5.958,0,0,1,.8,3.192,5.9,5.9,0,0,1-.957,3.227A5.735,5.735,0,0,1,13.645-.376,11.352,11.352,0,0,1,9.283.355,8.683,8.683,0,0,1,3.445-1.4,7.642,7.642,0,0,1,1.012-6.521Zm28.082,1.9,3.828.643A6.279,6.279,0,0,1,30.591-.772a6.848,6.848,0,0,1-3.985,1.1A6.5,6.5,0,0,1,21-2.146a8.314,8.314,0,0,1-1.436-5A8.017,8.017,0,0,1,21.451-12.8a6.214,6.214,0,0,1,4.771-2.044,6.445,6.445,0,0,1,5.113,2.14q1.873,2.14,1.791,6.556H23.5a3.887,3.887,0,0,0,.93,2.659,2.908,2.908,0,0,0,2.215.95,2.352,2.352,0,0,0,1.518-.492,3.04,3.04,0,0,0,.931-1.59ZM29.313-8.5a3.7,3.7,0,0,0-.861-2.536,2.643,2.643,0,0,0-2-.868,2.668,2.668,0,0,0-2.078.916,3.545,3.545,0,0,0-.8,2.488Zm19.6-1.723-3.787.684a2.748,2.748,0,0,0-.868-1.709,2.622,2.622,0,0,0-1.757-.574,2.871,2.871,0,0,0-2.29.991,5.079,5.079,0,0,0-.854,3.315,5.875,5.875,0,0,0,.868,3.65A2.851,2.851,0,0,0,42.561-2.8a2.589,2.589,0,0,0,1.791-.622,3.741,3.741,0,0,0,.984-2.14l3.773.643A6.7,6.7,0,0,1,46.854-1,6.983,6.983,0,0,1,42.383.328,6.647,6.647,0,0,1,37.3-1.682a7.792,7.792,0,0,1-1.89-5.564,7.81,7.81,0,0,1,1.9-5.6,6.75,6.75,0,0,1,5.141-2A7.013,7.013,0,0,1,46.669-13.7a6.325,6.325,0,0,1,2.249,3.477ZM61.387,0V-2.174A5.6,5.6,0,0,1,59.3-.342a5.845,5.845,0,0,1-2.728.67,5.333,5.333,0,0,1-2.625-.643,3.793,3.793,0,0,1-1.682-1.8,8.053,8.053,0,0,1-.52-3.213V-14.52H55.59v6.672a18.5,18.5,0,0,0,.21,3.753A2.046,2.046,0,0,0,56.574-3,2.374,2.374,0,0,0,58-2.6a3.023,3.023,0,0,0,1.764-.54A2.747,2.747,0,0,0,60.83-4.48,15.552,15.552,0,0,0,61.117-8.4V-14.52h3.842V0ZM72.611,0H68.77V-14.52h3.568v2.064a6.205,6.205,0,0,1,1.647-1.928,3.031,3.031,0,0,1,1.661-.465,4.876,4.876,0,0,1,2.529.725l-1.189,3.35a3.371,3.371,0,0,0-1.8-.629,2.132,2.132,0,0,0-1.367.444,3.037,3.037,0,0,0-.882,1.606,22.82,22.82,0,0,0-.321,4.867ZM79.83-16.488v-3.555h3.842v3.555ZM79.83,0V-14.52h3.842V0ZM94.268-14.52v3.063H91.643v5.852a14.554,14.554,0,0,0,.075,2.071.844.844,0,0,0,.342.485,1.084,1.084,0,0,0,.649.191,4.97,4.97,0,0,0,1.545-.369l.328,2.98a7.637,7.637,0,0,1-3.035.574,4.814,4.814,0,0,1-1.873-.349,2.734,2.734,0,0,1-1.224-.9,3.561,3.561,0,0,1-.54-1.5,18.622,18.622,0,0,1-.123-2.707v-6.33H86.023V-14.52h1.764V-17.4l3.855-2.242v5.127Zm.848,0H99.2l3.473,10.309,3.391-10.309h3.979L104.918-.547,104,1.982a10.311,10.311,0,0,1-.964,1.941,4.206,4.206,0,0,1-1.053,1.087,4.6,4.6,0,0,1-1.463.649,7.6,7.6,0,0,1-1.962.232,10.178,10.178,0,0,1-2.174-.232l-.342-3.008a8.5,8.5,0,0,0,1.627.178,2.411,2.411,0,0,0,1.982-.786,5.455,5.455,0,0,0,.984-2Z" transform="translate(153.293 59.35)" fill="#333"/><path d="M17.191-12.6,13.737,0H11.373l-2.4-8.815a6.026,6.026,0,0,1-.185-1.23H8.754a5.971,5.971,0,0,1-.211,1.213L6.135,0H3.718L.193-12.6H2.487L4.772-3.375a6.721,6.721,0,0,1,.176,1.213h.044a6.881,6.881,0,0,1,.246-1.213L7.822-12.6H9.976l2.391,9.3a7.262,7.262,0,0,1,.185,1.125h.035a6.907,6.907,0,0,1,.2-1.16L15.029-12.6Zm8.6,8.657h-6.13a2.593,2.593,0,0,0,.769,1.925,2.861,2.861,0,0,0,2.017.677A4.448,4.448,0,0,0,25.093-2.2v1.64a6.044,6.044,0,0,1-3.252.773,4.026,4.026,0,0,1-3.116-1.226A4.9,4.9,0,0,1,17.6-4.465a4.8,4.8,0,0,1,1.244-3.423,4.068,4.068,0,0,1,3.089-1.323,3.547,3.547,0,0,1,2.856,1.187,4.926,4.926,0,0,1,1.011,3.3ZM23.827-5.388A2.627,2.627,0,0,0,23.309-7.1,1.733,1.733,0,0,0,21.9-7.708a1.979,1.979,0,0,0-1.49.642,2.931,2.931,0,0,0-.751,1.679ZM40.535,0H38.5V-1.424h-.035A2.934,2.934,0,0,1,35.7.211q-3.19,0-3.19-3.832V-9h2.04v5.168q0,2.426,1.872,2.426a1.892,1.892,0,0,0,1.49-.668A2.56,2.56,0,0,0,38.5-3.823V-9h2.039Zm10.67,0H49.166V-5.071q0-2.522-1.784-2.522a1.948,1.948,0,0,0-1.538.7,2.592,2.592,0,0,0-.606,1.762V0H43.189V-9h2.048v1.494h.035a3.208,3.208,0,0,1,2.918-1.7,2.718,2.718,0,0,1,2.241.954A4.282,4.282,0,0,1,51.205-5.5Zm10.67,0H59.836V-1.529H59.8A3.252,3.252,0,0,1,56.769.211,3.273,3.273,0,0,1,54.11-1a5.017,5.017,0,0,1-1-3.292,5.465,5.465,0,0,1,1.1-3.577,3.61,3.61,0,0,1,2.94-1.345A2.815,2.815,0,0,1,59.8-7.752h.035v-5.572h2.039ZM59.862-4.113V-5.291a2.3,2.3,0,0,0-.624-1.626,2.081,2.081,0,0,0-1.591-.668,2.142,2.142,0,0,0-1.8.853A3.8,3.8,0,0,0,55.2-4.368,3.4,3.4,0,0,0,55.824-2.2a2.044,2.044,0,0,0,1.692.8,2.116,2.116,0,0,0,1.7-.769A2.9,2.9,0,0,0,59.862-4.113Zm12.3.167H66.023a2.593,2.593,0,0,0,.769,1.925,2.861,2.861,0,0,0,2.017.677,4.448,4.448,0,0,0,2.646-.861V-.562A6.044,6.044,0,0,1,68.2.211a4.026,4.026,0,0,1-3.116-1.226,4.9,4.9,0,0,1-1.129-3.45A4.8,4.8,0,0,1,65.2-7.888a4.068,4.068,0,0,1,3.089-1.323,3.547,3.547,0,0,1,2.856,1.187,4.926,4.926,0,0,1,1.011,3.3ZM70.189-5.388A2.627,2.627,0,0,0,69.671-7.1a1.733,1.733,0,0,0-1.406-.611,1.979,1.979,0,0,0-1.49.642,2.931,2.931,0,0,0-.751,1.679Zm9.132-1.67a1.69,1.69,0,0,0-1.063-.29,1.82,1.82,0,0,0-1.512.817,3.655,3.655,0,0,0-.606,2.224V0H74.1V-9h2.04v1.854h.035a3.135,3.135,0,0,1,.918-1.481,2.073,2.073,0,0,1,1.384-.532,1.718,1.718,0,0,1,.844.167ZM80.2-.281v-1.89a4.068,4.068,0,0,0,2.522.87q1.846,0,1.846-1.09a.859.859,0,0,0-.158-.523,1.51,1.51,0,0,0-.426-.382,3.351,3.351,0,0,0-.633-.3q-.365-.132-.813-.3a8.607,8.607,0,0,1-1-.466A3.014,3.014,0,0,1,80.8-4.92a2.107,2.107,0,0,1-.444-.708,2.6,2.6,0,0,1-.149-.923A2.133,2.133,0,0,1,80.515-7.7a2.673,2.673,0,0,1,.826-.835,3.962,3.962,0,0,1,1.178-.51,5.392,5.392,0,0,1,1.362-.171,6.193,6.193,0,0,1,2.232.378v1.784a3.763,3.763,0,0,0-2.18-.65,2.847,2.847,0,0,0-.7.079,1.8,1.8,0,0,0-.532.22,1.081,1.081,0,0,0-.343.338.807.807,0,0,0-.123.435.93.93,0,0,0,.123.492,1.118,1.118,0,0,0,.365.356,3.15,3.15,0,0,0,.58.281q.338.127.778.277a11.364,11.364,0,0,1,1.042.483,3.52,3.52,0,0,1,.787.558,2.188,2.188,0,0,1,.5.721,2.447,2.447,0,0,1,.176.971,2.22,2.22,0,0,1-.316,1.2,2.637,2.637,0,0,1-.844.844,3.95,3.95,0,0,1-1.217.5,6.324,6.324,0,0,1-1.455.163,6.129,6.129,0,0,1-2.554-.5ZM93.27-.1A3.534,3.534,0,0,1,91.7.2q-2.619,0-2.619-2.514V-7.4h-1.5V-9h1.5v-2.083l2.039-.58V-9h2.15v1.6H91.116v4.5a1.773,1.773,0,0,0,.29,1.143,1.2,1.2,0,0,0,.967.343,1.4,1.4,0,0,0,.9-.3Zm8.666.1H99.958V-1.406h-.035A2.978,2.978,0,0,1,97.189.211,2.879,2.879,0,0,1,95.111-.51a2.521,2.521,0,0,1-.751-1.907q0-2.549,2.936-2.971l2.672-.378q0-1.925-1.828-1.925a4.343,4.343,0,0,0-2.9,1.107V-8.367a6.325,6.325,0,0,1,3.287-.844q3.41,0,3.41,3.357ZM99.967-4.421l-1.89.264a3,3,0,0,0-1.323.426,1.246,1.246,0,0,0-.444,1.094,1.2,1.2,0,0,0,.409.936,1.583,1.583,0,0,0,1.094.365,2.019,2.019,0,0,0,1.542-.655,2.322,2.322,0,0,0,.611-1.648ZM112.438,0H110.4V-5.071q0-2.522-1.784-2.522a1.948,1.948,0,0,0-1.538.7,2.592,2.592,0,0,0-.606,1.762V0h-2.048V-9h2.048v1.494h.035a3.208,3.208,0,0,1,2.918-1.705,2.718,2.718,0,0,1,2.241.954,4.282,4.282,0,0,1,.773,2.755Zm10.67,0h-2.039V-1.529h-.035A3.252,3.252,0,0,1,118,.211,3.273,3.273,0,0,1,115.343-1a5.017,5.017,0,0,1-1-3.292,5.465,5.465,0,0,1,1.1-3.577,3.61,3.61,0,0,1,2.94-1.345,2.815,2.815,0,0,1,2.646,1.459h.035v-5.572H123.1ZM121.1-4.113V-5.291a2.3,2.3,0,0,0-.624-1.626,2.081,2.081,0,0,0-1.591-.668,2.142,2.142,0,0,0-1.8.853,3.8,3.8,0,0,0-.655,2.364,3.4,3.4,0,0,0,.628,2.167,2.044,2.044,0,0,0,1.692.8,2.116,2.116,0,0,0,1.7-.769,2.9,2.9,0,0,0,.65-1.943ZM135.466-.1a3.534,3.534,0,0,1-1.573.3q-2.619,0-2.619-2.514V-7.4h-1.5V-9h1.5v-2.083l2.039-.58V-9h2.153v1.6h-2.153v4.5a1.773,1.773,0,0,0,.29,1.143,1.2,1.2,0,0,0,.967.343,1.4,1.4,0,0,0,.9-.3Zm9.756.1h-2.039V-4.922q0-2.672-1.784-2.672a1.866,1.866,0,0,0-1.512.773,3.079,3.079,0,0,0-.615,1.978V0h-2.048V-13.324h2.048v5.818h.035a3.22,3.22,0,0,1,2.918-1.7q3,0,3,3.665Zm9.387,0h-1.978V-1.406H152.6A2.978,2.978,0,0,1,149.862.211a2.879,2.879,0,0,1-2.079-.721,2.521,2.521,0,0,1-.751-1.907q0-2.549,2.936-2.971l2.672-.378q0-1.925-1.828-1.925a4.343,4.343,0,0,0-2.9,1.107V-8.367a6.325,6.325,0,0,1,3.287-.844q3.41,0,3.41,3.357ZM152.64-4.421l-1.89.264a3,3,0,0,0-1.323.426,1.246,1.246,0,0,0-.444,1.094,1.2,1.2,0,0,0,.409.936,1.583,1.583,0,0,0,1.094.365,2.019,2.019,0,0,0,1.542-.655,2.322,2.322,0,0,0,.611-1.648ZM161.84-.1a3.534,3.534,0,0,1-1.573.3q-2.619,0-2.619-2.514V-7.4h-1.5V-9h1.5v-2.083l2.039-.58V-9h2.153v1.6h-2.153v4.5a1.773,1.773,0,0,0,.29,1.143,1.2,1.2,0,0,0,.967.343,1.4,1.4,0,0,0,.9-.3ZM176.34-9,172.283,1.441q-1.266,2.8-3.551,2.8a4.258,4.258,0,0,1-1.072-.114v-1.7a2.852,2.852,0,0,0,.879.158,1.814,1.814,0,0,0,1.705-1.125l.606-1.477L167.273-9h2.259l2.145,6.539q.035.123.158.65h.044q.044-.2.158-.633L174.287-9ZM181.688.211a4.461,4.461,0,0,1-3.327-1.261,4.556,4.556,0,0,1-1.244-3.344,4.741,4.741,0,0,1,1.3-3.542,4.767,4.767,0,0,1,3.494-1.274A4.318,4.318,0,0,1,185.2-7.971a4.787,4.787,0,0,1,1.178,3.437,4.717,4.717,0,0,1-1.27,3.45A4.562,4.562,0,0,1,181.688.211Zm.1-7.8a2.328,2.328,0,0,0-1.89.835,3.5,3.5,0,0,0-.694,2.3,3.293,3.293,0,0,0,.7,2.228,2.362,2.362,0,0,0,1.881.813,2.241,2.241,0,0,0,1.85-.8,3.54,3.54,0,0,0,.646-2.276,3.594,3.594,0,0,0-.646-2.294,2.23,2.23,0,0,0-1.851-.8ZM196.295,0h-2.039V-1.424h-.035a2.934,2.934,0,0,1-2.76,1.635q-3.19,0-3.19-3.832V-9h2.039v5.168q0,2.426,1.872,2.426a1.892,1.892,0,0,0,1.49-.668,2.56,2.56,0,0,0,.584-1.749V-9h2.039Zm4.544-12.85-1.433,3.911h-1.345l.993-3.911Zm7.409,5.792a1.69,1.69,0,0,0-1.063-.29,1.82,1.82,0,0,0-1.512.817,3.655,3.655,0,0,0-.606,2.224V0h-2.039V-9h2.039v1.854h.035a3.135,3.135,0,0,1,.918-1.481,2.073,2.073,0,0,1,1.384-.532,1.718,1.718,0,0,1,.844.167Zm9.062,3.111h-6.135a2.593,2.593,0,0,0,.769,1.925,2.861,2.861,0,0,0,2.017.677,4.448,4.448,0,0,0,2.646-.861V-.562a6.044,6.044,0,0,1-3.252.773,4.026,4.026,0,0,1-3.116-1.226,4.9,4.9,0,0,1-1.129-3.45,4.8,4.8,0,0,1,1.244-3.423,4.068,4.068,0,0,1,3.089-1.323A3.547,3.547,0,0,1,216.3-8.024a4.926,4.926,0,0,1,1.011,3.3Zm-1.969-1.441a2.627,2.627,0,0,0-.519-1.709,1.733,1.733,0,0,0-1.406-.611,1.979,1.979,0,0,0-1.49.642,2.931,2.931,0,0,0-.751,1.679ZM228.946-.1a3.534,3.534,0,0,1-1.573.3q-2.619,0-2.619-2.514V-7.4h-1.5V-9h1.5v-2.083l2.039-.58V-9h2.153v1.6h-2.153v4.5a1.773,1.773,0,0,0,.29,1.143,1.2,1.2,0,0,0,.967.343,1.4,1.4,0,0,0,.9-.3Zm6.979-6.961a1.69,1.69,0,0,0-1.063-.29,1.82,1.82,0,0,0-1.512.817,3.655,3.655,0,0,0-.606,2.224V0H230.7V-9h2.039v1.854h.035a3.135,3.135,0,0,1,.918-1.481,2.073,2.073,0,0,1,1.384-.532,1.718,1.718,0,0,1,.844.167ZM245.215,0h-2.039V-1.424h-.035a2.934,2.934,0,0,1-2.76,1.635q-3.19,0-3.19-3.832V-9h2.039v5.168q0,2.426,1.872,2.426a1.892,1.892,0,0,0,1.49-.668,2.56,2.56,0,0,0,.584-1.749V-9h2.039Zm2.092-.281v-1.89a4.068,4.068,0,0,0,2.522.87q1.846,0,1.846-1.09a.859.859,0,0,0-.158-.523,1.51,1.51,0,0,0-.426-.382,3.353,3.353,0,0,0-.633-.3q-.365-.132-.813-.3a8.606,8.606,0,0,1-1-.466,3.014,3.014,0,0,1-.738-.558,2.107,2.107,0,0,1-.444-.708,2.6,2.6,0,0,1-.149-.923,2.133,2.133,0,0,1,.308-1.147,2.673,2.673,0,0,1,.826-.835,3.962,3.962,0,0,1,1.178-.51,5.392,5.392,0,0,1,1.362-.171,6.193,6.193,0,0,1,2.232.378v1.784a3.763,3.763,0,0,0-2.18-.65,2.847,2.847,0,0,0-.7.079,1.8,1.8,0,0,0-.532.22,1.081,1.081,0,0,0-.343.338.807.807,0,0,0-.123.435.93.93,0,0,0,.123.492,1.118,1.118,0,0,0,.365.356,3.15,3.15,0,0,0,.58.281q.338.127.778.277a11.363,11.363,0,0,1,1.042.483,3.521,3.521,0,0,1,.787.558,2.188,2.188,0,0,1,.5.721,2.447,2.447,0,0,1,.176.971,2.22,2.22,0,0,1-.316,1.2,2.637,2.637,0,0,1-.844.844,3.95,3.95,0,0,1-1.217.5,6.324,6.324,0,0,1-1.455.163,6.129,6.129,0,0,1-2.554-.5ZM260.376-.1A3.534,3.534,0,0,1,258.8.2q-2.619,0-2.619-2.514V-7.4h-1.5V-9h1.5v-2.083l2.039-.58V-9h2.153v1.6H258.22v4.5a1.773,1.773,0,0,0,.29,1.143,1.2,1.2,0,0,0,.967.343,1.4,1.4,0,0,0,.9-.3Zm2.786-10.793a1.226,1.226,0,0,1-.857-.325,1.07,1.07,0,0,1-.356-.826,1.1,1.1,0,0,1,.356-.835,1.208,1.208,0,0,1,.857-.334,1.246,1.246,0,0,1,.879.334,1.091,1.091,0,0,1,.36.835,1.076,1.076,0,0,1-.36.813,1.237,1.237,0,0,1-.879.341ZM264.173,0h-2.039V-9h2.039Zm10.679,0h-2.039V-5.071q0-2.522-1.784-2.522a1.948,1.948,0,0,0-1.538.7,2.592,2.592,0,0,0-.606,1.762V0h-2.048V-9h2.048v1.494h.035a3.208,3.208,0,0,1,2.918-1.7,2.718,2.718,0,0,1,2.241.954,4.282,4.282,0,0,1,.773,2.755ZM285.53-.721q0,4.957-4.983,4.957a7.422,7.422,0,0,1-3.067-.589V1.784a5.676,5.676,0,0,0,2.8.844q3.208,0,3.208-3.155v-.984h-.035A3.3,3.3,0,0,1,280.415.211a3.289,3.289,0,0,1-2.65-1.2,4.851,4.851,0,0,1-1.006-3.221,5.682,5.682,0,0,1,1.081-3.647,3.594,3.594,0,0,1,2.971-1.354,2.863,2.863,0,0,1,2.646,1.459h.035V-9h2.039Zm-2.021-3.4v-1.17a2.29,2.29,0,0,0-.628-1.622,2.059,2.059,0,0,0-1.569-.672,2.156,2.156,0,0,0-1.815.857,3.867,3.867,0,0,0-.655,2.4,3.329,3.329,0,0,0,.628,2.123,2.017,2.017,0,0,0,1.666.8,2.162,2.162,0,0,0,1.714-.76,2.865,2.865,0,0,0,.659-1.957ZM300.981,0h-2.039V-1.424h-.035a2.934,2.934,0,0,1-2.76,1.635q-3.19,0-3.19-3.832V-9H295v5.168q0,2.426,1.872,2.426a1.892,1.892,0,0,0,1.49-.668,2.56,2.56,0,0,0,.584-1.749V-9h2.039Zm2.092-.281v-1.89a4.068,4.068,0,0,0,2.522.87q1.846,0,1.846-1.09a.859.859,0,0,0-.158-.523,1.51,1.51,0,0,0-.426-.382,3.351,3.351,0,0,0-.633-.3q-.365-.132-.813-.3a8.605,8.605,0,0,1-1-.466,3.015,3.015,0,0,1-.738-.558,2.107,2.107,0,0,1-.444-.708,2.6,2.6,0,0,1-.149-.923,2.133,2.133,0,0,1,.308-1.147,2.673,2.673,0,0,1,.826-.835,3.962,3.962,0,0,1,1.178-.51,5.392,5.392,0,0,1,1.362-.171,6.193,6.193,0,0,1,2.232.378v1.784a3.763,3.763,0,0,0-2.18-.65,2.847,2.847,0,0,0-.7.079,1.8,1.8,0,0,0-.532.22,1.081,1.081,0,0,0-.343.338.807.807,0,0,0-.123.435.93.93,0,0,0,.123.492,1.118,1.118,0,0,0,.365.356,3.151,3.151,0,0,0,.58.281q.338.127.778.277A11.362,11.362,0,0,1,308-4.737a3.52,3.52,0,0,1,.787.558,2.188,2.188,0,0,1,.5.721,2.447,2.447,0,0,1,.176.971,2.22,2.22,0,0,1-.316,1.2,2.637,2.637,0,0,1-.844.844,3.95,3.95,0,0,1-1.217.5,6.324,6.324,0,0,1-1.455.163,6.129,6.129,0,0,1-2.558-.5ZM13.43,15l-2.654,9H8.64L7,17.9a3.863,3.863,0,0,1-.123-.791h-.03a3.606,3.606,0,0,1-.158.773L4.913,24H2.821L.176,15H2.285L3.92,21.486a3.843,3.843,0,0,1,.105.773h.062a4.177,4.177,0,0,1,.141-.791L6.047,15H7.963L9.58,21.513a4.556,4.556,0,0,1,.114.773h.062a4.1,4.1,0,0,1,.132-.773L11.487,15Zm2.54-1.89a1.226,1.226,0,0,1-.857-.325,1.07,1.07,0,0,1-.356-.826,1.1,1.1,0,0,1,.356-.835,1.208,1.208,0,0,1,.857-.334,1.246,1.246,0,0,1,.879.334,1.091,1.091,0,0,1,.36.835,1.076,1.076,0,0,1-.36.813,1.237,1.237,0,0,1-.879.338ZM16.98,24H14.941V15H16.98Zm7.409-.1a3.534,3.534,0,0,1-1.573.3q-2.619,0-2.619-2.514V16.6H18.7V15h1.5V12.917l2.039-.58V15H24.39v1.6H22.236v4.5a1.773,1.773,0,0,0,.29,1.143,1.2,1.2,0,0,0,.967.343,1.4,1.4,0,0,0,.9-.3Zm9.756.1H32.106V19.078q0-2.672-1.784-2.672a1.866,1.866,0,0,0-1.512.773,3.079,3.079,0,0,0-.615,1.978V24H26.147V10.676H28.2v5.818h.035a3.22,3.22,0,0,1,2.918-1.7q3,0,3,3.665Zm15.223-9-4.06,10.441q-1.266,2.795-3.551,2.8a4.258,4.258,0,0,1-1.072-.114v-1.7a2.852,2.852,0,0,0,.879.158,1.814,1.814,0,0,0,1.705-1.125l.606-1.477L40.3,15h2.259L44.7,21.539q.035.123.158.65H44.9q.044-.2.158-.633L47.312,15Zm5.344,9.211a4.461,4.461,0,0,1-3.327-1.261,4.556,4.556,0,0,1-1.244-3.344,4.741,4.741,0,0,1,1.3-3.542,4.767,4.767,0,0,1,3.494-1.274,4.318,4.318,0,0,1,3.287,1.239A4.787,4.787,0,0,1,59.4,19.465a4.717,4.717,0,0,1-1.27,3.45,4.562,4.562,0,0,1-3.418,1.3Zm.1-7.8a2.328,2.328,0,0,0-1.89.835,3.5,3.5,0,0,0-.694,2.3,3.293,3.293,0,0,0,.7,2.228,2.362,2.362,0,0,0,1.881.813,2.241,2.241,0,0,0,1.85-.8,3.54,3.54,0,0,0,.646-2.276,3.594,3.594,0,0,0-.646-2.294,2.23,2.23,0,0,0-1.85-.8ZM69.319,24H67.28V22.576h-.035a2.934,2.934,0,0,1-2.76,1.635q-3.19,0-3.19-3.832V15h2.039v5.168q0,2.426,1.872,2.426a1.892,1.892,0,0,0,1.49-.668,2.56,2.56,0,0,0,.584-1.749V15h2.039Zm7.875-7.058a1.69,1.69,0,0,0-1.063-.29,1.82,1.82,0,0,0-1.512.817,3.655,3.655,0,0,0-.606,2.224V24H71.974V15h2.039v1.854h.035a3.135,3.135,0,0,1,.918-1.481,2.073,2.073,0,0,1,1.384-.532,1.718,1.718,0,0,1,.844.167Zm11.61,0a1.69,1.69,0,0,0-1.063-.29,1.82,1.82,0,0,0-1.512.817,3.655,3.655,0,0,0-.606,2.224V24H83.584V15h2.039v1.854h.035a3.135,3.135,0,0,1,.918-1.481,2.073,2.073,0,0,1,1.384-.532,1.718,1.718,0,0,1,.844.167Zm9.062,3.111H91.731a2.593,2.593,0,0,0,.769,1.925,2.861,2.861,0,0,0,2.017.677,4.448,4.448,0,0,0,2.646-.861v1.644a6.044,6.044,0,0,1-3.252.773A4.026,4.026,0,0,1,90.8,22.985a4.9,4.9,0,0,1-1.129-3.45,4.8,4.8,0,0,1,1.244-3.423A4.068,4.068,0,0,1,94,14.789a3.547,3.547,0,0,1,2.856,1.187,4.926,4.926,0,0,1,1.011,3.3ZM95.9,18.612a2.627,2.627,0,0,0-.519-1.709,1.733,1.733,0,0,0-1.406-.611,1.979,1.979,0,0,0-1.49.642,2.931,2.931,0,0,0-.751,1.679Zm5.985,4.061h-.035V28.14H99.809V15h2.039v1.582h.035a3.341,3.341,0,0,1,3.059-1.793,3.222,3.222,0,0,1,2.672,1.2,5.05,5.05,0,0,1,.958,3.234,5.607,5.607,0,0,1-1.081,3.6,3.576,3.576,0,0,1-2.953,1.354,2.949,2.949,0,0,1-2.655-1.5Zm-.053-3.551v1.116a2.382,2.382,0,0,0,.628,1.67,2.218,2.218,0,0,0,3.375-.2,4.111,4.111,0,0,0,.646-2.465,3.24,3.24,0,0,0-.6-2.079,1.979,1.979,0,0,0-1.63-.751,2.2,2.2,0,0,0-1.753.773,2.865,2.865,0,0,0-.668,1.936ZM118.5,24h-2.039V22.576h-.035a2.934,2.934,0,0,1-2.76,1.635q-3.19,0-3.19-3.832V15h2.039v5.168q0,2.426,1.872,2.426a1.892,1.892,0,0,0,1.49-.668,2.56,2.56,0,0,0,.584-1.749V15H118.5Zm7.4-.1a3.534,3.534,0,0,1-1.573.3q-2.619,0-2.619-2.514V16.6h-1.5V15h1.5V12.917l2.039-.58V15H125.9v1.6h-2.15v4.5a1.773,1.773,0,0,0,.29,1.143,1.2,1.2,0,0,0,.967.343,1.4,1.4,0,0,0,.9-.3Zm8.666.1h-1.978V22.594h-.035a2.978,2.978,0,0,1-2.733,1.617,2.879,2.879,0,0,1-2.079-.721,2.521,2.521,0,0,1-.751-1.907q0-2.549,2.936-2.971l2.672-.378q0-1.925-1.828-1.925a4.343,4.343,0,0,0-2.9,1.107V15.633a6.325,6.325,0,0,1,3.287-.844q3.41,0,3.41,3.357ZM132.6,19.579l-1.89.264a3,3,0,0,0-1.323.426,1.246,1.246,0,0,0-.444,1.094,1.2,1.2,0,0,0,.409.936,1.583,1.583,0,0,0,1.094.365,2.019,2.019,0,0,0,1.542-.655,2.322,2.322,0,0,0,.611-1.648Zm9.2,4.324a3.534,3.534,0,0,1-1.573.3q-2.619,0-2.619-2.514V16.6h-1.5V15h1.5V12.917l2.039-.58V15H141.8v1.6h-2.153v4.5a1.773,1.773,0,0,0,.29,1.143,1.2,1.2,0,0,0,.967.343,1.4,1.4,0,0,0,.9-.3Zm2.786-10.793a1.226,1.226,0,0,1-.857-.325,1.07,1.07,0,0,1-.356-.826,1.1,1.1,0,0,1,.356-.835,1.208,1.208,0,0,1,.857-.334,1.246,1.246,0,0,1,.879.334,1.091,1.091,0,0,1,.36.835,1.076,1.076,0,0,1-.36.813,1.237,1.237,0,0,1-.876.338ZM145.6,24h-2.039V15H145.6Zm6.653.211a4.461,4.461,0,0,1-3.327-1.261,4.556,4.556,0,0,1-1.244-3.344,4.741,4.741,0,0,1,1.3-3.542,4.767,4.767,0,0,1,3.494-1.274,4.318,4.318,0,0,1,3.287,1.239,4.787,4.787,0,0,1,1.178,3.437,4.717,4.717,0,0,1-1.27,3.45,4.562,4.562,0,0,1-3.418,1.295Zm.1-7.8a2.328,2.328,0,0,0-1.89.835,3.5,3.5,0,0,0-.694,2.3,3.293,3.293,0,0,0,.7,2.228,2.362,2.362,0,0,0,1.881.813,2.241,2.241,0,0,0,1.85-.8,3.54,3.54,0,0,0,.646-2.276,3.594,3.594,0,0,0-.646-2.294,2.23,2.23,0,0,0-1.85-.8ZM167.027,24h-2.039V18.929q0-2.522-1.784-2.522a1.948,1.948,0,0,0-1.538.7,2.592,2.592,0,0,0-.606,1.762V24h-2.048V15h2.048v1.494h.035a3.208,3.208,0,0,1,2.918-1.7,2.718,2.718,0,0,1,2.241.954,4.282,4.282,0,0,1,.773,2.755Zm3.331.193a1.261,1.261,0,0,1-.9-.347,1.1,1.1,0,0,1-.369-.831,1.124,1.124,0,0,1,.369-.844,1.252,1.252,0,0,1,.9-.352,1.278,1.278,0,0,1,.91.352,1.118,1.118,0,0,1,.374.844,1.1,1.1,0,0,1-.374.831,1.287,1.287,0,0,1-.91.347Z" transform="translate(151.995 92.35)" fill="#333"/><path d="M-3563.64-1751.57h-14.18l-38.028-61.4,38.028-61.4h14.149l-37.02,61.374,37.05,61.424Z" transform="translate(3615.843 1890.349)" opacity="0" fill="url(#e)"/><g transform="translate(55.158 37.35)"><path d="M40.5,0A40.5,40.5,0,1,1,0,40.5,40.5,40.5,0,0,1,40.5,0Z" fill="#3e5e68"/><g transform="translate(17 12.996)"><path d="M45.669,37.4A28.253,28.253,0,0,1,38.9,47.938a35.419,35.419,0,0,1-13.225,7.835A4.046,4.046,0,0,1,24.393,56h-.048a4.1,4.1,0,0,1-.789-.078,4.271,4.271,0,0,1-.542-.148,35.417,35.417,0,0,1-13.24-7.831A28.2,28.2,0,0,1,3.008,37.4C.275,29.987.431,21.817.556,15.251v-.1c.025-.542.041-1.112.05-1.741A5.935,5.935,0,0,1,6.2,7.595C12.636,7.236,17.617,5.136,21.873.988L21.91.953a3.587,3.587,0,0,1,4.87,0l.036.034c4.257,4.148,9.238,6.248,15.676,6.607a5.935,5.935,0,0,1,5.589,5.814c.009.633.025,1.2.05,1.741v.043C48.258,21.771,48.412,29.958,45.669,37.4Zm0,0" transform="translate(-0.5 0.004)" fill="#ffda44"/><path d="M240.225,37.4a28.253,28.253,0,0,1-6.767,10.541,35.419,35.419,0,0,1-13.225,7.835,4.046,4.046,0,0,1-1.285.227V0a3.593,3.593,0,0,1,2.387.953l.036.034c4.257,4.148,9.238,6.248,15.676,6.607a5.935,5.935,0,0,1,5.589,5.814c.009.633.025,1.2.05,1.741V15.2C242.814,21.774,242.968,29.961,240.225,37.4Zm0,0" transform="translate(-195.056)" fill="#ff9f22"/><path d="M118.808,142.354A13.974,13.974,0,0,1,104.9,156.311h-.049a13.957,13.957,0,1,1,0-27.913h.049a13.974,13.974,0,0,1,13.908,13.956Zm0,0" transform="translate(-81.008 -114.35)" fill="#fff"/><path d="M232.856,142.354a13.974,13.974,0,0,1-13.907,13.957V128.4a13.974,13.974,0,0,1,13.907,13.954Zm0,0" transform="translate(-195.056 -114.35)" fill="#e1ebf0"/><path d="M167.548,214.785l-6.286,6.287L159.9,222.43a1.645,1.645,0,0,1-2.325,0l-2.92-2.922a1.643,1.643,0,1,1,2.323-2.323l1.759,1.759,6.483-6.483a1.643,1.643,0,1,1,2.323,2.323Zm0,0" transform="translate(-137.369 -188.79)" fill="#b4d2d7"/><path d="M225.235,214.785l-6.286,6.287v-4.648l3.962-3.962a1.643,1.643,0,1,1,2.323,2.323Zm0,0" transform="translate(-195.056 -188.79)" fill="#6fa5aa"/></g></g></g></svg>