<svg xmlns="http://www.w3.org/2000/svg" xmlns:xlink="http://www.w3.org/1999/xlink" width="333.506" height="302.209" viewBox="0 0 333.506 302.209">
  <defs>
    <linearGradient id="linear-gradient" x1="0.5" y1="1" x2="0.5" gradientUnits="objectBoundingBox">
      <stop offset="0" stop-color="gray" stop-opacity="0.251"/>
      <stop offset="0.54" stop-color="gray" stop-opacity="0.122"/>
      <stop offset="1" stop-color="gray" stop-opacity="0.102"/>
    </linearGradient>
  </defs>
  <g id="undraw_coding_6mjf_1_" data-name="undraw_coding_6mjf (1)" transform="translate(0.214)">
    <rect id="Rectangle_215" data-name="Rectangle 215" width="19.241" height="9.991" transform="translate(282.484 108.813)" fill="#7c4dff" opacity="0.41"/>
    <rect id="Rectangle_216" data-name="Rectangle 216" width="19.241" height="9.991" transform="translate(283.964 121.501)" fill="#7c4dff" opacity="0.41"/>
    <rect id="Rectangle_217" data-name="Rectangle 217" width="19.241" height="9.991" transform="translate(268.053 32.192)" fill="#7c4dff" opacity="0.41"/>
    <rect id="Rectangle_218" data-name="Rectangle 218" width="19.241" height="9.991" transform="translate(281.744 43.663)" fill="#7c4dff" opacity="0.41"/>
    <rect id="Rectangle_219" data-name="Rectangle 219" width="19.241" height="9.991" transform="translate(244.741 32.932)" fill="#7c4dff" opacity="0.41"/>
    <rect id="Rectangle_220" data-name="Rectangle 220" width="19.241" height="9.991" transform="translate(306.536 57.29)" fill="#7c4dff" opacity="0.41"/>
    <rect id="Rectangle_221" data-name="Rectangle 221" width="19.241" height="9.991" transform="translate(283.224 58.059)" fill="#7c4dff" opacity="0.41"/>
    <rect id="Rectangle_222" data-name="Rectangle 222" width="19.241" height="9.991" transform="translate(258.432 44.403)" fill="#7c4dff" opacity="0.41"/>
    <rect id="Rectangle_223" data-name="Rectangle 223" width="19.241" height="9.991" transform="translate(305.425 137.266)" fill="#7c4dff" opacity="0.41"/>
    <rect id="Rectangle_224" data-name="Rectangle 224" width="19.241" height="9.991" transform="translate(282.114 138.035)" fill="#7c4dff" opacity="0.41"/>
    <path id="Path_3716" data-name="Path 3716" d="M231.627,332.5s27.119,27.119,11.811,67.344,26.238,107.174,26.238,107.174-.444-.067-1.269-.211c-55.7-9.832-83.37-73.531-52.384-120.839C227.524,368.359,236.974,347.723,231.627,332.5Z" transform="translate(-183.324 -219.373)" fill="#00ffc4"/>
    <path id="Path_3717" data-name="Path 3717" d="M269.481,332.5s15.308,33.243,0,60.358-2.623,103.237,38.053,114.16" transform="translate(-221.178 -219.373)" fill="none" stroke="#535461" stroke-miterlimit="10" stroke-width="2"/>
    <path id="Path_3718" data-name="Path 3718" d="M149.63,628.343s30.945-4.929,33.765,22.8S242.9,682.725,242.9,682.725s-.37.252-1.062.707c-46.8,30.712-91.544,19.571-84.8-21.225C159.547,647.04,159.339,631.806,149.63,628.343Z" transform="translate(-149.63 -405.534)" fill="#00ffc4"/>
    <path id="Path_3719" data-name="Path 3719" d="M149.63,628.343s30.945-4.929,33.765,22.8S242.9,682.725,242.9,682.725s-.37.252-1.062.707c-46.8,30.712-91.544,19.571-84.8-21.225C159.547,647.04,159.339,631.806,149.63,628.343Z" transform="translate(-149.63 -405.534)" fill="#f5f5f5" opacity="0.2"/>
    <path id="Path_3720" data-name="Path 3720" d="M149.63,628.92s24.018,5.273,22.046,27.112,35.67,48.033,71.226,27.271" transform="translate(-149.63 -406.111)" fill="none" stroke="#535461" stroke-miterlimit="10" stroke-width="2"/>
    <rect id="Rectangle_225" data-name="Rectangle 225" width="19.241" height="9.991" transform="translate(0.155 109.197)" fill="#7c4dff" opacity="0.41"/>
    <rect id="Rectangle_226" data-name="Rectangle 226" width="19.241" height="9.991" transform="translate(13.846 121.117)" fill="#7c4dff" opacity="0.41"/>
    <rect id="Rectangle_227" data-name="Rectangle 227" width="19.241" height="9.991" transform="translate(117.823)" fill="#7c4dff" opacity="0.41"/>
    <rect id="Rectangle_228" data-name="Rectangle 228" width="19.241" height="9.991" transform="translate(269.533 191.48)" fill="#7c4dff" opacity="0.41"/>
    <rect id="Rectangle_229" data-name="Rectangle 229" width="19.241" height="9.991" transform="translate(15.326 133.805)" fill="#7c4dff" opacity="0.41"/>
    <rect id="Rectangle_230" data-name="Rectangle 230" width="19.241" height="9.991" transform="translate(131.514 11.471)" fill="#7c4dff" opacity="0.41"/>
    <rect id="Rectangle_231" data-name="Rectangle 231" width="19.241" height="9.991" transform="translate(61.209 82.283)" fill="#7c4dff" opacity="0.41"/>
    <rect id="Rectangle_232" data-name="Rectangle 232" width="19.241" height="9.991" transform="translate(74.9 94.202)" fill="#7c4dff" opacity="0.41"/>
    <rect id="Rectangle_233" data-name="Rectangle 233" width="19.241" height="9.991" transform="translate(111.533 87.666)" fill="#7c4dff" opacity="0.41"/>
    <rect id="Rectangle_234" data-name="Rectangle 234" width="19.241" height="9.991" transform="translate(76.38 106.89)" fill="#7c4dff" opacity="0.41"/>
    <rect id="Rectangle_235" data-name="Rectangle 235" width="19.241" height="9.991" transform="translate(295.435 191.48)" fill="#7c4dff" opacity="0.41"/>
    <path id="Path_3721" data-name="Path 3721" d="M542.728,230.829a152.532,152.532,0,0,1-2.287-20.984h0a28.122,28.122,0,0,0-19.782-25.672c-2.02-.622-4.244-1.2-6.7-1.724-21.535-4.573-28.077-.581-28.821-.055a27.611,27.611,0,0,1-1.639-3.556c-.037-.126-.07-.252-.107-.37a27.571,27.571,0,0,0,7.367-16.61,18.173,18.173,0,0,0,5.691-12.77,17.528,17.528,0,0,0-4.274-11.193v-6.431A27.963,27.963,0,0,0,464.213,103.5h-2.268a27.963,27.963,0,0,0-27.963,27.963v6.931a17.35,17.35,0,0,0-3.867,10.686,18.071,18.071,0,0,0,5.469,12.536,27.574,27.574,0,0,0,7.674,17.147c.152,1.051.307,2.179.459,3.371l-38.52,8.137s-14.853.611-24.422,20.351c-8.092,16.721-24.2,59.681-28.966,72.469h0c-.862,2.316-1.351,3.645-1.351,3.645s.159-.159.459-.433l-.459,1.247s.233-.237.677-.625c-.673,5.351-.77,14.538,6.239,15.682,5.876.958,21.017,1.354,32.455,1.513h.792c7.582.1,13.35.1,13.35.1v-.1H526.984v-1.262a8.477,8.477,0,0,0-.677-3.33l.17-.207a6.754,6.754,0,0,1,1.276,2.96,2.971,2.971,0,0,1-.059.311l.074-.189a3.172,3.172,0,0,1-.074,1s15.781-40.662,15.611-64.943A41.133,41.133,0,0,0,542.728,230.829Zm-98.371-43.2a28.208,28.208,0,0,1-.392-3.508v-.033C444.1,185.231,444.235,186.415,444.357,187.629Zm-47.815,87.341v9.691l-6.068,1.3Z" transform="translate(-276.148 -86.109)" fill="url(#linear-gradient)"/>
    <path id="Path_3722" data-name="Path 3722" d="M456.1,57.57h0a27.963,27.963,0,0,1,27.963,27.963v11.93H428.14V85.533A27.963,27.963,0,0,1,456.1,57.57Z" transform="translate(-269.796 -36.268)" fill="#e23357"/>
    <ellipse id="Ellipse_188" data-name="Ellipse 188" cx="31.874" cy="21.902" rx="31.874" ry="21.902" transform="translate(154.629 43.204)" fill="#e23357"/>
    <path id="Path_3723" data-name="Path 3723" d="M596.641,278.135s6.66,34.808,0,44.2,20.351,13.1,20.351,13.1l27.959-10.168,3.911-25.032s-17.021-9.584-13.495-28.943Z" transform="translate(-430.571 -187.962)" fill="#f7c4a7"/>
    <path id="Path_3724" data-name="Path 3724" d="M775.516,589.244s1.761,7.626-7.822,9a54.193,54.193,0,0,1-17.051-.2L748.53,578.88h22.294Z" transform="translate(-526.922 -377.749)" fill="#f7c4a7"/>
    <path id="Path_3725" data-name="Path 3725" d="M362.534,561.837s-4.233,17.2,5.351,18.757,44.773,1.565,44.773,1.565V561.808l-15.933,3.4L381.768,550.87Z" transform="translate(-283.168 -360.199)" fill="#f7c4a7"/>
    <path id="Path_3726" data-name="Path 3726" d="M450.677,317.3l-37.45,7.918s-14.276.588-23.467,19.556-29.139,73.139-29.139,73.139,17.021-17.21,36.962,1.173l13.3-24.052-2.934,38.135H510.99V415.173s21.509,11.537,19.948,17.991c0,0,18.409-47.43,14.431-68.984a146.6,146.6,0,0,1-2.2-20.166h0a27.012,27.012,0,0,0-19.012-24.669c-1.939-.6-4.07-1.154-6.438-1.654-22.1-4.692-27.752,0-27.752,0s-4.281,13.928-4.2,20.24c.1,8.115-11.537,13.495-11.537,13.495s-17.21-4.107-17.991-7.43S449.3,321.209,450.677,317.3Z" transform="translate(-282.549 -213.656)" opacity="0.1"/>
    <path id="Path_3727" data-name="Path 3727" d="M450.67,315.188l-37.45,7.919s-14.276.588-23.467,19.556-29.143,73.146-29.143,73.146,17.021-17.21,36.962,1.173l13.3-24.052-2.934,38.124H510.984V413.063s21.509,11.537,19.948,17.991c0,0,18.409-47.43,14.431-68.984a146.6,146.6,0,0,1-2.2-20.166h0a27.012,27.012,0,0,0-19.012-24.669c-1.939-.6-4.07-1.154-6.438-1.654-22.1-4.692-27.752,0-27.752,0s-4.281,13.928-4.2,20.24c.1,8.115-11.537,13.495-11.537,13.495s-17.21-4.107-17.991-7.43S449.294,319.1,450.67,315.188Z" transform="translate(-282.542 -212.376)" fill="#e23357"/>
    <path id="Path_3728" data-name="Path 3728" d="M639.748,289.943a26.468,26.468,0,0,1-1.021-13.883L600,282.9s.559,2.927,1.192,7.312a26.59,26.59,0,0,0,38.549-.27Z" transform="translate(-433.352 -191.494)" opacity="0.1"/>
    <path id="Path_3729" data-name="Path 3729" d="M634.717,214.39a26.6,26.6,0,1,1-53.187.644c0-.215,0-.429,0-.644a26.588,26.588,0,0,1,31.056-26.224h0a26.575,26.575,0,0,1,22.057,24.459Q634.717,213.5,634.717,214.39Z" transform="translate(-421.717 -136.964)" fill="#f7c4a7"/>
    <g id="Group_190" data-name="Group 190" transform="translate(159.813 51.62)" opacity="0.1">
      <path id="Path_3730" data-name="Path 3730" d="M598.858,193.892l.037-.022a26.574,26.574,0,0,0-17.365,24.951q0,.322,0,.644a5.92,5.92,0,0,0,2.387-.574c6.483-3.027,10.361-12.285,11.9-18.742C596.372,197.837,596.893,195.232,598.858,193.892Z" transform="translate(-581.53 -192.597)"/>
      <path id="Path_3731" data-name="Path 3731" d="M644.589,192.469a26.374,26.374,0,0,0-6.612-2.039,8.533,8.533,0,0,1,4.747,2.982,12.156,12.156,0,0,1,1.454,2.59,26.668,26.668,0,0,0-22.368.463c1.669,3.66,6.845,5.654,10.3,6.99q5.676,2.191,11.471,4.007l-3.419-2.775,7.722,1.228a13.378,13.378,0,0,0-.54-4.551c1.48,1.191,3.441,1.591,5.047,2.59,3.008,1.9,4.263,5.55,5.9,8.714a5.773,5.773,0,0,0,1.724,2.22A26.608,26.608,0,0,0,644.589,192.469Z" transform="translate(-606.905 -190.43)"/>
    </g>
    <path id="Path_3732" data-name="Path 3732" d="M598.858,192.262l.037-.022a26.574,26.574,0,0,0-17.365,24.951q0,.322,0,.644a5.921,5.921,0,0,0,2.387-.574c6.483-3.027,10.361-12.285,11.9-18.742C596.372,196.221,596.893,193.605,598.858,192.262Z" transform="translate(-421.716 -139.933)" fill="#632652"/>
    <path id="Path_3733" data-name="Path 3733" d="M644.589,190.849a26.373,26.373,0,0,0-6.612-2.039,8.533,8.533,0,0,1,4.747,2.982,12.156,12.156,0,0,1,1.454,2.59,26.668,26.668,0,0,0-22.368.463c1.669,3.66,6.845,5.654,10.3,6.99q5.676,2.191,11.471,4.007l-3.419-2.775,7.722,1.228a13.378,13.378,0,0,0-.54-4.551c1.48,1.191,3.441,1.591,5.047,2.59,3.008,1.9,4.263,5.55,5.9,8.714a5.773,5.773,0,0,0,1.724,2.22A26.608,26.608,0,0,0,644.589,190.849Z" transform="translate(-447.092 -137.833)" fill="#632652"/>
    <path id="Path_3734" data-name="Path 3734" d="M573.33,204.73s27.382-34.042,59.06,0l-2.738-7.626s-14.864-21.706-25.421-17.021-20.925,8.018-20.925,8.018Z" transform="translate(-416.551 -132.055)" opacity="0.1"/>
    <path id="Path_3735" data-name="Path 3735" d="M573.33,203.1s27.382-34.042,59.06,0l-2.738-7.626s-14.864-21.706-25.421-17.021-20.925,8.018-20.925,8.018Z" transform="translate(-416.551 -131.053)" fill="#e23357"/>
    <path id="Path_3736" data-name="Path 3736" d="M504.228,444.38s-5.865,15.645,2.346,29.724-7.234,19.948-7.234,19.948" transform="translate(-369.939 -294.319)" opacity="0.1"/>
    <path id="Path_3737" data-name="Path 3737" d="M764.731,406.33s10.168,12.906,3.519,24.444-6.257,39.308-6.257,39.308" transform="translate(-535.401 -270.624)" opacity="0.1"/>
    <path id="Path_3738" data-name="Path 3738" d="M322.844,553.3H435.875a9.387,9.387,0,0,1,9.387,9.388H313.46A9.387,9.387,0,0,1,322.844,553.3Z" transform="translate(-197.55 -340.574)" fill="#535461"/>
    <path id="Path_3739" data-name="Path 3739" d="M345.331,378.89h90.034A14.431,14.431,0,0,1,449.8,393.321v52.255H330.9V393.321A14.431,14.431,0,0,1,345.331,378.89Z" transform="translate(-208.537 -231.823)" fill="#535461"/>
    <circle id="Ellipse_189" data-name="Ellipse 189" cx="7.042" cy="7.042" r="7.042" transform="translate(174.67 176.16)" fill="#fff"/>
    <path id="Path_3740" data-name="Path 3740" d="M577.56,184.1s26.908-26.893,55.929-.492" transform="translate(-419.216 -129.262)" fill="none" stroke="#000" stroke-miterlimit="10" stroke-width="1" opacity="0.1"/>
    <rect id="Rectangle_236" data-name="Rectangle 236" width="2.701" height="15.315" transform="translate(218.37 55.242)" fill="#6a5c99"/>
    <path id="Path_3741" data-name="Path 3741" d="M580.62,170.35h0a9.31,9.31,0,0,1,9.31,9.31v.6a9.31,9.31,0,0,1-9.31,9.31h0Z" transform="translate(-365.854 -104.767)" fill="#ffd037"/>
    <rect id="Rectangle_237" data-name="Rectangle 237" width="4.203" height="21.021" rx="2.102" transform="translate(212.964 64.664)" fill="#6a5c99"/>
    <rect id="Rectangle_238" data-name="Rectangle 238" width="2.701" height="15.315" transform="translate(153.971 70.869) rotate(180)" fill="#6a5c99"/>
    <path id="Path_3742" data-name="Path 3742" d="M0,0H0A9.31,9.31,0,0,1,9.31,9.31v.6A9.31,9.31,0,0,1,0,19.219H0Z" transform="translate(157.575 85.114) rotate(180)" fill="#ffd037"/>
    <rect id="Rectangle_239" data-name="Rectangle 239" width="4.203" height="21.021" rx="2.102" transform="translate(159.377 85.993) rotate(180)" fill="#6a5c99"/>
    <path id="Path_3743" data-name="Path 3743" d="M623.943,125.925c-3.66-7.608-11.63-16.807-28.81-17.543v-.022h-.207l-6.087.289v.03c-17.065.784-25,9.95-28.647,17.532a39.44,39.44,0,0,0-3.782,16.429l2.1-.052,2.1-.048a35.764,35.764,0,0,1,3.415-14.623c4.633-9.517,13.158-14.575,25.336-15.045h0l5.384-.3h0c12.185.466,20.714,5.532,25.343,15.045a35.763,35.763,0,0,1,3.423,14.631l2.1.048,2.1.052a39.443,39.443,0,0,0-3.774-16.422Z" transform="translate(-405.891 -89.171)" fill="#ffd037"/>
    <rect id="Rectangle_240" data-name="Rectangle 240" width="286.662" height="76.965" transform="translate(27.408 225.244)" fill="#d6d6e3"/>
    <rect id="Rectangle_241" data-name="Rectangle 241" width="286.662" height="9.991" transform="translate(27.408 228.007)" opacity="0.1"/>
    <rect id="Rectangle_242" data-name="Rectangle 242" width="325.114" height="9.991" transform="translate(8.178 221.471)" fill="#d6d6e3"/>
  </g>
</svg>
