<svg xmlns="http://www.w3.org/2000/svg" width="65.706" height="74.722" viewBox="0 0 65.706 74.722">
  <g id="shopify" transform="translate(-0.038 -0.779)">
    <path id="Path_5237" data-name="Path 5237" d="M57.587,15.328a.722.722,0,0,0-.653-.606c-.271-.023-6.015-.448-6.015-.448s-3.989-3.96-4.426-4.4a1.815,1.815,0,0,0-1.626-.207l-2.232.689C41.3,6.523,38.952,3,34.815,3c-.114,0-.232,0-.349.011A5.027,5.027,0,0,0,30.573.779c-9.637,0-14.241,12.047-15.684,18.169-3.745,1.16-6.4,1.985-6.745,2.092-2.09.656-2.156.722-2.431,2.691C5.507,25.222.038,67.516.038,67.516L42.653,75.5l23.091-5s-8.106-54.8-8.157-55.178ZM40.28,11.085,36.674,12.2c0-.254,0-.5,0-.778A17.687,17.687,0,0,0,35.816,5.6C37.947,5.869,39.367,8.294,40.28,11.085ZM33.171,6.074a17.875,17.875,0,0,1,.978,6.492c0,.147,0,.282,0,.418L26.7,15.29C28.133,9.755,30.821,7.082,33.171,6.074Zm-2.863-2.71a2.176,2.176,0,0,1,1.236.417c-3.088,1.453-6.4,5.114-7.8,12.423l-5.887,1.823C19.5,12.452,23.386,3.364,30.308,3.364Z" transform="translate(0 0)" fill="#95bf46"/>
    <path id="Path_5238" data-name="Path 5238" d="M180,40.171c-.271-.023-6.015-.448-6.015-.448s-3.989-3.96-4.426-4.4a1.093,1.093,0,0,0-.616-.283l-3.222,65.908,23.088-4.995s-8.106-54.8-8.157-55.178a.722.722,0,0,0-.653-.606" transform="translate(-123.068 -25.45)" fill="#5e8e3e"/>
    <path id="Path_5239" data-name="Path 5239" d="M63.919,101.363l-2.847,8.469A13.1,13.1,0,0,0,55.52,108.5c-4.483,0-4.708,2.813-4.708,3.522,0,3.868,10.083,5.35,10.083,14.41,0,7.128-4.521,11.718-10.617,11.718A14.771,14.771,0,0,1,39.221,133.6l1.959-6.472s3.845,3.3,7.09,3.3a2.86,2.86,0,0,0,2.983-2.889c0-5.046-8.272-5.271-8.272-13.562,0-6.978,5.009-13.731,15.119-13.731a12.438,12.438,0,0,1,5.82,1.116" transform="translate(-29.104 -73.883)" fill="#fff"/>
  </g>
</svg>
