<svg xmlns="http://www.w3.org/2000/svg" width="72.266" height="72.29" viewBox="0 0 72.266 72.29">
  <path id="spring" d="M65.72,3.765a33.369,33.369,0,0,1-3.859,6.852A36.265,36.265,0,1,0,11.256,62.567l1.336,1.186A36.207,36.207,0,0,0,72.064,38.6c.988-9.242-1.722-20.931-6.343-34.832ZM16.4,62.775a3.1,3.1,0,1,1-2.409-5.063,3.067,3.067,0,0,1,1.948.7,3.116,3.116,0,0,1,.461,4.367ZM65.57,51.914c-8.941,11.924-28.037,7.906-40.281,8.48,0,0-2.174.132-4.358.489,0,0,.819-.348,1.882-.753,8.593-2.993,12.658-3.576,17.882-6.259,9.835-5.007,19.557-15.962,21.581-27.359C58.53,37.477,47.18,46.9,36.837,50.728,29.75,53.344,16.95,55.885,16.95,55.885l-.518-.273C7.717,51.368,7.454,32.479,23.293,26.38c6.936-2.673,13.571-1.2,21.063-2.993,8-1.9,17.251-7.906,21.016-15.736,4.216,12.527,9.289,32.14.2,44.262Z" fill="#77bc1f"/>
</svg>
