<svg id="sqlite" xmlns="http://www.w3.org/2000/svg" xmlns:xlink="http://www.w3.org/1999/xlink" width="68.595" height="76.717" viewBox="0 0 68.595 76.717">
  <defs>
    <linearGradient id="linear-gradient" x1="0.577" y1="0.02" x2="0.577" y2="0.944" gradientUnits="objectBoundingBox">
      <stop offset="0" stop-color="#97d9f6"/>
      <stop offset="0.92" stop-color="#0f80cc"/>
      <stop offset="1" stop-color="#0f80cc"/>
    </linearGradient>
  </defs>
  <path id="Path_5201" data-name="Path 5201" d="M54,9.952H5.866A5.883,5.883,0,0,0,0,15.818V68.905a5.883,5.883,0,0,0,5.866,5.866h31.7C37.211,59,42.6,28.38,54,9.952Z" transform="translate(0 -6.548)" fill="#0f80cc"/>
  <path id="Path_5202" data-name="Path 5202" d="M55.546,14.955H9.157A4.16,4.16,0,0,0,5,19.11V68.324c10.506-4.032,26.275-7.511,37.177-7.353A338.541,338.541,0,0,1,55.546,14.955Z" transform="translate(-3.291 -9.84)" fill="url(#linear-gradient)"/>
  <path id="Path_5203" data-name="Path 5203" d="M131.306,1.666c-3.3-2.94-7.289-1.759-11.228,1.738-.585.519-1.168,1.1-1.749,1.711-6.74,7.15-13,20.392-14.939,30.507a27.854,27.854,0,0,1,1.738,4.991c.1.384.19.744.262,1.051.171.726.263,1.2.263,1.2s-.061-.228-.309-.947c-.047-.138-.1-.288-.162-.466q-.049-.13-.1-.257c-.44-1.022-1.655-3.179-2.191-4.118q-.636,1.867-1.2,3.757a33.241,33.241,0,0,1,2.487,7.672s-.082-.314-.47-1.41a52.206,52.206,0,0,0-2.468-4.68c-.7,2.568-.972,4.3-.723,4.724a16.471,16.471,0,0,1,1.35,3.79c.914,3.516,1.549,7.8,1.549,7.8s.021.284.055.72a71.533,71.533,0,0,0,.178,8.782,31.124,31.124,0,0,0,1.6,8.494l.494-.269a37.977,37.977,0,0,1-1.311-12.682,96.641,96.641,0,0,1,5.311-26.544c5.507-14.545,13.147-26.214,20.139-31.788-6.373,5.756-15,24.386-17.581,31.285a125.083,125.083,0,0,0-6.175,21.922c2.131-6.512,9.019-9.311,9.019-9.311s3.378-4.167,7.327-10.12a71.833,71.833,0,0,0-7.549,2.009c-1.919.8-2.436,1.079-2.436,1.079a65.57,65.57,0,0,1,11.547-5.5c7.333-11.55,15.323-27.958,7.277-35.136" transform="translate(-66.074 0)" fill="#003b57"/>
</svg>
