<svg xmlns="http://www.w3.org/2000/svg" width="368.693" height="278.164" viewBox="0 0 368.693 278.164">
  <g id="tech" transform="translate(0 -96.326)">
    <path id="Path_5197" data-name="Path 5197" d="M608.349,696.078V615.846a4.244,4.244,0,0,1,4.239-4.239h9.626a4.244,4.244,0,0,1,4.239,4.239v80.231a4.244,4.244,0,0,1-4.239,4.239h-9.627a4.244,4.244,0,0,1-4.239-4.239Z" transform="translate(-393.557 -326.726)" fill="#2f2e41"/>
    <path id="Path_5198" data-name="Path 5198" d="M579.156,696.078V615.846a4.244,4.244,0,0,1,4.239-4.239h9.626a4.244,4.244,0,0,1,4.239,4.239v80.231a4.244,4.244,0,0,1-4.239,4.239H583.4a4.244,4.244,0,0,1-4.239-4.239Z" transform="translate(-383.404 -326.726)" fill="#2f2e41"/>
    <rect id="Rectangle_412" data-name="Rectangle 412" width="46.802" height="51.854" rx="6" transform="translate(190.924 262.632)" fill="#2f2e41"/>
    <path id="Path_5199" data-name="Path 5199" d="M468.918,380.359s-19.67,9.138-36.315,15.2c-10.329-23.317-25.21-22.445-25.21-22.445l-9.022,6.212L400,388.642l-.444,15.233-2.366,7.986,3.4.614,1.918.348.289-.261a19.706,19.706,0,0,0-.575,5.807l85.336-13.31S484.595,391.3,468.918,380.359Z" transform="translate(-320.117 -243.778)" fill="#e6e6e6"/>
    <rect id="Rectangle_413" data-name="Rectangle 413" width="17.453" height="88.057" rx="6" transform="matrix(-0.594, -0.804, 0.804, -0.594, 131.648, 267.4)" fill="#6c63ff"/>
    <rect id="Rectangle_414" data-name="Rectangle 414" width="17.453" height="88.057" rx="6" transform="matrix(0.883, -0.469, 0.469, 0.883, 221.582, 207.89)" fill="#6c63ff"/>
    <path id="Path_5200" data-name="Path 5200" d="M654.818,514.893,640.93,524.1a4.149,4.149,0,0,1-5.677-1.417l-15.337-28.9a4.149,4.149,0,0,1,2.008-5.5l9.452-5.016a4.149,4.149,0,0,1,5.677,1.417l19.772,24.71A4.15,4.15,0,0,1,654.818,514.893Z" transform="translate(-397.435 -281.897)" fill="#e23357"/>
    <path id="Path_5201" data-name="Path 5201" d="M527.985,506.266l9.026,11.987a3.913,3.913,0,0,0,5.531.175L566.4,496.037a3.913,3.913,0,0,0,.175-5.531l-6.588-7.019a3.913,3.913,0,0,0-5.531-.175L528.16,500.735A3.913,3.913,0,0,0,527.985,506.266Z" transform="translate(-365.238 -281.738)" fill="#ccc"/>
    <rect id="Rectangle_415" data-name="Rectangle 415" width="51.565" height="100.751" rx="6" transform="translate(188.542 200.389)" fill="#e23357"/>
    <circle id="Ellipse_316" data-name="Ellipse 316" cx="34.906" cy="34.906" r="34.906" transform="translate(179.163 124.513)" fill="#6c63ff"/>
    <rect id="Rectangle_416" data-name="Rectangle 416" width="7.025" height="1.304" transform="translate(199.536 150.154)" fill="#2f2e41"/>
    <rect id="Rectangle_417" data-name="Rectangle 417" width="7.025" height="1.304" transform="translate(221.711 150.154)" fill="#2f2e41"/>
    <path id="Path_5203" data-name="Path 5203" d="M565.2,358.32c-5.657-.645-10.039-6.066-10.52-11.566-.573-6.543,3.238-12.757,8.466-16.429,5.467-3.84,12.278-5.443,18.868-5.8a51.856,51.856,0,0,1,35.446,11.684c4.938,4.1,9.55,9.326,11.3,15.636,1.518,5.48.283,11.689-4.125,15.527a10.42,10.42,0,0,1-8,2.462c-3.42-.355-6.576-2.153-9.307-4.14-5.313-3.863-9.676-9.245-16.149-11.264-4.747-1.48-10.906-.177-13.807,4.115a7.809,7.809,0,0,0-1.247,3.273,1.013,1.013,0,0,0,.683,1.2.984.984,0,0,0,1.2-.683c.762-5.406,7.409-7.424,12.074-6.189,6.8,1.8,11.367,7.87,16.948,11.726a20.594,20.594,0,0,0,9.869,3.939,12.256,12.256,0,0,0,8.611-2.645c4.767-3.764,6.59-10.239,5.536-16.069-1.221-6.751-5.764-12.536-10.75-17.016a53.772,53.772,0,0,0-36.748-13.575c-6.9.158-14.092,1.582-20.033,5.227-5.763,3.536-10.217,9.45-10.8,16.326a15.413,15.413,0,0,0,8.308,15.033,13.011,13.011,0,0,0,4.169,1.177c1.249.142,1.239-1.815,0-1.957Z" transform="translate(-374.193 -226.179)" fill="#2f2e41"/>
    <path id="Path_5204" data-name="Path 5204" d="M401.65,411.641l4.141-1.331c.444-.85-.368-.3.019-1.132,10.477-22.351.794-36.064.794-36.064l-7.49,5.157c-.018-.042-.034-.086-.052-.129,0,0-1.331-2.958-3.4-.739,0,0,6.507,15.825-.74,35.5l8.43,3.845L406.6,412.9l.074-.37L400.855,412Z" transform="translate(-319.328 -243.78)" fill="#ccc"/>
    <path id="Path_5205" data-name="Path 5205" d="M519.7,506.843c-33.277-7.395-64.261,7.912-64.261,7.912l-.084-.075-12.339-11.017-48.214-78.68,11.758.074c32.685-19.522,78.68-16.86,78.68-16.86C505.063,430.677,519.7,506.843,519.7,506.843Z" transform="translate(-319.289 -255.939)" fill="#3f3d56"/>
    <path id="Path_5206" data-name="Path 5206" d="M455.36,523.7,443.021,512.68,394.807,434l11.758.074S453.427,495.967,455.36,523.7Z" transform="translate(-319.289 -264.956)" opacity="0.1"/>
    <ellipse id="Ellipse_317" data-name="Ellipse 317" cx="19.079" cy="12.127" rx="19.079" ry="12.127" transform="translate(116.135 179.756) rotate(-17.052)" fill="#e23357"/>
    <path id="Path_5207" data-name="Path 5207" d="M330.193,365.023c-2.657,9.822-11.758,15.9-11.758,15.9s-4.793-9.841-2.136-19.663,11.758-15.9,11.758-15.9S332.85,355.2,330.193,365.023Z" transform="translate(-291.706 -234.127)" fill="#ccc"/>
    <path id="Path_5208" data-name="Path 5208" d="M300.542,365.023c2.657,9.822,11.758,15.9,11.758,15.9s4.793-9.841,2.136-19.663-11.758-15.9-11.758-15.9S297.885,355.2,300.542,365.023Z" transform="translate(-286.225 -234.127)" fill="#ccc"/>
    <path id="Path_5209" data-name="Path 5209" d="M297.24,368.168c7.291,7.1,8.181,18.008,8.181,18.008s-10.93-.6-18.221-7.694-8.181-18.007-8.181-18.007S289.949,361.071,297.24,368.168Z" transform="translate(-279.019 -239.384)" fill="#7c4dff"/>
    <path id="Path_5210" data-name="Path 5210" d="M327.681,368.168c-7.291,7.1-8.181,18.008-8.181,18.008s10.93-.6,18.221-7.694,8.181-18.007,8.181-18.007S334.972,361.071,327.681,368.168Z" transform="translate(-293.098 -239.384)" fill="#7c4dff"/>
    <path id="Path_5211" data-name="Path 5211" d="M891.193,535.023c-2.657,9.822-11.758,15.9-11.758,15.9s-4.793-9.841-2.136-19.663,11.758-15.9,11.758-15.9S893.85,525.2,891.193,535.023Z" transform="translate(-536.817 -293.252)" fill="#ccc"/>
    <path id="Path_5212" data-name="Path 5212" d="M861.542,535.023c2.657,9.822,11.758,15.9,11.758,15.9s4.793-9.841,2.136-19.663-11.758-15.9-11.758-15.9S858.885,525.2,861.542,535.023Z" transform="translate(-531.336 -293.252)" fill="#ccc"/>
    <path id="Path_5213" data-name="Path 5213" d="M858.24,538.168c7.291,7.1,8.181,18.008,8.181,18.008s-10.93-.6-18.221-7.694-8.181-18.007-8.181-18.007S850.949,531.071,858.24,538.168Z" transform="translate(-524.13 -298.509)" fill="#7c4dff"/>
    <path id="Path_5214" data-name="Path 5214" d="M888.681,538.168c-7.291,7.1-8.181,18.008-8.181,18.008s10.93-.6,18.221-7.694,8.181-18.007,8.181-18.007S895.972,531.071,888.681,538.168Z" transform="translate(-538.209 -298.509)" fill="#7c4dff"/>
    <rect id="Rectangle_418" data-name="Rectangle 418" width="151.312" height="1.304" transform="translate(139.548 373.185)" fill="#3f3d56"/>
    <rect id="Rectangle_419" data-name="Rectangle 419" width="13.526" height="2.388" transform="translate(207.625 172.907)" fill="#2f2e41"/>
  </g>
</svg>
