<svg id="tech_box" data-name="tech box" xmlns="http://www.w3.org/2000/svg" width="545.651" height="450.235" viewBox="0 0 545.651 450.235">
  <g id="Path_3045" data-name="Path 3045" transform="translate(545.651) rotate(90)" fill="none" stroke-dasharray="7 7">
    <path d="M337.676,0,450.235,272.826,337.676,545.651H112.559L0,272.826,112.559,0Z" stroke="none"/>
    <path d="M 126.5587463378906 0 L 133.5587463378906 0 L 133.5587463378906 1 L 126.5587463378906 1 L 126.5587463378906 0 Z M 140.5587463378906 0 L 147.5587463378906 0 L 147.5587463378906 1 L 140.5587463378906 1 L 140.5587463378906 0 Z M 154.5587463378906 0 L 161.5587463378906 0 L 161.5587463378906 1 L 154.5587463378906 1 L 154.5587463378906 0 Z M 168.5587463378906 0 L 175.5587463378906 0 L 175.5587463378906 1 L 168.5587463378906 1 L 168.5587463378906 0 Z M 182.5587463378906 0 L 189.5587463378906 0 L 189.5587463378906 1 L 182.5587463378906 1 L 182.5587463378906 0 Z M 196.5587310791016 0 L 203.5587310791016 0 L 203.5587310791016 1 L 196.5587310791016 1 L 196.5587310791016 0 Z M 210.5587310791016 0 L 217.5587310791016 0 L 217.5587310791016 1 L 210.5587310791016 1 L 210.5587310791016 0 Z M 224.5587310791016 0 L 231.5587310791016 0 L 231.5587310791016 1 L 224.5587310791016 1 L 224.5587310791016 0 Z M 238.5587310791016 0 L 245.5587310791016 0 L 245.5587310791016 1 L 238.5587310791016 1 L 238.5587310791016 0 Z M 252.5587310791016 0 L 259.5587158203125 0 L 259.5587158203125 1 L 252.5587310791016 1 L 252.5587310791016 0 Z M 266.5587158203125 0 L 273.5587158203125 0 L 273.5587158203125 1 L 266.5587158203125 1 L 266.5587158203125 0 Z M 280.5587158203125 0 L 287.5587158203125 0 L 287.5587158203125 1 L 280.5587158203125 1 L 280.5587158203125 0 Z M 294.5587158203125 0 L 301.5587158203125 0 L 301.5587158203125 1 L 294.5587158203125 1 L 294.5587158203125 0 Z M 308.5587158203125 0 L 315.5587158203125 0 L 315.5587158203125 1 L 308.5587158203125 1 L 308.5587158203125 0 Z M 322.5587463378906 0 L 329.5587463378906 0 L 329.5587463378906 1 L 322.5587463378906 1 L 322.5587463378906 0 Z M 336.5587463378906 0 L 337.6759643554688 0 L 337.6759643554688 0 C 337.6759643554688 0 339.9195251464844 5.43817138671875 339.9195251464844 5.43817138671875 L 338.9951782226563 5.81951904296875 L 337.0067749023438 1 L 336.5587463378906 1 L 336.5587463378906 0 Z M 342.5892333984375 11.9090576171875 L 342.8284301757813 12.48883056640625 C 342.8285217285156 12.48907470703125 342.8285217285156 12.48907470703125 342.82861328125 12.48931884765625 L 342.8460998535156 12.53167724609375 C 343.5149536132813 14.1529541015625 345.2588806152344 18.3800048828125 345.2588806152344 18.3800048828125 L 344.3345336914063 18.7613525390625 L 341.664794921875 12.29046630859375 L 342.5892333984375 11.9090576171875 Z M 347.9285888671875 24.8509521484375 C 347.9285888671875 24.8509521484375 348.434814453125 26.07794189453125 349.0064392089844 27.46343994140625 L 349.0251159667969 27.50872802734375 C 349.0256652832031 27.51007080078125 349.0261535644531 27.51123046875 349.0267333984375 27.5125732421875 L 349.0488891601563 27.56634521484375 C 349.0516357421875 27.572998046875 349.0544128417969 27.57977294921875 349.0571594238281 27.58636474609375 L 349.0630493164063 27.6007080078125 C 349.0641174316406 27.60321044921875 349.0650024414063 27.60540771484375 349.0660400390625 27.60791015625 L 350.5982971191406 31.3218994140625 L 349.6738891601563 31.7032470703125 L 347.004150390625 25.2322998046875 L 347.9285888671875 24.8509521484375 Z M 353.2679443359375 37.792724609375 L 355.9376220703125 44.263671875 L 355.0132446289063 44.64508056640625 L 352.343505859375 38.17416381835938 L 353.2679443359375 37.792724609375 Z M 358.6072998046875 50.73458862304688 C 358.6072998046875 50.73458862304688 359.2315979003906 52.24774169921875 359.8764038085938 53.8106689453125 L 359.8817443847656 53.8236083984375 C 359.8902893066406 53.84432983398438 359.8988342285156 53.864990234375 359.9073791503906 53.88571166992188 L 361.2770080566406 57.20550537109375 L 360.3526000976563 57.58685302734375 L 357.6828918457031 51.11599731445313 L 358.6072998046875 50.73458862304688 Z M 363.9466552734375 63.67645263671875 C 363.9466552734375 63.67645263671875 366.6163940429688 70.14736938476563 366.6163940429688 70.14736938476563 L 365.6919555664063 70.52871704101563 L 363.0223083496094 64.05780029296875 L 363.9466552734375 63.67645263671875 Z M 369.2860107421875 76.6182861328125 C 369.2860107421875 76.6182861328125 370.6036682128906 79.81198120117188 371.3875732421875 81.7120361328125 L 371.3912658691406 81.72097778320313 C 371.3945922851563 81.72906494140625 371.3978881835938 81.73703002929688 371.4011840820313 81.74505615234375 L 371.4049682617188 81.75424194335938 C 371.4059143066406 81.75650024414063 371.4067993164063 81.7586669921875 371.4077453613281 81.76095581054688 L 371.9557189941406 83.08917236328125 L 371.0313110351563 83.4705810546875 L 368.3616638183594 76.99966430664063 L 369.2860107421875 76.6182861328125 Z M 374.6254272460938 89.56008911132813 L 377.0162658691406 95.35513305664063 C 377.0166320800781 95.35601806640625 377.0169982910156 95.35693359375 377.0173645019531 95.35781860351563 L 377.0233764648438 95.37237548828125 C 377.024658203125 95.37548828125 377.02587890625 95.37844848632813 377.0271606445313 95.38156127929688 L 377.03076171875 95.3902587890625 C 377.033447265625 95.39682006835938 377.0361328125 95.4033203125 377.038818359375 95.40982055664063 L 377.0394592285156 95.41140747070313 C 377.0409240722656 95.41494750976563 377.0422973632813 95.41827392578125 377.0437622070313 95.42178344726563 L 377.0502319335938 95.43753051757813 C 377.201904296875 95.80508422851563 377.2951049804688 96.031005859375 377.2951049804688 96.031005859375 L 376.3706665039063 96.41244506835938 L 373.7010192871094 89.94149780273438 L 374.6254272460938 89.56008911132813 Z M 379.9647827148438 102.501953125 L 381.4035339355469 105.9892578125 C 381.4042663574219 105.9910278320313 381.4051818847656 105.9932250976563 381.4059143066406 105.9949951171875 L 381.4176635742188 106.0235290527344 C 381.4187316894531 106.0260925292969 381.4199523925781 106.029052734375 381.4210205078125 106.0316162109375 L 381.4280700683594 106.0487365722656 C 382.050048828125 107.5563659667969 382.6344604492188 108.9728698730469 382.6344604492188 108.9728698730469 L 381.7100219726563 109.3542175292969 L 379.0403747558594 102.88330078125 L 379.9648132324219 102.501953125 Z M 385.3041687011719 115.4437866210938 L 385.7523803710938 116.5302429199219 C 385.7533264160156 116.5325317382813 385.7541198730469 116.5344543457031 385.7550659179688 116.5367126464844 L 385.75830078125 116.5445251464844 C 385.7605590820313 116.5500183105469 385.762939453125 116.5558471679688 385.7652282714844 116.5613708496094 L 385.7721252441406 116.5780639648438 C 385.7752380371094 116.5856323242188 385.7782592773438 116.5929870605469 385.7814331054688 116.6005859375 L 385.7814636230469 116.6007080078125 C 386.5493469238281 118.4619750976563 387.9738159179688 121.9147338867188 387.9738159179688 121.9147338867188 L 387.0494384765625 122.2960815429688 L 384.3797302246094 115.8251647949219 L 385.3041687011719 115.4437866210938 Z M 390.6435241699219 128.3856506347656 C 390.6435241699219 128.3856506347656 393.3131713867188 134.8565063476563 393.3131713867188 134.8565063476563 L 392.3887939453125 135.2379455566406 L 389.7190856933594 128.7669982910156 L 390.6435241699219 128.3856506347656 Z M 395.9828796386719 141.3274536132813 L 398.6525573730469 147.7983703613281 L 397.7281799316406 148.1798095703125 L 395.0584411621094 141.7088623046875 L 395.9828796386719 141.3274536132813 Z M 401.3222351074219 154.269287109375 C 401.3222351074219 154.269287109375 401.7620239257813 155.3352966308594 402.2845458984375 156.6017456054688 L 402.2882690429688 156.6107788085938 C 402.2897644042969 156.6144104003906 402.2911376953125 156.6177673339844 402.2926330566406 156.6213989257813 L 402.2945556640625 156.6260375976563 C 402.2962951660156 156.6302490234375 402.2981262207031 156.6347045898438 402.2998657226563 156.638916015625 L 402.3020629882813 156.6441955566406 C 402.3042602539063 156.6495361328125 402.306640625 156.6552734375 402.308837890625 156.66064453125 L 402.3270568847656 156.7048034667969 C 402.3273620605469 156.70556640625 402.3277893066406 156.70654296875 402.3280944824219 156.7073059082031 L 403.991943359375 160.740234375 L 403.0675354003906 161.12158203125 L 400.3977966308594 154.6506652832031 L 401.3222351074219 154.269287109375 Z M 406.6615905761719 167.2111511230469 C 406.6615905761719 167.2111511230469 408.5599670410156 171.8125 409.1550903320313 173.2549438476563 L 409.1573791503906 173.260498046875 C 409.1595458984375 173.2658081054688 409.1617431640625 173.2710571289063 409.1638793945313 173.2762756347656 L 409.16455078125 173.2779235839844 C 409.166748046875 173.2832336425781 409.1688842773438 173.2883911132813 409.1710205078125 173.2936096191406 L 409.1733703613281 173.2992858886719 C 409.174072265625 173.3009643554688 409.1748046875 173.302734375 409.1754760742188 173.3044128417969 L 409.17724609375 173.3086547851563 C 409.1778869628906 173.3102416992188 409.1784973144531 173.3116760253906 409.1791381835938 173.3132629394531 L 409.1808166503906 173.3172912597656 C 409.1818237304688 173.3197326660156 409.182861328125 173.322265625 409.1838684082031 173.3246765136719 L 409.1894836425781 173.3383178710938 C 409.190185546875 173.3400268554688 409.1908264160156 173.3415832519531 409.1915283203125 173.34326171875 L 409.1964721679688 173.3552856445313 C 409.1970825195313 173.3567810058594 409.1976928710938 173.3582153320313 409.1983032226563 173.3596801757813 L 409.331298828125 173.6820678710938 L 408.4068908691406 174.0634460449219 L 405.7371826171875 167.5924987792969 L 406.6615905761719 167.2111511230469 Z M 412.0009460449219 180.1530151367188 C 412.0009460449219 180.1530151367188 413.1496887207031 182.9373168945313 413.9400939941406 184.8531188964844 L 413.9429626464844 184.8600158691406 C 413.94677734375 184.8692932128906 413.9505615234375 184.8784790039063 413.9543762207031 184.8876953125 L 414.670654296875 186.6238708496094 L 413.7462463378906 187.0053100585938 L 411.0765991210938 180.5343627929688 L 412.0009460449219 180.1530151367188 Z M 417.3403015136719 193.0947875976563 C 417.3403015136719 193.0947875976563 420.0097045898438 199.56494140625 420.010009765625 199.5657348632813 L 420.010009765625 199.5657348632813 L 419.0856018066406 199.9470825195313 L 416.4159545898438 193.4762268066406 L 417.3403015136719 193.0947875976563 Z M 422.6797180175781 206.0366516113281 L 424.3353881835938 210.0497741699219 C 424.8803100585938 211.37060546875 425.349365234375 212.507568359375 425.349365234375 212.507568359375 L 424.4249572753906 212.8889465332031 L 421.7553100585938 206.4179992675781 L 422.6797485351563 206.0366516113281 Z M 428.0190734863281 218.978515625 L 428.6806640625 220.5820617675781 C 428.6839599609375 220.5900268554688 428.6872863769531 220.5981140136719 428.6905822753906 220.6061401367188 L 428.6944885253906 220.6156005859375 C 429.4853820800781 222.5326232910156 430.6887512207031 225.4494323730469 430.6887512207031 225.4494323730469 L 429.7643127441406 225.830810546875 L 427.0946655273438 219.35986328125 L 428.0191040039063 218.978515625 Z M 433.3584289550781 231.9203186035156 L 434.8671264648438 235.5772094726563 C 434.8701171875 235.5844421386719 434.8731079101563 235.5916442871094 434.8760986328125 235.598876953125 L 434.8841857910156 235.6185302734375 C 435.4822082519531 237.0680541992188 436.0281066894531 238.3912353515625 436.0281066894531 238.3912353515625 L 435.1037292480469 238.7726440429688 L 432.4340209960938 232.3017272949219 L 433.3584594726563 231.9202880859375 Z M 438.6978149414063 244.8621520996094 L 439.2023620605469 246.0851440429688 C 439.2029418945313 246.0865783691406 439.2035217285156 246.0879211425781 439.2041015625 246.08935546875 L 439.2153625488281 246.1166076660156 C 439.9916381835938 247.9982299804688 441.3674621582031 251.3330688476563 441.3674621582031 251.3330688476563 L 440.4430847167969 251.7144470214844 L 437.7733764648438 245.2435913085938 L 438.6978149414063 244.8621520996094 Z M 444.0371704101563 257.8040161132813 C 444.0371704101563 257.8040161132813 444.2974243164063 258.434814453125 444.6554870605469 259.3026733398438 L 444.6571960449219 259.3068237304688 C 444.6724548339844 259.3438415527344 444.6880187988281 259.3815612792969 444.7036437988281 259.4194030761719 L 444.719970703125 259.458984375 C 444.7206115722656 259.4605712890625 444.7211303710938 259.4617919921875 444.7217712402344 259.46337890625 L 446.7068481445313 264.2749328613281 L 445.7824401855469 264.6563110351563 L 443.1127319335938 258.1853637695313 L 444.0371704101563 257.8040161132813 Z M 449.3765258789063 270.7458801269531 C 449.3765258789063 270.7458801269531 450.2345886230469 272.8256530761719 450.2345886230469 272.8256530761719 L 450.2345886230469 272.8256530761719 L 450.2345886230469 272.8256530761719 C 450.2345886230469 272.8256530761719 450.2345886230469 272.8256530761719 450.2345886230469 272.8256530761719 C 450.2345886230469 272.8256530761719 450.2345886230469 272.8256530761719 450.2345886230469 272.8256530761719 L 450.2345886230469 272.8256530761719 L 450.2345886230469 272.8256530761719 L 450.2345886230469 272.8256530761719 C 450.2345886230469 272.8256530761719 450.2345886230469 272.8256530761719 450.2345886230469 272.8256530761719 L 450.2345886230469 272.8256530761719 L 450.2345886230469 272.8256530761719 L 450.2345886230469 272.8256530761719 C 450.2345886230469 272.8256530761719 450.2345886230469 272.8256530761719 450.2345886230469 272.8256530761719 L 450.2345886230469 272.8256530761719 L 450.2345886230469 272.8256530761719 C 450.2345886230469 272.8256530761719 448.4229431152344 277.216796875 448.4229431152344 277.216796875 L 447.49853515625 276.8353576660156 L 449.15283203125 272.8256530761719 L 448.4520874023438 271.1272277832031 L 449.3765258789063 270.7458801269531 Z M 444.8288879394531 283.3063049316406 L 445.7532958984375 283.6876525878906 L 445.0149230957031 285.4773559570313 C 445.0137634277344 285.4801940917969 445.0125122070313 285.4832458496094 445.0113220214844 285.4861145019531 L 445.00830078125 285.4934692382813 C 445.0045776367188 285.5024108886719 445.0009155273438 285.5113220214844 444.9971923828125 285.5203247070313 L 444.9932556152344 285.5299072265625 C 444.9850769042969 285.5497436523438 444.9767456054688 285.5699157714844 444.968505859375 285.5899047851563 L 444.9651489257813 285.5980529785156 C 444.177734375 287.5065307617188 443.0835876464844 290.1585693359375 443.0835876464844 290.1585693359375 L 442.1591796875 289.7772216796875 L 444.8288879394531 283.3063049316406 Z M 439.4895324707031 296.2481689453125 L 440.4139404296875 296.6295166015625 L 438.1420593261719 302.1361694335938 C 438.1416625976563 302.1371765136719 438.1412353515625 302.1382141113281 438.1408081054688 302.1392211914063 L 438.1357421875 302.1514892578125 C 438.1353149414063 302.1525268554688 438.1348876953125 302.153564453125 438.1344604492188 302.1546020507813 L 438.1310729980469 302.1627807617188 C 438.1298828125 302.1656799316406 438.1286315917969 302.168701171875 438.1274719238281 302.1715698242188 L 438.126220703125 302.174560546875 C 438.1230773925781 302.1821899414063 438.1199035644531 302.1898803710938 438.1167907714844 302.1973876953125 L 438.11376953125 302.2047119140625 C 437.8901977539063 302.7466430664063 437.7442321777344 303.1004333496094 437.7442321777344 303.1004333496094 L 436.81982421875 302.7190856933594 L 439.4895324707031 296.2481689453125 Z M 434.1501770019531 309.18994140625 L 435.0745239257813 309.5713500976563 C 435.0745239257813 309.5713500976563 433.8975524902344 312.4242553710938 433.1065673828125 314.3414916992188 L 433.1053161621094 314.3445129394531 C 433.1012573242188 314.3543701171875 433.0972290039063 314.3641357421875 433.0931701660156 314.3739624023438 L 433.0914611816406 314.3780822753906 C 433.0898132324219 314.3821105957031 433.0881958007813 314.385986328125 433.0865478515625 314.3900146484375 L 432.4048767089844 316.0422973632813 L 431.4804382324219 315.660888671875 L 434.1501770019531 309.18994140625 Z M 428.8108215332031 322.1317749023438 L 429.7351684570313 322.5132446289063 C 429.7351684570313 322.5132446289063 427.0655212402344 328.9840698242188 427.0655212402344 328.9840698242188 L 426.1410827636719 328.6027221679688 L 428.8108215332031 322.1317749023438 Z M 423.4713745117188 335.0736694335938 L 424.3958129882813 335.4550170898438 C 424.3958129882813 335.4550170898438 423.37939453125 337.9186401367188 422.6009216308594 339.8056335449219 L 422.59912109375 339.8099975585938 C 422.5953369140625 339.8191528320313 422.5917053222656 339.8279418945313 422.5879516601563 339.8370666503906 L 422.53271484375 339.9709777832031 C 422.5315551757813 339.9737243652344 422.5306091308594 339.9760437011719 422.5294799804688 339.9787902832031 L 421.7261657714844 341.9259338378906 L 420.8017272949219 341.5445861816406 L 423.4713745117188 335.0736694335938 Z M 418.1320190429688 348.0155029296875 L 419.0564575195313 348.3968505859375 C 419.0564575195313 348.3968505859375 418.6893310546875 349.2867736816406 418.2273254394531 350.4065856933594 L 418.2242431640625 350.4140625 C 418.2225646972656 350.4180908203125 418.2210998535156 350.4216918945313 418.2194213867188 350.4257202148438 L 418.201904296875 350.4682006835938 C 418.2011413574219 350.4700927734375 418.2002868652344 350.4721069335938 418.1995239257813 350.4739990234375 L 418.1937866210938 350.4879150390625 C 418.1935424804688 350.4884643554688 418.1933898925781 350.4888305664063 418.1931762695313 350.4893798828125 L 416.3867797851563 354.8677978515625 L 415.4623718261719 354.4864501953125 L 418.1320190429688 348.0155029296875 Z M 412.7926635742188 360.957275390625 L 413.7171020507813 361.3387451171875 L 413.5363464355469 361.77685546875 C 413.535888671875 361.7778930664063 413.5355224609375 361.7788391113281 413.5350952148438 361.7799072265625 L 413.5317077636719 361.7880554199219 C 413.5315551757813 361.7884826660156 413.5313415527344 361.7889404296875 413.5311584472656 361.7893676757813 L 413.5283203125 361.7963256835938 C 413.5276794433594 361.7978210449219 413.5270385742188 361.7993774414063 413.5264282226563 361.8008728027344 L 413.5237731933594 361.8073120117188 C 413.5230102539063 361.8091735839844 413.5222473144531 361.8109741210938 413.521484375 361.8128356933594 L 413.5202941894531 361.8157348632813 C 413.519287109375 361.8181762695313 413.5182800292969 361.8206176757813 413.5172729492188 361.8230590820313 L 413.5148315429688 361.8290100097656 C 413.5128784179688 361.8336791992188 413.5108947753906 361.8385314941406 413.5089416503906 361.84326171875 L 413.5024108886719 361.8590698242188 C 413.49365234375 361.8803100585938 413.4846801757813 361.9020385742188 413.4754943847656 361.9243469238281 L 413.4754333496094 361.9244995117188 C 413.4743041992188 361.92724609375 413.4732360839844 361.9298095703125 413.4720764160156 361.9325866699219 L 413.4694519042969 361.93896484375 C 412.8074951171875 363.54345703125 411.0473937988281 367.8096313476563 411.0473937988281 367.8096313476563 L 410.1230163574219 367.42822265625 L 412.7926635742188 360.957275390625 Z M 407.4533081054688 373.899169921875 L 408.3777465820313 374.2805786132813 L 407.5248718261719 376.3477783203125 C 406.74365234375 378.2412719726563 405.7080078125 380.7514343261719 405.7080078125 380.7514343261719 L 404.7836608886719 380.3700866699219 L 407.4533081054688 373.899169921875 Z M 402.1139526367188 386.8410034179688 L 403.0383911132813 387.2223510742188 L 402.6076049804688 388.2665100097656 C 402.6062316894531 388.2698364257813 402.6049194335938 388.2730102539063 402.6035461425781 388.2763061523438 L 402.6033935546875 388.2767333984375 C 402.6022033691406 388.2796020507813 402.6009216308594 388.2826538085938 402.5997619628906 388.2855224609375 L 402.5956420898438 388.2954711914063 C 402.5884094238281 388.3130493164063 402.5811767578125 388.33056640625 402.5737915039063 388.3484497070313 L 402.5728759765625 388.3506774902344 C 401.8078918457031 390.2048645019531 400.36865234375 393.6932983398438 400.36865234375 393.6932983398438 L 399.4442443847656 393.3119506835938 L 402.1139526367188 386.8410034179688 Z M 396.7745971679688 399.7828674316406 L 397.6990356445313 400.1642456054688 L 395.7695007324219 404.841064453125 C 395.7695007324219 404.841064453125 395.7693481445313 404.8413696289063 395.7693481445313 404.8413696289063 L 395.7507629394531 404.886474609375 C 395.7489318847656 404.8909301757813 395.7469177246094 404.8958129882813 395.7450866699219 404.9002380371094 L 395.7441711425781 404.9024658203125 C 395.7399291992188 404.9127197265625 395.7357177734375 404.9229736328125 395.7315063476563 404.9331665039063 L 395.7296142578125 404.9376831054688 C 395.3300170898438 405.9062805175781 395.029296875 406.6351318359375 395.029296875 406.6351318359375 L 394.1048889160156 406.2537841796875 L 396.7745971679688 399.7828674316406 Z M 391.4352416992188 412.7246704101563 L 392.359619140625 413.1060791015625 L 389.68994140625 419.5769958496094 L 388.7655334472656 419.1955871582031 L 391.4352416992188 412.7246704101563 Z M 386.0958862304688 425.66650390625 L 387.0202331542969 426.0478515625 C 387.0202331542969 426.0478515625 384.3505859375 432.518798828125 384.3505859375 432.518798828125 L 383.4261779785156 432.137451171875 L 386.0958862304688 425.66650390625 Z M 380.7565307617188 438.6083679199219 L 381.6808776855469 438.9897155761719 C 381.6808776855469 438.9897155761719 380.4481506347656 441.9777221679688 379.6580200195313 443.8928833007813 L 379.6568603515625 443.895751953125 C 379.6533813476563 443.9041748046875 379.6499328613281 443.9125061035156 379.646484375 443.9208984375 L 379.01123046875 445.4606323242188 L 378.0867919921875 445.0792846679688 L 380.7565307617188 438.6083679199219 Z M 375.4171142578125 451.5502319335938 L 376.3415222167969 451.9315795898438 C 376.3415222167969 451.9315795898438 375.8669738769531 453.0818176269531 375.3179931640625 454.4124755859375 L 375.3157653808594 454.4178771972656 C 375.3111572265625 454.4290771484375 375.3066711425781 454.4399719238281 375.3020324707031 454.451171875 L 375.3014526367188 454.4525756835938 C 375.2973327636719 454.4626159667969 375.2930908203125 454.4728393554688 375.2889404296875 454.48291015625 L 373.671875 458.4024963378906 L 372.7474365234375 458.0210876464844 L 375.4171142578125 451.5502319335938 Z M 370.0777282714844 464.4920043945313 L 371.0021667480469 464.8734436035156 C 371.0021667480469 464.8734436035156 370.9788208007813 464.9300537109375 370.9363708496094 465.0328979492188 L 370.9359130859375 465.0340270996094 C 370.9307556152344 465.0465393066406 370.9253234863281 465.0596923828125 370.9196166992188 465.0735473632813 L 370.9189453125 465.0751342773438 C 370.9181823730469 465.0769958496094 370.9173889160156 465.0789184570313 370.9166259765625 465.080810546875 L 370.9062194824219 465.1059875488281 C 370.905517578125 465.1077270507813 370.9048461914063 465.1093139648438 370.9041137695313 465.111083984375 L 370.9036254882813 465.1122741699219 C 370.9031677246094 465.1134033203125 370.9026794433594 465.1145629882813 370.9022216796875 465.1156921386719 L 368.3324890136719 471.3443603515625 L 367.4080810546875 470.9629516601563 L 370.0777282714844 464.4920043945313 Z M 364.7383728027344 477.4338684082031 L 365.6628112792969 477.8152160644531 C 365.6628112792969 477.8152160644531 362.9931030273438 484.2861633300781 362.9931030273438 484.2861633300781 L 362.0687255859375 483.90478515625 L 364.7383728027344 477.4338684082031 Z M 359.3990173339844 490.375732421875 L 360.3234558105469 490.757080078125 L 360.2511901855469 490.9322509765625 C 360.2507934570313 490.9332275390625 360.2503356933594 490.934326171875 360.2499389648438 490.935302734375 L 360.2484130859375 490.9389343261719 C 360.2481689453125 490.9395751953125 360.2478332519531 490.9403686523438 360.24755859375 490.9410095214844 L 360.2451782226563 490.9468383789063 C 360.2448120117188 490.9476928710938 360.2445068359375 490.948486328125 360.244140625 490.9493408203125 L 360.2431945800781 490.9516296386719 C 360.2425842285156 490.9530944824219 360.2420043945313 490.9544982910156 360.2413940429688 490.9559936523438 L 360.2400512695313 490.9591979980469 C 360.2394104003906 490.9607849121094 360.23876953125 490.9623718261719 360.2380981445313 490.9639587402344 L 360.227783203125 490.9889831542969 C 360.2261657714844 490.9928894042969 360.2244873046875 490.9969177246094 360.2228393554688 491.0009155273438 L 360.220947265625 491.0054931640625 C 360.2205200195313 491.0065612792969 360.2200317382813 491.0077209472656 360.2196044921875 491.0087890625 L 360.2011108398438 491.0536193847656 C 360.1992492675781 491.0581359863281 360.1974182128906 491.0625610351563 360.1955261230469 491.0671691894531 L 360.1937255859375 491.0714721679688 C 360.1893310546875 491.0821533203125 360.1848754882813 491.0929870605469 360.1802673339844 491.1041259765625 L 360.1794128417969 491.1061706542969 C 359.624267578125 492.4518432617188 357.6537475585938 497.22802734375 357.6537475585938 497.22802734375 L 356.7293701171875 496.8466491699219 L 359.3990173339844 490.375732421875 Z M 354.0596618652344 503.3175659179688 L 354.9841003417969 503.6989440917969 L 353.3601379394531 507.6351318359375 C 353.3536987304688 507.6507873535156 353.3472290039063 507.6664123535156 353.3407897949219 507.6820373535156 L 353.3367614746094 507.6917724609375 C 352.7882690429688 509.0212097167969 352.3143920898438 510.1698608398438 352.3143920898438 510.1698608398438 L 351.3899536132813 509.7884521484375 L 354.0596618652344 503.3175659179688 Z M 348.7203063964844 516.2593383789063 L 349.6447143554688 516.6408081054688 L 346.9750366210938 523.1116943359375 L 346.0505981445313 522.7302856445313 L 348.7203063964844 516.2593383789063 Z M 343.3809509277344 529.2012329101563 L 344.3053894042969 529.5825805664063 L 342.4482421875 534.083984375 C 342.4396667480469 534.104736328125 342.4312438964844 534.1251831054688 342.4227600097656 534.145751953125 L 342.421630859375 534.1484375 C 341.9801940917969 535.2184448242188 341.6356811523438 536.0535278320313 341.6356811523438 536.0535278320313 L 340.7112426757813 535.6721801757813 L 343.3809509277344 529.2012329101563 Z M 338.0415954589844 542.14306640625 L 338.9659423828125 542.5244140625 C 338.9659423828125 542.5244140625 337.6759643554688 545.6513061523438 337.6759643554688 545.6513061523438 L 337.6759643554688 545.6513061523438 C 337.6759643554688 545.6513061523438 334.0584411621094 545.6513061523438 334.0584411621094 545.6513061523438 L 334.0584411621094 544.6513061523438 L 337.0067749023438 544.6513061523438 L 338.0415954589844 542.14306640625 Z M 320.0584716796875 544.6513061523438 L 327.0584411621094 544.6513061523438 L 327.0584411621094 545.6513061523438 C 327.0584411621094 545.6513061523438 320.0584716796875 545.6513061523438 320.0584716796875 545.6513061523438 L 320.0584716796875 544.6513061523438 Z M 306.0584716796875 544.6513061523438 L 313.0584716796875 544.6513061523438 L 313.0584716796875 545.6513061523438 C 313.0584716796875 545.6513061523438 306.0584716796875 545.6513061523438 306.0584716796875 545.6513061523438 L 306.0584716796875 544.6513061523438 Z M 292.0584716796875 544.6513061523438 L 299.0584716796875 544.6513061523438 L 299.0584716796875 545.6513061523438 C 299.0584716796875 545.6513061523438 292.0584716796875 545.6513061523438 292.0584716796875 545.6513061523438 L 292.0584716796875 544.6513061523438 Z M 278.0584716796875 544.6513061523438 L 285.0584716796875 544.6513061523438 L 285.0584716796875 545.6513061523438 C 285.0584716796875 545.6513061523438 278.0584716796875 545.6513061523438 278.0584716796875 545.6513061523438 L 278.0584716796875 544.6513061523438 Z M 264.0584716796875 544.6513061523438 L 271.0584716796875 544.6513061523438 L 271.0584716796875 545.6513061523438 C 271.0584716796875 545.6513061523438 264.0584716796875 545.6513061523438 264.0584716796875 545.6513061523438 L 264.0584716796875 544.6513061523438 Z M 250.0584564208984 544.6513061523438 L 257.0584716796875 544.6513061523438 L 257.0584716796875 545.6513061523438 C 257.0584716796875 545.6513061523438 250.0584564208984 545.6513061523438 250.0584564208984 545.6513061523438 L 250.0584564208984 544.6513061523438 Z M 236.0584564208984 544.6513061523438 L 243.0584564208984 544.6513061523438 L 243.0584564208984 545.6513061523438 C 243.0584564208984 545.6513061523438 236.0584564208984 545.6513061523438 236.0584564208984 545.6513061523438 L 236.0584564208984 544.6513061523438 Z M 222.0584564208984 544.6513061523438 L 229.0584564208984 544.6513061523438 L 229.0584564208984 545.6513061523438 C 229.0584564208984 545.6513061523438 222.0584564208984 545.6513061523438 222.0584564208984 545.6513061523438 L 222.0584564208984 544.6513061523438 Z M 208.0584564208984 544.6513061523438 L 215.0584564208984 544.6513061523438 L 215.0584564208984 545.6513061523438 C 215.0584564208984 545.6513061523438 208.0584564208984 545.6513061523438 208.0584564208984 545.6513061523438 L 208.0584564208984 544.6513061523438 Z M 194.0584411621094 544.6513061523438 L 201.0584564208984 544.6513061523438 L 201.0584564208984 545.6513061523438 C 201.0584564208984 545.6513061523438 194.0584411621094 545.6513061523438 194.0584411621094 545.6513061523438 L 194.0584411621094 544.6513061523438 Z M 180.0584411621094 544.6513061523438 L 187.0584411621094 544.6513061523438 L 187.0584411621094 545.6513061523438 C 187.0584411621094 545.6513061523438 180.0584411621094 545.6513061523438 180.0584411621094 545.6513061523438 L 180.0584411621094 544.6513061523438 Z M 166.0584411621094 544.6513061523438 L 173.0584411621094 544.6513061523438 L 173.0584411621094 545.6513061523438 C 173.0584411621094 545.6513061523438 166.0584411621094 545.6513061523438 166.0584411621094 545.6513061523438 L 166.0584411621094 544.6513061523438 Z M 152.0584411621094 544.6513061523438 L 159.0584411621094 544.6513061523438 L 159.0584411621094 545.6513061523438 C 159.0584411621094 545.6513061523438 152.0584411621094 545.6513061523438 152.0584411621094 545.6513061523438 L 152.0584411621094 544.6513061523438 Z M 138.0584411621094 544.6513061523438 L 145.0584411621094 544.6513061523438 L 145.0584411621094 545.6513061523438 C 145.0584411621094 545.6513061523438 138.0584411621094 545.6513061523438 138.0584411621094 545.6513061523438 L 138.0584411621094 544.6513061523438 Z M 124.0584411621094 544.6513061523438 L 131.0584411621094 544.6513061523438 L 131.0584411621094 545.6513061523438 C 131.0584411621094 545.6513061523438 124.0584411621094 545.6513061523438 124.0584411621094 545.6513061523438 L 124.0584411621094 544.6513061523438 Z M 112.5295104980469 542.958740234375 L 113.2278137207031 544.6513061523438 L 117.0584411621094 544.6513061523438 L 117.0584411621094 545.6513061523438 C 117.0584411621094 545.6513061523438 112.55859375 545.6513061523438 112.55859375 545.6513061523438 L 112.55859375 545.6513061523438 L 112.55859375 545.6513061523438 L 112.55859375 545.6513061523438 L 112.55859375 545.6513061523438 L 112.55859375 545.6513061523438 L 112.55859375 545.6513061523438 L 112.55859375 545.6513061523438 L 112.55859375 545.6513061523438 L 112.55859375 545.6513061523438 L 112.55859375 545.6513061523438 C 112.55859375 545.6513061523438 112.5437316894531 545.615234375 112.5177001953125 545.5521850585938 L 112.5175170898438 545.5516967773438 C 112.49169921875 545.4891357421875 112.4548950195313 545.3999633789063 112.4108276367188 545.2931518554688 L 112.4089050292969 545.2884521484375 C 112.36474609375 545.1814575195313 112.3133239746094 545.0568237304688 112.25830078125 544.9234008789063 L 112.2540283203125 544.9130859375 C 112.227294921875 544.8482666015625 112.1997375488281 544.781494140625 112.1717224121094 544.7135620117188 L 112.16943359375 544.7080688476563 C 112.1626281738281 544.6915283203125 112.15576171875 544.6749267578125 112.1488952636719 544.6582641601563 L 112.1485290527344 544.6573486328125 C 112.1416320800781 544.640625 112.1347045898438 544.6238403320313 112.1277770996094 544.6070556640625 L 112.1243591308594 544.5987548828125 C 112.1234436035156 544.5965576171875 112.1224975585938 544.5942993164063 112.1216125488281 544.5921020507813 L 112.1206359863281 544.5897216796875 C 112.1192016601563 544.5863037109375 112.1178283691406 544.5829467773438 112.1164245605469 544.5795288085938 L 112.1140747070313 544.5738525390625 C 112.111572265625 544.5677490234375 112.1090698242188 544.5617065429688 112.1065673828125 544.5556640625 L 112.0744934082031 544.4779052734375 C 112.0739135742188 544.4765014648438 112.0733337402344 544.47509765625 112.07275390625 544.4736938476563 L 112.0633239746094 544.4508056640625 C 112.0628356933594 544.4495849609375 112.0623779296875 544.4485473632813 112.0618896484375 544.4473266601563 L 112.0572814941406 544.4361572265625 C 112.0546264648438 544.4297485351563 112.0519714355469 544.4232788085938 112.04931640625 544.4168701171875 L 112.0472412109375 544.4118041992188 C 112.0447082519531 544.4057006835938 112.0421752929688 544.3995971679688 112.0396423339844 544.3934936523438 L 112.0348815917969 544.3818969726563 C 112.0215148925781 544.3494873046875 112.0081787109375 544.317138671875 111.9949645996094 544.2850952148438 L 111.9901123046875 544.2733764648438 C 111.9768371582031 544.2411499023438 111.963623046875 544.2091674804688 111.9505920410156 544.1776123046875 L 111.9482421875 544.171875 C 111.9417419433594 544.1561279296875 111.9353332519531 544.140625 111.9289245605469 544.1250610351563 L 111.9259643554688 544.117919921875 C 111.9238586425781 544.1127319335938 111.9217529296875 544.1077270507813 111.9196472167969 544.1025390625 L 111.9151916503906 544.091796875 C 111.914794921875 544.0908203125 111.9143676757813 544.0897827148438 111.9139404296875 544.0888061523438 L 111.9099731445313 544.0791015625 C 111.9096984863281 544.0784301757813 111.9094848632813 544.0779418945313 111.9092102050781 544.0772705078125 L 111.8999633789063 544.0548706054688 C 111.8993530273438 544.0534057617188 111.8987426757813 544.0519409179688 111.8981323242188 544.0504150390625 L 111.8944091796875 544.0414428710938 C 111.8921203613281 544.035888671875 111.8898620605469 544.0303955078125 111.8875732421875 544.0248413085938 L 111.884033203125 544.0162353515625 C 111.8815612792969 544.0103149414063 111.8790588378906 544.0042114257813 111.8766174316406 543.998291015625 L 111.8753356933594 543.9951782226563 C 111.8724670410156 543.9882202148438 111.86962890625 543.9813232421875 111.8667602539063 543.9744262695313 L 111.8641052246094 543.9679565429688 C 111.8583374023438 543.9539794921875 111.8526000976563 543.9400634765625 111.846923828125 543.9263305664063 L 111.8447265625 543.9209594726563 C 111.8419189453125 543.9141845703125 111.839111328125 543.9073486328125 111.8363342285156 543.900634765625 L 111.8353271484375 543.898193359375 C 111.8341064453125 543.8952026367188 111.8328857421875 543.8922729492188 111.8316650390625 543.8893432617188 L 111.8229370117188 543.8681640625 C 111.8208618164063 543.8631591796875 111.8188171386719 543.858154296875 111.8167724609375 543.8532104492188 L 111.816650390625 543.8529052734375 C 111.8151550292969 543.8493041992188 111.8136291503906 543.8456420898438 111.8121337890625 543.8419799804688 L 111.811767578125 543.8411254882813 C 111.810791015625 543.8387451171875 111.8098449707031 543.83642578125 111.8088684082031 543.8340454101563 L 111.8056335449219 543.8262329101563 C 111.8048706054688 543.8244018554688 111.8041076660156 543.822509765625 111.8033447265625 543.8206787109375 L 111.8020324707031 543.8175048828125 C 111.8012390136719 543.8155517578125 111.8003845214844 543.8134765625 111.799560546875 543.8115234375 L 111.7963256835938 543.8036499023438 C 111.7958984375 543.8026123046875 111.7955017089844 543.8016967773438 111.7950744628906 543.8006591796875 L 111.7765808105469 543.7557983398438 C 111.7753295898438 543.7528076171875 111.7741088867188 543.7498168945313 111.7728576660156 543.746826171875 L 111.7607727050781 543.7174682617188 C 111.7605285644531 543.7169189453125 111.76025390625 543.7162475585938 111.760009765625 543.7156372070313 L 111.7323913574219 543.648681640625 C 111.73193359375 543.6475830078125 111.7314758300781 543.6464233398438 111.7310180664063 543.6453247070313 L 111.7285461425781 543.639404296875 C 111.7279968261719 543.6380615234375 111.7274475097656 543.63671875 111.7268981933594 543.6353759765625 L 111.7168579101563 543.6110229492188 C 111.7164611816406 543.610107421875 111.7160949707031 543.6092529296875 111.7157287597656 543.6083374023438 L 111.7135009765625 543.6029052734375 C 111.7127075195313 543.6009521484375 111.7119140625 543.5990600585938 111.7111206054688 543.59716796875 L 111.7105407714844 543.5957641601563 C 111.7098083496094 543.5939331054688 111.7090759277344 543.5922241210938 111.7083435058594 543.5903930664063 L 111.6891479492188 543.5438842773438 C 111.6885375976563 543.5424194335938 111.6879272460938 543.5409545898438 111.6873474121094 543.5394897460938 L 111.6851196289063 543.5341186523438 C 111.6846923828125 543.5331420898438 111.6842346191406 543.531982421875 111.683837890625 543.531005859375 L 111.6826477050781 543.5281372070313 C 111.68212890625 543.52685546875 111.681640625 543.5256958007813 111.6811218261719 543.5244750976563 L 111.678466796875 543.5179443359375 C 111.6782836914063 543.517578125 111.6781005859375 543.51708984375 111.6779479980469 543.5167236328125 L 111.676025390625 543.5120849609375 C 111.6755981445313 543.5110473632813 111.6751708984375 543.510009765625 111.6747436523438 543.5089721679688 L 111.6721801757813 543.5028076171875 C 111.6720581054688 543.50244140625 111.671875 543.5020751953125 111.6717529296875 543.501708984375 L 111.6665344238281 543.489013671875 C 111.6659851074219 543.4877319335938 111.6654663085938 543.4864501953125 111.6649169921875 543.4851684570313 L 111.664306640625 543.4837036132813 C 111.6639099121094 543.4827270507813 111.6635131835938 543.4817504882813 111.6631164550781 543.4808349609375 L 111.6340026855469 543.4102783203125 C 111.6338195800781 543.4097900390625 111.6336059570313 543.4093017578125 111.6334228515625 543.4088134765625 L 111.6316528320313 543.4044799804688 C 111.631591796875 543.4044189453125 111.631591796875 543.4043579101563 111.6315307617188 543.4042358398438 L 111.6229248046875 543.3833618164063 C 111.6226806640625 543.3828125 111.6224670410156 543.3822631835938 111.6222534179688 543.3817138671875 L 111.6178894042969 543.3711547851563 C 111.6178588867188 543.37109375 111.6178588867188 543.3710327148438 111.6178283691406 543.3710327148438 L 111.6128540039063 543.3589477539063 C 111.6127319335938 543.358642578125 111.6125793457031 543.3583374023438 111.6124572753906 543.3580322265625 L 111.6118469238281 543.3565063476563 C 111.6117858886719 543.3563842773438 111.6117248535156 543.356201171875 111.6116638183594 543.3560791015625 L 111.6051025390625 543.3401489257813 L 112.5295104980469 542.958740234375 Z M 107.1901550292969 530.0169677734375 L 109.8598022460938 536.48779296875 L 108.9353942871094 536.8692016601563 L 107.042724609375 532.2816772460938 C 107.0413208007813 532.2781982421875 107.0400085449219 532.2750244140625 107.03857421875 532.2716064453125 L 107.0375671386719 532.2691040039063 C 107.0329895019531 532.258056640625 107.0284118652344 532.2469482421875 107.0238952636719 532.2359619140625 L 107.0233764648438 532.2347412109375 C 106.5955810546875 531.19775390625 106.2657470703125 530.3983154296875 106.2657470703125 530.3983154296875 L 107.1901550292969 530.0169677734375 Z M 101.8507995605469 517.0750732421875 L 104.5204467773438 523.5460205078125 L 103.5960388183594 523.9273681640625 L 102.5015258789063 521.2744140625 C 101.7644958496094 519.4879150390625 100.9263916015625 517.4564208984375 100.9263916015625 517.4564208984375 L 101.8507995605469 517.0750732421875 Z M 96.51138305664063 504.1332397460938 L 99.18109130859375 510.6041564941406 L 98.25665283203125 510.9855041503906 L 97.98492431640625 510.3268432617188 C 97.98379516601563 510.3240966796875 97.98257446289063 510.3211364746094 97.9814453125 510.318359375 L 97.98074340820313 510.3167114257813 C 97.97784423828125 510.3096618652344 97.97491455078125 510.3025512695313 97.97195434570313 510.29541015625 L 97.97003173828125 510.290771484375 C 97.28073120117188 508.6199645996094 95.5870361328125 504.5145874023438 95.5870361328125 504.5145874023438 L 96.51138305664063 504.1332397460938 Z M 91.17202758789063 491.1913757324219 L 93.84173583984375 497.6622924804688 L 92.91729736328125 498.0437316894531 L 91.53997802734375 494.7052307128906 C 91.53958129882813 494.7042541503906 91.53915405273438 494.7032165527344 91.53875732421875 494.7022399902344 L 91.51742553710938 494.6505432128906 C 90.87237548828125 493.0869750976563 90.2476806640625 491.5727844238281 90.2476806640625 491.5727844238281 L 91.17202758789063 491.1913757324219 Z M 85.83267211914063 478.2495727539063 L 88.50238037109375 484.7204284667969 L 87.57794189453125 485.1018676757813 L 87.03500366210938 483.7858276367188 C 87.03372192382813 483.7827453613281 87.0325927734375 483.7799987792969 87.03131103515625 483.7768859863281 L 87.03125 483.7767333984375 C 87.029296875 483.7720031738281 87.02740478515625 483.7673645019531 87.02542114257813 483.7626342773438 L 87.02389526367188 483.7589111328125 C 87.022216796875 483.7548217773438 87.02053833007813 483.750732421875 87.01882934570313 483.7466430664063 L 87.01763916015625 483.7437438964844 C 87.0162353515625 483.7402954101563 87.01492309570313 483.7371826171875 87.01351928710938 483.7337036132813 L 87.01055908203125 483.7265930175781 C 86.993896484375 483.6861572265625 86.97695922851563 483.6450805664063 86.95980834960938 483.6035461425781 L 86.9581298828125 483.5994873046875 C 86.16946411132813 481.6878051757813 84.90829467773438 478.6309204101563 84.90829467773438 478.6309204101563 L 85.83267211914063 478.2495727539063 Z M 80.49331665039063 465.3077392578125 L 83.16302490234375 471.7786560058594 L 82.23858642578125 472.1600036621094 C 82.23858642578125 472.1600036621094 82.14541625976563 471.9341430664063 81.9937744140625 471.5665893554688 L 81.99057006835938 471.5588073730469 C 81.98812866210938 471.5528869628906 81.98565673828125 471.5469055175781 81.98318481445313 471.5409240722656 L 81.98226928710938 471.5386962890625 C 81.97952270507813 471.5321044921875 81.976806640625 471.5254821777344 81.97406005859375 471.518798828125 L 81.97201538085938 471.513916015625 C 81.96649169921875 471.50048828125 81.96090698242188 471.4869689941406 81.95523071289063 471.4732055664063 L 81.95068359375 471.4621887207031 C 81.95025634765625 471.4611511230469 81.94976806640625 471.4599609375 81.9493408203125 471.4589233398438 L 81.94647216796875 471.4519653320313 C 81.94577026367188 471.4502563476563 81.94509887695313 471.4486389160156 81.94442749023438 471.4469604492188 L 81.9407958984375 471.4382019042969 C 81.9403076171875 471.43701171875 81.93978881835938 471.4357299804688 81.93930053710938 471.4345703125 L 79.56890869140625 465.6890869140625 L 80.49331665039063 465.3077392578125 Z M 75.15396118164063 452.3658752441406 L 77.82366943359375 458.8367919921875 L 76.89923095703125 459.2181396484375 C 76.89923095703125 459.2181396484375 76.1912841796875 457.502197265625 75.5045166015625 455.8375854492188 L 75.4996337890625 455.8257446289063 C 75.4954833984375 455.8157043457031 75.49127197265625 455.8054504394531 75.48712158203125 455.79541015625 L 75.48406982421875 455.7880554199219 C 75.4830322265625 455.7854919433594 75.48199462890625 455.782958984375 75.48092651367188 455.7803955078125 L 74.22952270507813 452.7472229003906 L 75.15396118164063 452.3658752441406 Z M 69.81460571289063 439.4240112304688 L 72.48431396484375 445.8949279785156 L 71.55987548828125 446.2763671875 L 68.89019775390625 439.805419921875 L 69.81460571289063 439.4240112304688 Z M 64.47525024414063 426.4822387695313 L 67.14495849609375 432.9530639648438 L 66.22052001953125 433.3345031738281 C 66.22052001953125 433.3345031738281 65.7803955078125 432.2677001953125 65.257568359375 431.00048828125 L 65.25543212890625 430.9952697753906 C 65.25079345703125 430.9840393066406 65.24624633789063 430.9730224609375 65.24160766601563 430.9617309570313 L 65.2415771484375 430.9617004394531 C 65.23809814453125 430.9533081054688 65.23458862304688 430.9447631835938 65.23110961914063 430.9363403320313 L 65.22280883789063 430.9161987304688 C 65.22256469726563 430.9156188964844 65.22244262695313 430.9153137207031 65.22219848632813 430.9147338867188 L 65.21713256835938 430.9024658203125 C 65.21603393554688 430.8997802734375 65.21505737304688 430.8974304199219 65.21395874023438 430.8947143554688 L 65.20782470703125 430.8799133300781 C 65.207275390625 430.8785705566406 65.20687866210938 430.8776245117188 65.20632934570313 430.8762817382813 L 63.55081176757813 426.8635864257813 L 64.47525024414063 426.4822387695313 Z M 59.13589477539063 413.5403747558594 L 61.80560302734375 420.0112915039063 L 60.88116455078125 420.3926391601563 C 60.88116455078125 420.3926391601563 59.56332397460938 417.1983947753906 58.7794189453125 415.2983703613281 L 58.77633666992188 415.2908935546875 C 58.7689208984375 415.27294921875 58.7615966796875 415.2551574707031 58.7542724609375 415.2374267578125 L 58.73623657226563 415.1937255859375 C 58.73583984375 415.1927490234375 58.73556518554688 415.1920776367188 58.73516845703125 415.1911010742188 L 58.21145629882813 413.9217224121094 L 59.13589477539063 413.5403747558594 Z M 53.7965087890625 400.5985107421875 L 56.46615600585938 407.0694580078125 L 55.54180908203125 407.4508056640625 C 55.54180908203125 407.4508056640625 52.87210083007813 400.9798583984375 52.87210083007813 400.9798583984375 L 53.7965087890625 400.5985107421875 Z M 48.4571533203125 387.6566467285156 L 51.12680053710938 394.1275634765625 L 50.20245361328125 394.5090026855469 C 50.20245361328125 394.5090026855469 49.26351928710938 392.2332153320313 48.499267578125 390.3807983398438 L 48.49154663085938 390.362060546875 C 48.48895263671875 390.3557739257813 48.48635864257813 390.3494873046875 48.4837646484375 390.3432312011719 L 48.47897338867188 390.3315734863281 C 48.4766845703125 390.3260498046875 48.47442626953125 390.320556640625 48.47216796875 390.3150634765625 L 47.53274536132813 388.0380859375 L 48.4571533203125 387.6566467285156 Z M 43.1177978515625 374.7148742675781 L 45.78744506835938 381.1857299804688 L 44.86306762695313 381.567138671875 L 42.37481689453125 375.5359802246094 C 42.37481689453125 375.5359802246094 42.374755859375 375.5358276367188 42.374755859375 375.5358276367188 L 42.35867309570313 375.4968872070313 C 42.35824584960938 375.495849609375 42.35775756835938 375.4946594238281 42.35733032226563 375.49365234375 L 42.35482788085938 375.487548828125 C 42.3546142578125 375.4870300292969 42.35446166992188 375.4866943359375 42.35427856445313 375.4862060546875 L 42.35076904296875 375.4777221679688 C 42.35049438476563 375.47705078125 42.3502197265625 375.4763488769531 42.34991455078125 375.4756469726563 L 42.3431396484375 375.4592590332031 C 42.34274291992188 375.4582824707031 42.34228515625 375.4571533203125 42.34188842773438 375.4561767578125 L 42.33551025390625 375.4407043457031 C 42.33099365234375 375.4297790527344 42.32659912109375 375.4191284179688 42.322265625 375.4086303710938 L 42.322021484375 375.4080505371094 C 42.31829833984375 375.3990478515625 42.31463623046875 375.3901062011719 42.31106567382813 375.3814697265625 L 42.30679321289063 375.3711547851563 C 42.23458862304688 375.1961364746094 42.19338989257813 375.0962219238281 42.19338989257813 375.0962219238281 L 43.1177978515625 374.7148742675781 Z M 37.7784423828125 361.7730102539063 L 40.44808959960938 368.2439575195313 L 39.523681640625 368.6253051757813 L 37.793212890625 364.4308471679688 C 37.79257202148438 364.4293212890625 37.7918701171875 364.4276123046875 37.791259765625 364.4260864257813 L 37.78411865234375 364.4088134765625 C 37.77536010742188 364.3876342773438 37.76675415039063 364.3667602539063 37.75808715820313 364.345703125 L 37.75753784179688 364.3444213867188 C 37.26119995117188 363.1412963867188 36.85403442382813 362.1543579101563 36.85403442382813 362.1543579101563 L 37.7784423828125 361.7730102539063 Z M 32.4390869140625 348.8311462402344 L 35.10873413085938 355.3020629882813 L 34.18429565429688 355.6834411621094 L 33.2626953125 353.4495239257813 C 33.26144409179688 353.4464721679688 33.26034545898438 353.4438781738281 33.25912475585938 353.4408569335938 L 33.25704956054688 353.4358520507813 C 33.25579833984375 353.432861328125 33.25460815429688 353.429931640625 33.25335693359375 353.4268798828125 L 33.24826049804688 353.41455078125 C 33.2442626953125 353.4049072265625 33.24026489257813 353.3951721191406 33.23626708984375 353.385498046875 L 33.23489379882813 353.3821411132813 C 33.23040771484375 353.3713073730469 33.22601318359375 353.3606262207031 33.22152709960938 353.3497619628906 L 33.21902465820313 353.3436889648438 C 32.45458984375 351.4907836914063 31.51467895507813 349.2125244140625 31.51467895507813 349.2125244140625 L 32.4390869140625 348.8311462402344 Z M 27.0997314453125 335.8892822265625 L 29.76937866210938 342.3602294921875 L 28.84494018554688 342.7415771484375 L 28.50439453125 341.9160766601563 C 28.50421142578125 341.9156799316406 28.50390625 341.9149475097656 28.50375366210938 341.91455078125 L 28.48880004882813 341.8782958984375 C 28.48822021484375 341.8768920898438 28.48748779296875 341.8751220703125 28.48690795898438 341.8737182617188 L 28.40142822265625 341.66650390625 C 28.40048217773438 341.6642456054688 28.39962768554688 341.6621704101563 28.398681640625 341.659912109375 L 28.3978271484375 341.6578369140625 C 28.39633178710938 341.6541748046875 28.39486694335938 341.6506652832031 28.39337158203125 341.6470031738281 L 28.39126586914063 341.6419067382813 C 28.38931274414063 341.6371459960938 28.38735961914063 341.6324157714844 28.3853759765625 341.627685546875 L 28.3759765625 341.6048278808594 C 28.37374877929688 341.5994262695313 28.37142944335938 341.5938415527344 28.36920166015625 341.5884094238281 L 28.36660766601563 341.5820922851563 C 28.36318969726563 341.5738525390625 28.359619140625 341.565185546875 28.356201171875 341.556884765625 L 28.35394287109375 341.5514526367188 C 28.3468017578125 341.5341491699219 28.339599609375 341.5167236328125 28.33236694335938 341.4991455078125 L 28.32901000976563 341.4910278320313 C 28.29580688476563 341.4104919433594 28.261474609375 341.3273010253906 28.2261962890625 341.2417907714844 L 28.2254638671875 341.239990234375 C 27.43679809570313 339.328369140625 26.17532348632813 336.2707214355469 26.17532348632813 336.2707214355469 L 27.0997314453125 335.8892822265625 Z M 21.76031494140625 322.947509765625 L 24.43002319335938 329.4183654785156 L 23.50558471679688 329.7998046875 L 22.28704833984375 326.84619140625 C 22.28005981445313 326.8292541503906 22.27294921875 326.81201171875 22.26596069335938 326.7950744628906 L 22.26361083984375 326.7893676757813 C 21.56674194335938 325.1002197265625 20.8359375 323.328857421875 20.8359375 323.328857421875 L 21.76031494140625 322.947509765625 Z M 16.42095947265625 310.0056457519531 L 19.09066772460938 316.4765625 L 18.16622924804688 316.8579406738281 L 17.73556518554688 315.8140563964844 C 17.73248291015625 315.8065795898438 17.7293701171875 315.7990417480469 17.72625732421875 315.79150390625 L 17.7249755859375 315.788330078125 C 16.96661376953125 313.9501342773438 15.49658203125 310.3870239257813 15.49658203125 310.3870239257813 L 16.42095947265625 310.0056457519531 Z M 11.08160400390625 297.0637817382813 L 13.75131225585938 303.5347290039063 L 12.82687377929688 303.9160766601563 C 12.82687377929688 303.9160766601563 12.6390380859375 303.4607543945313 12.36300659179688 302.7916870117188 L 12.36083984375 302.7864990234375 C 12.35333251953125 302.768310546875 12.34588623046875 302.750244140625 12.3382568359375 302.7317504882813 L 12.33502197265625 302.723876953125 C 12.33197021484375 302.7164916992188 12.32894897460938 302.709228515625 12.32589721679688 302.7017822265625 L 12.323486328125 302.6959533691406 C 12.32199096679688 302.6923217773438 12.32046508789063 302.6885986328125 12.31893920898438 302.6849365234375 L 12.30899047851563 302.6608276367188 C 12.30899047851563 302.6608276367188 12.30889892578125 302.6605834960938 12.30889892578125 302.6605834960938 L 12.30438232421875 302.6495971679688 C 12.30319213867188 302.646728515625 12.30194091796875 302.6437377929688 12.30075073242188 302.6408081054688 L 12.2977294921875 302.6334838867188 C 12.29666137695313 302.6309204101563 12.29559326171875 302.6283569335938 12.29452514648438 302.6257934570313 L 10.15719604492188 297.4451293945313 L 11.08160400390625 297.0637817382813 Z M 5.74224853515625 284.1219482421875 L 8.411956787109375 290.5928649902344 L 7.487518310546875 290.9742431640625 C 7.487518310546875 290.9742431640625 7.130126953125 290.1079711914063 6.67694091796875 289.009521484375 L 4.817840576171875 284.5033569335938 L 5.74224853515625 284.1219482421875 Z M 0.5216064453125 271.5615234375 L 1.445953369140625 271.94287109375 L 1.081787109375 272.8256225585938 L 3.072601318359375 277.6510009765625 L 2.148162841796875 278.0324401855469 C 2.148162841796875 278.0324401855469 3.0517578125e-05 272.8256530761719 3.0517578125e-05 272.8256530761719 L 3.0517578125e-05 272.8256530761719 L 3.0517578125e-05 272.8256530761719 L 3.0517578125e-05 272.8256530761719 L 3.0517578125e-05 272.8256530761719 L 3.0517578125e-05 272.8256530761719 L 3.0517578125e-05 272.8256530761719 L 3.0517578125e-05 272.8256530761719 L 3.0517578125e-05 272.8256530761719 L 3.0517578125e-05 272.8256530761719 L 3.0517578125e-05 272.8256530761719 L 3.0517578125e-05 272.8256530761719 L 3.0517578125e-05 272.8256530761719 L 3.0517578125e-05 272.8256530761719 L 3.0517578125e-05 272.8256530761719 C 3.0517578125e-05 272.8256530761719 0.5216064453125 271.5615234375 0.5216064453125 271.5615234375 Z M 5.8609619140625 258.6196594238281 L 6.785369873046875 259.0010681152344 L 4.11566162109375 265.471923828125 L 3.19122314453125 265.090576171875 L 4.823333740234375 261.1346435546875 C 4.824554443359375 261.1317443847656 4.825775146484375 261.1287841796875 4.82696533203125 261.1258850097656 L 4.83099365234375 261.1160888671875 C 4.83172607421875 261.1143493652344 4.832427978515625 261.1126098632813 4.833160400390625 261.1108703613281 L 4.8402099609375 261.09375 C 4.843292236328125 261.0862426757813 4.846435546875 261.0787048339844 4.849517822265625 261.0711975097656 L 4.8533935546875 261.0617980957031 C 4.85711669921875 261.0527648925781 4.860870361328125 261.043701171875 4.86456298828125 261.0346984863281 L 4.869598388671875 261.0225219726563 C 4.8785400390625 261.0008850097656 4.8875732421875 260.9789428710938 4.896453857421875 260.9573974609375 L 4.8975830078125 260.9546813964844 C 5.42059326171875 259.6869812011719 5.8609619140625 258.6196594238281 5.8609619140625 258.6196594238281 Z M 11.2003173828125 245.6777954101563 L 12.12472534179688 246.0592346191406 L 9.45501708984375 252.5301513671875 L 8.5306396484375 252.1487426757813 L 11.2003173828125 245.6777954101563 Z M 16.5396728515625 232.7360229492188 L 17.46408081054688 233.1173706054688 L 14.79437255859375 239.5882873535156 L 13.87002563476563 239.2069396972656 C 13.87002563476563 239.2069396972656 16.5396728515625 232.7360229492188 16.5396728515625 232.7360229492188 Z M 21.8790283203125 219.7941589355469 L 22.803466796875 220.1755065917969 L 20.13381958007813 226.6464538574219 L 19.20938110351563 226.2650756835938 C 19.20938110351563 226.2650756835938 20.05209350585938 224.222412109375 20.79058837890625 222.4324340820313 L 20.79766845703125 222.415283203125 C 20.80023193359375 222.4090576171875 20.80291748046875 222.4024963378906 20.80548095703125 222.3963012695313 L 21.8790283203125 219.7941589355469 Z M 27.21841430664063 206.852294921875 L 28.142822265625 207.2337341308594 L 25.47317504882813 213.70458984375 L 24.54873657226563 213.3232116699219 C 24.54873657226563 213.3232116699219 24.71539306640625 212.9192810058594 24.96536254882813 212.3133544921875 L 24.9666748046875 212.3101806640625 C 24.98171997070313 212.2737121582031 24.99700927734375 212.2366638183594 25.01263427734375 212.1987915039063 L 25.01568603515625 212.1914367675781 C 25.01699829101563 212.1881713867188 25.01834106445313 212.1849365234375 25.01968383789063 212.1816711425781 L 25.01998901367188 212.1809997558594 C 25.02157592773438 212.1771240234375 25.023193359375 212.1731872558594 25.02481079101563 212.1693115234375 L 25.02725219726563 212.1633605957031 C 25.02841186523438 212.1605529785156 25.02951049804688 212.1579284667969 25.03067016601563 212.1551208496094 L 27.21841430664063 206.852294921875 Z M 32.55780029296875 193.9105224609375 L 33.482177734375 194.2918701171875 L 30.81253051757813 200.7627868652344 L 29.88809204101563 200.3813781738281 L 30.44369506835938 199.0346984863281 C 30.4444580078125 199.0328979492188 30.44522094726563 199.0310363769531 30.44595336914063 199.0292358398438 L 30.44915771484375 199.021484375 C 30.45004272460938 199.0193481445313 30.45098876953125 199.0170593261719 30.45184326171875 199.0149230957031 L 30.45709228515625 199.002197265625 C 31.24111938476563 197.1018981933594 32.55780029296875 193.9105224609375 32.55780029296875 193.9105224609375 Z M 37.89715576171875 180.9686584472656 L 38.82159423828125 181.3500061035156 L 36.15188598632813 187.8209533691406 L 35.22744750976563 187.4395751953125 L 35.32400512695313 187.20556640625 C 35.32406616210938 187.2054138183594 35.32415771484375 187.2052001953125 35.32421875 187.2050476074219 L 35.3594970703125 187.1195373535156 C 35.360595703125 187.1168518066406 35.36175537109375 187.1140441894531 35.36288452148438 187.1113586425781 L 35.36544799804688 187.1051330566406 C 35.36679077148438 187.1018676757813 35.36822509765625 187.0984191894531 35.36959838867188 187.0950927734375 L 35.37326049804688 187.086181640625 C 35.37496948242188 187.0820617675781 35.376708984375 187.0777893066406 35.37844848632813 187.0736083984375 L 35.37890625 187.0724792480469 C 35.3800048828125 187.06982421875 35.381103515625 187.0671691894531 35.3822021484375 187.0645141601563 L 35.38278198242188 187.0631103515625 C 35.38375854492188 187.0607604980469 35.384765625 187.0583190917969 35.3857421875 187.055908203125 L 35.38729858398438 187.0521240234375 C 35.39202880859375 187.0407104492188 35.3968505859375 187.0289611816406 35.4017333984375 187.0171203613281 L 35.40338134765625 187.01318359375 C 35.99819946289063 185.5714416503906 37.89715576171875 180.9686584472656 37.89715576171875 180.9686584472656 Z M 43.23651123046875 168.0267944335938 L 44.16094970703125 168.4081420898438 L 41.49124145507813 174.8790893554688 L 40.56680297851563 174.4977111816406 L 42.63400268554688 169.4871826171875 C 42.63400268554688 169.4871826171875 42.63412475585938 169.4869079589844 42.63412475585938 169.4869079589844 L 42.65228271484375 169.44287109375 C 42.6533203125 169.4403686523438 42.65438842773438 169.4378051757813 42.65542602539063 169.435302734375 L 42.65966796875 169.4249877929688 C 42.66226196289063 169.4186706542969 42.66497802734375 169.4121704101563 42.66754150390625 169.4058837890625 L 42.67791748046875 169.3807983398438 C 42.67926025390625 169.3775024414063 42.68063354492188 169.3741760253906 42.68197631835938 169.3709106445313 L 42.68435668945313 169.3651733398438 C 42.68798828125 169.3563537597656 42.69161987304688 169.3475341796875 42.69525146484375 169.3387756347656 L 42.69732666015625 169.3337097167969 C 42.70529174804688 169.3143920898438 42.71316528320313 169.2953186035156 42.72100830078125 169.2763061523438 L 42.72344970703125 169.2703857421875 C 43.02618408203125 168.5366516113281 43.23651123046875 168.0267944335938 43.23651123046875 168.0267944335938 Z M 48.57586669921875 155.0849304199219 L 49.50030517578125 155.4663696289063 L 46.83059692382813 161.9372863769531 L 45.90618896484375 161.5558776855469 L 48.57589721679688 155.0849304199219 Z M 53.91525268554688 142.1431579589844 L 54.83966064453125 142.5245056152344 L 52.16995239257813 148.9954528808594 L 51.24560546875 148.6140747070313 C 51.24560546875 148.6140747070313 53.00796508789063 144.3422546386719 53.66885375976563 142.7403259277344 L 53.66888427734375 142.7402954101563 C 53.68133544921875 142.7101135253906 53.693359375 142.6809997558594 53.70501708984375 142.6527404785156 L 53.71139526367188 142.6372985839844 C 53.71197509765625 142.6358337402344 53.71258544921875 142.6343383789063 53.71319580078125 142.6329040527344 L 53.71536254882813 142.6276550292969 C 53.71612548828125 142.6257934570313 53.71697998046875 142.6237487792969 53.71774291992188 142.6218872070313 L 53.7332763671875 142.5841979980469 C 53.733642578125 142.5833435058594 53.7340087890625 142.5824279785156 53.734375 142.5815734863281 L 53.91525268554688 142.1431579589844 Z M 59.25460815429688 129.2012939453125 L 60.17901611328125 129.5826416015625 L 57.50936889648438 136.0535888671875 L 56.5849609375 135.6722106933594 C 56.5849609375 135.6722106933594 57.23114013671875 134.10595703125 57.8876953125 132.5144958496094 L 57.88967895507813 132.5097045898438 C 57.8941650390625 132.4988403320313 57.89865112304688 132.4879455566406 57.90313720703125 132.4770812988281 L 57.90582275390625 132.4706115722656 C 57.90768432617188 132.466064453125 57.90969848632813 132.4612121582031 57.91156005859375 132.4566650390625 L 57.91290283203125 132.4534301757813 C 57.9139404296875 132.4508666992188 57.9150390625 132.4482116699219 57.91610717773438 132.4456481933594 L 59.25460815429688 129.2012939453125 Z M 64.59402465820313 116.2594299316406 L 65.51837158203125 116.640869140625 L 62.84872436523438 123.1117248535156 L 61.92431640625 122.7303771972656 C 61.92431640625 122.7303771972656 64.59402465820313 116.2594299316406 64.59402465820313 116.2594299316406 Z M 69.93338012695313 103.3176574707031 L 70.85772705078125 103.6990051269531 L 68.1881103515625 110.1699523925781 L 67.263671875 109.7885131835938 L 68.0306396484375 107.9295349121094 C 68.031982421875 107.92626953125 68.03338623046875 107.9228820800781 68.03472900390625 107.9196166992188 L 68.036865234375 107.9144592285156 C 68.04043579101563 107.90576171875 68.04391479492188 107.8973388671875 68.04751586914063 107.8886108398438 L 68.05276489257813 107.8759155273438 C 68.840087890625 105.9676208496094 69.93338012695313 103.3176574707031 69.93338012695313 103.3176574707031 Z M 75.27273559570313 90.37579345703125 L 76.19717407226563 90.75714111328125 L 73.5274658203125 97.22808837890625 L 72.60302734375 96.84671020507813 L 73.17840576171875 95.45208740234375 C 73.179443359375 95.4495849609375 73.18045043945313 95.44717407226563 73.18145751953125 95.44467163085938 L 73.18255615234375 95.44207763671875 C 73.18624877929688 95.43310546875 73.18994140625 95.42416381835938 73.19366455078125 95.41513061523438 L 73.19775390625 95.40518188476563 C 73.20086669921875 95.39764404296875 73.20404052734375 95.38998413085938 73.2071533203125 95.38241577148438 L 73.21011352539063 95.37527465820313 C 73.21163940429688 95.37158203125 73.21322631835938 95.36773681640625 73.21475219726563 95.364013671875 L 73.22842407226563 95.33087158203125 C 73.23529052734375 95.31417846679688 73.2421875 95.29754638671875 73.24911499023438 95.28070068359375 L 73.24935913085938 95.28012084960938 C 74.03945922851563 93.36505126953125 75.27273559570313 90.37579345703125 75.27273559570313 90.37579345703125 Z M 80.61209106445313 77.43392944335938 L 81.53652954101563 77.8153076171875 L 78.8668212890625 84.28622436523438 L 77.9423828125 83.90487670898438 L 80.48098754882813 77.75173950195313 C 80.48123168945313 77.7510986328125 80.48147583007813 77.75054931640625 80.48175048828125 77.74990844726563 L 80.50201416015625 77.70077514648438 C 80.50225830078125 77.70016479492188 80.5025634765625 77.69940185546875 80.5028076171875 77.69882202148438 L 80.50537109375 77.69259643554688 C 80.5062255859375 77.69052124023438 80.50704956054688 77.68850708007813 80.50790405273438 77.68646240234375 L 80.51217651367188 77.67611694335938 C 80.51235961914063 77.67568969726563 80.51251220703125 77.67529296875 80.5126953125 77.67489624023438 L 80.51458740234375 77.6702880859375 C 80.51531982421875 77.66854858398438 80.51602172851563 77.66677856445313 80.51675415039063 77.6650390625 L 80.51803588867188 77.66189575195313 C 80.51840209960938 77.66104125976563 80.51876831054688 77.66012573242188 80.51913452148438 77.65927124023438 L 80.52066040039063 77.655517578125 C 80.52117919921875 77.65426635742188 80.52169799804688 77.65301513671875 80.522216796875 77.65179443359375 L 80.52426147460938 77.6468505859375 C 80.52789306640625 77.6380615234375 80.53140258789063 77.62954711914063 80.53482055664063 77.62124633789063 L 80.53543090820313 77.6197509765625 C 80.53890991210938 77.611328125 80.54226684570313 77.60317993164063 80.5455322265625 77.59527587890625 L 80.546875 77.59201049804688 C 80.55368041992188 77.57553100585938 80.5599365234375 77.56033325195313 80.56573486328125 77.5462646484375 L 80.56576538085938 77.54623413085938 C 80.57174682617188 77.53170776367188 80.57720947265625 77.51852416992188 80.58206176757813 77.5067138671875 L 80.58218383789063 77.50643920898438 C 80.6016845703125 77.45913696289063 80.61209106445313 77.43392944335938 80.61209106445313 77.43392944335938 Z M 85.95144653320313 64.49209594726563 L 86.87588500976563 64.87350463867188 L 84.2061767578125 71.34445190429688 L 83.28179931640625 70.9630126953125 C 83.28179931640625 70.9630126953125 84.1251220703125 68.91891479492188 84.86383056640625 67.12835693359375 L 84.8685302734375 67.11700439453125 C 84.87203979492188 67.10845947265625 84.87551879882813 67.10006713867188 84.8790283203125 67.09152221679688 L 85.95147705078125 64.49209594726563 Z M 91.29080200195313 51.55029296875 L 92.21524047851563 51.931640625 L 89.54559326171875 58.402587890625 L 88.62115478515625 58.02114868164063 C 88.62115478515625 58.02114868164063 89.20736694335938 56.60031127929688 89.8304443359375 55.09005737304688 L 89.83148193359375 55.08749389648438 C 89.84173583984375 55.06268310546875 89.8519287109375 55.03793334960938 89.8621826171875 55.01312255859375 L 89.86224365234375 55.01296997070313 C 89.87197875976563 54.98934936523438 89.88162231445313 54.96597290039063 89.89138793945313 54.94229125976563 L 89.8970947265625 54.92843627929688 C 89.89743041992188 54.92764282226563 89.89764404296875 54.92715454101563 89.89797973632813 54.92636108398438 L 89.90283203125 54.91461181640625 C 89.90469360351563 54.91006469726563 89.906494140625 54.90567016601563 89.90838623046875 54.901123046875 L 89.909423828125 54.89859008789063 C 89.91171264648438 54.89306640625 89.91384887695313 54.88784790039063 89.9161376953125 54.88232421875 L 89.91806030273438 54.877685546875 C 89.91943359375 54.87432861328125 89.92083740234375 54.87094116210938 89.92221069335938 54.86758422851563 L 89.928466796875 54.8524169921875 C 89.92889404296875 54.8514404296875 89.92916870117188 54.8507080078125 89.92959594726563 54.8497314453125 L 89.93325805664063 54.8408203125 C 89.93487548828125 54.83688354492188 89.9364013671875 54.83322143554688 89.93801879882813 54.82925415039063 L 89.94424438476563 54.81417846679688 C 89.94424438476563 54.81417846679688 89.94424438476563 54.81414794921875 89.94424438476563 54.81414794921875 L 91.29080200195313 51.55029296875 Z M 96.63015747070313 38.60842895507813 L 97.55459594726563 38.98980712890625 L 94.88494873046875 45.46072387695313 L 93.96051025390625 45.07937622070313 C 93.96051025390625 45.07937622070313 94.45285034179688 43.88604736328125 95.01455688476563 42.52450561523438 L 95.01849365234375 42.51498413085938 C 95.01898193359375 42.51382446289063 95.01956176757813 42.51239013671875 95.02005004882813 42.51123046875 L 96.63018798828125 38.60845947265625 Z M 101.9696044921875 25.66656494140625 L 102.8939514160156 26.04803466796875 L 100.2243041992188 32.51885986328125 L 99.29989624023438 32.13751220703125 L 99.39617919921875 31.90411376953125 C 99.39663696289063 31.9029541015625 99.3970947265625 31.90191650390625 99.39755249023438 31.9007568359375 L 99.39935302734375 31.89642333984375 C 99.39944458007813 31.89617919921875 99.39959716796875 31.89581298828125 99.39971923828125 31.89556884765625 L 99.43130493164063 31.8189697265625 C 99.43283081054688 31.8153076171875 99.43426513671875 31.811767578125 99.43582153320313 31.80804443359375 L 99.43634033203125 31.8067626953125 C 99.43829345703125 31.802001953125 99.44027709960938 31.79718017578125 99.44229125976563 31.7923583984375 L 99.44500732421875 31.78570556640625 C 99.44943237304688 31.77496337890625 99.45391845703125 31.76416015625 99.45852661132813 31.75299072265625 L 99.45932006835938 31.75103759765625 C 99.46429443359375 31.73895263671875 99.4693603515625 31.7266845703125 99.47454833984375 31.714111328125 L 99.4754638671875 31.7119140625 C 100.0698547363281 30.271240234375 101.9696044921875 25.66656494140625 101.9696044921875 25.66656494140625 Z M 107.3089599609375 12.7247314453125 L 108.2333679199219 13.10614013671875 L 105.5636596679688 19.57708740234375 L 104.6392517089844 19.1956787109375 L 106.7058715820313 14.1865234375 C 106.7063598632813 14.185302734375 106.7068481445313 14.18414306640625 106.7073364257813 14.18292236328125 L 106.7239685058594 14.142578125 C 106.7254943847656 14.138916015625 106.7269897460938 14.13531494140625 106.7284851074219 14.13165283203125 L 106.7312316894531 14.12506103515625 C 106.7343139648438 14.1175537109375 106.7374267578125 14.1099853515625 106.740478515625 14.10260009765625 L 106.7460327148438 14.08917236328125 C 106.7462158203125 14.08868408203125 106.7463989257813 14.0882568359375 106.74658203125 14.0877685546875 L 106.7493591308594 14.08111572265625 C 106.7513122558594 14.0762939453125 106.7532653808594 14.07159423828125 106.7552490234375 14.06683349609375 L 106.7561950683594 14.0645751953125 C 106.7602233886719 14.05474853515625 106.7643737792969 14.04473876953125 106.7683715820313 14.03497314453125 L 106.7690124511719 14.03338623046875 C 106.7773132324219 14.0133056640625 106.7857360839844 13.992919921875 106.7938842773438 13.97314453125 L 106.7948608398438 13.97076416015625 C 107.0981140136719 13.2357177734375 107.3089599609375 12.7247314453125 107.3089599609375 12.7247314453125 Z M 112.5587463378906 0 L 119.5587463378906 0 L 119.5587463378906 1 L 113.2279357910156 1 L 110.9030151367188 6.63525390625 L 109.9786071777344 6.25384521484375 L 112.218017578125 0.825927734375 C 112.2183837890625 0.824951171875 112.21875 0.82403564453125 112.2191467285156 0.8231201171875 L 112.2481384277344 0.75286865234375 C 112.2490844726563 0.75054931640625 112.25 0.74835205078125 112.2509765625 0.74603271484375 L 112.2548828125 0.736572265625 C 112.2552490234375 0.73565673828125 112.2556457519531 0.73468017578125 112.2560119628906 0.7337646484375 L 112.2648010253906 0.71246337890625 C 112.2702941894531 0.69915771484375 112.2757263183594 0.68597412109375 112.2810974121094 0.6729736328125 L 112.2893371582031 0.65301513671875 C 112.293212890625 0.64361572265625 112.2970886230469 0.63421630859375 112.3009033203125 0.625 L 112.3071594238281 0.60980224609375 C 112.3079833984375 0.6077880859375 112.3086853027344 0.6060791015625 112.3095092773438 0.60406494140625 L 112.313232421875 0.5950927734375 C 112.3135681152344 0.59423828125 112.3139953613281 0.59326171875 112.3143310546875 0.5924072265625 L 112.3317260742188 0.55029296875 C 112.333740234375 0.54534912109375 112.3358154296875 0.54034423828125 112.3377990722656 0.5355224609375 L 112.3396606445313 0.531005859375 C 112.3421630859375 0.52496337890625 112.3446960449219 0.518798828125 112.34716796875 0.5128173828125 L 112.3478698730469 0.5111083984375 C 112.3504943847656 0.50482177734375 112.3530578613281 0.49853515625 112.3556213378906 0.49237060546875 L 112.356689453125 0.48974609375 C 112.3650512695313 0.469482421875 112.3732604980469 0.44952392578125 112.3811950683594 0.43035888671875 L 112.381591796875 0.42938232421875 C 112.3831481933594 0.42559814453125 112.3848266601563 0.4215087890625 112.3863830566406 0.41778564453125 L 112.3912963867188 0.40582275390625 C 112.4011840820313 0.38189697265625 112.4107360839844 0.3587646484375 112.4198303222656 0.336669921875 L 112.4202270507813 0.33575439453125 C 112.4248046875 0.32464599609375 112.4293518066406 0.31365966796875 112.4337463378906 0.302978515625 L 112.4346008300781 0.3009033203125 C 112.4367980957031 0.2955322265625 112.4389953613281 0.290283203125 112.441162109375 0.2850341796875 L 112.4412231445313 0.28485107421875 C 112.443115234375 0.28021240234375 112.4449768066406 0.2757568359375 112.4468383789063 0.271240234375 L 112.448974609375 0.26605224609375 C 112.4507446289063 0.26177978515625 112.4525146484375 0.2574462890625 112.4542236328125 0.2532958984375 L 112.4545593261719 0.2525634765625 C 112.5209350585938 0.0916748046875 112.5587463378906 0 112.5587463378906 0 L 112.5587463378906 0 Z" stroke="none" fill="#fff"/>
  </g>
  <path id="Path_3046" data-name="Path 3046" d="M544.084,5.656-.167,229.672" transform="translate(0.91 107.143)" fill="none" stroke="#fff" stroke-width="1" stroke-dasharray="7 7"/>
  <path id="Path_3047" data-name="Path 3047" d="M-.146,5.661,543.771,230.144l.464,4.616" transform="translate(0.909 107.143)" fill="none" stroke="#fff" stroke-width="1" stroke-dasharray="7 7"/>
</svg>
