<svg id="tech_img" xmlns="http://www.w3.org/2000/svg" width="407.385" height="303.942" viewBox="0 0 407.385 303.942">
  <line id="Line_93" data-name="Line 93" x2="52.57" transform="translate(142.361 93.195)" fill="none" stroke="#3f3d56" stroke-miterlimit="10" stroke-width="2"/>
  <ellipse id="Ellipse_316" data-name="Ellipse 316" cx="14.42" cy="4.527" rx="14.42" ry="4.527" transform="matrix(0.357, -0.934, 0.934, 0.357, 66.127, 161.451)" fill="#2f2e41"/>
  <path id="Path_5196" data-name="Path 5196" d="M896.94,368.964c5.719,42.563-2.069,85.172-41.679,101.764A77.76,77.76,0,0,1,753.5,429.049c-16.592-39.611,22.556-63.312,41.679-101.764C834.01,249.2,879.179,236.786,896.94,368.964Z" transform="translate(-491.227 -183.037)" fill="#f2f2f2"/>
  <ellipse id="Ellipse_317" data-name="Ellipse 317" cx="62.061" cy="8.443" rx="62.061" ry="8.443" transform="translate(272.34 281.58)" fill="#3f3d56"/>
  <rect id="Rectangle_412" data-name="Rectangle 412" width="8.762" height="15.698" transform="translate(296.134 276.98) rotate(-105.453)" fill="#2f2e41"/>
  <ellipse id="Ellipse_318" data-name="Ellipse 318" cx="2.738" cy="7.301" rx="2.738" ry="7.301" transform="translate(288.315 265.126) rotate(-15.453)" fill="#2f2e41"/>
  <ellipse id="Ellipse_319" data-name="Ellipse 319" cx="14.42" cy="4.527" rx="14.42" ry="4.527" transform="translate(330.65 252.563) rotate(-82.281)" fill="#2f2e41"/>
  <circle id="Ellipse_320" data-name="Ellipse 320" cx="28.84" cy="28.84" r="28.84" transform="translate(305.41 237.038)" fill="#2f2e41"/>
  <rect id="Rectangle_413" data-name="Rectangle 413" width="8.762" height="15.698" transform="translate(296.134 271.869) rotate(-105.453)" fill="#2f2e41"/>
  <ellipse id="Ellipse_321" data-name="Ellipse 321" cx="2.738" cy="7.301" rx="2.738" ry="7.301" transform="translate(288.315 260.015) rotate(-15.453)" fill="#2f2e41"/>
  <circle id="Ellipse_322" data-name="Ellipse 322" cx="9.857" cy="9.857" r="9.857" transform="translate(331.966 239.5)" fill="#fff"/>
  <circle id="Ellipse_323" data-name="Ellipse 323" cx="3.286" cy="3.286" r="3.286" transform="translate(341.69 241.717)" fill="#3f3d56"/>
  <path id="Path_5197" data-name="Path 5197" d="M1024.517,742.073c10.673-.534,18.847-10.517,18.257-22.3s-9.719-20.9-20.392-20.363-12.347,8.912-11.758,20.692S1013.843,742.607,1024.517,742.073Z" transform="translate(-656.961 -456.375)" fill="#6c63ff"/>
  <path id="Path_5198" data-name="Path 5198" d="M912.989,705.773a6.571,6.571,0,0,1-1.06-13.1c3.617-.293,4.6,2.579,4.9,6.2S916.607,705.48,912.989,705.773Z" transform="translate(-590.526 -452.097)" fill="#fff"/>
  <path id="Path_5199" data-name="Path 5199" d="M49.464,331.1H211l25.045,12.2,39.9,19.441,26.091-48.85h73.831" transform="translate(-31.406 -199.297)" fill="none" stroke="#3f3d56" stroke-miterlimit="10" stroke-width="2"/>
  <circle id="Ellipse_324" data-name="Ellipse 324" cx="4.996" cy="4.996" r="4.996" transform="translate(76.345 131.913)" fill="#6c63ff"/>
  <circle id="Ellipse_325" data-name="Ellipse 325" cx="4.996" cy="4.996" r="4.996" transform="translate(122.975 126.802)" fill="#6c63ff"/>
  <circle id="Ellipse_326" data-name="Ellipse 326" cx="4.996" cy="4.996" r="4.996" transform="translate(199.582 139.015)" fill="#6c63ff"/>
  <circle id="Ellipse_327" data-name="Ellipse 327" cx="4.996" cy="4.996" r="4.996" transform="translate(307.275 109.594)" fill="#6c63ff"/>
  <circle id="Ellipse_328" data-name="Ellipse 328" cx="4.996" cy="4.996" r="4.996" transform="translate(255.094 129.023)" fill="#6c63ff"/>
  <circle id="Ellipse_329" data-name="Ellipse 329" cx="5.387" cy="5.387" r="5.387" transform="translate(150.707 206.878)" fill="none" stroke="#3f3d56" stroke-miterlimit="10" stroke-width="2"/>
  <ellipse id="Ellipse_330" data-name="Ellipse 330" cx="62.061" cy="8.443" rx="62.061" ry="8.443" transform="translate(0 287.056)" fill="#3f3d56"/>
  <circle id="Ellipse_331" data-name="Ellipse 331" cx="28.84" cy="28.84" r="28.84" transform="translate(29.864 225.406)" fill="#2f2e41"/>
  <rect id="Rectangle_414" data-name="Rectangle 414" width="8.762" height="15.698" transform="translate(45.562 276.88)" fill="#2f2e41"/>
  <rect id="Rectangle_415" data-name="Rectangle 415" width="8.762" height="15.698" transform="translate(63.085 276.88)" fill="#2f2e41"/>
  <ellipse id="Ellipse_332" data-name="Ellipse 332" cx="7.301" cy="2.738" rx="7.301" ry="2.738" transform="translate(45.562 290.023)" fill="#2f2e41"/>
  <ellipse id="Ellipse_333" data-name="Ellipse 333" cx="7.301" cy="2.738" rx="7.301" ry="2.738" transform="translate(63.085 289.658)" fill="#2f2e41"/>
  <circle id="Ellipse_334" data-name="Ellipse 334" cx="9.857" cy="9.857" r="9.857" transform="translate(49.578 237.088)" fill="#fff"/>
  <circle id="Ellipse_335" data-name="Ellipse 335" cx="3.286" cy="3.286" r="3.286" transform="translate(56.149 243.659)" fill="#3f3d56"/>
  <path id="Path_5200" data-name="Path 5200" d="M125.473,614.759c-2.329-10.429,5.115-20.967,16.627-23.538s22.731,3.8,25.06,14.229-5.3,14.276-16.812,16.846S127.8,625.188,125.473,614.759Z" transform="translate(-94.745 -387.333)" fill="#6c63ff"/>
  <circle id="Ellipse_336" data-name="Ellipse 336" cx="28.84" cy="28.84" r="28.84" transform="translate(20.008 142.536)" fill="#2f2e41"/>
  <rect id="Rectangle_416" data-name="Rectangle 416" width="8.762" height="15.698" transform="translate(35.705 194.01)" fill="#2f2e41"/>
  <rect id="Rectangle_417" data-name="Rectangle 417" width="8.762" height="15.698" transform="translate(53.229 194.01)" fill="#2f2e41"/>
  <ellipse id="Ellipse_337" data-name="Ellipse 337" cx="7.301" cy="2.738" rx="7.301" ry="2.738" transform="translate(35.705 207.152)" fill="#2f2e41"/>
  <ellipse id="Ellipse_338" data-name="Ellipse 338" cx="7.301" cy="2.738" rx="7.301" ry="2.738" transform="translate(53.229 206.787)" fill="#2f2e41"/>
  <circle id="Ellipse_339" data-name="Ellipse 339" cx="9.857" cy="9.857" r="9.857" transform="translate(39.721 154.218)" fill="#fff"/>
  <circle id="Ellipse_340" data-name="Ellipse 340" cx="3.286" cy="3.286" r="3.286" transform="translate(46.292 160.789)" fill="#3f3d56"/>
  <path id="Path_5201" data-name="Path 5201" d="M98.473,387.759c-2.329-10.429,5.115-20.967,16.627-23.538s22.731,3.8,25.06,14.229-5.3,14.276-16.812,16.846S100.8,398.188,98.473,387.759Z" transform="translate(-77.602 -243.204)" fill="#6c63ff"/>
  <ellipse id="Ellipse_341" data-name="Ellipse 341" cx="4.527" cy="14.42" rx="4.527" ry="14.42" transform="translate(1.395 155.905) rotate(-64.626)" fill="#2f2e41"/>
  <path id="Path_5202" data-name="Path 5202" d="M137.043,525.568c0,2.823,7.268,8.4,15.333,8.4S168,526.018,168,523.2s-7.562.548-15.627.548S137.043,522.746,137.043,525.568Z" transform="translate(-102.362 -343.788)" fill="#fff"/>
  <rect id="Rectangle_418" data-name="Rectangle 418" width="46.046" height="23.423" transform="translate(305.004 206.157)" fill="#6c63ff"/>
  <rect id="Rectangle_419" data-name="Rectangle 419" width="46.046" height="23.423" transform="translate(301.401 209.961)" fill="none" stroke="#3f3d56" stroke-miterlimit="10" stroke-width="2"/>
  <rect id="Rectangle_420" data-name="Rectangle 420" width="13.142" height="13.142" transform="translate(82.725 72.648)" fill="#ff6584"/>
  <rect id="Rectangle_421" data-name="Rectangle 421" width="13.142" height="13.142" transform="translate(79.44 68.268)" fill="none" stroke="#3f3d56" stroke-miterlimit="10" stroke-width="2"/>
  <circle id="Ellipse_342" data-name="Ellipse 342" cx="28.84" cy="28.84" r="28.84" transform="translate(301.93 40.329)" fill="#2f2e41"/>
  <rect id="Rectangle_422" data-name="Rectangle 422" width="8.762" height="15.698" transform="translate(350.53 104.545) rotate(169.739)" fill="#2f2e41"/>
  <rect id="Rectangle_423" data-name="Rectangle 423" width="8.762" height="15.698" transform="translate(333.287 107.667) rotate(169.739)" fill="#2f2e41"/>
  <ellipse id="Ellipse_343" data-name="Ellipse 343" cx="7.301" cy="2.738" rx="7.301" ry="2.738" transform="matrix(0.763, -0.646, 0.646, 0.763, 320.133, 113.021)" fill="#2f2e41"/>
  <ellipse id="Ellipse_344" data-name="Ellipse 344" cx="7.301" cy="2.738" rx="7.301" ry="2.738" transform="matrix(0.763, -0.646, 0.646, 0.763, 337.017, 109.964)" fill="#2f2e41"/>
  <circle id="Ellipse_345" data-name="Ellipse 345" cx="9.857" cy="9.857" r="9.857" transform="translate(318.894 52.258)" fill="#fff"/>
  <circle id="Ellipse_346" data-name="Ellipse 346" cx="3.286" cy="3.286" r="3.286" transform="translate(321.414 55.296)" fill="#3f3d56"/>
  <path id="Path_5203" data-name="Path 5203" d="M936.165,102.079c.434-10.677-8.768-19.721-20.554-20.2s-21.69,7.789-22.124,18.466,7.758,13.1,19.544,13.582S935.731,112.756,936.165,102.079Z" transform="translate(-582.642 -64.285)" fill="#6c63ff"/>
  <ellipse id="Ellipse_347" data-name="Ellipse 347" cx="4.527" cy="14.42" rx="4.527" ry="14.42" transform="matrix(0.223, -0.975, 0.975, 0.223, 289.072, 65.106)" fill="#2f2e41"/>
  <ellipse id="Ellipse_348" data-name="Ellipse 348" cx="4.527" cy="14.42" rx="4.527" ry="14.42" transform="matrix(0.223, -0.975, 0.975, 0.223, 345.684, 74.522)" fill="#2f2e41"/>
  <path id="Path_5204" data-name="Path 5204" d="M947.137,248.362A6.571,6.571,0,0,1,934.2,250.7c-.646-3.571,2.115-4.835,5.686-5.481S946.49,244.791,947.137,248.362Z" transform="translate(-608.446 -167.827)" fill="#fff"/>
  <line id="Line_94" data-name="Line 94" x2="33.221" y2="25.555" transform="translate(260.148 36.142)" fill="none" stroke="#3f3d56" stroke-miterlimit="10" stroke-width="2"/>
  <circle id="Ellipse_349" data-name="Ellipse 349" cx="24.825" cy="24.825" r="24.825" transform="translate(219.626)" fill="#ff6584"/>
  <ellipse id="Ellipse_350" data-name="Ellipse 350" cx="14.42" cy="4.527" rx="14.42" ry="4.527" transform="translate(319.825 259.415) rotate(-82.281)" fill="#2f2e41"/>
  <circle id="Ellipse_351" data-name="Ellipse 351" cx="4.996" cy="4.996" r="4.996" transform="translate(20.125 281.956)" fill="#6c63ff"/>
  <rect id="Rectangle_424" data-name="Rectangle 424" width="13.142" height="13.142" transform="translate(93.677 281.102)" fill="#ff6584"/>
  <circle id="Ellipse_352" data-name="Ellipse 352" cx="4.996" cy="4.996" r="4.996" transform="translate(88.757 284.877)" fill="#6c63ff"/>
  <circle id="Ellipse_353" data-name="Ellipse 353" cx="4.996" cy="4.996" r="4.996" transform="translate(163.649 88.105)" fill="#6c63ff"/>
  <circle id="Ellipse_354" data-name="Ellipse 354" cx="2.386" cy="2.386" r="2.386" transform="translate(263.281 245.587)" fill="#ff6584"/>
  <line id="Line_95" data-name="Line 95" y1="27.165" transform="translate(277.356 260.407)" fill="#3f3d56" stroke="#3f3d56" stroke-miterlimit="10" stroke-width="2"/>
  <circle id="Ellipse_355" data-name="Ellipse 355" cx="3.842" cy="3.842" r="3.842" transform="translate(273.514 256.566)" fill="#3f3d56"/>
  <path id="Path_5205" data-name="Path 5205" d="M781.261,774.557s-.549-11.8-11.8-10.431" transform="translate(-503.905 -497.407)" fill="#3f3d56"/>
</svg>
