<svg id="tick" xmlns="http://www.w3.org/2000/svg" width="15.52" height="14.898" viewBox="0 0 15.52 14.898">
  <path id="Path_3765" data-name="Path 3765" d="M35.394,38.223c0,.706-1.283,1.193-1.494,1.828s.532,1.809.135,2.354-1.732.2-2.283.6S31.11,44.778,30.469,45s-1.488-.853-2.193-.853-1.565,1.065-2.2.859-.731-1.591-1.283-1.988-1.873-.051-2.29-.6.346-1.7.135-2.354-1.482-1.129-1.482-1.834S22.439,37.03,22.65,36.4s-.532-1.809-.148-2.36,1.732-.2,2.283-.6.641-1.77,1.283-1.988,1.5.859,2.206.859,1.565-1.065,2.2-.859.731,1.591,1.283,1.988,1.879.051,2.283.6-.346,1.7-.135,2.354S35.394,37.518,35.394,38.223Z" transform="translate(-20.515 -30.773)" fill="#c2ddf2"/>
  <g id="Group_191" data-name="Group 191">
    <path id="Path_3766" data-name="Path 3766" d="M5.736,25.154a1.186,1.186,0,0,1-.373-.06c-.63-.2-.887-.84-1.114-1.4a2.436,2.436,0,0,0-.346-.677,2.38,2.38,0,0,0-.736-.115,2.159,2.159,0,0,1-1.69-.621,2.057,2.057,0,0,1-.086-1.812,2.306,2.306,0,0,0,.122-.731,2.25,2.25,0,0,0-.519-.519A2.1,2.1,0,0,1,0,17.705a2.126,2.126,0,0,1,1.013-1.527,2.372,2.372,0,0,0,.515-.5,2.47,2.47,0,0,0-.123-.737,2.119,2.119,0,0,1,.058-1.787,2.069,2.069,0,0,1,1.685-.638,2.37,2.37,0,0,0,.745-.115,2.368,2.368,0,0,0,.347-.675,2.114,2.114,0,0,1,1.109-1.4,2.05,2.05,0,0,1,1.725.475,2.25,2.25,0,0,0,.688.35,2.276,2.276,0,0,0,.7-.351,2.048,2.048,0,0,1,1.7-.477c.629.2.887.84,1.113,1.4a2.44,2.44,0,0,0,.347.678,2.37,2.37,0,0,0,.738.115,2.125,2.125,0,0,1,1.687.629,2.087,2.087,0,0,1,.078,1.8,2.347,2.347,0,0,0-.121.739,2.286,2.286,0,0,0,.521.518,2.1,2.1,0,0,1,1,1.514,2.127,2.127,0,0,1-1.013,1.528,2.387,2.387,0,0,0-.515.5,2.447,2.447,0,0,0,.121.73,2.083,2.083,0,0,1-.076,1.8,2.079,2.079,0,0,1-1.676.625,2.357,2.357,0,0,0-.747.118,2.417,2.417,0,0,0-.346.675,2.121,2.121,0,0,1-1.109,1.4,2.04,2.04,0,0,1-1.719-.471,2.219,2.219,0,0,0-.681-.348,2.276,2.276,0,0,0-.7.351A2.632,2.632,0,0,1,5.736,25.154Zm0-13.615a3.892,3.892,0,0,0-.308.664,2.666,2.666,0,0,1-.778,1.229,2.627,2.627,0,0,1-1.42.361A2.393,2.393,0,0,0,2.5,13.9a4.692,4.692,0,0,0,.151.715,2.606,2.606,0,0,1,.1,1.461,2.577,2.577,0,0,1-.916,1.087c-.181.149-.517.426-.546.547a2.592,2.592,0,0,0,.532.518,2.622,2.622,0,0,1,.92,1.11,2.629,2.629,0,0,1-.1,1.449,2.287,2.287,0,0,0-.122.732,3.189,3.189,0,0,0,.742.1,2.629,2.629,0,0,1,1.4.354,2.659,2.659,0,0,1,.786,1.237,2.426,2.426,0,0,0,.342.672,5.183,5.183,0,0,0,.6-.35,2.7,2.7,0,0,1,1.381-.55,2.667,2.667,0,0,1,1.371.548,2.325,2.325,0,0,0,.639.334,3.872,3.872,0,0,0,.309-.665,2.667,2.667,0,0,1,.778-1.229,2.668,2.668,0,0,1,1.419-.363,2.338,2.338,0,0,0,.74-.116,4.225,4.225,0,0,0-.146-.712,2.6,2.6,0,0,1-.094-1.451,2.573,2.573,0,0,1,.916-1.087,2.478,2.478,0,0,0,.544-.538,2.427,2.427,0,0,0-.53-.525,2.611,2.611,0,0,1-.924-1.111,2.662,2.662,0,0,1,.1-1.454A2.318,2.318,0,0,0,13,13.881a3.47,3.47,0,0,0-.729-.09,2.63,2.63,0,0,1-1.4-.355,2.659,2.659,0,0,1-.786-1.237,2.429,2.429,0,0,0-.342-.671,5.268,5.268,0,0,0-.6.351,2.7,2.7,0,0,1-1.381.55,2.685,2.685,0,0,1-1.376-.551A2.284,2.284,0,0,0,5.736,11.538Zm8.5,6.176h0Z" transform="translate(0 -10.255)" fill="#1138f7"/>
    <path id="Path_3767" data-name="Path 3767" d="M152.564,176.613a.638.638,0,0,1-.453-.188l-1.712-1.712a.641.641,0,0,1,.907-.907l1.217,1.216,2.859-3.419a.642.642,0,0,1,.984.823l-3.309,3.957a.64.64,0,0,1-.464.229Z" transform="translate(-145.657 -166.489)" fill="#1138f7"/>
  </g>
</svg>
