<svg xmlns="http://www.w3.org/2000/svg" xmlns:xlink="http://www.w3.org/1999/xlink" width="503.707" height="512.002" viewBox="0 0 503.707 512.002">
  <defs>
    <linearGradient id="linear-gradient" x1="0.5" x2="0.5" y2="1" gradientUnits="objectBoundingBox">
      <stop offset="0" stop-color="#ff4b70"/>
      <stop offset="1" stop-color="#7c4dff"/>
    </linearGradient>
  </defs>
  <g id="Travel" transform="translate(-4.147 0)">
    <g id="Group_413" data-name="Group 413">
      <g id="Group_412" data-name="Group 412">
        <path id="Path_5267" data-name="Path 5267" d="M496.236,176.587C454.759,44.1,313.262-29.944,180.746,11.516,48.247,52.993-25.8,194.524,15.666,327.014l16.282-5.1C-6.715,198.4,62.32,66.46,185.846,27.789A234.72,234.72,0,0,1,463.928,360.611,233.133,233.133,0,0,1,326.073,475.8c-100.157,31.344-209.943-8.239-267.045-96.276l-14.312,9.28C91.916,461.6,172.7,503.508,256.45,503.5A251.694,251.694,0,0,0,496.236,176.587Z" fill="url(#linear-gradient)"/>
      </g>
    </g>
    <g id="Group_415" data-name="Group 415">
      <g id="Group_414" data-name="Group 414">
        <path id="Path_5268" data-name="Path 5268" d="M206.52,119.408l4.9-16.342L126.125,77.479a8.518,8.518,0,0,0-8.478,2.141L100.589,96.678a8.53,8.53,0,0,0,2.567,13.826l76.762,34.116,6.926-15.591L121.435,99.953l4.674-4.674Z" fill="url(#linear-gradient)"/>
      </g>
    </g>
    <g id="Group_417" data-name="Group 417">
      <g id="Group_416" data-name="Group 416">
        <path id="Path_5269" data-name="Path 5269" d="M285.747,68.6a8.527,8.527,0,0,0-8.529-8.529H277.2a69.8,69.8,0,0,0-49.682,20.581l-72.326,72.318-29.434-7.361a8.528,8.528,0,0,0-8.1,2.243L100.6,164.911a8.52,8.52,0,0,0,1.638,13.34l40.82,24.495,24.495,40.82a8.522,8.522,0,0,0,6.269,4.077,8.35,8.35,0,0,0,1.041.06,8.6,8.6,0,0,0,6.039-2.49l17.058-17.058a8.549,8.549,0,0,0,2.243-8.1l-7.352-29.4L266.327,117.9A70.364,70.364,0,0,0,285.747,68.6ZM177.385,181.935a8.533,8.533,0,0,0-2.277,8.128l7.361,29.434-5.919,5.919-19.967-33.28a8.5,8.5,0,0,0-2.925-2.925l-33.28-19.967,5.919-5.919,29.434,7.361a8.528,8.528,0,0,0,8.1-2.243l75.738-75.738a52.761,52.761,0,0,1,28.436-14.8,52.589,52.589,0,0,1-13.86,28.035Z" fill="url(#linear-gradient)"/>
      </g>
    </g>
    <g id="Group_419" data-name="Group 419">
      <g id="Group_418" data-name="Group 418">
        <path id="Path_5270" data-name="Path 5270" d="M268.322,220.8l-25.587-86.4-16.359,4.845,24.043,81.18L245.242,225l-28.436-65.964-15.668,6.755,33.093,76.762a8.534,8.534,0,0,0,5.97,4.947,8.732,8.732,0,0,0,1.868.205,8.5,8.5,0,0,0,5.638-2.132l18.082-15.949A8.536,8.536,0,0,0,268.322,220.8Z" fill="url(#linear-gradient)"/>
      </g>
    </g>
    <g id="Group_421" data-name="Group 421">
      <g id="Group_420" data-name="Group 420">
        <path id="Path_5271" data-name="Path 5271" d="M166.6,470.286c-60.744,28.785-108.4,32.5-130.708,10.2-38.671-38.671,3.326-151.024,97.683-261.356l-12.964-11.088c-103.491,121.01-143.3,238-96.787,284.5C36.818,505.528,55.164,512,77.919,512c26.525,0,59.038-8.793,95.986-26.3Z" fill="url(#linear-gradient)"/>
      </g>
    </g>
    <g id="Group_423" data-name="Group 423">
      <g id="Group_422" data-name="Group 422">
        <path id="Path_5272" data-name="Path 5272" d="M455.322,294.851a8.532,8.532,0,0,0-7.523-4.5H418.954L395.721,243.89a8.54,8.54,0,0,0-7.634-4.717H302.8a8.526,8.526,0,0,0-8.529,8.529v68.233a8.521,8.521,0,0,0,8.529,8.529h25.587v93.82a8.521,8.521,0,0,0,8.529,8.529h42.645a8.53,8.53,0,0,0,6.039-2.508l34.116-34.116a8.493,8.493,0,0,0,2.5-6.03V352.627L454.894,303.6A8.529,8.529,0,0,0,455.322,294.851Zm-48.744,50.467a8.574,8.574,0,0,0-1.433,4.734v30.585l-29.118,29.118H345.433v-93.82a8.521,8.521,0,0,0-8.529-8.529H311.317V256.232h71.491l23.233,46.458a8.539,8.539,0,0,0,7.633,4.717h18.184Z" fill="url(#linear-gradient)"/>
      </g>
    </g>
    <g id="Group_425" data-name="Group 425">
      <g id="Group_424" data-name="Group 424">
        <path id="Path_5273" data-name="Path 5273" d="M461.267,222.115l-31.66-55.4a8.528,8.528,0,0,0-7.4-4.3H371.03a8.539,8.539,0,0,0-7.1,3.795L349.409,188H328.385V145.353H371.03a8.507,8.507,0,0,0,6.03-2.5l31.617-31.617h39.114V94.179H405.146a8.507,8.507,0,0,0-6.03,2.5L367.5,128.295H319.856a8.526,8.526,0,0,0-8.529,8.529v59.7a8.527,8.527,0,0,0,8.529,8.529h34.116a8.539,8.539,0,0,0,7.1-3.795l14.525-21.792h41.665l31.66,55.4a8.528,8.528,0,0,0,7.4,4.3h34.116V222.115h-29.17Z" fill="url(#linear-gradient)"/>
      </g>
    </g>
    <g id="Group_427" data-name="Group 427">
      <g id="Group_426" data-name="Group 426">
        <path id="Path_5274" data-name="Path 5274" d="M251.622,307.406H203.979l-23.088-23.088a8.5,8.5,0,0,0-6.03-2.5H132.216a8.527,8.527,0,0,0-8.529,8.529v59.7a8.526,8.526,0,0,0,8.529,8.529h34.116v85.291a8.529,8.529,0,0,0,13.647,6.823l34.116-25.587a8.536,8.536,0,0,0,3.412-6.823V396.791l39.447-31.549a8.534,8.534,0,0,0,3.2-6.661V315.936A8.529,8.529,0,0,0,251.622,307.406Zm-8.529,47.081-39.447,31.549a8.536,8.536,0,0,0-3.2,6.661V414.02L183.39,426.814V350.052a8.526,8.526,0,0,0-8.529-8.529H140.745V298.878H171.33l23.088,23.088a8.509,8.509,0,0,0,6.03,2.5h42.645v30.022Z" fill="url(#linear-gradient)"/>
      </g>
    </g>
    <g id="Group_429" data-name="Group 429">
      <g id="Group_428" data-name="Group 428">
        <path id="Path_5275" data-name="Path 5275" d="M79.821,183.607,54.234,140.962a8.518,8.518,0,0,0-7.309-4.137H38.4v17.058h3.7l19.677,32.794L40.9,207.556a8.5,8.5,0,0,0-2.5,6.03v25.587H12.808v17.058H46.924a8.532,8.532,0,0,0,8.529-8.529V217.117l23.088-23.088A8.538,8.538,0,0,0,79.821,183.607Z" fill="url(#linear-gradient)"/>
      </g>
    </g>
    <g id="Group_431" data-name="Group 431">
      <g id="Group_430" data-name="Group 430">
        <path id="Path_5276" data-name="Path 5276" d="M268.689,8.889v10.4l-27.66,6.917a8.667,8.667,0,0,0-2.661,1.177L216.9,41.7,170.152,18.322,162.519,33.58l51.174,25.587a8.53,8.53,0,0,0,8.538-.537L246.59,42.391l32.692-8.171a8.531,8.531,0,0,0,6.465-8.273V8.889Z" fill="url(#linear-gradient)"/>
      </g>
    </g>
  </g>
</svg>
