<svg xmlns="http://www.w3.org/2000/svg" width="30" height="30" viewBox="0 0 30 30">
  <g id="twitter" transform="translate(0 0)">
    <circle id="Ellipse_173" data-name="Ellipse 173" cx="15" cy="15" r="15" transform="translate(0 0)" fill="#ff4b70"/>
    <path id="twitter-2" data-name="twitter" d="M18.368,4.579a7.851,7.851,0,0,1-2.17.595,3.744,3.744,0,0,0,1.657-2.081A7.525,7.525,0,0,1,15.467,4,3.765,3.765,0,0,0,8.953,6.579a3.877,3.877,0,0,0,.087.859A10.659,10.659,0,0,1,1.279,3.5,3.767,3.767,0,0,0,2.436,8.532a3.719,3.719,0,0,1-1.7-.464v.041a3.783,3.783,0,0,0,3.017,3.7,3.758,3.758,0,0,1-.987.124,3.329,3.329,0,0,1-.713-.064A3.8,3.8,0,0,0,5.57,14.492,7.566,7.566,0,0,1,.9,16.1a7.054,7.054,0,0,1-.9-.052,10.6,10.6,0,0,0,5.777,1.69A10.644,10.644,0,0,0,16.495,7.021c0-.166-.006-.327-.014-.487A7.512,7.512,0,0,0,18.368,4.579Z" transform="translate(6 5)" fill="#fff"/>
  </g>
</svg>
