<svg xmlns="http://www.w3.org/2000/svg" width="63.768" height="63.768" viewBox="0 0 63.768 63.768">
  <path id="typescript" d="M2,33.294V65.178H65.768V1.41H2Zm51.387-2.551a7.938,7.938,0,0,1,3.989,2.3,10.5,10.5,0,0,1,1.53,2.041c0,.082-2.755,1.944-4.433,2.984-.061.041-.306-.224-.576-.627a3.617,3.617,0,0,0-2.995-1.8c-1.933-.133-3.178.883-3.168,2.551a2.336,2.336,0,0,0,.275,1.194c.423.883,1.214,1.408,3.693,2.479,4.566,1.964,6.52,3.26,7.734,5.1a9.258,9.258,0,0,1,.74,7.775c-1.02,2.653-3.52,4.454-7.055,5.05a19.548,19.548,0,0,1-4.857-.051,11.733,11.733,0,0,1-6.474-3.341,11.21,11.21,0,0,1-1.658-2.459,4.764,4.764,0,0,1,.587-.372l2.347-1.347L44.9,51.154l.383.566A8.56,8.56,0,0,0,47.7,54.036c2.041,1.071,4.826.923,6.2-.316a2.77,2.77,0,0,0,.352-3.53c-.51-.709-1.53-1.306-4.382-2.551-3.29-1.418-4.709-2.3-6-3.693a8.407,8.407,0,0,1-1.75-3.188,12.754,12.754,0,0,1-.112-4.081,7.756,7.756,0,0,1,6.54-6.055,16.151,16.151,0,0,1,4.841.133ZM38.419,33.416v2.612h-8.28V59.612H24.268V36.023h-8.3V33.472a25.094,25.094,0,0,1,.071-2.632c.031-.041,5.1-.061,11.223-.051H38.388Z" transform="translate(-2 -1.41)" fill="#007acc"/>
</svg>
