<svg xmlns="http://www.w3.org/2000/svg" width="546.557" height="365.742" viewBox="0 0 546.557 365.742">
  <g id="uiux" transform="translate(10 -793)">
    <g id="uiux-2" data-name="uiux" transform="translate(-0.138)">
      <path id="Path_3768" data-name="Path 3768" d="M6.608,0H539.949a6.812,6.812,0,0,1,6.608,7V336a6.812,6.812,0,0,1-6.608,7H6.608A6.812,6.812,0,0,1,0,336V7A6.812,6.812,0,0,1,6.608,0Z" transform="translate(-9.862 793)" fill="#dedede"/>
    </g>
    <g id="undraw_mobile_prototyping_grmd" transform="translate(35 851)">
      <path id="Path_3795" data-name="Path 3795" d="M529.516,164.046V434.8c0,6.717-5.786,12.16-12.918,12.16H399.884a13.313,13.313,0,0,1-9.139-3.555,11.8,11.8,0,0,1-3.779-8.6V164.046c0-6.72,5.784-12.166,12.918-12.166h17.468l10.636.053c0,5.532-5.874,0,0,0h59.358c5.874,0,0,5.479,0-.053H516.6c7.135,0,12.92,5.446,12.918,12.166Z" transform="translate(-219.966 -139.213)" fill="#3f3d56"/>
      <path id="Path_3783" data-name="Path 3783" d="M516.188,163.59V424.2a11.71,11.71,0,0,1-11.71,11.7h-105.8a11.69,11.69,0,0,1-11.71-11.7V163.59a11.709,11.709,0,0,1,11.71-11.71h15.835v2.032a9.642,9.642,0,0,0,9.642,9.642h53.808a9.642,9.642,0,0,0,9.642-9.642V151.88h16.874a11.706,11.706,0,0,1,11.71,11.71Z" transform="translate(-212.966 -133.139)" fill="#7c4dff"/>
      <rect id="Rectangle_274" data-name="Rectangle 274" width="119.941" height="58.42" transform="translate(178 62.297)" fill="#3f3d56"/>
      <path id="Path_3784" data-name="Path 3784" d="M467.117,267.181c3.14,11.606,13.894,18.795,13.894,18.795s5.664-11.63,2.524-23.236-13.894-18.795-13.894-18.795S463.977,255.575,467.117,267.181Z" transform="translate(-237.169 -164.77)" fill="#fff"/>
      <path id="Path_3785" data-name="Path 3785" d="M463.372,270.784c8.615,8.387,9.668,21.28,9.668,21.28s-12.916-.705-21.532-9.092-9.668-21.28-9.668-21.28S454.757,262.4,463.372,270.784Z" transform="translate(-218.84 -170.867)" fill="#ff4b70"/>
      <path id="Path_3786" data-name="Path 3786" d="M502.037,267.181c-3.14,11.606-13.894,18.795-13.894,18.795s-5.664-11.63-2.524-23.236,13.894-18.795,13.894-18.795S505.176,255.575,502.037,267.181Z" transform="translate(-255.671 -164.77)" fill="#fff"/>
      <path id="Path_3787" data-name="Path 3787" d="M499.037,270.784c-8.615,8.387-9.668,21.28-9.668,21.28s12.916-.705,21.532-9.092,9.668-21.28,9.668-21.28S507.653,262.4,499.037,270.784Z" transform="translate(-266.369 -170.867)" fill="#ff4b70"/>
      <rect id="Rectangle_275" data-name="Rectangle 275" width="98.486" height="5.406" transform="translate(189 153.432)" fill="#f0f0f0"/>
      <rect id="Rectangle_276" data-name="Rectangle 276" width="98.486" height="5.406" transform="translate(189 162.142)" fill="#f0f0f0"/>
      <rect id="Rectangle_277" data-name="Rectangle 277" width="98.486" height="5.406" transform="translate(189 170.852)" fill="#f0f0f0"/>
      <rect id="Rectangle_278" data-name="Rectangle 278" width="98.486" height="5.406" transform="translate(189 179.562)" fill="#f0f0f0"/>
      <rect id="Rectangle_279" data-name="Rectangle 279" width="26.883" height="26.883" transform="matrix(0.815, 0.579, -0.579, 0.815, 235.562, 210.589)" fill="#f0f0f0"/>
      <path id="Path_3788" data-name="Path 3788" d="M486.689,503.357a6.2,6.2,0,1,1,6.2-6.2A6.2,6.2,0,0,1,486.689,503.357Zm0-11.374a5.17,5.17,0,1,0,5.17,5.17,5.17,5.17,0,0,0-5.17-5.17Z" transform="translate(-248.485 -281.633)" fill="#3f3d56"/>
      <path id="Path_3789" data-name="Path 3789" d="M173.284,76.862V300.318a10.041,10.041,0,0,1-10.04,10.036H72.525a10.023,10.023,0,0,1-10.04-10.036V76.862a10.04,10.04,0,0,1,10.041-10.04H86.1v1.742a8.267,8.267,0,0,0,8.267,8.267h46.137a8.267,8.267,0,0,0,8.267-8.267V66.822h14.469a10.037,10.037,0,0,1,10.04,10.04Z" transform="translate(-62.485 -98.822)" fill="#fff"/>
      <path id="Path_3790" data-name="Path 3790" d="M170.036,221.975H81.379V142.627h88.657Zm-87.77-.887h86.884V143.513H82.266Z" transform="translate(-70.745 -131.96)" fill="#3f3d56"/>
      <rect id="Rectangle_280" data-name="Rectangle 280" width="0.887" height="117.728" transform="translate(10.782 11.44) rotate(-48.206)" fill="#3f3d56"/>
      <rect id="Rectangle_281" data-name="Rectangle 281" width="117.728" height="0.887" transform="translate(10.781 89.24) rotate(-41.794)" fill="#3f3d56"/>
      <rect id="Rectangle_282" data-name="Rectangle 282" width="87.77" height="0.887" transform="translate(11.078 113.065)" fill="#3f3d56"/>
      <rect id="Rectangle_283" data-name="Rectangle 283" width="87.77" height="0.887" transform="translate(11.078 121.044)" fill="#3f3d56"/>
      <rect id="Rectangle_284" data-name="Rectangle 284" width="87.77" height="0.887" transform="translate(11.078 129.024)" fill="#3f3d56"/>
      <rect id="Rectangle_285" data-name="Rectangle 285" width="43.885" height="0.887" transform="translate(11.078 137.003)" fill="#3f3d56"/>
      <rect id="Rectangle_286" data-name="Rectangle 286" width="43.885" height="0.887" transform="translate(11.078 144.982)" fill="#3f3d56"/>
      <path id="Path_3791" data-name="Path 3791" d="M821.459,76.862V300.318a10.041,10.041,0,0,1-10.04,10.036H720.7a10.023,10.023,0,0,1-10.041-10.036V76.862A10.04,10.04,0,0,1,720.7,66.822h13.577v1.742a8.267,8.267,0,0,0,8.267,8.267h46.137a8.267,8.267,0,0,0,8.267-8.267V66.822h14.469a10.037,10.037,0,0,1,10.041,10.04Z" transform="translate(-345.837 -98.822)" fill="#fff"/>
      <rect id="Rectangle_287" data-name="Rectangle 287" width="87.77" height="0.887" transform="translate(376.788 82.479)" fill="#3f3d56"/>
      <rect id="Rectangle_288" data-name="Rectangle 288" width="87.77" height="0.887" transform="translate(376.788 105.529)" fill="#3f3d56"/>
      <rect id="Rectangle_289" data-name="Rectangle 289" width="87.77" height="0.887" transform="translate(376.788 128.58)" fill="#3f3d56"/>
      <circle id="Ellipse_200" data-name="Ellipse 200" cx="14.41" cy="14.41" r="14.41" transform="translate(403.921 20.004)" fill="#ff4b70"/>
      <rect id="Rectangle_290" data-name="Rectangle 290" width="6.206" height="14.185" transform="translate(442.394 78.489)" fill="#ff4b70"/>
      <rect id="Rectangle_291" data-name="Rectangle 291" width="6.206" height="14.185" transform="translate(387.87 101.096)" fill="#ff4b70"/>
      <rect id="Rectangle_292" data-name="Rectangle 292" width="6.206" height="14.185" transform="translate(424.219 123.704)" fill="#ff4b70"/>
      <path id="Path_3792" data-name="Path 3792" d="M795.316,185.965a17.731,17.731,0,1,1,17.731-17.731A17.731,17.731,0,0,1,795.316,185.965Zm0-34.576a16.845,16.845,0,1,0,16.845,16.845,16.845,16.845,0,0,0-16.845-16.845Z" transform="translate(-375.093 -135.403)" fill="#3f3d56"/>
      <rect id="Rectangle_293" data-name="Rectangle 293" width="1.126" height="55.866" transform="translate(121.908 85.94) rotate(-39.546)" fill="#3f3d56"/>
      <path id="Path_3793" data-name="Path 3793" d="M342.766,353.163a34.021,34.021,0,0,0-10.254-4.011l5.361-1.915,2.895-4.9A33.981,33.981,0,0,0,342.766,353.163Z" transform="translate(-180.528 -219.264)" fill="#3f3d56"/>
      <rect id="Rectangle_294" data-name="Rectangle 294" width="55.867" height="1.126" transform="translate(316.851 128.308) rotate(-50.466)" fill="#3f3d56"/>
      <path id="Path_3794" data-name="Path 3794" d="M618.506,353.163a34.022,34.022,0,0,0,2-10.828l2.9,4.9,5.36,1.915A33.987,33.987,0,0,0,618.506,353.163Z" transform="translate(-305.551 -219.263)" fill="#3f3d56"/>
    </g>
  </g>
</svg>
