<svg id="undraw_Designer_by46" xmlns="http://www.w3.org/2000/svg" xmlns:xlink="http://www.w3.org/1999/xlink" width="367.712" height="250.583" viewBox="0 0 367.712 250.583">
  <defs>
    <linearGradient id="linear-gradient" x1="0.5" y1="1" x2="0.5" gradientUnits="objectBoundingBox">
      <stop offset="0" stop-color="gray" stop-opacity="0.251"/>
      <stop offset="0.535" stop-color="gray" stop-opacity="0.122"/>
      <stop offset="1" stop-color="gray" stop-opacity="0.102"/>
    </linearGradient>
  </defs>
  <path id="Path_4043" data-name="Path 4043" d="M235.46,623.809c-2.644,10.068-11.908,16.36-11.908,16.36s-4.978-10.032-2.334-20.1,11.908-16.36,11.908-16.36S238.1,613.741,235.46,623.809Z" transform="translate(-180.259 -420.236)" fill="#3f3d56"/>
  <path id="Path_4044" data-name="Path 4044" d="M236,638.033c-7.4,7.316-8.233,18.484-8.233,18.484s11.177-.693,18.582-8.009,8.233-18.484,8.233-18.484S243.407,630.717,236,638.033Z" transform="translate(-184.811 -436.59)" fill="#00ffc4"/>
  <rect id="Rectangle_327" data-name="Rectangle 327" width="40.47" height="17.221" rx="8.611" transform="translate(25.76 216.985)" fill="#00ffc4"/>
  <g id="Group_202" data-name="Group 202" transform="translate(307.938 199.779)" opacity="0.7">
    <path id="Path_4045" data-name="Path 4045" d="M958.831,652.99v-6.205H927.805v28.7a6.05,6.05,0,0,0,6.05,6.05h18.927a6.05,6.05,0,0,0,6.051-6.05v-6.361a8.067,8.067,0,0,0,0-16.134Zm0,13.031v-9.929a4.964,4.964,0,1,1,0,9.929Z" transform="translate(-927.805 -646.785)" fill="url(#linear-gradient)"/>
  </g>
  <path id="Path_4046" data-name="Path 4046" d="M995.047,665.744a7.366,7.366,0,1,0,7.366,7.366A7.366,7.366,0,0,0,995.047,665.744Zm0,11.9a4.533,4.533,0,1,1,4.533-4.533,4.532,4.532,0,0,1-4.533,4.533Z" transform="translate(-657.079 -458.789)" fill="#00ffc4"/>
  <path id="Path_4047" data-name="Path 4047" d="M995.047,665.744a7.366,7.366,0,1,0,7.366,7.366A7.366,7.366,0,0,0,995.047,665.744Zm0,11.9a4.533,4.533,0,1,1,4.533-4.533,4.532,4.532,0,0,1-4.533,4.533Z" transform="translate(-657.079 -458.789)" opacity="0.1"/>
  <path id="Path_4048" data-name="Path 4048" d="M818.016,531.776h28.329v28.038a3.69,3.69,0,0,1-3.69,3.691H821.707a3.691,3.691,0,0,1-3.691-3.691Z" transform="translate(-508.378 -330.486)" fill="#00ffc4"/>
  <rect id="Rectangle_328" data-name="Rectangle 328" width="367.712" height="12.465" transform="translate(0 233.018)" fill="#e0e0e0"/>
  <g id="Group_203" data-name="Group 203" transform="translate(117.493 0)" opacity="0.7">
    <path id="Path_4049" data-name="Path 4049" d="M549.049,268.617c-3.941-14.305-26.284-24.751-43.1-27.067,0-.106.008-.21.008-.316V228.988l.054-.019v-.464a41.993,41.993,0,0,0,25.365-26.584,45.351,45.351,0,0,0,2.706-5.835c1.795-.653,3.15-3.613,3.15-7.169a12.516,12.516,0,0,0-.506-3.594,46,46,0,0,0,.337-5.458,45.491,45.491,0,0,0-15.026-33.833,8.875,8.875,0,0,0,.142-2.225c-.38-5.877-6.658-9.87-12.542-10.137a12.416,12.416,0,0,0,2.094-13.111c-3.752,5.466-11.454,6.047-18.083,6.09A5.423,5.423,0,0,0,496.138,119c-6.928,9.287-20.435,11.006-28.675,19.151A24.174,24.174,0,0,0,463,144.233a45.514,45.514,0,0,0-17.154,35.632,46,46,0,0,0,.33,5.409,12.476,12.476,0,0,0-.522,3.643c0,3.572,1.368,6.541,3.175,7.176a45.381,45.381,0,0,0,2.719,5.855,41.985,41.985,0,0,0,25.187,26.491v12.795c0,.1.005.2.007.294-16.875,2.276-39.4,12.8-43.3,27.225-3.373,12.453-6.974,26.129-8.765,34.158,15.356,10.79,47.578,17.126,67.771,17.126,19.186,0,50.545-5.718,65.449-15.543C556.284,295.67,552.569,281.393,549.049,268.617Z" transform="translate(-424.678 -119)" fill="url(#linear-gradient)"/>
  </g>
  <path id="Path_4050" data-name="Path 4050" d="M496.272,515.646c18.508,0,48.759-5.516,63.137-14.994-1.557-8.511-5.14-22.283-8.536-34.608-4.324-15.7-31.617-26.578-47.9-26.578H487.285c-16.332,0-43.664,10.945-47.934,26.709-3.254,12.013-6.727,25.205-8.456,32.951C445.709,509.534,476.793,515.646,496.272,515.646Z" transform="translate(-311.049 -318.162)" fill="#ff4b70"/>
  <circle id="Ellipse_283" data-name="Ellipse 283" cx="43.998" cy="43.998" r="43.998" transform="translate(140.269 18.268)" fill="#72351c"/>
  <path id="Path_4051" data-name="Path 4051" d="M449.291,261.311h28.192v22.554a14.1,14.1,0,0,1-14.1,14.1h0a14.1,14.1,0,0,1-14.1-14.1V261.311Z" transform="translate(-279.224 -162.399)" opacity="0.1"/>
  <path id="Path_4052" data-name="Path 4052" d="M453.335,258.553h20.1a4.044,4.044,0,0,1,4.044,4.044v18.51a14.1,14.1,0,0,1-14.1,14.1h0a14.1,14.1,0,0,1-14.1-14.1V262.6A4.044,4.044,0,0,1,453.335,258.553Z" transform="translate(-279.224 -160.685)" fill="#fda57d"/>
  <path id="Path_4053" data-name="Path 4053" d="M563.709,402.876a40.575,40.575,0,0,0,28.192.078v-3.463H563.709Z" transform="translate(-393.59 -293.318)" opacity="0.1"/>
  <circle id="Ellipse_284" data-name="Ellipse 284" cx="40.408" cy="40.408" r="40.408" transform="translate(143.859 30.628)" fill="#fda57d"/>
  <path id="Path_4054" data-name="Path 4054" d="M525.046,192.872s17.03,34.568,65.069,14.488l-11.184-17.538-19.826-7.117Z" transform="translate(-369.562 -158.591)" opacity="0.1"/>
  <path id="Path_4055" data-name="Path 4055" d="M525.046,191.529s17.03,34.568,65.068,14.488l-11.183-17.538-19.826-7.117Z" transform="translate(-369.562 -157.756)" fill="#72351c"/>
  <path id="Path_4056" data-name="Path 4056" d="M523.262,156.269a23.343,23.343,0,0,1,5.786-9.411C537,139,550.027,137.342,556.71,128.384a5.232,5.232,0,0,1-2.4,7.378c6.395-.041,13.825-.6,17.444-5.874a11.977,11.977,0,0,1-2.02,12.647c5.676.258,11.732,4.109,12.1,9.779.244,3.777-2.124,7.353-5.228,9.52s-6.859,3.161-10.556,3.976C555.263,168.188,516.221,178.159,523.262,156.269Z" transform="translate(-367.929 -124.832)" fill="#72351c"/>
  <path id="Path_4057" data-name="Path 4057" d="M575.177,307.6h-1.071l-20.842,18.555c-20.08-9.4-34.822,0-34.822,0l-21.859-17.792-2.2.277a40.405,40.405,0,1,0,80.8-1.04Zm-40.469,25.672c-7.861,0-14.234-1.593-14.234-3.558s6.373-3.558,14.234-3.558,14.234,1.593,14.234,3.558S542.569,333.274,534.708,333.274Z" transform="translate(-350.502 -236.212)" fill="#72351c"/>
  <ellipse id="Ellipse_285" data-name="Ellipse 285" cx="3.759" cy="7.048" rx="3.759" ry="7.048" transform="translate(140.084 63.95)" fill="#fda57d"/>
  <ellipse id="Ellipse_286" data-name="Ellipse 286" cx="3.759" cy="7.048" rx="3.759" ry="7.048" transform="translate(220.912 63.95)" fill="#fda57d"/>
  <g id="Group_204" data-name="Group 204" transform="translate(105.668 142.97)" opacity="0.7">
    <rect id="Rectangle_329" data-name="Rectangle 329" width="156.377" height="90.048" rx="14.5" fill="url(#linear-gradient)"/>
  </g>
  <rect id="Rectangle_330" data-name="Rectangle 330" width="150.711" height="88.387" rx="26.835" transform="translate(108.501 144.631)" fill="#535461"/>
  <circle id="Ellipse_287" data-name="Ellipse 287" cx="5.099" cy="5.099" r="5.099" transform="translate(178.757 183.726)" fill="#fff"/>
  <rect id="Rectangle_331" data-name="Rectangle 331" width="336.55" height="5.099" transform="translate(15.581 245.483)" fill="#e0e0e0"/>
  <rect id="Rectangle_332" data-name="Rectangle 332" width="336.55" height="1.7" transform="translate(15.581 245.483)" opacity="0.1"/>
  <path id="Path_4058" data-name="Path 4058" d="M984.6,650.776v26.2a5.524,5.524,0,0,1-5.524,5.524H981.9a5.524,5.524,0,0,0,5.524-5.524v-26.2Z" transform="translate(-651.728 -449.486)" opacity="0.1"/>
  <path id="Path_4059" data-name="Path 4059" d="M944.835,593.789a1.654,1.654,0,0,0-1.251.635c-.372.674.3,1.433.916,1.9a12.188,12.188,0,0,1,3.1,2.889,3.621,3.621,0,0,1,.171,4c-1.1,1.494-3.729,1.815-3.984,3.653-.163,1.18.857,2.187,1.891,2.78,2.552,1.462,5.841,1.852,7.69,4.139a5.962,5.962,0,0,1,4.18-2.869c1.7-.388,3.476-.359,5.2-.622a1.8,1.8,0,0,0,1.436-.762c.483-.98-.894-2.157-.419-3.141.362-.749,1.424-.691,2.2-.991a2.865,2.865,0,0,0,1.426-3.421,6.442,6.442,0,0,0-2.437-3.164,27.3,27.3,0,0,0-9.814-4.537,25.162,25.162,0,0,0-5.217-1.207A26.088,26.088,0,0,0,944.835,593.789Z" transform="translate(-629.607 -413.619)" fill="#eee"/>
</svg>
