<svg xmlns="http://www.w3.org/2000/svg" width="90.616" height="53.94" viewBox="0 0 90.616 53.94">
  <g id="woocommerce" transform="translate(0)">
    <path id="Path_5240" data-name="Path 5240" d="M8.41,0H82.17a8.443,8.443,0,0,1,8.447,8.447V36.6a8.443,8.443,0,0,1-8.447,8.447H55.719l3.631,8.891L43.382,45.049H8.447A8.443,8.443,0,0,1,0,36.6V8.447A8.411,8.411,0,0,1,8.41,0Z" fill="#9b5c8f"/>
    <path id="Path_5241" data-name="Path 5241" d="M13.421,16.819a2.964,2.964,0,0,1,2.321-1.142,2.691,2.691,0,0,1,3.2,2.652q1.713,11.548,3.72,19.56l8.067-15.361a3.5,3.5,0,0,1,2.763-2.21c1.621-.11,2.615.921,3.02,3.094a68.837,68.837,0,0,0,3.5,12.6q1.437-14.034,4.862-20.26A2.83,2.83,0,0,1,47.31,14.13a3.2,3.2,0,0,1,2.321.737,2.885,2.885,0,0,1,1.142,2.1,3.2,3.2,0,0,1-.368,1.768c-1.437,2.652-2.616,7.11-3.573,13.3A68.63,68.63,0,0,0,45.8,46.067a4.372,4.372,0,0,1-.442,2.431,2.374,2.374,0,0,1-1.953,1.326,3.7,3.7,0,0,1-2.91-1.363q-5.139-5.25-8.141-15.692-3.592,7.072-5.3,10.609c-2.173,4.163-4.015,6.3-5.562,6.41-.995.074-1.842-.774-2.578-2.542q-2.818-7.239-6.078-27.959a3.136,3.136,0,0,1,.589-2.468ZM92.582,22.6a8.484,8.484,0,0,0-5.894-4.273,9.676,9.676,0,0,0-1.989-.221c-3.536,0-6.409,1.842-8.656,5.525a19.516,19.516,0,0,0-2.873,10.388,14.263,14.263,0,0,0,1.768,7.294,8.483,8.483,0,0,0,5.894,4.273,9.65,9.65,0,0,0,1.989.221c3.573,0,6.446-1.842,8.656-5.525A19.74,19.74,0,0,0,94.35,29.859,13.594,13.594,0,0,0,92.582,22.6Zm-4.641,10.2a9.743,9.743,0,0,1-2.8,5.452,3.54,3.54,0,0,1-2.983,1.179c-.884-.184-1.621-.957-2.173-2.394a9.34,9.34,0,0,1-.663-3.352A12.815,12.815,0,0,1,79.578,31a11.915,11.915,0,0,1,1.952-4.384c1.216-1.805,2.505-2.542,3.831-2.284.884.184,1.621.958,2.173,2.394A9.347,9.347,0,0,1,88.2,30.08a12.928,12.928,0,0,1-.258,2.726ZM69.522,22.6a8.561,8.561,0,0,0-5.894-4.273,9.673,9.673,0,0,0-1.989-.221c-3.536,0-6.409,1.842-8.656,5.525A19.519,19.519,0,0,0,50.11,34.021a14.263,14.263,0,0,0,1.768,7.294,8.483,8.483,0,0,0,5.894,4.273,9.653,9.653,0,0,0,1.989.221c3.573,0,6.446-1.842,8.656-5.525A19.737,19.737,0,0,0,71.29,29.859,13.937,13.937,0,0,0,69.522,22.6Zm-4.678,10.2a9.745,9.745,0,0,1-2.8,5.452,3.542,3.542,0,0,1-2.984,1.179c-.884-.184-1.62-.957-2.173-2.394a9.354,9.354,0,0,1-.663-3.352A12.815,12.815,0,0,1,56.482,31a11.91,11.91,0,0,1,1.953-4.384c1.216-1.805,2.5-2.542,3.831-2.284.884.184,1.621.958,2.173,2.394A9.34,9.34,0,0,1,65.1,30.08a10.867,10.867,0,0,1-.258,2.726Z" transform="translate(-8.261 -9.12)" fill="#fff"/>
  </g>
</svg>
