<svg xmlns="http://www.w3.org/2000/svg" xmlns:xlink="http://www.w3.org/1999/xlink" width="83.915" height="83.916" viewBox="0 0 83.915 83.916">
  <defs>
    <clipPath id="clip-path">
      <path id="Path_5221" data-name="Path 5221" d="M0,0H83.915V83.916H0Z"/>
    </clipPath>
  </defs>
  <g id="wordpress-blue" clip-path="url(#clip-path)">
    <path id="Path_5216" data-name="Path 5216" d="M254.668,44.485H240.109v1.544c4.554,0,5.286.976,5.286,6.75V63.192c0,5.774-.731,6.833-5.286,6.833-3.5-.488-5.856-2.359-9.109-5.938l-3.741-4.066c5.042-.9,7.726-4.067,7.726-7.646,0-4.472-3.822-7.889-10.98-7.889H209.69v1.544c4.554,0,5.286.976,5.286,6.75V63.192c0,5.774-.731,6.833-5.286,6.833v1.545h16.185V70.024c-4.553,0-5.286-1.058-5.286-6.833V60.265h1.383L231,71.569h23.668c11.63,0,16.674-6.181,16.674-13.583s-5.044-13.5-16.675-13.5ZM220.59,57.741V46.925h3.334c3.659,0,5.287,2.521,5.287,5.449,0,2.847-1.627,5.368-5.287,5.368Zm34.322,11.306h-.57c-2.927,0-3.334-.731-3.334-4.472V46.925h3.9c8.459,0,10,6.181,10,10.98C264.915,62.866,263.37,69.047,254.912,69.047Zm-90.523-8.3L170,44.158c1.627-4.8.9-6.18-4.31-6.18V36.351h15.29v1.627c-5.123,0-6.344,1.219-8.376,7.157l-9.273,27.817h-1.057l-8.3-25.458-8.458,25.458h-1.058l-9.028-27.816c-1.952-5.937-3.253-7.157-7.971-7.157V36.352H145.52v1.627c-4.8,0-6.1,1.138-4.392,6.18l5.449,16.594,8.214-24.4h1.547Zm27.652,11.873c-8.946,0-16.266-6.587-16.266-14.64,0-7.971,7.32-14.559,16.266-14.559s16.266,6.588,16.266,14.559C208.308,66.038,200.989,72.625,192.042,72.625Zm0-26.676c-7.482,0-10.086,6.749-10.086,12.036,0,5.369,2.6,12.038,10.086,12.038,7.565,0,10.167-6.669,10.167-12.038C202.209,52.7,199.607,45.949,192.042,45.949Z" transform="translate(-40.164 -11.454)" fill="#00749a"/>
    <path id="Path_5217" data-name="Path 5217" d="M358.3,69.942v1.627H339.67V69.942c5.45,0,6.426-1.383,6.426-9.517V47.413c0-8.135-.976-9.435-6.426-9.435V36.35h16.836c8.376,0,13.014,4.311,13.014,10.087,0,5.612-4.637,10-13.014,10h-4.637v3.984C351.869,68.559,352.845,69.942,358.3,69.942Zm-1.79-30.664h-4.637V53.431h4.637c4.555,0,6.669-3.172,6.669-6.994C363.175,42.533,361.061,39.278,356.506,39.278Zm68.889,24.645-.408,1.464c-.731,2.684-1.627,3.66-7.4,3.66h-1.139c-4.229,0-4.961-.976-4.961-6.75V58.557c6.344,0,6.833.568,6.833,4.8h1.546V51.235h-1.546c0,4.229-.488,4.8-6.833,4.8V46.925h4.472c5.776,0,6.67.976,7.4,3.66l.408,1.545h1.3l-.568-7.645H400.586V46.03c4.554,0,5.287.976,5.287,6.75V63.191c0,5.283-.621,6.613-4.212,6.8-3.413-.522-5.756-2.383-8.962-5.909l-3.742-4.066c5.043-.9,7.727-4.067,7.727-7.646,0-4.472-3.822-7.889-10.98-7.889H371.391v1.544c4.554,0,5.287.976,5.287,6.75V63.191c0,5.774-.731,6.833-5.287,6.833v1.545h16.186V70.024c-4.553,0-5.287-1.058-5.287-6.833V60.265h1.383l9.028,11.3h33.427l.488-7.644h-1.222Zm-43.106-6.183V46.925h3.334c3.66,0,5.287,2.521,5.287,5.449,0,2.847-1.627,5.368-5.287,5.368ZM441.9,72.625a12.024,12.024,0,0,1-7.32-2.766,5.837,5.837,0,0,0-1.3,2.766h-1.546V61.4h1.627c.651,5.368,4.392,8.54,9.191,8.54,2.6,0,4.718-1.464,4.718-3.9,0-2.114-1.87-3.742-5.205-5.287l-4.637-2.2c-3.254-1.547-5.693-4.231-5.693-7.809,0-3.9,3.66-7.238,8.7-7.238a10.186,10.186,0,0,1,6.344,2.115,4.594,4.594,0,0,0,1.057-2.2h1.545v9.6h-1.708c-.57-3.823-2.684-6.995-6.994-6.995-2.277,0-4.392,1.3-4.392,3.335,0,2.114,1.707,3.253,5.612,5.042l4.472,2.2c3.9,1.87,5.449,4.881,5.449,7.321,0,5.123-4.473,8.7-9.922,8.7Zm25.05,0a12.02,12.02,0,0,1-7.32-2.766,5.837,5.837,0,0,0-1.3,2.766h-1.546V61.4h1.627c.651,5.368,4.391,8.54,9.191,8.54,2.6,0,4.718-1.464,4.718-3.9,0-2.114-1.87-3.742-5.206-5.287l-4.637-2.2c-3.253-1.547-5.693-4.231-5.693-7.809,0-3.9,3.66-7.238,8.7-7.238a10.187,10.187,0,0,1,6.344,2.115,4.588,4.588,0,0,0,1.056-2.2h1.546v9.6H472.73c-.57-3.823-2.684-6.995-6.994-6.995-2.277,0-4.393,1.3-4.393,3.335,0,2.114,1.708,3.253,5.613,5.042l4.472,2.2c3.9,1.87,5.448,4.881,5.448,7.321,0,5.123-4.473,8.7-9.921,8.7Z" transform="translate(-107.03 -11.454)" fill="#464342"/>
    <g id="Group_289" data-name="Group 289">
      <path id="Path_5218" data-name="Path 5218" d="M8.708,44.7A36,36,0,0,0,28.994,77.1L11.824,30.052A35.857,35.857,0,0,0,8.708,44.7ZM69,42.885a18.951,18.951,0,0,0-2.968-9.927c-1.825-2.965-3.534-5.476-3.534-8.441a6.232,6.232,0,0,1,6.044-6.389c.16,0,.311.02.467.029a35.987,35.987,0,0,0-54.381,6.775c.844.025,1.641.042,2.316.042,3.765,0,9.593-.457,9.593-.457a1.487,1.487,0,0,1,.231,2.965s-1.951.229-4.12.343L35.756,66.814l7.878-23.624L38.025,27.825c-1.938-.114-3.774-.343-3.774-.343a1.487,1.487,0,0,1,.227-2.965s5.944.457,9.481.457c3.764,0,9.593-.457,9.593-.457a1.487,1.487,0,0,1,.231,2.965s-1.954.229-4.12.343L62.671,66.518l3.59-12C67.817,49.542,69,45.966,69,42.885Z" transform="translate(-2.744 -2.744)" fill="#00749a"/>
      <path id="Path_5219" data-name="Path 5219" d="M57.215,56.464l-10.8,31.381a36,36,0,0,0,22.121-.573,3.048,3.048,0,0,1-.256-.5ZM88.168,36.046a27.625,27.625,0,0,1,.242,3.7A33.954,33.954,0,0,1,85.673,52.64L74.678,84.428A36,36,0,0,0,88.168,36.046Z" transform="translate(-14.626 -11.358)" fill="#00749a"/>
      <path id="Path_5220" data-name="Path 5220" d="M41.958,0a41.958,41.958,0,1,0,41.96,41.957A42.006,42.006,0,0,0,41.958,0Zm0,81.993A40.034,40.034,0,1,1,81.991,41.957,40.081,40.081,0,0,1,41.958,81.993Z" fill="#00749a"/>
    </g>
  </g>
</svg>
