<svg xmlns="http://www.w3.org/2000/svg" width="85.602" height="68.426" viewBox="0 0 85.602 68.426">
  <g id="zeplin" transform="translate(0 0.1)">
    <path id="Path_5205" data-name="Path 5205" d="M243.116,1326.4l-4.478,1.636-.238,13.32,15.5-5.662c-5.321-1.782-9.2-4.923-10.784-9.294" transform="translate(-229.921 -1279.319)" fill="#fdbd39"/>
    <path id="Path_5206" data-name="Path 5206" d="M15.54,930.3,0,935.977l8.718,10.052,4.478-1.636c-1.579-4.357-.6-9.276,2.344-14.092" transform="translate(0 -897.308)" fill="#f69833"/>
    <path id="Path_5207" data-name="Path 5207" d="M379.112,284.945c-19.786,7.227-32.545,22.145-28.49,33.313l71.652-26.175c-4.055-11.168-23.375-14.366-43.162-7.139" transform="translate(-337.426 -271.178)" fill="#fecf33"/>
    <path id="Path_5208" data-name="Path 5208" d="M414.062,623.913c19.787-7.227,32.566-22.077,28.49-33.313L370.9,616.771c4.076,11.24,23.375,14.37,43.162,7.142" transform="translate(-357.708 -569.69)" fill="#ee6723"/>
    <path id="Path_5209" data-name="Path 5209" d="M442.648,590.5,371,616.674c1.4,3.87,6.754,5.776,14.259,5.776,7.32,0,16.689-1.81,26.456-5.378,19.786-7.227,33.7-18.933,30.934-26.573" transform="translate(-357.804 -569.594)" fill="#f69833"/>
    <path id="Path_5210" data-name="Path 5210" d="M418.859,428.2c-7.316,0-16.689,1.81-26.456,5.378-19.787,7.227-33.7,18.929-30.934,26.569l71.652-26.174c-1.4-3.87-6.754-5.773-14.263-5.773" transform="translate(-348.274 -413.066)" fill="#fdbd39"/>
    <g id="Group_288" data-name="Group 288" transform="translate(27.709 -0.1)">
      <path id="Path_5211" data-name="Path 5211" d="M817.955,216.548c-2.109,0-5.218-1.9-9.244-5.659a119.554,119.554,0,0,1-15.362-18.325,119.671,119.671,0,0,1-11.9-20.758c-2.756-6.552-3.151-10.578-1.17-11.972a2.642,2.642,0,0,1,1.558-.459c1.611,0,4.755,1.2,10.564,6.918l.128.124-.018.178c-.039.413-.075.825-.107,1.234l-.064.807-.569-.573c-6.26-6.306-9.013-6.986-9.909-6.986a1.035,1.035,0,0,0-.6.153c-.861.6-.918,3.564,1.757,9.913a118.01,118.01,0,0,0,11.727,20.441,117.51,117.51,0,0,0,15.131,18.054c5.044,4.706,7.316,5.214,8.06,5.214a1.053,1.053,0,0,0,.619-.164c.907-.637.907-3.806-2.074-10.642l-.139-.313.3-.164c.3-.164.59-.324.861-.48l.359-.2.167.377c2.113,4.844,4.09,11,1.5,12.822A2.656,2.656,0,0,1,817.955,216.548Zm0-.747v0Z" transform="translate(-779.038 -153.703)" fill="#ee6723"/>
      <path id="Path_5212" data-name="Path 5212" d="M1142.227,54.017l-.029.37c-.5,6.189-1.818,13.63-5.253,13.932-.071.007-.142.007-.21.007-2.333,0-4.542-3.343-6.559-9.934A119.549,119.549,0,0,1,1126,34.813a119.813,119.813,0,0,1,.032-23.948c.875-7.057,2.54-10.742,4.951-10.955.071-.007.146-.011.217-.011,1.693,0,4.243,1.917,6.854,10.845l-1.7.327a35.09,35.09,0,0,0-2.764-7.078c-.871-1.54-1.721-2.39-2.387-2.39a.453.453,0,0,0-.068,0c-1.046.092-2.568,2.625-3.415,9.468a118.106,118.106,0,0,0-.028,23.589A118.1,118.1,0,0,0,1131.8,57.89a31.664,31.664,0,0,0,2.667,6.537c.832,1.416,1.64,2.195,2.269,2.195a.389.389,0,0,0,.064,0c1-.085,2.884-2.725,3.678-12Z" transform="translate(-1113.102 0.1)" fill="#ee6723"/>
    </g>
  </g>
</svg>
